M48
; DRILL file {KiCad (5.1.10)-1} date 10/14/21 11:53:45
; FORMAT={-:-/ absolute / inch / decimal}
; #@! TF.CreationDate,2021-10-14T11:53:45+02:00
; #@! TF.GenerationSoftware,Kicad,Pcbnew,(5.1.10)-1
; #@! TF.FileFunction,Plated,1,4,PTH
FMAT,2
INCH
T1C0.0118
T2C0.0157
T3C0.0197
T4C0.0236
T5C0.0394
T6C0.0551
T7C0.0591
T8C0.0669
T9C0.0984
%
G90
G05
T1
X1.86Y-2.795
X1.98Y-2.75
X2.1Y-2.675
X2.56Y-2.875
X2.56Y-2.875
T2
X1.795Y-1.575
X1.795Y-1.645
X1.795Y-1.775
X1.795Y-1.865
X1.798Y-3.159
X1.875Y-1.575
X1.885Y-1.775
X1.89Y-1.87
X1.96Y-1.65
X1.995Y-1.76
X2.025Y-1.865
X2.025Y-1.94
X2.1255Y-3.0524
X2.135Y-1.865
X2.165Y-1.83
X2.1985Y-2.125
X2.2081Y-3.0524
X2.209Y-2.874
X2.2095Y-2.2025
X2.21Y-2.98
X2.255Y-1.685
X2.26Y-1.865
X2.295Y-3.065
X2.31Y-2.205
X2.31Y-2.37
X2.35Y-2.43
X2.36Y-2.8746
X2.385Y-1.665
X2.385Y-3.1
X2.41Y-2.8746
X2.43Y-2.545
X2.43Y-2.605
X2.455Y-1.855
X2.455Y-2.51
X2.455Y-2.575
X2.455Y-2.635
X2.46Y-2.205
X2.46Y-2.8746
X2.48Y-2.545
X2.48Y-2.605
X2.5Y-2.97
X2.5Y-3.145
X2.505Y-2.51
X2.505Y-2.575
X2.505Y-2.635
X2.51Y-2.8746
X2.53Y-2.545
X2.53Y-2.605
X2.55Y-2.51
X2.555Y-2.575
X2.56Y-2.205
X2.56Y-2.635
X2.58Y-2.545
X2.585Y-2.6
X2.5905Y-1.904
X2.61Y-2.8746
X2.62Y-1.72
X2.625Y-2.79
X2.69Y-1.955
X2.6915Y-2.6905
X2.695Y-2.055
X2.755Y-1.72
X2.76Y-2.2054
X2.78Y-2.055
X2.78Y-2.965
X2.785Y-3.075
X2.8Y-2.495
X2.805Y-2.37
X2.805Y-2.43
X2.81Y-2.2054
X2.819Y-2.678
X2.86Y-1.81
X2.9069Y-3.0019
X2.96Y-1.81
X2.977Y-2.841
X2.9785Y-2.681
X3.0164Y-2.0745
X3.06Y-1.815
X3.085Y-2.595
X3.085Y-2.695
X3.1006Y-2.077
X3.16Y-2.91
X3.16Y-2.985
X3.26Y-2.11
X3.26Y-2.485
X3.325Y-2.21
X3.365Y-3.12
X3.37Y-2.52
X3.37Y-2.885
X3.37Y-3.05
X3.41Y-3.52
X3.4176Y-2.075
X3.425Y-2.23
X3.475Y-3.645
X3.485Y-3.52
X3.495Y-2.075
X3.5698Y-2.6
X3.605Y-3.15
X3.6146Y-2.125
X3.6146Y-2.21
X3.6202Y-2.6
X3.635Y-3.64
X3.695Y-2.125
X3.695Y-2.21
X3.695Y-3.15
X3.735Y-2.625
X3.735Y-2.805
X3.785Y-3.15
X3.79Y-3.64
X3.895Y-3.15
X3.925Y-1.66
X3.955Y-3.64
X3.995Y-3.15
X4.055Y-1.875
X4.095Y-3.15
X4.115Y-3.64
X4.12Y-1.985
X4.17Y-1.61
X4.17Y-1.66
X4.175Y-1.71
X4.175Y-1.875
X4.19Y-1.985
X4.3Y-2.175
X4.3Y-2.71
X4.3091Y-2.445
X4.355Y-3.64
X4.38Y-2.535
X4.385Y-2.445
X4.418Y-2.799
X4.42Y-2.26
X4.445Y-2.45
X4.525Y-2.07
X4.53Y-2.595
X4.605Y-2.07
X4.605Y-2.595
X4.645Y-2.22
X4.655Y-1.935
X4.7259Y-1.935
X4.765Y-1.73
X4.765Y-1.81
X4.825Y-2.835
X4.835Y-2.115
X4.835Y-2.4
X4.845Y-1.725
X4.8456Y-1.8144
X4.855Y-1.935
X4.87Y-2.935
X4.875Y-3.315
X4.905Y-2.835
X4.905Y-3.23
X4.925Y-1.935
X5.075Y-2.9
X5.075Y-3.305
T3
X1.56Y-1.5748
X1.56Y-3.5827
X1.5817Y-1.5226
X1.5817Y-1.627
X1.5817Y-3.5305
X1.5817Y-3.6349
X1.6339Y-1.501
X1.6339Y-1.6486
X1.6339Y-3.5089
X1.6339Y-3.6565
X1.6861Y-1.5226
X1.6861Y-1.627
X1.6861Y-3.5305
X1.6861Y-3.6349
X1.7077Y-1.5748
X1.7077Y-3.5827
X5.2608Y-1.5748
X5.2608Y-3.5827
X5.2824Y-1.5226
X5.2824Y-1.627
X5.2824Y-3.5305
X5.2824Y-3.6349
X5.3346Y-1.501
X5.3346Y-1.6486
X5.3346Y-3.5089
X5.3346Y-3.6565
X5.3868Y-1.5226
X5.3868Y-1.627
X5.3868Y-3.5305
X5.3868Y-3.6349
X5.4085Y-1.5748
X5.4085Y-3.5827
T5
X1.615Y-1.89
X1.615Y-1.99
X1.615Y-2.09
X1.615Y-2.19
X1.615Y-2.29
X1.615Y-2.39
X1.615Y-2.49
X1.615Y-2.59
X1.615Y-2.69
X1.615Y-2.79
X1.615Y-2.89
X1.615Y-2.99
X1.615Y-3.09
X1.615Y-3.19
X1.87Y-3.28
X1.97Y-3.28
X2.07Y-3.28
X2.17Y-3.28
X2.27Y-3.28
X2.37Y-3.28
X2.47Y-3.28
X2.66Y-1.6
X2.66Y-3.28
X2.74Y-3.52
X2.74Y-3.62
X2.76Y-1.6
X2.76Y-3.28
X2.84Y-3.52
X2.84Y-3.62
X2.86Y-1.6
X2.86Y-3.28
X2.94Y-3.52
X2.94Y-3.62
X2.96Y-1.6
X2.96Y-3.28
X3.04Y-3.52
X3.04Y-3.62
X3.06Y-1.6
X3.06Y-3.28
X3.14Y-3.52
X3.14Y-3.62
X3.16Y-1.6
X3.16Y-3.28
X3.26Y-1.6
X3.26Y-3.28
X3.635Y-3.51
X3.735Y-3.51
X3.835Y-3.51
X3.935Y-3.51
X4.035Y-3.51
X4.135Y-3.51
X4.155Y-2.695
X4.155Y-2.795
X4.235Y-3.51
T6
X3.49Y-1.58
X3.6869Y-1.58
T7
X5.285Y-2.065
X5.29Y-2.415
X5.29Y-2.93
X5.29Y-3.3
T8
X5.185Y-1.965
X5.185Y-2.165
X5.19Y-2.315
X5.19Y-2.515
X5.19Y-2.83
X5.19Y-3.03
X5.19Y-3.2
X5.19Y-3.4
X5.385Y-1.965
X5.385Y-2.165
X5.39Y-2.315
X5.39Y-2.515
X5.39Y-2.83
X5.39Y-3.03
X5.39Y-3.2
X5.39Y-3.4
T9
X1.6339Y-1.5748
X1.6339Y-3.5827
X5.3346Y-1.5748
X5.3346Y-3.5827
T4
G00X2.1299Y-1.5895
M15
G01X2.1299Y-1.5659
M16
G05
G00X2.1299Y-1.7639
M15
G01X2.1299Y-1.7206
M16
G05
G00X2.4701Y-1.5895
M15
G01X2.4701Y-1.5659
M16
G05
G00X2.4701Y-1.7639
M15
G01X2.4701Y-1.7206
M16
G05
T0
M30
