M48
; DRILL file {KiCad (5.1.10)-1} date 09/26/21 11:35:04
; FORMAT={-:-/ absolute / metric / decimal}
; #@! TF.CreationDate,2021-09-26T11:35:04+02:00
; #@! TF.GenerationSoftware,Kicad,Pcbnew,(5.1.10)-1
; #@! TF.FileFunction,Plated,1,4,PTH
FMAT,2
METRIC
T1C0.300
T2C0.400
T3C0.500
T4C0.600
T5C1.000
T6C1.400
T7C1.500
T8C1.700
T9C2.500
%
G90
G05
T1
X47.244Y-70.993
X50.292Y-69.85
X53.34Y-67.945
X65.024Y-73.025
X65.024Y-73.025
T2
X45.593Y-40.005
X45.593Y-41.783
X45.593Y-45.085
X45.593Y-47.371
X45.669Y-80.239
X47.625Y-40.005
X47.879Y-45.085
X48.006Y-47.498
X49.784Y-41.91
X50.673Y-44.704
X51.435Y-47.371
X51.435Y-49.276
X53.988Y-77.531
X54.229Y-47.371
X54.991Y-46.482
X55.842Y-53.975
X56.086Y-77.531
X56.109Y-73.0
X56.121Y-55.944
X56.134Y-75.692
X57.277Y-42.799
X57.404Y-47.371
X58.293Y-77.851
X58.674Y-56.007
X58.674Y-60.198
X59.69Y-61.722
X59.944Y-73.016
X60.579Y-42.291
X60.579Y-78.74
X61.214Y-73.016
X61.722Y-64.643
X61.722Y-66.167
X62.357Y-47.117
X62.357Y-63.754
X62.357Y-65.405
X62.357Y-66.929
X62.484Y-56.007
X62.484Y-73.016
X62.992Y-64.643
X62.992Y-66.167
X63.5Y-75.438
X63.5Y-79.883
X63.627Y-63.754
X63.627Y-65.405
X63.627Y-66.929
X63.754Y-73.016
X64.262Y-64.643
X64.262Y-66.167
X64.77Y-63.754
X64.897Y-65.405
X65.024Y-56.007
X65.024Y-66.929
X65.532Y-64.643
X65.659Y-66.04
X65.799Y-48.362
X66.294Y-73.016
X66.548Y-43.688
X66.675Y-70.866
X68.326Y-49.657
X68.364Y-68.339
X68.453Y-52.197
X69.977Y-43.688
X70.104Y-56.016
X70.612Y-52.197
X70.612Y-75.311
X70.739Y-78.105
X71.12Y-63.373
X71.247Y-60.198
X71.247Y-61.722
X71.374Y-56.016
X71.603Y-68.021
X72.644Y-45.974
X73.835Y-76.248
X75.184Y-45.974
X75.616Y-72.161
X75.654Y-68.097
X76.617Y-52.692
X77.724Y-46.101
X78.359Y-65.913
X78.359Y-68.453
X78.755Y-52.756
X80.264Y-73.914
X80.264Y-75.819
X82.804Y-53.594
X82.804Y-63.119
X84.455Y-56.134
X85.471Y-79.248
X85.598Y-64.008
X85.598Y-73.279
X85.598Y-77.47
X86.614Y-89.408
X86.807Y-52.705
X86.995Y-56.642
X88.265Y-92.583
X88.519Y-89.408
X88.773Y-52.705
X90.673Y-66.039
X91.567Y-80.01
X91.812Y-53.975
X91.812Y-56.134
X91.953Y-66.039
X92.329Y-92.456
X93.853Y-53.975
X93.853Y-56.134
X93.853Y-80.01
X94.869Y-66.675
X94.869Y-71.247
X96.139Y-80.01
X96.266Y-92.456
X98.933Y-80.01
X99.695Y-42.164
X100.457Y-92.456
X101.473Y-80.01
X102.997Y-47.625
X104.013Y-80.01
X104.521Y-92.456
X104.648Y-50.419
X105.918Y-40.894
X105.918Y-42.164
X106.045Y-43.434
X106.045Y-47.625
X106.426Y-50.419
X109.22Y-55.245
X109.22Y-68.834
X109.45Y-62.103
X110.617Y-92.456
X111.252Y-64.389
X111.379Y-62.103
X112.217Y-71.095
X112.268Y-57.404
X112.903Y-62.23
X114.935Y-52.578
X115.062Y-65.913
X116.967Y-52.578
X116.967Y-65.913
X117.983Y-56.388
X118.237Y-49.149
X120.038Y-49.149
X121.031Y-43.942
X121.031Y-45.974
X122.555Y-72.009
X122.809Y-53.721
X122.809Y-60.96
X123.063Y-43.815
X123.079Y-46.085
X123.317Y-49.149
X123.698Y-74.549
X123.825Y-84.201
X124.587Y-72.009
X124.587Y-82.042
X125.095Y-49.149
X128.905Y-73.66
X128.905Y-83.947
T3
X39.625Y-40.0
X39.625Y-91.0
X40.174Y-38.674
X40.174Y-41.326
X40.174Y-89.674
X40.174Y-92.326
X41.5Y-38.125
X41.5Y-41.875
X41.5Y-89.125
X41.5Y-92.875
X42.826Y-38.674
X42.826Y-41.326
X42.826Y-89.674
X42.826Y-92.326
X43.375Y-40.0
X43.375Y-91.0
X133.625Y-40.0
X133.625Y-91.0
X134.174Y-38.674
X134.174Y-41.326
X134.174Y-89.674
X134.174Y-92.326
X135.5Y-38.125
X135.5Y-41.875
X135.5Y-89.125
X135.5Y-92.875
X136.826Y-38.674
X136.826Y-41.326
X136.826Y-89.674
X136.826Y-92.326
X137.375Y-40.0
X137.375Y-91.0
T5
X41.021Y-48.006
X41.021Y-50.546
X41.021Y-53.086
X41.021Y-55.626
X41.021Y-58.166
X41.021Y-60.706
X41.021Y-63.246
X41.021Y-65.786
X41.021Y-68.326
X41.021Y-70.866
X41.021Y-73.406
X41.021Y-75.946
X41.021Y-78.486
X41.021Y-81.026
X47.498Y-83.312
X50.038Y-83.312
X52.578Y-83.312
X55.118Y-83.312
X57.658Y-83.312
X60.198Y-83.312
X62.738Y-83.312
X67.564Y-40.64
X67.564Y-83.312
X69.596Y-89.408
X69.596Y-91.948
X70.104Y-40.64
X70.104Y-83.312
X72.136Y-89.408
X72.136Y-91.948
X72.644Y-40.64
X72.644Y-83.312
X74.676Y-89.408
X74.676Y-91.948
X75.184Y-40.64
X75.184Y-83.312
X77.216Y-89.408
X77.216Y-91.948
X77.724Y-40.64
X77.724Y-83.312
X79.756Y-89.408
X79.756Y-91.948
X80.264Y-40.64
X80.264Y-83.312
X82.804Y-40.64
X82.804Y-83.312
X92.329Y-89.154
X94.869Y-89.154
X97.409Y-89.154
X99.949Y-89.154
X102.489Y-89.154
X105.029Y-89.154
X105.537Y-68.453
X105.537Y-70.993
X107.569Y-89.154
T6
X88.646Y-40.132
X93.646Y-40.132
T7
X134.239Y-52.451
X134.366Y-61.341
X134.366Y-74.422
X134.366Y-83.82
T8
X131.699Y-49.911
X131.699Y-54.991
X131.826Y-58.801
X131.826Y-63.881
X131.826Y-71.882
X131.826Y-76.962
X131.826Y-81.28
X131.826Y-86.36
X136.779Y-49.911
X136.779Y-54.991
X136.906Y-58.801
X136.906Y-63.881
X136.906Y-71.882
X136.906Y-76.962
X136.906Y-81.28
X136.906Y-86.36
T9
X41.5Y-40.0
X41.5Y-91.0
X135.5Y-40.0
X135.5Y-91.0
T4
G00X54.1Y-40.373
M15
G01X54.1Y-39.773
M16
G05
G00X54.1Y-44.803
M15
G01X54.1Y-43.703
M16
G05
G00X62.74Y-40.373
M15
G01X62.74Y-39.773
M16
G05
G00X62.74Y-44.803
M15
G01X62.74Y-43.703
M16
G05
T0
M30
