G04 #@! TF.GenerationSoftware,KiCad,Pcbnew,(5.1.10)-1*
G04 #@! TF.CreationDate,2021-11-14T00:12:06+01:00*
G04 #@! TF.ProjectId,ESP32Vfo,45535033-3256-4666-9f2e-6b696361645f,rev?*
G04 #@! TF.SameCoordinates,Original*
G04 #@! TF.FileFunction,Legend,Bot*
G04 #@! TF.FilePolarity,Positive*
%FSLAX46Y46*%
G04 Gerber Fmt 4.6, Leading zero omitted, Abs format (unit mm)*
G04 Created by KiCad (PCBNEW (5.1.10)-1) date 2021-11-14 00:12:06*
%MOMM*%
%LPD*%
G01*
G04 APERTURE LIST*
%ADD10C,0.120000*%
%ADD11C,0.150000*%
G04 APERTURE END LIST*
D10*
X44994564Y-80973600D02*
X44540436Y-80973600D01*
X44994564Y-79503600D02*
X44540436Y-79503600D01*
D11*
X45410357Y-79040980D02*
X45743690Y-78564790D01*
X45981785Y-79040980D02*
X45981785Y-78040980D01*
X45600833Y-78040980D01*
X45505595Y-78088600D01*
X45457976Y-78136219D01*
X45410357Y-78231457D01*
X45410357Y-78374314D01*
X45457976Y-78469552D01*
X45505595Y-78517171D01*
X45600833Y-78564790D01*
X45981785Y-78564790D01*
X44457976Y-79040980D02*
X45029404Y-79040980D01*
X44743690Y-79040980D02*
X44743690Y-78040980D01*
X44838928Y-78183838D01*
X44934166Y-78279076D01*
X45029404Y-78326695D01*
X43553214Y-78040980D02*
X44029404Y-78040980D01*
X44077023Y-78517171D01*
X44029404Y-78469552D01*
X43934166Y-78421933D01*
X43696071Y-78421933D01*
X43600833Y-78469552D01*
X43553214Y-78517171D01*
X43505595Y-78612409D01*
X43505595Y-78850504D01*
X43553214Y-78945742D01*
X43600833Y-78993361D01*
X43696071Y-79040980D01*
X43934166Y-79040980D01*
X44029404Y-78993361D01*
X44077023Y-78945742D01*
M02*
