G04 #@! TF.GenerationSoftware,KiCad,Pcbnew,(5.1.10)-1*
G04 #@! TF.CreationDate,2021-11-14T00:12:06+01:00*
G04 #@! TF.ProjectId,ESP32Vfo,45535033-3256-4666-9f2e-6b696361645f,rev?*
G04 #@! TF.SameCoordinates,Original*
G04 #@! TF.FileFunction,Legend,Top*
G04 #@! TF.FilePolarity,Positive*
%FSLAX46Y46*%
G04 Gerber Fmt 4.6, Leading zero omitted, Abs format (unit mm)*
G04 Created by KiCad (PCBNEW (5.1.10)-1) date 2021-11-14 00:12:06*
%MOMM*%
%LPD*%
G01*
G04 APERTURE LIST*
%ADD10C,0.250000*%
%ADD11C,0.100000*%
%ADD12C,0.150000*%
%ADD13C,0.200000*%
%ADD14C,0.120000*%
G04 APERTURE END LIST*
D10*
X62647619Y-91414285D02*
X62114285Y-91414285D01*
X61885714Y-90576190D02*
X62647619Y-90576190D01*
X62647619Y-92176190D01*
X61885714Y-92176190D01*
X61276190Y-90652380D02*
X61047619Y-90576190D01*
X60666666Y-90576190D01*
X60514285Y-90652380D01*
X60438095Y-90728571D01*
X60361904Y-90880952D01*
X60361904Y-91033333D01*
X60438095Y-91185714D01*
X60514285Y-91261904D01*
X60666666Y-91338095D01*
X60971428Y-91414285D01*
X61123809Y-91490476D01*
X61200000Y-91566666D01*
X61276190Y-91719047D01*
X61276190Y-91871428D01*
X61200000Y-92023809D01*
X61123809Y-92100000D01*
X60971428Y-92176190D01*
X60590476Y-92176190D01*
X60361904Y-92100000D01*
X59676190Y-90576190D02*
X59676190Y-92176190D01*
X59066666Y-92176190D01*
X58914285Y-92100000D01*
X58838095Y-92023809D01*
X58761904Y-91871428D01*
X58761904Y-91642857D01*
X58838095Y-91490476D01*
X58914285Y-91414285D01*
X59066666Y-91338095D01*
X59676190Y-91338095D01*
X58228571Y-92176190D02*
X57238095Y-92176190D01*
X57771428Y-91566666D01*
X57542857Y-91566666D01*
X57390476Y-91490476D01*
X57314285Y-91414285D01*
X57238095Y-91261904D01*
X57238095Y-90880952D01*
X57314285Y-90728571D01*
X57390476Y-90652380D01*
X57542857Y-90576190D01*
X58000000Y-90576190D01*
X58152380Y-90652380D01*
X58228571Y-90728571D01*
X56628571Y-92023809D02*
X56552380Y-92100000D01*
X56400000Y-92176190D01*
X56019047Y-92176190D01*
X55866666Y-92100000D01*
X55790476Y-92023809D01*
X55714285Y-91871428D01*
X55714285Y-91719047D01*
X55790476Y-91490476D01*
X56704761Y-90576190D01*
X55714285Y-90576190D01*
X54038095Y-92176190D02*
X53504761Y-90576190D01*
X52971428Y-92176190D01*
X51904761Y-91414285D02*
X52438095Y-91414285D01*
X52438095Y-90576190D02*
X52438095Y-92176190D01*
X51676190Y-92176190D01*
X50761904Y-92176190D02*
X50457142Y-92176190D01*
X50304761Y-92100000D01*
X50152380Y-91947619D01*
X50076190Y-91642857D01*
X50076190Y-91109523D01*
X50152380Y-90804761D01*
X50304761Y-90652380D01*
X50457142Y-90576190D01*
X50761904Y-90576190D01*
X50914285Y-90652380D01*
X51066666Y-90804761D01*
X51142857Y-91109523D01*
X51142857Y-91642857D01*
X51066666Y-91947619D01*
X50914285Y-92100000D01*
X50761904Y-92176190D01*
D11*
G36*
X94721000Y-93878000D02*
G01*
X94331000Y-93508000D01*
X94721000Y-93118000D01*
X94721000Y-93878000D01*
G37*
X94721000Y-93878000D02*
X94331000Y-93508000D01*
X94721000Y-93118000D01*
X94721000Y-93878000D01*
D12*
X105490476Y-50938095D02*
X104995238Y-50938095D01*
X105261904Y-50633333D01*
X105147619Y-50633333D01*
X105071428Y-50595238D01*
X105033333Y-50557142D01*
X104995238Y-50480952D01*
X104995238Y-50290476D01*
X105033333Y-50214285D01*
X105071428Y-50176190D01*
X105147619Y-50138095D01*
X105376190Y-50138095D01*
X105452380Y-50176190D01*
X105490476Y-50214285D01*
X104766666Y-50938095D02*
X104500000Y-50138095D01*
X104233333Y-50938095D01*
X104042857Y-50938095D02*
X103547619Y-50938095D01*
X103814285Y-50633333D01*
X103700000Y-50633333D01*
X103623809Y-50595238D01*
X103585714Y-50557142D01*
X103547619Y-50480952D01*
X103547619Y-50290476D01*
X103585714Y-50214285D01*
X103623809Y-50176190D01*
X103700000Y-50138095D01*
X103928571Y-50138095D01*
X104004761Y-50176190D01*
X104042857Y-50214285D01*
D13*
X121742857Y-39642857D02*
X121742857Y-38442857D01*
X122200000Y-38442857D01*
X122314285Y-38500000D01*
X122371428Y-38557142D01*
X122428571Y-38671428D01*
X122428571Y-38842857D01*
X122371428Y-38957142D01*
X122314285Y-39014285D01*
X122200000Y-39071428D01*
X121742857Y-39071428D01*
X122885714Y-39300000D02*
X123457142Y-39300000D01*
X122771428Y-39642857D02*
X123171428Y-38442857D01*
X123571428Y-39642857D01*
X124200000Y-38442857D02*
X124314285Y-38442857D01*
X124428571Y-38500000D01*
X124485714Y-38557142D01*
X124542857Y-38671428D01*
X124600000Y-38900000D01*
X124600000Y-39185714D01*
X124542857Y-39414285D01*
X124485714Y-39528571D01*
X124428571Y-39585714D01*
X124314285Y-39642857D01*
X124200000Y-39642857D01*
X124085714Y-39585714D01*
X124028571Y-39528571D01*
X123971428Y-39414285D01*
X123914285Y-39185714D01*
X123914285Y-38900000D01*
X123971428Y-38671428D01*
X124028571Y-38557142D01*
X124085714Y-38500000D01*
X124200000Y-38442857D01*
X125114285Y-39642857D02*
X125114285Y-38442857D01*
X125571428Y-38442857D01*
X125685714Y-38500000D01*
X125742857Y-38557142D01*
X125800000Y-38671428D01*
X125800000Y-38842857D01*
X125742857Y-38957142D01*
X125685714Y-39014285D01*
X125571428Y-39071428D01*
X125114285Y-39071428D01*
X126314285Y-39642857D02*
X126314285Y-38442857D01*
X126314285Y-39014285D02*
X127000000Y-39014285D01*
X127000000Y-39642857D02*
X127000000Y-38442857D01*
X127571428Y-39642857D02*
X127571428Y-38442857D01*
X127571428Y-39014285D02*
X128257142Y-39014285D01*
X128257142Y-39642857D02*
X128257142Y-38442857D01*
X121717028Y-40897257D02*
X122117028Y-42097257D01*
X122517028Y-40897257D01*
X123545600Y-42097257D02*
X122859885Y-42097257D01*
X123202742Y-42097257D02*
X123202742Y-40897257D01*
X123088457Y-41068685D01*
X122974171Y-41182971D01*
X122859885Y-41240114D01*
X124059885Y-41982971D02*
X124117028Y-42040114D01*
X124059885Y-42097257D01*
X124002742Y-42040114D01*
X124059885Y-41982971D01*
X124059885Y-42097257D01*
X124859885Y-40897257D02*
X124974171Y-40897257D01*
X125088457Y-40954400D01*
X125145600Y-41011542D01*
X125202742Y-41125828D01*
X125259885Y-41354400D01*
X125259885Y-41640114D01*
X125202742Y-41868685D01*
X125145600Y-41982971D01*
X125088457Y-42040114D01*
X124974171Y-42097257D01*
X124859885Y-42097257D01*
X124745600Y-42040114D01*
X124688457Y-41982971D01*
X124631314Y-41868685D01*
X124574171Y-41640114D01*
X124574171Y-41354400D01*
X124631314Y-41125828D01*
X124688457Y-41011542D01*
X124745600Y-40954400D01*
X124859885Y-40897257D01*
D14*
X62300000Y-79563000D02*
X62300000Y-75763000D01*
X64700000Y-75763000D02*
X64700000Y-79563000D01*
X94805000Y-61317064D02*
X94805000Y-60862936D01*
X93335000Y-61317064D02*
X93335000Y-60862936D01*
X97205000Y-61287064D02*
X97205000Y-60832936D01*
X95735000Y-61287064D02*
X95735000Y-60832936D01*
X54722700Y-76319748D02*
X54722700Y-76842252D01*
X53252700Y-76319748D02*
X53252700Y-76842252D01*
X75477636Y-53427300D02*
X75931764Y-53427300D01*
X75477636Y-51957300D02*
X75931764Y-51957300D01*
X79894164Y-52020800D02*
X79440036Y-52020800D01*
X79894164Y-53490800D02*
X79440036Y-53490800D01*
X77360900Y-48643000D02*
X77360900Y-50103000D01*
X74200900Y-48643000D02*
X74200900Y-50803000D01*
X74200900Y-48643000D02*
X75130900Y-48643000D01*
X77360900Y-48643000D02*
X76430900Y-48643000D01*
X81336000Y-48630300D02*
X81336000Y-50090300D01*
X78176000Y-48630300D02*
X78176000Y-50790300D01*
X78176000Y-48630300D02*
X79106000Y-48630300D01*
X81336000Y-48630300D02*
X80406000Y-48630300D01*
X73489000Y-73636000D02*
X74269000Y-73636000D01*
X74269000Y-73636000D02*
X74269000Y-72636000D01*
X73489000Y-55396000D02*
X74269000Y-55396000D01*
X74269000Y-55396000D02*
X74269000Y-56396000D01*
X48524000Y-73636000D02*
X48524000Y-55396000D01*
X48524000Y-55396000D02*
X54944000Y-55396000D01*
X48524000Y-73636000D02*
X54944000Y-73636000D01*
X54944000Y-73636000D02*
X54944000Y-74016000D01*
X53840000Y-37363000D02*
X63000000Y-37363000D01*
X63000000Y-37363000D02*
X63000000Y-39068000D01*
X53840000Y-39068000D02*
X53840000Y-37363000D01*
X53840000Y-41078000D02*
X53840000Y-42998000D01*
X63000000Y-42998000D02*
X63000000Y-41078000D01*
X104207000Y-72323000D02*
X106867000Y-72323000D01*
X104207000Y-69723000D02*
X104207000Y-72323000D01*
X106867000Y-69723000D02*
X106867000Y-72323000D01*
X104207000Y-69723000D02*
X106867000Y-69723000D01*
X104207000Y-68453000D02*
X104207000Y-67123000D01*
X104207000Y-67123000D02*
X105537000Y-67123000D01*
X97002936Y-74703000D02*
X97457064Y-74703000D01*
X97002936Y-73233000D02*
X97457064Y-73233000D01*
X101452936Y-65603000D02*
X101907064Y-65603000D01*
X101452936Y-64133000D02*
X101907064Y-64133000D01*
X98010000Y-71798000D02*
X96550000Y-71798000D01*
X98010000Y-68638000D02*
X95850000Y-68638000D01*
X98010000Y-68638000D02*
X98010000Y-69568000D01*
X98010000Y-71798000D02*
X98010000Y-70868000D01*
X98010000Y-67248000D02*
X96550000Y-67248000D01*
X98010000Y-64088000D02*
X95850000Y-64088000D01*
X98010000Y-64088000D02*
X98010000Y-65018000D01*
X98010000Y-67248000D02*
X98010000Y-66318000D01*
X100100000Y-69918000D02*
X102650000Y-69918000D01*
X100100000Y-71618000D02*
X102650000Y-71618000D01*
X100100000Y-69918000D02*
X100100000Y-71618000D01*
X100100000Y-66968000D02*
X102650000Y-66968000D01*
X100100000Y-68668000D02*
X102650000Y-68668000D01*
X100100000Y-66968000D02*
X100100000Y-68668000D01*
X72385000Y-50857000D02*
X68585000Y-50857000D01*
X68585000Y-48457000D02*
X72385000Y-48457000D01*
X67048748Y-52932000D02*
X67571252Y-52932000D01*
X67048748Y-51462000D02*
X67571252Y-51462000D01*
X113444000Y-54011000D02*
X108044000Y-54011000D01*
X113444000Y-58511000D02*
X113444000Y-54011000D01*
X113444000Y-67727000D02*
X108044000Y-67727000D01*
X113444000Y-72227000D02*
X113444000Y-67727000D01*
D12*
X115673000Y-54430000D02*
X114448000Y-54430000D01*
X115673000Y-57555000D02*
X119023000Y-57555000D01*
X115673000Y-54205000D02*
X119023000Y-54205000D01*
X115673000Y-57555000D02*
X115673000Y-57255000D01*
X119023000Y-57555000D02*
X119023000Y-57255000D01*
X119023000Y-54205000D02*
X119023000Y-54505000D01*
X115673000Y-54205000D02*
X115673000Y-54430000D01*
X115673000Y-68019000D02*
X114448000Y-68019000D01*
X115673000Y-71144000D02*
X119023000Y-71144000D01*
X115673000Y-67794000D02*
X119023000Y-67794000D01*
X115673000Y-71144000D02*
X115673000Y-70844000D01*
X119023000Y-71144000D02*
X119023000Y-70844000D01*
X119023000Y-67794000D02*
X119023000Y-68094000D01*
X115673000Y-67794000D02*
X115673000Y-68019000D01*
D14*
X85725000Y-54385000D02*
X82125000Y-54385000D01*
X85725000Y-54385000D02*
X87925000Y-54385000D01*
X85725000Y-62455000D02*
X83525000Y-62455000D01*
X85725000Y-62455000D02*
X87925000Y-62455000D01*
X127788936Y-65378000D02*
X128243064Y-65378000D01*
X127788936Y-63908000D02*
X128243064Y-63908000D01*
X127788936Y-74395000D02*
X128243064Y-74395000D01*
X127788936Y-72925000D02*
X128243064Y-72925000D01*
X128243064Y-59463000D02*
X127788936Y-59463000D01*
X128243064Y-60933000D02*
X127788936Y-60933000D01*
X128370064Y-75465000D02*
X127915936Y-75465000D01*
X128370064Y-76935000D02*
X127915936Y-76935000D01*
X124052064Y-63400000D02*
X123597936Y-63400000D01*
X124052064Y-64870000D02*
X123597936Y-64870000D01*
X123798064Y-78132000D02*
X123343936Y-78132000D01*
X123798064Y-79602000D02*
X123343936Y-79602000D01*
X124052064Y-56034000D02*
X123597936Y-56034000D01*
X124052064Y-57504000D02*
X123597936Y-57504000D01*
X123925064Y-87784000D02*
X123470936Y-87784000D01*
X123925064Y-89254000D02*
X123470936Y-89254000D01*
X127661936Y-53948000D02*
X128116064Y-53948000D01*
X127661936Y-52478000D02*
X128116064Y-52478000D01*
X127788936Y-84682000D02*
X128243064Y-84682000D01*
X127788936Y-83212000D02*
X128243064Y-83212000D01*
X128116064Y-54891000D02*
X127661936Y-54891000D01*
X128116064Y-56361000D02*
X127661936Y-56361000D01*
X127788936Y-86968000D02*
X128243064Y-86968000D01*
X127788936Y-85498000D02*
X128243064Y-85498000D01*
X123978936Y-49884000D02*
X124433064Y-49884000D01*
X123978936Y-48414000D02*
X124433064Y-48414000D01*
X118898936Y-49884000D02*
X119353064Y-49884000D01*
X118898936Y-48414000D02*
X119353064Y-48414000D01*
X79020936Y-69188000D02*
X79475064Y-69188000D01*
X79020936Y-67718000D02*
X79475064Y-67718000D01*
X46890000Y-40666936D02*
X46890000Y-41121064D01*
X48360000Y-40666936D02*
X48360000Y-41121064D01*
X79020936Y-66648000D02*
X79475064Y-66648000D01*
X79020936Y-65178000D02*
X79475064Y-65178000D01*
X110590064Y-63654000D02*
X110135936Y-63654000D01*
X110590064Y-65124000D02*
X110135936Y-65124000D01*
X110590064Y-61368000D02*
X110135936Y-61368000D01*
X110590064Y-62838000D02*
X110135936Y-62838000D01*
X123065000Y-59380000D02*
X124525000Y-59380000D01*
X123065000Y-62540000D02*
X125225000Y-62540000D01*
X123065000Y-62540000D02*
X123065000Y-61610000D01*
X123065000Y-59380000D02*
X123065000Y-60310000D01*
X125278000Y-74805000D02*
X125278000Y-76265000D01*
X122118000Y-74805000D02*
X122118000Y-76965000D01*
X122118000Y-74805000D02*
X123048000Y-74805000D01*
X125278000Y-74805000D02*
X124348000Y-74805000D01*
X123065000Y-52141000D02*
X124525000Y-52141000D01*
X123065000Y-55301000D02*
X125225000Y-55301000D01*
X123065000Y-55301000D02*
X123065000Y-54371000D01*
X123065000Y-52141000D02*
X123065000Y-53071000D01*
X125405000Y-84457000D02*
X125405000Y-85917000D01*
X122245000Y-84457000D02*
X122245000Y-86617000D01*
X122245000Y-84457000D02*
X123175000Y-84457000D01*
X125405000Y-84457000D02*
X124475000Y-84457000D01*
X132566000Y-57661000D02*
X136166000Y-57661000D01*
X132566000Y-65021000D02*
X136166000Y-65021000D01*
X138046000Y-59541000D02*
X138046000Y-63141000D01*
X130686000Y-59541000D02*
X130686000Y-63141000D01*
X132566000Y-70742000D02*
X136166000Y-70742000D01*
X132566000Y-78102000D02*
X136166000Y-78102000D01*
X138046000Y-72622000D02*
X138046000Y-76222000D01*
X130686000Y-72622000D02*
X130686000Y-76222000D01*
X132439000Y-48771000D02*
X136039000Y-48771000D01*
X132439000Y-56131000D02*
X136039000Y-56131000D01*
X137919000Y-50651000D02*
X137919000Y-54251000D01*
X130559000Y-50651000D02*
X130559000Y-54251000D01*
X132566000Y-80140000D02*
X136166000Y-80140000D01*
X132566000Y-87500000D02*
X136166000Y-87500000D01*
X138046000Y-82020000D02*
X138046000Y-85620000D01*
X130686000Y-82020000D02*
X130686000Y-85620000D01*
X41021000Y-82356000D02*
X39691000Y-82356000D01*
X39691000Y-82356000D02*
X39691000Y-81026000D01*
X39691000Y-79756000D02*
X39691000Y-46676000D01*
X42351000Y-46676000D02*
X39691000Y-46676000D01*
X42351000Y-79756000D02*
X42351000Y-46676000D01*
X42351000Y-79756000D02*
X39691000Y-79756000D01*
X127754748Y-63219000D02*
X128277252Y-63219000D01*
X127754748Y-61749000D02*
X128277252Y-61749000D01*
X127754748Y-71855000D02*
X128277252Y-71855000D01*
X127754748Y-70385000D02*
X128277252Y-70385000D01*
X127627748Y-51662000D02*
X128150252Y-51662000D01*
X127627748Y-50192000D02*
X128150252Y-50192000D01*
X127754748Y-82269000D02*
X128277252Y-82269000D01*
X127754748Y-80799000D02*
X128277252Y-80799000D01*
X123309748Y-72744000D02*
X123832252Y-72744000D01*
X123309748Y-71274000D02*
X123832252Y-71274000D01*
X123436748Y-82777000D02*
X123959252Y-82777000D01*
X123436748Y-81307000D02*
X123959252Y-81307000D01*
X80999000Y-75191252D02*
X80999000Y-74668748D01*
X79529000Y-75191252D02*
X79529000Y-74668748D01*
X116212252Y-65178000D02*
X115689748Y-65178000D01*
X116212252Y-66648000D02*
X115689748Y-66648000D01*
X50700000Y-47998748D02*
X50700000Y-48521252D01*
X52170000Y-47998748D02*
X52170000Y-48521252D01*
X49049000Y-40632748D02*
X49049000Y-41155252D01*
X50519000Y-40632748D02*
X50519000Y-41155252D01*
X60479000Y-52043064D02*
X60479000Y-51588936D01*
X61949000Y-52043064D02*
X61949000Y-51588936D01*
X58193000Y-52043064D02*
X58193000Y-51588936D01*
X59663000Y-52043064D02*
X59663000Y-51588936D01*
X65809864Y-44423000D02*
X65355736Y-44423000D01*
X65809864Y-42953000D02*
X65355736Y-42953000D01*
X61568064Y-47852000D02*
X61113936Y-47852000D01*
X61568064Y-46382000D02*
X61113936Y-46382000D01*
X46328000Y-40632748D02*
X46328000Y-41155252D01*
X44858000Y-40632748D02*
X44858000Y-41155252D01*
X68826748Y-42953000D02*
X69349252Y-42953000D01*
X68826748Y-44423000D02*
X69349252Y-44423000D01*
X87789652Y-88673000D02*
X87267148Y-88673000D01*
X87789652Y-90143000D02*
X87267148Y-90143000D01*
X68266000Y-93278000D02*
X68266000Y-90678000D01*
X68266000Y-93278000D02*
X81086000Y-93278000D01*
X81086000Y-93278000D02*
X81086000Y-88078000D01*
X70866000Y-88078000D02*
X81086000Y-88078000D01*
X70866000Y-90678000D02*
X70866000Y-88078000D01*
X68266000Y-90678000D02*
X70866000Y-90678000D01*
X68266000Y-88078000D02*
X69596000Y-88078000D01*
X68266000Y-89408000D02*
X68266000Y-88078000D01*
X48621000Y-48838000D02*
X49346000Y-48838000D01*
X44126000Y-43618000D02*
X44126000Y-44343000D01*
X44851000Y-43618000D02*
X44126000Y-43618000D01*
X49346000Y-43618000D02*
X49346000Y-44343000D01*
X48621000Y-43618000D02*
X49346000Y-43618000D01*
X44126000Y-48838000D02*
X44126000Y-48113000D01*
X44851000Y-48838000D02*
X44126000Y-48838000D01*
X51233000Y-38857422D02*
X51233000Y-39374578D01*
X52653000Y-38857422D02*
X52653000Y-39374578D01*
X48668000Y-87637252D02*
X48668000Y-87114748D01*
X50138000Y-87637252D02*
X50138000Y-87114748D01*
X130139000Y-41097000D02*
X130139000Y-45347000D01*
X130139000Y-45347000D02*
X129119000Y-45347000D01*
X129119000Y-45347000D02*
X129119000Y-43747000D01*
X129119000Y-43747000D02*
X127839000Y-43747000D01*
X127839000Y-43747000D02*
X127839000Y-46637000D01*
X118019000Y-41097000D02*
X118019000Y-45347000D01*
X118019000Y-45347000D02*
X119039000Y-45347000D01*
X119039000Y-45347000D02*
X119039000Y-43747000D01*
X119039000Y-43747000D02*
X120319000Y-43747000D01*
X128419000Y-37527000D02*
X119739000Y-37527000D01*
X71366748Y-51487000D02*
X71889252Y-51487000D01*
X71366748Y-52907000D02*
X71889252Y-52907000D01*
X92903000Y-74689000D02*
X92903000Y-66789000D01*
X82103000Y-74689000D02*
X82103000Y-66789000D01*
X82503000Y-74689000D02*
X82503000Y-76089000D01*
X82103000Y-74689000D02*
X82503000Y-74689000D01*
X104780000Y-45574000D02*
X104780000Y-44314000D01*
X104780000Y-38754000D02*
X104780000Y-40014000D01*
X101020000Y-45574000D02*
X104780000Y-45574000D01*
X98770000Y-38754000D02*
X104780000Y-38754000D01*
X93098252Y-54685000D02*
X92575748Y-54685000D01*
X93098252Y-53265000D02*
X92575748Y-53265000D01*
X93098252Y-56844000D02*
X92575748Y-56844000D01*
X93098252Y-55424000D02*
X92575748Y-55424000D01*
X77014000Y-45219252D02*
X77014000Y-44696748D01*
X78434000Y-45219252D02*
X78434000Y-44696748D01*
X74474000Y-45219252D02*
X74474000Y-44696748D01*
X75894000Y-45219252D02*
X75894000Y-44696748D01*
X71934000Y-45219252D02*
X71934000Y-44696748D01*
X73354000Y-45219252D02*
X73354000Y-44696748D01*
X92277000Y-84701748D02*
X92277000Y-85224252D01*
X90857000Y-84701748D02*
X90857000Y-85224252D01*
X94563000Y-84701748D02*
X94563000Y-85224252D01*
X93143000Y-84701748D02*
X93143000Y-85224252D01*
X96849000Y-84701748D02*
X96849000Y-85224252D01*
X95429000Y-84701748D02*
X95429000Y-85224252D01*
X99643000Y-84701748D02*
X99643000Y-85224252D01*
X98223000Y-84701748D02*
X98223000Y-85224252D01*
X102183000Y-84701748D02*
X102183000Y-85224252D01*
X100763000Y-84701748D02*
X100763000Y-85224252D01*
X104723000Y-84701748D02*
X104723000Y-85224252D01*
X103303000Y-84701748D02*
X103303000Y-85224252D01*
X89028748Y-91746000D02*
X89551252Y-91746000D01*
X89028748Y-93166000D02*
X89551252Y-93166000D01*
X93083748Y-91746000D02*
X93606252Y-91746000D01*
X93083748Y-93166000D02*
X93606252Y-93166000D01*
X97147748Y-91746000D02*
X97670252Y-91746000D01*
X97147748Y-93166000D02*
X97670252Y-93166000D01*
X101211748Y-91746000D02*
X101734252Y-91746000D01*
X101211748Y-93166000D02*
X101734252Y-93166000D01*
X105275748Y-91746000D02*
X105798252Y-91746000D01*
X105275748Y-93166000D02*
X105798252Y-93166000D01*
X109862252Y-93166000D02*
X109339748Y-93166000D01*
X109862252Y-91746000D02*
X109339748Y-91746000D01*
X57583000Y-76969252D02*
X57583000Y-76446748D01*
X59003000Y-76969252D02*
X59003000Y-76446748D01*
X95426000Y-40132000D02*
G75*
G03*
X95426000Y-40132000I-1780000J0D01*
G01*
X86086000Y-42132000D02*
X96206000Y-42132000D01*
X86086000Y-38132000D02*
X96206000Y-38132000D01*
X86086000Y-37132000D02*
X96206000Y-37132000D01*
X86086000Y-33572000D02*
X96206000Y-33572000D01*
X86086000Y-44192000D02*
X96206000Y-44192000D01*
X86086000Y-33572000D02*
X86086000Y-44192000D01*
X96206000Y-33572000D02*
X96206000Y-44192000D01*
X94996000Y-38999000D02*
X94947000Y-39049000D01*
X92538000Y-41457000D02*
X92514000Y-41482000D01*
X94779000Y-38782000D02*
X94754000Y-38806000D01*
X92346000Y-41215000D02*
X92296000Y-41265000D01*
X85846000Y-42192000D02*
X85846000Y-44432000D01*
X85846000Y-44432000D02*
X87846000Y-44432000D01*
X88676814Y-41912389D02*
G75*
G02*
X87950000Y-41771000I-30814J1780389D01*
G01*
X87006795Y-40827516D02*
G75*
G02*
X87007000Y-39436000I1639205J695516D01*
G01*
X87950484Y-38492795D02*
G75*
G02*
X89342000Y-38493000I695516J-1639205D01*
G01*
X90285205Y-39436484D02*
G75*
G02*
X90285000Y-40828000I-1639205J-695516D01*
G01*
X89341501Y-41770499D02*
G75*
G02*
X88646000Y-41912000I-695501J1638499D01*
G01*
X61468000Y-81982000D02*
X61468000Y-84642000D01*
X61468000Y-81982000D02*
X46168000Y-81982000D01*
X46168000Y-81982000D02*
X46168000Y-84642000D01*
X61468000Y-84642000D02*
X46168000Y-84642000D01*
X64068000Y-84642000D02*
X62738000Y-84642000D01*
X64068000Y-83312000D02*
X64068000Y-84642000D01*
X68834000Y-41970000D02*
X68834000Y-39310000D01*
X68834000Y-41970000D02*
X84134000Y-41970000D01*
X84134000Y-41970000D02*
X84134000Y-39310000D01*
X68834000Y-39310000D02*
X84134000Y-39310000D01*
X66234000Y-39310000D02*
X67564000Y-39310000D01*
X66234000Y-40640000D02*
X66234000Y-39310000D01*
X68834000Y-84642000D02*
X68834000Y-81982000D01*
X68834000Y-84642000D02*
X84134000Y-84642000D01*
X84134000Y-84642000D02*
X84134000Y-81982000D01*
X68834000Y-81982000D02*
X84134000Y-81982000D01*
X66234000Y-81982000D02*
X67564000Y-81982000D01*
X66234000Y-83312000D02*
X66234000Y-81982000D01*
X106299000Y-87824000D02*
X106299000Y-90484000D01*
X106299000Y-87824000D02*
X90999000Y-87824000D01*
X90999000Y-87824000D02*
X90999000Y-90484000D01*
X106299000Y-90484000D02*
X90999000Y-90484000D01*
X108899000Y-90484000D02*
X107569000Y-90484000D01*
X108899000Y-89154000D02*
X108899000Y-90484000D01*
X46001000Y-87688052D02*
X46001000Y-87165548D01*
X47471000Y-87688052D02*
X47471000Y-87165548D01*
X56669000Y-87637252D02*
X56669000Y-87114748D01*
X58139000Y-87637252D02*
X58139000Y-87114748D01*
X58955000Y-87637252D02*
X58955000Y-87114748D01*
X60425000Y-87637252D02*
X60425000Y-87114748D01*
X54129000Y-87637252D02*
X54129000Y-87114748D01*
X55599000Y-87637252D02*
X55599000Y-87114748D01*
X51843000Y-87637252D02*
X51843000Y-87114748D01*
X53313000Y-87637252D02*
X53313000Y-87114748D01*
X80999000Y-44546748D02*
X80999000Y-45069252D01*
X79529000Y-44546748D02*
X79529000Y-45069252D01*
X92302000Y-80637748D02*
X92302000Y-81160252D01*
X90832000Y-80637748D02*
X90832000Y-81160252D01*
X94588000Y-80637748D02*
X94588000Y-81160252D01*
X93118000Y-80637748D02*
X93118000Y-81160252D01*
X96874000Y-80637748D02*
X96874000Y-81160252D01*
X95404000Y-80637748D02*
X95404000Y-81160252D01*
X99668000Y-80637748D02*
X99668000Y-81160252D01*
X98198000Y-80637748D02*
X98198000Y-81160252D01*
X102208000Y-80637748D02*
X102208000Y-81160252D01*
X100738000Y-80637748D02*
X100738000Y-81160252D01*
X104748000Y-80637748D02*
X104748000Y-81160252D01*
X103278000Y-80637748D02*
X103278000Y-81160252D01*
X55399000Y-76842252D02*
X55399000Y-76319748D01*
X56869000Y-76842252D02*
X56869000Y-76319748D01*
X116212252Y-53313000D02*
X115689748Y-53313000D01*
X116212252Y-51843000D02*
X115689748Y-51843000D01*
X105123064Y-48535000D02*
X103918936Y-48535000D01*
X105123064Y-46715000D02*
X103918936Y-46715000D01*
X105798252Y-51154000D02*
X105275748Y-51154000D01*
X105798252Y-49684000D02*
X105275748Y-49684000D01*
X88018252Y-53440000D02*
X87495748Y-53440000D01*
X88018252Y-51970000D02*
X87495748Y-51970000D01*
X61489000Y-76613936D02*
X61489000Y-77818064D01*
X59669000Y-76613936D02*
X59669000Y-77818064D01*
D12*
X61904761Y-78496333D02*
X61952380Y-78353476D01*
X61952380Y-78115380D01*
X61904761Y-78020142D01*
X61857142Y-77972523D01*
X61761904Y-77924904D01*
X61666666Y-77924904D01*
X61571428Y-77972523D01*
X61523809Y-78020142D01*
X61476190Y-78115380D01*
X61428571Y-78305857D01*
X61380952Y-78401095D01*
X61333333Y-78448714D01*
X61238095Y-78496333D01*
X61142857Y-78496333D01*
X61047619Y-78448714D01*
X61000000Y-78401095D01*
X60952380Y-78305857D01*
X60952380Y-78067761D01*
X61000000Y-77924904D01*
X60952380Y-77591571D02*
X61952380Y-77353476D01*
X61238095Y-77163000D01*
X61952380Y-76972523D01*
X60952380Y-76734428D01*
X61952380Y-75829666D02*
X61952380Y-76401095D01*
X61952380Y-76115380D02*
X60952380Y-76115380D01*
X61095238Y-76210619D01*
X61190476Y-76305857D01*
X61238095Y-76401095D01*
X92872380Y-61732857D02*
X92396190Y-62066190D01*
X92872380Y-62304285D02*
X91872380Y-62304285D01*
X91872380Y-61923333D01*
X91920000Y-61828095D01*
X91967619Y-61780476D01*
X92062857Y-61732857D01*
X92205714Y-61732857D01*
X92300952Y-61780476D01*
X92348571Y-61828095D01*
X92396190Y-61923333D01*
X92396190Y-62304285D01*
X92205714Y-60875714D02*
X92872380Y-60875714D01*
X91824761Y-61113809D02*
X92539047Y-61351904D01*
X92539047Y-60732857D01*
X92300952Y-60209047D02*
X92253333Y-60304285D01*
X92205714Y-60351904D01*
X92110476Y-60399523D01*
X92062857Y-60399523D01*
X91967619Y-60351904D01*
X91920000Y-60304285D01*
X91872380Y-60209047D01*
X91872380Y-60018571D01*
X91920000Y-59923333D01*
X91967619Y-59875714D01*
X92062857Y-59828095D01*
X92110476Y-59828095D01*
X92205714Y-59875714D01*
X92253333Y-59923333D01*
X92300952Y-60018571D01*
X92300952Y-60209047D01*
X92348571Y-60304285D01*
X92396190Y-60351904D01*
X92491428Y-60399523D01*
X92681904Y-60399523D01*
X92777142Y-60351904D01*
X92824761Y-60304285D01*
X92872380Y-60209047D01*
X92872380Y-60018571D01*
X92824761Y-59923333D01*
X92777142Y-59875714D01*
X92681904Y-59828095D01*
X92491428Y-59828095D01*
X92396190Y-59875714D01*
X92348571Y-59923333D01*
X92300952Y-60018571D01*
X95272380Y-61702857D02*
X94796190Y-62036190D01*
X95272380Y-62274285D02*
X94272380Y-62274285D01*
X94272380Y-61893333D01*
X94320000Y-61798095D01*
X94367619Y-61750476D01*
X94462857Y-61702857D01*
X94605714Y-61702857D01*
X94700952Y-61750476D01*
X94748571Y-61798095D01*
X94796190Y-61893333D01*
X94796190Y-62274285D01*
X94605714Y-60845714D02*
X95272380Y-60845714D01*
X94224761Y-61083809D02*
X94939047Y-61321904D01*
X94939047Y-60702857D01*
X94272380Y-60417142D02*
X94272380Y-59750476D01*
X95272380Y-60179047D01*
X56024842Y-77223857D02*
X56072461Y-77271476D01*
X56120080Y-77414333D01*
X56120080Y-77509571D01*
X56072461Y-77652428D01*
X55977223Y-77747666D01*
X55881985Y-77795285D01*
X55691509Y-77842904D01*
X55548652Y-77842904D01*
X55358176Y-77795285D01*
X55262938Y-77747666D01*
X55167700Y-77652428D01*
X55120080Y-77509571D01*
X55120080Y-77414333D01*
X55167700Y-77271476D01*
X55215319Y-77223857D01*
X55120080Y-76890523D02*
X55120080Y-76271476D01*
X55501033Y-76604809D01*
X55501033Y-76461952D01*
X55548652Y-76366714D01*
X55596271Y-76319095D01*
X55691509Y-76271476D01*
X55929604Y-76271476D01*
X56024842Y-76319095D01*
X56072461Y-76366714D01*
X56120080Y-76461952D01*
X56120080Y-76747666D01*
X56072461Y-76842904D01*
X56024842Y-76890523D01*
X55453414Y-75414333D02*
X56120080Y-75414333D01*
X55072461Y-75652428D02*
X55786747Y-75890523D01*
X55786747Y-75271476D01*
X75061842Y-51494680D02*
X74728509Y-51018490D01*
X74490414Y-51494680D02*
X74490414Y-50494680D01*
X74871366Y-50494680D01*
X74966604Y-50542300D01*
X75014223Y-50589919D01*
X75061842Y-50685157D01*
X75061842Y-50828014D01*
X75014223Y-50923252D01*
X74966604Y-50970871D01*
X74871366Y-51018490D01*
X74490414Y-51018490D01*
X76014223Y-51494680D02*
X75442795Y-51494680D01*
X75728509Y-51494680D02*
X75728509Y-50494680D01*
X75633271Y-50637538D01*
X75538033Y-50732776D01*
X75442795Y-50780395D01*
X76871366Y-50828014D02*
X76871366Y-51494680D01*
X76633271Y-50447061D02*
X76395176Y-51161347D01*
X77014223Y-51161347D01*
X79500433Y-54858180D02*
X79167100Y-54381990D01*
X78929004Y-54858180D02*
X78929004Y-53858180D01*
X79309957Y-53858180D01*
X79405195Y-53905800D01*
X79452814Y-53953419D01*
X79500433Y-54048657D01*
X79500433Y-54191514D01*
X79452814Y-54286752D01*
X79405195Y-54334371D01*
X79309957Y-54381990D01*
X78929004Y-54381990D01*
X79833766Y-53858180D02*
X80452814Y-53858180D01*
X80119480Y-54239133D01*
X80262338Y-54239133D01*
X80357576Y-54286752D01*
X80405195Y-54334371D01*
X80452814Y-54429609D01*
X80452814Y-54667704D01*
X80405195Y-54762942D01*
X80357576Y-54810561D01*
X80262338Y-54858180D01*
X79976623Y-54858180D01*
X79881385Y-54810561D01*
X79833766Y-54762942D01*
X73828519Y-49498238D02*
X73780900Y-49593476D01*
X73685661Y-49688714D01*
X73542804Y-49831571D01*
X73495185Y-49926809D01*
X73495185Y-50022047D01*
X73733280Y-49974428D02*
X73685661Y-50069666D01*
X73590423Y-50164904D01*
X73399947Y-50212523D01*
X73066614Y-50212523D01*
X72876138Y-50164904D01*
X72780900Y-50069666D01*
X72733280Y-49974428D01*
X72733280Y-49783952D01*
X72780900Y-49688714D01*
X72876138Y-49593476D01*
X73066614Y-49545857D01*
X73399947Y-49545857D01*
X73590423Y-49593476D01*
X73685661Y-49688714D01*
X73733280Y-49783952D01*
X73733280Y-49974428D01*
X73161852Y-48974428D02*
X73114233Y-49069666D01*
X73066614Y-49117285D01*
X72971376Y-49164904D01*
X72923757Y-49164904D01*
X72828519Y-49117285D01*
X72780900Y-49069666D01*
X72733280Y-48974428D01*
X72733280Y-48783952D01*
X72780900Y-48688714D01*
X72828519Y-48641095D01*
X72923757Y-48593476D01*
X72971376Y-48593476D01*
X73066614Y-48641095D01*
X73114233Y-48688714D01*
X73161852Y-48783952D01*
X73161852Y-48974428D01*
X73209471Y-49069666D01*
X73257090Y-49117285D01*
X73352328Y-49164904D01*
X73542804Y-49164904D01*
X73638042Y-49117285D01*
X73685661Y-49069666D01*
X73733280Y-48974428D01*
X73733280Y-48783952D01*
X73685661Y-48688714D01*
X73638042Y-48641095D01*
X73542804Y-48593476D01*
X73352328Y-48593476D01*
X73257090Y-48641095D01*
X73209471Y-48688714D01*
X73161852Y-48783952D01*
X77803619Y-49485538D02*
X77756000Y-49580776D01*
X77660761Y-49676014D01*
X77517904Y-49818871D01*
X77470285Y-49914109D01*
X77470285Y-50009347D01*
X77708380Y-49961728D02*
X77660761Y-50056966D01*
X77565523Y-50152204D01*
X77375047Y-50199823D01*
X77041714Y-50199823D01*
X76851238Y-50152204D01*
X76756000Y-50056966D01*
X76708380Y-49961728D01*
X76708380Y-49771252D01*
X76756000Y-49676014D01*
X76851238Y-49580776D01*
X77041714Y-49533157D01*
X77375047Y-49533157D01*
X77565523Y-49580776D01*
X77660761Y-49676014D01*
X77708380Y-49771252D01*
X77708380Y-49961728D01*
X76708380Y-49199823D02*
X76708380Y-48533157D01*
X77708380Y-48961728D01*
X72057095Y-74578380D02*
X72057095Y-75387904D01*
X72104714Y-75483142D01*
X72152333Y-75530761D01*
X72247571Y-75578380D01*
X72438047Y-75578380D01*
X72533285Y-75530761D01*
X72580904Y-75483142D01*
X72628523Y-75387904D01*
X72628523Y-74578380D01*
X73057095Y-74673619D02*
X73104714Y-74626000D01*
X73199952Y-74578380D01*
X73438047Y-74578380D01*
X73533285Y-74626000D01*
X73580904Y-74673619D01*
X73628523Y-74768857D01*
X73628523Y-74864095D01*
X73580904Y-75006952D01*
X73009476Y-75578380D01*
X73628523Y-75578380D01*
X57610476Y-46315380D02*
X57610476Y-47029666D01*
X57562857Y-47172523D01*
X57467619Y-47267761D01*
X57324761Y-47315380D01*
X57229523Y-47315380D01*
X58610476Y-47315380D02*
X58039047Y-47315380D01*
X58324761Y-47315380D02*
X58324761Y-46315380D01*
X58229523Y-46458238D01*
X58134285Y-46553476D01*
X58039047Y-46601095D01*
X59229523Y-46315380D02*
X59324761Y-46315380D01*
X59420000Y-46363000D01*
X59467619Y-46410619D01*
X59515238Y-46505857D01*
X59562857Y-46696333D01*
X59562857Y-46934428D01*
X59515238Y-47124904D01*
X59467619Y-47220142D01*
X59420000Y-47267761D01*
X59324761Y-47315380D01*
X59229523Y-47315380D01*
X59134285Y-47267761D01*
X59086666Y-47220142D01*
X59039047Y-47124904D01*
X58991428Y-46934428D01*
X58991428Y-46696333D01*
X59039047Y-46505857D01*
X59086666Y-46410619D01*
X59134285Y-46363000D01*
X59229523Y-46315380D01*
X113030095Y-42607380D02*
X113030095Y-41607380D01*
X113030095Y-42083571D02*
X113601523Y-42083571D01*
X113601523Y-42607380D02*
X113601523Y-41607380D01*
X114030095Y-41702619D02*
X114077714Y-41655000D01*
X114172952Y-41607380D01*
X114411047Y-41607380D01*
X114506285Y-41655000D01*
X114553904Y-41702619D01*
X114601523Y-41797857D01*
X114601523Y-41893095D01*
X114553904Y-42035952D01*
X113982476Y-42607380D01*
X114601523Y-42607380D01*
X113330095Y-79607380D02*
X113330095Y-78607380D01*
X113330095Y-79083571D02*
X113901523Y-79083571D01*
X113901523Y-79607380D02*
X113901523Y-78607380D01*
X114901523Y-79607380D02*
X114330095Y-79607380D01*
X114615809Y-79607380D02*
X114615809Y-78607380D01*
X114520571Y-78750238D01*
X114425333Y-78845476D01*
X114330095Y-78893095D01*
X105330666Y-64984380D02*
X105330666Y-65698666D01*
X105283047Y-65841523D01*
X105187809Y-65936761D01*
X105044952Y-65984380D01*
X104949714Y-65984380D01*
X106283047Y-64984380D02*
X105806857Y-64984380D01*
X105759238Y-65460571D01*
X105806857Y-65412952D01*
X105902095Y-65365333D01*
X106140190Y-65365333D01*
X106235428Y-65412952D01*
X106283047Y-65460571D01*
X106330666Y-65555809D01*
X106330666Y-65793904D01*
X106283047Y-65889142D01*
X106235428Y-65936761D01*
X106140190Y-65984380D01*
X105902095Y-65984380D01*
X105806857Y-65936761D01*
X105759238Y-65889142D01*
X96587142Y-72770380D02*
X96253809Y-72294190D01*
X96015714Y-72770380D02*
X96015714Y-71770380D01*
X96396666Y-71770380D01*
X96491904Y-71818000D01*
X96539523Y-71865619D01*
X96587142Y-71960857D01*
X96587142Y-72103714D01*
X96539523Y-72198952D01*
X96491904Y-72246571D01*
X96396666Y-72294190D01*
X96015714Y-72294190D01*
X96920476Y-71770380D02*
X97539523Y-71770380D01*
X97206190Y-72151333D01*
X97349047Y-72151333D01*
X97444285Y-72198952D01*
X97491904Y-72246571D01*
X97539523Y-72341809D01*
X97539523Y-72579904D01*
X97491904Y-72675142D01*
X97444285Y-72722761D01*
X97349047Y-72770380D01*
X97063333Y-72770380D01*
X96968095Y-72722761D01*
X96920476Y-72675142D01*
X98491904Y-72770380D02*
X97920476Y-72770380D01*
X98206190Y-72770380D02*
X98206190Y-71770380D01*
X98110952Y-71913238D01*
X98015714Y-72008476D01*
X97920476Y-72056095D01*
X101037142Y-63670380D02*
X100703809Y-63194190D01*
X100465714Y-63670380D02*
X100465714Y-62670380D01*
X100846666Y-62670380D01*
X100941904Y-62718000D01*
X100989523Y-62765619D01*
X101037142Y-62860857D01*
X101037142Y-63003714D01*
X100989523Y-63098952D01*
X100941904Y-63146571D01*
X100846666Y-63194190D01*
X100465714Y-63194190D01*
X101370476Y-62670380D02*
X101989523Y-62670380D01*
X101656190Y-63051333D01*
X101799047Y-63051333D01*
X101894285Y-63098952D01*
X101941904Y-63146571D01*
X101989523Y-63241809D01*
X101989523Y-63479904D01*
X101941904Y-63575142D01*
X101894285Y-63622761D01*
X101799047Y-63670380D01*
X101513333Y-63670380D01*
X101418095Y-63622761D01*
X101370476Y-63575142D01*
X102608571Y-62670380D02*
X102703809Y-62670380D01*
X102799047Y-62718000D01*
X102846666Y-62765619D01*
X102894285Y-62860857D01*
X102941904Y-63051333D01*
X102941904Y-63289428D01*
X102894285Y-63479904D01*
X102846666Y-63575142D01*
X102799047Y-63622761D01*
X102703809Y-63670380D01*
X102608571Y-63670380D01*
X102513333Y-63622761D01*
X102465714Y-63575142D01*
X102418095Y-63479904D01*
X102370476Y-63289428D01*
X102370476Y-63051333D01*
X102418095Y-62860857D01*
X102465714Y-62765619D01*
X102513333Y-62718000D01*
X102608571Y-62670380D01*
X97154761Y-68265619D02*
X97059523Y-68218000D01*
X96964285Y-68122761D01*
X96821428Y-67979904D01*
X96726190Y-67932285D01*
X96630952Y-67932285D01*
X96678571Y-68170380D02*
X96583333Y-68122761D01*
X96488095Y-68027523D01*
X96440476Y-67837047D01*
X96440476Y-67503714D01*
X96488095Y-67313238D01*
X96583333Y-67218000D01*
X96678571Y-67170380D01*
X96869047Y-67170380D01*
X96964285Y-67218000D01*
X97059523Y-67313238D01*
X97107142Y-67503714D01*
X97107142Y-67837047D01*
X97059523Y-68027523D01*
X96964285Y-68122761D01*
X96869047Y-68170380D01*
X96678571Y-68170380D01*
X97488095Y-67265619D02*
X97535714Y-67218000D01*
X97630952Y-67170380D01*
X97869047Y-67170380D01*
X97964285Y-67218000D01*
X98011904Y-67265619D01*
X98059523Y-67360857D01*
X98059523Y-67456095D01*
X98011904Y-67598952D01*
X97440476Y-68170380D01*
X98059523Y-68170380D01*
X97154761Y-63715619D02*
X97059523Y-63668000D01*
X96964285Y-63572761D01*
X96821428Y-63429904D01*
X96726190Y-63382285D01*
X96630952Y-63382285D01*
X96678571Y-63620380D02*
X96583333Y-63572761D01*
X96488095Y-63477523D01*
X96440476Y-63287047D01*
X96440476Y-62953714D01*
X96488095Y-62763238D01*
X96583333Y-62668000D01*
X96678571Y-62620380D01*
X96869047Y-62620380D01*
X96964285Y-62668000D01*
X97059523Y-62763238D01*
X97107142Y-62953714D01*
X97107142Y-63287047D01*
X97059523Y-63477523D01*
X96964285Y-63572761D01*
X96869047Y-63620380D01*
X96678571Y-63620380D01*
X98059523Y-63620380D02*
X97488095Y-63620380D01*
X97773809Y-63620380D02*
X97773809Y-62620380D01*
X97678571Y-62763238D01*
X97583333Y-62858476D01*
X97488095Y-62906095D01*
X100861904Y-69370380D02*
X100861904Y-68370380D01*
X101100000Y-68370380D01*
X101242857Y-68418000D01*
X101338095Y-68513238D01*
X101385714Y-68608476D01*
X101433333Y-68798952D01*
X101433333Y-68941809D01*
X101385714Y-69132285D01*
X101338095Y-69227523D01*
X101242857Y-69322761D01*
X101100000Y-69370380D01*
X100861904Y-69370380D01*
X101814285Y-68465619D02*
X101861904Y-68418000D01*
X101957142Y-68370380D01*
X102195238Y-68370380D01*
X102290476Y-68418000D01*
X102338095Y-68465619D01*
X102385714Y-68560857D01*
X102385714Y-68656095D01*
X102338095Y-68798952D01*
X101766666Y-69370380D01*
X102385714Y-69370380D01*
X100861904Y-66420380D02*
X100861904Y-65420380D01*
X101100000Y-65420380D01*
X101242857Y-65468000D01*
X101338095Y-65563238D01*
X101385714Y-65658476D01*
X101433333Y-65848952D01*
X101433333Y-65991809D01*
X101385714Y-66182285D01*
X101338095Y-66277523D01*
X101242857Y-66372761D01*
X101100000Y-66420380D01*
X100861904Y-66420380D01*
X102385714Y-66420380D02*
X101814285Y-66420380D01*
X102100000Y-66420380D02*
X102100000Y-65420380D01*
X102004761Y-65563238D01*
X101909523Y-65658476D01*
X101814285Y-65706095D01*
X68651666Y-52061761D02*
X68794523Y-52109380D01*
X69032619Y-52109380D01*
X69127857Y-52061761D01*
X69175476Y-52014142D01*
X69223095Y-51918904D01*
X69223095Y-51823666D01*
X69175476Y-51728428D01*
X69127857Y-51680809D01*
X69032619Y-51633190D01*
X68842142Y-51585571D01*
X68746904Y-51537952D01*
X68699285Y-51490333D01*
X68651666Y-51395095D01*
X68651666Y-51299857D01*
X68699285Y-51204619D01*
X68746904Y-51157000D01*
X68842142Y-51109380D01*
X69080238Y-51109380D01*
X69223095Y-51157000D01*
X69556428Y-51109380D02*
X69794523Y-52109380D01*
X69985000Y-51395095D01*
X70175476Y-52109380D01*
X70413571Y-51109380D01*
X70746904Y-51204619D02*
X70794523Y-51157000D01*
X70889761Y-51109380D01*
X71127857Y-51109380D01*
X71223095Y-51157000D01*
X71270714Y-51204619D01*
X71318333Y-51299857D01*
X71318333Y-51395095D01*
X71270714Y-51537952D01*
X70699285Y-52109380D01*
X71318333Y-52109380D01*
X64476333Y-52554142D02*
X64428714Y-52601761D01*
X64285857Y-52649380D01*
X64190619Y-52649380D01*
X64047761Y-52601761D01*
X63952523Y-52506523D01*
X63904904Y-52411285D01*
X63857285Y-52220809D01*
X63857285Y-52077952D01*
X63904904Y-51887476D01*
X63952523Y-51792238D01*
X64047761Y-51697000D01*
X64190619Y-51649380D01*
X64285857Y-51649380D01*
X64428714Y-51697000D01*
X64476333Y-51744619D01*
X65047761Y-52077952D02*
X64952523Y-52030333D01*
X64904904Y-51982714D01*
X64857285Y-51887476D01*
X64857285Y-51839857D01*
X64904904Y-51744619D01*
X64952523Y-51697000D01*
X65047761Y-51649380D01*
X65238238Y-51649380D01*
X65333476Y-51697000D01*
X65381095Y-51744619D01*
X65428714Y-51839857D01*
X65428714Y-51887476D01*
X65381095Y-51982714D01*
X65333476Y-52030333D01*
X65238238Y-52077952D01*
X65047761Y-52077952D01*
X64952523Y-52125571D01*
X64904904Y-52173190D01*
X64857285Y-52268428D01*
X64857285Y-52458904D01*
X64904904Y-52554142D01*
X64952523Y-52601761D01*
X65047761Y-52649380D01*
X65238238Y-52649380D01*
X65333476Y-52601761D01*
X65381095Y-52554142D01*
X65428714Y-52458904D01*
X65428714Y-52268428D01*
X65381095Y-52173190D01*
X65333476Y-52125571D01*
X65238238Y-52077952D01*
X110267809Y-59287190D02*
X110267809Y-59763380D01*
X109934476Y-58763380D02*
X110267809Y-59287190D01*
X110601142Y-58763380D01*
X110886857Y-58858619D02*
X110934476Y-58811000D01*
X111029714Y-58763380D01*
X111267809Y-58763380D01*
X111363047Y-58811000D01*
X111410666Y-58858619D01*
X111458285Y-58953857D01*
X111458285Y-59049095D01*
X111410666Y-59191952D01*
X110839238Y-59763380D01*
X111458285Y-59763380D01*
X110267809Y-73003190D02*
X110267809Y-73479380D01*
X109934476Y-72479380D02*
X110267809Y-73003190D01*
X110601142Y-72479380D01*
X111458285Y-73479380D02*
X110886857Y-73479380D01*
X111172571Y-73479380D02*
X111172571Y-72479380D01*
X111077333Y-72622238D01*
X110982095Y-72717476D01*
X110886857Y-72765095D01*
X117983095Y-52732380D02*
X117983095Y-53541904D01*
X118030714Y-53637142D01*
X118078333Y-53684761D01*
X118173571Y-53732380D01*
X118364047Y-53732380D01*
X118459285Y-53684761D01*
X118506904Y-53637142D01*
X118554523Y-53541904D01*
X118554523Y-52732380D01*
X118935476Y-52732380D02*
X119602142Y-52732380D01*
X119173571Y-53732380D01*
X118364095Y-66254380D02*
X118364095Y-67063904D01*
X118411714Y-67159142D01*
X118459333Y-67206761D01*
X118554571Y-67254380D01*
X118745047Y-67254380D01*
X118840285Y-67206761D01*
X118887904Y-67159142D01*
X118935523Y-67063904D01*
X118935523Y-66254380D01*
X119840285Y-66254380D02*
X119649809Y-66254380D01*
X119554571Y-66302000D01*
X119506952Y-66349619D01*
X119411714Y-66492476D01*
X119364095Y-66682952D01*
X119364095Y-67063904D01*
X119411714Y-67159142D01*
X119459333Y-67206761D01*
X119554571Y-67254380D01*
X119745047Y-67254380D01*
X119840285Y-67206761D01*
X119887904Y-67159142D01*
X119935523Y-67063904D01*
X119935523Y-66825809D01*
X119887904Y-66730571D01*
X119840285Y-66682952D01*
X119745047Y-66635333D01*
X119554571Y-66635333D01*
X119459333Y-66682952D01*
X119411714Y-66730571D01*
X119364095Y-66825809D01*
X84963095Y-53022380D02*
X84963095Y-53831904D01*
X85010714Y-53927142D01*
X85058333Y-53974761D01*
X85153571Y-54022380D01*
X85344047Y-54022380D01*
X85439285Y-53974761D01*
X85486904Y-53927142D01*
X85534523Y-53831904D01*
X85534523Y-53022380D01*
X86486904Y-53022380D02*
X86010714Y-53022380D01*
X85963095Y-53498571D01*
X86010714Y-53450952D01*
X86105952Y-53403333D01*
X86344047Y-53403333D01*
X86439285Y-53450952D01*
X86486904Y-53498571D01*
X86534523Y-53593809D01*
X86534523Y-53831904D01*
X86486904Y-53927142D01*
X86439285Y-53974761D01*
X86344047Y-54022380D01*
X86105952Y-54022380D01*
X86010714Y-53974761D01*
X85963095Y-53927142D01*
X127373142Y-66873380D02*
X127039809Y-66397190D01*
X126801714Y-66873380D02*
X126801714Y-65873380D01*
X127182666Y-65873380D01*
X127277904Y-65921000D01*
X127325523Y-65968619D01*
X127373142Y-66063857D01*
X127373142Y-66206714D01*
X127325523Y-66301952D01*
X127277904Y-66349571D01*
X127182666Y-66397190D01*
X126801714Y-66397190D01*
X128230285Y-66206714D02*
X128230285Y-66873380D01*
X127992190Y-65825761D02*
X127754095Y-66540047D01*
X128373142Y-66540047D01*
X129182666Y-65873380D02*
X128992190Y-65873380D01*
X128896952Y-65921000D01*
X128849333Y-65968619D01*
X128754095Y-66111476D01*
X128706476Y-66301952D01*
X128706476Y-66682904D01*
X128754095Y-66778142D01*
X128801714Y-66825761D01*
X128896952Y-66873380D01*
X129087428Y-66873380D01*
X129182666Y-66825761D01*
X129230285Y-66778142D01*
X129277904Y-66682904D01*
X129277904Y-66444809D01*
X129230285Y-66349571D01*
X129182666Y-66301952D01*
X129087428Y-66254333D01*
X128896952Y-66254333D01*
X128801714Y-66301952D01*
X128754095Y-66349571D01*
X128706476Y-66444809D01*
X130881380Y-74556857D02*
X130405190Y-74890190D01*
X130881380Y-75128285D02*
X129881380Y-75128285D01*
X129881380Y-74747333D01*
X129929000Y-74652095D01*
X129976619Y-74604476D01*
X130071857Y-74556857D01*
X130214714Y-74556857D01*
X130309952Y-74604476D01*
X130357571Y-74652095D01*
X130405190Y-74747333D01*
X130405190Y-75128285D01*
X130214714Y-73699714D02*
X130881380Y-73699714D01*
X129833761Y-73937809D02*
X130548047Y-74175904D01*
X130548047Y-73556857D01*
X129881380Y-72699714D02*
X129881380Y-73175904D01*
X130357571Y-73223523D01*
X130309952Y-73175904D01*
X130262333Y-73080666D01*
X130262333Y-72842571D01*
X130309952Y-72747333D01*
X130357571Y-72699714D01*
X130452809Y-72652095D01*
X130690904Y-72652095D01*
X130786142Y-72699714D01*
X130833761Y-72747333D01*
X130881380Y-72842571D01*
X130881380Y-73080666D01*
X130833761Y-73175904D01*
X130786142Y-73223523D01*
X127246142Y-59126380D02*
X126912809Y-58650190D01*
X126674714Y-59126380D02*
X126674714Y-58126380D01*
X127055666Y-58126380D01*
X127150904Y-58174000D01*
X127198523Y-58221619D01*
X127246142Y-58316857D01*
X127246142Y-58459714D01*
X127198523Y-58554952D01*
X127150904Y-58602571D01*
X127055666Y-58650190D01*
X126674714Y-58650190D01*
X128103285Y-58459714D02*
X128103285Y-59126380D01*
X127865190Y-58078761D02*
X127627095Y-58793047D01*
X128246142Y-58793047D01*
X129055666Y-58459714D02*
X129055666Y-59126380D01*
X128817571Y-58078761D02*
X128579476Y-58793047D01*
X129198523Y-58793047D01*
X127500142Y-78302380D02*
X127166809Y-77826190D01*
X126928714Y-78302380D02*
X126928714Y-77302380D01*
X127309666Y-77302380D01*
X127404904Y-77350000D01*
X127452523Y-77397619D01*
X127500142Y-77492857D01*
X127500142Y-77635714D01*
X127452523Y-77730952D01*
X127404904Y-77778571D01*
X127309666Y-77826190D01*
X126928714Y-77826190D01*
X128357285Y-77635714D02*
X128357285Y-78302380D01*
X128119190Y-77254761D02*
X127881095Y-77969047D01*
X128500142Y-77969047D01*
X128785857Y-77302380D02*
X129404904Y-77302380D01*
X129071571Y-77683333D01*
X129214428Y-77683333D01*
X129309666Y-77730952D01*
X129357285Y-77778571D01*
X129404904Y-77873809D01*
X129404904Y-78111904D01*
X129357285Y-78207142D01*
X129309666Y-78254761D01*
X129214428Y-78302380D01*
X128928714Y-78302380D01*
X128833476Y-78254761D01*
X128785857Y-78207142D01*
X123182142Y-66237380D02*
X122848809Y-65761190D01*
X122610714Y-66237380D02*
X122610714Y-65237380D01*
X122991666Y-65237380D01*
X123086904Y-65285000D01*
X123134523Y-65332619D01*
X123182142Y-65427857D01*
X123182142Y-65570714D01*
X123134523Y-65665952D01*
X123086904Y-65713571D01*
X122991666Y-65761190D01*
X122610714Y-65761190D01*
X124039285Y-65570714D02*
X124039285Y-66237380D01*
X123801190Y-65189761D02*
X123563095Y-65904047D01*
X124182142Y-65904047D01*
X124515476Y-65332619D02*
X124563095Y-65285000D01*
X124658333Y-65237380D01*
X124896428Y-65237380D01*
X124991666Y-65285000D01*
X125039285Y-65332619D01*
X125086904Y-65427857D01*
X125086904Y-65523095D01*
X125039285Y-65665952D01*
X124467857Y-66237380D01*
X125086904Y-66237380D01*
X122928142Y-80969380D02*
X122594809Y-80493190D01*
X122356714Y-80969380D02*
X122356714Y-79969380D01*
X122737666Y-79969380D01*
X122832904Y-80017000D01*
X122880523Y-80064619D01*
X122928142Y-80159857D01*
X122928142Y-80302714D01*
X122880523Y-80397952D01*
X122832904Y-80445571D01*
X122737666Y-80493190D01*
X122356714Y-80493190D01*
X123785285Y-80302714D02*
X123785285Y-80969380D01*
X123547190Y-79921761D02*
X123309095Y-80636047D01*
X123928142Y-80636047D01*
X124832904Y-80969380D02*
X124261476Y-80969380D01*
X124547190Y-80969380D02*
X124547190Y-79969380D01*
X124451952Y-80112238D01*
X124356714Y-80207476D01*
X124261476Y-80255095D01*
X123182142Y-58871380D02*
X122848809Y-58395190D01*
X122610714Y-58871380D02*
X122610714Y-57871380D01*
X122991666Y-57871380D01*
X123086904Y-57919000D01*
X123134523Y-57966619D01*
X123182142Y-58061857D01*
X123182142Y-58204714D01*
X123134523Y-58299952D01*
X123086904Y-58347571D01*
X122991666Y-58395190D01*
X122610714Y-58395190D01*
X124039285Y-58204714D02*
X124039285Y-58871380D01*
X123801190Y-57823761D02*
X123563095Y-58538047D01*
X124182142Y-58538047D01*
X124753571Y-57871380D02*
X124848809Y-57871380D01*
X124944047Y-57919000D01*
X124991666Y-57966619D01*
X125039285Y-58061857D01*
X125086904Y-58252333D01*
X125086904Y-58490428D01*
X125039285Y-58680904D01*
X124991666Y-58776142D01*
X124944047Y-58823761D01*
X124848809Y-58871380D01*
X124753571Y-58871380D01*
X124658333Y-58823761D01*
X124610714Y-58776142D01*
X124563095Y-58680904D01*
X124515476Y-58490428D01*
X124515476Y-58252333D01*
X124563095Y-58061857D01*
X124610714Y-57966619D01*
X124658333Y-57919000D01*
X124753571Y-57871380D01*
X123055142Y-90621380D02*
X122721809Y-90145190D01*
X122483714Y-90621380D02*
X122483714Y-89621380D01*
X122864666Y-89621380D01*
X122959904Y-89669000D01*
X123007523Y-89716619D01*
X123055142Y-89811857D01*
X123055142Y-89954714D01*
X123007523Y-90049952D01*
X122959904Y-90097571D01*
X122864666Y-90145190D01*
X122483714Y-90145190D01*
X123388476Y-89621380D02*
X124007523Y-89621380D01*
X123674190Y-90002333D01*
X123817047Y-90002333D01*
X123912285Y-90049952D01*
X123959904Y-90097571D01*
X124007523Y-90192809D01*
X124007523Y-90430904D01*
X123959904Y-90526142D01*
X123912285Y-90573761D01*
X123817047Y-90621380D01*
X123531333Y-90621380D01*
X123436095Y-90573761D01*
X123388476Y-90526142D01*
X124483714Y-90621380D02*
X124674190Y-90621380D01*
X124769428Y-90573761D01*
X124817047Y-90526142D01*
X124912285Y-90383285D01*
X124959904Y-90192809D01*
X124959904Y-89811857D01*
X124912285Y-89716619D01*
X124864666Y-89669000D01*
X124769428Y-89621380D01*
X124578952Y-89621380D01*
X124483714Y-89669000D01*
X124436095Y-89716619D01*
X124388476Y-89811857D01*
X124388476Y-90049952D01*
X124436095Y-90145190D01*
X124483714Y-90192809D01*
X124578952Y-90240428D01*
X124769428Y-90240428D01*
X124864666Y-90192809D01*
X124912285Y-90145190D01*
X124959904Y-90049952D01*
X130627380Y-53855857D02*
X130151190Y-54189190D01*
X130627380Y-54427285D02*
X129627380Y-54427285D01*
X129627380Y-54046333D01*
X129675000Y-53951095D01*
X129722619Y-53903476D01*
X129817857Y-53855857D01*
X129960714Y-53855857D01*
X130055952Y-53903476D01*
X130103571Y-53951095D01*
X130151190Y-54046333D01*
X130151190Y-54427285D01*
X129627380Y-53522523D02*
X129627380Y-52903476D01*
X130008333Y-53236809D01*
X130008333Y-53093952D01*
X130055952Y-52998714D01*
X130103571Y-52951095D01*
X130198809Y-52903476D01*
X130436904Y-52903476D01*
X130532142Y-52951095D01*
X130579761Y-52998714D01*
X130627380Y-53093952D01*
X130627380Y-53379666D01*
X130579761Y-53474904D01*
X130532142Y-53522523D01*
X130055952Y-52332047D02*
X130008333Y-52427285D01*
X129960714Y-52474904D01*
X129865476Y-52522523D01*
X129817857Y-52522523D01*
X129722619Y-52474904D01*
X129675000Y-52427285D01*
X129627380Y-52332047D01*
X129627380Y-52141571D01*
X129675000Y-52046333D01*
X129722619Y-51998714D01*
X129817857Y-51951095D01*
X129865476Y-51951095D01*
X129960714Y-51998714D01*
X130008333Y-52046333D01*
X130055952Y-52141571D01*
X130055952Y-52332047D01*
X130103571Y-52427285D01*
X130151190Y-52474904D01*
X130246428Y-52522523D01*
X130436904Y-52522523D01*
X130532142Y-52474904D01*
X130579761Y-52427285D01*
X130627380Y-52332047D01*
X130627380Y-52141571D01*
X130579761Y-52046333D01*
X130532142Y-51998714D01*
X130436904Y-51951095D01*
X130246428Y-51951095D01*
X130151190Y-51998714D01*
X130103571Y-52046333D01*
X130055952Y-52141571D01*
X130881380Y-84589857D02*
X130405190Y-84923190D01*
X130881380Y-85161285D02*
X129881380Y-85161285D01*
X129881380Y-84780333D01*
X129929000Y-84685095D01*
X129976619Y-84637476D01*
X130071857Y-84589857D01*
X130214714Y-84589857D01*
X130309952Y-84637476D01*
X130357571Y-84685095D01*
X130405190Y-84780333D01*
X130405190Y-85161285D01*
X129881380Y-84256523D02*
X129881380Y-83637476D01*
X130262333Y-83970809D01*
X130262333Y-83827952D01*
X130309952Y-83732714D01*
X130357571Y-83685095D01*
X130452809Y-83637476D01*
X130690904Y-83637476D01*
X130786142Y-83685095D01*
X130833761Y-83732714D01*
X130881380Y-83827952D01*
X130881380Y-84113666D01*
X130833761Y-84208904D01*
X130786142Y-84256523D01*
X129881380Y-83304142D02*
X129881380Y-82637476D01*
X130881380Y-83066047D01*
X127246142Y-57728380D02*
X126912809Y-57252190D01*
X126674714Y-57728380D02*
X126674714Y-56728380D01*
X127055666Y-56728380D01*
X127150904Y-56776000D01*
X127198523Y-56823619D01*
X127246142Y-56918857D01*
X127246142Y-57061714D01*
X127198523Y-57156952D01*
X127150904Y-57204571D01*
X127055666Y-57252190D01*
X126674714Y-57252190D01*
X127579476Y-56728380D02*
X128198523Y-56728380D01*
X127865190Y-57109333D01*
X128008047Y-57109333D01*
X128103285Y-57156952D01*
X128150904Y-57204571D01*
X128198523Y-57299809D01*
X128198523Y-57537904D01*
X128150904Y-57633142D01*
X128103285Y-57680761D01*
X128008047Y-57728380D01*
X127722333Y-57728380D01*
X127627095Y-57680761D01*
X127579476Y-57633142D01*
X129055666Y-56728380D02*
X128865190Y-56728380D01*
X128769952Y-56776000D01*
X128722333Y-56823619D01*
X128627095Y-56966476D01*
X128579476Y-57156952D01*
X128579476Y-57537904D01*
X128627095Y-57633142D01*
X128674714Y-57680761D01*
X128769952Y-57728380D01*
X128960428Y-57728380D01*
X129055666Y-57680761D01*
X129103285Y-57633142D01*
X129150904Y-57537904D01*
X129150904Y-57299809D01*
X129103285Y-57204571D01*
X129055666Y-57156952D01*
X128960428Y-57109333D01*
X128769952Y-57109333D01*
X128674714Y-57156952D01*
X128627095Y-57204571D01*
X128579476Y-57299809D01*
X127373142Y-88463380D02*
X127039809Y-87987190D01*
X126801714Y-88463380D02*
X126801714Y-87463380D01*
X127182666Y-87463380D01*
X127277904Y-87511000D01*
X127325523Y-87558619D01*
X127373142Y-87653857D01*
X127373142Y-87796714D01*
X127325523Y-87891952D01*
X127277904Y-87939571D01*
X127182666Y-87987190D01*
X126801714Y-87987190D01*
X127706476Y-87463380D02*
X128325523Y-87463380D01*
X127992190Y-87844333D01*
X128135047Y-87844333D01*
X128230285Y-87891952D01*
X128277904Y-87939571D01*
X128325523Y-88034809D01*
X128325523Y-88272904D01*
X128277904Y-88368142D01*
X128230285Y-88415761D01*
X128135047Y-88463380D01*
X127849333Y-88463380D01*
X127754095Y-88415761D01*
X127706476Y-88368142D01*
X129230285Y-87463380D02*
X128754095Y-87463380D01*
X128706476Y-87939571D01*
X128754095Y-87891952D01*
X128849333Y-87844333D01*
X129087428Y-87844333D01*
X129182666Y-87891952D01*
X129230285Y-87939571D01*
X129277904Y-88034809D01*
X129277904Y-88272904D01*
X129230285Y-88368142D01*
X129182666Y-88415761D01*
X129087428Y-88463380D01*
X128849333Y-88463380D01*
X128754095Y-88415761D01*
X128706476Y-88368142D01*
X123563142Y-47951380D02*
X123229809Y-47475190D01*
X122991714Y-47951380D02*
X122991714Y-46951380D01*
X123372666Y-46951380D01*
X123467904Y-46999000D01*
X123515523Y-47046619D01*
X123563142Y-47141857D01*
X123563142Y-47284714D01*
X123515523Y-47379952D01*
X123467904Y-47427571D01*
X123372666Y-47475190D01*
X122991714Y-47475190D01*
X123896476Y-46951380D02*
X124515523Y-46951380D01*
X124182190Y-47332333D01*
X124325047Y-47332333D01*
X124420285Y-47379952D01*
X124467904Y-47427571D01*
X124515523Y-47522809D01*
X124515523Y-47760904D01*
X124467904Y-47856142D01*
X124420285Y-47903761D01*
X124325047Y-47951380D01*
X124039333Y-47951380D01*
X123944095Y-47903761D01*
X123896476Y-47856142D01*
X125372666Y-47284714D02*
X125372666Y-47951380D01*
X125134571Y-46903761D02*
X124896476Y-47618047D01*
X125515523Y-47618047D01*
X118483142Y-47951380D02*
X118149809Y-47475190D01*
X117911714Y-47951380D02*
X117911714Y-46951380D01*
X118292666Y-46951380D01*
X118387904Y-46999000D01*
X118435523Y-47046619D01*
X118483142Y-47141857D01*
X118483142Y-47284714D01*
X118435523Y-47379952D01*
X118387904Y-47427571D01*
X118292666Y-47475190D01*
X117911714Y-47475190D01*
X118816476Y-46951380D02*
X119435523Y-46951380D01*
X119102190Y-47332333D01*
X119245047Y-47332333D01*
X119340285Y-47379952D01*
X119387904Y-47427571D01*
X119435523Y-47522809D01*
X119435523Y-47760904D01*
X119387904Y-47856142D01*
X119340285Y-47903761D01*
X119245047Y-47951380D01*
X118959333Y-47951380D01*
X118864095Y-47903761D01*
X118816476Y-47856142D01*
X119768857Y-46951380D02*
X120387904Y-46951380D01*
X120054571Y-47332333D01*
X120197428Y-47332333D01*
X120292666Y-47379952D01*
X120340285Y-47427571D01*
X120387904Y-47522809D01*
X120387904Y-47760904D01*
X120340285Y-47856142D01*
X120292666Y-47903761D01*
X120197428Y-47951380D01*
X119911714Y-47951380D01*
X119816476Y-47903761D01*
X119768857Y-47856142D01*
X78605142Y-70810380D02*
X78271809Y-70334190D01*
X78033714Y-70810380D02*
X78033714Y-69810380D01*
X78414666Y-69810380D01*
X78509904Y-69858000D01*
X78557523Y-69905619D01*
X78605142Y-70000857D01*
X78605142Y-70143714D01*
X78557523Y-70238952D01*
X78509904Y-70286571D01*
X78414666Y-70334190D01*
X78033714Y-70334190D01*
X78938476Y-69810380D02*
X79557523Y-69810380D01*
X79224190Y-70191333D01*
X79367047Y-70191333D01*
X79462285Y-70238952D01*
X79509904Y-70286571D01*
X79557523Y-70381809D01*
X79557523Y-70619904D01*
X79509904Y-70715142D01*
X79462285Y-70762761D01*
X79367047Y-70810380D01*
X79081333Y-70810380D01*
X78986095Y-70762761D01*
X78938476Y-70715142D01*
X79938476Y-69905619D02*
X79986095Y-69858000D01*
X80081333Y-69810380D01*
X80319428Y-69810380D01*
X80414666Y-69858000D01*
X80462285Y-69905619D01*
X80509904Y-70000857D01*
X80509904Y-70096095D01*
X80462285Y-70238952D01*
X79890857Y-70810380D01*
X80509904Y-70810380D01*
X47236142Y-38933380D02*
X46902809Y-38457190D01*
X46664714Y-38933380D02*
X46664714Y-37933380D01*
X47045666Y-37933380D01*
X47140904Y-37981000D01*
X47188523Y-38028619D01*
X47236142Y-38123857D01*
X47236142Y-38266714D01*
X47188523Y-38361952D01*
X47140904Y-38409571D01*
X47045666Y-38457190D01*
X46664714Y-38457190D01*
X47617095Y-38028619D02*
X47664714Y-37981000D01*
X47759952Y-37933380D01*
X47998047Y-37933380D01*
X48093285Y-37981000D01*
X48140904Y-38028619D01*
X48188523Y-38123857D01*
X48188523Y-38219095D01*
X48140904Y-38361952D01*
X47569476Y-38933380D01*
X48188523Y-38933380D01*
X48521857Y-37933380D02*
X49188523Y-37933380D01*
X48759952Y-38933380D01*
X78605142Y-64715380D02*
X78271809Y-64239190D01*
X78033714Y-64715380D02*
X78033714Y-63715380D01*
X78414666Y-63715380D01*
X78509904Y-63763000D01*
X78557523Y-63810619D01*
X78605142Y-63905857D01*
X78605142Y-64048714D01*
X78557523Y-64143952D01*
X78509904Y-64191571D01*
X78414666Y-64239190D01*
X78033714Y-64239190D01*
X78986095Y-63810619D02*
X79033714Y-63763000D01*
X79128952Y-63715380D01*
X79367047Y-63715380D01*
X79462285Y-63763000D01*
X79509904Y-63810619D01*
X79557523Y-63905857D01*
X79557523Y-64001095D01*
X79509904Y-64143952D01*
X78938476Y-64715380D01*
X79557523Y-64715380D01*
X80414666Y-64048714D02*
X80414666Y-64715380D01*
X80176571Y-63667761D02*
X79938476Y-64382047D01*
X80557523Y-64382047D01*
X109720142Y-66491380D02*
X109386809Y-66015190D01*
X109148714Y-66491380D02*
X109148714Y-65491380D01*
X109529666Y-65491380D01*
X109624904Y-65539000D01*
X109672523Y-65586619D01*
X109720142Y-65681857D01*
X109720142Y-65824714D01*
X109672523Y-65919952D01*
X109624904Y-65967571D01*
X109529666Y-66015190D01*
X109148714Y-66015190D01*
X110672523Y-66491380D02*
X110101095Y-66491380D01*
X110386809Y-66491380D02*
X110386809Y-65491380D01*
X110291571Y-65634238D01*
X110196333Y-65729476D01*
X110101095Y-65777095D01*
X111005857Y-65491380D02*
X111624904Y-65491380D01*
X111291571Y-65872333D01*
X111434428Y-65872333D01*
X111529666Y-65919952D01*
X111577285Y-65967571D01*
X111624904Y-66062809D01*
X111624904Y-66300904D01*
X111577285Y-66396142D01*
X111529666Y-66443761D01*
X111434428Y-66491380D01*
X111148714Y-66491380D01*
X111053476Y-66443761D01*
X111005857Y-66396142D01*
X110196333Y-60904380D02*
X109863000Y-60428190D01*
X109624904Y-60904380D02*
X109624904Y-59904380D01*
X110005857Y-59904380D01*
X110101095Y-59952000D01*
X110148714Y-59999619D01*
X110196333Y-60094857D01*
X110196333Y-60237714D01*
X110148714Y-60332952D01*
X110101095Y-60380571D01*
X110005857Y-60428190D01*
X109624904Y-60428190D01*
X111053476Y-60237714D02*
X111053476Y-60904380D01*
X110815380Y-59856761D02*
X110577285Y-60571047D01*
X111196333Y-60571047D01*
X121578619Y-61055238D02*
X121531000Y-61150476D01*
X121435761Y-61245714D01*
X121292904Y-61388571D01*
X121245285Y-61483809D01*
X121245285Y-61579047D01*
X121483380Y-61531428D02*
X121435761Y-61626666D01*
X121340523Y-61721904D01*
X121150047Y-61769523D01*
X120816714Y-61769523D01*
X120626238Y-61721904D01*
X120531000Y-61626666D01*
X120483380Y-61531428D01*
X120483380Y-61340952D01*
X120531000Y-61245714D01*
X120626238Y-61150476D01*
X120816714Y-61102857D01*
X121150047Y-61102857D01*
X121340523Y-61150476D01*
X121435761Y-61245714D01*
X121483380Y-61340952D01*
X121483380Y-61531428D01*
X120483380Y-60245714D02*
X120483380Y-60436190D01*
X120531000Y-60531428D01*
X120578619Y-60579047D01*
X120721476Y-60674285D01*
X120911952Y-60721904D01*
X121292904Y-60721904D01*
X121388142Y-60674285D01*
X121435761Y-60626666D01*
X121483380Y-60531428D01*
X121483380Y-60340952D01*
X121435761Y-60245714D01*
X121388142Y-60198095D01*
X121292904Y-60150476D01*
X121054809Y-60150476D01*
X120959571Y-60198095D01*
X120911952Y-60245714D01*
X120864333Y-60340952D01*
X120864333Y-60531428D01*
X120911952Y-60626666D01*
X120959571Y-60674285D01*
X121054809Y-60721904D01*
X121745619Y-75660238D02*
X121698000Y-75755476D01*
X121602761Y-75850714D01*
X121459904Y-75993571D01*
X121412285Y-76088809D01*
X121412285Y-76184047D01*
X121650380Y-76136428D02*
X121602761Y-76231666D01*
X121507523Y-76326904D01*
X121317047Y-76374523D01*
X120983714Y-76374523D01*
X120793238Y-76326904D01*
X120698000Y-76231666D01*
X120650380Y-76136428D01*
X120650380Y-75945952D01*
X120698000Y-75850714D01*
X120793238Y-75755476D01*
X120983714Y-75707857D01*
X121317047Y-75707857D01*
X121507523Y-75755476D01*
X121602761Y-75850714D01*
X121650380Y-75945952D01*
X121650380Y-76136428D01*
X120650380Y-74803095D02*
X120650380Y-75279285D01*
X121126571Y-75326904D01*
X121078952Y-75279285D01*
X121031333Y-75184047D01*
X121031333Y-74945952D01*
X121078952Y-74850714D01*
X121126571Y-74803095D01*
X121221809Y-74755476D01*
X121459904Y-74755476D01*
X121555142Y-74803095D01*
X121602761Y-74850714D01*
X121650380Y-74945952D01*
X121650380Y-75184047D01*
X121602761Y-75279285D01*
X121555142Y-75326904D01*
X123729761Y-56768619D02*
X123634523Y-56721000D01*
X123539285Y-56625761D01*
X123396428Y-56482904D01*
X123301190Y-56435285D01*
X123205952Y-56435285D01*
X123253571Y-56673380D02*
X123158333Y-56625761D01*
X123063095Y-56530523D01*
X123015476Y-56340047D01*
X123015476Y-56006714D01*
X123063095Y-55816238D01*
X123158333Y-55721000D01*
X123253571Y-55673380D01*
X123444047Y-55673380D01*
X123539285Y-55721000D01*
X123634523Y-55816238D01*
X123682142Y-56006714D01*
X123682142Y-56340047D01*
X123634523Y-56530523D01*
X123539285Y-56625761D01*
X123444047Y-56673380D01*
X123253571Y-56673380D01*
X124539285Y-56006714D02*
X124539285Y-56673380D01*
X124301190Y-55625761D02*
X124063095Y-56340047D01*
X124682142Y-56340047D01*
X121872619Y-85312238D02*
X121825000Y-85407476D01*
X121729761Y-85502714D01*
X121586904Y-85645571D01*
X121539285Y-85740809D01*
X121539285Y-85836047D01*
X121777380Y-85788428D02*
X121729761Y-85883666D01*
X121634523Y-85978904D01*
X121444047Y-86026523D01*
X121110714Y-86026523D01*
X120920238Y-85978904D01*
X120825000Y-85883666D01*
X120777380Y-85788428D01*
X120777380Y-85597952D01*
X120825000Y-85502714D01*
X120920238Y-85407476D01*
X121110714Y-85359857D01*
X121444047Y-85359857D01*
X121634523Y-85407476D01*
X121729761Y-85502714D01*
X121777380Y-85597952D01*
X121777380Y-85788428D01*
X120777380Y-85026523D02*
X120777380Y-84407476D01*
X121158333Y-84740809D01*
X121158333Y-84597952D01*
X121205952Y-84502714D01*
X121253571Y-84455095D01*
X121348809Y-84407476D01*
X121586904Y-84407476D01*
X121682142Y-84455095D01*
X121729761Y-84502714D01*
X121777380Y-84597952D01*
X121777380Y-84883666D01*
X121729761Y-84978904D01*
X121682142Y-85026523D01*
X133556476Y-56043380D02*
X133556476Y-56757666D01*
X133508857Y-56900523D01*
X133413619Y-56995761D01*
X133270761Y-57043380D01*
X133175523Y-57043380D01*
X134556476Y-57043380D02*
X133985047Y-57043380D01*
X134270761Y-57043380D02*
X134270761Y-56043380D01*
X134175523Y-56186238D01*
X134080285Y-56281476D01*
X133985047Y-56329095D01*
X135413619Y-56376714D02*
X135413619Y-57043380D01*
X135175523Y-55995761D02*
X134937428Y-56710047D01*
X135556476Y-56710047D01*
X133556476Y-69124380D02*
X133556476Y-69838666D01*
X133508857Y-69981523D01*
X133413619Y-70076761D01*
X133270761Y-70124380D01*
X133175523Y-70124380D01*
X134556476Y-70124380D02*
X133985047Y-70124380D01*
X134270761Y-70124380D02*
X134270761Y-69124380D01*
X134175523Y-69267238D01*
X134080285Y-69362476D01*
X133985047Y-69410095D01*
X134889809Y-69124380D02*
X135508857Y-69124380D01*
X135175523Y-69505333D01*
X135318380Y-69505333D01*
X135413619Y-69552952D01*
X135461238Y-69600571D01*
X135508857Y-69695809D01*
X135508857Y-69933904D01*
X135461238Y-70029142D01*
X135413619Y-70076761D01*
X135318380Y-70124380D01*
X135032666Y-70124380D01*
X134937428Y-70076761D01*
X134889809Y-70029142D01*
X133429476Y-47153380D02*
X133429476Y-47867666D01*
X133381857Y-48010523D01*
X133286619Y-48105761D01*
X133143761Y-48153380D01*
X133048523Y-48153380D01*
X134429476Y-48153380D02*
X133858047Y-48153380D01*
X134143761Y-48153380D02*
X134143761Y-47153380D01*
X134048523Y-47296238D01*
X133953285Y-47391476D01*
X133858047Y-47439095D01*
X134810428Y-47248619D02*
X134858047Y-47201000D01*
X134953285Y-47153380D01*
X135191380Y-47153380D01*
X135286619Y-47201000D01*
X135334238Y-47248619D01*
X135381857Y-47343857D01*
X135381857Y-47439095D01*
X135334238Y-47581952D01*
X134762809Y-48153380D01*
X135381857Y-48153380D01*
X133556476Y-78522380D02*
X133556476Y-79236666D01*
X133508857Y-79379523D01*
X133413619Y-79474761D01*
X133270761Y-79522380D01*
X133175523Y-79522380D01*
X134556476Y-79522380D02*
X133985047Y-79522380D01*
X134270761Y-79522380D02*
X134270761Y-78522380D01*
X134175523Y-78665238D01*
X134080285Y-78760476D01*
X133985047Y-78808095D01*
X135508857Y-79522380D02*
X134937428Y-79522380D01*
X135223142Y-79522380D02*
X135223142Y-78522380D01*
X135127904Y-78665238D01*
X135032666Y-78760476D01*
X134937428Y-78808095D01*
X40687666Y-83248380D02*
X40687666Y-83962666D01*
X40640047Y-84105523D01*
X40544809Y-84200761D01*
X40401952Y-84248380D01*
X40306714Y-84248380D01*
X41687666Y-84248380D02*
X41116238Y-84248380D01*
X41401952Y-84248380D02*
X41401952Y-83248380D01*
X41306714Y-83391238D01*
X41211476Y-83486476D01*
X41116238Y-83534095D01*
X130659142Y-63253857D02*
X130706761Y-63301476D01*
X130754380Y-63444333D01*
X130754380Y-63539571D01*
X130706761Y-63682428D01*
X130611523Y-63777666D01*
X130516285Y-63825285D01*
X130325809Y-63872904D01*
X130182952Y-63872904D01*
X129992476Y-63825285D01*
X129897238Y-63777666D01*
X129802000Y-63682428D01*
X129754380Y-63539571D01*
X129754380Y-63444333D01*
X129802000Y-63301476D01*
X129849619Y-63253857D01*
X129754380Y-62920523D02*
X129754380Y-62301476D01*
X130135333Y-62634809D01*
X130135333Y-62491952D01*
X130182952Y-62396714D01*
X130230571Y-62349095D01*
X130325809Y-62301476D01*
X130563904Y-62301476D01*
X130659142Y-62349095D01*
X130706761Y-62396714D01*
X130754380Y-62491952D01*
X130754380Y-62777666D01*
X130706761Y-62872904D01*
X130659142Y-62920523D01*
X129754380Y-61968142D02*
X129754380Y-61349095D01*
X130135333Y-61682428D01*
X130135333Y-61539571D01*
X130182952Y-61444333D01*
X130230571Y-61396714D01*
X130325809Y-61349095D01*
X130563904Y-61349095D01*
X130659142Y-61396714D01*
X130706761Y-61444333D01*
X130754380Y-61539571D01*
X130754380Y-61825285D01*
X130706761Y-61920523D01*
X130659142Y-61968142D01*
X127373142Y-69797142D02*
X127325523Y-69844761D01*
X127182666Y-69892380D01*
X127087428Y-69892380D01*
X126944571Y-69844761D01*
X126849333Y-69749523D01*
X126801714Y-69654285D01*
X126754095Y-69463809D01*
X126754095Y-69320952D01*
X126801714Y-69130476D01*
X126849333Y-69035238D01*
X126944571Y-68940000D01*
X127087428Y-68892380D01*
X127182666Y-68892380D01*
X127325523Y-68940000D01*
X127373142Y-68987619D01*
X127706476Y-68892380D02*
X128325523Y-68892380D01*
X127992190Y-69273333D01*
X128135047Y-69273333D01*
X128230285Y-69320952D01*
X128277904Y-69368571D01*
X128325523Y-69463809D01*
X128325523Y-69701904D01*
X128277904Y-69797142D01*
X128230285Y-69844761D01*
X128135047Y-69892380D01*
X127849333Y-69892380D01*
X127754095Y-69844761D01*
X127706476Y-69797142D01*
X128706476Y-68987619D02*
X128754095Y-68940000D01*
X128849333Y-68892380D01*
X129087428Y-68892380D01*
X129182666Y-68940000D01*
X129230285Y-68987619D01*
X129277904Y-69082857D01*
X129277904Y-69178095D01*
X129230285Y-69320952D01*
X128658857Y-69892380D01*
X129277904Y-69892380D01*
X127246142Y-49604142D02*
X127198523Y-49651761D01*
X127055666Y-49699380D01*
X126960428Y-49699380D01*
X126817571Y-49651761D01*
X126722333Y-49556523D01*
X126674714Y-49461285D01*
X126627095Y-49270809D01*
X126627095Y-49127952D01*
X126674714Y-48937476D01*
X126722333Y-48842238D01*
X126817571Y-48747000D01*
X126960428Y-48699380D01*
X127055666Y-48699380D01*
X127198523Y-48747000D01*
X127246142Y-48794619D01*
X127579476Y-48699380D02*
X128198523Y-48699380D01*
X127865190Y-49080333D01*
X128008047Y-49080333D01*
X128103285Y-49127952D01*
X128150904Y-49175571D01*
X128198523Y-49270809D01*
X128198523Y-49508904D01*
X128150904Y-49604142D01*
X128103285Y-49651761D01*
X128008047Y-49699380D01*
X127722333Y-49699380D01*
X127627095Y-49651761D01*
X127579476Y-49604142D01*
X129150904Y-49699380D02*
X128579476Y-49699380D01*
X128865190Y-49699380D02*
X128865190Y-48699380D01*
X128769952Y-48842238D01*
X128674714Y-48937476D01*
X128579476Y-48985095D01*
X127373142Y-80211142D02*
X127325523Y-80258761D01*
X127182666Y-80306380D01*
X127087428Y-80306380D01*
X126944571Y-80258761D01*
X126849333Y-80163523D01*
X126801714Y-80068285D01*
X126754095Y-79877809D01*
X126754095Y-79734952D01*
X126801714Y-79544476D01*
X126849333Y-79449238D01*
X126944571Y-79354000D01*
X127087428Y-79306380D01*
X127182666Y-79306380D01*
X127325523Y-79354000D01*
X127373142Y-79401619D01*
X127706476Y-79306380D02*
X128325523Y-79306380D01*
X127992190Y-79687333D01*
X128135047Y-79687333D01*
X128230285Y-79734952D01*
X128277904Y-79782571D01*
X128325523Y-79877809D01*
X128325523Y-80115904D01*
X128277904Y-80211142D01*
X128230285Y-80258761D01*
X128135047Y-80306380D01*
X127849333Y-80306380D01*
X127754095Y-80258761D01*
X127706476Y-80211142D01*
X128944571Y-79306380D02*
X129039809Y-79306380D01*
X129135047Y-79354000D01*
X129182666Y-79401619D01*
X129230285Y-79496857D01*
X129277904Y-79687333D01*
X129277904Y-79925428D01*
X129230285Y-80115904D01*
X129182666Y-80211142D01*
X129135047Y-80258761D01*
X129039809Y-80306380D01*
X128944571Y-80306380D01*
X128849333Y-80258761D01*
X128801714Y-80211142D01*
X128754095Y-80115904D01*
X128706476Y-79925428D01*
X128706476Y-79687333D01*
X128754095Y-79496857D01*
X128801714Y-79401619D01*
X128849333Y-79354000D01*
X128944571Y-79306380D01*
X122928142Y-70686142D02*
X122880523Y-70733761D01*
X122737666Y-70781380D01*
X122642428Y-70781380D01*
X122499571Y-70733761D01*
X122404333Y-70638523D01*
X122356714Y-70543285D01*
X122309095Y-70352809D01*
X122309095Y-70209952D01*
X122356714Y-70019476D01*
X122404333Y-69924238D01*
X122499571Y-69829000D01*
X122642428Y-69781380D01*
X122737666Y-69781380D01*
X122880523Y-69829000D01*
X122928142Y-69876619D01*
X123309095Y-69876619D02*
X123356714Y-69829000D01*
X123451952Y-69781380D01*
X123690047Y-69781380D01*
X123785285Y-69829000D01*
X123832904Y-69876619D01*
X123880523Y-69971857D01*
X123880523Y-70067095D01*
X123832904Y-70209952D01*
X123261476Y-70781380D01*
X123880523Y-70781380D01*
X124356714Y-70781380D02*
X124547190Y-70781380D01*
X124642428Y-70733761D01*
X124690047Y-70686142D01*
X124785285Y-70543285D01*
X124832904Y-70352809D01*
X124832904Y-69971857D01*
X124785285Y-69876619D01*
X124737666Y-69829000D01*
X124642428Y-69781380D01*
X124451952Y-69781380D01*
X124356714Y-69829000D01*
X124309095Y-69876619D01*
X124261476Y-69971857D01*
X124261476Y-70209952D01*
X124309095Y-70305190D01*
X124356714Y-70352809D01*
X124451952Y-70400428D01*
X124642428Y-70400428D01*
X124737666Y-70352809D01*
X124785285Y-70305190D01*
X124832904Y-70209952D01*
X123055142Y-80719142D02*
X123007523Y-80766761D01*
X122864666Y-80814380D01*
X122769428Y-80814380D01*
X122626571Y-80766761D01*
X122531333Y-80671523D01*
X122483714Y-80576285D01*
X122436095Y-80385809D01*
X122436095Y-80242952D01*
X122483714Y-80052476D01*
X122531333Y-79957238D01*
X122626571Y-79862000D01*
X122769428Y-79814380D01*
X122864666Y-79814380D01*
X123007523Y-79862000D01*
X123055142Y-79909619D01*
X123436095Y-79909619D02*
X123483714Y-79862000D01*
X123578952Y-79814380D01*
X123817047Y-79814380D01*
X123912285Y-79862000D01*
X123959904Y-79909619D01*
X124007523Y-80004857D01*
X124007523Y-80100095D01*
X123959904Y-80242952D01*
X123388476Y-80814380D01*
X124007523Y-80814380D01*
X124578952Y-80242952D02*
X124483714Y-80195333D01*
X124436095Y-80147714D01*
X124388476Y-80052476D01*
X124388476Y-80004857D01*
X124436095Y-79909619D01*
X124483714Y-79862000D01*
X124578952Y-79814380D01*
X124769428Y-79814380D01*
X124864666Y-79862000D01*
X124912285Y-79909619D01*
X124959904Y-80004857D01*
X124959904Y-80052476D01*
X124912285Y-80147714D01*
X124864666Y-80195333D01*
X124769428Y-80242952D01*
X124578952Y-80242952D01*
X124483714Y-80290571D01*
X124436095Y-80338190D01*
X124388476Y-80433428D01*
X124388476Y-80623904D01*
X124436095Y-80719142D01*
X124483714Y-80766761D01*
X124578952Y-80814380D01*
X124769428Y-80814380D01*
X124864666Y-80766761D01*
X124912285Y-80719142D01*
X124959904Y-80623904D01*
X124959904Y-80433428D01*
X124912285Y-80338190D01*
X124864666Y-80290571D01*
X124769428Y-80242952D01*
X78941142Y-75572857D02*
X78988761Y-75620476D01*
X79036380Y-75763333D01*
X79036380Y-75858571D01*
X78988761Y-76001428D01*
X78893523Y-76096666D01*
X78798285Y-76144285D01*
X78607809Y-76191904D01*
X78464952Y-76191904D01*
X78274476Y-76144285D01*
X78179238Y-76096666D01*
X78084000Y-76001428D01*
X78036380Y-75858571D01*
X78036380Y-75763333D01*
X78084000Y-75620476D01*
X78131619Y-75572857D01*
X78131619Y-75191904D02*
X78084000Y-75144285D01*
X78036380Y-75049047D01*
X78036380Y-74810952D01*
X78084000Y-74715714D01*
X78131619Y-74668095D01*
X78226857Y-74620476D01*
X78322095Y-74620476D01*
X78464952Y-74668095D01*
X79036380Y-75239523D01*
X79036380Y-74620476D01*
X78036380Y-74287142D02*
X78036380Y-73620476D01*
X79036380Y-74049047D01*
X115181142Y-64619142D02*
X115133523Y-64666761D01*
X114990666Y-64714380D01*
X114895428Y-64714380D01*
X114752571Y-64666761D01*
X114657333Y-64571523D01*
X114609714Y-64476285D01*
X114562095Y-64285809D01*
X114562095Y-64142952D01*
X114609714Y-63952476D01*
X114657333Y-63857238D01*
X114752571Y-63762000D01*
X114895428Y-63714380D01*
X114990666Y-63714380D01*
X115133523Y-63762000D01*
X115181142Y-63809619D01*
X115562095Y-63809619D02*
X115609714Y-63762000D01*
X115704952Y-63714380D01*
X115943047Y-63714380D01*
X116038285Y-63762000D01*
X116085904Y-63809619D01*
X116133523Y-63904857D01*
X116133523Y-64000095D01*
X116085904Y-64142952D01*
X115514476Y-64714380D01*
X116133523Y-64714380D01*
X116990666Y-63714380D02*
X116800190Y-63714380D01*
X116704952Y-63762000D01*
X116657333Y-63809619D01*
X116562095Y-63952476D01*
X116514476Y-64142952D01*
X116514476Y-64523904D01*
X116562095Y-64619142D01*
X116609714Y-64666761D01*
X116704952Y-64714380D01*
X116895428Y-64714380D01*
X116990666Y-64666761D01*
X117038285Y-64619142D01*
X117085904Y-64523904D01*
X117085904Y-64285809D01*
X117038285Y-64190571D01*
X116990666Y-64142952D01*
X116895428Y-64095333D01*
X116704952Y-64095333D01*
X116609714Y-64142952D01*
X116562095Y-64190571D01*
X116514476Y-64285809D01*
X53472142Y-48902857D02*
X53519761Y-48950476D01*
X53567380Y-49093333D01*
X53567380Y-49188571D01*
X53519761Y-49331428D01*
X53424523Y-49426666D01*
X53329285Y-49474285D01*
X53138809Y-49521904D01*
X52995952Y-49521904D01*
X52805476Y-49474285D01*
X52710238Y-49426666D01*
X52615000Y-49331428D01*
X52567380Y-49188571D01*
X52567380Y-49093333D01*
X52615000Y-48950476D01*
X52662619Y-48902857D01*
X52662619Y-48521904D02*
X52615000Y-48474285D01*
X52567380Y-48379047D01*
X52567380Y-48140952D01*
X52615000Y-48045714D01*
X52662619Y-47998095D01*
X52757857Y-47950476D01*
X52853095Y-47950476D01*
X52995952Y-47998095D01*
X53567380Y-48569523D01*
X53567380Y-47950476D01*
X52900714Y-47093333D02*
X53567380Y-47093333D01*
X52519761Y-47331428D02*
X53234047Y-47569523D01*
X53234047Y-46950476D01*
X49141142Y-38838142D02*
X49093523Y-38885761D01*
X48950666Y-38933380D01*
X48855428Y-38933380D01*
X48712571Y-38885761D01*
X48617333Y-38790523D01*
X48569714Y-38695285D01*
X48522095Y-38504809D01*
X48522095Y-38361952D01*
X48569714Y-38171476D01*
X48617333Y-38076238D01*
X48712571Y-37981000D01*
X48855428Y-37933380D01*
X48950666Y-37933380D01*
X49093523Y-37981000D01*
X49141142Y-38028619D01*
X49522095Y-38028619D02*
X49569714Y-37981000D01*
X49664952Y-37933380D01*
X49903047Y-37933380D01*
X49998285Y-37981000D01*
X50045904Y-38028619D01*
X50093523Y-38123857D01*
X50093523Y-38219095D01*
X50045904Y-38361952D01*
X49474476Y-38933380D01*
X50093523Y-38933380D01*
X50426857Y-37933380D02*
X51045904Y-37933380D01*
X50712571Y-38314333D01*
X50855428Y-38314333D01*
X50950666Y-38361952D01*
X50998285Y-38409571D01*
X51045904Y-38504809D01*
X51045904Y-38742904D01*
X50998285Y-38838142D01*
X50950666Y-38885761D01*
X50855428Y-38933380D01*
X50569714Y-38933380D01*
X50474476Y-38885761D01*
X50426857Y-38838142D01*
X63698380Y-52331857D02*
X63222190Y-52665190D01*
X63698380Y-52903285D02*
X62698380Y-52903285D01*
X62698380Y-52522333D01*
X62746000Y-52427095D01*
X62793619Y-52379476D01*
X62888857Y-52331857D01*
X63031714Y-52331857D01*
X63126952Y-52379476D01*
X63174571Y-52427095D01*
X63222190Y-52522333D01*
X63222190Y-52903285D01*
X62793619Y-51950904D02*
X62746000Y-51903285D01*
X62698380Y-51808047D01*
X62698380Y-51569952D01*
X62746000Y-51474714D01*
X62793619Y-51427095D01*
X62888857Y-51379476D01*
X62984095Y-51379476D01*
X63126952Y-51427095D01*
X63698380Y-51998523D01*
X63698380Y-51379476D01*
X63698380Y-50903285D02*
X63698380Y-50712809D01*
X63650761Y-50617571D01*
X63603142Y-50569952D01*
X63460285Y-50474714D01*
X63269809Y-50427095D01*
X62888857Y-50427095D01*
X62793619Y-50474714D01*
X62746000Y-50522333D01*
X62698380Y-50617571D01*
X62698380Y-50808047D01*
X62746000Y-50903285D01*
X62793619Y-50950904D01*
X62888857Y-50998523D01*
X63126952Y-50998523D01*
X63222190Y-50950904D01*
X63269809Y-50903285D01*
X63317428Y-50808047D01*
X63317428Y-50617571D01*
X63269809Y-50522333D01*
X63222190Y-50474714D01*
X63126952Y-50427095D01*
X57730380Y-52458857D02*
X57254190Y-52792190D01*
X57730380Y-53030285D02*
X56730380Y-53030285D01*
X56730380Y-52649333D01*
X56778000Y-52554095D01*
X56825619Y-52506476D01*
X56920857Y-52458857D01*
X57063714Y-52458857D01*
X57158952Y-52506476D01*
X57206571Y-52554095D01*
X57254190Y-52649333D01*
X57254190Y-53030285D01*
X56825619Y-52077904D02*
X56778000Y-52030285D01*
X56730380Y-51935047D01*
X56730380Y-51696952D01*
X56778000Y-51601714D01*
X56825619Y-51554095D01*
X56920857Y-51506476D01*
X57016095Y-51506476D01*
X57158952Y-51554095D01*
X57730380Y-52125523D01*
X57730380Y-51506476D01*
X57158952Y-50935047D02*
X57111333Y-51030285D01*
X57063714Y-51077904D01*
X56968476Y-51125523D01*
X56920857Y-51125523D01*
X56825619Y-51077904D01*
X56778000Y-51030285D01*
X56730380Y-50935047D01*
X56730380Y-50744571D01*
X56778000Y-50649333D01*
X56825619Y-50601714D01*
X56920857Y-50554095D01*
X56968476Y-50554095D01*
X57063714Y-50601714D01*
X57111333Y-50649333D01*
X57158952Y-50744571D01*
X57158952Y-50935047D01*
X57206571Y-51030285D01*
X57254190Y-51077904D01*
X57349428Y-51125523D01*
X57539904Y-51125523D01*
X57635142Y-51077904D01*
X57682761Y-51030285D01*
X57730380Y-50935047D01*
X57730380Y-50744571D01*
X57682761Y-50649333D01*
X57635142Y-50601714D01*
X57539904Y-50554095D01*
X57349428Y-50554095D01*
X57254190Y-50601714D01*
X57206571Y-50649333D01*
X57158952Y-50744571D01*
X64939942Y-45790380D02*
X64606609Y-45314190D01*
X64368514Y-45790380D02*
X64368514Y-44790380D01*
X64749466Y-44790380D01*
X64844704Y-44838000D01*
X64892323Y-44885619D01*
X64939942Y-44980857D01*
X64939942Y-45123714D01*
X64892323Y-45218952D01*
X64844704Y-45266571D01*
X64749466Y-45314190D01*
X64368514Y-45314190D01*
X65320895Y-44885619D02*
X65368514Y-44838000D01*
X65463752Y-44790380D01*
X65701847Y-44790380D01*
X65797085Y-44838000D01*
X65844704Y-44885619D01*
X65892323Y-44980857D01*
X65892323Y-45076095D01*
X65844704Y-45218952D01*
X65273276Y-45790380D01*
X65892323Y-45790380D01*
X66749466Y-44790380D02*
X66558990Y-44790380D01*
X66463752Y-44838000D01*
X66416133Y-44885619D01*
X66320895Y-45028476D01*
X66273276Y-45218952D01*
X66273276Y-45599904D01*
X66320895Y-45695142D01*
X66368514Y-45742761D01*
X66463752Y-45790380D01*
X66654228Y-45790380D01*
X66749466Y-45742761D01*
X66797085Y-45695142D01*
X66844704Y-45599904D01*
X66844704Y-45361809D01*
X66797085Y-45266571D01*
X66749466Y-45218952D01*
X66654228Y-45171333D01*
X66463752Y-45171333D01*
X66368514Y-45218952D01*
X66320895Y-45266571D01*
X66273276Y-45361809D01*
X60698142Y-49219380D02*
X60364809Y-48743190D01*
X60126714Y-49219380D02*
X60126714Y-48219380D01*
X60507666Y-48219380D01*
X60602904Y-48267000D01*
X60650523Y-48314619D01*
X60698142Y-48409857D01*
X60698142Y-48552714D01*
X60650523Y-48647952D01*
X60602904Y-48695571D01*
X60507666Y-48743190D01*
X60126714Y-48743190D01*
X61079095Y-48314619D02*
X61126714Y-48267000D01*
X61221952Y-48219380D01*
X61460047Y-48219380D01*
X61555285Y-48267000D01*
X61602904Y-48314619D01*
X61650523Y-48409857D01*
X61650523Y-48505095D01*
X61602904Y-48647952D01*
X61031476Y-49219380D01*
X61650523Y-49219380D01*
X62555285Y-48219380D02*
X62079095Y-48219380D01*
X62031476Y-48695571D01*
X62079095Y-48647952D01*
X62174333Y-48600333D01*
X62412428Y-48600333D01*
X62507666Y-48647952D01*
X62555285Y-48695571D01*
X62602904Y-48790809D01*
X62602904Y-49028904D01*
X62555285Y-49124142D01*
X62507666Y-49171761D01*
X62412428Y-49219380D01*
X62174333Y-49219380D01*
X62079095Y-49171761D01*
X62031476Y-49124142D01*
X44823142Y-38838142D02*
X44775523Y-38885761D01*
X44632666Y-38933380D01*
X44537428Y-38933380D01*
X44394571Y-38885761D01*
X44299333Y-38790523D01*
X44251714Y-38695285D01*
X44204095Y-38504809D01*
X44204095Y-38361952D01*
X44251714Y-38171476D01*
X44299333Y-38076238D01*
X44394571Y-37981000D01*
X44537428Y-37933380D01*
X44632666Y-37933380D01*
X44775523Y-37981000D01*
X44823142Y-38028619D01*
X45204095Y-38028619D02*
X45251714Y-37981000D01*
X45346952Y-37933380D01*
X45585047Y-37933380D01*
X45680285Y-37981000D01*
X45727904Y-38028619D01*
X45775523Y-38123857D01*
X45775523Y-38219095D01*
X45727904Y-38361952D01*
X45156476Y-38933380D01*
X45775523Y-38933380D01*
X46680285Y-37933380D02*
X46204095Y-37933380D01*
X46156476Y-38409571D01*
X46204095Y-38361952D01*
X46299333Y-38314333D01*
X46537428Y-38314333D01*
X46632666Y-38361952D01*
X46680285Y-38409571D01*
X46727904Y-38504809D01*
X46727904Y-38742904D01*
X46680285Y-38838142D01*
X46632666Y-38885761D01*
X46537428Y-38933380D01*
X46299333Y-38933380D01*
X46204095Y-38885761D01*
X46156476Y-38838142D01*
X68445142Y-42365142D02*
X68397523Y-42412761D01*
X68254666Y-42460380D01*
X68159428Y-42460380D01*
X68016571Y-42412761D01*
X67921333Y-42317523D01*
X67873714Y-42222285D01*
X67826095Y-42031809D01*
X67826095Y-41888952D01*
X67873714Y-41698476D01*
X67921333Y-41603238D01*
X68016571Y-41508000D01*
X68159428Y-41460380D01*
X68254666Y-41460380D01*
X68397523Y-41508000D01*
X68445142Y-41555619D01*
X68826095Y-41555619D02*
X68873714Y-41508000D01*
X68968952Y-41460380D01*
X69207047Y-41460380D01*
X69302285Y-41508000D01*
X69349904Y-41555619D01*
X69397523Y-41650857D01*
X69397523Y-41746095D01*
X69349904Y-41888952D01*
X68778476Y-42460380D01*
X69397523Y-42460380D01*
X69778476Y-41555619D02*
X69826095Y-41508000D01*
X69921333Y-41460380D01*
X70159428Y-41460380D01*
X70254666Y-41508000D01*
X70302285Y-41555619D01*
X70349904Y-41650857D01*
X70349904Y-41746095D01*
X70302285Y-41888952D01*
X69730857Y-42460380D01*
X70349904Y-42460380D01*
X87361733Y-91445142D02*
X87314114Y-91492761D01*
X87171257Y-91540380D01*
X87076019Y-91540380D01*
X86933161Y-91492761D01*
X86837923Y-91397523D01*
X86790304Y-91302285D01*
X86742685Y-91111809D01*
X86742685Y-90968952D01*
X86790304Y-90778476D01*
X86837923Y-90683238D01*
X86933161Y-90588000D01*
X87076019Y-90540380D01*
X87171257Y-90540380D01*
X87314114Y-90588000D01*
X87361733Y-90635619D01*
X87695066Y-90540380D02*
X88361733Y-90540380D01*
X87933161Y-91540380D01*
X66278380Y-91011333D02*
X66992666Y-91011333D01*
X67135523Y-91058952D01*
X67230761Y-91154190D01*
X67278380Y-91297047D01*
X67278380Y-91392285D01*
X66278380Y-90630380D02*
X66278380Y-90011333D01*
X66659333Y-90344666D01*
X66659333Y-90201809D01*
X66706952Y-90106571D01*
X66754571Y-90058952D01*
X66849809Y-90011333D01*
X67087904Y-90011333D01*
X67183142Y-90058952D01*
X67230761Y-90106571D01*
X67278380Y-90201809D01*
X67278380Y-90487523D01*
X67230761Y-90582761D01*
X67183142Y-90630380D01*
X45974095Y-49480380D02*
X45974095Y-50289904D01*
X46021714Y-50385142D01*
X46069333Y-50432761D01*
X46164571Y-50480380D01*
X46355047Y-50480380D01*
X46450285Y-50432761D01*
X46497904Y-50385142D01*
X46545523Y-50289904D01*
X46545523Y-49480380D01*
X47450285Y-49813714D02*
X47450285Y-50480380D01*
X47212190Y-49432761D02*
X46974095Y-50147047D01*
X47593142Y-50147047D01*
X53521571Y-39449333D02*
X53521571Y-39782666D01*
X54045380Y-39782666D02*
X53045380Y-39782666D01*
X53045380Y-39306476D01*
X54045380Y-38401714D02*
X54045380Y-38973142D01*
X54045380Y-38687428D02*
X53045380Y-38687428D01*
X53188238Y-38782666D01*
X53283476Y-38877904D01*
X53331095Y-38973142D01*
X48760142Y-90146142D02*
X48712523Y-90193761D01*
X48569666Y-90241380D01*
X48474428Y-90241380D01*
X48331571Y-90193761D01*
X48236333Y-90098523D01*
X48188714Y-90003285D01*
X48141095Y-89812809D01*
X48141095Y-89669952D01*
X48188714Y-89479476D01*
X48236333Y-89384238D01*
X48331571Y-89289000D01*
X48474428Y-89241380D01*
X48569666Y-89241380D01*
X48712523Y-89289000D01*
X48760142Y-89336619D01*
X49141095Y-89336619D02*
X49188714Y-89289000D01*
X49283952Y-89241380D01*
X49522047Y-89241380D01*
X49617285Y-89289000D01*
X49664904Y-89336619D01*
X49712523Y-89431857D01*
X49712523Y-89527095D01*
X49664904Y-89669952D01*
X49093476Y-90241380D01*
X49712523Y-90241380D01*
X50664904Y-90241380D02*
X50093476Y-90241380D01*
X50379190Y-90241380D02*
X50379190Y-89241380D01*
X50283952Y-89384238D01*
X50188714Y-89479476D01*
X50093476Y-89527095D01*
X123745666Y-47289380D02*
X123745666Y-48003666D01*
X123698047Y-48146523D01*
X123602809Y-48241761D01*
X123459952Y-48289380D01*
X123364714Y-48289380D01*
X124650428Y-47622714D02*
X124650428Y-48289380D01*
X124412333Y-47241761D02*
X124174238Y-47956047D01*
X124793285Y-47956047D01*
X74509333Y-52522380D02*
X74176000Y-52046190D01*
X73937904Y-52522380D02*
X73937904Y-51522380D01*
X74318857Y-51522380D01*
X74414095Y-51570000D01*
X74461714Y-51617619D01*
X74509333Y-51712857D01*
X74509333Y-51855714D01*
X74461714Y-51950952D01*
X74414095Y-51998571D01*
X74318857Y-52046190D01*
X73937904Y-52046190D01*
X75461714Y-52522380D02*
X74890285Y-52522380D01*
X75176000Y-52522380D02*
X75176000Y-51522380D01*
X75080761Y-51665238D01*
X74985523Y-51760476D01*
X74890285Y-51808095D01*
X80605380Y-73151904D02*
X81414904Y-73151904D01*
X81510142Y-73104285D01*
X81557761Y-73056666D01*
X81605380Y-72961428D01*
X81605380Y-72770952D01*
X81557761Y-72675714D01*
X81510142Y-72628095D01*
X81414904Y-72580476D01*
X80605380Y-72580476D01*
X80605380Y-72199523D02*
X80605380Y-71580476D01*
X80986333Y-71913809D01*
X80986333Y-71770952D01*
X81033952Y-71675714D01*
X81081571Y-71628095D01*
X81176809Y-71580476D01*
X81414904Y-71580476D01*
X81510142Y-71628095D01*
X81557761Y-71675714D01*
X81605380Y-71770952D01*
X81605380Y-72056666D01*
X81557761Y-72151904D01*
X81510142Y-72199523D01*
X102108095Y-37116380D02*
X102108095Y-37925904D01*
X102155714Y-38021142D01*
X102203333Y-38068761D01*
X102298571Y-38116380D01*
X102489047Y-38116380D01*
X102584285Y-38068761D01*
X102631904Y-38021142D01*
X102679523Y-37925904D01*
X102679523Y-37116380D01*
X103679523Y-38116380D02*
X103108095Y-38116380D01*
X103393809Y-38116380D02*
X103393809Y-37116380D01*
X103298571Y-37259238D01*
X103203333Y-37354476D01*
X103108095Y-37402095D01*
X96226333Y-54427380D02*
X95893000Y-53951190D01*
X95654904Y-54427380D02*
X95654904Y-53427380D01*
X96035857Y-53427380D01*
X96131095Y-53475000D01*
X96178714Y-53522619D01*
X96226333Y-53617857D01*
X96226333Y-53760714D01*
X96178714Y-53855952D01*
X96131095Y-53903571D01*
X96035857Y-53951190D01*
X95654904Y-53951190D01*
X97083476Y-53427380D02*
X96893000Y-53427380D01*
X96797761Y-53475000D01*
X96750142Y-53522619D01*
X96654904Y-53665476D01*
X96607285Y-53855952D01*
X96607285Y-54236904D01*
X96654904Y-54332142D01*
X96702523Y-54379761D01*
X96797761Y-54427380D01*
X96988238Y-54427380D01*
X97083476Y-54379761D01*
X97131095Y-54332142D01*
X97178714Y-54236904D01*
X97178714Y-53998809D01*
X97131095Y-53903571D01*
X97083476Y-53855952D01*
X96988238Y-53808333D01*
X96797761Y-53808333D01*
X96702523Y-53855952D01*
X96654904Y-53903571D01*
X96607285Y-53998809D01*
X92670333Y-58236380D02*
X92337000Y-57760190D01*
X92098904Y-58236380D02*
X92098904Y-57236380D01*
X92479857Y-57236380D01*
X92575095Y-57284000D01*
X92622714Y-57331619D01*
X92670333Y-57426857D01*
X92670333Y-57569714D01*
X92622714Y-57664952D01*
X92575095Y-57712571D01*
X92479857Y-57760190D01*
X92098904Y-57760190D01*
X93575095Y-57236380D02*
X93098904Y-57236380D01*
X93051285Y-57712571D01*
X93098904Y-57664952D01*
X93194142Y-57617333D01*
X93432238Y-57617333D01*
X93527476Y-57664952D01*
X93575095Y-57712571D01*
X93622714Y-57807809D01*
X93622714Y-58045904D01*
X93575095Y-58141142D01*
X93527476Y-58188761D01*
X93432238Y-58236380D01*
X93194142Y-58236380D01*
X93098904Y-58188761D01*
X93051285Y-58141142D01*
X77462142Y-48331380D02*
X77128809Y-47855190D01*
X76890714Y-48331380D02*
X76890714Y-47331380D01*
X77271666Y-47331380D01*
X77366904Y-47379000D01*
X77414523Y-47426619D01*
X77462142Y-47521857D01*
X77462142Y-47664714D01*
X77414523Y-47759952D01*
X77366904Y-47807571D01*
X77271666Y-47855190D01*
X76890714Y-47855190D01*
X78414523Y-48331380D02*
X77843095Y-48331380D01*
X78128809Y-48331380D02*
X78128809Y-47331380D01*
X78033571Y-47474238D01*
X77938333Y-47569476D01*
X77843095Y-47617095D01*
X78747857Y-47331380D02*
X79414523Y-47331380D01*
X78985952Y-48331380D01*
X74541142Y-48331380D02*
X74207809Y-47855190D01*
X73969714Y-48331380D02*
X73969714Y-47331380D01*
X74350666Y-47331380D01*
X74445904Y-47379000D01*
X74493523Y-47426619D01*
X74541142Y-47521857D01*
X74541142Y-47664714D01*
X74493523Y-47759952D01*
X74445904Y-47807571D01*
X74350666Y-47855190D01*
X73969714Y-47855190D01*
X74922095Y-47426619D02*
X74969714Y-47379000D01*
X75064952Y-47331380D01*
X75303047Y-47331380D01*
X75398285Y-47379000D01*
X75445904Y-47426619D01*
X75493523Y-47521857D01*
X75493523Y-47617095D01*
X75445904Y-47759952D01*
X74874476Y-48331380D01*
X75493523Y-48331380D01*
X75826857Y-47331380D02*
X76445904Y-47331380D01*
X76112571Y-47712333D01*
X76255428Y-47712333D01*
X76350666Y-47759952D01*
X76398285Y-47807571D01*
X76445904Y-47902809D01*
X76445904Y-48140904D01*
X76398285Y-48236142D01*
X76350666Y-48283761D01*
X76255428Y-48331380D01*
X75969714Y-48331380D01*
X75874476Y-48283761D01*
X75826857Y-48236142D01*
X71446380Y-45600857D02*
X70970190Y-45934190D01*
X71446380Y-46172285D02*
X70446380Y-46172285D01*
X70446380Y-45791333D01*
X70494000Y-45696095D01*
X70541619Y-45648476D01*
X70636857Y-45600857D01*
X70779714Y-45600857D01*
X70874952Y-45648476D01*
X70922571Y-45696095D01*
X70970190Y-45791333D01*
X70970190Y-46172285D01*
X70541619Y-45219904D02*
X70494000Y-45172285D01*
X70446380Y-45077047D01*
X70446380Y-44838952D01*
X70494000Y-44743714D01*
X70541619Y-44696095D01*
X70636857Y-44648476D01*
X70732095Y-44648476D01*
X70874952Y-44696095D01*
X71446380Y-45267523D01*
X71446380Y-44648476D01*
X70541619Y-44267523D02*
X70494000Y-44219904D01*
X70446380Y-44124666D01*
X70446380Y-43886571D01*
X70494000Y-43791333D01*
X70541619Y-43743714D01*
X70636857Y-43696095D01*
X70732095Y-43696095D01*
X70874952Y-43743714D01*
X71446380Y-44315142D01*
X71446380Y-43696095D01*
X90241380Y-85478857D02*
X89765190Y-85812190D01*
X90241380Y-86050285D02*
X89241380Y-86050285D01*
X89241380Y-85669333D01*
X89289000Y-85574095D01*
X89336619Y-85526476D01*
X89431857Y-85478857D01*
X89574714Y-85478857D01*
X89669952Y-85526476D01*
X89717571Y-85574095D01*
X89765190Y-85669333D01*
X89765190Y-86050285D01*
X89336619Y-85097904D02*
X89289000Y-85050285D01*
X89241380Y-84955047D01*
X89241380Y-84716952D01*
X89289000Y-84621714D01*
X89336619Y-84574095D01*
X89431857Y-84526476D01*
X89527095Y-84526476D01*
X89669952Y-84574095D01*
X90241380Y-85145523D01*
X90241380Y-84526476D01*
X90241380Y-83574095D02*
X90241380Y-84145523D01*
X90241380Y-83859809D02*
X89241380Y-83859809D01*
X89384238Y-83955047D01*
X89479476Y-84050285D01*
X89527095Y-84145523D01*
X93083142Y-83510380D02*
X92749809Y-83034190D01*
X92511714Y-83510380D02*
X92511714Y-82510380D01*
X92892666Y-82510380D01*
X92987904Y-82558000D01*
X93035523Y-82605619D01*
X93083142Y-82700857D01*
X93083142Y-82843714D01*
X93035523Y-82938952D01*
X92987904Y-82986571D01*
X92892666Y-83034190D01*
X92511714Y-83034190D01*
X93464095Y-82605619D02*
X93511714Y-82558000D01*
X93606952Y-82510380D01*
X93845047Y-82510380D01*
X93940285Y-82558000D01*
X93987904Y-82605619D01*
X94035523Y-82700857D01*
X94035523Y-82796095D01*
X93987904Y-82938952D01*
X93416476Y-83510380D01*
X94035523Y-83510380D01*
X94654571Y-82510380D02*
X94749809Y-82510380D01*
X94845047Y-82558000D01*
X94892666Y-82605619D01*
X94940285Y-82700857D01*
X94987904Y-82891333D01*
X94987904Y-83129428D01*
X94940285Y-83319904D01*
X94892666Y-83415142D01*
X94845047Y-83462761D01*
X94749809Y-83510380D01*
X94654571Y-83510380D01*
X94559333Y-83462761D01*
X94511714Y-83415142D01*
X94464095Y-83319904D01*
X94416476Y-83129428D01*
X94416476Y-82891333D01*
X94464095Y-82700857D01*
X94511714Y-82605619D01*
X94559333Y-82558000D01*
X94654571Y-82510380D01*
X95496142Y-83510380D02*
X95162809Y-83034190D01*
X94924714Y-83510380D02*
X94924714Y-82510380D01*
X95305666Y-82510380D01*
X95400904Y-82558000D01*
X95448523Y-82605619D01*
X95496142Y-82700857D01*
X95496142Y-82843714D01*
X95448523Y-82938952D01*
X95400904Y-82986571D01*
X95305666Y-83034190D01*
X94924714Y-83034190D01*
X96448523Y-83510380D02*
X95877095Y-83510380D01*
X96162809Y-83510380D02*
X96162809Y-82510380D01*
X96067571Y-82653238D01*
X95972333Y-82748476D01*
X95877095Y-82796095D01*
X96924714Y-83510380D02*
X97115190Y-83510380D01*
X97210428Y-83462761D01*
X97258047Y-83415142D01*
X97353285Y-83272285D01*
X97400904Y-83081809D01*
X97400904Y-82700857D01*
X97353285Y-82605619D01*
X97305666Y-82558000D01*
X97210428Y-82510380D01*
X97019952Y-82510380D01*
X96924714Y-82558000D01*
X96877095Y-82605619D01*
X96829476Y-82700857D01*
X96829476Y-82938952D01*
X96877095Y-83034190D01*
X96924714Y-83081809D01*
X97019952Y-83129428D01*
X97210428Y-83129428D01*
X97305666Y-83081809D01*
X97353285Y-83034190D01*
X97400904Y-82938952D01*
X98163142Y-83510380D02*
X97829809Y-83034190D01*
X97591714Y-83510380D02*
X97591714Y-82510380D01*
X97972666Y-82510380D01*
X98067904Y-82558000D01*
X98115523Y-82605619D01*
X98163142Y-82700857D01*
X98163142Y-82843714D01*
X98115523Y-82938952D01*
X98067904Y-82986571D01*
X97972666Y-83034190D01*
X97591714Y-83034190D01*
X99115523Y-83510380D02*
X98544095Y-83510380D01*
X98829809Y-83510380D02*
X98829809Y-82510380D01*
X98734571Y-82653238D01*
X98639333Y-82748476D01*
X98544095Y-82796095D01*
X99686952Y-82938952D02*
X99591714Y-82891333D01*
X99544095Y-82843714D01*
X99496476Y-82748476D01*
X99496476Y-82700857D01*
X99544095Y-82605619D01*
X99591714Y-82558000D01*
X99686952Y-82510380D01*
X99877428Y-82510380D01*
X99972666Y-82558000D01*
X100020285Y-82605619D01*
X100067904Y-82700857D01*
X100067904Y-82748476D01*
X100020285Y-82843714D01*
X99972666Y-82891333D01*
X99877428Y-82938952D01*
X99686952Y-82938952D01*
X99591714Y-82986571D01*
X99544095Y-83034190D01*
X99496476Y-83129428D01*
X99496476Y-83319904D01*
X99544095Y-83415142D01*
X99591714Y-83462761D01*
X99686952Y-83510380D01*
X99877428Y-83510380D01*
X99972666Y-83462761D01*
X100020285Y-83415142D01*
X100067904Y-83319904D01*
X100067904Y-83129428D01*
X100020285Y-83034190D01*
X99972666Y-82986571D01*
X99877428Y-82938952D01*
X100703142Y-83637380D02*
X100369809Y-83161190D01*
X100131714Y-83637380D02*
X100131714Y-82637380D01*
X100512666Y-82637380D01*
X100607904Y-82685000D01*
X100655523Y-82732619D01*
X100703142Y-82827857D01*
X100703142Y-82970714D01*
X100655523Y-83065952D01*
X100607904Y-83113571D01*
X100512666Y-83161190D01*
X100131714Y-83161190D01*
X101655523Y-83637380D02*
X101084095Y-83637380D01*
X101369809Y-83637380D02*
X101369809Y-82637380D01*
X101274571Y-82780238D01*
X101179333Y-82875476D01*
X101084095Y-82923095D01*
X101988857Y-82637380D02*
X102655523Y-82637380D01*
X102226952Y-83637380D01*
X106115380Y-85605857D02*
X105639190Y-85939190D01*
X106115380Y-86177285D02*
X105115380Y-86177285D01*
X105115380Y-85796333D01*
X105163000Y-85701095D01*
X105210619Y-85653476D01*
X105305857Y-85605857D01*
X105448714Y-85605857D01*
X105543952Y-85653476D01*
X105591571Y-85701095D01*
X105639190Y-85796333D01*
X105639190Y-86177285D01*
X106115380Y-84653476D02*
X106115380Y-85224904D01*
X106115380Y-84939190D02*
X105115380Y-84939190D01*
X105258238Y-85034428D01*
X105353476Y-85129666D01*
X105401095Y-85224904D01*
X105115380Y-83796333D02*
X105115380Y-83986809D01*
X105163000Y-84082047D01*
X105210619Y-84129666D01*
X105353476Y-84224904D01*
X105543952Y-84272523D01*
X105924904Y-84272523D01*
X106020142Y-84224904D01*
X106067761Y-84177285D01*
X106115380Y-84082047D01*
X106115380Y-83891571D01*
X106067761Y-83796333D01*
X106020142Y-83748714D01*
X105924904Y-83701095D01*
X105686809Y-83701095D01*
X105591571Y-83748714D01*
X105543952Y-83796333D01*
X105496333Y-83891571D01*
X105496333Y-84082047D01*
X105543952Y-84177285D01*
X105591571Y-84224904D01*
X105686809Y-84272523D01*
X88647142Y-91258380D02*
X88313809Y-90782190D01*
X88075714Y-91258380D02*
X88075714Y-90258380D01*
X88456666Y-90258380D01*
X88551904Y-90306000D01*
X88599523Y-90353619D01*
X88647142Y-90448857D01*
X88647142Y-90591714D01*
X88599523Y-90686952D01*
X88551904Y-90734571D01*
X88456666Y-90782190D01*
X88075714Y-90782190D01*
X89599523Y-91258380D02*
X89028095Y-91258380D01*
X89313809Y-91258380D02*
X89313809Y-90258380D01*
X89218571Y-90401238D01*
X89123333Y-90496476D01*
X89028095Y-90544095D01*
X89980476Y-90353619D02*
X90028095Y-90306000D01*
X90123333Y-90258380D01*
X90361428Y-90258380D01*
X90456666Y-90306000D01*
X90504285Y-90353619D01*
X90551904Y-90448857D01*
X90551904Y-90544095D01*
X90504285Y-90686952D01*
X89932857Y-91258380D01*
X90551904Y-91258380D01*
X92702142Y-91258380D02*
X92368809Y-90782190D01*
X92130714Y-91258380D02*
X92130714Y-90258380D01*
X92511666Y-90258380D01*
X92606904Y-90306000D01*
X92654523Y-90353619D01*
X92702142Y-90448857D01*
X92702142Y-90591714D01*
X92654523Y-90686952D01*
X92606904Y-90734571D01*
X92511666Y-90782190D01*
X92130714Y-90782190D01*
X93654523Y-91258380D02*
X93083095Y-91258380D01*
X93368809Y-91258380D02*
X93368809Y-90258380D01*
X93273571Y-90401238D01*
X93178333Y-90496476D01*
X93083095Y-90544095D01*
X94606904Y-91258380D02*
X94035476Y-91258380D01*
X94321190Y-91258380D02*
X94321190Y-90258380D01*
X94225952Y-90401238D01*
X94130714Y-90496476D01*
X94035476Y-90544095D01*
X96766142Y-91258380D02*
X96432809Y-90782190D01*
X96194714Y-91258380D02*
X96194714Y-90258380D01*
X96575666Y-90258380D01*
X96670904Y-90306000D01*
X96718523Y-90353619D01*
X96766142Y-90448857D01*
X96766142Y-90591714D01*
X96718523Y-90686952D01*
X96670904Y-90734571D01*
X96575666Y-90782190D01*
X96194714Y-90782190D01*
X97718523Y-91258380D02*
X97147095Y-91258380D01*
X97432809Y-91258380D02*
X97432809Y-90258380D01*
X97337571Y-90401238D01*
X97242333Y-90496476D01*
X97147095Y-90544095D01*
X98337571Y-90258380D02*
X98432809Y-90258380D01*
X98528047Y-90306000D01*
X98575666Y-90353619D01*
X98623285Y-90448857D01*
X98670904Y-90639333D01*
X98670904Y-90877428D01*
X98623285Y-91067904D01*
X98575666Y-91163142D01*
X98528047Y-91210761D01*
X98432809Y-91258380D01*
X98337571Y-91258380D01*
X98242333Y-91210761D01*
X98194714Y-91163142D01*
X98147095Y-91067904D01*
X98099476Y-90877428D01*
X98099476Y-90639333D01*
X98147095Y-90448857D01*
X98194714Y-90353619D01*
X98242333Y-90306000D01*
X98337571Y-90258380D01*
X101306333Y-91258380D02*
X100973000Y-90782190D01*
X100734904Y-91258380D02*
X100734904Y-90258380D01*
X101115857Y-90258380D01*
X101211095Y-90306000D01*
X101258714Y-90353619D01*
X101306333Y-90448857D01*
X101306333Y-90591714D01*
X101258714Y-90686952D01*
X101211095Y-90734571D01*
X101115857Y-90782190D01*
X100734904Y-90782190D01*
X101782523Y-91258380D02*
X101973000Y-91258380D01*
X102068238Y-91210761D01*
X102115857Y-91163142D01*
X102211095Y-91020285D01*
X102258714Y-90829809D01*
X102258714Y-90448857D01*
X102211095Y-90353619D01*
X102163476Y-90306000D01*
X102068238Y-90258380D01*
X101877761Y-90258380D01*
X101782523Y-90306000D01*
X101734904Y-90353619D01*
X101687285Y-90448857D01*
X101687285Y-90686952D01*
X101734904Y-90782190D01*
X101782523Y-90829809D01*
X101877761Y-90877428D01*
X102068238Y-90877428D01*
X102163476Y-90829809D01*
X102211095Y-90782190D01*
X102258714Y-90686952D01*
X105370333Y-91258380D02*
X105037000Y-90782190D01*
X104798904Y-91258380D02*
X104798904Y-90258380D01*
X105179857Y-90258380D01*
X105275095Y-90306000D01*
X105322714Y-90353619D01*
X105370333Y-90448857D01*
X105370333Y-90591714D01*
X105322714Y-90686952D01*
X105275095Y-90734571D01*
X105179857Y-90782190D01*
X104798904Y-90782190D01*
X105941761Y-90686952D02*
X105846523Y-90639333D01*
X105798904Y-90591714D01*
X105751285Y-90496476D01*
X105751285Y-90448857D01*
X105798904Y-90353619D01*
X105846523Y-90306000D01*
X105941761Y-90258380D01*
X106132238Y-90258380D01*
X106227476Y-90306000D01*
X106275095Y-90353619D01*
X106322714Y-90448857D01*
X106322714Y-90496476D01*
X106275095Y-90591714D01*
X106227476Y-90639333D01*
X106132238Y-90686952D01*
X105941761Y-90686952D01*
X105846523Y-90734571D01*
X105798904Y-90782190D01*
X105751285Y-90877428D01*
X105751285Y-91067904D01*
X105798904Y-91163142D01*
X105846523Y-91210761D01*
X105941761Y-91258380D01*
X106132238Y-91258380D01*
X106227476Y-91210761D01*
X106275095Y-91163142D01*
X106322714Y-91067904D01*
X106322714Y-90877428D01*
X106275095Y-90782190D01*
X106227476Y-90734571D01*
X106132238Y-90686952D01*
X112355333Y-93035380D02*
X112022000Y-92559190D01*
X111783904Y-93035380D02*
X111783904Y-92035380D01*
X112164857Y-92035380D01*
X112260095Y-92083000D01*
X112307714Y-92130619D01*
X112355333Y-92225857D01*
X112355333Y-92368714D01*
X112307714Y-92463952D01*
X112260095Y-92511571D01*
X112164857Y-92559190D01*
X111783904Y-92559190D01*
X112688666Y-92035380D02*
X113355333Y-92035380D01*
X112926761Y-93035380D01*
X58745380Y-79772666D02*
X58269190Y-80106000D01*
X58745380Y-80344095D02*
X57745380Y-80344095D01*
X57745380Y-79963142D01*
X57793000Y-79867904D01*
X57840619Y-79820285D01*
X57935857Y-79772666D01*
X58078714Y-79772666D01*
X58173952Y-79820285D01*
X58221571Y-79867904D01*
X58269190Y-79963142D01*
X58269190Y-80344095D01*
X57840619Y-79391714D02*
X57793000Y-79344095D01*
X57745380Y-79248857D01*
X57745380Y-79010761D01*
X57793000Y-78915523D01*
X57840619Y-78867904D01*
X57935857Y-78820285D01*
X58031095Y-78820285D01*
X58173952Y-78867904D01*
X58745380Y-79439333D01*
X58745380Y-78820285D01*
X90812666Y-32024380D02*
X90812666Y-32738666D01*
X90765047Y-32881523D01*
X90669809Y-32976761D01*
X90526952Y-33024380D01*
X90431714Y-33024380D01*
X91241238Y-32119619D02*
X91288857Y-32072000D01*
X91384095Y-32024380D01*
X91622190Y-32024380D01*
X91717428Y-32072000D01*
X91765047Y-32119619D01*
X91812666Y-32214857D01*
X91812666Y-32310095D01*
X91765047Y-32452952D01*
X91193619Y-33024380D01*
X91812666Y-33024380D01*
X60285380Y-81232333D02*
X60999666Y-81232333D01*
X61142523Y-81279952D01*
X61237761Y-81375190D01*
X61285380Y-81518047D01*
X61285380Y-81613285D01*
X61285380Y-80708523D02*
X61285380Y-80518047D01*
X61237761Y-80422809D01*
X61190142Y-80375190D01*
X61047285Y-80279952D01*
X60856809Y-80232333D01*
X60475857Y-80232333D01*
X60380619Y-80279952D01*
X60333000Y-80327571D01*
X60285380Y-80422809D01*
X60285380Y-80613285D01*
X60333000Y-80708523D01*
X60380619Y-80756142D01*
X60475857Y-80803761D01*
X60713952Y-80803761D01*
X60809190Y-80756142D01*
X60856809Y-80708523D01*
X60904428Y-80613285D01*
X60904428Y-80422809D01*
X60856809Y-80327571D01*
X60809190Y-80279952D01*
X60713952Y-80232333D01*
X64246380Y-40973333D02*
X64960666Y-40973333D01*
X65103523Y-41020952D01*
X65198761Y-41116190D01*
X65246380Y-41259047D01*
X65246380Y-41354285D01*
X64674952Y-40354285D02*
X64627333Y-40449523D01*
X64579714Y-40497142D01*
X64484476Y-40544761D01*
X64436857Y-40544761D01*
X64341619Y-40497142D01*
X64294000Y-40449523D01*
X64246380Y-40354285D01*
X64246380Y-40163809D01*
X64294000Y-40068571D01*
X64341619Y-40020952D01*
X64436857Y-39973333D01*
X64484476Y-39973333D01*
X64579714Y-40020952D01*
X64627333Y-40068571D01*
X64674952Y-40163809D01*
X64674952Y-40354285D01*
X64722571Y-40449523D01*
X64770190Y-40497142D01*
X64865428Y-40544761D01*
X65055904Y-40544761D01*
X65151142Y-40497142D01*
X65198761Y-40449523D01*
X65246380Y-40354285D01*
X65246380Y-40163809D01*
X65198761Y-40068571D01*
X65151142Y-40020952D01*
X65055904Y-39973333D01*
X64865428Y-39973333D01*
X64770190Y-40020952D01*
X64722571Y-40068571D01*
X64674952Y-40163809D01*
X83526380Y-80978333D02*
X84240666Y-80978333D01*
X84383523Y-81025952D01*
X84478761Y-81121190D01*
X84526380Y-81264047D01*
X84526380Y-81359285D01*
X83526380Y-80073571D02*
X83526380Y-80264047D01*
X83574000Y-80359285D01*
X83621619Y-80406904D01*
X83764476Y-80502142D01*
X83954952Y-80549761D01*
X84335904Y-80549761D01*
X84431142Y-80502142D01*
X84478761Y-80454523D01*
X84526380Y-80359285D01*
X84526380Y-80168809D01*
X84478761Y-80073571D01*
X84431142Y-80025952D01*
X84335904Y-79978333D01*
X84097809Y-79978333D01*
X84002571Y-80025952D01*
X83954952Y-80073571D01*
X83907333Y-80168809D01*
X83907333Y-80359285D01*
X83954952Y-80454523D01*
X84002571Y-80502142D01*
X84097809Y-80549761D01*
X109791380Y-89487333D02*
X110505666Y-89487333D01*
X110648523Y-89534952D01*
X110743761Y-89630190D01*
X110791380Y-89773047D01*
X110791380Y-89868285D01*
X109791380Y-89106380D02*
X109791380Y-88439714D01*
X110791380Y-88868285D01*
X45413142Y-87593466D02*
X45460761Y-87641085D01*
X45508380Y-87783942D01*
X45508380Y-87879180D01*
X45460761Y-88022038D01*
X45365523Y-88117276D01*
X45270285Y-88164895D01*
X45079809Y-88212514D01*
X44936952Y-88212514D01*
X44746476Y-88164895D01*
X44651238Y-88117276D01*
X44556000Y-88022038D01*
X44508380Y-87879180D01*
X44508380Y-87783942D01*
X44556000Y-87641085D01*
X44603619Y-87593466D01*
X45508380Y-87117276D02*
X45508380Y-86926800D01*
X45460761Y-86831561D01*
X45413142Y-86783942D01*
X45270285Y-86688704D01*
X45079809Y-86641085D01*
X44698857Y-86641085D01*
X44603619Y-86688704D01*
X44556000Y-86736323D01*
X44508380Y-86831561D01*
X44508380Y-87022038D01*
X44556000Y-87117276D01*
X44603619Y-87164895D01*
X44698857Y-87212514D01*
X44936952Y-87212514D01*
X45032190Y-87164895D01*
X45079809Y-87117276D01*
X45127428Y-87022038D01*
X45127428Y-86831561D01*
X45079809Y-86736323D01*
X45032190Y-86688704D01*
X44936952Y-86641085D01*
X56888142Y-90146142D02*
X56840523Y-90193761D01*
X56697666Y-90241380D01*
X56602428Y-90241380D01*
X56459571Y-90193761D01*
X56364333Y-90098523D01*
X56316714Y-90003285D01*
X56269095Y-89812809D01*
X56269095Y-89669952D01*
X56316714Y-89479476D01*
X56364333Y-89384238D01*
X56459571Y-89289000D01*
X56602428Y-89241380D01*
X56697666Y-89241380D01*
X56840523Y-89289000D01*
X56888142Y-89336619D01*
X57269095Y-89336619D02*
X57316714Y-89289000D01*
X57411952Y-89241380D01*
X57650047Y-89241380D01*
X57745285Y-89289000D01*
X57792904Y-89336619D01*
X57840523Y-89431857D01*
X57840523Y-89527095D01*
X57792904Y-89669952D01*
X57221476Y-90241380D01*
X57840523Y-90241380D01*
X58459571Y-89241380D02*
X58554809Y-89241380D01*
X58650047Y-89289000D01*
X58697666Y-89336619D01*
X58745285Y-89431857D01*
X58792904Y-89622333D01*
X58792904Y-89860428D01*
X58745285Y-90050904D01*
X58697666Y-90146142D01*
X58650047Y-90193761D01*
X58554809Y-90241380D01*
X58459571Y-90241380D01*
X58364333Y-90193761D01*
X58316714Y-90146142D01*
X58269095Y-90050904D01*
X58221476Y-89860428D01*
X58221476Y-89622333D01*
X58269095Y-89431857D01*
X58316714Y-89336619D01*
X58364333Y-89289000D01*
X58459571Y-89241380D01*
X61825142Y-88018857D02*
X61872761Y-88066476D01*
X61920380Y-88209333D01*
X61920380Y-88304571D01*
X61872761Y-88447428D01*
X61777523Y-88542666D01*
X61682285Y-88590285D01*
X61491809Y-88637904D01*
X61348952Y-88637904D01*
X61158476Y-88590285D01*
X61063238Y-88542666D01*
X60968000Y-88447428D01*
X60920380Y-88304571D01*
X60920380Y-88209333D01*
X60968000Y-88066476D01*
X61015619Y-88018857D01*
X61920380Y-87066476D02*
X61920380Y-87637904D01*
X61920380Y-87352190D02*
X60920380Y-87352190D01*
X61063238Y-87447428D01*
X61158476Y-87542666D01*
X61206095Y-87637904D01*
X61920380Y-86590285D02*
X61920380Y-86399809D01*
X61872761Y-86304571D01*
X61825142Y-86256952D01*
X61682285Y-86161714D01*
X61491809Y-86114095D01*
X61110857Y-86114095D01*
X61015619Y-86161714D01*
X60968000Y-86209333D01*
X60920380Y-86304571D01*
X60920380Y-86495047D01*
X60968000Y-86590285D01*
X61015619Y-86637904D01*
X61110857Y-86685523D01*
X61348952Y-86685523D01*
X61444190Y-86637904D01*
X61491809Y-86590285D01*
X61539428Y-86495047D01*
X61539428Y-86304571D01*
X61491809Y-86209333D01*
X61444190Y-86161714D01*
X61348952Y-86114095D01*
X53967142Y-90146142D02*
X53919523Y-90193761D01*
X53776666Y-90241380D01*
X53681428Y-90241380D01*
X53538571Y-90193761D01*
X53443333Y-90098523D01*
X53395714Y-90003285D01*
X53348095Y-89812809D01*
X53348095Y-89669952D01*
X53395714Y-89479476D01*
X53443333Y-89384238D01*
X53538571Y-89289000D01*
X53681428Y-89241380D01*
X53776666Y-89241380D01*
X53919523Y-89289000D01*
X53967142Y-89336619D01*
X54919523Y-90241380D02*
X54348095Y-90241380D01*
X54633809Y-90241380D02*
X54633809Y-89241380D01*
X54538571Y-89384238D01*
X54443333Y-89479476D01*
X54348095Y-89527095D01*
X55490952Y-89669952D02*
X55395714Y-89622333D01*
X55348095Y-89574714D01*
X55300476Y-89479476D01*
X55300476Y-89431857D01*
X55348095Y-89336619D01*
X55395714Y-89289000D01*
X55490952Y-89241380D01*
X55681428Y-89241380D01*
X55776666Y-89289000D01*
X55824285Y-89336619D01*
X55871904Y-89431857D01*
X55871904Y-89479476D01*
X55824285Y-89574714D01*
X55776666Y-89622333D01*
X55681428Y-89669952D01*
X55490952Y-89669952D01*
X55395714Y-89717571D01*
X55348095Y-89765190D01*
X55300476Y-89860428D01*
X55300476Y-90050904D01*
X55348095Y-90146142D01*
X55395714Y-90193761D01*
X55490952Y-90241380D01*
X55681428Y-90241380D01*
X55776666Y-90193761D01*
X55824285Y-90146142D01*
X55871904Y-90050904D01*
X55871904Y-89860428D01*
X55824285Y-89765190D01*
X55776666Y-89717571D01*
X55681428Y-89669952D01*
X51427142Y-90146142D02*
X51379523Y-90193761D01*
X51236666Y-90241380D01*
X51141428Y-90241380D01*
X50998571Y-90193761D01*
X50903333Y-90098523D01*
X50855714Y-90003285D01*
X50808095Y-89812809D01*
X50808095Y-89669952D01*
X50855714Y-89479476D01*
X50903333Y-89384238D01*
X50998571Y-89289000D01*
X51141428Y-89241380D01*
X51236666Y-89241380D01*
X51379523Y-89289000D01*
X51427142Y-89336619D01*
X52379523Y-90241380D02*
X51808095Y-90241380D01*
X52093809Y-90241380D02*
X52093809Y-89241380D01*
X51998571Y-89384238D01*
X51903333Y-89479476D01*
X51808095Y-89527095D01*
X52712857Y-89241380D02*
X53379523Y-89241380D01*
X52950952Y-90241380D01*
X82301142Y-45450857D02*
X82348761Y-45498476D01*
X82396380Y-45641333D01*
X82396380Y-45736571D01*
X82348761Y-45879428D01*
X82253523Y-45974666D01*
X82158285Y-46022285D01*
X81967809Y-46069904D01*
X81824952Y-46069904D01*
X81634476Y-46022285D01*
X81539238Y-45974666D01*
X81444000Y-45879428D01*
X81396380Y-45736571D01*
X81396380Y-45641333D01*
X81444000Y-45498476D01*
X81491619Y-45450857D01*
X82396380Y-44498476D02*
X82396380Y-45069904D01*
X82396380Y-44784190D02*
X81396380Y-44784190D01*
X81539238Y-44879428D01*
X81634476Y-44974666D01*
X81682095Y-45069904D01*
X81396380Y-43641333D02*
X81396380Y-43831809D01*
X81444000Y-43927047D01*
X81491619Y-43974666D01*
X81634476Y-44069904D01*
X81824952Y-44117523D01*
X82205904Y-44117523D01*
X82301142Y-44069904D01*
X82348761Y-44022285D01*
X82396380Y-43927047D01*
X82396380Y-43736571D01*
X82348761Y-43641333D01*
X82301142Y-43593714D01*
X82205904Y-43546095D01*
X81967809Y-43546095D01*
X81872571Y-43593714D01*
X81824952Y-43641333D01*
X81777333Y-43736571D01*
X81777333Y-43927047D01*
X81824952Y-44022285D01*
X81872571Y-44069904D01*
X81967809Y-44117523D01*
X90146142Y-81414857D02*
X90193761Y-81462476D01*
X90241380Y-81605333D01*
X90241380Y-81700571D01*
X90193761Y-81843428D01*
X90098523Y-81938666D01*
X90003285Y-81986285D01*
X89812809Y-82033904D01*
X89669952Y-82033904D01*
X89479476Y-81986285D01*
X89384238Y-81938666D01*
X89289000Y-81843428D01*
X89241380Y-81700571D01*
X89241380Y-81605333D01*
X89289000Y-81462476D01*
X89336619Y-81414857D01*
X90241380Y-80462476D02*
X90241380Y-81033904D01*
X90241380Y-80748190D02*
X89241380Y-80748190D01*
X89384238Y-80843428D01*
X89479476Y-80938666D01*
X89527095Y-81033904D01*
X89241380Y-79557714D02*
X89241380Y-80033904D01*
X89717571Y-80081523D01*
X89669952Y-80033904D01*
X89622333Y-79938666D01*
X89622333Y-79700571D01*
X89669952Y-79605333D01*
X89717571Y-79557714D01*
X89812809Y-79510095D01*
X90050904Y-79510095D01*
X90146142Y-79557714D01*
X90193761Y-79605333D01*
X90241380Y-79700571D01*
X90241380Y-79938666D01*
X90193761Y-80033904D01*
X90146142Y-80081523D01*
X92956142Y-78843142D02*
X92908523Y-78890761D01*
X92765666Y-78938380D01*
X92670428Y-78938380D01*
X92527571Y-78890761D01*
X92432333Y-78795523D01*
X92384714Y-78700285D01*
X92337095Y-78509809D01*
X92337095Y-78366952D01*
X92384714Y-78176476D01*
X92432333Y-78081238D01*
X92527571Y-77986000D01*
X92670428Y-77938380D01*
X92765666Y-77938380D01*
X92908523Y-77986000D01*
X92956142Y-78033619D01*
X93908523Y-78938380D02*
X93337095Y-78938380D01*
X93622809Y-78938380D02*
X93622809Y-77938380D01*
X93527571Y-78081238D01*
X93432333Y-78176476D01*
X93337095Y-78224095D01*
X94765666Y-78271714D02*
X94765666Y-78938380D01*
X94527571Y-77890761D02*
X94289476Y-78605047D01*
X94908523Y-78605047D01*
X95496142Y-78843142D02*
X95448523Y-78890761D01*
X95305666Y-78938380D01*
X95210428Y-78938380D01*
X95067571Y-78890761D01*
X94972333Y-78795523D01*
X94924714Y-78700285D01*
X94877095Y-78509809D01*
X94877095Y-78366952D01*
X94924714Y-78176476D01*
X94972333Y-78081238D01*
X95067571Y-77986000D01*
X95210428Y-77938380D01*
X95305666Y-77938380D01*
X95448523Y-77986000D01*
X95496142Y-78033619D01*
X96448523Y-78938380D02*
X95877095Y-78938380D01*
X96162809Y-78938380D02*
X96162809Y-77938380D01*
X96067571Y-78081238D01*
X95972333Y-78176476D01*
X95877095Y-78224095D01*
X96781857Y-77938380D02*
X97400904Y-77938380D01*
X97067571Y-78319333D01*
X97210428Y-78319333D01*
X97305666Y-78366952D01*
X97353285Y-78414571D01*
X97400904Y-78509809D01*
X97400904Y-78747904D01*
X97353285Y-78843142D01*
X97305666Y-78890761D01*
X97210428Y-78938380D01*
X96924714Y-78938380D01*
X96829476Y-78890761D01*
X96781857Y-78843142D01*
X98163142Y-78843142D02*
X98115523Y-78890761D01*
X97972666Y-78938380D01*
X97877428Y-78938380D01*
X97734571Y-78890761D01*
X97639333Y-78795523D01*
X97591714Y-78700285D01*
X97544095Y-78509809D01*
X97544095Y-78366952D01*
X97591714Y-78176476D01*
X97639333Y-78081238D01*
X97734571Y-77986000D01*
X97877428Y-77938380D01*
X97972666Y-77938380D01*
X98115523Y-77986000D01*
X98163142Y-78033619D01*
X99115523Y-78938380D02*
X98544095Y-78938380D01*
X98829809Y-78938380D02*
X98829809Y-77938380D01*
X98734571Y-78081238D01*
X98639333Y-78176476D01*
X98544095Y-78224095D01*
X99496476Y-78033619D02*
X99544095Y-77986000D01*
X99639333Y-77938380D01*
X99877428Y-77938380D01*
X99972666Y-77986000D01*
X100020285Y-78033619D01*
X100067904Y-78128857D01*
X100067904Y-78224095D01*
X100020285Y-78366952D01*
X99448857Y-78938380D01*
X100067904Y-78938380D01*
X101211142Y-78843142D02*
X101163523Y-78890761D01*
X101020666Y-78938380D01*
X100925428Y-78938380D01*
X100782571Y-78890761D01*
X100687333Y-78795523D01*
X100639714Y-78700285D01*
X100592095Y-78509809D01*
X100592095Y-78366952D01*
X100639714Y-78176476D01*
X100687333Y-78081238D01*
X100782571Y-77986000D01*
X100925428Y-77938380D01*
X101020666Y-77938380D01*
X101163523Y-77986000D01*
X101211142Y-78033619D01*
X102163523Y-78938380D02*
X101592095Y-78938380D01*
X101877809Y-78938380D02*
X101877809Y-77938380D01*
X101782571Y-78081238D01*
X101687333Y-78176476D01*
X101592095Y-78224095D01*
X103115904Y-78938380D02*
X102544476Y-78938380D01*
X102830190Y-78938380D02*
X102830190Y-77938380D01*
X102734952Y-78081238D01*
X102639714Y-78176476D01*
X102544476Y-78224095D01*
X106050142Y-81541857D02*
X106097761Y-81589476D01*
X106145380Y-81732333D01*
X106145380Y-81827571D01*
X106097761Y-81970428D01*
X106002523Y-82065666D01*
X105907285Y-82113285D01*
X105716809Y-82160904D01*
X105573952Y-82160904D01*
X105383476Y-82113285D01*
X105288238Y-82065666D01*
X105193000Y-81970428D01*
X105145380Y-81827571D01*
X105145380Y-81732333D01*
X105193000Y-81589476D01*
X105240619Y-81541857D01*
X106145380Y-80589476D02*
X106145380Y-81160904D01*
X106145380Y-80875190D02*
X105145380Y-80875190D01*
X105288238Y-80970428D01*
X105383476Y-81065666D01*
X105431095Y-81160904D01*
X105145380Y-79970428D02*
X105145380Y-79875190D01*
X105193000Y-79779952D01*
X105240619Y-79732333D01*
X105335857Y-79684714D01*
X105526333Y-79637095D01*
X105764428Y-79637095D01*
X105954904Y-79684714D01*
X106050142Y-79732333D01*
X106097761Y-79779952D01*
X106145380Y-79875190D01*
X106145380Y-79970428D01*
X106097761Y-80065666D01*
X106050142Y-80113285D01*
X105954904Y-80160904D01*
X105764428Y-80208523D01*
X105526333Y-80208523D01*
X105335857Y-80160904D01*
X105240619Y-80113285D01*
X105193000Y-80065666D01*
X105145380Y-79970428D01*
X54811142Y-76747666D02*
X54858761Y-76795285D01*
X54906380Y-76938142D01*
X54906380Y-77033380D01*
X54858761Y-77176238D01*
X54763523Y-77271476D01*
X54668285Y-77319095D01*
X54477809Y-77366714D01*
X54334952Y-77366714D01*
X54144476Y-77319095D01*
X54049238Y-77271476D01*
X53954000Y-77176238D01*
X53906380Y-77033380D01*
X53906380Y-76938142D01*
X53954000Y-76795285D01*
X54001619Y-76747666D01*
X53906380Y-75890523D02*
X53906380Y-76081000D01*
X53954000Y-76176238D01*
X54001619Y-76223857D01*
X54144476Y-76319095D01*
X54334952Y-76366714D01*
X54715904Y-76366714D01*
X54811142Y-76319095D01*
X54858761Y-76271476D01*
X54906380Y-76176238D01*
X54906380Y-75985761D01*
X54858761Y-75890523D01*
X54811142Y-75842904D01*
X54715904Y-75795285D01*
X54477809Y-75795285D01*
X54382571Y-75842904D01*
X54334952Y-75890523D01*
X54287333Y-75985761D01*
X54287333Y-76176238D01*
X54334952Y-76271476D01*
X54382571Y-76319095D01*
X54477809Y-76366714D01*
X115784333Y-51284142D02*
X115736714Y-51331761D01*
X115593857Y-51379380D01*
X115498619Y-51379380D01*
X115355761Y-51331761D01*
X115260523Y-51236523D01*
X115212904Y-51141285D01*
X115165285Y-50950809D01*
X115165285Y-50807952D01*
X115212904Y-50617476D01*
X115260523Y-50522238D01*
X115355761Y-50427000D01*
X115498619Y-50379380D01*
X115593857Y-50379380D01*
X115736714Y-50427000D01*
X115784333Y-50474619D01*
X116689095Y-50379380D02*
X116212904Y-50379380D01*
X116165285Y-50855571D01*
X116212904Y-50807952D01*
X116308142Y-50760333D01*
X116546238Y-50760333D01*
X116641476Y-50807952D01*
X116689095Y-50855571D01*
X116736714Y-50950809D01*
X116736714Y-51188904D01*
X116689095Y-51284142D01*
X116641476Y-51331761D01*
X116546238Y-51379380D01*
X116308142Y-51379380D01*
X116212904Y-51331761D01*
X116165285Y-51284142D01*
X101179333Y-47982142D02*
X101131714Y-48029761D01*
X100988857Y-48077380D01*
X100893619Y-48077380D01*
X100750761Y-48029761D01*
X100655523Y-47934523D01*
X100607904Y-47839285D01*
X100560285Y-47648809D01*
X100560285Y-47505952D01*
X100607904Y-47315476D01*
X100655523Y-47220238D01*
X100750761Y-47125000D01*
X100893619Y-47077380D01*
X100988857Y-47077380D01*
X101131714Y-47125000D01*
X101179333Y-47172619D01*
X102036476Y-47410714D02*
X102036476Y-48077380D01*
X101798380Y-47029761D02*
X101560285Y-47744047D01*
X102179333Y-47744047D01*
X108037333Y-50776142D02*
X107989714Y-50823761D01*
X107846857Y-50871380D01*
X107751619Y-50871380D01*
X107608761Y-50823761D01*
X107513523Y-50728523D01*
X107465904Y-50633285D01*
X107418285Y-50442809D01*
X107418285Y-50299952D01*
X107465904Y-50109476D01*
X107513523Y-50014238D01*
X107608761Y-49919000D01*
X107751619Y-49871380D01*
X107846857Y-49871380D01*
X107989714Y-49919000D01*
X108037333Y-49966619D01*
X108370666Y-49871380D02*
X108989714Y-49871380D01*
X108656380Y-50252333D01*
X108799238Y-50252333D01*
X108894476Y-50299952D01*
X108942095Y-50347571D01*
X108989714Y-50442809D01*
X108989714Y-50680904D01*
X108942095Y-50776142D01*
X108894476Y-50823761D01*
X108799238Y-50871380D01*
X108513523Y-50871380D01*
X108418285Y-50823761D01*
X108370666Y-50776142D01*
X87590333Y-51284142D02*
X87542714Y-51331761D01*
X87399857Y-51379380D01*
X87304619Y-51379380D01*
X87161761Y-51331761D01*
X87066523Y-51236523D01*
X87018904Y-51141285D01*
X86971285Y-50950809D01*
X86971285Y-50807952D01*
X87018904Y-50617476D01*
X87066523Y-50522238D01*
X87161761Y-50427000D01*
X87304619Y-50379380D01*
X87399857Y-50379380D01*
X87542714Y-50427000D01*
X87590333Y-50474619D01*
X87971285Y-50474619D02*
X88018904Y-50427000D01*
X88114142Y-50379380D01*
X88352238Y-50379380D01*
X88447476Y-50427000D01*
X88495095Y-50474619D01*
X88542714Y-50569857D01*
X88542714Y-50665095D01*
X88495095Y-50807952D01*
X87923666Y-51379380D01*
X88542714Y-51379380D01*
X62756142Y-77382666D02*
X62803761Y-77430285D01*
X62851380Y-77573142D01*
X62851380Y-77668380D01*
X62803761Y-77811238D01*
X62708523Y-77906476D01*
X62613285Y-77954095D01*
X62422809Y-78001714D01*
X62279952Y-78001714D01*
X62089476Y-77954095D01*
X61994238Y-77906476D01*
X61899000Y-77811238D01*
X61851380Y-77668380D01*
X61851380Y-77573142D01*
X61899000Y-77430285D01*
X61946619Y-77382666D01*
X62851380Y-76430285D02*
X62851380Y-77001714D01*
X62851380Y-76716000D02*
X61851380Y-76716000D01*
X61994238Y-76811238D01*
X62089476Y-76906476D01*
X62137095Y-77001714D01*
M02*
