M48
; DRILL file {KiCad (5.1.8)-1} date 01/05/21 15:25:36
; FORMAT={-:-/ absolute / metric / decimal}
; #@! TF.CreationDate,2021-01-05T15:25:36+01:00
; #@! TF.GenerationSoftware,Kicad,Pcbnew,(5.1.8)-1
; #@! TF.FileFunction,Plated,1,2,PTH
FMAT,2
METRIC
T1C0.400
T2C1.000
T3C1.100
T4C1.400
T5C1.500
T6C1.700
%
G90
G05
T1
X44.267Y-81.087
X44.369Y-75.926
X44.47Y-70.866
X44.473Y-116.761
X44.549Y-121.699
X44.6Y-111.6
X45.684Y-65.4
X45.756Y-101.326
X45.786Y-61.051
X45.811Y-106.812
X45.827Y-91.628
X45.898Y-96.617
X48.214Y-76.129
X48.214Y-81.189
X48.417Y-70.866
X48.824Y-67.224
X49.035Y-107.643
X49.035Y-110.16
X50.78Y-55.9
X52.54Y-131.064
X54.531Y-118.13
X55.819Y-55.9
X55.85Y-76.266
X55.926Y-81.59
X56.215Y-118.107
X56.561Y-88.24
X56.718Y-95.286
X56.739Y-98.389
X56.888Y-131.023
X61.001Y-98.532
X61.001Y-101.666
X61.062Y-76.266
X61.087Y-55.961
X61.196Y-130.988
X61.255Y-79.847
X61.976Y-70.866
X64.994Y-111.567
X65.067Y-131.092
X65.766Y-68.763
X65.893Y-66.096
X66.07Y-55.9
X66.675Y-104.775
X67.511Y-106.622
X68.58Y-81.534
X68.923Y-108.143
X69.639Y-131.092
X70.633Y-70.866
X70.866Y-114.3
X71.191Y-77.348
X71.257Y-81.219
X71.338Y-55.961
X72.39Y-87.63
X72.54Y-106.591
X72.644Y-71.882
X73.988Y-131.051
X75.565Y-81.28
X75.809Y-77.536
X75.971Y-56.017
X76.21Y-111.77
X76.241Y-108.097
X76.398Y-91.293
X77.8Y-95.362
X78.105Y-103.505
X78.438Y-130.993
X78.74Y-87.63
X79.456Y-54.442
X81.31Y-107.96
X81.31Y-111.704
X81.316Y-81.183
X81.529Y-77.409
X82.41Y-130.962
X83.185Y-87.63
X84.455Y-93.98
X86.319Y-111.77
X86.34Y-108.006
X86.35Y-81.28
X86.35Y-84.455
X86.385Y-77.246
X87.673Y-130.962
X88.265Y-93.98
X90.073Y-129.283
X90.147Y-124.986
X91.064Y-77.409
X91.425Y-103.21
X91.425Y-111.704
X91.455Y-108.052
X91.577Y-81.183
X91.669Y-86.406
X92.38Y-54.097
X92.794Y-130.962
X93.101Y-69.911
X94.615Y-91.349
X94.615Y-95.25
X94.752Y-77.536
X94.752Y-81.097
X95.514Y-66.731
X96.515Y-86.502
X97.155Y-91.44
X97.673Y-54.097
X97.869Y-130.962
X99.06Y-66.675
X101.097Y-76.794
X101.493Y-69.911
X101.503Y-95.58
X101.503Y-101.524
X102.939Y-130.962
X103.398Y-129.982
X103.988Y-121.224
X104.008Y-54.011
X104.054Y-118.024
X105.313Y-77.292
X105.41Y-79.465
X106.103Y-130.95
X106.523Y-105.009
X106.619Y-101.625
X107.173Y-88.702
X107.315Y-92.71
X107.315Y-95.25
X108.407Y-77.221
X109.398Y-111.135
X110.477Y-130.95
X110.729Y-86.909
X111.145Y-82.408
X111.506Y-104.963
X111.577Y-101.575
X112.939Y-66.396
X113.015Y-69.926
X114.607Y-130.95
X115.042Y-93.426
X115.961Y-87.015
X116.21Y-82.235
X116.688Y-69.962
X116.815Y-91.78
X116.845Y-105.034
X116.876Y-66.472
X116.982Y-127.691
X117.475Y-129.987
X117.714Y-54.097
X119.639Y-102.911
X120.665Y-66.431
X120.701Y-69.962
X121.582Y-130.962
X121.742Y-111.867
X121.808Y-91.643
X121.935Y-96.271
X121.935Y-100.645
X126.327Y-130.962
X126.812Y-111.77
X127.041Y-61.021
X128.3Y-54.011
X131.859Y-115.794
X131.859Y-120.772
X132.011Y-130.645
X132.07Y-126.985
X132.171Y-60.828
X133.51Y-95.331
X137.114Y-60.924
X137.323Y-54.097
X137.343Y-81.036
X142.24Y-60.924
X148.26Y-106.7
X148.265Y-110.866
X148.306Y-116.088
X149.169Y-64.069
X149.555Y-92.837
X149.56Y-68.737
X149.56Y-73.325
X149.56Y-77.998
X149.626Y-96.871
T2
X74.793Y-68.991
X77.333Y-68.991
X79.873Y-68.991
X82.413Y-68.991
X84.953Y-68.991
X87.493Y-68.991
X90.033Y-68.991
X66.604Y-73.984
X69.144Y-73.984
X71.684Y-73.984
X74.224Y-73.984
X76.764Y-73.984
X79.304Y-73.984
X81.844Y-73.984
X84.384Y-73.984
X86.924Y-73.984
X89.464Y-73.984
X92.004Y-73.984
X94.544Y-73.984
X97.084Y-73.984
X99.624Y-73.984
X102.164Y-73.984
X104.704Y-73.984
X107.244Y-73.984
X109.784Y-73.984
X112.324Y-73.984
X129.828Y-69.936
X129.828Y-74.936
X144.328Y-69.936
X144.328Y-72.436
X144.328Y-74.936
X142.61Y-84.98
X147.61Y-84.98
X66.604Y-98.984
X69.144Y-98.984
X71.684Y-98.984
X74.224Y-98.984
X76.764Y-98.984
X79.304Y-98.984
X81.844Y-98.984
X84.384Y-98.984
X86.924Y-98.984
X89.464Y-98.984
X92.004Y-98.984
X94.544Y-98.984
X97.084Y-98.984
X99.624Y-98.984
X102.164Y-98.984
X104.704Y-98.984
X107.244Y-98.984
X109.784Y-98.984
X112.324Y-98.984
X57.714Y-62.047
X60.254Y-62.047
X62.794Y-62.047
X65.334Y-62.047
X67.874Y-62.047
X70.414Y-62.047
X72.954Y-62.047
X52.161Y-70.216
X52.161Y-72.756
X52.161Y-75.296
X52.161Y-77.836
X52.161Y-80.376
X52.161Y-82.916
X52.161Y-85.456
X52.161Y-87.996
X52.161Y-90.536
X52.161Y-93.076
X52.161Y-95.616
X52.161Y-98.156
X52.161Y-100.696
X52.161Y-103.236
X130.39Y-84.98
X135.39Y-84.98
T3
X136.71Y-99.06
X138.41Y-99.06
X140.11Y-99.06
X141.81Y-99.06
X143.51Y-99.06
X132.08Y-99.06
X132.08Y-109.22
T4
X104.546Y-59.599
X109.546Y-59.599
X79.908Y-59.599
X84.908Y-59.599
X92.573Y-59.599
X97.573Y-59.599
X117.699Y-59.7
X122.699Y-59.7
T5
X123.49Y-125.712
X97.025Y-125.75
X83.005Y-125.712
X111.115Y-125.712
X56.144Y-125.712
X69.585Y-125.712
T6
X67.045Y-123.172
X67.045Y-128.252
X72.125Y-123.172
X72.125Y-128.252
X120.95Y-123.172
X120.95Y-128.252
X126.03Y-123.172
X126.03Y-128.252
X94.485Y-123.21
X94.485Y-128.29
X99.565Y-123.21
X99.565Y-128.29
X80.465Y-123.172
X80.465Y-128.252
X85.545Y-123.172
X85.545Y-128.252
X108.575Y-123.172
X108.575Y-128.252
X113.655Y-123.172
X113.655Y-128.252
X53.604Y-123.172
X53.604Y-128.252
X58.684Y-123.172
X58.684Y-128.252
T5
G00X137.478Y-66.836
M15
G01X136.178Y-66.836
M16
G05
G00X137.478Y-78.036
M15
G01X136.178Y-78.036
M16
G05
T0
M30
