G04 #@! TF.GenerationSoftware,KiCad,Pcbnew,(5.1.9)-1*
G04 #@! TF.CreationDate,2021-02-21T15:44:03+01:00*
G04 #@! TF.ProjectId,vfo-pcb,76666f2d-7063-4622-9e6b-696361645f70,rev?*
G04 #@! TF.SameCoordinates,Original*
G04 #@! TF.FileFunction,Soldermask,Top*
G04 #@! TF.FilePolarity,Negative*
%FSLAX46Y46*%
G04 Gerber Fmt 4.6, Leading zero omitted, Abs format (unit mm)*
G04 Created by KiCad (PCBNEW (5.1.9)-1) date 2021-02-21 15:44:03*
%MOMM*%
%LPD*%
G01*
G04 APERTURE LIST*
%ADD10O,1.275000X1.800000*%
%ADD11R,1.275000X1.800000*%
%ADD12O,3.500000X3.500000*%
%ADD13O,2.200000X2.200000*%
%ADD14R,2.200000X2.200000*%
%ADD15C,2.000000*%
%ADD16R,2.000000X2.000000*%
%ADD17C,3.200000*%
%ADD18R,0.900000X0.800000*%
%ADD19R,0.800000X0.900000*%
%ADD20R,1.700000X1.700000*%
%ADD21O,1.700000X1.700000*%
%ADD22R,1.400000X0.300000*%
%ADD23R,2.800000X2.800000*%
%ADD24C,2.800000*%
%ADD25R,3.200000X2.000000*%
%ADD26C,2.050000*%
%ADD27C,2.250000*%
%ADD28R,2.100000X1.800000*%
%ADD29R,2.000000X3.800000*%
%ADD30R,2.000000X1.500000*%
G04 APERTURE END LIST*
G36*
G01*
X50429000Y-125997000D02*
X51679000Y-125997000D01*
G75*
G02*
X51929000Y-126247000I0J-250000D01*
G01*
X51929000Y-127172000D01*
G75*
G02*
X51679000Y-127422000I-250000J0D01*
G01*
X50429000Y-127422000D01*
G75*
G02*
X50179000Y-127172000I0J250000D01*
G01*
X50179000Y-126247000D01*
G75*
G02*
X50429000Y-125997000I250000J0D01*
G01*
G37*
G36*
G01*
X50429000Y-123022000D02*
X51679000Y-123022000D01*
G75*
G02*
X51929000Y-123272000I0J-250000D01*
G01*
X51929000Y-124197000D01*
G75*
G02*
X51679000Y-124447000I-250000J0D01*
G01*
X50429000Y-124447000D01*
G75*
G02*
X50179000Y-124197000I0J250000D01*
G01*
X50179000Y-123272000D01*
G75*
G02*
X50429000Y-123022000I250000J0D01*
G01*
G37*
G36*
G01*
X74305000Y-127013000D02*
X75555000Y-127013000D01*
G75*
G02*
X75805000Y-127263000I0J-250000D01*
G01*
X75805000Y-128188000D01*
G75*
G02*
X75555000Y-128438000I-250000J0D01*
G01*
X74305000Y-128438000D01*
G75*
G02*
X74055000Y-128188000I0J250000D01*
G01*
X74055000Y-127263000D01*
G75*
G02*
X74305000Y-127013000I250000J0D01*
G01*
G37*
G36*
G01*
X74305000Y-124038000D02*
X75555000Y-124038000D01*
G75*
G02*
X75805000Y-124288000I0J-250000D01*
G01*
X75805000Y-125213000D01*
G75*
G02*
X75555000Y-125463000I-250000J0D01*
G01*
X74305000Y-125463000D01*
G75*
G02*
X74055000Y-125213000I0J250000D01*
G01*
X74055000Y-124288000D01*
G75*
G02*
X74305000Y-124038000I250000J0D01*
G01*
G37*
G36*
G01*
X88021000Y-125997000D02*
X89271000Y-125997000D01*
G75*
G02*
X89521000Y-126247000I0J-250000D01*
G01*
X89521000Y-127172000D01*
G75*
G02*
X89271000Y-127422000I-250000J0D01*
G01*
X88021000Y-127422000D01*
G75*
G02*
X87771000Y-127172000I0J250000D01*
G01*
X87771000Y-126247000D01*
G75*
G02*
X88021000Y-125997000I250000J0D01*
G01*
G37*
G36*
G01*
X88021000Y-123022000D02*
X89271000Y-123022000D01*
G75*
G02*
X89521000Y-123272000I0J-250000D01*
G01*
X89521000Y-124197000D01*
G75*
G02*
X89271000Y-124447000I-250000J0D01*
G01*
X88021000Y-124447000D01*
G75*
G02*
X87771000Y-124197000I0J250000D01*
G01*
X87771000Y-123272000D01*
G75*
G02*
X88021000Y-123022000I250000J0D01*
G01*
G37*
G36*
G01*
X90945000Y-129911000D02*
X90945000Y-128661000D01*
G75*
G02*
X91195000Y-128411000I250000J0D01*
G01*
X92120000Y-128411000D01*
G75*
G02*
X92370000Y-128661000I0J-250000D01*
G01*
X92370000Y-129911000D01*
G75*
G02*
X92120000Y-130161000I-250000J0D01*
G01*
X91195000Y-130161000D01*
G75*
G02*
X90945000Y-129911000I0J250000D01*
G01*
G37*
G36*
G01*
X87970000Y-129911000D02*
X87970000Y-128661000D01*
G75*
G02*
X88220000Y-128411000I250000J0D01*
G01*
X89145000Y-128411000D01*
G75*
G02*
X89395000Y-128661000I0J-250000D01*
G01*
X89395000Y-129911000D01*
G75*
G02*
X89145000Y-130161000I-250000J0D01*
G01*
X88220000Y-130161000D01*
G75*
G02*
X87970000Y-129911000I0J250000D01*
G01*
G37*
G36*
G01*
X104785000Y-124727000D02*
X106035000Y-124727000D01*
G75*
G02*
X106285000Y-124977000I0J-250000D01*
G01*
X106285000Y-125902000D01*
G75*
G02*
X106035000Y-126152000I-250000J0D01*
G01*
X104785000Y-126152000D01*
G75*
G02*
X104535000Y-125902000I0J250000D01*
G01*
X104535000Y-124977000D01*
G75*
G02*
X104785000Y-124727000I250000J0D01*
G01*
G37*
G36*
G01*
X104785000Y-121752000D02*
X106035000Y-121752000D01*
G75*
G02*
X106285000Y-122002000I0J-250000D01*
G01*
X106285000Y-122927000D01*
G75*
G02*
X106035000Y-123177000I-250000J0D01*
G01*
X104785000Y-123177000D01*
G75*
G02*
X104535000Y-122927000I0J250000D01*
G01*
X104535000Y-122002000D01*
G75*
G02*
X104785000Y-121752000I250000J0D01*
G01*
G37*
G36*
G01*
X128661000Y-124727000D02*
X129911000Y-124727000D01*
G75*
G02*
X130161000Y-124977000I0J-250000D01*
G01*
X130161000Y-125902000D01*
G75*
G02*
X129911000Y-126152000I-250000J0D01*
G01*
X128661000Y-126152000D01*
G75*
G02*
X128411000Y-125902000I0J250000D01*
G01*
X128411000Y-124977000D01*
G75*
G02*
X128661000Y-124727000I250000J0D01*
G01*
G37*
G36*
G01*
X128661000Y-121752000D02*
X129911000Y-121752000D01*
G75*
G02*
X130161000Y-122002000I0J-250000D01*
G01*
X130161000Y-122927000D01*
G75*
G02*
X129911000Y-123177000I-250000J0D01*
G01*
X128661000Y-123177000D01*
G75*
G02*
X128411000Y-122927000I0J250000D01*
G01*
X128411000Y-122002000D01*
G75*
G02*
X128661000Y-121752000I250000J0D01*
G01*
G37*
G36*
G01*
X102947500Y-66050000D02*
X102947500Y-67300000D01*
G75*
G02*
X102697500Y-67550000I-250000J0D01*
G01*
X101772500Y-67550000D01*
G75*
G02*
X101522500Y-67300000I0J250000D01*
G01*
X101522500Y-66050000D01*
G75*
G02*
X101772500Y-65800000I250000J0D01*
G01*
X102697500Y-65800000D01*
G75*
G02*
X102947500Y-66050000I0J-250000D01*
G01*
G37*
G36*
G01*
X105922500Y-66050000D02*
X105922500Y-67300000D01*
G75*
G02*
X105672500Y-67550000I-250000J0D01*
G01*
X104747500Y-67550000D01*
G75*
G02*
X104497500Y-67300000I0J250000D01*
G01*
X104497500Y-66050000D01*
G75*
G02*
X104747500Y-65800000I250000J0D01*
G01*
X105672500Y-65800000D01*
G75*
G02*
X105922500Y-66050000I0J-250000D01*
G01*
G37*
D10*
X136710000Y-99060000D03*
X138410000Y-99060000D03*
X140110000Y-99060000D03*
X141810000Y-99060000D03*
D11*
X143510000Y-99060000D03*
D12*
X140110000Y-115720000D03*
G36*
G01*
X143650000Y-96129000D02*
X143650000Y-94879000D01*
G75*
G02*
X143900000Y-94629000I250000J0D01*
G01*
X144825000Y-94629000D01*
G75*
G02*
X145075000Y-94879000I0J-250000D01*
G01*
X145075000Y-96129000D01*
G75*
G02*
X144825000Y-96379000I-250000J0D01*
G01*
X143900000Y-96379000D01*
G75*
G02*
X143650000Y-96129000I0J250000D01*
G01*
G37*
G36*
G01*
X140675000Y-96129000D02*
X140675000Y-94879000D01*
G75*
G02*
X140925000Y-94629000I250000J0D01*
G01*
X141850000Y-94629000D01*
G75*
G02*
X142100000Y-94879000I0J-250000D01*
G01*
X142100000Y-96129000D01*
G75*
G02*
X141850000Y-96379000I-250000J0D01*
G01*
X140925000Y-96379000D01*
G75*
G02*
X140675000Y-96129000I0J250000D01*
G01*
G37*
G36*
G01*
X137935000Y-96129000D02*
X137935000Y-94879000D01*
G75*
G02*
X138185000Y-94629000I250000J0D01*
G01*
X139110000Y-94629000D01*
G75*
G02*
X139360000Y-94879000I0J-250000D01*
G01*
X139360000Y-96129000D01*
G75*
G02*
X139110000Y-96379000I-250000J0D01*
G01*
X138185000Y-96379000D01*
G75*
G02*
X137935000Y-96129000I0J250000D01*
G01*
G37*
G36*
G01*
X134960000Y-96129000D02*
X134960000Y-94879000D01*
G75*
G02*
X135210000Y-94629000I250000J0D01*
G01*
X136135000Y-94629000D01*
G75*
G02*
X136385000Y-94879000I0J-250000D01*
G01*
X136385000Y-96129000D01*
G75*
G02*
X136135000Y-96379000I-250000J0D01*
G01*
X135210000Y-96379000D01*
G75*
G02*
X134960000Y-96129000I0J250000D01*
G01*
G37*
D13*
X132080000Y-109220000D03*
D14*
X132080000Y-99060000D03*
D15*
X147356000Y-88282000D03*
D16*
X142356000Y-88282000D03*
D15*
X135136000Y-88282000D03*
D16*
X130136000Y-88282000D03*
G36*
G01*
X63129000Y-68339000D02*
X64379000Y-68339000D01*
G75*
G02*
X64629000Y-68589000I0J-250000D01*
G01*
X64629000Y-69514000D01*
G75*
G02*
X64379000Y-69764000I-250000J0D01*
G01*
X63129000Y-69764000D01*
G75*
G02*
X62879000Y-69514000I0J250000D01*
G01*
X62879000Y-68589000D01*
G75*
G02*
X63129000Y-68339000I250000J0D01*
G01*
G37*
G36*
G01*
X63129000Y-65364000D02*
X64379000Y-65364000D01*
G75*
G02*
X64629000Y-65614000I0J-250000D01*
G01*
X64629000Y-66539000D01*
G75*
G02*
X64379000Y-66789000I-250000J0D01*
G01*
X63129000Y-66789000D01*
G75*
G02*
X62879000Y-66539000I0J250000D01*
G01*
X62879000Y-65614000D01*
G75*
G02*
X63129000Y-65364000I250000J0D01*
G01*
G37*
G36*
G01*
X76845000Y-127013000D02*
X78095000Y-127013000D01*
G75*
G02*
X78345000Y-127263000I0J-250000D01*
G01*
X78345000Y-128188000D01*
G75*
G02*
X78095000Y-128438000I-250000J0D01*
G01*
X76845000Y-128438000D01*
G75*
G02*
X76595000Y-128188000I0J250000D01*
G01*
X76595000Y-127263000D01*
G75*
G02*
X76845000Y-127013000I250000J0D01*
G01*
G37*
G36*
G01*
X76845000Y-124038000D02*
X78095000Y-124038000D01*
G75*
G02*
X78345000Y-124288000I0J-250000D01*
G01*
X78345000Y-125213000D01*
G75*
G02*
X78095000Y-125463000I-250000J0D01*
G01*
X76845000Y-125463000D01*
G75*
G02*
X76595000Y-125213000I0J250000D01*
G01*
X76595000Y-124288000D01*
G75*
G02*
X76845000Y-124038000I250000J0D01*
G01*
G37*
G36*
G01*
X45583000Y-119367000D02*
X44333000Y-119367000D01*
G75*
G02*
X44083000Y-119117000I0J250000D01*
G01*
X44083000Y-118192000D01*
G75*
G02*
X44333000Y-117942000I250000J0D01*
G01*
X45583000Y-117942000D01*
G75*
G02*
X45833000Y-118192000I0J-250000D01*
G01*
X45833000Y-119117000D01*
G75*
G02*
X45583000Y-119367000I-250000J0D01*
G01*
G37*
G36*
G01*
X45583000Y-122342000D02*
X44333000Y-122342000D01*
G75*
G02*
X44083000Y-122092000I0J250000D01*
G01*
X44083000Y-121167000D01*
G75*
G02*
X44333000Y-120917000I250000J0D01*
G01*
X45583000Y-120917000D01*
G75*
G02*
X45833000Y-121167000I0J-250000D01*
G01*
X45833000Y-122092000D01*
G75*
G02*
X45583000Y-122342000I-250000J0D01*
G01*
G37*
G36*
G01*
X80775000Y-113700000D02*
X80775000Y-114950000D01*
G75*
G02*
X80525000Y-115200000I-250000J0D01*
G01*
X79600000Y-115200000D01*
G75*
G02*
X79350000Y-114950000I0J250000D01*
G01*
X79350000Y-113700000D01*
G75*
G02*
X79600000Y-113450000I250000J0D01*
G01*
X80525000Y-113450000D01*
G75*
G02*
X80775000Y-113700000I0J-250000D01*
G01*
G37*
G36*
G01*
X83750000Y-113700000D02*
X83750000Y-114950000D01*
G75*
G02*
X83500000Y-115200000I-250000J0D01*
G01*
X82575000Y-115200000D01*
G75*
G02*
X82325000Y-114950000I0J250000D01*
G01*
X82325000Y-113700000D01*
G75*
G02*
X82575000Y-113450000I250000J0D01*
G01*
X83500000Y-113450000D01*
G75*
G02*
X83750000Y-113700000I0J-250000D01*
G01*
G37*
G36*
G01*
X66350000Y-118725000D02*
X66350000Y-119975000D01*
G75*
G02*
X66100000Y-120225000I-250000J0D01*
G01*
X65175000Y-120225000D01*
G75*
G02*
X64925000Y-119975000I0J250000D01*
G01*
X64925000Y-118725000D01*
G75*
G02*
X65175000Y-118475000I250000J0D01*
G01*
X66100000Y-118475000D01*
G75*
G02*
X66350000Y-118725000I0J-250000D01*
G01*
G37*
G36*
G01*
X69325000Y-118725000D02*
X69325000Y-119975000D01*
G75*
G02*
X69075000Y-120225000I-250000J0D01*
G01*
X68150000Y-120225000D01*
G75*
G02*
X67900000Y-119975000I0J250000D01*
G01*
X67900000Y-118725000D01*
G75*
G02*
X68150000Y-118475000I250000J0D01*
G01*
X69075000Y-118475000D01*
G75*
G02*
X69325000Y-118725000I0J-250000D01*
G01*
G37*
G36*
G01*
X47127000Y-120917000D02*
X48377000Y-120917000D01*
G75*
G02*
X48627000Y-121167000I0J-250000D01*
G01*
X48627000Y-122092000D01*
G75*
G02*
X48377000Y-122342000I-250000J0D01*
G01*
X47127000Y-122342000D01*
G75*
G02*
X46877000Y-122092000I0J250000D01*
G01*
X46877000Y-121167000D01*
G75*
G02*
X47127000Y-120917000I250000J0D01*
G01*
G37*
G36*
G01*
X47127000Y-117942000D02*
X48377000Y-117942000D01*
G75*
G02*
X48627000Y-118192000I0J-250000D01*
G01*
X48627000Y-119117000D01*
G75*
G02*
X48377000Y-119367000I-250000J0D01*
G01*
X47127000Y-119367000D01*
G75*
G02*
X46877000Y-119117000I0J250000D01*
G01*
X46877000Y-118192000D01*
G75*
G02*
X47127000Y-117942000I250000J0D01*
G01*
G37*
G36*
G01*
X80675000Y-117025000D02*
X80675000Y-118275000D01*
G75*
G02*
X80425000Y-118525000I-250000J0D01*
G01*
X79500000Y-118525000D01*
G75*
G02*
X79250000Y-118275000I0J250000D01*
G01*
X79250000Y-117025000D01*
G75*
G02*
X79500000Y-116775000I250000J0D01*
G01*
X80425000Y-116775000D01*
G75*
G02*
X80675000Y-117025000I0J-250000D01*
G01*
G37*
G36*
G01*
X83650000Y-117025000D02*
X83650000Y-118275000D01*
G75*
G02*
X83400000Y-118525000I-250000J0D01*
G01*
X82475000Y-118525000D01*
G75*
G02*
X82225000Y-118275000I0J250000D01*
G01*
X82225000Y-117025000D01*
G75*
G02*
X82475000Y-116775000I250000J0D01*
G01*
X83400000Y-116775000D01*
G75*
G02*
X83650000Y-117025000I0J-250000D01*
G01*
G37*
G36*
G01*
X106035000Y-117843000D02*
X104785000Y-117843000D01*
G75*
G02*
X104535000Y-117593000I0J250000D01*
G01*
X104535000Y-116668000D01*
G75*
G02*
X104785000Y-116418000I250000J0D01*
G01*
X106035000Y-116418000D01*
G75*
G02*
X106285000Y-116668000I0J-250000D01*
G01*
X106285000Y-117593000D01*
G75*
G02*
X106035000Y-117843000I-250000J0D01*
G01*
G37*
G36*
G01*
X106035000Y-120818000D02*
X104785000Y-120818000D01*
G75*
G02*
X104535000Y-120568000I0J250000D01*
G01*
X104535000Y-119643000D01*
G75*
G02*
X104785000Y-119393000I250000J0D01*
G01*
X106035000Y-119393000D01*
G75*
G02*
X106285000Y-119643000I0J-250000D01*
G01*
X106285000Y-120568000D01*
G75*
G02*
X106035000Y-120818000I-250000J0D01*
G01*
G37*
G36*
G01*
X90815000Y-125997000D02*
X92065000Y-125997000D01*
G75*
G02*
X92315000Y-126247000I0J-250000D01*
G01*
X92315000Y-127172000D01*
G75*
G02*
X92065000Y-127422000I-250000J0D01*
G01*
X90815000Y-127422000D01*
G75*
G02*
X90565000Y-127172000I0J250000D01*
G01*
X90565000Y-126247000D01*
G75*
G02*
X90815000Y-125997000I250000J0D01*
G01*
G37*
G36*
G01*
X90815000Y-123022000D02*
X92065000Y-123022000D01*
G75*
G02*
X92315000Y-123272000I0J-250000D01*
G01*
X92315000Y-124197000D01*
G75*
G02*
X92065000Y-124447000I-250000J0D01*
G01*
X90815000Y-124447000D01*
G75*
G02*
X90565000Y-124197000I0J250000D01*
G01*
X90565000Y-123272000D01*
G75*
G02*
X90815000Y-123022000I250000J0D01*
G01*
G37*
G36*
G01*
X107525000Y-119350000D02*
X108775000Y-119350000D01*
G75*
G02*
X109025000Y-119600000I0J-250000D01*
G01*
X109025000Y-120525000D01*
G75*
G02*
X108775000Y-120775000I-250000J0D01*
G01*
X107525000Y-120775000D01*
G75*
G02*
X107275000Y-120525000I0J250000D01*
G01*
X107275000Y-119600000D01*
G75*
G02*
X107525000Y-119350000I250000J0D01*
G01*
G37*
G36*
G01*
X107525000Y-116375000D02*
X108775000Y-116375000D01*
G75*
G02*
X109025000Y-116625000I0J-250000D01*
G01*
X109025000Y-117550000D01*
G75*
G02*
X108775000Y-117800000I-250000J0D01*
G01*
X107525000Y-117800000D01*
G75*
G02*
X107275000Y-117550000I0J250000D01*
G01*
X107275000Y-116625000D01*
G75*
G02*
X107525000Y-116375000I250000J0D01*
G01*
G37*
G36*
G01*
X101675000Y-119525000D02*
X101675000Y-118275000D01*
G75*
G02*
X101925000Y-118025000I250000J0D01*
G01*
X102850000Y-118025000D01*
G75*
G02*
X103100000Y-118275000I0J-250000D01*
G01*
X103100000Y-119525000D01*
G75*
G02*
X102850000Y-119775000I-250000J0D01*
G01*
X101925000Y-119775000D01*
G75*
G02*
X101675000Y-119525000I0J250000D01*
G01*
G37*
G36*
G01*
X98700000Y-119525000D02*
X98700000Y-118275000D01*
G75*
G02*
X98950000Y-118025000I250000J0D01*
G01*
X99875000Y-118025000D01*
G75*
G02*
X100125000Y-118275000I0J-250000D01*
G01*
X100125000Y-119525000D01*
G75*
G02*
X99875000Y-119775000I-250000J0D01*
G01*
X98950000Y-119775000D01*
G75*
G02*
X98700000Y-119525000I0J250000D01*
G01*
G37*
G36*
G01*
X128150000Y-117875000D02*
X126900000Y-117875000D01*
G75*
G02*
X126650000Y-117625000I0J250000D01*
G01*
X126650000Y-116700000D01*
G75*
G02*
X126900000Y-116450000I250000J0D01*
G01*
X128150000Y-116450000D01*
G75*
G02*
X128400000Y-116700000I0J-250000D01*
G01*
X128400000Y-117625000D01*
G75*
G02*
X128150000Y-117875000I-250000J0D01*
G01*
G37*
G36*
G01*
X128150000Y-120850000D02*
X126900000Y-120850000D01*
G75*
G02*
X126650000Y-120600000I0J250000D01*
G01*
X126650000Y-119675000D01*
G75*
G02*
X126900000Y-119425000I250000J0D01*
G01*
X128150000Y-119425000D01*
G75*
G02*
X128400000Y-119675000I0J-250000D01*
G01*
X128400000Y-120600000D01*
G75*
G02*
X128150000Y-120850000I-250000J0D01*
G01*
G37*
G36*
G01*
X125085000Y-112255000D02*
X123835000Y-112255000D01*
G75*
G02*
X123585000Y-112005000I0J250000D01*
G01*
X123585000Y-111080000D01*
G75*
G02*
X123835000Y-110830000I250000J0D01*
G01*
X125085000Y-110830000D01*
G75*
G02*
X125335000Y-111080000I0J-250000D01*
G01*
X125335000Y-112005000D01*
G75*
G02*
X125085000Y-112255000I-250000J0D01*
G01*
G37*
G36*
G01*
X125085000Y-115230000D02*
X123835000Y-115230000D01*
G75*
G02*
X123585000Y-114980000I0J250000D01*
G01*
X123585000Y-114055000D01*
G75*
G02*
X123835000Y-113805000I250000J0D01*
G01*
X125085000Y-113805000D01*
G75*
G02*
X125335000Y-114055000I0J-250000D01*
G01*
X125335000Y-114980000D01*
G75*
G02*
X125085000Y-115230000I-250000J0D01*
G01*
G37*
G36*
G01*
X73050000Y-120000000D02*
X73050000Y-118750000D01*
G75*
G02*
X73300000Y-118500000I250000J0D01*
G01*
X74225000Y-118500000D01*
G75*
G02*
X74475000Y-118750000I0J-250000D01*
G01*
X74475000Y-120000000D01*
G75*
G02*
X74225000Y-120250000I-250000J0D01*
G01*
X73300000Y-120250000D01*
G75*
G02*
X73050000Y-120000000I0J250000D01*
G01*
G37*
G36*
G01*
X70075000Y-120000000D02*
X70075000Y-118750000D01*
G75*
G02*
X70325000Y-118500000I250000J0D01*
G01*
X71250000Y-118500000D01*
G75*
G02*
X71500000Y-118750000I0J-250000D01*
G01*
X71500000Y-120000000D01*
G75*
G02*
X71250000Y-120250000I-250000J0D01*
G01*
X70325000Y-120250000D01*
G75*
G02*
X70075000Y-120000000I0J250000D01*
G01*
G37*
D17*
X147005040Y-56022240D03*
X45968920Y-128361440D03*
X46248320Y-56022240D03*
X147096480Y-128361440D03*
X57171360Y-105094520D03*
X124871360Y-105094520D03*
X124871360Y-68374520D03*
X57171360Y-68374520D03*
D18*
X116803680Y-118056660D03*
X114803680Y-119006660D03*
X114803680Y-117106660D03*
X96623380Y-117033040D03*
X94623380Y-117983040D03*
X94623380Y-116083040D03*
X119512840Y-118000780D03*
X121512840Y-117050780D03*
X121512840Y-118950780D03*
X68536060Y-114762280D03*
X66536060Y-115712280D03*
X66536060Y-113812280D03*
D19*
X59070240Y-120461280D03*
X58120240Y-118461280D03*
X60020240Y-118461280D03*
D18*
X73963020Y-116098320D03*
X75963020Y-115148320D03*
X75963020Y-117048320D03*
G36*
G01*
X87432180Y-114950400D02*
X87432180Y-113700400D01*
G75*
G02*
X87682180Y-113450400I250000J0D01*
G01*
X88607180Y-113450400D01*
G75*
G02*
X88857180Y-113700400I0J-250000D01*
G01*
X88857180Y-114950400D01*
G75*
G02*
X88607180Y-115200400I-250000J0D01*
G01*
X87682180Y-115200400D01*
G75*
G02*
X87432180Y-114950400I0J250000D01*
G01*
G37*
G36*
G01*
X84457180Y-114950400D02*
X84457180Y-113700400D01*
G75*
G02*
X84707180Y-113450400I250000J0D01*
G01*
X85632180Y-113450400D01*
G75*
G02*
X85882180Y-113700400I0J-250000D01*
G01*
X85882180Y-114950400D01*
G75*
G02*
X85632180Y-115200400I-250000J0D01*
G01*
X84707180Y-115200400D01*
G75*
G02*
X84457180Y-114950400I0J250000D01*
G01*
G37*
G36*
G01*
X77750000Y-120175000D02*
X76500000Y-120175000D01*
G75*
G02*
X76250000Y-119925000I0J250000D01*
G01*
X76250000Y-119000000D01*
G75*
G02*
X76500000Y-118750000I250000J0D01*
G01*
X77750000Y-118750000D01*
G75*
G02*
X78000000Y-119000000I0J-250000D01*
G01*
X78000000Y-119925000D01*
G75*
G02*
X77750000Y-120175000I-250000J0D01*
G01*
G37*
G36*
G01*
X77750000Y-123150000D02*
X76500000Y-123150000D01*
G75*
G02*
X76250000Y-122900000I0J250000D01*
G01*
X76250000Y-121975000D01*
G75*
G02*
X76500000Y-121725000I250000J0D01*
G01*
X77750000Y-121725000D01*
G75*
G02*
X78000000Y-121975000I0J-250000D01*
G01*
X78000000Y-122900000D01*
G75*
G02*
X77750000Y-123150000I-250000J0D01*
G01*
G37*
G36*
G01*
X56796640Y-115290440D02*
X56796640Y-116540440D01*
G75*
G02*
X56546640Y-116790440I-250000J0D01*
G01*
X55621640Y-116790440D01*
G75*
G02*
X55371640Y-116540440I0J250000D01*
G01*
X55371640Y-115290440D01*
G75*
G02*
X55621640Y-115040440I250000J0D01*
G01*
X56546640Y-115040440D01*
G75*
G02*
X56796640Y-115290440I0J-250000D01*
G01*
G37*
G36*
G01*
X59771640Y-115290440D02*
X59771640Y-116540440D01*
G75*
G02*
X59521640Y-116790440I-250000J0D01*
G01*
X58596640Y-116790440D01*
G75*
G02*
X58346640Y-116540440I0J250000D01*
G01*
X58346640Y-115290440D01*
G75*
G02*
X58596640Y-115040440I250000J0D01*
G01*
X59521640Y-115040440D01*
G75*
G02*
X59771640Y-115290440I0J-250000D01*
G01*
G37*
G36*
G01*
X110525400Y-119359980D02*
X111775400Y-119359980D01*
G75*
G02*
X112025400Y-119609980I0J-250000D01*
G01*
X112025400Y-120534980D01*
G75*
G02*
X111775400Y-120784980I-250000J0D01*
G01*
X110525400Y-120784980D01*
G75*
G02*
X110275400Y-120534980I0J250000D01*
G01*
X110275400Y-119609980D01*
G75*
G02*
X110525400Y-119359980I250000J0D01*
G01*
G37*
G36*
G01*
X110525400Y-116384980D02*
X111775400Y-116384980D01*
G75*
G02*
X112025400Y-116634980I0J-250000D01*
G01*
X112025400Y-117559980D01*
G75*
G02*
X111775400Y-117809980I-250000J0D01*
G01*
X110525400Y-117809980D01*
G75*
G02*
X110275400Y-117559980I0J250000D01*
G01*
X110275400Y-116634980D01*
G75*
G02*
X110525400Y-116384980I250000J0D01*
G01*
G37*
G36*
G01*
X90794680Y-120330260D02*
X92044680Y-120330260D01*
G75*
G02*
X92294680Y-120580260I0J-250000D01*
G01*
X92294680Y-121505260D01*
G75*
G02*
X92044680Y-121755260I-250000J0D01*
G01*
X90794680Y-121755260D01*
G75*
G02*
X90544680Y-121505260I0J250000D01*
G01*
X90544680Y-120580260D01*
G75*
G02*
X90794680Y-120330260I250000J0D01*
G01*
G37*
G36*
G01*
X90794680Y-117355260D02*
X92044680Y-117355260D01*
G75*
G02*
X92294680Y-117605260I0J-250000D01*
G01*
X92294680Y-118530260D01*
G75*
G02*
X92044680Y-118780260I-250000J0D01*
G01*
X90794680Y-118780260D01*
G75*
G02*
X90544680Y-118530260I0J250000D01*
G01*
X90544680Y-117605260D01*
G75*
G02*
X90794680Y-117355260I250000J0D01*
G01*
G37*
G36*
G01*
X124035660Y-119390460D02*
X125285660Y-119390460D01*
G75*
G02*
X125535660Y-119640460I0J-250000D01*
G01*
X125535660Y-120565460D01*
G75*
G02*
X125285660Y-120815460I-250000J0D01*
G01*
X124035660Y-120815460D01*
G75*
G02*
X123785660Y-120565460I0J250000D01*
G01*
X123785660Y-119640460D01*
G75*
G02*
X124035660Y-119390460I250000J0D01*
G01*
G37*
G36*
G01*
X124035660Y-116415460D02*
X125285660Y-116415460D01*
G75*
G02*
X125535660Y-116665460I0J-250000D01*
G01*
X125535660Y-117590460D01*
G75*
G02*
X125285660Y-117840460I-250000J0D01*
G01*
X124035660Y-117840460D01*
G75*
G02*
X123785660Y-117590460I0J250000D01*
G01*
X123785660Y-116665460D01*
G75*
G02*
X124035660Y-116415460I250000J0D01*
G01*
G37*
G36*
G01*
X101724760Y-116685220D02*
X101724760Y-115435220D01*
G75*
G02*
X101974760Y-115185220I250000J0D01*
G01*
X102899760Y-115185220D01*
G75*
G02*
X103149760Y-115435220I0J-250000D01*
G01*
X103149760Y-116685220D01*
G75*
G02*
X102899760Y-116935220I-250000J0D01*
G01*
X101974760Y-116935220D01*
G75*
G02*
X101724760Y-116685220I0J250000D01*
G01*
G37*
G36*
G01*
X98749760Y-116685220D02*
X98749760Y-115435220D01*
G75*
G02*
X98999760Y-115185220I250000J0D01*
G01*
X99924760Y-115185220D01*
G75*
G02*
X100174760Y-115435220I0J-250000D01*
G01*
X100174760Y-116685220D01*
G75*
G02*
X99924760Y-116935220I-250000J0D01*
G01*
X98999760Y-116935220D01*
G75*
G02*
X98749760Y-116685220I0J250000D01*
G01*
G37*
G36*
G01*
X115430460Y-111858760D02*
X114180460Y-111858760D01*
G75*
G02*
X113930460Y-111608760I0J250000D01*
G01*
X113930460Y-110683760D01*
G75*
G02*
X114180460Y-110433760I250000J0D01*
G01*
X115430460Y-110433760D01*
G75*
G02*
X115680460Y-110683760I0J-250000D01*
G01*
X115680460Y-111608760D01*
G75*
G02*
X115430460Y-111858760I-250000J0D01*
G01*
G37*
G36*
G01*
X115430460Y-114833760D02*
X114180460Y-114833760D01*
G75*
G02*
X113930460Y-114583760I0J250000D01*
G01*
X113930460Y-113658760D01*
G75*
G02*
X114180460Y-113408760I250000J0D01*
G01*
X115430460Y-113408760D01*
G75*
G02*
X115680460Y-113658760I0J-250000D01*
G01*
X115680460Y-114583760D01*
G75*
G02*
X115430460Y-114833760I-250000J0D01*
G01*
G37*
G36*
G01*
X118445440Y-111879080D02*
X117195440Y-111879080D01*
G75*
G02*
X116945440Y-111629080I0J250000D01*
G01*
X116945440Y-110704080D01*
G75*
G02*
X117195440Y-110454080I250000J0D01*
G01*
X118445440Y-110454080D01*
G75*
G02*
X118695440Y-110704080I0J-250000D01*
G01*
X118695440Y-111629080D01*
G75*
G02*
X118445440Y-111879080I-250000J0D01*
G01*
G37*
G36*
G01*
X118445440Y-114854080D02*
X117195440Y-114854080D01*
G75*
G02*
X116945440Y-114604080I0J250000D01*
G01*
X116945440Y-113679080D01*
G75*
G02*
X117195440Y-113429080I250000J0D01*
G01*
X118445440Y-113429080D01*
G75*
G02*
X118695440Y-113679080I0J-250000D01*
G01*
X118695440Y-114604080D01*
G75*
G02*
X118445440Y-114854080I-250000J0D01*
G01*
G37*
D20*
X57713880Y-62047120D03*
D21*
X60253880Y-62047120D03*
X62793880Y-62047120D03*
X65333880Y-62047120D03*
X67873880Y-62047120D03*
X70413880Y-62047120D03*
X72953880Y-62047120D03*
D22*
X62164320Y-109931960D03*
X62164320Y-110431960D03*
X62164320Y-110931960D03*
X62164320Y-111431960D03*
X62164320Y-111931960D03*
X57764320Y-111931960D03*
X57764320Y-111431960D03*
X57764320Y-110931960D03*
X57764320Y-110431960D03*
X57764320Y-109931960D03*
G36*
G01*
X131585000Y-96129000D02*
X131585000Y-94879000D01*
G75*
G02*
X131835000Y-94629000I250000J0D01*
G01*
X132760000Y-94629000D01*
G75*
G02*
X133010000Y-94879000I0J-250000D01*
G01*
X133010000Y-96129000D01*
G75*
G02*
X132760000Y-96379000I-250000J0D01*
G01*
X131835000Y-96379000D01*
G75*
G02*
X131585000Y-96129000I0J250000D01*
G01*
G37*
G36*
G01*
X128610000Y-96129000D02*
X128610000Y-94879000D01*
G75*
G02*
X128860000Y-94629000I250000J0D01*
G01*
X129785000Y-94629000D01*
G75*
G02*
X130035000Y-94879000I0J-250000D01*
G01*
X130035000Y-96129000D01*
G75*
G02*
X129785000Y-96379000I-250000J0D01*
G01*
X128860000Y-96379000D01*
G75*
G02*
X128610000Y-96129000I0J250000D01*
G01*
G37*
D21*
X112323880Y-98983800D03*
X109783880Y-98983800D03*
X107243880Y-98983800D03*
X104703880Y-98983800D03*
X102163880Y-98983800D03*
X99623880Y-98983800D03*
X97083880Y-98983800D03*
X94543880Y-98983800D03*
X92003880Y-98983800D03*
X89463880Y-98983800D03*
X86923880Y-98983800D03*
X84383880Y-98983800D03*
X81843880Y-98983800D03*
X79303880Y-98983800D03*
X76763880Y-98983800D03*
X74223880Y-98983800D03*
X71683880Y-98983800D03*
X69143880Y-98983800D03*
D20*
X66603880Y-98983800D03*
X66603880Y-73983800D03*
D21*
X69143880Y-73983800D03*
X71683880Y-73983800D03*
X74223880Y-73983800D03*
X76763880Y-73983800D03*
X79303880Y-73983800D03*
X81843880Y-73983800D03*
X84383880Y-73983800D03*
X86923880Y-73983800D03*
X89463880Y-73983800D03*
X92003880Y-73983800D03*
X94543880Y-73983800D03*
X97083880Y-73983800D03*
X99623880Y-73983800D03*
X102163880Y-73983800D03*
X104703880Y-73983800D03*
X107243880Y-73983800D03*
X109783880Y-73983800D03*
X112323880Y-73983800D03*
D23*
X104546400Y-59598560D03*
D24*
X109546400Y-59598560D03*
X84908400Y-59598560D03*
D23*
X79908400Y-59598560D03*
D20*
X52161440Y-103235760D03*
D21*
X52161440Y-100695760D03*
X52161440Y-98155760D03*
X52161440Y-95615760D03*
X52161440Y-93075760D03*
X52161440Y-90535760D03*
X52161440Y-87995760D03*
X52161440Y-85455760D03*
X52161440Y-82915760D03*
X52161440Y-80375760D03*
X52161440Y-77835760D03*
X52161440Y-75295760D03*
X52161440Y-72755760D03*
X52161440Y-70215760D03*
D16*
X144327880Y-69936360D03*
D15*
X144327880Y-72436360D03*
X144327880Y-74936360D03*
D25*
X136827880Y-66836360D03*
X136827880Y-78036360D03*
D15*
X129827880Y-69936360D03*
X129827880Y-74936360D03*
D24*
X97572840Y-59598560D03*
D23*
X92572840Y-59598560D03*
X117698520Y-59700160D03*
D24*
X122698520Y-59700160D03*
D20*
X74792840Y-68991480D03*
D21*
X77332840Y-68991480D03*
X79872840Y-68991480D03*
X82412840Y-68991480D03*
X84952840Y-68991480D03*
X87492840Y-68991480D03*
X90032840Y-68991480D03*
G36*
G01*
X121041000Y-72730000D02*
X122291000Y-72730000D01*
G75*
G02*
X122541000Y-72980000I0J-250000D01*
G01*
X122541000Y-73905000D01*
G75*
G02*
X122291000Y-74155000I-250000J0D01*
G01*
X121041000Y-74155000D01*
G75*
G02*
X120791000Y-73905000I0J250000D01*
G01*
X120791000Y-72980000D01*
G75*
G02*
X121041000Y-72730000I250000J0D01*
G01*
G37*
G36*
G01*
X121041000Y-75705000D02*
X122291000Y-75705000D01*
G75*
G02*
X122541000Y-75955000I0J-250000D01*
G01*
X122541000Y-76880000D01*
G75*
G02*
X122291000Y-77130000I-250000J0D01*
G01*
X121041000Y-77130000D01*
G75*
G02*
X120791000Y-76880000I0J250000D01*
G01*
X120791000Y-75955000D01*
G75*
G02*
X121041000Y-75705000I250000J0D01*
G01*
G37*
G36*
G01*
X124089000Y-72730000D02*
X125339000Y-72730000D01*
G75*
G02*
X125589000Y-72980000I0J-250000D01*
G01*
X125589000Y-73905000D01*
G75*
G02*
X125339000Y-74155000I-250000J0D01*
G01*
X124089000Y-74155000D01*
G75*
G02*
X123839000Y-73905000I0J250000D01*
G01*
X123839000Y-72980000D01*
G75*
G02*
X124089000Y-72730000I250000J0D01*
G01*
G37*
G36*
G01*
X124089000Y-75705000D02*
X125339000Y-75705000D01*
G75*
G02*
X125589000Y-75955000I0J-250000D01*
G01*
X125589000Y-76880000D01*
G75*
G02*
X125339000Y-77130000I-250000J0D01*
G01*
X124089000Y-77130000D01*
G75*
G02*
X123839000Y-76880000I0J250000D01*
G01*
X123839000Y-75955000D01*
G75*
G02*
X124089000Y-75705000I250000J0D01*
G01*
G37*
G36*
G01*
X118109000Y-75745000D02*
X119359000Y-75745000D01*
G75*
G02*
X119609000Y-75995000I0J-250000D01*
G01*
X119609000Y-76920000D01*
G75*
G02*
X119359000Y-77170000I-250000J0D01*
G01*
X118109000Y-77170000D01*
G75*
G02*
X117859000Y-76920000I0J250000D01*
G01*
X117859000Y-75995000D01*
G75*
G02*
X118109000Y-75745000I250000J0D01*
G01*
G37*
G36*
G01*
X118109000Y-72770000D02*
X119359000Y-72770000D01*
G75*
G02*
X119609000Y-73020000I0J-250000D01*
G01*
X119609000Y-73945000D01*
G75*
G02*
X119359000Y-74195000I-250000J0D01*
G01*
X118109000Y-74195000D01*
G75*
G02*
X117859000Y-73945000I0J250000D01*
G01*
X117859000Y-73020000D01*
G75*
G02*
X118109000Y-72770000I250000J0D01*
G01*
G37*
G36*
G01*
X110835800Y-66116040D02*
X110835800Y-67366040D01*
G75*
G02*
X110585800Y-67616040I-250000J0D01*
G01*
X109660800Y-67616040D01*
G75*
G02*
X109410800Y-67366040I0J250000D01*
G01*
X109410800Y-66116040D01*
G75*
G02*
X109660800Y-65866040I250000J0D01*
G01*
X110585800Y-65866040D01*
G75*
G02*
X110835800Y-66116040I0J-250000D01*
G01*
G37*
G36*
G01*
X107860800Y-66116040D02*
X107860800Y-67366040D01*
G75*
G02*
X107610800Y-67616040I-250000J0D01*
G01*
X106685800Y-67616040D01*
G75*
G02*
X106435800Y-67366040I0J250000D01*
G01*
X106435800Y-66116040D01*
G75*
G02*
X106685800Y-65866040I250000J0D01*
G01*
X107610800Y-65866040D01*
G75*
G02*
X107860800Y-66116040I0J-250000D01*
G01*
G37*
G36*
G01*
X115894760Y-85069840D02*
X115894760Y-83819840D01*
G75*
G02*
X116144760Y-83569840I250000J0D01*
G01*
X117069760Y-83569840D01*
G75*
G02*
X117319760Y-83819840I0J-250000D01*
G01*
X117319760Y-85069840D01*
G75*
G02*
X117069760Y-85319840I-250000J0D01*
G01*
X116144760Y-85319840D01*
G75*
G02*
X115894760Y-85069840I0J250000D01*
G01*
G37*
G36*
G01*
X118869760Y-85069840D02*
X118869760Y-83819840D01*
G75*
G02*
X119119760Y-83569840I250000J0D01*
G01*
X120044760Y-83569840D01*
G75*
G02*
X120294760Y-83819840I0J-250000D01*
G01*
X120294760Y-85069840D01*
G75*
G02*
X120044760Y-85319840I-250000J0D01*
G01*
X119119760Y-85319840D01*
G75*
G02*
X118869760Y-85069840I0J250000D01*
G01*
G37*
G36*
G01*
X118824040Y-89616440D02*
X118824040Y-88366440D01*
G75*
G02*
X119074040Y-88116440I250000J0D01*
G01*
X119999040Y-88116440D01*
G75*
G02*
X120249040Y-88366440I0J-250000D01*
G01*
X120249040Y-89616440D01*
G75*
G02*
X119999040Y-89866440I-250000J0D01*
G01*
X119074040Y-89866440D01*
G75*
G02*
X118824040Y-89616440I0J250000D01*
G01*
G37*
G36*
G01*
X115849040Y-89616440D02*
X115849040Y-88366440D01*
G75*
G02*
X116099040Y-88116440I250000J0D01*
G01*
X117024040Y-88116440D01*
G75*
G02*
X117274040Y-88366440I0J-250000D01*
G01*
X117274040Y-89616440D01*
G75*
G02*
X117024040Y-89866440I-250000J0D01*
G01*
X116099040Y-89866440D01*
G75*
G02*
X115849040Y-89616440I0J250000D01*
G01*
G37*
G36*
G01*
X116047160Y-80452120D02*
X116047160Y-79202120D01*
G75*
G02*
X116297160Y-78952120I250000J0D01*
G01*
X117222160Y-78952120D01*
G75*
G02*
X117472160Y-79202120I0J-250000D01*
G01*
X117472160Y-80452120D01*
G75*
G02*
X117222160Y-80702120I-250000J0D01*
G01*
X116297160Y-80702120D01*
G75*
G02*
X116047160Y-80452120I0J250000D01*
G01*
G37*
G36*
G01*
X119022160Y-80452120D02*
X119022160Y-79202120D01*
G75*
G02*
X119272160Y-78952120I250000J0D01*
G01*
X120197160Y-78952120D01*
G75*
G02*
X120447160Y-79202120I0J-250000D01*
G01*
X120447160Y-80452120D01*
G75*
G02*
X120197160Y-80702120I-250000J0D01*
G01*
X119272160Y-80702120D01*
G75*
G02*
X119022160Y-80452120I0J250000D01*
G01*
G37*
G36*
G01*
X113954720Y-87371280D02*
X112704720Y-87371280D01*
G75*
G02*
X112454720Y-87121280I0J250000D01*
G01*
X112454720Y-86196280D01*
G75*
G02*
X112704720Y-85946280I250000J0D01*
G01*
X113954720Y-85946280D01*
G75*
G02*
X114204720Y-86196280I0J-250000D01*
G01*
X114204720Y-87121280D01*
G75*
G02*
X113954720Y-87371280I-250000J0D01*
G01*
G37*
G36*
G01*
X113954720Y-84396280D02*
X112704720Y-84396280D01*
G75*
G02*
X112454720Y-84146280I0J250000D01*
G01*
X112454720Y-83221280D01*
G75*
G02*
X112704720Y-82971280I250000J0D01*
G01*
X113954720Y-82971280D01*
G75*
G02*
X114204720Y-83221280I0J-250000D01*
G01*
X114204720Y-84146280D01*
G75*
G02*
X113954720Y-84396280I-250000J0D01*
G01*
G37*
G36*
G01*
X113964880Y-89704880D02*
X112714880Y-89704880D01*
G75*
G02*
X112464880Y-89454880I0J250000D01*
G01*
X112464880Y-88529880D01*
G75*
G02*
X112714880Y-88279880I250000J0D01*
G01*
X113964880Y-88279880D01*
G75*
G02*
X114214880Y-88529880I0J-250000D01*
G01*
X114214880Y-89454880D01*
G75*
G02*
X113964880Y-89704880I-250000J0D01*
G01*
G37*
G36*
G01*
X113964880Y-92679880D02*
X112714880Y-92679880D01*
G75*
G02*
X112464880Y-92429880I0J250000D01*
G01*
X112464880Y-91504880D01*
G75*
G02*
X112714880Y-91254880I250000J0D01*
G01*
X113964880Y-91254880D01*
G75*
G02*
X114214880Y-91504880I0J-250000D01*
G01*
X114214880Y-92429880D01*
G75*
G02*
X113964880Y-92679880I-250000J0D01*
G01*
G37*
G36*
G01*
X114030920Y-81773120D02*
X112780920Y-81773120D01*
G75*
G02*
X112530920Y-81523120I0J250000D01*
G01*
X112530920Y-80598120D01*
G75*
G02*
X112780920Y-80348120I250000J0D01*
G01*
X114030920Y-80348120D01*
G75*
G02*
X114280920Y-80598120I0J-250000D01*
G01*
X114280920Y-81523120D01*
G75*
G02*
X114030920Y-81773120I-250000J0D01*
G01*
G37*
G36*
G01*
X114030920Y-78798120D02*
X112780920Y-78798120D01*
G75*
G02*
X112530920Y-78548120I0J250000D01*
G01*
X112530920Y-77623120D01*
G75*
G02*
X112780920Y-77373120I250000J0D01*
G01*
X114030920Y-77373120D01*
G75*
G02*
X114280920Y-77623120I0J-250000D01*
G01*
X114280920Y-78548120D01*
G75*
G02*
X114030920Y-78798120I-250000J0D01*
G01*
G37*
G36*
G01*
X102006240Y-107465160D02*
X103256240Y-107465160D01*
G75*
G02*
X103506240Y-107715160I0J-250000D01*
G01*
X103506240Y-108640160D01*
G75*
G02*
X103256240Y-108890160I-250000J0D01*
G01*
X102006240Y-108890160D01*
G75*
G02*
X101756240Y-108640160I0J250000D01*
G01*
X101756240Y-107715160D01*
G75*
G02*
X102006240Y-107465160I250000J0D01*
G01*
G37*
G36*
G01*
X102006240Y-104490160D02*
X103256240Y-104490160D01*
G75*
G02*
X103506240Y-104740160I0J-250000D01*
G01*
X103506240Y-105665160D01*
G75*
G02*
X103256240Y-105915160I-250000J0D01*
G01*
X102006240Y-105915160D01*
G75*
G02*
X101756240Y-105665160I0J250000D01*
G01*
X101756240Y-104740160D01*
G75*
G02*
X102006240Y-104490160I250000J0D01*
G01*
G37*
G36*
G01*
X50347520Y-110800040D02*
X50347520Y-109550040D01*
G75*
G02*
X50597520Y-109300040I250000J0D01*
G01*
X51522520Y-109300040D01*
G75*
G02*
X51772520Y-109550040I0J-250000D01*
G01*
X51772520Y-110800040D01*
G75*
G02*
X51522520Y-111050040I-250000J0D01*
G01*
X50597520Y-111050040D01*
G75*
G02*
X50347520Y-110800040I0J250000D01*
G01*
G37*
G36*
G01*
X53322520Y-110800040D02*
X53322520Y-109550040D01*
G75*
G02*
X53572520Y-109300040I250000J0D01*
G01*
X54497520Y-109300040D01*
G75*
G02*
X54747520Y-109550040I0J-250000D01*
G01*
X54747520Y-110800040D01*
G75*
G02*
X54497520Y-111050040I-250000J0D01*
G01*
X53572520Y-111050040D01*
G75*
G02*
X53322520Y-110800040I0J250000D01*
G01*
G37*
D26*
X123489720Y-125712220D03*
D27*
X126029720Y-128252220D03*
X126029720Y-123172220D03*
X120949720Y-123172220D03*
X120949720Y-128252220D03*
D26*
X111114840Y-125712220D03*
D27*
X113654840Y-128252220D03*
X113654840Y-123172220D03*
X108574840Y-123172220D03*
X108574840Y-128252220D03*
D26*
X97025000Y-125750000D03*
D27*
X99565000Y-128290000D03*
X99565000Y-123210000D03*
X94485000Y-123210000D03*
X94485000Y-128290000D03*
X80465168Y-128252220D03*
X80465168Y-123172220D03*
X85545168Y-123172220D03*
X85545168Y-128252220D03*
D26*
X83005168Y-125712220D03*
D27*
X67044824Y-128252220D03*
X67044824Y-123172220D03*
X72124824Y-123172220D03*
X72124824Y-128252220D03*
D26*
X69584824Y-125712220D03*
D27*
X54102000Y-128270000D03*
X54102000Y-123190000D03*
X59182000Y-123190000D03*
X59182000Y-128270000D03*
D26*
X56642000Y-125730000D03*
D22*
X102635960Y-110673640D03*
X102635960Y-111173640D03*
X102635960Y-111673640D03*
X102635960Y-112173640D03*
X102635960Y-112673640D03*
X107035960Y-112673640D03*
X107035960Y-112173640D03*
X107035960Y-111673640D03*
X107035960Y-111173640D03*
X107035960Y-110673640D03*
D28*
X99176500Y-109461920D03*
X96276500Y-109461920D03*
X96276500Y-111761920D03*
X99176500Y-111761920D03*
X53207580Y-115823380D03*
X50307580Y-115823380D03*
X50307580Y-113523380D03*
X53207580Y-113523380D03*
G36*
G01*
X67376400Y-79212280D02*
X67376400Y-80462280D01*
G75*
G02*
X67126400Y-80712280I-250000J0D01*
G01*
X66201400Y-80712280D01*
G75*
G02*
X65951400Y-80462280I0J250000D01*
G01*
X65951400Y-79212280D01*
G75*
G02*
X66201400Y-78962280I250000J0D01*
G01*
X67126400Y-78962280D01*
G75*
G02*
X67376400Y-79212280I0J-250000D01*
G01*
G37*
G36*
G01*
X64401400Y-79212280D02*
X64401400Y-80462280D01*
G75*
G02*
X64151400Y-80712280I-250000J0D01*
G01*
X63226400Y-80712280D01*
G75*
G02*
X62976400Y-80462280I0J250000D01*
G01*
X62976400Y-79212280D01*
G75*
G02*
X63226400Y-78962280I250000J0D01*
G01*
X64151400Y-78962280D01*
G75*
G02*
X64401400Y-79212280I0J-250000D01*
G01*
G37*
G36*
G01*
X65992040Y-84922520D02*
X65992040Y-83672520D01*
G75*
G02*
X66242040Y-83422520I250000J0D01*
G01*
X67167040Y-83422520D01*
G75*
G02*
X67417040Y-83672520I0J-250000D01*
G01*
X67417040Y-84922520D01*
G75*
G02*
X67167040Y-85172520I-250000J0D01*
G01*
X66242040Y-85172520D01*
G75*
G02*
X65992040Y-84922520I0J250000D01*
G01*
G37*
G36*
G01*
X63017040Y-84922520D02*
X63017040Y-83672520D01*
G75*
G02*
X63267040Y-83422520I250000J0D01*
G01*
X64192040Y-83422520D01*
G75*
G02*
X64442040Y-83672520I0J-250000D01*
G01*
X64442040Y-84922520D01*
G75*
G02*
X64192040Y-85172520I-250000J0D01*
G01*
X63267040Y-85172520D01*
G75*
G02*
X63017040Y-84922520I0J250000D01*
G01*
G37*
D29*
X66721120Y-90418920D03*
D30*
X60421120Y-90418920D03*
X60421120Y-92718920D03*
X60421120Y-88118920D03*
G36*
G01*
X87620000Y-106340000D02*
X86370000Y-106340000D01*
G75*
G02*
X86120000Y-106090000I0J250000D01*
G01*
X86120000Y-105165000D01*
G75*
G02*
X86370000Y-104915000I250000J0D01*
G01*
X87620000Y-104915000D01*
G75*
G02*
X87870000Y-105165000I0J-250000D01*
G01*
X87870000Y-106090000D01*
G75*
G02*
X87620000Y-106340000I-250000J0D01*
G01*
G37*
G36*
G01*
X87620000Y-103365000D02*
X86370000Y-103365000D01*
G75*
G02*
X86120000Y-103115000I0J250000D01*
G01*
X86120000Y-102190000D01*
G75*
G02*
X86370000Y-101940000I250000J0D01*
G01*
X87620000Y-101940000D01*
G75*
G02*
X87870000Y-102190000I0J-250000D01*
G01*
X87870000Y-103115000D01*
G75*
G02*
X87620000Y-103365000I-250000J0D01*
G01*
G37*
G36*
G01*
X84445000Y-103365000D02*
X83195000Y-103365000D01*
G75*
G02*
X82945000Y-103115000I0J250000D01*
G01*
X82945000Y-102190000D01*
G75*
G02*
X83195000Y-101940000I250000J0D01*
G01*
X84445000Y-101940000D01*
G75*
G02*
X84695000Y-102190000I0J-250000D01*
G01*
X84695000Y-103115000D01*
G75*
G02*
X84445000Y-103365000I-250000J0D01*
G01*
G37*
G36*
G01*
X84445000Y-106340000D02*
X83195000Y-106340000D01*
G75*
G02*
X82945000Y-106090000I0J250000D01*
G01*
X82945000Y-105165000D01*
G75*
G02*
X83195000Y-104915000I250000J0D01*
G01*
X84445000Y-104915000D01*
G75*
G02*
X84695000Y-105165000I0J-250000D01*
G01*
X84695000Y-106090000D01*
G75*
G02*
X84445000Y-106340000I-250000J0D01*
G01*
G37*
G36*
G01*
X75758400Y-109387480D02*
X75758400Y-110637480D01*
G75*
G02*
X75508400Y-110887480I-250000J0D01*
G01*
X74583400Y-110887480D01*
G75*
G02*
X74333400Y-110637480I0J250000D01*
G01*
X74333400Y-109387480D01*
G75*
G02*
X74583400Y-109137480I250000J0D01*
G01*
X75508400Y-109137480D01*
G75*
G02*
X75758400Y-109387480I0J-250000D01*
G01*
G37*
G36*
G01*
X72783400Y-109387480D02*
X72783400Y-110637480D01*
G75*
G02*
X72533400Y-110887480I-250000J0D01*
G01*
X71608400Y-110887480D01*
G75*
G02*
X71358400Y-110637480I0J250000D01*
G01*
X71358400Y-109387480D01*
G75*
G02*
X71608400Y-109137480I250000J0D01*
G01*
X72533400Y-109137480D01*
G75*
G02*
X72783400Y-109387480I0J-250000D01*
G01*
G37*
G36*
G01*
X67484960Y-110616840D02*
X67484960Y-111866840D01*
G75*
G02*
X67234960Y-112116840I-250000J0D01*
G01*
X66309960Y-112116840D01*
G75*
G02*
X66059960Y-111866840I0J250000D01*
G01*
X66059960Y-110616840D01*
G75*
G02*
X66309960Y-110366840I250000J0D01*
G01*
X67234960Y-110366840D01*
G75*
G02*
X67484960Y-110616840I0J-250000D01*
G01*
G37*
G36*
G01*
X70459960Y-110616840D02*
X70459960Y-111866840D01*
G75*
G02*
X70209960Y-112116840I-250000J0D01*
G01*
X69284960Y-112116840D01*
G75*
G02*
X69034960Y-111866840I0J250000D01*
G01*
X69034960Y-110616840D01*
G75*
G02*
X69284960Y-110366840I250000J0D01*
G01*
X70209960Y-110366840D01*
G75*
G02*
X70459960Y-110616840I0J-250000D01*
G01*
G37*
G36*
G01*
X63797340Y-119591180D02*
X62547340Y-119591180D01*
G75*
G02*
X62297340Y-119341180I0J250000D01*
G01*
X62297340Y-118416180D01*
G75*
G02*
X62547340Y-118166180I250000J0D01*
G01*
X63797340Y-118166180D01*
G75*
G02*
X64047340Y-118416180I0J-250000D01*
G01*
X64047340Y-119341180D01*
G75*
G02*
X63797340Y-119591180I-250000J0D01*
G01*
G37*
G36*
G01*
X63797340Y-116616180D02*
X62547340Y-116616180D01*
G75*
G02*
X62297340Y-116366180I0J250000D01*
G01*
X62297340Y-115441180D01*
G75*
G02*
X62547340Y-115191180I250000J0D01*
G01*
X63797340Y-115191180D01*
G75*
G02*
X64047340Y-115441180I0J-250000D01*
G01*
X64047340Y-116366180D01*
G75*
G02*
X63797340Y-116616180I-250000J0D01*
G01*
G37*
G36*
G01*
X84475000Y-118300000D02*
X84475000Y-117050000D01*
G75*
G02*
X84725000Y-116800000I250000J0D01*
G01*
X85650000Y-116800000D01*
G75*
G02*
X85900000Y-117050000I0J-250000D01*
G01*
X85900000Y-118300000D01*
G75*
G02*
X85650000Y-118550000I-250000J0D01*
G01*
X84725000Y-118550000D01*
G75*
G02*
X84475000Y-118300000I0J250000D01*
G01*
G37*
G36*
G01*
X87450000Y-118300000D02*
X87450000Y-117050000D01*
G75*
G02*
X87700000Y-116800000I250000J0D01*
G01*
X88625000Y-116800000D01*
G75*
G02*
X88875000Y-117050000I0J-250000D01*
G01*
X88875000Y-118300000D01*
G75*
G02*
X88625000Y-118550000I-250000J0D01*
G01*
X87700000Y-118550000D01*
G75*
G02*
X87450000Y-118300000I0J250000D01*
G01*
G37*
G36*
G01*
X49750000Y-120875000D02*
X51000000Y-120875000D01*
G75*
G02*
X51250000Y-121125000I0J-250000D01*
G01*
X51250000Y-122050000D01*
G75*
G02*
X51000000Y-122300000I-250000J0D01*
G01*
X49750000Y-122300000D01*
G75*
G02*
X49500000Y-122050000I0J250000D01*
G01*
X49500000Y-121125000D01*
G75*
G02*
X49750000Y-120875000I250000J0D01*
G01*
G37*
G36*
G01*
X49750000Y-117900000D02*
X51000000Y-117900000D01*
G75*
G02*
X51250000Y-118150000I0J-250000D01*
G01*
X51250000Y-119075000D01*
G75*
G02*
X51000000Y-119325000I-250000J0D01*
G01*
X49750000Y-119325000D01*
G75*
G02*
X49500000Y-119075000I0J250000D01*
G01*
X49500000Y-118150000D01*
G75*
G02*
X49750000Y-117900000I250000J0D01*
G01*
G37*
G36*
G01*
X111574420Y-110433760D02*
X112824420Y-110433760D01*
G75*
G02*
X113074420Y-110683760I0J-250000D01*
G01*
X113074420Y-111608760D01*
G75*
G02*
X112824420Y-111858760I-250000J0D01*
G01*
X111574420Y-111858760D01*
G75*
G02*
X111324420Y-111608760I0J250000D01*
G01*
X111324420Y-110683760D01*
G75*
G02*
X111574420Y-110433760I250000J0D01*
G01*
G37*
G36*
G01*
X111574420Y-113408760D02*
X112824420Y-113408760D01*
G75*
G02*
X113074420Y-113658760I0J-250000D01*
G01*
X113074420Y-114583760D01*
G75*
G02*
X112824420Y-114833760I-250000J0D01*
G01*
X111574420Y-114833760D01*
G75*
G02*
X111324420Y-114583760I0J250000D01*
G01*
X111324420Y-113658760D01*
G75*
G02*
X111574420Y-113408760I250000J0D01*
G01*
G37*
G36*
G01*
X117454840Y-125750680D02*
X116204840Y-125750680D01*
G75*
G02*
X115954840Y-125500680I0J250000D01*
G01*
X115954840Y-124575680D01*
G75*
G02*
X116204840Y-124325680I250000J0D01*
G01*
X117454840Y-124325680D01*
G75*
G02*
X117704840Y-124575680I0J-250000D01*
G01*
X117704840Y-125500680D01*
G75*
G02*
X117454840Y-125750680I-250000J0D01*
G01*
G37*
G36*
G01*
X117454840Y-122775680D02*
X116204840Y-122775680D01*
G75*
G02*
X115954840Y-122525680I0J250000D01*
G01*
X115954840Y-121600680D01*
G75*
G02*
X116204840Y-121350680I250000J0D01*
G01*
X117454840Y-121350680D01*
G75*
G02*
X117704840Y-121600680I0J-250000D01*
G01*
X117704840Y-122525680D01*
G75*
G02*
X117454840Y-122775680I-250000J0D01*
G01*
G37*
G36*
G01*
X63749080Y-122260060D02*
X62499080Y-122260060D01*
G75*
G02*
X62249080Y-122010060I0J250000D01*
G01*
X62249080Y-121085060D01*
G75*
G02*
X62499080Y-120835060I250000J0D01*
G01*
X63749080Y-120835060D01*
G75*
G02*
X63999080Y-121085060I0J-250000D01*
G01*
X63999080Y-122010060D01*
G75*
G02*
X63749080Y-122260060I-250000J0D01*
G01*
G37*
G36*
G01*
X63749080Y-125235060D02*
X62499080Y-125235060D01*
G75*
G02*
X62249080Y-124985060I0J250000D01*
G01*
X62249080Y-124060060D01*
G75*
G02*
X62499080Y-123810060I250000J0D01*
G01*
X63749080Y-123810060D01*
G75*
G02*
X63999080Y-124060060I0J-250000D01*
G01*
X63999080Y-124985060D01*
G75*
G02*
X63749080Y-125235060I-250000J0D01*
G01*
G37*
M02*
