G04 #@! TF.GenerationSoftware,KiCad,Pcbnew,(5.1.9)-1*
G04 #@! TF.CreationDate,2021-02-21T15:44:03+01:00*
G04 #@! TF.ProjectId,vfo-pcb,76666f2d-7063-4622-9e6b-696361645f70,rev?*
G04 #@! TF.SameCoordinates,Original*
G04 #@! TF.FileFunction,Paste,Bot*
G04 #@! TF.FilePolarity,Positive*
%FSLAX46Y46*%
G04 Gerber Fmt 4.6, Leading zero omitted, Abs format (unit mm)*
G04 Created by KiCad (PCBNEW (5.1.9)-1) date 2021-02-21 15:44:03*
%MOMM*%
%LPD*%
G01*
G04 APERTURE LIST*
%ADD10R,1.800000X3.600000*%
G04 APERTURE END LIST*
G36*
G01*
X98435000Y-83525000D02*
X99685000Y-83525000D01*
G75*
G02*
X99935000Y-83775000I0J-250000D01*
G01*
X99935000Y-84700000D01*
G75*
G02*
X99685000Y-84950000I-250000J0D01*
G01*
X98435000Y-84950000D01*
G75*
G02*
X98185000Y-84700000I0J250000D01*
G01*
X98185000Y-83775000D01*
G75*
G02*
X98435000Y-83525000I250000J0D01*
G01*
G37*
G36*
G01*
X98435000Y-86500000D02*
X99685000Y-86500000D01*
G75*
G02*
X99935000Y-86750000I0J-250000D01*
G01*
X99935000Y-87675000D01*
G75*
G02*
X99685000Y-87925000I-250000J0D01*
G01*
X98435000Y-87925000D01*
G75*
G02*
X98185000Y-87675000I0J250000D01*
G01*
X98185000Y-86750000D01*
G75*
G02*
X98435000Y-86500000I250000J0D01*
G01*
G37*
G36*
G01*
X133772000Y-83449000D02*
X133772000Y-84699000D01*
G75*
G02*
X133522000Y-84949000I-250000J0D01*
G01*
X132597000Y-84949000D01*
G75*
G02*
X132347000Y-84699000I0J250000D01*
G01*
X132347000Y-83449000D01*
G75*
G02*
X132597000Y-83199000I250000J0D01*
G01*
X133522000Y-83199000D01*
G75*
G02*
X133772000Y-83449000I0J-250000D01*
G01*
G37*
G36*
G01*
X130797000Y-83449000D02*
X130797000Y-84699000D01*
G75*
G02*
X130547000Y-84949000I-250000J0D01*
G01*
X129622000Y-84949000D01*
G75*
G02*
X129372000Y-84699000I0J250000D01*
G01*
X129372000Y-83449000D01*
G75*
G02*
X129622000Y-83199000I250000J0D01*
G01*
X130547000Y-83199000D01*
G75*
G02*
X130797000Y-83449000I0J-250000D01*
G01*
G37*
D10*
X144962000Y-106172000D03*
X135962000Y-106172000D03*
G36*
G01*
X102245000Y-86500000D02*
X103495000Y-86500000D01*
G75*
G02*
X103745000Y-86750000I0J-250000D01*
G01*
X103745000Y-87675000D01*
G75*
G02*
X103495000Y-87925000I-250000J0D01*
G01*
X102245000Y-87925000D01*
G75*
G02*
X101995000Y-87675000I0J250000D01*
G01*
X101995000Y-86750000D01*
G75*
G02*
X102245000Y-86500000I250000J0D01*
G01*
G37*
G36*
G01*
X102245000Y-83525000D02*
X103495000Y-83525000D01*
G75*
G02*
X103745000Y-83775000I0J-250000D01*
G01*
X103745000Y-84700000D01*
G75*
G02*
X103495000Y-84950000I-250000J0D01*
G01*
X102245000Y-84950000D01*
G75*
G02*
X101995000Y-84700000I0J250000D01*
G01*
X101995000Y-83775000D01*
G75*
G02*
X102245000Y-83525000I250000J0D01*
G01*
G37*
G36*
G01*
X46156720Y-85727840D02*
X47406720Y-85727840D01*
G75*
G02*
X47656720Y-85977840I0J-250000D01*
G01*
X47656720Y-86902840D01*
G75*
G02*
X47406720Y-87152840I-250000J0D01*
G01*
X46156720Y-87152840D01*
G75*
G02*
X45906720Y-86902840I0J250000D01*
G01*
X45906720Y-85977840D01*
G75*
G02*
X46156720Y-85727840I250000J0D01*
G01*
G37*
G36*
G01*
X46156720Y-82752840D02*
X47406720Y-82752840D01*
G75*
G02*
X47656720Y-83002840I0J-250000D01*
G01*
X47656720Y-83927840D01*
G75*
G02*
X47406720Y-84177840I-250000J0D01*
G01*
X46156720Y-84177840D01*
G75*
G02*
X45906720Y-83927840I0J250000D01*
G01*
X45906720Y-83002840D01*
G75*
G02*
X46156720Y-82752840I250000J0D01*
G01*
G37*
G36*
G01*
X103581360Y-78625400D02*
X102331360Y-78625400D01*
G75*
G02*
X102081360Y-78375400I0J250000D01*
G01*
X102081360Y-77450400D01*
G75*
G02*
X102331360Y-77200400I250000J0D01*
G01*
X103581360Y-77200400D01*
G75*
G02*
X103831360Y-77450400I0J-250000D01*
G01*
X103831360Y-78375400D01*
G75*
G02*
X103581360Y-78625400I-250000J0D01*
G01*
G37*
G36*
G01*
X103581360Y-81600400D02*
X102331360Y-81600400D01*
G75*
G02*
X102081360Y-81350400I0J250000D01*
G01*
X102081360Y-80425400D01*
G75*
G02*
X102331360Y-80175400I250000J0D01*
G01*
X103581360Y-80175400D01*
G75*
G02*
X103831360Y-80425400I0J-250000D01*
G01*
X103831360Y-81350400D01*
G75*
G02*
X103581360Y-81600400I-250000J0D01*
G01*
G37*
G36*
G01*
X99710400Y-81600400D02*
X98460400Y-81600400D01*
G75*
G02*
X98210400Y-81350400I0J250000D01*
G01*
X98210400Y-80425400D01*
G75*
G02*
X98460400Y-80175400I250000J0D01*
G01*
X99710400Y-80175400D01*
G75*
G02*
X99960400Y-80425400I0J-250000D01*
G01*
X99960400Y-81350400D01*
G75*
G02*
X99710400Y-81600400I-250000J0D01*
G01*
G37*
G36*
G01*
X99710400Y-78625400D02*
X98460400Y-78625400D01*
G75*
G02*
X98210400Y-78375400I0J250000D01*
G01*
X98210400Y-77450400D01*
G75*
G02*
X98460400Y-77200400I250000J0D01*
G01*
X99710400Y-77200400D01*
G75*
G02*
X99960400Y-77450400I0J-250000D01*
G01*
X99960400Y-78375400D01*
G75*
G02*
X99710400Y-78625400I-250000J0D01*
G01*
G37*
M02*
