G04 #@! TF.GenerationSoftware,KiCad,Pcbnew,(5.1.9)-1*
G04 #@! TF.CreationDate,2021-02-21T15:44:03+01:00*
G04 #@! TF.ProjectId,vfo-pcb,76666f2d-7063-4622-9e6b-696361645f70,rev?*
G04 #@! TF.SameCoordinates,Original*
G04 #@! TF.FileFunction,Soldermask,Bot*
G04 #@! TF.FilePolarity,Negative*
%FSLAX46Y46*%
G04 Gerber Fmt 4.6, Leading zero omitted, Abs format (unit mm)*
G04 Created by KiCad (PCBNEW (5.1.9)-1) date 2021-02-21 15:44:03*
%MOMM*%
%LPD*%
G01*
G04 APERTURE LIST*
%ADD10O,1.275000X1.800000*%
%ADD11R,1.275000X1.800000*%
%ADD12O,3.500000X3.500000*%
%ADD13R,1.800000X3.600000*%
%ADD14O,2.200000X2.200000*%
%ADD15R,2.200000X2.200000*%
%ADD16C,2.000000*%
%ADD17R,2.000000X2.000000*%
%ADD18C,3.200000*%
%ADD19R,1.700000X1.700000*%
%ADD20O,1.700000X1.700000*%
%ADD21R,2.800000X2.800000*%
%ADD22C,2.800000*%
%ADD23R,3.200000X2.000000*%
%ADD24C,2.050000*%
%ADD25C,2.250000*%
G04 APERTURE END LIST*
G36*
G01*
X98435000Y-83525000D02*
X99685000Y-83525000D01*
G75*
G02*
X99935000Y-83775000I0J-250000D01*
G01*
X99935000Y-84700000D01*
G75*
G02*
X99685000Y-84950000I-250000J0D01*
G01*
X98435000Y-84950000D01*
G75*
G02*
X98185000Y-84700000I0J250000D01*
G01*
X98185000Y-83775000D01*
G75*
G02*
X98435000Y-83525000I250000J0D01*
G01*
G37*
G36*
G01*
X98435000Y-86500000D02*
X99685000Y-86500000D01*
G75*
G02*
X99935000Y-86750000I0J-250000D01*
G01*
X99935000Y-87675000D01*
G75*
G02*
X99685000Y-87925000I-250000J0D01*
G01*
X98435000Y-87925000D01*
G75*
G02*
X98185000Y-87675000I0J250000D01*
G01*
X98185000Y-86750000D01*
G75*
G02*
X98435000Y-86500000I250000J0D01*
G01*
G37*
G36*
G01*
X133772000Y-83449000D02*
X133772000Y-84699000D01*
G75*
G02*
X133522000Y-84949000I-250000J0D01*
G01*
X132597000Y-84949000D01*
G75*
G02*
X132347000Y-84699000I0J250000D01*
G01*
X132347000Y-83449000D01*
G75*
G02*
X132597000Y-83199000I250000J0D01*
G01*
X133522000Y-83199000D01*
G75*
G02*
X133772000Y-83449000I0J-250000D01*
G01*
G37*
G36*
G01*
X130797000Y-83449000D02*
X130797000Y-84699000D01*
G75*
G02*
X130547000Y-84949000I-250000J0D01*
G01*
X129622000Y-84949000D01*
G75*
G02*
X129372000Y-84699000I0J250000D01*
G01*
X129372000Y-83449000D01*
G75*
G02*
X129622000Y-83199000I250000J0D01*
G01*
X130547000Y-83199000D01*
G75*
G02*
X130797000Y-83449000I0J-250000D01*
G01*
G37*
D10*
X136710000Y-99060000D03*
X138410000Y-99060000D03*
X140110000Y-99060000D03*
X141810000Y-99060000D03*
D11*
X143510000Y-99060000D03*
D12*
X140110000Y-115720000D03*
D13*
X144962000Y-106172000D03*
X135962000Y-106172000D03*
D14*
X132080000Y-109220000D03*
D15*
X132080000Y-99060000D03*
D16*
X147356000Y-88282000D03*
D17*
X142356000Y-88282000D03*
D16*
X135136000Y-88282000D03*
D17*
X130136000Y-88282000D03*
D18*
X147005040Y-56022240D03*
X45968920Y-128361440D03*
X46248320Y-56022240D03*
X147096480Y-128361440D03*
X57171360Y-105094520D03*
X124871360Y-105094520D03*
X124871360Y-68374520D03*
X57171360Y-68374520D03*
D19*
X57713880Y-62047120D03*
D20*
X60253880Y-62047120D03*
X62793880Y-62047120D03*
X65333880Y-62047120D03*
X67873880Y-62047120D03*
X70413880Y-62047120D03*
X72953880Y-62047120D03*
X112323880Y-98983800D03*
X109783880Y-98983800D03*
X107243880Y-98983800D03*
X104703880Y-98983800D03*
X102163880Y-98983800D03*
X99623880Y-98983800D03*
X97083880Y-98983800D03*
X94543880Y-98983800D03*
X92003880Y-98983800D03*
X89463880Y-98983800D03*
X86923880Y-98983800D03*
X84383880Y-98983800D03*
X81843880Y-98983800D03*
X79303880Y-98983800D03*
X76763880Y-98983800D03*
X74223880Y-98983800D03*
X71683880Y-98983800D03*
X69143880Y-98983800D03*
D19*
X66603880Y-98983800D03*
X66603880Y-73983800D03*
D20*
X69143880Y-73983800D03*
X71683880Y-73983800D03*
X74223880Y-73983800D03*
X76763880Y-73983800D03*
X79303880Y-73983800D03*
X81843880Y-73983800D03*
X84383880Y-73983800D03*
X86923880Y-73983800D03*
X89463880Y-73983800D03*
X92003880Y-73983800D03*
X94543880Y-73983800D03*
X97083880Y-73983800D03*
X99623880Y-73983800D03*
X102163880Y-73983800D03*
X104703880Y-73983800D03*
X107243880Y-73983800D03*
X109783880Y-73983800D03*
X112323880Y-73983800D03*
D21*
X104546400Y-59598560D03*
D22*
X109546400Y-59598560D03*
X84908400Y-59598560D03*
D21*
X79908400Y-59598560D03*
D19*
X52161440Y-103235760D03*
D20*
X52161440Y-100695760D03*
X52161440Y-98155760D03*
X52161440Y-95615760D03*
X52161440Y-93075760D03*
X52161440Y-90535760D03*
X52161440Y-87995760D03*
X52161440Y-85455760D03*
X52161440Y-82915760D03*
X52161440Y-80375760D03*
X52161440Y-77835760D03*
X52161440Y-75295760D03*
X52161440Y-72755760D03*
X52161440Y-70215760D03*
D17*
X144327880Y-69936360D03*
D16*
X144327880Y-72436360D03*
X144327880Y-74936360D03*
D23*
X136827880Y-66836360D03*
X136827880Y-78036360D03*
D16*
X129827880Y-69936360D03*
X129827880Y-74936360D03*
D22*
X97572840Y-59598560D03*
D21*
X92572840Y-59598560D03*
X117698520Y-59700160D03*
D22*
X122698520Y-59700160D03*
D19*
X74792840Y-68991480D03*
D20*
X77332840Y-68991480D03*
X79872840Y-68991480D03*
X82412840Y-68991480D03*
X84952840Y-68991480D03*
X87492840Y-68991480D03*
X90032840Y-68991480D03*
G36*
G01*
X102245000Y-86500000D02*
X103495000Y-86500000D01*
G75*
G02*
X103745000Y-86750000I0J-250000D01*
G01*
X103745000Y-87675000D01*
G75*
G02*
X103495000Y-87925000I-250000J0D01*
G01*
X102245000Y-87925000D01*
G75*
G02*
X101995000Y-87675000I0J250000D01*
G01*
X101995000Y-86750000D01*
G75*
G02*
X102245000Y-86500000I250000J0D01*
G01*
G37*
G36*
G01*
X102245000Y-83525000D02*
X103495000Y-83525000D01*
G75*
G02*
X103745000Y-83775000I0J-250000D01*
G01*
X103745000Y-84700000D01*
G75*
G02*
X103495000Y-84950000I-250000J0D01*
G01*
X102245000Y-84950000D01*
G75*
G02*
X101995000Y-84700000I0J250000D01*
G01*
X101995000Y-83775000D01*
G75*
G02*
X102245000Y-83525000I250000J0D01*
G01*
G37*
G36*
G01*
X46156720Y-85727840D02*
X47406720Y-85727840D01*
G75*
G02*
X47656720Y-85977840I0J-250000D01*
G01*
X47656720Y-86902840D01*
G75*
G02*
X47406720Y-87152840I-250000J0D01*
G01*
X46156720Y-87152840D01*
G75*
G02*
X45906720Y-86902840I0J250000D01*
G01*
X45906720Y-85977840D01*
G75*
G02*
X46156720Y-85727840I250000J0D01*
G01*
G37*
G36*
G01*
X46156720Y-82752840D02*
X47406720Y-82752840D01*
G75*
G02*
X47656720Y-83002840I0J-250000D01*
G01*
X47656720Y-83927840D01*
G75*
G02*
X47406720Y-84177840I-250000J0D01*
G01*
X46156720Y-84177840D01*
G75*
G02*
X45906720Y-83927840I0J250000D01*
G01*
X45906720Y-83002840D01*
G75*
G02*
X46156720Y-82752840I250000J0D01*
G01*
G37*
G36*
G01*
X103581360Y-78625400D02*
X102331360Y-78625400D01*
G75*
G02*
X102081360Y-78375400I0J250000D01*
G01*
X102081360Y-77450400D01*
G75*
G02*
X102331360Y-77200400I250000J0D01*
G01*
X103581360Y-77200400D01*
G75*
G02*
X103831360Y-77450400I0J-250000D01*
G01*
X103831360Y-78375400D01*
G75*
G02*
X103581360Y-78625400I-250000J0D01*
G01*
G37*
G36*
G01*
X103581360Y-81600400D02*
X102331360Y-81600400D01*
G75*
G02*
X102081360Y-81350400I0J250000D01*
G01*
X102081360Y-80425400D01*
G75*
G02*
X102331360Y-80175400I250000J0D01*
G01*
X103581360Y-80175400D01*
G75*
G02*
X103831360Y-80425400I0J-250000D01*
G01*
X103831360Y-81350400D01*
G75*
G02*
X103581360Y-81600400I-250000J0D01*
G01*
G37*
G36*
G01*
X99710400Y-81600400D02*
X98460400Y-81600400D01*
G75*
G02*
X98210400Y-81350400I0J250000D01*
G01*
X98210400Y-80425400D01*
G75*
G02*
X98460400Y-80175400I250000J0D01*
G01*
X99710400Y-80175400D01*
G75*
G02*
X99960400Y-80425400I0J-250000D01*
G01*
X99960400Y-81350400D01*
G75*
G02*
X99710400Y-81600400I-250000J0D01*
G01*
G37*
G36*
G01*
X99710400Y-78625400D02*
X98460400Y-78625400D01*
G75*
G02*
X98210400Y-78375400I0J250000D01*
G01*
X98210400Y-77450400D01*
G75*
G02*
X98460400Y-77200400I250000J0D01*
G01*
X99710400Y-77200400D01*
G75*
G02*
X99960400Y-77450400I0J-250000D01*
G01*
X99960400Y-78375400D01*
G75*
G02*
X99710400Y-78625400I-250000J0D01*
G01*
G37*
D24*
X123489720Y-125712220D03*
D25*
X126029720Y-128252220D03*
X126029720Y-123172220D03*
X120949720Y-123172220D03*
X120949720Y-128252220D03*
D24*
X111114840Y-125712220D03*
D25*
X113654840Y-128252220D03*
X113654840Y-123172220D03*
X108574840Y-123172220D03*
X108574840Y-128252220D03*
D24*
X97025000Y-125750000D03*
D25*
X99565000Y-128290000D03*
X99565000Y-123210000D03*
X94485000Y-123210000D03*
X94485000Y-128290000D03*
X80465168Y-128252220D03*
X80465168Y-123172220D03*
X85545168Y-123172220D03*
X85545168Y-128252220D03*
D24*
X83005168Y-125712220D03*
D25*
X67044824Y-128252220D03*
X67044824Y-123172220D03*
X72124824Y-123172220D03*
X72124824Y-128252220D03*
D24*
X69584824Y-125712220D03*
D25*
X54102000Y-128270000D03*
X54102000Y-123190000D03*
X59182000Y-123190000D03*
X59182000Y-128270000D03*
D24*
X56642000Y-125730000D03*
M02*
