G04 #@! TF.GenerationSoftware,KiCad,Pcbnew,(5.1.9)-1*
G04 #@! TF.CreationDate,2021-02-21T15:44:03+01:00*
G04 #@! TF.ProjectId,vfo-pcb,76666f2d-7063-4622-9e6b-696361645f70,rev?*
G04 #@! TF.SameCoordinates,Original*
G04 #@! TF.FileFunction,Legend,Bot*
G04 #@! TF.FilePolarity,Positive*
%FSLAX46Y46*%
G04 Gerber Fmt 4.6, Leading zero omitted, Abs format (unit mm)*
G04 Created by KiCad (PCBNEW (5.1.9)-1) date 2021-02-21 15:44:03*
%MOMM*%
%LPD*%
G01*
G04 APERTURE LIST*
%ADD10C,0.120000*%
%ADD11C,0.150000*%
G04 APERTURE END LIST*
D10*
X69997320Y-65669160D02*
X120035320Y-65659000D01*
X70025260Y-105669080D02*
X69997320Y-65669160D01*
X120025160Y-105681780D02*
X70025260Y-105669080D01*
X120025160Y-105674160D02*
X120032780Y-65660880D01*
X50233580Y-108064300D02*
X50251360Y-65374520D01*
X127106680Y-108036360D02*
X50228500Y-108059220D01*
X127126720Y-65318640D02*
X127106400Y-108036360D01*
X50251360Y-65374520D02*
X127124460Y-65318640D01*
X99970000Y-85122936D02*
X99970000Y-86327064D01*
X98150000Y-85122936D02*
X98150000Y-86327064D01*
X132174064Y-84984000D02*
X130969936Y-84984000D01*
X132174064Y-83164000D02*
X130969936Y-83164000D01*
X138662000Y-111372000D02*
X135462000Y-108172000D01*
X138662000Y-111372000D02*
X142262000Y-111372000D01*
X138662000Y-100972000D02*
X135462000Y-104172000D01*
X142262000Y-100972000D02*
X138662000Y-100972000D01*
X142262000Y-100972000D02*
X145462000Y-104172000D01*
X142262000Y-111372000D02*
X145462000Y-108172000D01*
X52161440Y-104565760D02*
X53491440Y-104565760D01*
X53491440Y-104565760D02*
X53491440Y-103235760D01*
X53491440Y-101965760D02*
X53491440Y-68885760D01*
X50831440Y-68885760D02*
X53491440Y-68885760D01*
X50831440Y-101965760D02*
X50831440Y-68885760D01*
X50831440Y-101965760D02*
X53491440Y-101965760D01*
X137327880Y-72436360D02*
X136327880Y-72436360D01*
X136827880Y-71936360D02*
X136827880Y-72936360D01*
X130727880Y-75936360D02*
X130727880Y-78336360D01*
X130727880Y-71136360D02*
X130727880Y-73736360D01*
X130727880Y-66536360D02*
X130727880Y-68936360D01*
X144027880Y-68336360D02*
X144327880Y-68636360D01*
X144627880Y-68336360D02*
X144027880Y-68336360D01*
X144327880Y-68636360D02*
X144627880Y-68336360D01*
X142927880Y-66536360D02*
X142927880Y-78336360D01*
X138827880Y-66536360D02*
X142927880Y-66536360D01*
X138827880Y-78336360D02*
X142927880Y-78336360D01*
X130727880Y-78336360D02*
X134827880Y-78336360D01*
X134827880Y-66536360D02*
X130727880Y-66536360D01*
X139827880Y-72436360D02*
G75*
G03*
X139827880Y-72436360I-3000000J0D01*
G01*
X101960000Y-85122936D02*
X101960000Y-86327064D01*
X103780000Y-85122936D02*
X103780000Y-86327064D01*
X45871720Y-84350776D02*
X45871720Y-85554904D01*
X47691720Y-84350776D02*
X47691720Y-85554904D01*
X103866360Y-80002464D02*
X103866360Y-78798336D01*
X102046360Y-80002464D02*
X102046360Y-78798336D01*
X98175400Y-80002464D02*
X98175400Y-78798336D01*
X99995400Y-80002464D02*
X99995400Y-78798336D01*
D11*
X97692380Y-85082142D02*
X97216190Y-84748809D01*
X97692380Y-84510714D02*
X96692380Y-84510714D01*
X96692380Y-84891666D01*
X96740000Y-84986904D01*
X96787619Y-85034523D01*
X96882857Y-85082142D01*
X97025714Y-85082142D01*
X97120952Y-85034523D01*
X97168571Y-84986904D01*
X97216190Y-84891666D01*
X97216190Y-84510714D01*
X97692380Y-86034523D02*
X97692380Y-85463095D01*
X97692380Y-85748809D02*
X96692380Y-85748809D01*
X96835238Y-85653571D01*
X96930476Y-85558333D01*
X96978095Y-85463095D01*
X96692380Y-86367857D02*
X96692380Y-86986904D01*
X97073333Y-86653571D01*
X97073333Y-86796428D01*
X97120952Y-86891666D01*
X97168571Y-86939285D01*
X97263809Y-86986904D01*
X97501904Y-86986904D01*
X97597142Y-86939285D01*
X97644761Y-86891666D01*
X97692380Y-86796428D01*
X97692380Y-86510714D01*
X97644761Y-86415476D01*
X97597142Y-86367857D01*
X131738666Y-82611142D02*
X131786285Y-82658761D01*
X131929142Y-82706380D01*
X132024380Y-82706380D01*
X132167238Y-82658761D01*
X132262476Y-82563523D01*
X132310095Y-82468285D01*
X132357714Y-82277809D01*
X132357714Y-82134952D01*
X132310095Y-81944476D01*
X132262476Y-81849238D01*
X132167238Y-81754000D01*
X132024380Y-81706380D01*
X131929142Y-81706380D01*
X131786285Y-81754000D01*
X131738666Y-81801619D01*
X131167238Y-82134952D02*
X131262476Y-82087333D01*
X131310095Y-82039714D01*
X131357714Y-81944476D01*
X131357714Y-81896857D01*
X131310095Y-81801619D01*
X131262476Y-81754000D01*
X131167238Y-81706380D01*
X130976761Y-81706380D01*
X130881523Y-81754000D01*
X130833904Y-81801619D01*
X130786285Y-81896857D01*
X130786285Y-81944476D01*
X130833904Y-82039714D01*
X130881523Y-82087333D01*
X130976761Y-82134952D01*
X131167238Y-82134952D01*
X131262476Y-82182571D01*
X131310095Y-82230190D01*
X131357714Y-82325428D01*
X131357714Y-82515904D01*
X131310095Y-82611142D01*
X131262476Y-82658761D01*
X131167238Y-82706380D01*
X130976761Y-82706380D01*
X130881523Y-82658761D01*
X130833904Y-82611142D01*
X130786285Y-82515904D01*
X130786285Y-82325428D01*
X130833904Y-82230190D01*
X130881523Y-82182571D01*
X130976761Y-82134952D01*
X140628666Y-112824380D02*
X141104857Y-112824380D01*
X141104857Y-111824380D01*
X139771523Y-112824380D02*
X140342952Y-112824380D01*
X140057238Y-112824380D02*
X140057238Y-111824380D01*
X140152476Y-111967238D01*
X140247714Y-112062476D01*
X140342952Y-112110095D01*
X52494773Y-105458140D02*
X52494773Y-106172426D01*
X52542392Y-106315283D01*
X52637630Y-106410521D01*
X52780487Y-106458140D01*
X52875725Y-106458140D01*
X51875725Y-105886712D02*
X51970963Y-105839093D01*
X52018582Y-105791474D01*
X52066201Y-105696236D01*
X52066201Y-105648617D01*
X52018582Y-105553379D01*
X51970963Y-105505760D01*
X51875725Y-105458140D01*
X51685249Y-105458140D01*
X51590011Y-105505760D01*
X51542392Y-105553379D01*
X51494773Y-105648617D01*
X51494773Y-105696236D01*
X51542392Y-105791474D01*
X51590011Y-105839093D01*
X51685249Y-105886712D01*
X51875725Y-105886712D01*
X51970963Y-105934331D01*
X52018582Y-105981950D01*
X52066201Y-106077188D01*
X52066201Y-106267664D01*
X52018582Y-106362902D01*
X51970963Y-106410521D01*
X51875725Y-106458140D01*
X51685249Y-106458140D01*
X51590011Y-106410521D01*
X51542392Y-106362902D01*
X51494773Y-106267664D01*
X51494773Y-106077188D01*
X51542392Y-105981950D01*
X51590011Y-105934331D01*
X51685249Y-105886712D01*
X142861213Y-65641121D02*
X142718356Y-65688740D01*
X142480260Y-65688740D01*
X142385022Y-65641121D01*
X142337403Y-65593502D01*
X142289784Y-65498264D01*
X142289784Y-65403026D01*
X142337403Y-65307788D01*
X142385022Y-65260169D01*
X142480260Y-65212550D01*
X142670737Y-65164931D01*
X142765975Y-65117312D01*
X142813594Y-65069693D01*
X142861213Y-64974455D01*
X142861213Y-64879217D01*
X142813594Y-64783979D01*
X142765975Y-64736360D01*
X142670737Y-64688740D01*
X142432641Y-64688740D01*
X142289784Y-64736360D01*
X141956451Y-64688740D02*
X141718356Y-65688740D01*
X141527880Y-64974455D01*
X141337403Y-65688740D01*
X141099308Y-64688740D01*
X140194546Y-65688740D02*
X140765975Y-65688740D01*
X140480260Y-65688740D02*
X140480260Y-64688740D01*
X140575499Y-64831598D01*
X140670737Y-64926836D01*
X140765975Y-64974455D01*
X101502380Y-85082142D02*
X101026190Y-84748809D01*
X101502380Y-84510714D02*
X100502380Y-84510714D01*
X100502380Y-84891666D01*
X100550000Y-84986904D01*
X100597619Y-85034523D01*
X100692857Y-85082142D01*
X100835714Y-85082142D01*
X100930952Y-85034523D01*
X100978571Y-84986904D01*
X101026190Y-84891666D01*
X101026190Y-84510714D01*
X101502380Y-86034523D02*
X101502380Y-85463095D01*
X101502380Y-85748809D02*
X100502380Y-85748809D01*
X100645238Y-85653571D01*
X100740476Y-85558333D01*
X100788095Y-85463095D01*
X101502380Y-86986904D02*
X101502380Y-86415476D01*
X101502380Y-86701190D02*
X100502380Y-86701190D01*
X100645238Y-86605952D01*
X100740476Y-86510714D01*
X100788095Y-86415476D01*
X45414100Y-84786173D02*
X44937910Y-84452840D01*
X45414100Y-84214744D02*
X44414100Y-84214744D01*
X44414100Y-84595697D01*
X44461720Y-84690935D01*
X44509339Y-84738554D01*
X44604577Y-84786173D01*
X44747434Y-84786173D01*
X44842672Y-84738554D01*
X44890291Y-84690935D01*
X44937910Y-84595697D01*
X44937910Y-84214744D01*
X44747434Y-85643316D02*
X45414100Y-85643316D01*
X44366481Y-85405220D02*
X45080767Y-85167125D01*
X45080767Y-85786173D01*
X105228740Y-79233733D02*
X104752550Y-78900400D01*
X105228740Y-78662304D02*
X104228740Y-78662304D01*
X104228740Y-79043257D01*
X104276360Y-79138495D01*
X104323979Y-79186114D01*
X104419217Y-79233733D01*
X104562074Y-79233733D01*
X104657312Y-79186114D01*
X104704931Y-79138495D01*
X104752550Y-79043257D01*
X104752550Y-78662304D01*
X105228740Y-80186114D02*
X105228740Y-79614685D01*
X105228740Y-79900400D02*
X104228740Y-79900400D01*
X104371598Y-79805161D01*
X104466836Y-79709923D01*
X104514455Y-79614685D01*
X101357780Y-79233733D02*
X100881590Y-78900400D01*
X101357780Y-78662304D02*
X100357780Y-78662304D01*
X100357780Y-79043257D01*
X100405400Y-79138495D01*
X100453019Y-79186114D01*
X100548257Y-79233733D01*
X100691114Y-79233733D01*
X100786352Y-79186114D01*
X100833971Y-79138495D01*
X100881590Y-79043257D01*
X100881590Y-78662304D01*
X100453019Y-79614685D02*
X100405400Y-79662304D01*
X100357780Y-79757542D01*
X100357780Y-79995638D01*
X100405400Y-80090876D01*
X100453019Y-80138495D01*
X100548257Y-80186114D01*
X100643495Y-80186114D01*
X100786352Y-80138495D01*
X101357780Y-79567066D01*
X101357780Y-80186114D01*
M02*
