M48
; DRILL file {KiCad (5.1.9)-1} date 05/31/21 22:19:58
; FORMAT={-:-/ absolute / metric / decimal}
; #@! TF.CreationDate,2021-05-31T22:19:58+02:00
; #@! TF.GenerationSoftware,Kicad,Pcbnew,(5.1.9)-1
; #@! TF.FileFunction,Plated,1,4,PTH
FMAT,2
METRIC
T1C0.400
T2C1.000
T3C1.100
T4C1.400
T5C1.500
T6C1.700
%
G90
G05
T1
X47.117Y-107.823
X47.625Y-118.491
X50.292Y-113.538
X51.054Y-110.236
X53.213Y-115.824
X53.848Y-110.236
X56.134Y-115.824
X59.055Y-115.951
X61.214Y-76.835
X63.119Y-121.539
X63.119Y-124.46
X64.225Y-76.835
X64.262Y-112.903
X64.643Y-111.379
X65.024Y-79.375
X66.04Y-92.075
X66.421Y-81.534
X66.548Y-90.805
X66.802Y-89.408
X67.183Y-98.171
X75.438Y-78.105
X76.581Y-82.677
X76.581Y-83.693
X76.581Y-84.582
X76.581Y-85.471
X76.581Y-86.36
X77.216Y-119.38
X77.216Y-122.428
X77.47Y-127.762
X77.597Y-82.677
X77.597Y-83.693
X77.597Y-84.582
X77.597Y-85.471
X77.597Y-86.36
X78.087Y-89.426
X78.105Y-92.456
X78.486Y-82.677
X78.486Y-83.693
X78.486Y-84.582
X78.486Y-85.471
X78.486Y-86.36
X79.375Y-82.677
X79.375Y-83.693
X79.375Y-84.582
X79.375Y-85.471
X79.375Y-86.36
X80.01Y-114.427
X80.391Y-82.677
X80.391Y-83.693
X80.391Y-84.582
X80.391Y-85.471
X80.391Y-86.36
X82.804Y-91.948
X82.931Y-76.708
X83.312Y-67.437
X84.328Y-68.326
X84.709Y-62.992
X85.09Y-69.469
X85.09Y-114.3
X86.36Y-71.501
X86.614Y-95.504
X86.868Y-106.934
X86.868Y-109.855
X88.392Y-114.3
X88.9Y-90.932
X89.191Y-76.835
X89.281Y-92.202
X89.408Y-69.342
X89.408Y-84.328
X89.789Y-107.188
X89.916Y-109.982
X90.551Y-68.199
X91.44Y-126.746
X92.075Y-76.835
X92.202Y-88.773
X92.202Y-91.44
X92.329Y-95.377
X92.964Y-100.076
X93.091Y-103.378
X95.377Y-66.675
X95.377Y-69.596
X96.266Y-109.474
X98.679Y-100.33
X98.806Y-95.758
X98.806Y-97.917
X99.187Y-111.76
X102.398Y-84.709
X102.398Y-87.503
X102.489Y-105.283
X102.631Y-108.178
X104.267Y-67.056
X104.394Y-63.754
X105.156Y-96.901
X105.156Y-98.044
X105.156Y-99.06
X105.41Y-76.581
X105.41Y-79.375
X105.41Y-82.169
X105.41Y-84.582
X105.41Y-87.503
X105.41Y-105.283
X105.41Y-108.167
X107.278Y-66.929
X108.204Y-105.156
X108.204Y-108.167
X108.204Y-117.094
X109.601Y-111.125
X112.141Y-114.173
X112.199Y-111.146
X114.808Y-64.77
X114.808Y-67.437
X115.57Y-81.788
X115.57Y-87.376
X115.57Y-92.71
X116.83Y-122.063
X116.84Y-125.095
X118.872Y-73.533
X121.793Y-73.533
X124.46Y-111.506
X124.714Y-73.533
X127.635Y-117.221
X129.286Y-95.504
X133.096Y-84.074
X144.526Y-95.504
T2
X52.161Y-70.216
X52.161Y-72.756
X52.161Y-75.296
X52.161Y-77.836
X52.161Y-80.376
X52.161Y-82.916
X52.161Y-85.456
X52.161Y-87.996
X52.161Y-90.536
X52.161Y-93.076
X52.161Y-95.616
X52.161Y-98.156
X52.161Y-100.696
X52.161Y-103.236
X59.309Y-58.039
X59.309Y-60.579
X59.817Y-82.169
X59.817Y-84.709
X59.817Y-87.249
X61.849Y-58.039
X61.849Y-60.579
X62.357Y-82.169
X62.357Y-84.709
X62.357Y-87.249
X64.389Y-58.039
X64.389Y-60.579
X66.929Y-58.039
X66.929Y-60.579
X69.469Y-58.039
X69.469Y-60.579
X78.994Y-59.69
X81.534Y-59.69
X84.074Y-59.69
X86.614Y-59.69
X89.154Y-59.69
X91.694Y-59.69
X94.234Y-59.69
X98.679Y-74.549
X98.679Y-77.089
X98.679Y-79.629
X98.679Y-82.169
X98.679Y-84.709
X98.679Y-87.249
X98.679Y-89.789
X102.362Y-59.69
X104.902Y-59.69
X107.442Y-59.69
X108.839Y-74.549
X108.839Y-77.089
X108.839Y-79.629
X108.839Y-82.169
X108.839Y-84.709
X108.839Y-87.249
X108.839Y-89.789
X109.982Y-59.69
X112.522Y-59.69
X115.062Y-59.69
X117.602Y-59.69
X129.828Y-69.936
X129.828Y-74.936
X130.136Y-88.282
X135.136Y-88.282
X142.356Y-88.282
X144.328Y-69.936
X144.328Y-72.436
X144.328Y-74.936
X147.356Y-88.282
T3
X132.08Y-99.06
X132.08Y-109.22
X136.71Y-99.06
X138.41Y-99.06
X140.11Y-99.06
X141.81Y-99.06
X143.51Y-99.06
T4
X134.112Y-59.436
X139.112Y-59.436
T5
X56.642Y-125.73
X69.585Y-125.712
X83.005Y-125.712
X97.025Y-125.75
X111.115Y-125.712
X123.49Y-125.712
T6
X54.102Y-123.19
X54.102Y-128.27
X59.182Y-123.19
X59.182Y-128.27
X67.045Y-123.172
X67.045Y-128.252
X72.125Y-123.172
X72.125Y-128.252
X80.465Y-123.172
X80.465Y-128.252
X85.545Y-123.172
X85.545Y-128.252
X94.485Y-123.21
X94.485Y-128.29
X99.565Y-123.21
X99.565Y-128.29
X108.575Y-123.172
X108.575Y-128.252
X113.655Y-123.172
X113.655Y-128.252
X120.95Y-123.172
X120.95Y-128.252
X126.03Y-123.172
X126.03Y-128.252
T5
G00X137.478Y-66.836
M15
G01X136.178Y-66.836
M16
G05
G00X137.478Y-78.036
M15
G01X136.178Y-78.036
M16
G05
T0
M30
