G04 #@! TF.GenerationSoftware,KiCad,Pcbnew,(5.1.9)-1*
G04 #@! TF.CreationDate,2021-05-31T22:19:56+02:00*
G04 #@! TF.ProjectId,vfo-pcb,76666f2d-7063-4622-9e6b-696361645f70,rev?*
G04 #@! TF.SameCoordinates,Original*
G04 #@! TF.FileFunction,Legend,Bot*
G04 #@! TF.FilePolarity,Positive*
%FSLAX46Y46*%
G04 Gerber Fmt 4.6, Leading zero omitted, Abs format (unit mm)*
G04 Created by KiCad (PCBNEW (5.1.9)-1) date 2021-05-31 22:19:56*
%MOMM*%
%LPD*%
G01*
G04 APERTURE LIST*
%ADD10C,0.120000*%
%ADD11C,0.150000*%
G04 APERTURE END LIST*
D10*
X69997320Y-65669160D02*
X120035320Y-65659000D01*
X70025260Y-105669080D02*
X69997320Y-65669160D01*
X120025160Y-105681780D02*
X70025260Y-105669080D01*
X120025160Y-105674160D02*
X120032780Y-65660880D01*
X50233580Y-108064300D02*
X50251360Y-65374520D01*
X127106680Y-108036360D02*
X50228500Y-108059220D01*
X127126720Y-65318640D02*
X127106400Y-108036360D01*
X50251360Y-65374520D02*
X127124460Y-65318640D01*
X46207000Y-106901064D02*
X46207000Y-105696936D01*
X48027000Y-106901064D02*
X48027000Y-105696936D01*
X52161440Y-104565760D02*
X53491440Y-104565760D01*
X53491440Y-104565760D02*
X53491440Y-103235760D01*
X53491440Y-101965760D02*
X53491440Y-68885760D01*
X50831440Y-68885760D02*
X53491440Y-68885760D01*
X50831440Y-101965760D02*
X50831440Y-68885760D01*
X50831440Y-101965760D02*
X53491440Y-101965760D01*
X104488064Y-83079000D02*
X103283936Y-83079000D01*
X104488064Y-81259000D02*
X103283936Y-81259000D01*
X89662000Y-70583000D02*
X86062000Y-70583000D01*
X89662000Y-70583000D02*
X91862000Y-70583000D01*
X89662000Y-62513000D02*
X87462000Y-62513000D01*
X89662000Y-62513000D02*
X91862000Y-62513000D01*
X94467000Y-67469936D02*
X94467000Y-68674064D01*
X96287000Y-67469936D02*
X96287000Y-68674064D01*
X104488064Y-85619000D02*
X103283936Y-85619000D01*
X104488064Y-83799000D02*
X103283936Y-83799000D01*
X104488064Y-88413000D02*
X103283936Y-88413000D01*
X104488064Y-86593000D02*
X103283936Y-86593000D01*
X104488064Y-80285000D02*
X103283936Y-80285000D01*
X104488064Y-78465000D02*
X103283936Y-78465000D01*
X104488064Y-77491000D02*
X103283936Y-77491000D01*
X104488064Y-75671000D02*
X103283936Y-75671000D01*
X79015000Y-90329936D02*
X79015000Y-91534064D01*
X77195000Y-90329936D02*
X77195000Y-91534064D01*
X132174064Y-84984000D02*
X130969936Y-84984000D01*
X132174064Y-83164000D02*
X130969936Y-83164000D01*
X138662000Y-111372000D02*
X135462000Y-108172000D01*
X138662000Y-111372000D02*
X142262000Y-111372000D01*
X138662000Y-100972000D02*
X135462000Y-104172000D01*
X142262000Y-100972000D02*
X138662000Y-100972000D01*
X142262000Y-100972000D02*
X145462000Y-104172000D01*
X142262000Y-111372000D02*
X145462000Y-108172000D01*
X137327880Y-72436360D02*
X136327880Y-72436360D01*
X136827880Y-71936360D02*
X136827880Y-72936360D01*
X130727880Y-75936360D02*
X130727880Y-78336360D01*
X130727880Y-71136360D02*
X130727880Y-73736360D01*
X130727880Y-66536360D02*
X130727880Y-68936360D01*
X144027880Y-68336360D02*
X144327880Y-68636360D01*
X144627880Y-68336360D02*
X144027880Y-68336360D01*
X144327880Y-68636360D02*
X144627880Y-68336360D01*
X142927880Y-66536360D02*
X142927880Y-78336360D01*
X138827880Y-66536360D02*
X142927880Y-66536360D01*
X138827880Y-78336360D02*
X142927880Y-78336360D01*
X130727880Y-78336360D02*
X134827880Y-78336360D01*
X134827880Y-66536360D02*
X130727880Y-66536360D01*
X139827880Y-72436360D02*
G75*
G03*
X139827880Y-72436360I-3000000J0D01*
G01*
X48281000Y-87597064D02*
X48281000Y-86392936D01*
X46461000Y-87597064D02*
X46461000Y-86392936D01*
D11*
X49294142Y-105656142D02*
X49341761Y-105608523D01*
X49389380Y-105465666D01*
X49389380Y-105370428D01*
X49341761Y-105227571D01*
X49246523Y-105132333D01*
X49151285Y-105084714D01*
X48960809Y-105037095D01*
X48817952Y-105037095D01*
X48627476Y-105084714D01*
X48532238Y-105132333D01*
X48437000Y-105227571D01*
X48389380Y-105370428D01*
X48389380Y-105465666D01*
X48437000Y-105608523D01*
X48484619Y-105656142D01*
X48389380Y-105989476D02*
X48389380Y-106608523D01*
X48770333Y-106275190D01*
X48770333Y-106418047D01*
X48817952Y-106513285D01*
X48865571Y-106560904D01*
X48960809Y-106608523D01*
X49198904Y-106608523D01*
X49294142Y-106560904D01*
X49341761Y-106513285D01*
X49389380Y-106418047D01*
X49389380Y-106132333D01*
X49341761Y-106037095D01*
X49294142Y-105989476D01*
X48389380Y-106941857D02*
X48389380Y-107560904D01*
X48770333Y-107227571D01*
X48770333Y-107370428D01*
X48817952Y-107465666D01*
X48865571Y-107513285D01*
X48960809Y-107560904D01*
X49198904Y-107560904D01*
X49294142Y-107513285D01*
X49341761Y-107465666D01*
X49389380Y-107370428D01*
X49389380Y-107084714D01*
X49341761Y-106989476D01*
X49294142Y-106941857D01*
X52970963Y-105458140D02*
X52970963Y-106172426D01*
X53018582Y-106315283D01*
X53113820Y-106410521D01*
X53256678Y-106458140D01*
X53351916Y-106458140D01*
X51970963Y-106458140D02*
X52542392Y-106458140D01*
X52256678Y-106458140D02*
X52256678Y-105458140D01*
X52351916Y-105600998D01*
X52447154Y-105696236D01*
X52542392Y-105743855D01*
X51590011Y-105553379D02*
X51542392Y-105505760D01*
X51447154Y-105458140D01*
X51209059Y-105458140D01*
X51113820Y-105505760D01*
X51066201Y-105553379D01*
X51018582Y-105648617D01*
X51018582Y-105743855D01*
X51066201Y-105886712D01*
X51637630Y-106458140D01*
X51018582Y-106458140D01*
X104528857Y-80706142D02*
X104576476Y-80753761D01*
X104719333Y-80801380D01*
X104814571Y-80801380D01*
X104957428Y-80753761D01*
X105052666Y-80658523D01*
X105100285Y-80563285D01*
X105147904Y-80372809D01*
X105147904Y-80229952D01*
X105100285Y-80039476D01*
X105052666Y-79944238D01*
X104957428Y-79849000D01*
X104814571Y-79801380D01*
X104719333Y-79801380D01*
X104576476Y-79849000D01*
X104528857Y-79896619D01*
X104147904Y-79896619D02*
X104100285Y-79849000D01*
X104005047Y-79801380D01*
X103766952Y-79801380D01*
X103671714Y-79849000D01*
X103624095Y-79896619D01*
X103576476Y-79991857D01*
X103576476Y-80087095D01*
X103624095Y-80229952D01*
X104195523Y-80801380D01*
X103576476Y-80801380D01*
X103243142Y-79801380D02*
X102576476Y-79801380D01*
X103005047Y-80801380D01*
X90423904Y-70850380D02*
X90423904Y-71659904D01*
X90376285Y-71755142D01*
X90328666Y-71802761D01*
X90233428Y-71850380D01*
X90042952Y-71850380D01*
X89947714Y-71802761D01*
X89900095Y-71755142D01*
X89852476Y-71659904D01*
X89852476Y-70850380D01*
X89471523Y-70850380D02*
X88852476Y-70850380D01*
X89185809Y-71231333D01*
X89042952Y-71231333D01*
X88947714Y-71278952D01*
X88900095Y-71326571D01*
X88852476Y-71421809D01*
X88852476Y-71659904D01*
X88900095Y-71755142D01*
X88947714Y-71802761D01*
X89042952Y-71850380D01*
X89328666Y-71850380D01*
X89423904Y-71802761D01*
X89471523Y-71755142D01*
X93914142Y-67429142D02*
X93961761Y-67381523D01*
X94009380Y-67238666D01*
X94009380Y-67143428D01*
X93961761Y-67000571D01*
X93866523Y-66905333D01*
X93771285Y-66857714D01*
X93580809Y-66810095D01*
X93437952Y-66810095D01*
X93247476Y-66857714D01*
X93152238Y-66905333D01*
X93057000Y-67000571D01*
X93009380Y-67143428D01*
X93009380Y-67238666D01*
X93057000Y-67381523D01*
X93104619Y-67429142D01*
X94009380Y-68381523D02*
X94009380Y-67810095D01*
X94009380Y-68095809D02*
X93009380Y-68095809D01*
X93152238Y-68000571D01*
X93247476Y-67905333D01*
X93295095Y-67810095D01*
X93009380Y-68714857D02*
X93009380Y-69333904D01*
X93390333Y-69000571D01*
X93390333Y-69143428D01*
X93437952Y-69238666D01*
X93485571Y-69286285D01*
X93580809Y-69333904D01*
X93818904Y-69333904D01*
X93914142Y-69286285D01*
X93961761Y-69238666D01*
X94009380Y-69143428D01*
X94009380Y-68857714D01*
X93961761Y-68762476D01*
X93914142Y-68714857D01*
X104528857Y-83246142D02*
X104576476Y-83293761D01*
X104719333Y-83341380D01*
X104814571Y-83341380D01*
X104957428Y-83293761D01*
X105052666Y-83198523D01*
X105100285Y-83103285D01*
X105147904Y-82912809D01*
X105147904Y-82769952D01*
X105100285Y-82579476D01*
X105052666Y-82484238D01*
X104957428Y-82389000D01*
X104814571Y-82341380D01*
X104719333Y-82341380D01*
X104576476Y-82389000D01*
X104528857Y-82436619D01*
X104147904Y-82436619D02*
X104100285Y-82389000D01*
X104005047Y-82341380D01*
X103766952Y-82341380D01*
X103671714Y-82389000D01*
X103624095Y-82436619D01*
X103576476Y-82531857D01*
X103576476Y-82627095D01*
X103624095Y-82769952D01*
X104195523Y-83341380D01*
X103576476Y-83341380D01*
X103100285Y-83341380D02*
X102909809Y-83341380D01*
X102814571Y-83293761D01*
X102766952Y-83246142D01*
X102671714Y-83103285D01*
X102624095Y-82912809D01*
X102624095Y-82531857D01*
X102671714Y-82436619D01*
X102719333Y-82389000D01*
X102814571Y-82341380D01*
X103005047Y-82341380D01*
X103100285Y-82389000D01*
X103147904Y-82436619D01*
X103195523Y-82531857D01*
X103195523Y-82769952D01*
X103147904Y-82865190D01*
X103100285Y-82912809D01*
X103005047Y-82960428D01*
X102814571Y-82960428D01*
X102719333Y-82912809D01*
X102671714Y-82865190D01*
X102624095Y-82769952D01*
X104376457Y-89892142D02*
X104424076Y-89939761D01*
X104566933Y-89987380D01*
X104662171Y-89987380D01*
X104805028Y-89939761D01*
X104900266Y-89844523D01*
X104947885Y-89749285D01*
X104995504Y-89558809D01*
X104995504Y-89415952D01*
X104947885Y-89225476D01*
X104900266Y-89130238D01*
X104805028Y-89035000D01*
X104662171Y-88987380D01*
X104566933Y-88987380D01*
X104424076Y-89035000D01*
X104376457Y-89082619D01*
X103995504Y-89082619D02*
X103947885Y-89035000D01*
X103852647Y-88987380D01*
X103614552Y-88987380D01*
X103519314Y-89035000D01*
X103471695Y-89082619D01*
X103424076Y-89177857D01*
X103424076Y-89273095D01*
X103471695Y-89415952D01*
X104043123Y-89987380D01*
X103424076Y-89987380D01*
X102852647Y-89415952D02*
X102947885Y-89368333D01*
X102995504Y-89320714D01*
X103043123Y-89225476D01*
X103043123Y-89177857D01*
X102995504Y-89082619D01*
X102947885Y-89035000D01*
X102852647Y-88987380D01*
X102662171Y-88987380D01*
X102566933Y-89035000D01*
X102519314Y-89082619D01*
X102471695Y-89177857D01*
X102471695Y-89225476D01*
X102519314Y-89320714D01*
X102566933Y-89368333D01*
X102662171Y-89415952D01*
X102852647Y-89415952D01*
X102947885Y-89463571D01*
X102995504Y-89511190D01*
X103043123Y-89606428D01*
X103043123Y-89796904D01*
X102995504Y-89892142D01*
X102947885Y-89939761D01*
X102852647Y-89987380D01*
X102662171Y-89987380D01*
X102566933Y-89939761D01*
X102519314Y-89892142D01*
X102471695Y-89796904D01*
X102471695Y-89606428D01*
X102519314Y-89511190D01*
X102566933Y-89463571D01*
X102662171Y-89415952D01*
X104528857Y-77912142D02*
X104576476Y-77959761D01*
X104719333Y-78007380D01*
X104814571Y-78007380D01*
X104957428Y-77959761D01*
X105052666Y-77864523D01*
X105100285Y-77769285D01*
X105147904Y-77578809D01*
X105147904Y-77435952D01*
X105100285Y-77245476D01*
X105052666Y-77150238D01*
X104957428Y-77055000D01*
X104814571Y-77007380D01*
X104719333Y-77007380D01*
X104576476Y-77055000D01*
X104528857Y-77102619D01*
X104147904Y-77102619D02*
X104100285Y-77055000D01*
X104005047Y-77007380D01*
X103766952Y-77007380D01*
X103671714Y-77055000D01*
X103624095Y-77102619D01*
X103576476Y-77197857D01*
X103576476Y-77293095D01*
X103624095Y-77435952D01*
X104195523Y-78007380D01*
X103576476Y-78007380D01*
X102719333Y-77007380D02*
X102909809Y-77007380D01*
X103005047Y-77055000D01*
X103052666Y-77102619D01*
X103147904Y-77245476D01*
X103195523Y-77435952D01*
X103195523Y-77816904D01*
X103147904Y-77912142D01*
X103100285Y-77959761D01*
X103005047Y-78007380D01*
X102814571Y-78007380D01*
X102719333Y-77959761D01*
X102671714Y-77912142D01*
X102624095Y-77816904D01*
X102624095Y-77578809D01*
X102671714Y-77483571D01*
X102719333Y-77435952D01*
X102814571Y-77388333D01*
X103005047Y-77388333D01*
X103100285Y-77435952D01*
X103147904Y-77483571D01*
X103195523Y-77578809D01*
X104528857Y-75118142D02*
X104576476Y-75165761D01*
X104719333Y-75213380D01*
X104814571Y-75213380D01*
X104957428Y-75165761D01*
X105052666Y-75070523D01*
X105100285Y-74975285D01*
X105147904Y-74784809D01*
X105147904Y-74641952D01*
X105100285Y-74451476D01*
X105052666Y-74356238D01*
X104957428Y-74261000D01*
X104814571Y-74213380D01*
X104719333Y-74213380D01*
X104576476Y-74261000D01*
X104528857Y-74308619D01*
X104147904Y-74308619D02*
X104100285Y-74261000D01*
X104005047Y-74213380D01*
X103766952Y-74213380D01*
X103671714Y-74261000D01*
X103624095Y-74308619D01*
X103576476Y-74403857D01*
X103576476Y-74499095D01*
X103624095Y-74641952D01*
X104195523Y-75213380D01*
X103576476Y-75213380D01*
X102671714Y-74213380D02*
X103147904Y-74213380D01*
X103195523Y-74689571D01*
X103147904Y-74641952D01*
X103052666Y-74594333D01*
X102814571Y-74594333D01*
X102719333Y-74641952D01*
X102671714Y-74689571D01*
X102624095Y-74784809D01*
X102624095Y-75022904D01*
X102671714Y-75118142D01*
X102719333Y-75165761D01*
X102814571Y-75213380D01*
X103052666Y-75213380D01*
X103147904Y-75165761D01*
X103195523Y-75118142D01*
X76642142Y-90289142D02*
X76689761Y-90241523D01*
X76737380Y-90098666D01*
X76737380Y-90003428D01*
X76689761Y-89860571D01*
X76594523Y-89765333D01*
X76499285Y-89717714D01*
X76308809Y-89670095D01*
X76165952Y-89670095D01*
X75975476Y-89717714D01*
X75880238Y-89765333D01*
X75785000Y-89860571D01*
X75737380Y-90003428D01*
X75737380Y-90098666D01*
X75785000Y-90241523D01*
X75832619Y-90289142D01*
X76737380Y-91241523D02*
X76737380Y-90670095D01*
X76737380Y-90955809D02*
X75737380Y-90955809D01*
X75880238Y-90860571D01*
X75975476Y-90765333D01*
X76023095Y-90670095D01*
X76165952Y-91812952D02*
X76118333Y-91717714D01*
X76070714Y-91670095D01*
X75975476Y-91622476D01*
X75927857Y-91622476D01*
X75832619Y-91670095D01*
X75785000Y-91717714D01*
X75737380Y-91812952D01*
X75737380Y-92003428D01*
X75785000Y-92098666D01*
X75832619Y-92146285D01*
X75927857Y-92193904D01*
X75975476Y-92193904D01*
X76070714Y-92146285D01*
X76118333Y-92098666D01*
X76165952Y-92003428D01*
X76165952Y-91812952D01*
X76213571Y-91717714D01*
X76261190Y-91670095D01*
X76356428Y-91622476D01*
X76546904Y-91622476D01*
X76642142Y-91670095D01*
X76689761Y-91717714D01*
X76737380Y-91812952D01*
X76737380Y-92003428D01*
X76689761Y-92098666D01*
X76642142Y-92146285D01*
X76546904Y-92193904D01*
X76356428Y-92193904D01*
X76261190Y-92146285D01*
X76213571Y-92098666D01*
X76165952Y-92003428D01*
X131738666Y-82611142D02*
X131786285Y-82658761D01*
X131929142Y-82706380D01*
X132024380Y-82706380D01*
X132167238Y-82658761D01*
X132262476Y-82563523D01*
X132310095Y-82468285D01*
X132357714Y-82277809D01*
X132357714Y-82134952D01*
X132310095Y-81944476D01*
X132262476Y-81849238D01*
X132167238Y-81754000D01*
X132024380Y-81706380D01*
X131929142Y-81706380D01*
X131786285Y-81754000D01*
X131738666Y-81801619D01*
X130881523Y-82039714D02*
X130881523Y-82706380D01*
X131119619Y-81658761D02*
X131357714Y-82373047D01*
X130738666Y-82373047D01*
X140628666Y-112824380D02*
X141104857Y-112824380D01*
X141104857Y-111824380D01*
X139771523Y-112824380D02*
X140342952Y-112824380D01*
X140057238Y-112824380D02*
X140057238Y-111824380D01*
X140152476Y-111967238D01*
X140247714Y-112062476D01*
X140342952Y-112110095D01*
X142861213Y-65641121D02*
X142718356Y-65688740D01*
X142480260Y-65688740D01*
X142385022Y-65641121D01*
X142337403Y-65593502D01*
X142289784Y-65498264D01*
X142289784Y-65403026D01*
X142337403Y-65307788D01*
X142385022Y-65260169D01*
X142480260Y-65212550D01*
X142670737Y-65164931D01*
X142765975Y-65117312D01*
X142813594Y-65069693D01*
X142861213Y-64974455D01*
X142861213Y-64879217D01*
X142813594Y-64783979D01*
X142765975Y-64736360D01*
X142670737Y-64688740D01*
X142432641Y-64688740D01*
X142289784Y-64736360D01*
X141956451Y-64688740D02*
X141718356Y-65688740D01*
X141527880Y-64974455D01*
X141337403Y-65688740D01*
X141099308Y-64688740D01*
X140194546Y-65688740D02*
X140765975Y-65688740D01*
X140480260Y-65688740D02*
X140480260Y-64688740D01*
X140575499Y-64831598D01*
X140670737Y-64926836D01*
X140765975Y-64974455D01*
X49643380Y-86352142D02*
X49167190Y-86018809D01*
X49643380Y-85780714D02*
X48643380Y-85780714D01*
X48643380Y-86161666D01*
X48691000Y-86256904D01*
X48738619Y-86304523D01*
X48833857Y-86352142D01*
X48976714Y-86352142D01*
X49071952Y-86304523D01*
X49119571Y-86256904D01*
X49167190Y-86161666D01*
X49167190Y-85780714D01*
X48643380Y-86685476D02*
X48643380Y-87304523D01*
X49024333Y-86971190D01*
X49024333Y-87114047D01*
X49071952Y-87209285D01*
X49119571Y-87256904D01*
X49214809Y-87304523D01*
X49452904Y-87304523D01*
X49548142Y-87256904D01*
X49595761Y-87209285D01*
X49643380Y-87114047D01*
X49643380Y-86828333D01*
X49595761Y-86733095D01*
X49548142Y-86685476D01*
X48643380Y-88209285D02*
X48643380Y-87733095D01*
X49119571Y-87685476D01*
X49071952Y-87733095D01*
X49024333Y-87828333D01*
X49024333Y-88066428D01*
X49071952Y-88161666D01*
X49119571Y-88209285D01*
X49214809Y-88256904D01*
X49452904Y-88256904D01*
X49548142Y-88209285D01*
X49595761Y-88161666D01*
X49643380Y-88066428D01*
X49643380Y-87828333D01*
X49595761Y-87733095D01*
X49548142Y-87685476D01*
M02*
