G04 #@! TF.GenerationSoftware,KiCad,Pcbnew,(5.1.9)-1*
G04 #@! TF.CreationDate,2021-02-21T15:44:03+01:00*
G04 #@! TF.ProjectId,vfo-pcb,76666f2d-7063-4622-9e6b-696361645f70,rev?*
G04 #@! TF.SameCoordinates,Original*
G04 #@! TF.FileFunction,Legend,Top*
G04 #@! TF.FilePolarity,Positive*
%FSLAX46Y46*%
G04 Gerber Fmt 4.6, Leading zero omitted, Abs format (unit mm)*
G04 Created by KiCad (PCBNEW (5.1.9)-1) date 2021-02-21 15:44:03*
%MOMM*%
%LPD*%
G01*
G04 APERTURE LIST*
%ADD10C,0.120000*%
%ADD11C,0.150000*%
G04 APERTURE END LIST*
D10*
X50144000Y-124619936D02*
X50144000Y-125824064D01*
X51964000Y-124619936D02*
X51964000Y-125824064D01*
X74020000Y-125635936D02*
X74020000Y-126840064D01*
X75840000Y-125635936D02*
X75840000Y-126840064D01*
X87736000Y-124619936D02*
X87736000Y-125824064D01*
X89556000Y-124619936D02*
X89556000Y-125824064D01*
X89567936Y-130196000D02*
X90772064Y-130196000D01*
X89567936Y-128376000D02*
X90772064Y-128376000D01*
X104500000Y-123349936D02*
X104500000Y-124554064D01*
X106320000Y-123349936D02*
X106320000Y-124554064D01*
X128376000Y-123349936D02*
X128376000Y-124554064D01*
X130196000Y-123349936D02*
X130196000Y-124554064D01*
X104324564Y-65765000D02*
X103120436Y-65765000D01*
X104324564Y-67585000D02*
X103120436Y-67585000D01*
X145231000Y-102750000D02*
X134990000Y-102750000D01*
X145231000Y-118640000D02*
X134990000Y-118640000D01*
X145231000Y-118640000D02*
X145231000Y-102750000D01*
X134990000Y-118640000D02*
X134990000Y-102750000D01*
X143510000Y-102750000D02*
X143510000Y-100110000D01*
X141810000Y-102750000D02*
X141810000Y-100110000D01*
X140110000Y-102750000D02*
X140110000Y-100110000D01*
X138410000Y-102750000D02*
X138410000Y-100110000D01*
X136710000Y-102750000D02*
X136710000Y-100110000D01*
X142272936Y-94594000D02*
X143477064Y-94594000D01*
X142272936Y-96414000D02*
X143477064Y-96414000D01*
X136557936Y-94594000D02*
X137762064Y-94594000D01*
X136557936Y-96414000D02*
X137762064Y-96414000D01*
X133550000Y-101420000D02*
X130610000Y-101420000D01*
X130610000Y-101420000D02*
X130610000Y-106860000D01*
X130610000Y-106860000D02*
X133550000Y-106860000D01*
X133550000Y-106860000D02*
X133550000Y-101420000D01*
X132080000Y-100400000D02*
X132080000Y-101420000D01*
X132080000Y-107880000D02*
X132080000Y-106860000D01*
X133550000Y-102320000D02*
X130610000Y-102320000D01*
X133550000Y-102440000D02*
X130610000Y-102440000D01*
X133550000Y-102200000D02*
X130610000Y-102200000D01*
X149976000Y-88282000D02*
G75*
G03*
X149976000Y-88282000I-5120000J0D01*
G01*
X144856000Y-83202000D02*
X144856000Y-93362000D01*
X144896000Y-83202000D02*
X144896000Y-93362000D01*
X144936000Y-83202000D02*
X144936000Y-93362000D01*
X144976000Y-83203000D02*
X144976000Y-93361000D01*
X145016000Y-83204000D02*
X145016000Y-93360000D01*
X145056000Y-83205000D02*
X145056000Y-93359000D01*
X145096000Y-83207000D02*
X145096000Y-93357000D01*
X145136000Y-83209000D02*
X145136000Y-93355000D01*
X145176000Y-83212000D02*
X145176000Y-93352000D01*
X145216000Y-83214000D02*
X145216000Y-93350000D01*
X145256000Y-83217000D02*
X145256000Y-93347000D01*
X145296000Y-83220000D02*
X145296000Y-93344000D01*
X145336000Y-83224000D02*
X145336000Y-93340000D01*
X145376000Y-83228000D02*
X145376000Y-93336000D01*
X145416000Y-83232000D02*
X145416000Y-93332000D01*
X145456000Y-83237000D02*
X145456000Y-93327000D01*
X145496000Y-83242000D02*
X145496000Y-93322000D01*
X145536000Y-83247000D02*
X145536000Y-93317000D01*
X145577000Y-83252000D02*
X145577000Y-93312000D01*
X145617000Y-83258000D02*
X145617000Y-93306000D01*
X145657000Y-83264000D02*
X145657000Y-93300000D01*
X145697000Y-83271000D02*
X145697000Y-93293000D01*
X145737000Y-83278000D02*
X145737000Y-93286000D01*
X145777000Y-83285000D02*
X145777000Y-93279000D01*
X145817000Y-83292000D02*
X145817000Y-93272000D01*
X145857000Y-83300000D02*
X145857000Y-93264000D01*
X145897000Y-83308000D02*
X145897000Y-93256000D01*
X145937000Y-83317000D02*
X145937000Y-93247000D01*
X145977000Y-83326000D02*
X145977000Y-93238000D01*
X146017000Y-83335000D02*
X146017000Y-93229000D01*
X146057000Y-83344000D02*
X146057000Y-93220000D01*
X146097000Y-83354000D02*
X146097000Y-93210000D01*
X146137000Y-83364000D02*
X146137000Y-87041000D01*
X146137000Y-89523000D02*
X146137000Y-93200000D01*
X146177000Y-83375000D02*
X146177000Y-87041000D01*
X146177000Y-89523000D02*
X146177000Y-93189000D01*
X146217000Y-83385000D02*
X146217000Y-87041000D01*
X146217000Y-89523000D02*
X146217000Y-93179000D01*
X146257000Y-83397000D02*
X146257000Y-87041000D01*
X146257000Y-89523000D02*
X146257000Y-93167000D01*
X146297000Y-83408000D02*
X146297000Y-87041000D01*
X146297000Y-89523000D02*
X146297000Y-93156000D01*
X146337000Y-83420000D02*
X146337000Y-87041000D01*
X146337000Y-89523000D02*
X146337000Y-93144000D01*
X146377000Y-83432000D02*
X146377000Y-87041000D01*
X146377000Y-89523000D02*
X146377000Y-93132000D01*
X146417000Y-83445000D02*
X146417000Y-87041000D01*
X146417000Y-89523000D02*
X146417000Y-93119000D01*
X146457000Y-83458000D02*
X146457000Y-87041000D01*
X146457000Y-89523000D02*
X146457000Y-93106000D01*
X146497000Y-83471000D02*
X146497000Y-87041000D01*
X146497000Y-89523000D02*
X146497000Y-93093000D01*
X146537000Y-83485000D02*
X146537000Y-87041000D01*
X146537000Y-89523000D02*
X146537000Y-93079000D01*
X146577000Y-83499000D02*
X146577000Y-87041000D01*
X146577000Y-89523000D02*
X146577000Y-93065000D01*
X146617000Y-83514000D02*
X146617000Y-87041000D01*
X146617000Y-89523000D02*
X146617000Y-93050000D01*
X146657000Y-83528000D02*
X146657000Y-87041000D01*
X146657000Y-89523000D02*
X146657000Y-93036000D01*
X146697000Y-83544000D02*
X146697000Y-87041000D01*
X146697000Y-89523000D02*
X146697000Y-93020000D01*
X146737000Y-83559000D02*
X146737000Y-87041000D01*
X146737000Y-89523000D02*
X146737000Y-93005000D01*
X146777000Y-83575000D02*
X146777000Y-87041000D01*
X146777000Y-89523000D02*
X146777000Y-92989000D01*
X146817000Y-83592000D02*
X146817000Y-87041000D01*
X146817000Y-89523000D02*
X146817000Y-92972000D01*
X146857000Y-83608000D02*
X146857000Y-87041000D01*
X146857000Y-89523000D02*
X146857000Y-92956000D01*
X146897000Y-83625000D02*
X146897000Y-87041000D01*
X146897000Y-89523000D02*
X146897000Y-92939000D01*
X146937000Y-83643000D02*
X146937000Y-87041000D01*
X146937000Y-89523000D02*
X146937000Y-92921000D01*
X146977000Y-83661000D02*
X146977000Y-87041000D01*
X146977000Y-89523000D02*
X146977000Y-92903000D01*
X147017000Y-83679000D02*
X147017000Y-87041000D01*
X147017000Y-89523000D02*
X147017000Y-92885000D01*
X147057000Y-83698000D02*
X147057000Y-87041000D01*
X147057000Y-89523000D02*
X147057000Y-92866000D01*
X147097000Y-83718000D02*
X147097000Y-87041000D01*
X147097000Y-89523000D02*
X147097000Y-92846000D01*
X147137000Y-83737000D02*
X147137000Y-87041000D01*
X147137000Y-89523000D02*
X147137000Y-92827000D01*
X147177000Y-83757000D02*
X147177000Y-87041000D01*
X147177000Y-89523000D02*
X147177000Y-92807000D01*
X147217000Y-83778000D02*
X147217000Y-87041000D01*
X147217000Y-89523000D02*
X147217000Y-92786000D01*
X147257000Y-83799000D02*
X147257000Y-87041000D01*
X147257000Y-89523000D02*
X147257000Y-92765000D01*
X147297000Y-83820000D02*
X147297000Y-87041000D01*
X147297000Y-89523000D02*
X147297000Y-92744000D01*
X147337000Y-83842000D02*
X147337000Y-87041000D01*
X147337000Y-89523000D02*
X147337000Y-92722000D01*
X147377000Y-83865000D02*
X147377000Y-87041000D01*
X147377000Y-89523000D02*
X147377000Y-92699000D01*
X147417000Y-83887000D02*
X147417000Y-87041000D01*
X147417000Y-89523000D02*
X147417000Y-92677000D01*
X147457000Y-83911000D02*
X147457000Y-87041000D01*
X147457000Y-89523000D02*
X147457000Y-92653000D01*
X147497000Y-83935000D02*
X147497000Y-87041000D01*
X147497000Y-89523000D02*
X147497000Y-92629000D01*
X147537000Y-83959000D02*
X147537000Y-87041000D01*
X147537000Y-89523000D02*
X147537000Y-92605000D01*
X147577000Y-83984000D02*
X147577000Y-87041000D01*
X147577000Y-89523000D02*
X147577000Y-92580000D01*
X147617000Y-84009000D02*
X147617000Y-87041000D01*
X147617000Y-89523000D02*
X147617000Y-92555000D01*
X147657000Y-84035000D02*
X147657000Y-87041000D01*
X147657000Y-89523000D02*
X147657000Y-92529000D01*
X147697000Y-84061000D02*
X147697000Y-87041000D01*
X147697000Y-89523000D02*
X147697000Y-92503000D01*
X147737000Y-84088000D02*
X147737000Y-87041000D01*
X147737000Y-89523000D02*
X147737000Y-92476000D01*
X147777000Y-84116000D02*
X147777000Y-87041000D01*
X147777000Y-89523000D02*
X147777000Y-92448000D01*
X147817000Y-84144000D02*
X147817000Y-87041000D01*
X147817000Y-89523000D02*
X147817000Y-92420000D01*
X147857000Y-84172000D02*
X147857000Y-87041000D01*
X147857000Y-89523000D02*
X147857000Y-92392000D01*
X147897000Y-84202000D02*
X147897000Y-87041000D01*
X147897000Y-89523000D02*
X147897000Y-92362000D01*
X147937000Y-84232000D02*
X147937000Y-87041000D01*
X147937000Y-89523000D02*
X147937000Y-92332000D01*
X147977000Y-84262000D02*
X147977000Y-87041000D01*
X147977000Y-89523000D02*
X147977000Y-92302000D01*
X148017000Y-84293000D02*
X148017000Y-87041000D01*
X148017000Y-89523000D02*
X148017000Y-92271000D01*
X148057000Y-84325000D02*
X148057000Y-87041000D01*
X148057000Y-89523000D02*
X148057000Y-92239000D01*
X148097000Y-84357000D02*
X148097000Y-87041000D01*
X148097000Y-89523000D02*
X148097000Y-92207000D01*
X148137000Y-84390000D02*
X148137000Y-87041000D01*
X148137000Y-89523000D02*
X148137000Y-92174000D01*
X148177000Y-84424000D02*
X148177000Y-87041000D01*
X148177000Y-89523000D02*
X148177000Y-92140000D01*
X148217000Y-84458000D02*
X148217000Y-87041000D01*
X148217000Y-89523000D02*
X148217000Y-92106000D01*
X148257000Y-84493000D02*
X148257000Y-87041000D01*
X148257000Y-89523000D02*
X148257000Y-92071000D01*
X148297000Y-84529000D02*
X148297000Y-87041000D01*
X148297000Y-89523000D02*
X148297000Y-92035000D01*
X148337000Y-84566000D02*
X148337000Y-87041000D01*
X148337000Y-89523000D02*
X148337000Y-91998000D01*
X148377000Y-84603000D02*
X148377000Y-87041000D01*
X148377000Y-89523000D02*
X148377000Y-91961000D01*
X148417000Y-84642000D02*
X148417000Y-87041000D01*
X148417000Y-89523000D02*
X148417000Y-91922000D01*
X148457000Y-84681000D02*
X148457000Y-87041000D01*
X148457000Y-89523000D02*
X148457000Y-91883000D01*
X148497000Y-84721000D02*
X148497000Y-87041000D01*
X148497000Y-89523000D02*
X148497000Y-91843000D01*
X148537000Y-84762000D02*
X148537000Y-87041000D01*
X148537000Y-89523000D02*
X148537000Y-91802000D01*
X148577000Y-84804000D02*
X148577000Y-87041000D01*
X148577000Y-89523000D02*
X148577000Y-91760000D01*
X148617000Y-84846000D02*
X148617000Y-91718000D01*
X148657000Y-84890000D02*
X148657000Y-91674000D01*
X148697000Y-84935000D02*
X148697000Y-91629000D01*
X148737000Y-84981000D02*
X148737000Y-91583000D01*
X148777000Y-85028000D02*
X148777000Y-91536000D01*
X148817000Y-85076000D02*
X148817000Y-91488000D01*
X148857000Y-85126000D02*
X148857000Y-91438000D01*
X148897000Y-85176000D02*
X148897000Y-91388000D01*
X148937000Y-85228000D02*
X148937000Y-91336000D01*
X148977000Y-85282000D02*
X148977000Y-91282000D01*
X149017000Y-85337000D02*
X149017000Y-91227000D01*
X149057000Y-85393000D02*
X149057000Y-91171000D01*
X149097000Y-85452000D02*
X149097000Y-91112000D01*
X149137000Y-85512000D02*
X149137000Y-91052000D01*
X149177000Y-85573000D02*
X149177000Y-90991000D01*
X149217000Y-85637000D02*
X149217000Y-90927000D01*
X149257000Y-85703000D02*
X149257000Y-90861000D01*
X149297000Y-85772000D02*
X149297000Y-90792000D01*
X149337000Y-85843000D02*
X149337000Y-90721000D01*
X149377000Y-85917000D02*
X149377000Y-90647000D01*
X149417000Y-85993000D02*
X149417000Y-90571000D01*
X149457000Y-86073000D02*
X149457000Y-90491000D01*
X149497000Y-86157000D02*
X149497000Y-90407000D01*
X149537000Y-86245000D02*
X149537000Y-90319000D01*
X149577000Y-86338000D02*
X149577000Y-90226000D01*
X149617000Y-86436000D02*
X149617000Y-90128000D01*
X149657000Y-86540000D02*
X149657000Y-90024000D01*
X149697000Y-86652000D02*
X149697000Y-89912000D01*
X149737000Y-86772000D02*
X149737000Y-89792000D01*
X149777000Y-86904000D02*
X149777000Y-89660000D01*
X149817000Y-87052000D02*
X149817000Y-89512000D01*
X149857000Y-87220000D02*
X149857000Y-89344000D01*
X149897000Y-87420000D02*
X149897000Y-89144000D01*
X149937000Y-87683000D02*
X149937000Y-88881000D01*
X139376354Y-85407000D02*
X140376354Y-85407000D01*
X139876354Y-84907000D02*
X139876354Y-85907000D01*
X137756000Y-88282000D02*
G75*
G03*
X137756000Y-88282000I-5120000J0D01*
G01*
X132636000Y-83202000D02*
X132636000Y-93362000D01*
X132676000Y-83202000D02*
X132676000Y-93362000D01*
X132716000Y-83202000D02*
X132716000Y-93362000D01*
X132756000Y-83203000D02*
X132756000Y-93361000D01*
X132796000Y-83204000D02*
X132796000Y-93360000D01*
X132836000Y-83205000D02*
X132836000Y-93359000D01*
X132876000Y-83207000D02*
X132876000Y-93357000D01*
X132916000Y-83209000D02*
X132916000Y-93355000D01*
X132956000Y-83212000D02*
X132956000Y-93352000D01*
X132996000Y-83214000D02*
X132996000Y-93350000D01*
X133036000Y-83217000D02*
X133036000Y-93347000D01*
X133076000Y-83220000D02*
X133076000Y-93344000D01*
X133116000Y-83224000D02*
X133116000Y-93340000D01*
X133156000Y-83228000D02*
X133156000Y-93336000D01*
X133196000Y-83232000D02*
X133196000Y-93332000D01*
X133236000Y-83237000D02*
X133236000Y-93327000D01*
X133276000Y-83242000D02*
X133276000Y-93322000D01*
X133316000Y-83247000D02*
X133316000Y-93317000D01*
X133357000Y-83252000D02*
X133357000Y-93312000D01*
X133397000Y-83258000D02*
X133397000Y-93306000D01*
X133437000Y-83264000D02*
X133437000Y-93300000D01*
X133477000Y-83271000D02*
X133477000Y-93293000D01*
X133517000Y-83278000D02*
X133517000Y-93286000D01*
X133557000Y-83285000D02*
X133557000Y-93279000D01*
X133597000Y-83292000D02*
X133597000Y-93272000D01*
X133637000Y-83300000D02*
X133637000Y-93264000D01*
X133677000Y-83308000D02*
X133677000Y-93256000D01*
X133717000Y-83317000D02*
X133717000Y-93247000D01*
X133757000Y-83326000D02*
X133757000Y-93238000D01*
X133797000Y-83335000D02*
X133797000Y-93229000D01*
X133837000Y-83344000D02*
X133837000Y-93220000D01*
X133877000Y-83354000D02*
X133877000Y-93210000D01*
X133917000Y-83364000D02*
X133917000Y-87041000D01*
X133917000Y-89523000D02*
X133917000Y-93200000D01*
X133957000Y-83375000D02*
X133957000Y-87041000D01*
X133957000Y-89523000D02*
X133957000Y-93189000D01*
X133997000Y-83385000D02*
X133997000Y-87041000D01*
X133997000Y-89523000D02*
X133997000Y-93179000D01*
X134037000Y-83397000D02*
X134037000Y-87041000D01*
X134037000Y-89523000D02*
X134037000Y-93167000D01*
X134077000Y-83408000D02*
X134077000Y-87041000D01*
X134077000Y-89523000D02*
X134077000Y-93156000D01*
X134117000Y-83420000D02*
X134117000Y-87041000D01*
X134117000Y-89523000D02*
X134117000Y-93144000D01*
X134157000Y-83432000D02*
X134157000Y-87041000D01*
X134157000Y-89523000D02*
X134157000Y-93132000D01*
X134197000Y-83445000D02*
X134197000Y-87041000D01*
X134197000Y-89523000D02*
X134197000Y-93119000D01*
X134237000Y-83458000D02*
X134237000Y-87041000D01*
X134237000Y-89523000D02*
X134237000Y-93106000D01*
X134277000Y-83471000D02*
X134277000Y-87041000D01*
X134277000Y-89523000D02*
X134277000Y-93093000D01*
X134317000Y-83485000D02*
X134317000Y-87041000D01*
X134317000Y-89523000D02*
X134317000Y-93079000D01*
X134357000Y-83499000D02*
X134357000Y-87041000D01*
X134357000Y-89523000D02*
X134357000Y-93065000D01*
X134397000Y-83514000D02*
X134397000Y-87041000D01*
X134397000Y-89523000D02*
X134397000Y-93050000D01*
X134437000Y-83528000D02*
X134437000Y-87041000D01*
X134437000Y-89523000D02*
X134437000Y-93036000D01*
X134477000Y-83544000D02*
X134477000Y-87041000D01*
X134477000Y-89523000D02*
X134477000Y-93020000D01*
X134517000Y-83559000D02*
X134517000Y-87041000D01*
X134517000Y-89523000D02*
X134517000Y-93005000D01*
X134557000Y-83575000D02*
X134557000Y-87041000D01*
X134557000Y-89523000D02*
X134557000Y-92989000D01*
X134597000Y-83592000D02*
X134597000Y-87041000D01*
X134597000Y-89523000D02*
X134597000Y-92972000D01*
X134637000Y-83608000D02*
X134637000Y-87041000D01*
X134637000Y-89523000D02*
X134637000Y-92956000D01*
X134677000Y-83625000D02*
X134677000Y-87041000D01*
X134677000Y-89523000D02*
X134677000Y-92939000D01*
X134717000Y-83643000D02*
X134717000Y-87041000D01*
X134717000Y-89523000D02*
X134717000Y-92921000D01*
X134757000Y-83661000D02*
X134757000Y-87041000D01*
X134757000Y-89523000D02*
X134757000Y-92903000D01*
X134797000Y-83679000D02*
X134797000Y-87041000D01*
X134797000Y-89523000D02*
X134797000Y-92885000D01*
X134837000Y-83698000D02*
X134837000Y-87041000D01*
X134837000Y-89523000D02*
X134837000Y-92866000D01*
X134877000Y-83718000D02*
X134877000Y-87041000D01*
X134877000Y-89523000D02*
X134877000Y-92846000D01*
X134917000Y-83737000D02*
X134917000Y-87041000D01*
X134917000Y-89523000D02*
X134917000Y-92827000D01*
X134957000Y-83757000D02*
X134957000Y-87041000D01*
X134957000Y-89523000D02*
X134957000Y-92807000D01*
X134997000Y-83778000D02*
X134997000Y-87041000D01*
X134997000Y-89523000D02*
X134997000Y-92786000D01*
X135037000Y-83799000D02*
X135037000Y-87041000D01*
X135037000Y-89523000D02*
X135037000Y-92765000D01*
X135077000Y-83820000D02*
X135077000Y-87041000D01*
X135077000Y-89523000D02*
X135077000Y-92744000D01*
X135117000Y-83842000D02*
X135117000Y-87041000D01*
X135117000Y-89523000D02*
X135117000Y-92722000D01*
X135157000Y-83865000D02*
X135157000Y-87041000D01*
X135157000Y-89523000D02*
X135157000Y-92699000D01*
X135197000Y-83887000D02*
X135197000Y-87041000D01*
X135197000Y-89523000D02*
X135197000Y-92677000D01*
X135237000Y-83911000D02*
X135237000Y-87041000D01*
X135237000Y-89523000D02*
X135237000Y-92653000D01*
X135277000Y-83935000D02*
X135277000Y-87041000D01*
X135277000Y-89523000D02*
X135277000Y-92629000D01*
X135317000Y-83959000D02*
X135317000Y-87041000D01*
X135317000Y-89523000D02*
X135317000Y-92605000D01*
X135357000Y-83984000D02*
X135357000Y-87041000D01*
X135357000Y-89523000D02*
X135357000Y-92580000D01*
X135397000Y-84009000D02*
X135397000Y-87041000D01*
X135397000Y-89523000D02*
X135397000Y-92555000D01*
X135437000Y-84035000D02*
X135437000Y-87041000D01*
X135437000Y-89523000D02*
X135437000Y-92529000D01*
X135477000Y-84061000D02*
X135477000Y-87041000D01*
X135477000Y-89523000D02*
X135477000Y-92503000D01*
X135517000Y-84088000D02*
X135517000Y-87041000D01*
X135517000Y-89523000D02*
X135517000Y-92476000D01*
X135557000Y-84116000D02*
X135557000Y-87041000D01*
X135557000Y-89523000D02*
X135557000Y-92448000D01*
X135597000Y-84144000D02*
X135597000Y-87041000D01*
X135597000Y-89523000D02*
X135597000Y-92420000D01*
X135637000Y-84172000D02*
X135637000Y-87041000D01*
X135637000Y-89523000D02*
X135637000Y-92392000D01*
X135677000Y-84202000D02*
X135677000Y-87041000D01*
X135677000Y-89523000D02*
X135677000Y-92362000D01*
X135717000Y-84232000D02*
X135717000Y-87041000D01*
X135717000Y-89523000D02*
X135717000Y-92332000D01*
X135757000Y-84262000D02*
X135757000Y-87041000D01*
X135757000Y-89523000D02*
X135757000Y-92302000D01*
X135797000Y-84293000D02*
X135797000Y-87041000D01*
X135797000Y-89523000D02*
X135797000Y-92271000D01*
X135837000Y-84325000D02*
X135837000Y-87041000D01*
X135837000Y-89523000D02*
X135837000Y-92239000D01*
X135877000Y-84357000D02*
X135877000Y-87041000D01*
X135877000Y-89523000D02*
X135877000Y-92207000D01*
X135917000Y-84390000D02*
X135917000Y-87041000D01*
X135917000Y-89523000D02*
X135917000Y-92174000D01*
X135957000Y-84424000D02*
X135957000Y-87041000D01*
X135957000Y-89523000D02*
X135957000Y-92140000D01*
X135997000Y-84458000D02*
X135997000Y-87041000D01*
X135997000Y-89523000D02*
X135997000Y-92106000D01*
X136037000Y-84493000D02*
X136037000Y-87041000D01*
X136037000Y-89523000D02*
X136037000Y-92071000D01*
X136077000Y-84529000D02*
X136077000Y-87041000D01*
X136077000Y-89523000D02*
X136077000Y-92035000D01*
X136117000Y-84566000D02*
X136117000Y-87041000D01*
X136117000Y-89523000D02*
X136117000Y-91998000D01*
X136157000Y-84603000D02*
X136157000Y-87041000D01*
X136157000Y-89523000D02*
X136157000Y-91961000D01*
X136197000Y-84642000D02*
X136197000Y-87041000D01*
X136197000Y-89523000D02*
X136197000Y-91922000D01*
X136237000Y-84681000D02*
X136237000Y-87041000D01*
X136237000Y-89523000D02*
X136237000Y-91883000D01*
X136277000Y-84721000D02*
X136277000Y-87041000D01*
X136277000Y-89523000D02*
X136277000Y-91843000D01*
X136317000Y-84762000D02*
X136317000Y-87041000D01*
X136317000Y-89523000D02*
X136317000Y-91802000D01*
X136357000Y-84804000D02*
X136357000Y-87041000D01*
X136357000Y-89523000D02*
X136357000Y-91760000D01*
X136397000Y-84846000D02*
X136397000Y-91718000D01*
X136437000Y-84890000D02*
X136437000Y-91674000D01*
X136477000Y-84935000D02*
X136477000Y-91629000D01*
X136517000Y-84981000D02*
X136517000Y-91583000D01*
X136557000Y-85028000D02*
X136557000Y-91536000D01*
X136597000Y-85076000D02*
X136597000Y-91488000D01*
X136637000Y-85126000D02*
X136637000Y-91438000D01*
X136677000Y-85176000D02*
X136677000Y-91388000D01*
X136717000Y-85228000D02*
X136717000Y-91336000D01*
X136757000Y-85282000D02*
X136757000Y-91282000D01*
X136797000Y-85337000D02*
X136797000Y-91227000D01*
X136837000Y-85393000D02*
X136837000Y-91171000D01*
X136877000Y-85452000D02*
X136877000Y-91112000D01*
X136917000Y-85512000D02*
X136917000Y-91052000D01*
X136957000Y-85573000D02*
X136957000Y-90991000D01*
X136997000Y-85637000D02*
X136997000Y-90927000D01*
X137037000Y-85703000D02*
X137037000Y-90861000D01*
X137077000Y-85772000D02*
X137077000Y-90792000D01*
X137117000Y-85843000D02*
X137117000Y-90721000D01*
X137157000Y-85917000D02*
X137157000Y-90647000D01*
X137197000Y-85993000D02*
X137197000Y-90571000D01*
X137237000Y-86073000D02*
X137237000Y-90491000D01*
X137277000Y-86157000D02*
X137277000Y-90407000D01*
X137317000Y-86245000D02*
X137317000Y-90319000D01*
X137357000Y-86338000D02*
X137357000Y-90226000D01*
X137397000Y-86436000D02*
X137397000Y-90128000D01*
X137437000Y-86540000D02*
X137437000Y-90024000D01*
X137477000Y-86652000D02*
X137477000Y-89912000D01*
X137517000Y-86772000D02*
X137517000Y-89792000D01*
X137557000Y-86904000D02*
X137557000Y-89660000D01*
X137597000Y-87052000D02*
X137597000Y-89512000D01*
X137637000Y-87220000D02*
X137637000Y-89344000D01*
X137677000Y-87420000D02*
X137677000Y-89144000D01*
X137717000Y-87683000D02*
X137717000Y-88881000D01*
X127156354Y-85407000D02*
X128156354Y-85407000D01*
X127656354Y-84907000D02*
X127656354Y-85907000D01*
X64664000Y-66961936D02*
X64664000Y-68166064D01*
X62844000Y-66961936D02*
X62844000Y-68166064D01*
X78380000Y-125635936D02*
X78380000Y-126840064D01*
X76560000Y-125635936D02*
X76560000Y-126840064D01*
X44048000Y-120744064D02*
X44048000Y-119539936D01*
X45868000Y-120744064D02*
X45868000Y-119539936D01*
X82152064Y-115235000D02*
X80947936Y-115235000D01*
X82152064Y-113415000D02*
X80947936Y-113415000D01*
X67727064Y-120260000D02*
X66522936Y-120260000D01*
X67727064Y-118440000D02*
X66522936Y-118440000D01*
X48662000Y-119539936D02*
X48662000Y-120744064D01*
X46842000Y-119539936D02*
X46842000Y-120744064D01*
X82052064Y-118560000D02*
X80847936Y-118560000D01*
X82052064Y-116740000D02*
X80847936Y-116740000D01*
X104500000Y-119220064D02*
X104500000Y-118015936D01*
X106320000Y-119220064D02*
X106320000Y-118015936D01*
X92350000Y-124619936D02*
X92350000Y-125824064D01*
X90530000Y-124619936D02*
X90530000Y-125824064D01*
X109060000Y-117972936D02*
X109060000Y-119177064D01*
X107240000Y-117972936D02*
X107240000Y-119177064D01*
X100297936Y-117990000D02*
X101502064Y-117990000D01*
X100297936Y-119810000D02*
X101502064Y-119810000D01*
X126615000Y-119252064D02*
X126615000Y-118047936D01*
X128435000Y-119252064D02*
X128435000Y-118047936D01*
X123550000Y-113632064D02*
X123550000Y-112427936D01*
X125370000Y-113632064D02*
X125370000Y-112427936D01*
X71672936Y-118465000D02*
X72877064Y-118465000D01*
X71672936Y-120285000D02*
X72877064Y-120285000D01*
X116563680Y-119636660D02*
X116563680Y-118706660D01*
X116563680Y-116476660D02*
X116563680Y-117406660D01*
X116563680Y-116476660D02*
X114403680Y-116476660D01*
X116563680Y-119636660D02*
X115103680Y-119636660D01*
X96383380Y-118613040D02*
X96383380Y-117683040D01*
X96383380Y-115453040D02*
X96383380Y-116383040D01*
X96383380Y-115453040D02*
X94223380Y-115453040D01*
X96383380Y-118613040D02*
X94923380Y-118613040D01*
X119752840Y-116420780D02*
X119752840Y-117350780D01*
X119752840Y-119580780D02*
X119752840Y-118650780D01*
X119752840Y-119580780D02*
X121912840Y-119580780D01*
X119752840Y-116420780D02*
X121212840Y-116420780D01*
X68296060Y-116342280D02*
X68296060Y-115412280D01*
X68296060Y-113182280D02*
X68296060Y-114112280D01*
X68296060Y-113182280D02*
X66136060Y-113182280D01*
X68296060Y-116342280D02*
X66836060Y-116342280D01*
X57490240Y-120221280D02*
X58420240Y-120221280D01*
X60650240Y-120221280D02*
X59720240Y-120221280D01*
X60650240Y-120221280D02*
X60650240Y-118061280D01*
X57490240Y-120221280D02*
X57490240Y-118761280D01*
X74203020Y-114518320D02*
X74203020Y-115448320D01*
X74203020Y-117678320D02*
X74203020Y-116748320D01*
X74203020Y-117678320D02*
X76363020Y-117678320D01*
X74203020Y-114518320D02*
X75663020Y-114518320D01*
X86055116Y-113415400D02*
X87259244Y-113415400D01*
X86055116Y-115235400D02*
X87259244Y-115235400D01*
X76215000Y-121552064D02*
X76215000Y-120347936D01*
X78035000Y-121552064D02*
X78035000Y-120347936D01*
X58173704Y-116825440D02*
X56969576Y-116825440D01*
X58173704Y-115005440D02*
X56969576Y-115005440D01*
X112060400Y-117982916D02*
X112060400Y-119187044D01*
X110240400Y-117982916D02*
X110240400Y-119187044D01*
X92329680Y-118953196D02*
X92329680Y-120157324D01*
X90509680Y-118953196D02*
X90509680Y-120157324D01*
X125570660Y-118013396D02*
X125570660Y-119217524D01*
X123750660Y-118013396D02*
X123750660Y-119217524D01*
X100347696Y-115150220D02*
X101551824Y-115150220D01*
X100347696Y-116970220D02*
X101551824Y-116970220D01*
X113895460Y-113235824D02*
X113895460Y-112031696D01*
X115715460Y-113235824D02*
X115715460Y-112031696D01*
X116910440Y-113256144D02*
X116910440Y-112052016D01*
X118730440Y-113256144D02*
X118730440Y-112052016D01*
X56383880Y-62047120D02*
X56383880Y-60717120D01*
X56383880Y-60717120D02*
X57713880Y-60717120D01*
X58983880Y-60717120D02*
X74283880Y-60717120D01*
X74283880Y-63377120D02*
X74283880Y-60717120D01*
X58983880Y-63377120D02*
X74283880Y-63377120D01*
X58983880Y-63377120D02*
X58983880Y-60717120D01*
D11*
X58289320Y-109256960D02*
X58289320Y-109481960D01*
X61639320Y-109256960D02*
X61639320Y-109556960D01*
X61639320Y-112606960D02*
X61639320Y-112306960D01*
X58289320Y-112606960D02*
X58289320Y-112306960D01*
X58289320Y-109256960D02*
X61639320Y-109256960D01*
X58289320Y-112606960D02*
X61639320Y-112606960D01*
X58289320Y-109481960D02*
X57064320Y-109481960D01*
D10*
X130207936Y-94594000D02*
X131412064Y-94594000D01*
X130207936Y-96414000D02*
X131412064Y-96414000D01*
X67873880Y-100313800D02*
X67873880Y-97653800D01*
X67873880Y-100313800D02*
X113653880Y-100313800D01*
X113653880Y-100313800D02*
X113653880Y-97653800D01*
X67873880Y-97653800D02*
X113653880Y-97653800D01*
X65273880Y-97653800D02*
X66603880Y-97653800D01*
X65273880Y-98983800D02*
X65273880Y-97653800D01*
X65273880Y-73983800D02*
X65273880Y-72653800D01*
X65273880Y-72653800D02*
X66603880Y-72653800D01*
X67873880Y-72653800D02*
X113653880Y-72653800D01*
X113653880Y-75313800D02*
X113653880Y-72653800D01*
X67873880Y-75313800D02*
X113653880Y-75313800D01*
X67873880Y-75313800D02*
X67873880Y-72653800D01*
X101746400Y-63898560D02*
X103746400Y-63898560D01*
X101746400Y-61658560D02*
X101746400Y-63898560D01*
X108246400Y-60681560D02*
X108196400Y-60731560D01*
X110679400Y-58248560D02*
X110654400Y-58272560D01*
X108438400Y-60923560D02*
X108414400Y-60948560D01*
X110896400Y-58465560D02*
X110847400Y-58515560D01*
X112106400Y-53038560D02*
X112106400Y-63658560D01*
X101986400Y-53038560D02*
X101986400Y-63658560D01*
X101986400Y-63658560D02*
X112106400Y-63658560D01*
X101986400Y-53038560D02*
X112106400Y-53038560D01*
X101986400Y-56598560D02*
X112106400Y-56598560D01*
X101986400Y-57598560D02*
X112106400Y-57598560D01*
X101986400Y-61598560D02*
X112106400Y-61598560D01*
X111326400Y-59598560D02*
G75*
G03*
X111326400Y-59598560I-1780000J0D01*
G01*
X105241901Y-61237059D02*
G75*
G02*
X104546400Y-61378560I-695501J1638499D01*
G01*
X106185605Y-58903044D02*
G75*
G02*
X106185400Y-60294560I-1639205J-695516D01*
G01*
X103850884Y-57959355D02*
G75*
G02*
X105242400Y-57959560I695516J-1639205D01*
G01*
X102907195Y-60294076D02*
G75*
G02*
X102907400Y-58902560I1639205J695516D01*
G01*
X104577214Y-61378949D02*
G75*
G02*
X103850400Y-61237560I-30814J1780389D01*
G01*
X86688400Y-59598560D02*
G75*
G03*
X86688400Y-59598560I-1780000J0D01*
G01*
X77348400Y-61598560D02*
X87468400Y-61598560D01*
X77348400Y-57598560D02*
X87468400Y-57598560D01*
X77348400Y-56598560D02*
X87468400Y-56598560D01*
X77348400Y-53038560D02*
X87468400Y-53038560D01*
X77348400Y-63658560D02*
X87468400Y-63658560D01*
X77348400Y-53038560D02*
X77348400Y-63658560D01*
X87468400Y-53038560D02*
X87468400Y-63658560D01*
X86258400Y-58465560D02*
X86209400Y-58515560D01*
X83800400Y-60923560D02*
X83776400Y-60948560D01*
X86041400Y-58248560D02*
X86016400Y-58272560D01*
X83608400Y-60681560D02*
X83558400Y-60731560D01*
X77108400Y-61658560D02*
X77108400Y-63898560D01*
X77108400Y-63898560D02*
X79108400Y-63898560D01*
X79939214Y-61378949D02*
G75*
G02*
X79212400Y-61237560I-30814J1780389D01*
G01*
X78269195Y-60294076D02*
G75*
G02*
X78269400Y-58902560I1639205J695516D01*
G01*
X79212884Y-57959355D02*
G75*
G02*
X80604400Y-57959560I695516J-1639205D01*
G01*
X81547605Y-58903044D02*
G75*
G02*
X81547400Y-60294560I-1639205J-695516D01*
G01*
X80603901Y-61237059D02*
G75*
G02*
X79908400Y-61378560I-695501J1638499D01*
G01*
X99352840Y-59598560D02*
G75*
G03*
X99352840Y-59598560I-1780000J0D01*
G01*
X90012840Y-61598560D02*
X100132840Y-61598560D01*
X90012840Y-57598560D02*
X100132840Y-57598560D01*
X90012840Y-56598560D02*
X100132840Y-56598560D01*
X90012840Y-53038560D02*
X100132840Y-53038560D01*
X90012840Y-63658560D02*
X100132840Y-63658560D01*
X90012840Y-53038560D02*
X90012840Y-63658560D01*
X100132840Y-53038560D02*
X100132840Y-63658560D01*
X98922840Y-58465560D02*
X98873840Y-58515560D01*
X96464840Y-60923560D02*
X96440840Y-60948560D01*
X98705840Y-58248560D02*
X98680840Y-58272560D01*
X96272840Y-60681560D02*
X96222840Y-60731560D01*
X89772840Y-61658560D02*
X89772840Y-63898560D01*
X89772840Y-63898560D02*
X91772840Y-63898560D01*
X92603654Y-61378949D02*
G75*
G02*
X91876840Y-61237560I-30814J1780389D01*
G01*
X90933635Y-60294076D02*
G75*
G02*
X90933840Y-58902560I1639205J695516D01*
G01*
X91877324Y-57959355D02*
G75*
G02*
X93268840Y-57959560I695516J-1639205D01*
G01*
X94212045Y-58903044D02*
G75*
G02*
X94211840Y-60294560I-1639205J-695516D01*
G01*
X93268341Y-61237059D02*
G75*
G02*
X92572840Y-61378560I-695501J1638499D01*
G01*
X114898520Y-64000160D02*
X116898520Y-64000160D01*
X114898520Y-61760160D02*
X114898520Y-64000160D01*
X121398520Y-60783160D02*
X121348520Y-60833160D01*
X123831520Y-58350160D02*
X123806520Y-58374160D01*
X121590520Y-61025160D02*
X121566520Y-61050160D01*
X124048520Y-58567160D02*
X123999520Y-58617160D01*
X125258520Y-53140160D02*
X125258520Y-63760160D01*
X115138520Y-53140160D02*
X115138520Y-63760160D01*
X115138520Y-63760160D02*
X125258520Y-63760160D01*
X115138520Y-53140160D02*
X125258520Y-53140160D01*
X115138520Y-56700160D02*
X125258520Y-56700160D01*
X115138520Y-57700160D02*
X125258520Y-57700160D01*
X115138520Y-61700160D02*
X125258520Y-61700160D01*
X124478520Y-59700160D02*
G75*
G03*
X124478520Y-59700160I-1780000J0D01*
G01*
X118394021Y-61338659D02*
G75*
G02*
X117698520Y-61480160I-695501J1638499D01*
G01*
X119337725Y-59004644D02*
G75*
G02*
X119337520Y-60396160I-1639205J-695516D01*
G01*
X117003004Y-58060955D02*
G75*
G02*
X118394520Y-58061160I695516J-1639205D01*
G01*
X116059315Y-60395676D02*
G75*
G02*
X116059520Y-59004160I1639205J695516D01*
G01*
X117729334Y-61480549D02*
G75*
G02*
X117002520Y-61339160I-30814J1780389D01*
G01*
X73462840Y-68991480D02*
X73462840Y-67661480D01*
X73462840Y-67661480D02*
X74792840Y-67661480D01*
X76062840Y-67661480D02*
X91362840Y-67661480D01*
X91362840Y-70321480D02*
X91362840Y-67661480D01*
X76062840Y-70321480D02*
X91362840Y-70321480D01*
X76062840Y-70321480D02*
X76062840Y-67661480D01*
X120756000Y-74327936D02*
X120756000Y-75532064D01*
X122576000Y-74327936D02*
X122576000Y-75532064D01*
X123804000Y-74327936D02*
X123804000Y-75532064D01*
X125624000Y-74327936D02*
X125624000Y-75532064D01*
X119644000Y-74367936D02*
X119644000Y-75572064D01*
X117824000Y-74367936D02*
X117824000Y-75572064D01*
X109237864Y-65831040D02*
X108033736Y-65831040D01*
X109237864Y-67651040D02*
X108033736Y-67651040D01*
X117492696Y-85354840D02*
X118696824Y-85354840D01*
X117492696Y-83534840D02*
X118696824Y-83534840D01*
X117446976Y-88081440D02*
X118651104Y-88081440D01*
X117446976Y-89901440D02*
X118651104Y-89901440D01*
X117645096Y-80737120D02*
X118849224Y-80737120D01*
X117645096Y-78917120D02*
X118849224Y-78917120D01*
X114239720Y-85773344D02*
X114239720Y-84569216D01*
X112419720Y-85773344D02*
X112419720Y-84569216D01*
X112429880Y-91081944D02*
X112429880Y-89877816D01*
X114249880Y-91081944D02*
X114249880Y-89877816D01*
X114315920Y-80175184D02*
X114315920Y-78971056D01*
X112495920Y-80175184D02*
X112495920Y-78971056D01*
X103541240Y-106088096D02*
X103541240Y-107292224D01*
X101721240Y-106088096D02*
X101721240Y-107292224D01*
X51945456Y-111085040D02*
X53149584Y-111085040D01*
X51945456Y-109265040D02*
X53149584Y-109265040D01*
X121689720Y-122032220D02*
X125289720Y-122032220D01*
X121689720Y-129392220D02*
X125289720Y-129392220D01*
X127169720Y-123912220D02*
X127169720Y-127512220D01*
X119809720Y-123912220D02*
X119809720Y-127512220D01*
X109314840Y-122032220D02*
X112914840Y-122032220D01*
X109314840Y-129392220D02*
X112914840Y-129392220D01*
X114794840Y-123912220D02*
X114794840Y-127512220D01*
X107434840Y-123912220D02*
X107434840Y-127512220D01*
X95225000Y-122070000D02*
X98825000Y-122070000D01*
X95225000Y-129430000D02*
X98825000Y-129430000D01*
X100705000Y-123950000D02*
X100705000Y-127550000D01*
X93345000Y-123950000D02*
X93345000Y-127550000D01*
X79325168Y-123912220D02*
X79325168Y-127512220D01*
X86685168Y-123912220D02*
X86685168Y-127512220D01*
X81205168Y-129392220D02*
X84805168Y-129392220D01*
X81205168Y-122032220D02*
X84805168Y-122032220D01*
X65904824Y-123912220D02*
X65904824Y-127512220D01*
X73264824Y-123912220D02*
X73264824Y-127512220D01*
X67784824Y-129392220D02*
X71384824Y-129392220D01*
X67784824Y-122032220D02*
X71384824Y-122032220D01*
X52962000Y-123930000D02*
X52962000Y-127530000D01*
X60322000Y-123930000D02*
X60322000Y-127530000D01*
X54842000Y-129410000D02*
X58442000Y-129410000D01*
X54842000Y-122050000D02*
X58442000Y-122050000D01*
D11*
X103160960Y-110223640D02*
X101935960Y-110223640D01*
X103160960Y-113348640D02*
X106510960Y-113348640D01*
X103160960Y-109998640D02*
X106510960Y-109998640D01*
X103160960Y-113348640D02*
X103160960Y-113048640D01*
X106510960Y-113348640D02*
X106510960Y-113048640D01*
X106510960Y-109998640D02*
X106510960Y-110298640D01*
X103160960Y-109998640D02*
X103160960Y-110223640D01*
D10*
X100426500Y-108361920D02*
X95026500Y-108361920D01*
X100426500Y-112861920D02*
X100426500Y-108361920D01*
X54457580Y-116923380D02*
X54457580Y-112423380D01*
X54457580Y-112423380D02*
X49057580Y-112423380D01*
X65778464Y-78927280D02*
X64574336Y-78927280D01*
X65778464Y-80747280D02*
X64574336Y-80747280D01*
X64614976Y-83387520D02*
X65819104Y-83387520D01*
X64614976Y-85207520D02*
X65819104Y-85207520D01*
X59471120Y-87008920D02*
X65481120Y-87008920D01*
X61721120Y-93828920D02*
X65481120Y-93828920D01*
X65481120Y-87008920D02*
X65481120Y-88268920D01*
X65481120Y-93828920D02*
X65481120Y-92568920D01*
X87905000Y-104742064D02*
X87905000Y-103537936D01*
X86085000Y-104742064D02*
X86085000Y-103537936D01*
X82910000Y-104742064D02*
X82910000Y-103537936D01*
X84730000Y-104742064D02*
X84730000Y-103537936D01*
X74160464Y-109102480D02*
X72956336Y-109102480D01*
X74160464Y-110922480D02*
X72956336Y-110922480D01*
X68862024Y-112151840D02*
X67657896Y-112151840D01*
X68862024Y-110331840D02*
X67657896Y-110331840D01*
X64082340Y-117993244D02*
X64082340Y-116789116D01*
X62262340Y-117993244D02*
X62262340Y-116789116D01*
X86072936Y-118585000D02*
X87277064Y-118585000D01*
X86072936Y-116765000D02*
X87277064Y-116765000D01*
X51285000Y-119497936D02*
X51285000Y-120702064D01*
X49465000Y-119497936D02*
X49465000Y-120702064D01*
X111289420Y-112031696D02*
X111289420Y-113235824D01*
X113109420Y-112031696D02*
X113109420Y-113235824D01*
X117739840Y-124152744D02*
X117739840Y-122948616D01*
X115919840Y-124152744D02*
X115919840Y-122948616D01*
X62214080Y-123637124D02*
X62214080Y-122432996D01*
X64034080Y-123637124D02*
X64034080Y-122432996D01*
D11*
X53231142Y-125864857D02*
X53278761Y-125912476D01*
X53326380Y-126055333D01*
X53326380Y-126150571D01*
X53278761Y-126293428D01*
X53183523Y-126388666D01*
X53088285Y-126436285D01*
X52897809Y-126483904D01*
X52754952Y-126483904D01*
X52564476Y-126436285D01*
X52469238Y-126388666D01*
X52374000Y-126293428D01*
X52326380Y-126150571D01*
X52326380Y-126055333D01*
X52374000Y-125912476D01*
X52421619Y-125864857D01*
X52421619Y-125483904D02*
X52374000Y-125436285D01*
X52326380Y-125341047D01*
X52326380Y-125102952D01*
X52374000Y-125007714D01*
X52421619Y-124960095D01*
X52516857Y-124912476D01*
X52612095Y-124912476D01*
X52754952Y-124960095D01*
X53326380Y-125531523D01*
X53326380Y-124912476D01*
X52326380Y-124007714D02*
X52326380Y-124483904D01*
X52802571Y-124531523D01*
X52754952Y-124483904D01*
X52707333Y-124388666D01*
X52707333Y-124150571D01*
X52754952Y-124055333D01*
X52802571Y-124007714D01*
X52897809Y-123960095D01*
X53135904Y-123960095D01*
X53231142Y-124007714D01*
X53278761Y-124055333D01*
X53326380Y-124150571D01*
X53326380Y-124388666D01*
X53278761Y-124483904D01*
X53231142Y-124531523D01*
X77107142Y-126880857D02*
X77154761Y-126928476D01*
X77202380Y-127071333D01*
X77202380Y-127166571D01*
X77154761Y-127309428D01*
X77059523Y-127404666D01*
X76964285Y-127452285D01*
X76773809Y-127499904D01*
X76630952Y-127499904D01*
X76440476Y-127452285D01*
X76345238Y-127404666D01*
X76250000Y-127309428D01*
X76202380Y-127166571D01*
X76202380Y-127071333D01*
X76250000Y-126928476D01*
X76297619Y-126880857D01*
X76297619Y-126499904D02*
X76250000Y-126452285D01*
X76202380Y-126357047D01*
X76202380Y-126118952D01*
X76250000Y-126023714D01*
X76297619Y-125976095D01*
X76392857Y-125928476D01*
X76488095Y-125928476D01*
X76630952Y-125976095D01*
X77202380Y-126547523D01*
X77202380Y-125928476D01*
X76535714Y-125071333D02*
X77202380Y-125071333D01*
X76154761Y-125309428D02*
X76869047Y-125547523D01*
X76869047Y-124928476D01*
X90823142Y-125864857D02*
X90870761Y-125912476D01*
X90918380Y-126055333D01*
X90918380Y-126150571D01*
X90870761Y-126293428D01*
X90775523Y-126388666D01*
X90680285Y-126436285D01*
X90489809Y-126483904D01*
X90346952Y-126483904D01*
X90156476Y-126436285D01*
X90061238Y-126388666D01*
X89966000Y-126293428D01*
X89918380Y-126150571D01*
X89918380Y-126055333D01*
X89966000Y-125912476D01*
X90013619Y-125864857D01*
X90013619Y-125483904D02*
X89966000Y-125436285D01*
X89918380Y-125341047D01*
X89918380Y-125102952D01*
X89966000Y-125007714D01*
X90013619Y-124960095D01*
X90108857Y-124912476D01*
X90204095Y-124912476D01*
X90346952Y-124960095D01*
X90918380Y-125531523D01*
X90918380Y-124912476D01*
X89918380Y-124579142D02*
X89918380Y-123960095D01*
X90299333Y-124293428D01*
X90299333Y-124150571D01*
X90346952Y-124055333D01*
X90394571Y-124007714D01*
X90489809Y-123960095D01*
X90727904Y-123960095D01*
X90823142Y-124007714D01*
X90870761Y-124055333D01*
X90918380Y-124150571D01*
X90918380Y-124436285D01*
X90870761Y-124531523D01*
X90823142Y-124579142D01*
X89527142Y-127823142D02*
X89479523Y-127870761D01*
X89336666Y-127918380D01*
X89241428Y-127918380D01*
X89098571Y-127870761D01*
X89003333Y-127775523D01*
X88955714Y-127680285D01*
X88908095Y-127489809D01*
X88908095Y-127346952D01*
X88955714Y-127156476D01*
X89003333Y-127061238D01*
X89098571Y-126966000D01*
X89241428Y-126918380D01*
X89336666Y-126918380D01*
X89479523Y-126966000D01*
X89527142Y-127013619D01*
X89908095Y-127013619D02*
X89955714Y-126966000D01*
X90050952Y-126918380D01*
X90289047Y-126918380D01*
X90384285Y-126966000D01*
X90431904Y-127013619D01*
X90479523Y-127108857D01*
X90479523Y-127204095D01*
X90431904Y-127346952D01*
X89860476Y-127918380D01*
X90479523Y-127918380D01*
X90860476Y-127013619D02*
X90908095Y-126966000D01*
X91003333Y-126918380D01*
X91241428Y-126918380D01*
X91336666Y-126966000D01*
X91384285Y-127013619D01*
X91431904Y-127108857D01*
X91431904Y-127204095D01*
X91384285Y-127346952D01*
X90812857Y-127918380D01*
X91431904Y-127918380D01*
X107587142Y-124594857D02*
X107634761Y-124642476D01*
X107682380Y-124785333D01*
X107682380Y-124880571D01*
X107634761Y-125023428D01*
X107539523Y-125118666D01*
X107444285Y-125166285D01*
X107253809Y-125213904D01*
X107110952Y-125213904D01*
X106920476Y-125166285D01*
X106825238Y-125118666D01*
X106730000Y-125023428D01*
X106682380Y-124880571D01*
X106682380Y-124785333D01*
X106730000Y-124642476D01*
X106777619Y-124594857D01*
X106777619Y-124213904D02*
X106730000Y-124166285D01*
X106682380Y-124071047D01*
X106682380Y-123832952D01*
X106730000Y-123737714D01*
X106777619Y-123690095D01*
X106872857Y-123642476D01*
X106968095Y-123642476D01*
X107110952Y-123690095D01*
X107682380Y-124261523D01*
X107682380Y-123642476D01*
X107682380Y-122690095D02*
X107682380Y-123261523D01*
X107682380Y-122975809D02*
X106682380Y-122975809D01*
X106825238Y-123071047D01*
X106920476Y-123166285D01*
X106968095Y-123261523D01*
X131463142Y-124594857D02*
X131510761Y-124642476D01*
X131558380Y-124785333D01*
X131558380Y-124880571D01*
X131510761Y-125023428D01*
X131415523Y-125118666D01*
X131320285Y-125166285D01*
X131129809Y-125213904D01*
X130986952Y-125213904D01*
X130796476Y-125166285D01*
X130701238Y-125118666D01*
X130606000Y-125023428D01*
X130558380Y-124880571D01*
X130558380Y-124785333D01*
X130606000Y-124642476D01*
X130653619Y-124594857D01*
X130653619Y-124213904D02*
X130606000Y-124166285D01*
X130558380Y-124071047D01*
X130558380Y-123832952D01*
X130606000Y-123737714D01*
X130653619Y-123690095D01*
X130748857Y-123642476D01*
X130844095Y-123642476D01*
X130986952Y-123690095D01*
X131558380Y-124261523D01*
X131558380Y-123642476D01*
X130558380Y-123023428D02*
X130558380Y-122928190D01*
X130606000Y-122832952D01*
X130653619Y-122785333D01*
X130748857Y-122737714D01*
X130939333Y-122690095D01*
X131177428Y-122690095D01*
X131367904Y-122737714D01*
X131463142Y-122785333D01*
X131510761Y-122832952D01*
X131558380Y-122928190D01*
X131558380Y-123023428D01*
X131510761Y-123118666D01*
X131463142Y-123166285D01*
X131367904Y-123213904D01*
X131177428Y-123261523D01*
X130939333Y-123261523D01*
X130748857Y-123213904D01*
X130653619Y-123166285D01*
X130606000Y-123118666D01*
X130558380Y-123023428D01*
X103079642Y-68852142D02*
X103032023Y-68899761D01*
X102889166Y-68947380D01*
X102793928Y-68947380D01*
X102651071Y-68899761D01*
X102555833Y-68804523D01*
X102508214Y-68709285D01*
X102460595Y-68518809D01*
X102460595Y-68375952D01*
X102508214Y-68185476D01*
X102555833Y-68090238D01*
X102651071Y-67995000D01*
X102793928Y-67947380D01*
X102889166Y-67947380D01*
X103032023Y-67995000D01*
X103079642Y-68042619D01*
X104032023Y-68947380D02*
X103460595Y-68947380D01*
X103746309Y-68947380D02*
X103746309Y-67947380D01*
X103651071Y-68090238D01*
X103555833Y-68185476D01*
X103460595Y-68233095D01*
X104508214Y-68947380D02*
X104698690Y-68947380D01*
X104793928Y-68899761D01*
X104841547Y-68852142D01*
X104936785Y-68709285D01*
X104984404Y-68518809D01*
X104984404Y-68137857D01*
X104936785Y-68042619D01*
X104889166Y-67995000D01*
X104793928Y-67947380D01*
X104603452Y-67947380D01*
X104508214Y-67995000D01*
X104460595Y-68042619D01*
X104412976Y-68137857D01*
X104412976Y-68375952D01*
X104460595Y-68471190D01*
X104508214Y-68518809D01*
X104603452Y-68566428D01*
X104793928Y-68566428D01*
X104889166Y-68518809D01*
X104936785Y-68471190D01*
X104984404Y-68375952D01*
X139348095Y-119092380D02*
X139348095Y-119901904D01*
X139395714Y-119997142D01*
X139443333Y-120044761D01*
X139538571Y-120092380D01*
X139729047Y-120092380D01*
X139824285Y-120044761D01*
X139871904Y-119997142D01*
X139919523Y-119901904D01*
X139919523Y-119092380D01*
X140348095Y-119187619D02*
X140395714Y-119140000D01*
X140490952Y-119092380D01*
X140729047Y-119092380D01*
X140824285Y-119140000D01*
X140871904Y-119187619D01*
X140919523Y-119282857D01*
X140919523Y-119378095D01*
X140871904Y-119520952D01*
X140300476Y-120092380D01*
X140919523Y-120092380D01*
X142232142Y-94136380D02*
X141898809Y-93660190D01*
X141660714Y-94136380D02*
X141660714Y-93136380D01*
X142041666Y-93136380D01*
X142136904Y-93184000D01*
X142184523Y-93231619D01*
X142232142Y-93326857D01*
X142232142Y-93469714D01*
X142184523Y-93564952D01*
X142136904Y-93612571D01*
X142041666Y-93660190D01*
X141660714Y-93660190D01*
X143089285Y-93469714D02*
X143089285Y-94136380D01*
X142851190Y-93088761D02*
X142613095Y-93803047D01*
X143232142Y-93803047D01*
X143803571Y-93136380D02*
X143898809Y-93136380D01*
X143994047Y-93184000D01*
X144041666Y-93231619D01*
X144089285Y-93326857D01*
X144136904Y-93517333D01*
X144136904Y-93755428D01*
X144089285Y-93945904D01*
X144041666Y-94041142D01*
X143994047Y-94088761D01*
X143898809Y-94136380D01*
X143803571Y-94136380D01*
X143708333Y-94088761D01*
X143660714Y-94041142D01*
X143613095Y-93945904D01*
X143565476Y-93755428D01*
X143565476Y-93517333D01*
X143613095Y-93326857D01*
X143660714Y-93231619D01*
X143708333Y-93184000D01*
X143803571Y-93136380D01*
X136517142Y-94136380D02*
X136183809Y-93660190D01*
X135945714Y-94136380D02*
X135945714Y-93136380D01*
X136326666Y-93136380D01*
X136421904Y-93184000D01*
X136469523Y-93231619D01*
X136517142Y-93326857D01*
X136517142Y-93469714D01*
X136469523Y-93564952D01*
X136421904Y-93612571D01*
X136326666Y-93660190D01*
X135945714Y-93660190D01*
X136850476Y-93136380D02*
X137469523Y-93136380D01*
X137136190Y-93517333D01*
X137279047Y-93517333D01*
X137374285Y-93564952D01*
X137421904Y-93612571D01*
X137469523Y-93707809D01*
X137469523Y-93945904D01*
X137421904Y-94041142D01*
X137374285Y-94088761D01*
X137279047Y-94136380D01*
X136993333Y-94136380D01*
X136898095Y-94088761D01*
X136850476Y-94041142D01*
X137945714Y-94136380D02*
X138136190Y-94136380D01*
X138231428Y-94088761D01*
X138279047Y-94041142D01*
X138374285Y-93898285D01*
X138421904Y-93707809D01*
X138421904Y-93326857D01*
X138374285Y-93231619D01*
X138326666Y-93184000D01*
X138231428Y-93136380D01*
X138040952Y-93136380D01*
X137945714Y-93184000D01*
X137898095Y-93231619D01*
X137850476Y-93326857D01*
X137850476Y-93564952D01*
X137898095Y-93660190D01*
X137945714Y-93707809D01*
X138040952Y-93755428D01*
X138231428Y-93755428D01*
X138326666Y-93707809D01*
X138374285Y-93660190D01*
X138421904Y-93564952D01*
X135002380Y-104878095D02*
X134002380Y-104878095D01*
X134002380Y-104640000D01*
X134050000Y-104497142D01*
X134145238Y-104401904D01*
X134240476Y-104354285D01*
X134430952Y-104306666D01*
X134573809Y-104306666D01*
X134764285Y-104354285D01*
X134859523Y-104401904D01*
X134954761Y-104497142D01*
X135002380Y-104640000D01*
X135002380Y-104878095D01*
X135002380Y-103354285D02*
X135002380Y-103925714D01*
X135002380Y-103640000D02*
X134002380Y-103640000D01*
X134145238Y-103735238D01*
X134240476Y-103830476D01*
X134288095Y-103925714D01*
X134632380Y-99321904D02*
X133632380Y-99321904D01*
X134632380Y-98750476D02*
X134060952Y-99179047D01*
X133632380Y-98750476D02*
X134203809Y-99321904D01*
X144213142Y-82389142D02*
X144165523Y-82436761D01*
X144022666Y-82484380D01*
X143927428Y-82484380D01*
X143784571Y-82436761D01*
X143689333Y-82341523D01*
X143641714Y-82246285D01*
X143594095Y-82055809D01*
X143594095Y-81912952D01*
X143641714Y-81722476D01*
X143689333Y-81627238D01*
X143784571Y-81532000D01*
X143927428Y-81484380D01*
X144022666Y-81484380D01*
X144165523Y-81532000D01*
X144213142Y-81579619D01*
X145165523Y-82484380D02*
X144594095Y-82484380D01*
X144879809Y-82484380D02*
X144879809Y-81484380D01*
X144784571Y-81627238D01*
X144689333Y-81722476D01*
X144594095Y-81770095D01*
X145784571Y-81484380D02*
X145879809Y-81484380D01*
X145975047Y-81532000D01*
X146022666Y-81579619D01*
X146070285Y-81674857D01*
X146117904Y-81865333D01*
X146117904Y-82103428D01*
X146070285Y-82293904D01*
X146022666Y-82389142D01*
X145975047Y-82436761D01*
X145879809Y-82484380D01*
X145784571Y-82484380D01*
X145689333Y-82436761D01*
X145641714Y-82389142D01*
X145594095Y-82293904D01*
X145546476Y-82103428D01*
X145546476Y-81865333D01*
X145594095Y-81674857D01*
X145641714Y-81579619D01*
X145689333Y-81532000D01*
X145784571Y-81484380D01*
X132469333Y-82389142D02*
X132421714Y-82436761D01*
X132278857Y-82484380D01*
X132183619Y-82484380D01*
X132040761Y-82436761D01*
X131945523Y-82341523D01*
X131897904Y-82246285D01*
X131850285Y-82055809D01*
X131850285Y-81912952D01*
X131897904Y-81722476D01*
X131945523Y-81627238D01*
X132040761Y-81532000D01*
X132183619Y-81484380D01*
X132278857Y-81484380D01*
X132421714Y-81532000D01*
X132469333Y-81579619D01*
X133326476Y-81484380D02*
X133136000Y-81484380D01*
X133040761Y-81532000D01*
X132993142Y-81579619D01*
X132897904Y-81722476D01*
X132850285Y-81912952D01*
X132850285Y-82293904D01*
X132897904Y-82389142D01*
X132945523Y-82436761D01*
X133040761Y-82484380D01*
X133231238Y-82484380D01*
X133326476Y-82436761D01*
X133374095Y-82389142D01*
X133421714Y-82293904D01*
X133421714Y-82055809D01*
X133374095Y-81960571D01*
X133326476Y-81912952D01*
X133231238Y-81865333D01*
X133040761Y-81865333D01*
X132945523Y-81912952D01*
X132897904Y-81960571D01*
X132850285Y-82055809D01*
X65931142Y-68206857D02*
X65978761Y-68254476D01*
X66026380Y-68397333D01*
X66026380Y-68492571D01*
X65978761Y-68635428D01*
X65883523Y-68730666D01*
X65788285Y-68778285D01*
X65597809Y-68825904D01*
X65454952Y-68825904D01*
X65264476Y-68778285D01*
X65169238Y-68730666D01*
X65074000Y-68635428D01*
X65026380Y-68492571D01*
X65026380Y-68397333D01*
X65074000Y-68254476D01*
X65121619Y-68206857D01*
X66026380Y-67254476D02*
X66026380Y-67825904D01*
X66026380Y-67540190D02*
X65026380Y-67540190D01*
X65169238Y-67635428D01*
X65264476Y-67730666D01*
X65312095Y-67825904D01*
X65454952Y-66683047D02*
X65407333Y-66778285D01*
X65359714Y-66825904D01*
X65264476Y-66873523D01*
X65216857Y-66873523D01*
X65121619Y-66825904D01*
X65074000Y-66778285D01*
X65026380Y-66683047D01*
X65026380Y-66492571D01*
X65074000Y-66397333D01*
X65121619Y-66349714D01*
X65216857Y-66302095D01*
X65264476Y-66302095D01*
X65359714Y-66349714D01*
X65407333Y-66397333D01*
X65454952Y-66492571D01*
X65454952Y-66683047D01*
X65502571Y-66778285D01*
X65550190Y-66825904D01*
X65645428Y-66873523D01*
X65835904Y-66873523D01*
X65931142Y-66825904D01*
X65978761Y-66778285D01*
X66026380Y-66683047D01*
X66026380Y-66492571D01*
X65978761Y-66397333D01*
X65931142Y-66349714D01*
X65835904Y-66302095D01*
X65645428Y-66302095D01*
X65550190Y-66349714D01*
X65502571Y-66397333D01*
X65454952Y-66492571D01*
X79742380Y-126880857D02*
X79266190Y-127214190D01*
X79742380Y-127452285D02*
X78742380Y-127452285D01*
X78742380Y-127071333D01*
X78790000Y-126976095D01*
X78837619Y-126928476D01*
X78932857Y-126880857D01*
X79075714Y-126880857D01*
X79170952Y-126928476D01*
X79218571Y-126976095D01*
X79266190Y-127071333D01*
X79266190Y-127452285D01*
X78742380Y-126547523D02*
X78742380Y-125928476D01*
X79123333Y-126261809D01*
X79123333Y-126118952D01*
X79170952Y-126023714D01*
X79218571Y-125976095D01*
X79313809Y-125928476D01*
X79551904Y-125928476D01*
X79647142Y-125976095D01*
X79694761Y-126023714D01*
X79742380Y-126118952D01*
X79742380Y-126404666D01*
X79694761Y-126499904D01*
X79647142Y-126547523D01*
X78742380Y-125595142D02*
X78742380Y-124928476D01*
X79742380Y-125357047D01*
X47371380Y-121093857D02*
X46895190Y-121427190D01*
X47371380Y-121665285D02*
X46371380Y-121665285D01*
X46371380Y-121284333D01*
X46419000Y-121189095D01*
X46466619Y-121141476D01*
X46561857Y-121093857D01*
X46704714Y-121093857D01*
X46799952Y-121141476D01*
X46847571Y-121189095D01*
X46895190Y-121284333D01*
X46895190Y-121665285D01*
X46371380Y-120760523D02*
X46371380Y-120141476D01*
X46752333Y-120474809D01*
X46752333Y-120331952D01*
X46799952Y-120236714D01*
X46847571Y-120189095D01*
X46942809Y-120141476D01*
X47180904Y-120141476D01*
X47276142Y-120189095D01*
X47323761Y-120236714D01*
X47371380Y-120331952D01*
X47371380Y-120617666D01*
X47323761Y-120712904D01*
X47276142Y-120760523D01*
X46704714Y-119284333D02*
X47371380Y-119284333D01*
X46323761Y-119522428D02*
X47038047Y-119760523D01*
X47038047Y-119141476D01*
X80907142Y-116597380D02*
X80573809Y-116121190D01*
X80335714Y-116597380D02*
X80335714Y-115597380D01*
X80716666Y-115597380D01*
X80811904Y-115645000D01*
X80859523Y-115692619D01*
X80907142Y-115787857D01*
X80907142Y-115930714D01*
X80859523Y-116025952D01*
X80811904Y-116073571D01*
X80716666Y-116121190D01*
X80335714Y-116121190D01*
X81240476Y-115597380D02*
X81859523Y-115597380D01*
X81526190Y-115978333D01*
X81669047Y-115978333D01*
X81764285Y-116025952D01*
X81811904Y-116073571D01*
X81859523Y-116168809D01*
X81859523Y-116406904D01*
X81811904Y-116502142D01*
X81764285Y-116549761D01*
X81669047Y-116597380D01*
X81383333Y-116597380D01*
X81288095Y-116549761D01*
X81240476Y-116502142D01*
X82192857Y-115597380D02*
X82811904Y-115597380D01*
X82478571Y-115978333D01*
X82621428Y-115978333D01*
X82716666Y-116025952D01*
X82764285Y-116073571D01*
X82811904Y-116168809D01*
X82811904Y-116406904D01*
X82764285Y-116502142D01*
X82716666Y-116549761D01*
X82621428Y-116597380D01*
X82335714Y-116597380D01*
X82240476Y-116549761D01*
X82192857Y-116502142D01*
X66482142Y-121622380D02*
X66148809Y-121146190D01*
X65910714Y-121622380D02*
X65910714Y-120622380D01*
X66291666Y-120622380D01*
X66386904Y-120670000D01*
X66434523Y-120717619D01*
X66482142Y-120812857D01*
X66482142Y-120955714D01*
X66434523Y-121050952D01*
X66386904Y-121098571D01*
X66291666Y-121146190D01*
X65910714Y-121146190D01*
X66863095Y-120717619D02*
X66910714Y-120670000D01*
X67005952Y-120622380D01*
X67244047Y-120622380D01*
X67339285Y-120670000D01*
X67386904Y-120717619D01*
X67434523Y-120812857D01*
X67434523Y-120908095D01*
X67386904Y-121050952D01*
X66815476Y-121622380D01*
X67434523Y-121622380D01*
X68339285Y-120622380D02*
X67863095Y-120622380D01*
X67815476Y-121098571D01*
X67863095Y-121050952D01*
X67958333Y-121003333D01*
X68196428Y-121003333D01*
X68291666Y-121050952D01*
X68339285Y-121098571D01*
X68386904Y-121193809D01*
X68386904Y-121431904D01*
X68339285Y-121527142D01*
X68291666Y-121574761D01*
X68196428Y-121622380D01*
X67958333Y-121622380D01*
X67863095Y-121574761D01*
X67815476Y-121527142D01*
X45387380Y-120572857D02*
X44911190Y-120906190D01*
X45387380Y-121144285D02*
X44387380Y-121144285D01*
X44387380Y-120763333D01*
X44435000Y-120668095D01*
X44482619Y-120620476D01*
X44577857Y-120572857D01*
X44720714Y-120572857D01*
X44815952Y-120620476D01*
X44863571Y-120668095D01*
X44911190Y-120763333D01*
X44911190Y-121144285D01*
X44482619Y-120191904D02*
X44435000Y-120144285D01*
X44387380Y-120049047D01*
X44387380Y-119810952D01*
X44435000Y-119715714D01*
X44482619Y-119668095D01*
X44577857Y-119620476D01*
X44673095Y-119620476D01*
X44815952Y-119668095D01*
X45387380Y-120239523D01*
X45387380Y-119620476D01*
X44482619Y-119239523D02*
X44435000Y-119191904D01*
X44387380Y-119096666D01*
X44387380Y-118858571D01*
X44435000Y-118763333D01*
X44482619Y-118715714D01*
X44577857Y-118668095D01*
X44673095Y-118668095D01*
X44815952Y-118715714D01*
X45387380Y-119287142D01*
X45387380Y-118668095D01*
X80807142Y-119922380D02*
X80473809Y-119446190D01*
X80235714Y-119922380D02*
X80235714Y-118922380D01*
X80616666Y-118922380D01*
X80711904Y-118970000D01*
X80759523Y-119017619D01*
X80807142Y-119112857D01*
X80807142Y-119255714D01*
X80759523Y-119350952D01*
X80711904Y-119398571D01*
X80616666Y-119446190D01*
X80235714Y-119446190D01*
X81188095Y-119017619D02*
X81235714Y-118970000D01*
X81330952Y-118922380D01*
X81569047Y-118922380D01*
X81664285Y-118970000D01*
X81711904Y-119017619D01*
X81759523Y-119112857D01*
X81759523Y-119208095D01*
X81711904Y-119350952D01*
X81140476Y-119922380D01*
X81759523Y-119922380D01*
X82711904Y-119922380D02*
X82140476Y-119922380D01*
X82426190Y-119922380D02*
X82426190Y-118922380D01*
X82330952Y-119065238D01*
X82235714Y-119160476D01*
X82140476Y-119208095D01*
X104042380Y-119260857D02*
X103566190Y-119594190D01*
X104042380Y-119832285D02*
X103042380Y-119832285D01*
X103042380Y-119451333D01*
X103090000Y-119356095D01*
X103137619Y-119308476D01*
X103232857Y-119260857D01*
X103375714Y-119260857D01*
X103470952Y-119308476D01*
X103518571Y-119356095D01*
X103566190Y-119451333D01*
X103566190Y-119832285D01*
X103042380Y-118927523D02*
X103042380Y-118308476D01*
X103423333Y-118641809D01*
X103423333Y-118498952D01*
X103470952Y-118403714D01*
X103518571Y-118356095D01*
X103613809Y-118308476D01*
X103851904Y-118308476D01*
X103947142Y-118356095D01*
X103994761Y-118403714D01*
X104042380Y-118498952D01*
X104042380Y-118784666D01*
X103994761Y-118879904D01*
X103947142Y-118927523D01*
X103470952Y-117737047D02*
X103423333Y-117832285D01*
X103375714Y-117879904D01*
X103280476Y-117927523D01*
X103232857Y-117927523D01*
X103137619Y-117879904D01*
X103090000Y-117832285D01*
X103042380Y-117737047D01*
X103042380Y-117546571D01*
X103090000Y-117451333D01*
X103137619Y-117403714D01*
X103232857Y-117356095D01*
X103280476Y-117356095D01*
X103375714Y-117403714D01*
X103423333Y-117451333D01*
X103470952Y-117546571D01*
X103470952Y-117737047D01*
X103518571Y-117832285D01*
X103566190Y-117879904D01*
X103661428Y-117927523D01*
X103851904Y-117927523D01*
X103947142Y-117879904D01*
X103994761Y-117832285D01*
X104042380Y-117737047D01*
X104042380Y-117546571D01*
X103994761Y-117451333D01*
X103947142Y-117403714D01*
X103851904Y-117356095D01*
X103661428Y-117356095D01*
X103566190Y-117403714D01*
X103518571Y-117451333D01*
X103470952Y-117546571D01*
X93712380Y-125864857D02*
X93236190Y-126198190D01*
X93712380Y-126436285D02*
X92712380Y-126436285D01*
X92712380Y-126055333D01*
X92760000Y-125960095D01*
X92807619Y-125912476D01*
X92902857Y-125864857D01*
X93045714Y-125864857D01*
X93140952Y-125912476D01*
X93188571Y-125960095D01*
X93236190Y-126055333D01*
X93236190Y-126436285D01*
X92712380Y-125531523D02*
X92712380Y-124912476D01*
X93093333Y-125245809D01*
X93093333Y-125102952D01*
X93140952Y-125007714D01*
X93188571Y-124960095D01*
X93283809Y-124912476D01*
X93521904Y-124912476D01*
X93617142Y-124960095D01*
X93664761Y-125007714D01*
X93712380Y-125102952D01*
X93712380Y-125388666D01*
X93664761Y-125483904D01*
X93617142Y-125531523D01*
X92712380Y-124055333D02*
X92712380Y-124245809D01*
X92760000Y-124341047D01*
X92807619Y-124388666D01*
X92950476Y-124483904D01*
X93140952Y-124531523D01*
X93521904Y-124531523D01*
X93617142Y-124483904D01*
X93664761Y-124436285D01*
X93712380Y-124341047D01*
X93712380Y-124150571D01*
X93664761Y-124055333D01*
X93617142Y-124007714D01*
X93521904Y-123960095D01*
X93283809Y-123960095D01*
X93188571Y-124007714D01*
X93140952Y-124055333D01*
X93093333Y-124150571D01*
X93093333Y-124341047D01*
X93140952Y-124436285D01*
X93188571Y-124483904D01*
X93283809Y-124531523D01*
X110422380Y-119217857D02*
X109946190Y-119551190D01*
X110422380Y-119789285D02*
X109422380Y-119789285D01*
X109422380Y-119408333D01*
X109470000Y-119313095D01*
X109517619Y-119265476D01*
X109612857Y-119217857D01*
X109755714Y-119217857D01*
X109850952Y-119265476D01*
X109898571Y-119313095D01*
X109946190Y-119408333D01*
X109946190Y-119789285D01*
X109517619Y-118836904D02*
X109470000Y-118789285D01*
X109422380Y-118694047D01*
X109422380Y-118455952D01*
X109470000Y-118360714D01*
X109517619Y-118313095D01*
X109612857Y-118265476D01*
X109708095Y-118265476D01*
X109850952Y-118313095D01*
X110422380Y-118884523D01*
X110422380Y-118265476D01*
X110422380Y-117789285D02*
X110422380Y-117598809D01*
X110374761Y-117503571D01*
X110327142Y-117455952D01*
X110184285Y-117360714D01*
X109993809Y-117313095D01*
X109612857Y-117313095D01*
X109517619Y-117360714D01*
X109470000Y-117408333D01*
X109422380Y-117503571D01*
X109422380Y-117694047D01*
X109470000Y-117789285D01*
X109517619Y-117836904D01*
X109612857Y-117884523D01*
X109850952Y-117884523D01*
X109946190Y-117836904D01*
X109993809Y-117789285D01*
X110041428Y-117694047D01*
X110041428Y-117503571D01*
X109993809Y-117408333D01*
X109946190Y-117360714D01*
X109850952Y-117313095D01*
X100257142Y-117532380D02*
X99923809Y-117056190D01*
X99685714Y-117532380D02*
X99685714Y-116532380D01*
X100066666Y-116532380D01*
X100161904Y-116580000D01*
X100209523Y-116627619D01*
X100257142Y-116722857D01*
X100257142Y-116865714D01*
X100209523Y-116960952D01*
X100161904Y-117008571D01*
X100066666Y-117056190D01*
X99685714Y-117056190D01*
X100638095Y-116627619D02*
X100685714Y-116580000D01*
X100780952Y-116532380D01*
X101019047Y-116532380D01*
X101114285Y-116580000D01*
X101161904Y-116627619D01*
X101209523Y-116722857D01*
X101209523Y-116818095D01*
X101161904Y-116960952D01*
X100590476Y-117532380D01*
X101209523Y-117532380D01*
X102066666Y-116865714D02*
X102066666Y-117532380D01*
X101828571Y-116484761D02*
X101590476Y-117199047D01*
X102209523Y-117199047D01*
X126157380Y-119292857D02*
X125681190Y-119626190D01*
X126157380Y-119864285D02*
X125157380Y-119864285D01*
X125157380Y-119483333D01*
X125205000Y-119388095D01*
X125252619Y-119340476D01*
X125347857Y-119292857D01*
X125490714Y-119292857D01*
X125585952Y-119340476D01*
X125633571Y-119388095D01*
X125681190Y-119483333D01*
X125681190Y-119864285D01*
X125157380Y-118959523D02*
X125157380Y-118340476D01*
X125538333Y-118673809D01*
X125538333Y-118530952D01*
X125585952Y-118435714D01*
X125633571Y-118388095D01*
X125728809Y-118340476D01*
X125966904Y-118340476D01*
X126062142Y-118388095D01*
X126109761Y-118435714D01*
X126157380Y-118530952D01*
X126157380Y-118816666D01*
X126109761Y-118911904D01*
X126062142Y-118959523D01*
X125252619Y-117959523D02*
X125205000Y-117911904D01*
X125157380Y-117816666D01*
X125157380Y-117578571D01*
X125205000Y-117483333D01*
X125252619Y-117435714D01*
X125347857Y-117388095D01*
X125443095Y-117388095D01*
X125585952Y-117435714D01*
X126157380Y-118007142D01*
X126157380Y-117388095D01*
X123092380Y-113672857D02*
X122616190Y-114006190D01*
X123092380Y-114244285D02*
X122092380Y-114244285D01*
X122092380Y-113863333D01*
X122140000Y-113768095D01*
X122187619Y-113720476D01*
X122282857Y-113672857D01*
X122425714Y-113672857D01*
X122520952Y-113720476D01*
X122568571Y-113768095D01*
X122616190Y-113863333D01*
X122616190Y-114244285D01*
X122187619Y-113291904D02*
X122140000Y-113244285D01*
X122092380Y-113149047D01*
X122092380Y-112910952D01*
X122140000Y-112815714D01*
X122187619Y-112768095D01*
X122282857Y-112720476D01*
X122378095Y-112720476D01*
X122520952Y-112768095D01*
X123092380Y-113339523D01*
X123092380Y-112720476D01*
X122092380Y-112387142D02*
X122092380Y-111768095D01*
X122473333Y-112101428D01*
X122473333Y-111958571D01*
X122520952Y-111863333D01*
X122568571Y-111815714D01*
X122663809Y-111768095D01*
X122901904Y-111768095D01*
X122997142Y-111815714D01*
X123044761Y-111863333D01*
X123092380Y-111958571D01*
X123092380Y-112244285D01*
X123044761Y-112339523D01*
X122997142Y-112387142D01*
X71632142Y-118007380D02*
X71298809Y-117531190D01*
X71060714Y-118007380D02*
X71060714Y-117007380D01*
X71441666Y-117007380D01*
X71536904Y-117055000D01*
X71584523Y-117102619D01*
X71632142Y-117197857D01*
X71632142Y-117340714D01*
X71584523Y-117435952D01*
X71536904Y-117483571D01*
X71441666Y-117531190D01*
X71060714Y-117531190D01*
X71965476Y-117007380D02*
X72584523Y-117007380D01*
X72251190Y-117388333D01*
X72394047Y-117388333D01*
X72489285Y-117435952D01*
X72536904Y-117483571D01*
X72584523Y-117578809D01*
X72584523Y-117816904D01*
X72536904Y-117912142D01*
X72489285Y-117959761D01*
X72394047Y-118007380D01*
X72108333Y-118007380D01*
X72013095Y-117959761D01*
X71965476Y-117912142D01*
X73536904Y-118007380D02*
X72965476Y-118007380D01*
X73251190Y-118007380D02*
X73251190Y-117007380D01*
X73155952Y-117150238D01*
X73060714Y-117245476D01*
X72965476Y-117293095D01*
X115708441Y-116104279D02*
X115613203Y-116056660D01*
X115517965Y-115961421D01*
X115375108Y-115818564D01*
X115279870Y-115770945D01*
X115184632Y-115770945D01*
X115232251Y-116009040D02*
X115137013Y-115961421D01*
X115041775Y-115866183D01*
X114994156Y-115675707D01*
X114994156Y-115342374D01*
X115041775Y-115151898D01*
X115137013Y-115056660D01*
X115232251Y-115009040D01*
X115422727Y-115009040D01*
X115517965Y-115056660D01*
X115613203Y-115151898D01*
X115660822Y-115342374D01*
X115660822Y-115675707D01*
X115613203Y-115866183D01*
X115517965Y-115961421D01*
X115422727Y-116009040D01*
X115232251Y-116009040D01*
X116517965Y-115009040D02*
X116327489Y-115009040D01*
X116232251Y-115056660D01*
X116184632Y-115104279D01*
X116089394Y-115247136D01*
X116041775Y-115437612D01*
X116041775Y-115818564D01*
X116089394Y-115913802D01*
X116137013Y-115961421D01*
X116232251Y-116009040D01*
X116422727Y-116009040D01*
X116517965Y-115961421D01*
X116565584Y-115913802D01*
X116613203Y-115818564D01*
X116613203Y-115580469D01*
X116565584Y-115485231D01*
X116517965Y-115437612D01*
X116422727Y-115389993D01*
X116232251Y-115389993D01*
X116137013Y-115437612D01*
X116089394Y-115485231D01*
X116041775Y-115580469D01*
X95528141Y-115080659D02*
X95432903Y-115033040D01*
X95337665Y-114937801D01*
X95194808Y-114794944D01*
X95099570Y-114747325D01*
X95004332Y-114747325D01*
X95051951Y-114985420D02*
X94956713Y-114937801D01*
X94861475Y-114842563D01*
X94813856Y-114652087D01*
X94813856Y-114318754D01*
X94861475Y-114128278D01*
X94956713Y-114033040D01*
X95051951Y-113985420D01*
X95242427Y-113985420D01*
X95337665Y-114033040D01*
X95432903Y-114128278D01*
X95480522Y-114318754D01*
X95480522Y-114652087D01*
X95432903Y-114842563D01*
X95337665Y-114937801D01*
X95242427Y-114985420D01*
X95051951Y-114985420D01*
X96337665Y-114318754D02*
X96337665Y-114985420D01*
X96099570Y-113937801D02*
X95861475Y-114652087D01*
X96480522Y-114652087D01*
X120417601Y-121048399D02*
X120322363Y-121000780D01*
X120227125Y-120905541D01*
X120084268Y-120762684D01*
X119989030Y-120715065D01*
X119893792Y-120715065D01*
X119941411Y-120953160D02*
X119846173Y-120905541D01*
X119750935Y-120810303D01*
X119703316Y-120619827D01*
X119703316Y-120286494D01*
X119750935Y-120096018D01*
X119846173Y-120000780D01*
X119941411Y-119953160D01*
X120131887Y-119953160D01*
X120227125Y-120000780D01*
X120322363Y-120096018D01*
X120369982Y-120286494D01*
X120369982Y-120619827D01*
X120322363Y-120810303D01*
X120227125Y-120905541D01*
X120131887Y-120953160D01*
X119941411Y-120953160D01*
X120703316Y-119953160D02*
X121322363Y-119953160D01*
X120989030Y-120334113D01*
X121131887Y-120334113D01*
X121227125Y-120381732D01*
X121274744Y-120429351D01*
X121322363Y-120524589D01*
X121322363Y-120762684D01*
X121274744Y-120857922D01*
X121227125Y-120905541D01*
X121131887Y-120953160D01*
X120846173Y-120953160D01*
X120750935Y-120905541D01*
X120703316Y-120857922D01*
X64928761Y-115355619D02*
X64833523Y-115308000D01*
X64738285Y-115212761D01*
X64595428Y-115069904D01*
X64500190Y-115022285D01*
X64404952Y-115022285D01*
X64452571Y-115260380D02*
X64357333Y-115212761D01*
X64262095Y-115117523D01*
X64214476Y-114927047D01*
X64214476Y-114593714D01*
X64262095Y-114403238D01*
X64357333Y-114308000D01*
X64452571Y-114260380D01*
X64643047Y-114260380D01*
X64738285Y-114308000D01*
X64833523Y-114403238D01*
X64881142Y-114593714D01*
X64881142Y-114927047D01*
X64833523Y-115117523D01*
X64738285Y-115212761D01*
X64643047Y-115260380D01*
X64452571Y-115260380D01*
X65785904Y-114260380D02*
X65309714Y-114260380D01*
X65262095Y-114736571D01*
X65309714Y-114688952D01*
X65404952Y-114641333D01*
X65643047Y-114641333D01*
X65738285Y-114688952D01*
X65785904Y-114736571D01*
X65833523Y-114831809D01*
X65833523Y-115069904D01*
X65785904Y-115165142D01*
X65738285Y-115212761D01*
X65643047Y-115260380D01*
X65404952Y-115260380D01*
X65309714Y-115212761D01*
X65262095Y-115165142D01*
X62015619Y-120237238D02*
X61968000Y-120332476D01*
X61872761Y-120427714D01*
X61729904Y-120570571D01*
X61682285Y-120665809D01*
X61682285Y-120761047D01*
X61920380Y-120713428D02*
X61872761Y-120808666D01*
X61777523Y-120903904D01*
X61587047Y-120951523D01*
X61253714Y-120951523D01*
X61063238Y-120903904D01*
X60968000Y-120808666D01*
X60920380Y-120713428D01*
X60920380Y-120522952D01*
X60968000Y-120427714D01*
X61063238Y-120332476D01*
X61253714Y-120284857D01*
X61587047Y-120284857D01*
X61777523Y-120332476D01*
X61872761Y-120427714D01*
X61920380Y-120522952D01*
X61920380Y-120713428D01*
X61015619Y-119903904D02*
X60968000Y-119856285D01*
X60920380Y-119761047D01*
X60920380Y-119522952D01*
X60968000Y-119427714D01*
X61015619Y-119380095D01*
X61110857Y-119332476D01*
X61206095Y-119332476D01*
X61348952Y-119380095D01*
X61920380Y-119951523D01*
X61920380Y-119332476D01*
X72548761Y-115101619D02*
X72453523Y-115054000D01*
X72358285Y-114958761D01*
X72215428Y-114815904D01*
X72120190Y-114768285D01*
X72024952Y-114768285D01*
X72072571Y-115006380D02*
X71977333Y-114958761D01*
X71882095Y-114863523D01*
X71834476Y-114673047D01*
X71834476Y-114339714D01*
X71882095Y-114149238D01*
X71977333Y-114054000D01*
X72072571Y-114006380D01*
X72263047Y-114006380D01*
X72358285Y-114054000D01*
X72453523Y-114149238D01*
X72501142Y-114339714D01*
X72501142Y-114673047D01*
X72453523Y-114863523D01*
X72358285Y-114958761D01*
X72263047Y-115006380D01*
X72072571Y-115006380D01*
X73453523Y-115006380D02*
X72882095Y-115006380D01*
X73167809Y-115006380D02*
X73167809Y-114006380D01*
X73072571Y-114149238D01*
X72977333Y-114244476D01*
X72882095Y-114292095D01*
X86490513Y-112862542D02*
X86442894Y-112910161D01*
X86300037Y-112957780D01*
X86204799Y-112957780D01*
X86061941Y-112910161D01*
X85966703Y-112814923D01*
X85919084Y-112719685D01*
X85871465Y-112529209D01*
X85871465Y-112386352D01*
X85919084Y-112195876D01*
X85966703Y-112100638D01*
X86061941Y-112005400D01*
X86204799Y-111957780D01*
X86300037Y-111957780D01*
X86442894Y-112005400D01*
X86490513Y-112053019D01*
X86823846Y-111957780D02*
X87490513Y-111957780D01*
X87061941Y-112957780D01*
X75662142Y-121116666D02*
X75709761Y-121164285D01*
X75757380Y-121307142D01*
X75757380Y-121402380D01*
X75709761Y-121545238D01*
X75614523Y-121640476D01*
X75519285Y-121688095D01*
X75328809Y-121735714D01*
X75185952Y-121735714D01*
X74995476Y-121688095D01*
X74900238Y-121640476D01*
X74805000Y-121545238D01*
X74757380Y-121402380D01*
X74757380Y-121307142D01*
X74805000Y-121164285D01*
X74852619Y-121116666D01*
X74757380Y-120783333D02*
X74757380Y-120164285D01*
X75138333Y-120497619D01*
X75138333Y-120354761D01*
X75185952Y-120259523D01*
X75233571Y-120211904D01*
X75328809Y-120164285D01*
X75566904Y-120164285D01*
X75662142Y-120211904D01*
X75709761Y-120259523D01*
X75757380Y-120354761D01*
X75757380Y-120640476D01*
X75709761Y-120735714D01*
X75662142Y-120783333D01*
X56928782Y-118092582D02*
X56881163Y-118140201D01*
X56738306Y-118187820D01*
X56643068Y-118187820D01*
X56500211Y-118140201D01*
X56404973Y-118044963D01*
X56357354Y-117949725D01*
X56309735Y-117759249D01*
X56309735Y-117616392D01*
X56357354Y-117425916D01*
X56404973Y-117330678D01*
X56500211Y-117235440D01*
X56643068Y-117187820D01*
X56738306Y-117187820D01*
X56881163Y-117235440D01*
X56928782Y-117283059D01*
X57881163Y-118187820D02*
X57309735Y-118187820D01*
X57595449Y-118187820D02*
X57595449Y-117187820D01*
X57500211Y-117330678D01*
X57404973Y-117425916D01*
X57309735Y-117473535D01*
X58214497Y-117187820D02*
X58881163Y-117187820D01*
X58452592Y-118187820D01*
X113422780Y-119227837D02*
X112946590Y-119561170D01*
X113422780Y-119799265D02*
X112422780Y-119799265D01*
X112422780Y-119418313D01*
X112470400Y-119323075D01*
X112518019Y-119275456D01*
X112613257Y-119227837D01*
X112756114Y-119227837D01*
X112851352Y-119275456D01*
X112898971Y-119323075D01*
X112946590Y-119418313D01*
X112946590Y-119799265D01*
X112422780Y-118894503D02*
X112422780Y-118275456D01*
X112803733Y-118608789D01*
X112803733Y-118465932D01*
X112851352Y-118370694D01*
X112898971Y-118323075D01*
X112994209Y-118275456D01*
X113232304Y-118275456D01*
X113327542Y-118323075D01*
X113375161Y-118370694D01*
X113422780Y-118465932D01*
X113422780Y-118751646D01*
X113375161Y-118846884D01*
X113327542Y-118894503D01*
X112422780Y-117370694D02*
X112422780Y-117846884D01*
X112898971Y-117894503D01*
X112851352Y-117846884D01*
X112803733Y-117751646D01*
X112803733Y-117513551D01*
X112851352Y-117418313D01*
X112898971Y-117370694D01*
X112994209Y-117323075D01*
X113232304Y-117323075D01*
X113327542Y-117370694D01*
X113375161Y-117418313D01*
X113422780Y-117513551D01*
X113422780Y-117751646D01*
X113375161Y-117846884D01*
X113327542Y-117894503D01*
X93692060Y-120198117D02*
X93215870Y-120531450D01*
X93692060Y-120769545D02*
X92692060Y-120769545D01*
X92692060Y-120388593D01*
X92739680Y-120293355D01*
X92787299Y-120245736D01*
X92882537Y-120198117D01*
X93025394Y-120198117D01*
X93120632Y-120245736D01*
X93168251Y-120293355D01*
X93215870Y-120388593D01*
X93215870Y-120769545D01*
X92692060Y-119864783D02*
X92692060Y-119245736D01*
X93073013Y-119579069D01*
X93073013Y-119436212D01*
X93120632Y-119340974D01*
X93168251Y-119293355D01*
X93263489Y-119245736D01*
X93501584Y-119245736D01*
X93596822Y-119293355D01*
X93644441Y-119340974D01*
X93692060Y-119436212D01*
X93692060Y-119721926D01*
X93644441Y-119817164D01*
X93596822Y-119864783D01*
X92692060Y-118626688D02*
X92692060Y-118531450D01*
X92739680Y-118436212D01*
X92787299Y-118388593D01*
X92882537Y-118340974D01*
X93073013Y-118293355D01*
X93311108Y-118293355D01*
X93501584Y-118340974D01*
X93596822Y-118388593D01*
X93644441Y-118436212D01*
X93692060Y-118531450D01*
X93692060Y-118626688D01*
X93644441Y-118721926D01*
X93596822Y-118769545D01*
X93501584Y-118817164D01*
X93311108Y-118864783D01*
X93073013Y-118864783D01*
X92882537Y-118817164D01*
X92787299Y-118769545D01*
X92739680Y-118721926D01*
X92692060Y-118626688D01*
X123050560Y-119187197D02*
X122574370Y-119520530D01*
X123050560Y-119758625D02*
X122050560Y-119758625D01*
X122050560Y-119377673D01*
X122098180Y-119282435D01*
X122145799Y-119234816D01*
X122241037Y-119187197D01*
X122383894Y-119187197D01*
X122479132Y-119234816D01*
X122526751Y-119282435D01*
X122574370Y-119377673D01*
X122574370Y-119758625D01*
X122145799Y-118806244D02*
X122098180Y-118758625D01*
X122050560Y-118663387D01*
X122050560Y-118425292D01*
X122098180Y-118330054D01*
X122145799Y-118282435D01*
X122241037Y-118234816D01*
X122336275Y-118234816D01*
X122479132Y-118282435D01*
X123050560Y-118853863D01*
X123050560Y-118234816D01*
X122479132Y-117663387D02*
X122431513Y-117758625D01*
X122383894Y-117806244D01*
X122288656Y-117853863D01*
X122241037Y-117853863D01*
X122145799Y-117806244D01*
X122098180Y-117758625D01*
X122050560Y-117663387D01*
X122050560Y-117472911D01*
X122098180Y-117377673D01*
X122145799Y-117330054D01*
X122241037Y-117282435D01*
X122288656Y-117282435D01*
X122383894Y-117330054D01*
X122431513Y-117377673D01*
X122479132Y-117472911D01*
X122479132Y-117663387D01*
X122526751Y-117758625D01*
X122574370Y-117806244D01*
X122669608Y-117853863D01*
X122860084Y-117853863D01*
X122955322Y-117806244D01*
X123002941Y-117758625D01*
X123050560Y-117663387D01*
X123050560Y-117472911D01*
X123002941Y-117377673D01*
X122955322Y-117330054D01*
X122860084Y-117282435D01*
X122669608Y-117282435D01*
X122574370Y-117330054D01*
X122526751Y-117377673D01*
X122479132Y-117472911D01*
X100306902Y-114692600D02*
X99973569Y-114216410D01*
X99735474Y-114692600D02*
X99735474Y-113692600D01*
X100116426Y-113692600D01*
X100211664Y-113740220D01*
X100259283Y-113787839D01*
X100306902Y-113883077D01*
X100306902Y-114025934D01*
X100259283Y-114121172D01*
X100211664Y-114168791D01*
X100116426Y-114216410D01*
X99735474Y-114216410D01*
X100687855Y-113787839D02*
X100735474Y-113740220D01*
X100830712Y-113692600D01*
X101068807Y-113692600D01*
X101164045Y-113740220D01*
X101211664Y-113787839D01*
X101259283Y-113883077D01*
X101259283Y-113978315D01*
X101211664Y-114121172D01*
X100640236Y-114692600D01*
X101259283Y-114692600D01*
X101878331Y-113692600D02*
X101973569Y-113692600D01*
X102068807Y-113740220D01*
X102116426Y-113787839D01*
X102164045Y-113883077D01*
X102211664Y-114073553D01*
X102211664Y-114311648D01*
X102164045Y-114502124D01*
X102116426Y-114597362D01*
X102068807Y-114644981D01*
X101973569Y-114692600D01*
X101878331Y-114692600D01*
X101783093Y-114644981D01*
X101735474Y-114597362D01*
X101687855Y-114502124D01*
X101640236Y-114311648D01*
X101640236Y-114073553D01*
X101687855Y-113883077D01*
X101735474Y-113787839D01*
X101783093Y-113740220D01*
X101878331Y-113692600D01*
X113437840Y-113276617D02*
X112961650Y-113609950D01*
X113437840Y-113848045D02*
X112437840Y-113848045D01*
X112437840Y-113467093D01*
X112485460Y-113371855D01*
X112533079Y-113324236D01*
X112628317Y-113276617D01*
X112771174Y-113276617D01*
X112866412Y-113324236D01*
X112914031Y-113371855D01*
X112961650Y-113467093D01*
X112961650Y-113848045D01*
X113437840Y-112324236D02*
X113437840Y-112895664D01*
X113437840Y-112609950D02*
X112437840Y-112609950D01*
X112580698Y-112705188D01*
X112675936Y-112800426D01*
X112723555Y-112895664D01*
X113437840Y-111848045D02*
X113437840Y-111657569D01*
X113390221Y-111562331D01*
X113342602Y-111514712D01*
X113199745Y-111419474D01*
X113009269Y-111371855D01*
X112628317Y-111371855D01*
X112533079Y-111419474D01*
X112485460Y-111467093D01*
X112437840Y-111562331D01*
X112437840Y-111752807D01*
X112485460Y-111848045D01*
X112533079Y-111895664D01*
X112628317Y-111943283D01*
X112866412Y-111943283D01*
X112961650Y-111895664D01*
X113009269Y-111848045D01*
X113056888Y-111752807D01*
X113056888Y-111562331D01*
X113009269Y-111467093D01*
X112961650Y-111419474D01*
X112866412Y-111371855D01*
X116452820Y-113296937D02*
X115976630Y-113630270D01*
X116452820Y-113868365D02*
X115452820Y-113868365D01*
X115452820Y-113487413D01*
X115500440Y-113392175D01*
X115548059Y-113344556D01*
X115643297Y-113296937D01*
X115786154Y-113296937D01*
X115881392Y-113344556D01*
X115929011Y-113392175D01*
X115976630Y-113487413D01*
X115976630Y-113868365D01*
X116452820Y-112344556D02*
X116452820Y-112915984D01*
X116452820Y-112630270D02*
X115452820Y-112630270D01*
X115595678Y-112725508D01*
X115690916Y-112820746D01*
X115738535Y-112915984D01*
X115881392Y-111773127D02*
X115833773Y-111868365D01*
X115786154Y-111915984D01*
X115690916Y-111963603D01*
X115643297Y-111963603D01*
X115548059Y-111915984D01*
X115500440Y-111868365D01*
X115452820Y-111773127D01*
X115452820Y-111582651D01*
X115500440Y-111487413D01*
X115548059Y-111439794D01*
X115643297Y-111392175D01*
X115690916Y-111392175D01*
X115786154Y-111439794D01*
X115833773Y-111487413D01*
X115881392Y-111582651D01*
X115881392Y-111773127D01*
X115929011Y-111868365D01*
X115976630Y-111915984D01*
X116071868Y-111963603D01*
X116262344Y-111963603D01*
X116357582Y-111915984D01*
X116405201Y-111868365D01*
X116452820Y-111773127D01*
X116452820Y-111582651D01*
X116405201Y-111487413D01*
X116357582Y-111439794D01*
X116262344Y-111392175D01*
X116071868Y-111392175D01*
X115976630Y-111439794D01*
X115929011Y-111487413D01*
X115881392Y-111582651D01*
X54396260Y-62380453D02*
X55110546Y-62380453D01*
X55253403Y-62428072D01*
X55348641Y-62523310D01*
X55396260Y-62666167D01*
X55396260Y-62761405D01*
X55396260Y-61856643D02*
X55396260Y-61666167D01*
X55348641Y-61570929D01*
X55301022Y-61523310D01*
X55158165Y-61428072D01*
X54967689Y-61380453D01*
X54586737Y-61380453D01*
X54491499Y-61428072D01*
X54443880Y-61475691D01*
X54396260Y-61570929D01*
X54396260Y-61761405D01*
X54443880Y-61856643D01*
X54491499Y-61904262D01*
X54586737Y-61951881D01*
X54824832Y-61951881D01*
X54920070Y-61904262D01*
X54967689Y-61856643D01*
X55015308Y-61761405D01*
X55015308Y-61570929D01*
X54967689Y-61475691D01*
X54920070Y-61428072D01*
X54824832Y-61380453D01*
X59202415Y-107784340D02*
X59202415Y-108593864D01*
X59250034Y-108689102D01*
X59297653Y-108736721D01*
X59392891Y-108784340D01*
X59583367Y-108784340D01*
X59678605Y-108736721D01*
X59726224Y-108689102D01*
X59773843Y-108593864D01*
X59773843Y-107784340D01*
X60154796Y-107784340D02*
X60773843Y-107784340D01*
X60440510Y-108165293D01*
X60583367Y-108165293D01*
X60678605Y-108212912D01*
X60726224Y-108260531D01*
X60773843Y-108355769D01*
X60773843Y-108593864D01*
X60726224Y-108689102D01*
X60678605Y-108736721D01*
X60583367Y-108784340D01*
X60297653Y-108784340D01*
X60202415Y-108736721D01*
X60154796Y-108689102D01*
X130167142Y-94041142D02*
X130119523Y-94088761D01*
X129976666Y-94136380D01*
X129881428Y-94136380D01*
X129738571Y-94088761D01*
X129643333Y-93993523D01*
X129595714Y-93898285D01*
X129548095Y-93707809D01*
X129548095Y-93564952D01*
X129595714Y-93374476D01*
X129643333Y-93279238D01*
X129738571Y-93184000D01*
X129881428Y-93136380D01*
X129976666Y-93136380D01*
X130119523Y-93184000D01*
X130167142Y-93231619D01*
X131119523Y-94136380D02*
X130548095Y-94136380D01*
X130833809Y-94136380D02*
X130833809Y-93136380D01*
X130738571Y-93279238D01*
X130643333Y-93374476D01*
X130548095Y-93422095D01*
X131500476Y-93231619D02*
X131548095Y-93184000D01*
X131643333Y-93136380D01*
X131881428Y-93136380D01*
X131976666Y-93184000D01*
X132024285Y-93231619D01*
X132071904Y-93326857D01*
X132071904Y-93422095D01*
X132024285Y-93564952D01*
X131452857Y-94136380D01*
X132071904Y-94136380D01*
X63286260Y-99317133D02*
X64000546Y-99317133D01*
X64143403Y-99364752D01*
X64238641Y-99459990D01*
X64286260Y-99602847D01*
X64286260Y-99698085D01*
X63286260Y-98412371D02*
X63286260Y-98602847D01*
X63333880Y-98698085D01*
X63381499Y-98745704D01*
X63524356Y-98840942D01*
X63714832Y-98888561D01*
X64095784Y-98888561D01*
X64191022Y-98840942D01*
X64238641Y-98793323D01*
X64286260Y-98698085D01*
X64286260Y-98507609D01*
X64238641Y-98412371D01*
X64191022Y-98364752D01*
X64095784Y-98317133D01*
X63857689Y-98317133D01*
X63762451Y-98364752D01*
X63714832Y-98412371D01*
X63667213Y-98507609D01*
X63667213Y-98698085D01*
X63714832Y-98793323D01*
X63762451Y-98840942D01*
X63857689Y-98888561D01*
X63286260Y-74317133D02*
X64000546Y-74317133D01*
X64143403Y-74364752D01*
X64238641Y-74459990D01*
X64286260Y-74602847D01*
X64286260Y-74698085D01*
X63286260Y-73936180D02*
X63286260Y-73269514D01*
X64286260Y-73698085D01*
X106713066Y-51490940D02*
X106713066Y-52205226D01*
X106665447Y-52348083D01*
X106570209Y-52443321D01*
X106427352Y-52490940D01*
X106332114Y-52490940D01*
X107617828Y-51824274D02*
X107617828Y-52490940D01*
X107379733Y-51443321D02*
X107141638Y-52157607D01*
X107760685Y-52157607D01*
X82075066Y-51490940D02*
X82075066Y-52205226D01*
X82027447Y-52348083D01*
X81932209Y-52443321D01*
X81789352Y-52490940D01*
X81694114Y-52490940D01*
X83075066Y-52490940D02*
X82503638Y-52490940D01*
X82789352Y-52490940D02*
X82789352Y-51490940D01*
X82694114Y-51633798D01*
X82598876Y-51729036D01*
X82503638Y-51776655D01*
X94739506Y-51490940D02*
X94739506Y-52205226D01*
X94691887Y-52348083D01*
X94596649Y-52443321D01*
X94453792Y-52490940D01*
X94358554Y-52490940D01*
X95168078Y-51586179D02*
X95215697Y-51538560D01*
X95310935Y-51490940D01*
X95549030Y-51490940D01*
X95644268Y-51538560D01*
X95691887Y-51586179D01*
X95739506Y-51681417D01*
X95739506Y-51776655D01*
X95691887Y-51919512D01*
X95120459Y-52490940D01*
X95739506Y-52490940D01*
X119865186Y-51592540D02*
X119865186Y-52306826D01*
X119817567Y-52449683D01*
X119722329Y-52544921D01*
X119579472Y-52592540D01*
X119484234Y-52592540D01*
X120817567Y-51592540D02*
X120341377Y-51592540D01*
X120293758Y-52068731D01*
X120341377Y-52021112D01*
X120436615Y-51973493D01*
X120674710Y-51973493D01*
X120769948Y-52021112D01*
X120817567Y-52068731D01*
X120865186Y-52163969D01*
X120865186Y-52402064D01*
X120817567Y-52497302D01*
X120769948Y-52544921D01*
X120674710Y-52592540D01*
X120436615Y-52592540D01*
X120341377Y-52544921D01*
X120293758Y-52497302D01*
X71475220Y-69324813D02*
X72189506Y-69324813D01*
X72332363Y-69372432D01*
X72427601Y-69467670D01*
X72475220Y-69610527D01*
X72475220Y-69705765D01*
X71475220Y-68943860D02*
X71475220Y-68324813D01*
X71856173Y-68658146D01*
X71856173Y-68515289D01*
X71903792Y-68420051D01*
X71951411Y-68372432D01*
X72046649Y-68324813D01*
X72284744Y-68324813D01*
X72379982Y-68372432D01*
X72427601Y-68420051D01*
X72475220Y-68515289D01*
X72475220Y-68801003D01*
X72427601Y-68896241D01*
X72379982Y-68943860D01*
X123938380Y-75096666D02*
X123462190Y-75430000D01*
X123938380Y-75668095D02*
X122938380Y-75668095D01*
X122938380Y-75287142D01*
X122986000Y-75191904D01*
X123033619Y-75144285D01*
X123128857Y-75096666D01*
X123271714Y-75096666D01*
X123366952Y-75144285D01*
X123414571Y-75191904D01*
X123462190Y-75287142D01*
X123462190Y-75668095D01*
X122938380Y-74191904D02*
X122938380Y-74668095D01*
X123414571Y-74715714D01*
X123366952Y-74668095D01*
X123319333Y-74572857D01*
X123319333Y-74334761D01*
X123366952Y-74239523D01*
X123414571Y-74191904D01*
X123509809Y-74144285D01*
X123747904Y-74144285D01*
X123843142Y-74191904D01*
X123890761Y-74239523D01*
X123938380Y-74334761D01*
X123938380Y-74572857D01*
X123890761Y-74668095D01*
X123843142Y-74715714D01*
X126986380Y-75096666D02*
X126510190Y-75430000D01*
X126986380Y-75668095D02*
X125986380Y-75668095D01*
X125986380Y-75287142D01*
X126034000Y-75191904D01*
X126081619Y-75144285D01*
X126176857Y-75096666D01*
X126319714Y-75096666D01*
X126414952Y-75144285D01*
X126462571Y-75191904D01*
X126510190Y-75287142D01*
X126510190Y-75668095D01*
X125986380Y-74763333D02*
X125986380Y-74096666D01*
X126986380Y-74525238D01*
X121006380Y-75136666D02*
X120530190Y-75470000D01*
X121006380Y-75708095D02*
X120006380Y-75708095D01*
X120006380Y-75327142D01*
X120054000Y-75231904D01*
X120101619Y-75184285D01*
X120196857Y-75136666D01*
X120339714Y-75136666D01*
X120434952Y-75184285D01*
X120482571Y-75231904D01*
X120530190Y-75327142D01*
X120530190Y-75708095D01*
X121006380Y-74660476D02*
X121006380Y-74470000D01*
X120958761Y-74374761D01*
X120911142Y-74327142D01*
X120768285Y-74231904D01*
X120577809Y-74184285D01*
X120196857Y-74184285D01*
X120101619Y-74231904D01*
X120054000Y-74279523D01*
X120006380Y-74374761D01*
X120006380Y-74565238D01*
X120054000Y-74660476D01*
X120101619Y-74708095D01*
X120196857Y-74755714D01*
X120434952Y-74755714D01*
X120530190Y-74708095D01*
X120577809Y-74660476D01*
X120625428Y-74565238D01*
X120625428Y-74374761D01*
X120577809Y-74279523D01*
X120530190Y-74231904D01*
X120434952Y-74184285D01*
X108469133Y-69013420D02*
X108135800Y-68537230D01*
X107897704Y-69013420D02*
X107897704Y-68013420D01*
X108278657Y-68013420D01*
X108373895Y-68061040D01*
X108421514Y-68108659D01*
X108469133Y-68203897D01*
X108469133Y-68346754D01*
X108421514Y-68441992D01*
X108373895Y-68489611D01*
X108278657Y-68537230D01*
X107897704Y-68537230D01*
X108802466Y-68013420D02*
X109421514Y-68013420D01*
X109088180Y-68394373D01*
X109231038Y-68394373D01*
X109326276Y-68441992D01*
X109373895Y-68489611D01*
X109421514Y-68584849D01*
X109421514Y-68822944D01*
X109373895Y-68918182D01*
X109326276Y-68965801D01*
X109231038Y-69013420D01*
X108945323Y-69013420D01*
X108850085Y-68965801D01*
X108802466Y-68918182D01*
X117928093Y-83077220D02*
X117594760Y-82601030D01*
X117356664Y-83077220D02*
X117356664Y-82077220D01*
X117737617Y-82077220D01*
X117832855Y-82124840D01*
X117880474Y-82172459D01*
X117928093Y-82267697D01*
X117928093Y-82410554D01*
X117880474Y-82505792D01*
X117832855Y-82553411D01*
X117737617Y-82601030D01*
X117356664Y-82601030D01*
X118785236Y-82077220D02*
X118594760Y-82077220D01*
X118499521Y-82124840D01*
X118451902Y-82172459D01*
X118356664Y-82315316D01*
X118309045Y-82505792D01*
X118309045Y-82886744D01*
X118356664Y-82981982D01*
X118404283Y-83029601D01*
X118499521Y-83077220D01*
X118689998Y-83077220D01*
X118785236Y-83029601D01*
X118832855Y-82981982D01*
X118880474Y-82886744D01*
X118880474Y-82648649D01*
X118832855Y-82553411D01*
X118785236Y-82505792D01*
X118689998Y-82458173D01*
X118499521Y-82458173D01*
X118404283Y-82505792D01*
X118356664Y-82553411D01*
X118309045Y-82648649D01*
X117882373Y-87623820D02*
X117549040Y-87147630D01*
X117310944Y-87623820D02*
X117310944Y-86623820D01*
X117691897Y-86623820D01*
X117787135Y-86671440D01*
X117834754Y-86719059D01*
X117882373Y-86814297D01*
X117882373Y-86957154D01*
X117834754Y-87052392D01*
X117787135Y-87100011D01*
X117691897Y-87147630D01*
X117310944Y-87147630D01*
X118453801Y-87052392D02*
X118358563Y-87004773D01*
X118310944Y-86957154D01*
X118263325Y-86861916D01*
X118263325Y-86814297D01*
X118310944Y-86719059D01*
X118358563Y-86671440D01*
X118453801Y-86623820D01*
X118644278Y-86623820D01*
X118739516Y-86671440D01*
X118787135Y-86719059D01*
X118834754Y-86814297D01*
X118834754Y-86861916D01*
X118787135Y-86957154D01*
X118739516Y-87004773D01*
X118644278Y-87052392D01*
X118453801Y-87052392D01*
X118358563Y-87100011D01*
X118310944Y-87147630D01*
X118263325Y-87242868D01*
X118263325Y-87433344D01*
X118310944Y-87528582D01*
X118358563Y-87576201D01*
X118453801Y-87623820D01*
X118644278Y-87623820D01*
X118739516Y-87576201D01*
X118787135Y-87528582D01*
X118834754Y-87433344D01*
X118834754Y-87242868D01*
X118787135Y-87147630D01*
X118739516Y-87100011D01*
X118644278Y-87052392D01*
X117604302Y-78459500D02*
X117270969Y-77983310D01*
X117032874Y-78459500D02*
X117032874Y-77459500D01*
X117413826Y-77459500D01*
X117509064Y-77507120D01*
X117556683Y-77554739D01*
X117604302Y-77649977D01*
X117604302Y-77792834D01*
X117556683Y-77888072D01*
X117509064Y-77935691D01*
X117413826Y-77983310D01*
X117032874Y-77983310D01*
X118556683Y-78459500D02*
X117985255Y-78459500D01*
X118270969Y-78459500D02*
X118270969Y-77459500D01*
X118175731Y-77602358D01*
X118080493Y-77697596D01*
X117985255Y-77745215D01*
X119175731Y-77459500D02*
X119270969Y-77459500D01*
X119366207Y-77507120D01*
X119413826Y-77554739D01*
X119461445Y-77649977D01*
X119509064Y-77840453D01*
X119509064Y-78078548D01*
X119461445Y-78269024D01*
X119413826Y-78364262D01*
X119366207Y-78411881D01*
X119270969Y-78459500D01*
X119175731Y-78459500D01*
X119080493Y-78411881D01*
X119032874Y-78364262D01*
X118985255Y-78269024D01*
X118937636Y-78078548D01*
X118937636Y-77840453D01*
X118985255Y-77649977D01*
X119032874Y-77554739D01*
X119080493Y-77507120D01*
X119175731Y-77459500D01*
X111866862Y-85337946D02*
X111914481Y-85385565D01*
X111962100Y-85528422D01*
X111962100Y-85623660D01*
X111914481Y-85766518D01*
X111819243Y-85861756D01*
X111724005Y-85909375D01*
X111533529Y-85956994D01*
X111390672Y-85956994D01*
X111200196Y-85909375D01*
X111104958Y-85861756D01*
X111009720Y-85766518D01*
X110962100Y-85623660D01*
X110962100Y-85528422D01*
X111009720Y-85385565D01*
X111057339Y-85337946D01*
X111962100Y-84861756D02*
X111962100Y-84671280D01*
X111914481Y-84576041D01*
X111866862Y-84528422D01*
X111724005Y-84433184D01*
X111533529Y-84385565D01*
X111152577Y-84385565D01*
X111057339Y-84433184D01*
X111009720Y-84480803D01*
X110962100Y-84576041D01*
X110962100Y-84766518D01*
X111009720Y-84861756D01*
X111057339Y-84909375D01*
X111152577Y-84956994D01*
X111390672Y-84956994D01*
X111485910Y-84909375D01*
X111533529Y-84861756D01*
X111581148Y-84766518D01*
X111581148Y-84576041D01*
X111533529Y-84480803D01*
X111485910Y-84433184D01*
X111390672Y-84385565D01*
X111877022Y-91122737D02*
X111924641Y-91170356D01*
X111972260Y-91313213D01*
X111972260Y-91408451D01*
X111924641Y-91551308D01*
X111829403Y-91646546D01*
X111734165Y-91694165D01*
X111543689Y-91741784D01*
X111400832Y-91741784D01*
X111210356Y-91694165D01*
X111115118Y-91646546D01*
X111019880Y-91551308D01*
X110972260Y-91408451D01*
X110972260Y-91313213D01*
X111019880Y-91170356D01*
X111067499Y-91122737D01*
X111972260Y-90170356D02*
X111972260Y-90741784D01*
X111972260Y-90456070D02*
X110972260Y-90456070D01*
X111115118Y-90551308D01*
X111210356Y-90646546D01*
X111257975Y-90741784D01*
X111972260Y-89217975D02*
X111972260Y-89789403D01*
X111972260Y-89503689D02*
X110972260Y-89503689D01*
X111115118Y-89598927D01*
X111210356Y-89694165D01*
X111257975Y-89789403D01*
X111943062Y-80215977D02*
X111990681Y-80263596D01*
X112038300Y-80406453D01*
X112038300Y-80501691D01*
X111990681Y-80644548D01*
X111895443Y-80739786D01*
X111800205Y-80787405D01*
X111609729Y-80835024D01*
X111466872Y-80835024D01*
X111276396Y-80787405D01*
X111181158Y-80739786D01*
X111085920Y-80644548D01*
X111038300Y-80501691D01*
X111038300Y-80406453D01*
X111085920Y-80263596D01*
X111133539Y-80215977D01*
X112038300Y-79263596D02*
X112038300Y-79835024D01*
X112038300Y-79549310D02*
X111038300Y-79549310D01*
X111181158Y-79644548D01*
X111276396Y-79739786D01*
X111324015Y-79835024D01*
X111038300Y-78930262D02*
X111038300Y-78311215D01*
X111419253Y-78644548D01*
X111419253Y-78501691D01*
X111466872Y-78406453D01*
X111514491Y-78358834D01*
X111609729Y-78311215D01*
X111847824Y-78311215D01*
X111943062Y-78358834D01*
X111990681Y-78406453D01*
X112038300Y-78501691D01*
X112038300Y-78787405D01*
X111990681Y-78882643D01*
X111943062Y-78930262D01*
X104808382Y-107333017D02*
X104856001Y-107380636D01*
X104903620Y-107523493D01*
X104903620Y-107618731D01*
X104856001Y-107761588D01*
X104760763Y-107856826D01*
X104665525Y-107904445D01*
X104475049Y-107952064D01*
X104332192Y-107952064D01*
X104141716Y-107904445D01*
X104046478Y-107856826D01*
X103951240Y-107761588D01*
X103903620Y-107618731D01*
X103903620Y-107523493D01*
X103951240Y-107380636D01*
X103998859Y-107333017D01*
X104903620Y-106380636D02*
X104903620Y-106952064D01*
X104903620Y-106666350D02*
X103903620Y-106666350D01*
X104046478Y-106761588D01*
X104141716Y-106856826D01*
X104189335Y-106952064D01*
X103903620Y-105475874D02*
X103903620Y-105952064D01*
X104379811Y-105999683D01*
X104332192Y-105952064D01*
X104284573Y-105856826D01*
X104284573Y-105618731D01*
X104332192Y-105523493D01*
X104379811Y-105475874D01*
X104475049Y-105428255D01*
X104713144Y-105428255D01*
X104808382Y-105475874D01*
X104856001Y-105523493D01*
X104903620Y-105618731D01*
X104903620Y-105856826D01*
X104856001Y-105952064D01*
X104808382Y-105999683D01*
X51904662Y-108712182D02*
X51857043Y-108759801D01*
X51714186Y-108807420D01*
X51618948Y-108807420D01*
X51476091Y-108759801D01*
X51380853Y-108664563D01*
X51333234Y-108569325D01*
X51285615Y-108378849D01*
X51285615Y-108235992D01*
X51333234Y-108045516D01*
X51380853Y-107950278D01*
X51476091Y-107855040D01*
X51618948Y-107807420D01*
X51714186Y-107807420D01*
X51857043Y-107855040D01*
X51904662Y-107902659D01*
X52857043Y-108807420D02*
X52285615Y-108807420D01*
X52571329Y-108807420D02*
X52571329Y-107807420D01*
X52476091Y-107950278D01*
X52380853Y-108045516D01*
X52285615Y-108093135D01*
X53714186Y-108140754D02*
X53714186Y-108807420D01*
X53476091Y-107759801D02*
X53237996Y-108474087D01*
X53857043Y-108474087D01*
X117310636Y-125012200D02*
X117310636Y-125726486D01*
X117263017Y-125869343D01*
X117167779Y-125964581D01*
X117024921Y-126012200D01*
X116929683Y-126012200D01*
X118310636Y-126012200D02*
X117739207Y-126012200D01*
X118024921Y-126012200D02*
X118024921Y-125012200D01*
X117929683Y-125155058D01*
X117834445Y-125250296D01*
X117739207Y-125297915D01*
X119263017Y-126012200D02*
X118691588Y-126012200D01*
X118977302Y-126012200D02*
X118977302Y-125012200D01*
X118882064Y-125155058D01*
X118786826Y-125250296D01*
X118691588Y-125297915D01*
X104961156Y-125052840D02*
X104961156Y-125767126D01*
X104913537Y-125909983D01*
X104818299Y-126005221D01*
X104675441Y-126052840D01*
X104580203Y-126052840D01*
X105961156Y-126052840D02*
X105389727Y-126052840D01*
X105675441Y-126052840D02*
X105675441Y-125052840D01*
X105580203Y-125195698D01*
X105484965Y-125290936D01*
X105389727Y-125338555D01*
X106865918Y-125052840D02*
X106389727Y-125052840D01*
X106342108Y-125529031D01*
X106389727Y-125481412D01*
X106484965Y-125433793D01*
X106723060Y-125433793D01*
X106818299Y-125481412D01*
X106865918Y-125529031D01*
X106913537Y-125624269D01*
X106913537Y-125862364D01*
X106865918Y-125957602D01*
X106818299Y-126005221D01*
X106723060Y-126052840D01*
X106484965Y-126052840D01*
X106389727Y-126005221D01*
X106342108Y-125957602D01*
X90475076Y-125370020D02*
X90475076Y-126084306D01*
X90427457Y-126227163D01*
X90332219Y-126322401D01*
X90189361Y-126370020D01*
X90094123Y-126370020D01*
X91475076Y-126370020D02*
X90903647Y-126370020D01*
X91189361Y-126370020D02*
X91189361Y-125370020D01*
X91094123Y-125512878D01*
X90998885Y-125608116D01*
X90903647Y-125655735D01*
X92094123Y-125370020D02*
X92189361Y-125370020D01*
X92284600Y-125417640D01*
X92332219Y-125465259D01*
X92379838Y-125560497D01*
X92427457Y-125750973D01*
X92427457Y-125989068D01*
X92379838Y-126179544D01*
X92332219Y-126274782D01*
X92284600Y-126322401D01*
X92189361Y-126370020D01*
X92094123Y-126370020D01*
X91998885Y-126322401D01*
X91951266Y-126274782D01*
X91903647Y-126179544D01*
X91856028Y-125989068D01*
X91856028Y-125750973D01*
X91903647Y-125560497D01*
X91951266Y-125465259D01*
X91998885Y-125417640D01*
X92094123Y-125370020D01*
X82195644Y-120414600D02*
X82195644Y-121128886D01*
X82148025Y-121271743D01*
X82052787Y-121366981D01*
X81909929Y-121414600D01*
X81814691Y-121414600D01*
X83195644Y-121414600D02*
X82624215Y-121414600D01*
X82909929Y-121414600D02*
X82909929Y-120414600D01*
X82814691Y-120557458D01*
X82719453Y-120652696D01*
X82624215Y-120700315D01*
X83576596Y-120509839D02*
X83624215Y-120462220D01*
X83719453Y-120414600D01*
X83957548Y-120414600D01*
X84052787Y-120462220D01*
X84100406Y-120509839D01*
X84148025Y-120605077D01*
X84148025Y-120700315D01*
X84100406Y-120843172D01*
X83528977Y-121414600D01*
X84148025Y-121414600D01*
X68775300Y-120414600D02*
X68775300Y-121128886D01*
X68727681Y-121271743D01*
X68632443Y-121366981D01*
X68489585Y-121414600D01*
X68394347Y-121414600D01*
X69775300Y-121414600D02*
X69203871Y-121414600D01*
X69489585Y-121414600D02*
X69489585Y-120414600D01*
X69394347Y-120557458D01*
X69299109Y-120652696D01*
X69203871Y-120700315D01*
X70632443Y-120747934D02*
X70632443Y-121414600D01*
X70394347Y-120366981D02*
X70156252Y-121081267D01*
X70775300Y-121081267D01*
X55832476Y-120432380D02*
X55832476Y-121146666D01*
X55784857Y-121289523D01*
X55689619Y-121384761D01*
X55546761Y-121432380D01*
X55451523Y-121432380D01*
X56832476Y-121432380D02*
X56261047Y-121432380D01*
X56546761Y-121432380D02*
X56546761Y-120432380D01*
X56451523Y-120575238D01*
X56356285Y-120670476D01*
X56261047Y-120718095D01*
X57165809Y-120432380D02*
X57784857Y-120432380D01*
X57451523Y-120813333D01*
X57594380Y-120813333D01*
X57689619Y-120860952D01*
X57737238Y-120908571D01*
X57784857Y-121003809D01*
X57784857Y-121241904D01*
X57737238Y-121337142D01*
X57689619Y-121384761D01*
X57594380Y-121432380D01*
X57308666Y-121432380D01*
X57213428Y-121384761D01*
X57165809Y-121337142D01*
X104104535Y-108306620D02*
X104104535Y-109116144D01*
X104152154Y-109211382D01*
X104199773Y-109259001D01*
X104295011Y-109306620D01*
X104485487Y-109306620D01*
X104580725Y-109259001D01*
X104628344Y-109211382D01*
X104675963Y-109116144D01*
X104675963Y-108306620D01*
X105580725Y-108639954D02*
X105580725Y-109306620D01*
X105342630Y-108259001D02*
X105104535Y-108973287D01*
X105723582Y-108973287D01*
X97250309Y-113638110D02*
X97250309Y-114114300D01*
X96916976Y-113114300D02*
X97250309Y-113638110D01*
X97583642Y-113114300D01*
X97869357Y-113209539D02*
X97916976Y-113161920D01*
X98012214Y-113114300D01*
X98250309Y-113114300D01*
X98345547Y-113161920D01*
X98393166Y-113209539D01*
X98440785Y-113304777D01*
X98440785Y-113400015D01*
X98393166Y-113542872D01*
X97821738Y-114114300D01*
X98440785Y-114114300D01*
X51281389Y-117699570D02*
X51281389Y-118175760D01*
X50948056Y-117175760D02*
X51281389Y-117699570D01*
X51614722Y-117175760D01*
X52471865Y-118175760D02*
X51900437Y-118175760D01*
X52186151Y-118175760D02*
X52186151Y-117175760D01*
X52090913Y-117318618D01*
X51995675Y-117413856D01*
X51900437Y-117461475D01*
X63978493Y-78309742D02*
X63930874Y-78357361D01*
X63788017Y-78404980D01*
X63692779Y-78404980D01*
X63549921Y-78357361D01*
X63454683Y-78262123D01*
X63407064Y-78166885D01*
X63359445Y-77976409D01*
X63359445Y-77833552D01*
X63407064Y-77643076D01*
X63454683Y-77547838D01*
X63549921Y-77452600D01*
X63692779Y-77404980D01*
X63788017Y-77404980D01*
X63930874Y-77452600D01*
X63978493Y-77500219D01*
X64930874Y-78404980D02*
X64359445Y-78404980D01*
X64645160Y-78404980D02*
X64645160Y-77404980D01*
X64549921Y-77547838D01*
X64454683Y-77643076D01*
X64359445Y-77690695D01*
X65050373Y-82834662D02*
X65002754Y-82882281D01*
X64859897Y-82929900D01*
X64764659Y-82929900D01*
X64621801Y-82882281D01*
X64526563Y-82787043D01*
X64478944Y-82691805D01*
X64431325Y-82501329D01*
X64431325Y-82358472D01*
X64478944Y-82167996D01*
X64526563Y-82072758D01*
X64621801Y-81977520D01*
X64764659Y-81929900D01*
X64859897Y-81929900D01*
X65002754Y-81977520D01*
X65050373Y-82025139D01*
X65431325Y-82025139D02*
X65478944Y-81977520D01*
X65574182Y-81929900D01*
X65812278Y-81929900D01*
X65907516Y-81977520D01*
X65955135Y-82025139D01*
X66002754Y-82120377D01*
X66002754Y-82215615D01*
X65955135Y-82358472D01*
X65383706Y-82929900D01*
X66002754Y-82929900D01*
X62809215Y-85371300D02*
X62809215Y-86180824D01*
X62856834Y-86276062D01*
X62904453Y-86323681D01*
X62999691Y-86371300D01*
X63190167Y-86371300D01*
X63285405Y-86323681D01*
X63333024Y-86276062D01*
X63380643Y-86180824D01*
X63380643Y-85371300D01*
X64380643Y-86371300D02*
X63809215Y-86371300D01*
X64094929Y-86371300D02*
X64094929Y-85371300D01*
X63999691Y-85514158D01*
X63904453Y-85609396D01*
X63809215Y-85657015D01*
X85627380Y-104782857D02*
X85151190Y-105116190D01*
X85627380Y-105354285D02*
X84627380Y-105354285D01*
X84627380Y-104973333D01*
X84675000Y-104878095D01*
X84722619Y-104830476D01*
X84817857Y-104782857D01*
X84960714Y-104782857D01*
X85055952Y-104830476D01*
X85103571Y-104878095D01*
X85151190Y-104973333D01*
X85151190Y-105354285D01*
X85627380Y-103830476D02*
X85627380Y-104401904D01*
X85627380Y-104116190D02*
X84627380Y-104116190D01*
X84770238Y-104211428D01*
X84865476Y-104306666D01*
X84913095Y-104401904D01*
X84722619Y-103449523D02*
X84675000Y-103401904D01*
X84627380Y-103306666D01*
X84627380Y-103068571D01*
X84675000Y-102973333D01*
X84722619Y-102925714D01*
X84817857Y-102878095D01*
X84913095Y-102878095D01*
X85055952Y-102925714D01*
X85627380Y-103497142D01*
X85627380Y-102878095D01*
X82452380Y-104782857D02*
X81976190Y-105116190D01*
X82452380Y-105354285D02*
X81452380Y-105354285D01*
X81452380Y-104973333D01*
X81500000Y-104878095D01*
X81547619Y-104830476D01*
X81642857Y-104782857D01*
X81785714Y-104782857D01*
X81880952Y-104830476D01*
X81928571Y-104878095D01*
X81976190Y-104973333D01*
X81976190Y-105354285D01*
X82452380Y-103830476D02*
X82452380Y-104401904D01*
X82452380Y-104116190D02*
X81452380Y-104116190D01*
X81595238Y-104211428D01*
X81690476Y-104306666D01*
X81738095Y-104401904D01*
X81785714Y-102973333D02*
X82452380Y-102973333D01*
X81404761Y-103211428D02*
X82119047Y-103449523D01*
X82119047Y-102830476D01*
X76293742Y-112466380D02*
X75960409Y-111990190D01*
X75722314Y-112466380D02*
X75722314Y-111466380D01*
X76103266Y-111466380D01*
X76198504Y-111514000D01*
X76246123Y-111561619D01*
X76293742Y-111656857D01*
X76293742Y-111799714D01*
X76246123Y-111894952D01*
X76198504Y-111942571D01*
X76103266Y-111990190D01*
X75722314Y-111990190D01*
X77246123Y-112466380D02*
X76674695Y-112466380D01*
X76960409Y-112466380D02*
X76960409Y-111466380D01*
X76865171Y-111609238D01*
X76769933Y-111704476D01*
X76674695Y-111752095D01*
X78150885Y-111466380D02*
X77674695Y-111466380D01*
X77627076Y-111942571D01*
X77674695Y-111894952D01*
X77769933Y-111847333D01*
X78008028Y-111847333D01*
X78103266Y-111894952D01*
X78150885Y-111942571D01*
X78198504Y-112037809D01*
X78198504Y-112275904D01*
X78150885Y-112371142D01*
X78103266Y-112418761D01*
X78008028Y-112466380D01*
X77769933Y-112466380D01*
X77674695Y-112418761D01*
X77627076Y-112371142D01*
X67617102Y-113514220D02*
X67283769Y-113038030D01*
X67045674Y-113514220D02*
X67045674Y-112514220D01*
X67426626Y-112514220D01*
X67521864Y-112561840D01*
X67569483Y-112609459D01*
X67617102Y-112704697D01*
X67617102Y-112847554D01*
X67569483Y-112942792D01*
X67521864Y-112990411D01*
X67426626Y-113038030D01*
X67045674Y-113038030D01*
X68569483Y-113514220D02*
X67998055Y-113514220D01*
X68283769Y-113514220D02*
X68283769Y-112514220D01*
X68188531Y-112657078D01*
X68093293Y-112752316D01*
X67998055Y-112799935D01*
X69426626Y-112514220D02*
X69236150Y-112514220D01*
X69140912Y-112561840D01*
X69093293Y-112609459D01*
X68998055Y-112752316D01*
X68950436Y-112942792D01*
X68950436Y-113323744D01*
X68998055Y-113418982D01*
X69045674Y-113466601D01*
X69140912Y-113514220D01*
X69331388Y-113514220D01*
X69426626Y-113466601D01*
X69474245Y-113418982D01*
X69521864Y-113323744D01*
X69521864Y-113085649D01*
X69474245Y-112990411D01*
X69426626Y-112942792D01*
X69331388Y-112895173D01*
X69140912Y-112895173D01*
X69045674Y-112942792D01*
X68998055Y-112990411D01*
X68950436Y-113085649D01*
X61804720Y-118034037D02*
X61328530Y-118367370D01*
X61804720Y-118605465D02*
X60804720Y-118605465D01*
X60804720Y-118224513D01*
X60852340Y-118129275D01*
X60899959Y-118081656D01*
X60995197Y-118034037D01*
X61138054Y-118034037D01*
X61233292Y-118081656D01*
X61280911Y-118129275D01*
X61328530Y-118224513D01*
X61328530Y-118605465D01*
X61804720Y-117081656D02*
X61804720Y-117653084D01*
X61804720Y-117367370D02*
X60804720Y-117367370D01*
X60947578Y-117462608D01*
X61042816Y-117557846D01*
X61090435Y-117653084D01*
X60804720Y-116748322D02*
X60804720Y-116081656D01*
X61804720Y-116510227D01*
X86032142Y-116307380D02*
X85698809Y-115831190D01*
X85460714Y-116307380D02*
X85460714Y-115307380D01*
X85841666Y-115307380D01*
X85936904Y-115355000D01*
X85984523Y-115402619D01*
X86032142Y-115497857D01*
X86032142Y-115640714D01*
X85984523Y-115735952D01*
X85936904Y-115783571D01*
X85841666Y-115831190D01*
X85460714Y-115831190D01*
X86413095Y-115402619D02*
X86460714Y-115355000D01*
X86555952Y-115307380D01*
X86794047Y-115307380D01*
X86889285Y-115355000D01*
X86936904Y-115402619D01*
X86984523Y-115497857D01*
X86984523Y-115593095D01*
X86936904Y-115735952D01*
X86365476Y-116307380D01*
X86984523Y-116307380D01*
X87841666Y-115307380D02*
X87651190Y-115307380D01*
X87555952Y-115355000D01*
X87508333Y-115402619D01*
X87413095Y-115545476D01*
X87365476Y-115735952D01*
X87365476Y-116116904D01*
X87413095Y-116212142D01*
X87460714Y-116259761D01*
X87555952Y-116307380D01*
X87746428Y-116307380D01*
X87841666Y-116259761D01*
X87889285Y-116212142D01*
X87936904Y-116116904D01*
X87936904Y-115878809D01*
X87889285Y-115783571D01*
X87841666Y-115735952D01*
X87746428Y-115688333D01*
X87555952Y-115688333D01*
X87460714Y-115735952D01*
X87413095Y-115783571D01*
X87365476Y-115878809D01*
X52647380Y-120742857D02*
X52171190Y-121076190D01*
X52647380Y-121314285D02*
X51647380Y-121314285D01*
X51647380Y-120933333D01*
X51695000Y-120838095D01*
X51742619Y-120790476D01*
X51837857Y-120742857D01*
X51980714Y-120742857D01*
X52075952Y-120790476D01*
X52123571Y-120838095D01*
X52171190Y-120933333D01*
X52171190Y-121314285D01*
X51742619Y-120361904D02*
X51695000Y-120314285D01*
X51647380Y-120219047D01*
X51647380Y-119980952D01*
X51695000Y-119885714D01*
X51742619Y-119838095D01*
X51837857Y-119790476D01*
X51933095Y-119790476D01*
X52075952Y-119838095D01*
X52647380Y-120409523D01*
X52647380Y-119790476D01*
X51647380Y-119457142D02*
X51647380Y-118790476D01*
X52647380Y-119219047D01*
X110593142Y-113418857D02*
X110640761Y-113466476D01*
X110688380Y-113609333D01*
X110688380Y-113704571D01*
X110640761Y-113847428D01*
X110545523Y-113942666D01*
X110450285Y-113990285D01*
X110259809Y-114037904D01*
X110116952Y-114037904D01*
X109926476Y-113990285D01*
X109831238Y-113942666D01*
X109736000Y-113847428D01*
X109688380Y-113704571D01*
X109688380Y-113609333D01*
X109736000Y-113466476D01*
X109783619Y-113418857D01*
X110688380Y-112466476D02*
X110688380Y-113037904D01*
X110688380Y-112752190D02*
X109688380Y-112752190D01*
X109831238Y-112847428D01*
X109926476Y-112942666D01*
X109974095Y-113037904D01*
X109688380Y-111609333D02*
X109688380Y-111799809D01*
X109736000Y-111895047D01*
X109783619Y-111942666D01*
X109926476Y-112037904D01*
X110116952Y-112085523D01*
X110497904Y-112085523D01*
X110593142Y-112037904D01*
X110640761Y-111990285D01*
X110688380Y-111895047D01*
X110688380Y-111704571D01*
X110640761Y-111609333D01*
X110593142Y-111561714D01*
X110497904Y-111514095D01*
X110259809Y-111514095D01*
X110164571Y-111561714D01*
X110116952Y-111609333D01*
X110069333Y-111704571D01*
X110069333Y-111895047D01*
X110116952Y-111990285D01*
X110164571Y-112037904D01*
X110259809Y-112085523D01*
X115366982Y-123717346D02*
X115414601Y-123764965D01*
X115462220Y-123907822D01*
X115462220Y-124003060D01*
X115414601Y-124145918D01*
X115319363Y-124241156D01*
X115224125Y-124288775D01*
X115033649Y-124336394D01*
X114890792Y-124336394D01*
X114700316Y-124288775D01*
X114605078Y-124241156D01*
X114509840Y-124145918D01*
X114462220Y-124003060D01*
X114462220Y-123907822D01*
X114509840Y-123764965D01*
X114557459Y-123717346D01*
X114795554Y-122860203D02*
X115462220Y-122860203D01*
X114414601Y-123098299D02*
X115128887Y-123336394D01*
X115128887Y-122717346D01*
X61661222Y-123201726D02*
X61708841Y-123249345D01*
X61756460Y-123392202D01*
X61756460Y-123487440D01*
X61708841Y-123630298D01*
X61613603Y-123725536D01*
X61518365Y-123773155D01*
X61327889Y-123820774D01*
X61185032Y-123820774D01*
X60994556Y-123773155D01*
X60899318Y-123725536D01*
X60804080Y-123630298D01*
X60756460Y-123487440D01*
X60756460Y-123392202D01*
X60804080Y-123249345D01*
X60851699Y-123201726D01*
X60756460Y-122296964D02*
X60756460Y-122773155D01*
X61232651Y-122820774D01*
X61185032Y-122773155D01*
X61137413Y-122677917D01*
X61137413Y-122439821D01*
X61185032Y-122344583D01*
X61232651Y-122296964D01*
X61327889Y-122249345D01*
X61565984Y-122249345D01*
X61661222Y-122296964D01*
X61708841Y-122344583D01*
X61756460Y-122439821D01*
X61756460Y-122677917D01*
X61708841Y-122773155D01*
X61661222Y-122820774D01*
M02*
