G04 #@! TF.GenerationSoftware,KiCad,Pcbnew,(5.1.9)-1*
G04 #@! TF.CreationDate,2021-05-31T22:19:56+02:00*
G04 #@! TF.ProjectId,vfo-pcb,76666f2d-7063-4622-9e6b-696361645f70,rev?*
G04 #@! TF.SameCoordinates,Original*
G04 #@! TF.FileFunction,Copper,L4,Bot*
G04 #@! TF.FilePolarity,Positive*
%FSLAX46Y46*%
G04 Gerber Fmt 4.6, Leading zero omitted, Abs format (unit mm)*
G04 Created by KiCad (PCBNEW (5.1.9)-1) date 2021-05-31 22:19:56*
%MOMM*%
%LPD*%
G01*
G04 APERTURE LIST*
G04 #@! TA.AperFunction,ComponentPad*
%ADD10O,1.700000X1.700000*%
G04 #@! TD*
G04 #@! TA.AperFunction,ComponentPad*
%ADD11R,1.700000X1.700000*%
G04 #@! TD*
G04 #@! TA.AperFunction,ComponentPad*
%ADD12R,2.800000X2.800000*%
G04 #@! TD*
G04 #@! TA.AperFunction,ComponentPad*
%ADD13C,2.800000*%
G04 #@! TD*
G04 #@! TA.AperFunction,ComponentPad*
%ADD14O,1.275000X1.800000*%
G04 #@! TD*
G04 #@! TA.AperFunction,ComponentPad*
%ADD15R,1.275000X1.800000*%
G04 #@! TD*
G04 #@! TA.AperFunction,SMDPad,CuDef*
%ADD16R,1.800000X3.600000*%
G04 #@! TD*
G04 #@! TA.AperFunction,ComponentPad*
%ADD17O,2.200000X2.200000*%
G04 #@! TD*
G04 #@! TA.AperFunction,ComponentPad*
%ADD18R,2.200000X2.200000*%
G04 #@! TD*
G04 #@! TA.AperFunction,ComponentPad*
%ADD19C,2.000000*%
G04 #@! TD*
G04 #@! TA.AperFunction,ComponentPad*
%ADD20R,2.000000X2.000000*%
G04 #@! TD*
G04 #@! TA.AperFunction,ComponentPad*
%ADD21R,3.200000X2.000000*%
G04 #@! TD*
G04 #@! TA.AperFunction,ComponentPad*
%ADD22C,2.050000*%
G04 #@! TD*
G04 #@! TA.AperFunction,ComponentPad*
%ADD23C,2.250000*%
G04 #@! TD*
G04 #@! TA.AperFunction,ViaPad*
%ADD24C,0.800000*%
G04 #@! TD*
G04 #@! TA.AperFunction,Conductor*
%ADD25C,0.250000*%
G04 #@! TD*
G04 #@! TA.AperFunction,Conductor*
%ADD26C,1.000000*%
G04 #@! TD*
G04 APERTURE END LIST*
D10*
X108839000Y-89789000D03*
X108839000Y-87249000D03*
X108839000Y-84709000D03*
X108839000Y-82169000D03*
X108839000Y-79629000D03*
X108839000Y-77089000D03*
D11*
X108839000Y-74549000D03*
G04 #@! TA.AperFunction,SMDPad,CuDef*
G36*
G01*
X47742000Y-105524000D02*
X46492000Y-105524000D01*
G75*
G02*
X46242000Y-105274000I0J250000D01*
G01*
X46242000Y-104349000D01*
G75*
G02*
X46492000Y-104099000I250000J0D01*
G01*
X47742000Y-104099000D01*
G75*
G02*
X47992000Y-104349000I0J-250000D01*
G01*
X47992000Y-105274000D01*
G75*
G02*
X47742000Y-105524000I-250000J0D01*
G01*
G37*
G04 #@! TD.AperFunction*
G04 #@! TA.AperFunction,SMDPad,CuDef*
G36*
G01*
X47742000Y-108499000D02*
X46492000Y-108499000D01*
G75*
G02*
X46242000Y-108249000I0J250000D01*
G01*
X46242000Y-107324000D01*
G75*
G02*
X46492000Y-107074000I250000J0D01*
G01*
X47742000Y-107074000D01*
G75*
G02*
X47992000Y-107324000I0J-250000D01*
G01*
X47992000Y-108249000D01*
G75*
G02*
X47742000Y-108499000I-250000J0D01*
G01*
G37*
G04 #@! TD.AperFunction*
X52161440Y-103235760D03*
D10*
X52161440Y-100695760D03*
X52161440Y-98155760D03*
X52161440Y-95615760D03*
X52161440Y-93075760D03*
X52161440Y-90535760D03*
X52161440Y-87995760D03*
X52161440Y-85455760D03*
X52161440Y-82915760D03*
X52161440Y-80375760D03*
X52161440Y-77835760D03*
X52161440Y-75295760D03*
X52161440Y-72755760D03*
X52161440Y-70215760D03*
X62357000Y-82169000D03*
X59817000Y-82169000D03*
X62357000Y-84709000D03*
X59817000Y-84709000D03*
X62357000Y-87249000D03*
D11*
X59817000Y-87249000D03*
G04 #@! TA.AperFunction,SMDPad,CuDef*
G36*
G01*
X103111000Y-81544000D02*
X103111000Y-82794000D01*
G75*
G02*
X102861000Y-83044000I-250000J0D01*
G01*
X101936000Y-83044000D01*
G75*
G02*
X101686000Y-82794000I0J250000D01*
G01*
X101686000Y-81544000D01*
G75*
G02*
X101936000Y-81294000I250000J0D01*
G01*
X102861000Y-81294000D01*
G75*
G02*
X103111000Y-81544000I0J-250000D01*
G01*
G37*
G04 #@! TD.AperFunction*
G04 #@! TA.AperFunction,SMDPad,CuDef*
G36*
G01*
X106086000Y-81544000D02*
X106086000Y-82794000D01*
G75*
G02*
X105836000Y-83044000I-250000J0D01*
G01*
X104911000Y-83044000D01*
G75*
G02*
X104661000Y-82794000I0J250000D01*
G01*
X104661000Y-81544000D01*
G75*
G02*
X104911000Y-81294000I250000J0D01*
G01*
X105836000Y-81294000D01*
G75*
G02*
X106086000Y-81544000I0J-250000D01*
G01*
G37*
G04 #@! TD.AperFunction*
D10*
X59309000Y-58039000D03*
X59309000Y-60579000D03*
X61849000Y-58039000D03*
X61849000Y-60579000D03*
X64389000Y-58039000D03*
X64389000Y-60579000D03*
X66929000Y-58039000D03*
X66929000Y-60579000D03*
X69469000Y-58039000D03*
D11*
X69469000Y-60579000D03*
D10*
X117602000Y-59690000D03*
X115062000Y-59690000D03*
X112522000Y-59690000D03*
X109982000Y-59690000D03*
X107442000Y-59690000D03*
X104902000Y-59690000D03*
D11*
X102362000Y-59690000D03*
D12*
X134112000Y-59436000D03*
D13*
X139112000Y-59436000D03*
G04 #@! TA.AperFunction,SMDPad,CuDef*
G36*
G01*
X91787000Y-70223000D02*
X91787000Y-70023000D01*
G75*
G02*
X91887000Y-69923000I100000J0D01*
G01*
X93162000Y-69923000D01*
G75*
G02*
X93262000Y-70023000I0J-100000D01*
G01*
X93262000Y-70223000D01*
G75*
G02*
X93162000Y-70323000I-100000J0D01*
G01*
X91887000Y-70323000D01*
G75*
G02*
X91787000Y-70223000I0J100000D01*
G01*
G37*
G04 #@! TD.AperFunction*
G04 #@! TA.AperFunction,SMDPad,CuDef*
G36*
G01*
X91787000Y-69573000D02*
X91787000Y-69373000D01*
G75*
G02*
X91887000Y-69273000I100000J0D01*
G01*
X93162000Y-69273000D01*
G75*
G02*
X93262000Y-69373000I0J-100000D01*
G01*
X93262000Y-69573000D01*
G75*
G02*
X93162000Y-69673000I-100000J0D01*
G01*
X91887000Y-69673000D01*
G75*
G02*
X91787000Y-69573000I0J100000D01*
G01*
G37*
G04 #@! TD.AperFunction*
G04 #@! TA.AperFunction,SMDPad,CuDef*
G36*
G01*
X91787000Y-68923000D02*
X91787000Y-68723000D01*
G75*
G02*
X91887000Y-68623000I100000J0D01*
G01*
X93162000Y-68623000D01*
G75*
G02*
X93262000Y-68723000I0J-100000D01*
G01*
X93262000Y-68923000D01*
G75*
G02*
X93162000Y-69023000I-100000J0D01*
G01*
X91887000Y-69023000D01*
G75*
G02*
X91787000Y-68923000I0J100000D01*
G01*
G37*
G04 #@! TD.AperFunction*
G04 #@! TA.AperFunction,SMDPad,CuDef*
G36*
G01*
X91787000Y-68273000D02*
X91787000Y-68073000D01*
G75*
G02*
X91887000Y-67973000I100000J0D01*
G01*
X93162000Y-67973000D01*
G75*
G02*
X93262000Y-68073000I0J-100000D01*
G01*
X93262000Y-68273000D01*
G75*
G02*
X93162000Y-68373000I-100000J0D01*
G01*
X91887000Y-68373000D01*
G75*
G02*
X91787000Y-68273000I0J100000D01*
G01*
G37*
G04 #@! TD.AperFunction*
G04 #@! TA.AperFunction,SMDPad,CuDef*
G36*
G01*
X91787000Y-67623000D02*
X91787000Y-67423000D01*
G75*
G02*
X91887000Y-67323000I100000J0D01*
G01*
X93162000Y-67323000D01*
G75*
G02*
X93262000Y-67423000I0J-100000D01*
G01*
X93262000Y-67623000D01*
G75*
G02*
X93162000Y-67723000I-100000J0D01*
G01*
X91887000Y-67723000D01*
G75*
G02*
X91787000Y-67623000I0J100000D01*
G01*
G37*
G04 #@! TD.AperFunction*
G04 #@! TA.AperFunction,SMDPad,CuDef*
G36*
G01*
X91787000Y-66973000D02*
X91787000Y-66773000D01*
G75*
G02*
X91887000Y-66673000I100000J0D01*
G01*
X93162000Y-66673000D01*
G75*
G02*
X93262000Y-66773000I0J-100000D01*
G01*
X93262000Y-66973000D01*
G75*
G02*
X93162000Y-67073000I-100000J0D01*
G01*
X91887000Y-67073000D01*
G75*
G02*
X91787000Y-66973000I0J100000D01*
G01*
G37*
G04 #@! TD.AperFunction*
G04 #@! TA.AperFunction,SMDPad,CuDef*
G36*
G01*
X91787000Y-66323000D02*
X91787000Y-66123000D01*
G75*
G02*
X91887000Y-66023000I100000J0D01*
G01*
X93162000Y-66023000D01*
G75*
G02*
X93262000Y-66123000I0J-100000D01*
G01*
X93262000Y-66323000D01*
G75*
G02*
X93162000Y-66423000I-100000J0D01*
G01*
X91887000Y-66423000D01*
G75*
G02*
X91787000Y-66323000I0J100000D01*
G01*
G37*
G04 #@! TD.AperFunction*
G04 #@! TA.AperFunction,SMDPad,CuDef*
G36*
G01*
X91787000Y-65673000D02*
X91787000Y-65473000D01*
G75*
G02*
X91887000Y-65373000I100000J0D01*
G01*
X93162000Y-65373000D01*
G75*
G02*
X93262000Y-65473000I0J-100000D01*
G01*
X93262000Y-65673000D01*
G75*
G02*
X93162000Y-65773000I-100000J0D01*
G01*
X91887000Y-65773000D01*
G75*
G02*
X91787000Y-65673000I0J100000D01*
G01*
G37*
G04 #@! TD.AperFunction*
G04 #@! TA.AperFunction,SMDPad,CuDef*
G36*
G01*
X91787000Y-65023000D02*
X91787000Y-64823000D01*
G75*
G02*
X91887000Y-64723000I100000J0D01*
G01*
X93162000Y-64723000D01*
G75*
G02*
X93262000Y-64823000I0J-100000D01*
G01*
X93262000Y-65023000D01*
G75*
G02*
X93162000Y-65123000I-100000J0D01*
G01*
X91887000Y-65123000D01*
G75*
G02*
X91787000Y-65023000I0J100000D01*
G01*
G37*
G04 #@! TD.AperFunction*
G04 #@! TA.AperFunction,SMDPad,CuDef*
G36*
G01*
X91787000Y-64373000D02*
X91787000Y-64173000D01*
G75*
G02*
X91887000Y-64073000I100000J0D01*
G01*
X93162000Y-64073000D01*
G75*
G02*
X93262000Y-64173000I0J-100000D01*
G01*
X93262000Y-64373000D01*
G75*
G02*
X93162000Y-64473000I-100000J0D01*
G01*
X91887000Y-64473000D01*
G75*
G02*
X91787000Y-64373000I0J100000D01*
G01*
G37*
G04 #@! TD.AperFunction*
G04 #@! TA.AperFunction,SMDPad,CuDef*
G36*
G01*
X91787000Y-63723000D02*
X91787000Y-63523000D01*
G75*
G02*
X91887000Y-63423000I100000J0D01*
G01*
X93162000Y-63423000D01*
G75*
G02*
X93262000Y-63523000I0J-100000D01*
G01*
X93262000Y-63723000D01*
G75*
G02*
X93162000Y-63823000I-100000J0D01*
G01*
X91887000Y-63823000D01*
G75*
G02*
X91787000Y-63723000I0J100000D01*
G01*
G37*
G04 #@! TD.AperFunction*
G04 #@! TA.AperFunction,SMDPad,CuDef*
G36*
G01*
X91787000Y-63073000D02*
X91787000Y-62873000D01*
G75*
G02*
X91887000Y-62773000I100000J0D01*
G01*
X93162000Y-62773000D01*
G75*
G02*
X93262000Y-62873000I0J-100000D01*
G01*
X93262000Y-63073000D01*
G75*
G02*
X93162000Y-63173000I-100000J0D01*
G01*
X91887000Y-63173000D01*
G75*
G02*
X91787000Y-63073000I0J100000D01*
G01*
G37*
G04 #@! TD.AperFunction*
G04 #@! TA.AperFunction,SMDPad,CuDef*
G36*
G01*
X86062000Y-63073000D02*
X86062000Y-62873000D01*
G75*
G02*
X86162000Y-62773000I100000J0D01*
G01*
X87437000Y-62773000D01*
G75*
G02*
X87537000Y-62873000I0J-100000D01*
G01*
X87537000Y-63073000D01*
G75*
G02*
X87437000Y-63173000I-100000J0D01*
G01*
X86162000Y-63173000D01*
G75*
G02*
X86062000Y-63073000I0J100000D01*
G01*
G37*
G04 #@! TD.AperFunction*
G04 #@! TA.AperFunction,SMDPad,CuDef*
G36*
G01*
X86062000Y-63723000D02*
X86062000Y-63523000D01*
G75*
G02*
X86162000Y-63423000I100000J0D01*
G01*
X87437000Y-63423000D01*
G75*
G02*
X87537000Y-63523000I0J-100000D01*
G01*
X87537000Y-63723000D01*
G75*
G02*
X87437000Y-63823000I-100000J0D01*
G01*
X86162000Y-63823000D01*
G75*
G02*
X86062000Y-63723000I0J100000D01*
G01*
G37*
G04 #@! TD.AperFunction*
G04 #@! TA.AperFunction,SMDPad,CuDef*
G36*
G01*
X86062000Y-64373000D02*
X86062000Y-64173000D01*
G75*
G02*
X86162000Y-64073000I100000J0D01*
G01*
X87437000Y-64073000D01*
G75*
G02*
X87537000Y-64173000I0J-100000D01*
G01*
X87537000Y-64373000D01*
G75*
G02*
X87437000Y-64473000I-100000J0D01*
G01*
X86162000Y-64473000D01*
G75*
G02*
X86062000Y-64373000I0J100000D01*
G01*
G37*
G04 #@! TD.AperFunction*
G04 #@! TA.AperFunction,SMDPad,CuDef*
G36*
G01*
X86062000Y-65023000D02*
X86062000Y-64823000D01*
G75*
G02*
X86162000Y-64723000I100000J0D01*
G01*
X87437000Y-64723000D01*
G75*
G02*
X87537000Y-64823000I0J-100000D01*
G01*
X87537000Y-65023000D01*
G75*
G02*
X87437000Y-65123000I-100000J0D01*
G01*
X86162000Y-65123000D01*
G75*
G02*
X86062000Y-65023000I0J100000D01*
G01*
G37*
G04 #@! TD.AperFunction*
G04 #@! TA.AperFunction,SMDPad,CuDef*
G36*
G01*
X86062000Y-65673000D02*
X86062000Y-65473000D01*
G75*
G02*
X86162000Y-65373000I100000J0D01*
G01*
X87437000Y-65373000D01*
G75*
G02*
X87537000Y-65473000I0J-100000D01*
G01*
X87537000Y-65673000D01*
G75*
G02*
X87437000Y-65773000I-100000J0D01*
G01*
X86162000Y-65773000D01*
G75*
G02*
X86062000Y-65673000I0J100000D01*
G01*
G37*
G04 #@! TD.AperFunction*
G04 #@! TA.AperFunction,SMDPad,CuDef*
G36*
G01*
X86062000Y-66323000D02*
X86062000Y-66123000D01*
G75*
G02*
X86162000Y-66023000I100000J0D01*
G01*
X87437000Y-66023000D01*
G75*
G02*
X87537000Y-66123000I0J-100000D01*
G01*
X87537000Y-66323000D01*
G75*
G02*
X87437000Y-66423000I-100000J0D01*
G01*
X86162000Y-66423000D01*
G75*
G02*
X86062000Y-66323000I0J100000D01*
G01*
G37*
G04 #@! TD.AperFunction*
G04 #@! TA.AperFunction,SMDPad,CuDef*
G36*
G01*
X86062000Y-66973000D02*
X86062000Y-66773000D01*
G75*
G02*
X86162000Y-66673000I100000J0D01*
G01*
X87437000Y-66673000D01*
G75*
G02*
X87537000Y-66773000I0J-100000D01*
G01*
X87537000Y-66973000D01*
G75*
G02*
X87437000Y-67073000I-100000J0D01*
G01*
X86162000Y-67073000D01*
G75*
G02*
X86062000Y-66973000I0J100000D01*
G01*
G37*
G04 #@! TD.AperFunction*
G04 #@! TA.AperFunction,SMDPad,CuDef*
G36*
G01*
X86062000Y-67623000D02*
X86062000Y-67423000D01*
G75*
G02*
X86162000Y-67323000I100000J0D01*
G01*
X87437000Y-67323000D01*
G75*
G02*
X87537000Y-67423000I0J-100000D01*
G01*
X87537000Y-67623000D01*
G75*
G02*
X87437000Y-67723000I-100000J0D01*
G01*
X86162000Y-67723000D01*
G75*
G02*
X86062000Y-67623000I0J100000D01*
G01*
G37*
G04 #@! TD.AperFunction*
G04 #@! TA.AperFunction,SMDPad,CuDef*
G36*
G01*
X86062000Y-68273000D02*
X86062000Y-68073000D01*
G75*
G02*
X86162000Y-67973000I100000J0D01*
G01*
X87437000Y-67973000D01*
G75*
G02*
X87537000Y-68073000I0J-100000D01*
G01*
X87537000Y-68273000D01*
G75*
G02*
X87437000Y-68373000I-100000J0D01*
G01*
X86162000Y-68373000D01*
G75*
G02*
X86062000Y-68273000I0J100000D01*
G01*
G37*
G04 #@! TD.AperFunction*
G04 #@! TA.AperFunction,SMDPad,CuDef*
G36*
G01*
X86062000Y-68923000D02*
X86062000Y-68723000D01*
G75*
G02*
X86162000Y-68623000I100000J0D01*
G01*
X87437000Y-68623000D01*
G75*
G02*
X87537000Y-68723000I0J-100000D01*
G01*
X87537000Y-68923000D01*
G75*
G02*
X87437000Y-69023000I-100000J0D01*
G01*
X86162000Y-69023000D01*
G75*
G02*
X86062000Y-68923000I0J100000D01*
G01*
G37*
G04 #@! TD.AperFunction*
G04 #@! TA.AperFunction,SMDPad,CuDef*
G36*
G01*
X86062000Y-69573000D02*
X86062000Y-69373000D01*
G75*
G02*
X86162000Y-69273000I100000J0D01*
G01*
X87437000Y-69273000D01*
G75*
G02*
X87537000Y-69373000I0J-100000D01*
G01*
X87537000Y-69573000D01*
G75*
G02*
X87437000Y-69673000I-100000J0D01*
G01*
X86162000Y-69673000D01*
G75*
G02*
X86062000Y-69573000I0J100000D01*
G01*
G37*
G04 #@! TD.AperFunction*
G04 #@! TA.AperFunction,SMDPad,CuDef*
G36*
G01*
X86062000Y-70223000D02*
X86062000Y-70023000D01*
G75*
G02*
X86162000Y-69923000I100000J0D01*
G01*
X87437000Y-69923000D01*
G75*
G02*
X87537000Y-70023000I0J-100000D01*
G01*
X87537000Y-70223000D01*
G75*
G02*
X87437000Y-70323000I-100000J0D01*
G01*
X86162000Y-70323000D01*
G75*
G02*
X86062000Y-70223000I0J100000D01*
G01*
G37*
G04 #@! TD.AperFunction*
D10*
X78994000Y-59690000D03*
X81534000Y-59690000D03*
X84074000Y-59690000D03*
X86614000Y-59690000D03*
X89154000Y-59690000D03*
X91694000Y-59690000D03*
D11*
X94234000Y-59690000D03*
G04 #@! TA.AperFunction,SMDPad,CuDef*
G36*
G01*
X94752000Y-68847000D02*
X96002000Y-68847000D01*
G75*
G02*
X96252000Y-69097000I0J-250000D01*
G01*
X96252000Y-70022000D01*
G75*
G02*
X96002000Y-70272000I-250000J0D01*
G01*
X94752000Y-70272000D01*
G75*
G02*
X94502000Y-70022000I0J250000D01*
G01*
X94502000Y-69097000D01*
G75*
G02*
X94752000Y-68847000I250000J0D01*
G01*
G37*
G04 #@! TD.AperFunction*
G04 #@! TA.AperFunction,SMDPad,CuDef*
G36*
G01*
X94752000Y-65872000D02*
X96002000Y-65872000D01*
G75*
G02*
X96252000Y-66122000I0J-250000D01*
G01*
X96252000Y-67047000D01*
G75*
G02*
X96002000Y-67297000I-250000J0D01*
G01*
X94752000Y-67297000D01*
G75*
G02*
X94502000Y-67047000I0J250000D01*
G01*
X94502000Y-66122000D01*
G75*
G02*
X94752000Y-65872000I250000J0D01*
G01*
G37*
G04 #@! TD.AperFunction*
G04 #@! TA.AperFunction,SMDPad,CuDef*
G36*
G01*
X103111000Y-84084000D02*
X103111000Y-85334000D01*
G75*
G02*
X102861000Y-85584000I-250000J0D01*
G01*
X101936000Y-85584000D01*
G75*
G02*
X101686000Y-85334000I0J250000D01*
G01*
X101686000Y-84084000D01*
G75*
G02*
X101936000Y-83834000I250000J0D01*
G01*
X102861000Y-83834000D01*
G75*
G02*
X103111000Y-84084000I0J-250000D01*
G01*
G37*
G04 #@! TD.AperFunction*
G04 #@! TA.AperFunction,SMDPad,CuDef*
G36*
G01*
X106086000Y-84084000D02*
X106086000Y-85334000D01*
G75*
G02*
X105836000Y-85584000I-250000J0D01*
G01*
X104911000Y-85584000D01*
G75*
G02*
X104661000Y-85334000I0J250000D01*
G01*
X104661000Y-84084000D01*
G75*
G02*
X104911000Y-83834000I250000J0D01*
G01*
X105836000Y-83834000D01*
G75*
G02*
X106086000Y-84084000I0J-250000D01*
G01*
G37*
G04 #@! TD.AperFunction*
G04 #@! TA.AperFunction,SMDPad,CuDef*
G36*
G01*
X103111000Y-86878000D02*
X103111000Y-88128000D01*
G75*
G02*
X102861000Y-88378000I-250000J0D01*
G01*
X101936000Y-88378000D01*
G75*
G02*
X101686000Y-88128000I0J250000D01*
G01*
X101686000Y-86878000D01*
G75*
G02*
X101936000Y-86628000I250000J0D01*
G01*
X102861000Y-86628000D01*
G75*
G02*
X103111000Y-86878000I0J-250000D01*
G01*
G37*
G04 #@! TD.AperFunction*
G04 #@! TA.AperFunction,SMDPad,CuDef*
G36*
G01*
X106086000Y-86878000D02*
X106086000Y-88128000D01*
G75*
G02*
X105836000Y-88378000I-250000J0D01*
G01*
X104911000Y-88378000D01*
G75*
G02*
X104661000Y-88128000I0J250000D01*
G01*
X104661000Y-86878000D01*
G75*
G02*
X104911000Y-86628000I250000J0D01*
G01*
X105836000Y-86628000D01*
G75*
G02*
X106086000Y-86878000I0J-250000D01*
G01*
G37*
G04 #@! TD.AperFunction*
G04 #@! TA.AperFunction,SMDPad,CuDef*
G36*
G01*
X103111000Y-78750000D02*
X103111000Y-80000000D01*
G75*
G02*
X102861000Y-80250000I-250000J0D01*
G01*
X101936000Y-80250000D01*
G75*
G02*
X101686000Y-80000000I0J250000D01*
G01*
X101686000Y-78750000D01*
G75*
G02*
X101936000Y-78500000I250000J0D01*
G01*
X102861000Y-78500000D01*
G75*
G02*
X103111000Y-78750000I0J-250000D01*
G01*
G37*
G04 #@! TD.AperFunction*
G04 #@! TA.AperFunction,SMDPad,CuDef*
G36*
G01*
X106086000Y-78750000D02*
X106086000Y-80000000D01*
G75*
G02*
X105836000Y-80250000I-250000J0D01*
G01*
X104911000Y-80250000D01*
G75*
G02*
X104661000Y-80000000I0J250000D01*
G01*
X104661000Y-78750000D01*
G75*
G02*
X104911000Y-78500000I250000J0D01*
G01*
X105836000Y-78500000D01*
G75*
G02*
X106086000Y-78750000I0J-250000D01*
G01*
G37*
G04 #@! TD.AperFunction*
G04 #@! TA.AperFunction,SMDPad,CuDef*
G36*
G01*
X103111000Y-75956000D02*
X103111000Y-77206000D01*
G75*
G02*
X102861000Y-77456000I-250000J0D01*
G01*
X101936000Y-77456000D01*
G75*
G02*
X101686000Y-77206000I0J250000D01*
G01*
X101686000Y-75956000D01*
G75*
G02*
X101936000Y-75706000I250000J0D01*
G01*
X102861000Y-75706000D01*
G75*
G02*
X103111000Y-75956000I0J-250000D01*
G01*
G37*
G04 #@! TD.AperFunction*
G04 #@! TA.AperFunction,SMDPad,CuDef*
G36*
G01*
X106086000Y-75956000D02*
X106086000Y-77206000D01*
G75*
G02*
X105836000Y-77456000I-250000J0D01*
G01*
X104911000Y-77456000D01*
G75*
G02*
X104661000Y-77206000I0J250000D01*
G01*
X104661000Y-75956000D01*
G75*
G02*
X104911000Y-75706000I250000J0D01*
G01*
X105836000Y-75706000D01*
G75*
G02*
X106086000Y-75956000I0J-250000D01*
G01*
G37*
G04 #@! TD.AperFunction*
G04 #@! TA.AperFunction,SMDPad,CuDef*
G36*
G01*
X77480000Y-91707000D02*
X78730000Y-91707000D01*
G75*
G02*
X78980000Y-91957000I0J-250000D01*
G01*
X78980000Y-92882000D01*
G75*
G02*
X78730000Y-93132000I-250000J0D01*
G01*
X77480000Y-93132000D01*
G75*
G02*
X77230000Y-92882000I0J250000D01*
G01*
X77230000Y-91957000D01*
G75*
G02*
X77480000Y-91707000I250000J0D01*
G01*
G37*
G04 #@! TD.AperFunction*
G04 #@! TA.AperFunction,SMDPad,CuDef*
G36*
G01*
X77480000Y-88732000D02*
X78730000Y-88732000D01*
G75*
G02*
X78980000Y-88982000I0J-250000D01*
G01*
X78980000Y-89907000D01*
G75*
G02*
X78730000Y-90157000I-250000J0D01*
G01*
X77480000Y-90157000D01*
G75*
G02*
X77230000Y-89907000I0J250000D01*
G01*
X77230000Y-88982000D01*
G75*
G02*
X77480000Y-88732000I250000J0D01*
G01*
G37*
G04 #@! TD.AperFunction*
G04 #@! TA.AperFunction,SMDPad,CuDef*
G36*
G01*
X133772000Y-83449000D02*
X133772000Y-84699000D01*
G75*
G02*
X133522000Y-84949000I-250000J0D01*
G01*
X132597000Y-84949000D01*
G75*
G02*
X132347000Y-84699000I0J250000D01*
G01*
X132347000Y-83449000D01*
G75*
G02*
X132597000Y-83199000I250000J0D01*
G01*
X133522000Y-83199000D01*
G75*
G02*
X133772000Y-83449000I0J-250000D01*
G01*
G37*
G04 #@! TD.AperFunction*
G04 #@! TA.AperFunction,SMDPad,CuDef*
G36*
G01*
X130797000Y-83449000D02*
X130797000Y-84699000D01*
G75*
G02*
X130547000Y-84949000I-250000J0D01*
G01*
X129622000Y-84949000D01*
G75*
G02*
X129372000Y-84699000I0J250000D01*
G01*
X129372000Y-83449000D01*
G75*
G02*
X129622000Y-83199000I250000J0D01*
G01*
X130547000Y-83199000D01*
G75*
G02*
X130797000Y-83449000I0J-250000D01*
G01*
G37*
G04 #@! TD.AperFunction*
D14*
X136710000Y-99060000D03*
X138410000Y-99060000D03*
X140110000Y-99060000D03*
X141810000Y-99060000D03*
D15*
X143510000Y-99060000D03*
D16*
X144962000Y-106172000D03*
X135962000Y-106172000D03*
D17*
X132080000Y-109220000D03*
D18*
X132080000Y-99060000D03*
D19*
X147356000Y-88282000D03*
D20*
X142356000Y-88282000D03*
D19*
X135136000Y-88282000D03*
D20*
X130136000Y-88282000D03*
X144327880Y-69936360D03*
D19*
X144327880Y-72436360D03*
X144327880Y-74936360D03*
D21*
X136827880Y-66836360D03*
X136827880Y-78036360D03*
D19*
X129827880Y-69936360D03*
X129827880Y-74936360D03*
D11*
X98679000Y-89789000D03*
D10*
X98679000Y-87249000D03*
X98679000Y-84709000D03*
X98679000Y-82169000D03*
X98679000Y-79629000D03*
X98679000Y-77089000D03*
X98679000Y-74549000D03*
G04 #@! TA.AperFunction,SMDPad,CuDef*
G36*
G01*
X47996000Y-86220000D02*
X46746000Y-86220000D01*
G75*
G02*
X46496000Y-85970000I0J250000D01*
G01*
X46496000Y-85045000D01*
G75*
G02*
X46746000Y-84795000I250000J0D01*
G01*
X47996000Y-84795000D01*
G75*
G02*
X48246000Y-85045000I0J-250000D01*
G01*
X48246000Y-85970000D01*
G75*
G02*
X47996000Y-86220000I-250000J0D01*
G01*
G37*
G04 #@! TD.AperFunction*
G04 #@! TA.AperFunction,SMDPad,CuDef*
G36*
G01*
X47996000Y-89195000D02*
X46746000Y-89195000D01*
G75*
G02*
X46496000Y-88945000I0J250000D01*
G01*
X46496000Y-88020000D01*
G75*
G02*
X46746000Y-87770000I250000J0D01*
G01*
X47996000Y-87770000D01*
G75*
G02*
X48246000Y-88020000I0J-250000D01*
G01*
X48246000Y-88945000D01*
G75*
G02*
X47996000Y-89195000I-250000J0D01*
G01*
G37*
G04 #@! TD.AperFunction*
D22*
X123489720Y-125712220D03*
D23*
X126029720Y-128252220D03*
X126029720Y-123172220D03*
X120949720Y-123172220D03*
X120949720Y-128252220D03*
D22*
X111114840Y-125712220D03*
D23*
X113654840Y-128252220D03*
X113654840Y-123172220D03*
X108574840Y-123172220D03*
X108574840Y-128252220D03*
D22*
X97025000Y-125750000D03*
D23*
X99565000Y-128290000D03*
X99565000Y-123210000D03*
X94485000Y-123210000D03*
X94485000Y-128290000D03*
X80465168Y-128252220D03*
X80465168Y-123172220D03*
X85545168Y-123172220D03*
X85545168Y-128252220D03*
D22*
X83005168Y-125712220D03*
D23*
X67044824Y-128252220D03*
X67044824Y-123172220D03*
X72124824Y-123172220D03*
X72124824Y-128252220D03*
D22*
X69584824Y-125712220D03*
D23*
X54102000Y-128270000D03*
X54102000Y-123190000D03*
X59182000Y-123190000D03*
X59182000Y-128270000D03*
D22*
X56642000Y-125730000D03*
D24*
X99187000Y-111760000D03*
X53213000Y-115824000D03*
X47117000Y-107823000D03*
X92964000Y-100076000D03*
X93091000Y-103378000D03*
X105410000Y-76581000D03*
X105410000Y-82169000D03*
X105410000Y-79375000D03*
X105410000Y-84582000D03*
X105410000Y-87503000D03*
X95377000Y-66675000D03*
X92202000Y-91440000D03*
X76581000Y-86360000D03*
X76581000Y-85471000D03*
X76581000Y-84582000D03*
X76581000Y-83693000D03*
X77597000Y-83693000D03*
X77597000Y-84582000D03*
X77597000Y-85471000D03*
X77597000Y-86360000D03*
X78486000Y-86360000D03*
X78486000Y-85471000D03*
X78486000Y-84582000D03*
X78486000Y-83693000D03*
X79375000Y-86360000D03*
X79375000Y-85471000D03*
X79375000Y-84582000D03*
X79375000Y-83693000D03*
X80391000Y-86360000D03*
X80391000Y-85471000D03*
X80391000Y-84582000D03*
X80391000Y-83693000D03*
X80391000Y-82677000D03*
X79375000Y-82677000D03*
X78486000Y-82677000D03*
X77597000Y-82677000D03*
X76581000Y-82677000D03*
X98806000Y-95758000D03*
X114808000Y-64770000D03*
X133096000Y-84074000D03*
X91440000Y-126746000D03*
X56134000Y-115824000D03*
X77470000Y-127762000D03*
X77216000Y-122428000D03*
X144526000Y-95504000D03*
X129286000Y-95504000D03*
X78105000Y-92456000D03*
X115570000Y-81788000D03*
X115570000Y-92710000D03*
X115570000Y-87376000D03*
X85090000Y-114300000D03*
X80010000Y-114427000D03*
X51054000Y-110236000D03*
X50292000Y-113538000D03*
X47625000Y-118491000D03*
X63119000Y-124460000D03*
X102489000Y-105283000D03*
X96266000Y-109474000D03*
X112141000Y-114173000D03*
X124460000Y-111506000D03*
X127635000Y-117221000D03*
X116840000Y-125095000D03*
X108204000Y-117094000D03*
X109601000Y-111125000D03*
X64643000Y-111379000D03*
X66040000Y-92075000D03*
X82804000Y-91948000D03*
X82931000Y-76708000D03*
X84709000Y-62992000D03*
X90551000Y-68199000D03*
X86360000Y-71501000D03*
X98679000Y-100330000D03*
X105410000Y-108167500D03*
X108204000Y-108167500D03*
X66548000Y-90805000D03*
X75438000Y-78105000D03*
X102398500Y-87503000D03*
X102398500Y-84709000D03*
X84328000Y-68326000D03*
X65024000Y-79375000D03*
X89408000Y-84328000D03*
X107278500Y-66929000D03*
X66802000Y-89408000D03*
X67183000Y-98171000D03*
X104267000Y-67056000D03*
X105156000Y-96901000D03*
X105156000Y-99060000D03*
X95377000Y-69596000D03*
X92075000Y-76835000D03*
X61214000Y-76835000D03*
X92202000Y-88773000D03*
X105156000Y-98044000D03*
X98806000Y-97917000D03*
X104394000Y-63754000D03*
X114808000Y-67437000D03*
X108204000Y-105156000D03*
X105410000Y-105283000D03*
X89789000Y-107188000D03*
X86868000Y-106934000D03*
X59055000Y-115951000D03*
X124714000Y-73533000D03*
X121793000Y-73533000D03*
X118872000Y-73533000D03*
X63119000Y-121539000D03*
X88392000Y-114300000D03*
X77216000Y-119380000D03*
X53848000Y-110236000D03*
X116829840Y-122063180D03*
X102631240Y-108177660D03*
X112199420Y-111146260D03*
X64262000Y-112903000D03*
X89281000Y-92202000D03*
X88900000Y-90932000D03*
X85090000Y-69469000D03*
X89916000Y-109982000D03*
X86868000Y-109855000D03*
X89408000Y-69342000D03*
X83312000Y-67437000D03*
X64225500Y-76835000D03*
X89190500Y-76835000D03*
X78086750Y-89426250D03*
X66421000Y-81534000D03*
X86614000Y-95504000D03*
X92329000Y-95377000D03*
D25*
X84728000Y-62973000D02*
X84709000Y-62992000D01*
X86799500Y-62973000D02*
X84728000Y-62973000D01*
X90577000Y-68173000D02*
X90551000Y-68199000D01*
X92524500Y-68173000D02*
X90577000Y-68173000D01*
X86799500Y-71061500D02*
X86360000Y-71501000D01*
X86799500Y-70123000D02*
X86799500Y-71061500D01*
X86799500Y-70123000D02*
X86799500Y-69473000D01*
D26*
X145626001Y-91552001D02*
X142356000Y-88282000D01*
X145626001Y-105507999D02*
X145626001Y-91552001D01*
X144962000Y-106172000D02*
X145626001Y-105507999D01*
X52161440Y-103235760D02*
X49641760Y-103235760D01*
X47371000Y-100965000D02*
X47371000Y-88482500D01*
X49641760Y-103235760D02*
X47371000Y-100965000D01*
X45795990Y-86907490D02*
X45795990Y-64948010D01*
X47371000Y-88482500D02*
X45795990Y-86907490D01*
X45795990Y-64948010D02*
X56134000Y-54610000D01*
X147427891Y-83210109D02*
X142356000Y-88282000D01*
X147427891Y-59849093D02*
X147427891Y-83210109D01*
X142188798Y-54610000D02*
X147427891Y-59849093D01*
X56134000Y-54610000D02*
X142188798Y-54610000D01*
X48692740Y-103235760D02*
X47117000Y-104811500D01*
X52161440Y-103235760D02*
X48692740Y-103235760D01*
D25*
X86110942Y-67523000D02*
X86799500Y-67523000D01*
X85736990Y-65486988D02*
X85736990Y-67149048D01*
X82898999Y-62648997D02*
X85736990Y-65486988D01*
X85736990Y-67149048D02*
X86110942Y-67523000D01*
X107105981Y-57614979D02*
X84410019Y-57614979D01*
X108617001Y-59125999D02*
X107105981Y-57614979D01*
X84410019Y-57614979D02*
X82898999Y-59125999D01*
X82898999Y-59125999D02*
X82898999Y-62648997D01*
X108617001Y-61881001D02*
X108617001Y-59403999D01*
X110706991Y-101059011D02*
X110706991Y-63970991D01*
X105410000Y-106356002D02*
X110706991Y-101059011D01*
X105410000Y-108167500D02*
X105410000Y-106356002D01*
X110706991Y-63970991D02*
X108617001Y-61881001D01*
X108617001Y-59403999D02*
X108617001Y-59125999D01*
X108617001Y-60254001D02*
X108617001Y-59403999D01*
X80358999Y-57182001D02*
X80358999Y-62421057D01*
X80376031Y-57164969D02*
X80358999Y-57182001D01*
X86110942Y-68173000D02*
X86799500Y-68173000D01*
X109742969Y-57164969D02*
X80376031Y-57164969D01*
X111157001Y-58579001D02*
X109742969Y-57164969D01*
X111157001Y-105214499D02*
X111157001Y-58579001D01*
X80358999Y-62421057D02*
X86110942Y-68173000D01*
X108204000Y-108167500D02*
X111157001Y-105214499D01*
X65713075Y-90535760D02*
X52161440Y-90535760D01*
X65982315Y-90805000D02*
X65713075Y-90535760D01*
X66548000Y-90805000D02*
X65982315Y-90805000D01*
X52725441Y-71580759D02*
X53336441Y-72191759D01*
X51597439Y-71580759D02*
X52725441Y-71580759D01*
X48825991Y-74352207D02*
X51597439Y-71580759D01*
X53336441Y-74120759D02*
X52161440Y-75295760D01*
X51597439Y-84090761D02*
X48825991Y-81319313D01*
X53336441Y-72191759D02*
X53336441Y-74120759D01*
X52725441Y-84090761D02*
X51597439Y-84090761D01*
X53336441Y-84701761D02*
X52725441Y-84090761D01*
X48825991Y-81319313D02*
X48825991Y-74352207D01*
X53336441Y-89360759D02*
X53336441Y-84701761D01*
X52161440Y-90535760D02*
X53336441Y-89360759D01*
X52161440Y-82915760D02*
X49276000Y-80030320D01*
X49276000Y-75641200D02*
X52161440Y-72755760D01*
X49276000Y-80030320D02*
X49276000Y-75641200D01*
X56972200Y-78105000D02*
X52161440Y-82915760D01*
X75438000Y-78105000D02*
X56972200Y-78105000D01*
X102144500Y-87249000D02*
X102398500Y-87503000D01*
X98679000Y-87249000D02*
X102144500Y-87249000D01*
X110014001Y-80804001D02*
X108839000Y-79629000D01*
X108464997Y-83344001D02*
X109403001Y-83344001D01*
X110014001Y-82733001D02*
X110014001Y-80804001D01*
X107663999Y-84144999D02*
X108464997Y-83344001D01*
X107663999Y-84614001D02*
X107663999Y-84144999D01*
X106368990Y-85909010D02*
X107663999Y-84614001D01*
X109403001Y-83344001D02*
X110014001Y-82733001D01*
X103117490Y-85909010D02*
X106368990Y-85909010D01*
X102398500Y-86628000D02*
X103117490Y-85909010D01*
X102398500Y-87503000D02*
X102398500Y-86628000D01*
X102398500Y-84709000D02*
X98679000Y-84709000D01*
X107499010Y-83508990D02*
X108839000Y-82169000D01*
X103598510Y-83508990D02*
X107499010Y-83508990D01*
X102398500Y-84709000D02*
X103598510Y-83508990D01*
X84328000Y-70288002D02*
X84328000Y-68326000D01*
X75241002Y-79375000D02*
X84328000Y-70288002D01*
X65024000Y-79375000D02*
X75241002Y-79375000D01*
X107278500Y-67688502D02*
X107278500Y-66929000D01*
X99243001Y-75724001D02*
X107278500Y-67688502D01*
X98011999Y-75724001D02*
X99243001Y-75724001D01*
X89408000Y-84328000D02*
X98011999Y-75724001D01*
D26*
X52109700Y-85507500D02*
X52161440Y-85455760D01*
X47371000Y-85507500D02*
X52109700Y-85507500D01*
X139213990Y-97359990D02*
X130136000Y-88282000D01*
X142405436Y-97359990D02*
X139213990Y-97359990D01*
X143510000Y-98464554D02*
X142405436Y-97359990D01*
X143510000Y-99060000D02*
X143510000Y-98464554D01*
X130136000Y-84125500D02*
X130084500Y-84074000D01*
X130136000Y-88282000D02*
X130136000Y-84125500D01*
X132116500Y-82042000D02*
X130084500Y-84074000D01*
X146127881Y-75800361D02*
X139886242Y-82042000D01*
X139886242Y-82042000D02*
X132116500Y-82042000D01*
X146127881Y-65736881D02*
X146127881Y-75800361D01*
X144907000Y-64516000D02*
X146127881Y-65736881D01*
X140716000Y-64516000D02*
X144907000Y-64516000D01*
X135636000Y-59436000D02*
X140716000Y-64516000D01*
X134112000Y-59436000D02*
X135636000Y-59436000D01*
D25*
X67273001Y-98080999D02*
X67183000Y-98171000D01*
X67273001Y-89879001D02*
X67273001Y-98080999D01*
X66802000Y-89408000D02*
X67273001Y-89879001D01*
X102144500Y-79629000D02*
X102398500Y-79375000D01*
X98679000Y-79629000D02*
X102144500Y-79629000D01*
X101759190Y-79629000D02*
X98679000Y-79629000D01*
X98679000Y-82169000D02*
X102398500Y-82169000D01*
X94813500Y-70123000D02*
X95377000Y-69559500D01*
X92524500Y-70123000D02*
X94813500Y-70123000D01*
X85736000Y-68823000D02*
X85090000Y-69469000D01*
X86799500Y-68823000D02*
X85736000Y-68823000D01*
X87488058Y-66223000D02*
X86799500Y-66223000D01*
X88312020Y-67046962D02*
X87488058Y-66223000D01*
X90514001Y-86507003D02*
X88312020Y-84305022D01*
X88312020Y-84305022D02*
X88312020Y-67046962D01*
X90514001Y-109383999D02*
X90514001Y-86507003D01*
X89916000Y-109982000D02*
X90514001Y-109383999D01*
X87862010Y-69196952D02*
X87862010Y-108860990D01*
X87862010Y-69099048D02*
X87813058Y-69148000D01*
X87813058Y-69148000D02*
X87862010Y-69196952D01*
X87862010Y-67246952D02*
X87862010Y-69099048D01*
X87862010Y-108860990D02*
X86868000Y-109855000D01*
X87488058Y-66873000D02*
X87862010Y-67246952D01*
X86799500Y-66873000D02*
X87488058Y-66873000D01*
D26*
X132080000Y-102290000D02*
X135962000Y-106172000D01*
X132080000Y-99060000D02*
X132080000Y-102290000D01*
X141810000Y-100324000D02*
X135962000Y-106172000D01*
X141810000Y-99060000D02*
X141810000Y-100324000D01*
D25*
X91000002Y-68823000D02*
X90481002Y-69342000D01*
X90481002Y-69342000D02*
X89408000Y-69342000D01*
X92524500Y-68823000D02*
X91000002Y-68823000D01*
X73623500Y-67437000D02*
X64225500Y-76835000D01*
X83312000Y-67437000D02*
X73623500Y-67437000D01*
X89190500Y-72069500D02*
X89190500Y-76835000D01*
X91787000Y-69473000D02*
X89190500Y-72069500D01*
X92524500Y-69473000D02*
X91787000Y-69473000D01*
X101890500Y-77089000D02*
X102398500Y-76581000D01*
X98679000Y-77089000D02*
X101890500Y-77089000D01*
X88239011Y-58064989D02*
X86614000Y-59690000D01*
X95530401Y-58064989D02*
X88239011Y-58064989D01*
X95859010Y-58393598D02*
X95530401Y-58064989D01*
X93248410Y-63623000D02*
X95859011Y-61012399D01*
X95859011Y-61012399D02*
X95859010Y-58393598D01*
X92524500Y-63623000D02*
X93248410Y-63623000D01*
X90329001Y-58514999D02*
X89154000Y-59690000D01*
X95344001Y-58514999D02*
X90329001Y-58514999D01*
X95409001Y-58579999D02*
X95344001Y-58514999D01*
X95409001Y-60825999D02*
X95409001Y-58579999D01*
X93262000Y-62973000D02*
X95409001Y-60825999D01*
X92524500Y-62973000D02*
X93262000Y-62973000D01*
X87731000Y-64923000D02*
X86799500Y-64923000D01*
X90844001Y-61809999D02*
X87731000Y-64923000D01*
X90844001Y-60539999D02*
X90844001Y-61809999D01*
X91694000Y-59690000D02*
X90844001Y-60539999D01*
X94234000Y-59924942D02*
X94234000Y-59690000D01*
X88585942Y-65573000D02*
X94234000Y-59924942D01*
X86799500Y-65573000D02*
X88585942Y-65573000D01*
X78105000Y-89444500D02*
X78086750Y-89426250D01*
X75837250Y-89426250D02*
X78086750Y-89426250D01*
X62357000Y-87249000D02*
X73660000Y-87249000D01*
X75057000Y-88646000D02*
X75837250Y-89426250D01*
X73660000Y-87249000D02*
X75057000Y-88646000D01*
X107663999Y-85884001D02*
X108839000Y-84709000D01*
X107663999Y-87789001D02*
X107663999Y-85884001D01*
X106749990Y-88703010D02*
X107663999Y-87789001D01*
X102049992Y-88703010D02*
X106749990Y-88703010D01*
X95376002Y-95377000D02*
X102049992Y-88703010D01*
X92329000Y-95377000D02*
X95376002Y-95377000D01*
X86614000Y-94684998D02*
X86614000Y-95504000D01*
X79940002Y-88011000D02*
X86614000Y-94684998D01*
X75058410Y-88011000D02*
X79940002Y-88011000D01*
X74676000Y-87628590D02*
X75058410Y-88011000D01*
X74676000Y-84455000D02*
X74676000Y-87628590D01*
X71755000Y-81534000D02*
X74676000Y-84455000D01*
X66421000Y-81534000D02*
X71755000Y-81534000D01*
M02*
