M48
; DRILL file {KiCad (5.1.5)-3} date 10-5-2020 17:34:42
; FORMAT={-:-/ absolute / metric / decimal}
; #@! TF.CreationDate,2020-05-10T17:34:42+02:00
; #@! TF.GenerationSoftware,Kicad,Pcbnew,(5.1.5)-3
; #@! TF.FileFunction,Plated,1,2,PTH
FMAT,2
METRIC
T1C0.400
T2C0.800
T3C1.000
T4C1.100
T5C1.400
T6C1.500
T7C1.700
T8C1.999
%
G90
G05
T1
X44.267Y-81.087
X44.369Y-75.926
X44.47Y-70.866
X45.684Y-65.4
X45.725Y-111.623
X45.756Y-101.326
X45.786Y-61.051
X45.811Y-106.812
X45.811Y-117.185
X45.827Y-91.628
X45.898Y-96.617
X45.898Y-121.996
X45.918Y-126.263
X48.214Y-76.129
X48.214Y-81.189
X48.417Y-70.866
X48.824Y-67.224
X50.78Y-55.9
X52.548Y-109.896
X55.702Y-122.022
X55.819Y-55.9
X55.85Y-76.266
X55.85Y-81.224
X56.22Y-89.581
X56.231Y-86.436
X56.739Y-98.389
X56.866Y-94.955
X57.511Y-85.176
X57.521Y-92.339
X59.192Y-98.369
X60.808Y-81.478
X60.935Y-86.436
X61.062Y-76.266
X61.087Y-55.961
X61.107Y-89.581
X61.356Y-94.94
X65.766Y-68.763
X65.893Y-66.096
X66.07Y-55.9
X66.274Y-77.663
X66.274Y-81.224
X66.274Y-106.65
X66.655Y-89.616
X66.782Y-86.436
X66.782Y-95.336
X69.088Y-79.248
X69.581Y-83.637
X70.129Y-112.497
X70.328Y-116.053
X70.724Y-66.096
X70.724Y-68.763
X71.338Y-55.961
X71.45Y-119.649
X71.496Y-126.502
X71.745Y-77.165
X71.902Y-91.557
X72.161Y-85.659
X73.269Y-79.954
X74.59Y-123.312
X74.59Y-128.021
X75.184Y-102.718
X75.682Y-68.763
X75.809Y-77.536
X75.91Y-91.531
X75.971Y-56.017
X76.063Y-88.595
X76.271Y-106.746
X76.612Y-95.194
X78.665Y-131.042
X78.699Y-93.248
X78.699Y-102.768
X79.456Y-54.442
X81.275Y-81.224
X81.402Y-88.468
X81.407Y-93.248
X81.437Y-106.695
X81.493Y-102.819
X81.529Y-77.409
X82.819Y-110.719
X83.038Y-134.234
X84.389Y-93.157
X84.582Y-66.604
X84.689Y-126.274
X84.755Y-115.931
X84.988Y-120.198
X86.36Y-86.055
X86.401Y-106.746
X86.558Y-104.11
X87.371Y-93.248
X88.016Y-69.911
X88.052Y-110.571
X88.301Y-134.234
X88.397Y-88.595
X88.753Y-91.531
X90.175Y-66.604
X90.282Y-126.152
X90.546Y-117.861
X90.587Y-104.165
X90.871Y-122.25
X91.064Y-77.409
X91.191Y-81.224
X91.45Y-86.309
X92.38Y-54.097
X92.69Y-110.571
X93.101Y-69.911
X93.421Y-134.234
X93.635Y-107.056
X93.99Y-120.213
X94.005Y-121.986
X94.122Y-115.357
X94.264Y-94.701
X94.752Y-77.536
X94.752Y-81.097
X95.514Y-66.731
X95.844Y-120.193
X95.9Y-112.944
X96.012Y-104.628
X96.281Y-107.158
X96.51Y-121.945
X96.55Y-117.673
X97.358Y-115.697
X97.673Y-54.097
X97.678Y-110.719
X97.831Y-94.595
X98.496Y-134.234
X98.567Y-104.618
X98.791Y-84.577
X99.38Y-89.068
X101.097Y-76.794
X101.366Y-66.985
X101.493Y-69.911
X101.503Y-95.58
X101.503Y-101.524
X101.712Y-119.949
X101.757Y-106.69
X103.515Y-88.702
X103.566Y-134.234
X104.008Y-54.011
X104.872Y-83.729
X105.313Y-77.292
X105.38Y-95.631
X106.512Y-106.741
X106.619Y-101.625
X106.695Y-119.949
X107.173Y-88.702
X108.407Y-77.221
X108.519Y-134.234
X109.911Y-83.556
X110.729Y-86.909
X111.145Y-82.408
X111.577Y-101.575
X111.714Y-119.985
X111.785Y-106.639
X112.893Y-134.234
X112.939Y-66.396
X113.015Y-69.926
X115.042Y-93.426
X115.961Y-87.015
X116.21Y-82.235
X116.688Y-69.962
X116.799Y-106.589
X116.815Y-91.78
X116.876Y-66.472
X116.931Y-119.949
X117.023Y-134.234
X117.714Y-54.097
X120.665Y-66.431
X120.701Y-69.962
X121.808Y-91.643
X121.92Y-119.985
X121.935Y-96.271
X121.935Y-100.645
X122.21Y-134.234
X125.699Y-86.671
X126.954Y-134.234
X127.036Y-119.918
X127.071Y-58.852
X127.315Y-111.389
X128.3Y-54.011
X131.897Y-134.264
X132.192Y-58.882
X132.197Y-81.036
X133.629Y-96.286
X133.927Y-120.467
X135.037Y-133.858
X137.084Y-132.11
X137.312Y-127.98
X137.323Y-54.097
X137.343Y-81.036
X142.21Y-127.371
X148.26Y-106.7
X148.265Y-110.866
X148.306Y-116.088
X148.346Y-120.284
X148.433Y-125.049
X149.169Y-64.069
X149.555Y-91.232
X149.56Y-68.737
X149.56Y-73.325
X149.56Y-77.998
X149.581Y-82.53
X149.581Y-86.279
X149.626Y-96.871
T2
X142.418Y-85.06
X142.418Y-88.56
X59.172Y-111.963
X59.172Y-114.503
X59.172Y-117.043
X59.172Y-119.583
X59.172Y-122.123
X59.172Y-124.663
X59.172Y-127.203
X59.172Y-129.743
X66.792Y-111.963
X66.792Y-114.503
X66.792Y-117.043
X66.792Y-119.583
X66.792Y-122.123
X66.792Y-124.663
X66.792Y-127.203
X66.792Y-129.743
X130.404Y-86.457
X133.904Y-86.457
T3
X55.956Y-61.016
X58.496Y-61.016
X61.036Y-61.016
X63.576Y-61.016
X66.116Y-61.016
X68.656Y-61.016
X71.196Y-61.016
X129.828Y-69.936
X129.828Y-74.936
X144.328Y-69.936
X144.328Y-72.436
X144.328Y-74.936
X66.604Y-73.984
X69.144Y-73.984
X71.684Y-73.984
X74.224Y-73.984
X76.764Y-73.984
X79.304Y-73.984
X81.844Y-73.984
X84.384Y-73.984
X86.924Y-73.984
X89.464Y-73.984
X92.004Y-73.984
X94.544Y-73.984
X97.084Y-73.984
X99.624Y-73.984
X102.164Y-73.984
X104.704Y-73.984
X107.244Y-73.984
X109.784Y-73.984
X112.324Y-73.984
X66.604Y-98.984
X69.144Y-98.984
X71.684Y-98.984
X74.224Y-98.984
X76.764Y-98.984
X79.304Y-98.984
X81.844Y-98.984
X84.384Y-98.984
X86.924Y-98.984
X89.464Y-98.984
X92.004Y-98.984
X94.544Y-98.984
X97.084Y-98.984
X99.624Y-98.984
X102.164Y-98.984
X104.704Y-98.984
X107.244Y-98.984
X109.784Y-98.984
X112.324Y-98.984
X77.175Y-113.391
X77.175Y-115.931
X77.175Y-118.471
X77.175Y-121.011
X77.175Y-123.551
X77.175Y-126.091
X77.175Y-128.631
X52.161Y-70.216
X52.161Y-72.756
X52.161Y-75.296
X52.161Y-77.836
X52.161Y-80.376
X52.161Y-82.916
X52.161Y-85.456
X52.161Y-87.996
X52.161Y-90.536
X52.161Y-93.076
X52.161Y-95.616
X52.161Y-98.156
X52.161Y-100.696
X52.161Y-103.236
X51.973Y-114.473
X51.973Y-117.013
X51.973Y-119.553
X51.973Y-122.093
X51.973Y-124.633
X51.973Y-127.173
X51.973Y-129.713
T4
X137.333Y-107.61
X137.333Y-110.15
X137.333Y-112.69
T5
X79.908Y-59.599
X84.908Y-59.599
X117.699Y-59.7
X122.699Y-59.7
X104.546Y-59.599
X109.546Y-59.599
X92.573Y-59.599
X97.573Y-59.599
T6
X118.003Y-125.603
X105.567Y-113.599
X118.003Y-113.802
X105.567Y-125.4
X127.762Y-125.476
T7
X115.463Y-123.063
X115.463Y-128.143
X120.543Y-123.063
X120.543Y-128.143
X103.027Y-111.059
X103.027Y-116.139
X108.107Y-111.059
X108.107Y-116.139
X115.463Y-111.262
X115.463Y-116.342
X120.543Y-111.262
X120.543Y-116.342
X103.027Y-122.86
X103.027Y-127.94
X108.107Y-122.86
X108.107Y-127.94
X125.222Y-122.936
X125.222Y-128.016
X130.302Y-122.936
X130.302Y-128.016
T8
X141.346Y-122.657
X141.346Y-97.657
T6
G00X137.478Y-66.836
M15
G01X136.178Y-66.836
M16
G05
G00X137.478Y-78.036
M15
G01X136.178Y-78.036
M16
G05
T0
M30
