G04 #@! TF.GenerationSoftware,KiCad,Pcbnew,(5.1.5)-3*
G04 #@! TF.CreationDate,2020-01-28T10:49:13+01:00*
G04 #@! TF.ProjectId,vfo-pcb,76666f2d-7063-4622-9e6b-696361645f70,rev?*
G04 #@! TF.SameCoordinates,Original*
G04 #@! TF.FileFunction,Paste,Bot*
G04 #@! TF.FilePolarity,Positive*
%FSLAX46Y46*%
G04 Gerber Fmt 4.6, Leading zero omitted, Abs format (unit mm)*
G04 Created by KiCad (PCBNEW (5.1.5)-3) date 2020-01-28 10:49:13*
%MOMM*%
%LPD*%
G04 APERTURE LIST*
%ADD10C,0.100000*%
G04 APERTURE END LIST*
D10*
G36*
X133349264Y-102428884D02*
G01*
X133373533Y-102432484D01*
X133397331Y-102438445D01*
X133420431Y-102446710D01*
X133442609Y-102457200D01*
X133463653Y-102469813D01*
X133483358Y-102484427D01*
X133501537Y-102500903D01*
X133518013Y-102519082D01*
X133532627Y-102538787D01*
X133545240Y-102559831D01*
X133555730Y-102582009D01*
X133563995Y-102605109D01*
X133569956Y-102628907D01*
X133573556Y-102653176D01*
X133574760Y-102677680D01*
X133574760Y-103602680D01*
X133573556Y-103627184D01*
X133569956Y-103651453D01*
X133563995Y-103675251D01*
X133555730Y-103698351D01*
X133545240Y-103720529D01*
X133532627Y-103741573D01*
X133518013Y-103761278D01*
X133501537Y-103779457D01*
X133483358Y-103795933D01*
X133463653Y-103810547D01*
X133442609Y-103823160D01*
X133420431Y-103833650D01*
X133397331Y-103841915D01*
X133373533Y-103847876D01*
X133349264Y-103851476D01*
X133324760Y-103852680D01*
X132074760Y-103852680D01*
X132050256Y-103851476D01*
X132025987Y-103847876D01*
X132002189Y-103841915D01*
X131979089Y-103833650D01*
X131956911Y-103823160D01*
X131935867Y-103810547D01*
X131916162Y-103795933D01*
X131897983Y-103779457D01*
X131881507Y-103761278D01*
X131866893Y-103741573D01*
X131854280Y-103720529D01*
X131843790Y-103698351D01*
X131835525Y-103675251D01*
X131829564Y-103651453D01*
X131825964Y-103627184D01*
X131824760Y-103602680D01*
X131824760Y-102677680D01*
X131825964Y-102653176D01*
X131829564Y-102628907D01*
X131835525Y-102605109D01*
X131843790Y-102582009D01*
X131854280Y-102559831D01*
X131866893Y-102538787D01*
X131881507Y-102519082D01*
X131897983Y-102500903D01*
X131916162Y-102484427D01*
X131935867Y-102469813D01*
X131956911Y-102457200D01*
X131979089Y-102446710D01*
X132002189Y-102438445D01*
X132025987Y-102432484D01*
X132050256Y-102428884D01*
X132074760Y-102427680D01*
X133324760Y-102427680D01*
X133349264Y-102428884D01*
G37*
G36*
X133349264Y-105403884D02*
G01*
X133373533Y-105407484D01*
X133397331Y-105413445D01*
X133420431Y-105421710D01*
X133442609Y-105432200D01*
X133463653Y-105444813D01*
X133483358Y-105459427D01*
X133501537Y-105475903D01*
X133518013Y-105494082D01*
X133532627Y-105513787D01*
X133545240Y-105534831D01*
X133555730Y-105557009D01*
X133563995Y-105580109D01*
X133569956Y-105603907D01*
X133573556Y-105628176D01*
X133574760Y-105652680D01*
X133574760Y-106577680D01*
X133573556Y-106602184D01*
X133569956Y-106626453D01*
X133563995Y-106650251D01*
X133555730Y-106673351D01*
X133545240Y-106695529D01*
X133532627Y-106716573D01*
X133518013Y-106736278D01*
X133501537Y-106754457D01*
X133483358Y-106770933D01*
X133463653Y-106785547D01*
X133442609Y-106798160D01*
X133420431Y-106808650D01*
X133397331Y-106816915D01*
X133373533Y-106822876D01*
X133349264Y-106826476D01*
X133324760Y-106827680D01*
X132074760Y-106827680D01*
X132050256Y-106826476D01*
X132025987Y-106822876D01*
X132002189Y-106816915D01*
X131979089Y-106808650D01*
X131956911Y-106798160D01*
X131935867Y-106785547D01*
X131916162Y-106770933D01*
X131897983Y-106754457D01*
X131881507Y-106736278D01*
X131866893Y-106716573D01*
X131854280Y-106695529D01*
X131843790Y-106673351D01*
X131835525Y-106650251D01*
X131829564Y-106626453D01*
X131825964Y-106602184D01*
X131824760Y-106577680D01*
X131824760Y-105652680D01*
X131825964Y-105628176D01*
X131829564Y-105603907D01*
X131835525Y-105580109D01*
X131843790Y-105557009D01*
X131854280Y-105534831D01*
X131866893Y-105513787D01*
X131881507Y-105494082D01*
X131897983Y-105475903D01*
X131916162Y-105459427D01*
X131935867Y-105444813D01*
X131956911Y-105432200D01*
X131979089Y-105421710D01*
X132002189Y-105413445D01*
X132025987Y-105407484D01*
X132050256Y-105403884D01*
X132074760Y-105402680D01*
X133324760Y-105402680D01*
X133349264Y-105403884D01*
G37*
G36*
X143464544Y-112135884D02*
G01*
X143488813Y-112139484D01*
X143512611Y-112145445D01*
X143535711Y-112153710D01*
X143557889Y-112164200D01*
X143578933Y-112176813D01*
X143598638Y-112191427D01*
X143616817Y-112207903D01*
X143633293Y-112226082D01*
X143647907Y-112245787D01*
X143660520Y-112266831D01*
X143671010Y-112289009D01*
X143679275Y-112312109D01*
X143685236Y-112335907D01*
X143688836Y-112360176D01*
X143690040Y-112384680D01*
X143690040Y-113634680D01*
X143688836Y-113659184D01*
X143685236Y-113683453D01*
X143679275Y-113707251D01*
X143671010Y-113730351D01*
X143660520Y-113752529D01*
X143647907Y-113773573D01*
X143633293Y-113793278D01*
X143616817Y-113811457D01*
X143598638Y-113827933D01*
X143578933Y-113842547D01*
X143557889Y-113855160D01*
X143535711Y-113865650D01*
X143512611Y-113873915D01*
X143488813Y-113879876D01*
X143464544Y-113883476D01*
X143440040Y-113884680D01*
X142515040Y-113884680D01*
X142490536Y-113883476D01*
X142466267Y-113879876D01*
X142442469Y-113873915D01*
X142419369Y-113865650D01*
X142397191Y-113855160D01*
X142376147Y-113842547D01*
X142356442Y-113827933D01*
X142338263Y-113811457D01*
X142321787Y-113793278D01*
X142307173Y-113773573D01*
X142294560Y-113752529D01*
X142284070Y-113730351D01*
X142275805Y-113707251D01*
X142269844Y-113683453D01*
X142266244Y-113659184D01*
X142265040Y-113634680D01*
X142265040Y-112384680D01*
X142266244Y-112360176D01*
X142269844Y-112335907D01*
X142275805Y-112312109D01*
X142284070Y-112289009D01*
X142294560Y-112266831D01*
X142307173Y-112245787D01*
X142321787Y-112226082D01*
X142338263Y-112207903D01*
X142356442Y-112191427D01*
X142376147Y-112176813D01*
X142397191Y-112164200D01*
X142419369Y-112153710D01*
X142442469Y-112145445D01*
X142466267Y-112139484D01*
X142490536Y-112135884D01*
X142515040Y-112134680D01*
X143440040Y-112134680D01*
X143464544Y-112135884D01*
G37*
G36*
X146439544Y-112135884D02*
G01*
X146463813Y-112139484D01*
X146487611Y-112145445D01*
X146510711Y-112153710D01*
X146532889Y-112164200D01*
X146553933Y-112176813D01*
X146573638Y-112191427D01*
X146591817Y-112207903D01*
X146608293Y-112226082D01*
X146622907Y-112245787D01*
X146635520Y-112266831D01*
X146646010Y-112289009D01*
X146654275Y-112312109D01*
X146660236Y-112335907D01*
X146663836Y-112360176D01*
X146665040Y-112384680D01*
X146665040Y-113634680D01*
X146663836Y-113659184D01*
X146660236Y-113683453D01*
X146654275Y-113707251D01*
X146646010Y-113730351D01*
X146635520Y-113752529D01*
X146622907Y-113773573D01*
X146608293Y-113793278D01*
X146591817Y-113811457D01*
X146573638Y-113827933D01*
X146553933Y-113842547D01*
X146532889Y-113855160D01*
X146510711Y-113865650D01*
X146487611Y-113873915D01*
X146463813Y-113879876D01*
X146439544Y-113883476D01*
X146415040Y-113884680D01*
X145490040Y-113884680D01*
X145465536Y-113883476D01*
X145441267Y-113879876D01*
X145417469Y-113873915D01*
X145394369Y-113865650D01*
X145372191Y-113855160D01*
X145351147Y-113842547D01*
X145331442Y-113827933D01*
X145313263Y-113811457D01*
X145296787Y-113793278D01*
X145282173Y-113773573D01*
X145269560Y-113752529D01*
X145259070Y-113730351D01*
X145250805Y-113707251D01*
X145244844Y-113683453D01*
X145241244Y-113659184D01*
X145240040Y-113634680D01*
X145240040Y-112384680D01*
X145241244Y-112360176D01*
X145244844Y-112335907D01*
X145250805Y-112312109D01*
X145259070Y-112289009D01*
X145269560Y-112266831D01*
X145282173Y-112245787D01*
X145296787Y-112226082D01*
X145313263Y-112207903D01*
X145331442Y-112191427D01*
X145351147Y-112176813D01*
X145372191Y-112164200D01*
X145394369Y-112153710D01*
X145417469Y-112145445D01*
X145441267Y-112139484D01*
X145465536Y-112135884D01*
X145490040Y-112134680D01*
X146415040Y-112134680D01*
X146439544Y-112135884D01*
G37*
G36*
X73658384Y-129240244D02*
G01*
X73682653Y-129243844D01*
X73706451Y-129249805D01*
X73729551Y-129258070D01*
X73751729Y-129268560D01*
X73772773Y-129281173D01*
X73792478Y-129295787D01*
X73810657Y-129312263D01*
X73827133Y-129330442D01*
X73841747Y-129350147D01*
X73854360Y-129371191D01*
X73864850Y-129393369D01*
X73873115Y-129416469D01*
X73879076Y-129440267D01*
X73882676Y-129464536D01*
X73883880Y-129489040D01*
X73883880Y-130739040D01*
X73882676Y-130763544D01*
X73879076Y-130787813D01*
X73873115Y-130811611D01*
X73864850Y-130834711D01*
X73854360Y-130856889D01*
X73841747Y-130877933D01*
X73827133Y-130897638D01*
X73810657Y-130915817D01*
X73792478Y-130932293D01*
X73772773Y-130946907D01*
X73751729Y-130959520D01*
X73729551Y-130970010D01*
X73706451Y-130978275D01*
X73682653Y-130984236D01*
X73658384Y-130987836D01*
X73633880Y-130989040D01*
X72708880Y-130989040D01*
X72684376Y-130987836D01*
X72660107Y-130984236D01*
X72636309Y-130978275D01*
X72613209Y-130970010D01*
X72591031Y-130959520D01*
X72569987Y-130946907D01*
X72550282Y-130932293D01*
X72532103Y-130915817D01*
X72515627Y-130897638D01*
X72501013Y-130877933D01*
X72488400Y-130856889D01*
X72477910Y-130834711D01*
X72469645Y-130811611D01*
X72463684Y-130787813D01*
X72460084Y-130763544D01*
X72458880Y-130739040D01*
X72458880Y-129489040D01*
X72460084Y-129464536D01*
X72463684Y-129440267D01*
X72469645Y-129416469D01*
X72477910Y-129393369D01*
X72488400Y-129371191D01*
X72501013Y-129350147D01*
X72515627Y-129330442D01*
X72532103Y-129312263D01*
X72550282Y-129295787D01*
X72569987Y-129281173D01*
X72591031Y-129268560D01*
X72613209Y-129258070D01*
X72636309Y-129249805D01*
X72660107Y-129243844D01*
X72684376Y-129240244D01*
X72708880Y-129239040D01*
X73633880Y-129239040D01*
X73658384Y-129240244D01*
G37*
G36*
X70683384Y-129240244D02*
G01*
X70707653Y-129243844D01*
X70731451Y-129249805D01*
X70754551Y-129258070D01*
X70776729Y-129268560D01*
X70797773Y-129281173D01*
X70817478Y-129295787D01*
X70835657Y-129312263D01*
X70852133Y-129330442D01*
X70866747Y-129350147D01*
X70879360Y-129371191D01*
X70889850Y-129393369D01*
X70898115Y-129416469D01*
X70904076Y-129440267D01*
X70907676Y-129464536D01*
X70908880Y-129489040D01*
X70908880Y-130739040D01*
X70907676Y-130763544D01*
X70904076Y-130787813D01*
X70898115Y-130811611D01*
X70889850Y-130834711D01*
X70879360Y-130856889D01*
X70866747Y-130877933D01*
X70852133Y-130897638D01*
X70835657Y-130915817D01*
X70817478Y-130932293D01*
X70797773Y-130946907D01*
X70776729Y-130959520D01*
X70754551Y-130970010D01*
X70731451Y-130978275D01*
X70707653Y-130984236D01*
X70683384Y-130987836D01*
X70658880Y-130989040D01*
X69733880Y-130989040D01*
X69709376Y-130987836D01*
X69685107Y-130984236D01*
X69661309Y-130978275D01*
X69638209Y-130970010D01*
X69616031Y-130959520D01*
X69594987Y-130946907D01*
X69575282Y-130932293D01*
X69557103Y-130915817D01*
X69540627Y-130897638D01*
X69526013Y-130877933D01*
X69513400Y-130856889D01*
X69502910Y-130834711D01*
X69494645Y-130811611D01*
X69488684Y-130787813D01*
X69485084Y-130763544D01*
X69483880Y-130739040D01*
X69483880Y-129489040D01*
X69485084Y-129464536D01*
X69488684Y-129440267D01*
X69494645Y-129416469D01*
X69502910Y-129393369D01*
X69513400Y-129371191D01*
X69526013Y-129350147D01*
X69540627Y-129330442D01*
X69557103Y-129312263D01*
X69575282Y-129295787D01*
X69594987Y-129281173D01*
X69616031Y-129268560D01*
X69638209Y-129258070D01*
X69661309Y-129249805D01*
X69685107Y-129243844D01*
X69709376Y-129240244D01*
X69733880Y-129239040D01*
X70658880Y-129239040D01*
X70683384Y-129240244D01*
G37*
G36*
X72064144Y-120925164D02*
G01*
X72088413Y-120928764D01*
X72112211Y-120934725D01*
X72135311Y-120942990D01*
X72157489Y-120953480D01*
X72178533Y-120966093D01*
X72198238Y-120980707D01*
X72216417Y-120997183D01*
X72232893Y-121015362D01*
X72247507Y-121035067D01*
X72260120Y-121056111D01*
X72270610Y-121078289D01*
X72278875Y-121101389D01*
X72284836Y-121125187D01*
X72288436Y-121149456D01*
X72289640Y-121173960D01*
X72289640Y-122098960D01*
X72288436Y-122123464D01*
X72284836Y-122147733D01*
X72278875Y-122171531D01*
X72270610Y-122194631D01*
X72260120Y-122216809D01*
X72247507Y-122237853D01*
X72232893Y-122257558D01*
X72216417Y-122275737D01*
X72198238Y-122292213D01*
X72178533Y-122306827D01*
X72157489Y-122319440D01*
X72135311Y-122329930D01*
X72112211Y-122338195D01*
X72088413Y-122344156D01*
X72064144Y-122347756D01*
X72039640Y-122348960D01*
X70789640Y-122348960D01*
X70765136Y-122347756D01*
X70740867Y-122344156D01*
X70717069Y-122338195D01*
X70693969Y-122329930D01*
X70671791Y-122319440D01*
X70650747Y-122306827D01*
X70631042Y-122292213D01*
X70612863Y-122275737D01*
X70596387Y-122257558D01*
X70581773Y-122237853D01*
X70569160Y-122216809D01*
X70558670Y-122194631D01*
X70550405Y-122171531D01*
X70544444Y-122147733D01*
X70540844Y-122123464D01*
X70539640Y-122098960D01*
X70539640Y-121173960D01*
X70540844Y-121149456D01*
X70544444Y-121125187D01*
X70550405Y-121101389D01*
X70558670Y-121078289D01*
X70569160Y-121056111D01*
X70581773Y-121035067D01*
X70596387Y-121015362D01*
X70612863Y-120997183D01*
X70631042Y-120980707D01*
X70650747Y-120966093D01*
X70671791Y-120953480D01*
X70693969Y-120942990D01*
X70717069Y-120934725D01*
X70740867Y-120928764D01*
X70765136Y-120925164D01*
X70789640Y-120923960D01*
X72039640Y-120923960D01*
X72064144Y-120925164D01*
G37*
G36*
X72064144Y-123900164D02*
G01*
X72088413Y-123903764D01*
X72112211Y-123909725D01*
X72135311Y-123917990D01*
X72157489Y-123928480D01*
X72178533Y-123941093D01*
X72198238Y-123955707D01*
X72216417Y-123972183D01*
X72232893Y-123990362D01*
X72247507Y-124010067D01*
X72260120Y-124031111D01*
X72270610Y-124053289D01*
X72278875Y-124076389D01*
X72284836Y-124100187D01*
X72288436Y-124124456D01*
X72289640Y-124148960D01*
X72289640Y-125073960D01*
X72288436Y-125098464D01*
X72284836Y-125122733D01*
X72278875Y-125146531D01*
X72270610Y-125169631D01*
X72260120Y-125191809D01*
X72247507Y-125212853D01*
X72232893Y-125232558D01*
X72216417Y-125250737D01*
X72198238Y-125267213D01*
X72178533Y-125281827D01*
X72157489Y-125294440D01*
X72135311Y-125304930D01*
X72112211Y-125313195D01*
X72088413Y-125319156D01*
X72064144Y-125322756D01*
X72039640Y-125323960D01*
X70789640Y-125323960D01*
X70765136Y-125322756D01*
X70740867Y-125319156D01*
X70717069Y-125313195D01*
X70693969Y-125304930D01*
X70671791Y-125294440D01*
X70650747Y-125281827D01*
X70631042Y-125267213D01*
X70612863Y-125250737D01*
X70596387Y-125232558D01*
X70581773Y-125212853D01*
X70569160Y-125191809D01*
X70558670Y-125169631D01*
X70550405Y-125146531D01*
X70544444Y-125122733D01*
X70540844Y-125098464D01*
X70539640Y-125073960D01*
X70539640Y-124148960D01*
X70540844Y-124124456D01*
X70544444Y-124100187D01*
X70550405Y-124076389D01*
X70558670Y-124053289D01*
X70569160Y-124031111D01*
X70581773Y-124010067D01*
X70596387Y-123990362D01*
X70612863Y-123972183D01*
X70631042Y-123955707D01*
X70650747Y-123941093D01*
X70671791Y-123928480D01*
X70693969Y-123917990D01*
X70717069Y-123909725D01*
X70740867Y-123903764D01*
X70765136Y-123900164D01*
X70789640Y-123898960D01*
X72039640Y-123898960D01*
X72064144Y-123900164D01*
G37*
M02*
