M48
; DRILL file {KiCad (5.1.5)-3} date 13-5-2020 11:32:27
; FORMAT={-:-/ absolute / metric / decimal}
; #@! TF.CreationDate,2020-05-13T11:32:27+02:00
; #@! TF.GenerationSoftware,Kicad,Pcbnew,(5.1.5)-3
; #@! TF.FileFunction,Plated,1,2,PTH
FMAT,2
METRIC
T1C0.400
T2C0.800
T3C1.000
T4C1.100
T5C1.400
T6C1.500
T7C1.700
T8C1.999
%
G90
G05
T1
X44.267Y-81.087
X44.369Y-75.926
X44.47Y-70.866
X45.623Y-116.891
X45.684Y-65.4
X45.7Y-121.829
X45.735Y-126.751
X45.75Y-111.73
X45.756Y-101.326
X45.786Y-61.051
X45.811Y-106.812
X45.827Y-91.628
X45.898Y-96.617
X48.214Y-76.129
X48.214Y-81.189
X48.417Y-70.866
X48.824Y-67.224
X50.78Y-55.9
X53.167Y-134.336
X55.819Y-55.9
X55.85Y-76.266
X55.926Y-81.59
X56.561Y-88.24
X56.718Y-95.286
X56.739Y-98.389
X57.516Y-134.295
X58.247Y-109.809
X60.869Y-115.524
X61.001Y-98.532
X61.001Y-101.666
X61.062Y-76.266
X61.087Y-55.961
X61.255Y-79.847
X61.824Y-134.259
X63.378Y-105.893
X64.267Y-112.72
X64.521Y-82.393
X65.319Y-95.763
X65.766Y-68.763
X65.893Y-66.096
X66.07Y-55.9
X66.213Y-134.285
X66.533Y-103.617
X69.378Y-95.763
X69.393Y-91.562
X70.785Y-134.285
X70.993Y-86.558
X71.191Y-77.348
X71.257Y-81.219
X71.338Y-55.961
X71.664Y-108.097
X72.024Y-114.798
X72.207Y-120.914
X72.725Y-101.818
X72.903Y-96.754
X74.513Y-82.459
X75.133Y-134.244
X75.733Y-84.755
X75.809Y-77.536
X75.971Y-56.017
X76.21Y-111.77
X76.241Y-108.097
X76.398Y-91.293
X77.8Y-95.362
X78.303Y-96.733
X78.892Y-101.859
X79.065Y-134.264
X79.456Y-54.442
X81.31Y-107.96
X81.31Y-111.704
X81.316Y-81.183
X81.468Y-91.293
X81.529Y-77.409
X82.951Y-96.738
X83.038Y-134.234
X86.243Y-116.906
X86.299Y-103.073
X86.319Y-111.77
X86.34Y-108.006
X86.35Y-81.28
X86.35Y-86.314
X86.385Y-77.246
X86.477Y-121.763
X88.301Y-134.234
X91.064Y-77.409
X91.42Y-116.825
X91.42Y-132.019
X91.425Y-103.21
X91.425Y-111.704
X91.455Y-108.052
X91.46Y-127.01
X91.526Y-121.829
X91.577Y-81.183
X91.577Y-91.349
X91.669Y-86.406
X91.735Y-96.098
X92.38Y-54.097
X93.101Y-69.911
X93.421Y-134.234
X94.264Y-94.701
X94.752Y-77.536
X94.752Y-81.097
X95.514Y-66.731
X96.515Y-86.502
X97.673Y-54.097
X97.831Y-94.595
X98.496Y-134.234
X98.791Y-84.577
X99.38Y-89.068
X101.097Y-76.794
X101.366Y-66.985
X101.493Y-69.911
X101.503Y-95.58
X101.503Y-101.524
X103.398Y-129.982
X103.515Y-88.702
X103.566Y-134.234
X103.988Y-121.224
X104.008Y-54.011
X104.054Y-118.024
X104.872Y-83.729
X104.963Y-114.244
X105.065Y-109.215
X105.313Y-77.292
X105.38Y-95.631
X106.523Y-105.009
X106.619Y-101.625
X107.173Y-88.702
X108.407Y-77.221
X108.519Y-134.234
X109.398Y-111.135
X109.911Y-83.556
X110.729Y-86.909
X111.145Y-82.408
X111.506Y-104.963
X111.577Y-101.575
X112.893Y-134.234
X112.939Y-66.396
X113.015Y-69.926
X115.042Y-93.426
X115.961Y-87.015
X116.21Y-82.235
X116.688Y-69.962
X116.815Y-91.78
X116.845Y-105.034
X116.876Y-66.472
X116.881Y-118.745
X117.023Y-134.234
X117.475Y-129.987
X117.714Y-54.097
X119.639Y-102.911
X120.665Y-66.431
X120.701Y-69.962
X121.742Y-111.867
X121.808Y-91.643
X121.935Y-96.271
X121.935Y-100.645
X122.21Y-134.234
X125.699Y-86.671
X126.812Y-111.77
X126.954Y-134.234
X127.041Y-61.021
X128.3Y-54.011
X131.897Y-134.264
X131.978Y-116.749
X131.978Y-121.727
X132.07Y-126.985
X132.07Y-132.243
X132.166Y-111.77
X132.171Y-60.828
X132.197Y-81.036
X133.629Y-96.286
X135.037Y-133.858
X137.084Y-132.11
X137.114Y-60.924
X137.312Y-127.98
X137.323Y-54.097
X137.343Y-81.036
X142.21Y-127.371
X142.24Y-60.924
X148.26Y-106.7
X148.265Y-110.866
X148.306Y-116.088
X148.346Y-120.284
X148.433Y-125.049
X149.169Y-64.069
X149.555Y-91.232
X149.56Y-68.737
X149.56Y-73.325
X149.56Y-77.998
X149.581Y-82.53
X149.581Y-86.279
X149.626Y-96.871
T2
X130.404Y-86.457
X133.904Y-86.457
X142.418Y-85.06
X142.418Y-88.56
T3
X57.714Y-62.047
X60.254Y-62.047
X62.794Y-62.047
X65.334Y-62.047
X67.874Y-62.047
X70.414Y-62.047
X72.954Y-62.047
X74.793Y-68.991
X77.333Y-68.991
X79.873Y-68.991
X82.413Y-68.991
X84.953Y-68.991
X87.493Y-68.991
X90.033Y-68.991
X52.161Y-70.216
X52.161Y-72.756
X52.161Y-75.296
X52.161Y-77.836
X52.161Y-80.376
X52.161Y-82.916
X52.161Y-85.456
X52.161Y-87.996
X52.161Y-90.536
X52.161Y-93.076
X52.161Y-95.616
X52.161Y-98.156
X52.161Y-100.696
X52.161Y-103.236
X66.604Y-98.984
X69.144Y-98.984
X71.684Y-98.984
X74.224Y-98.984
X76.764Y-98.984
X79.304Y-98.984
X81.844Y-98.984
X84.384Y-98.984
X86.924Y-98.984
X89.464Y-98.984
X92.004Y-98.984
X94.544Y-98.984
X97.084Y-98.984
X99.624Y-98.984
X102.164Y-98.984
X104.704Y-98.984
X107.244Y-98.984
X109.784Y-98.984
X112.324Y-98.984
X129.828Y-69.936
X129.828Y-74.936
X144.328Y-69.936
X144.328Y-72.436
X144.328Y-74.936
X66.604Y-73.984
X69.144Y-73.984
X71.684Y-73.984
X74.224Y-73.984
X76.764Y-73.984
X79.304Y-73.984
X81.844Y-73.984
X84.384Y-73.984
X86.924Y-73.984
X89.464Y-73.984
X92.004Y-73.984
X94.544Y-73.984
X97.084Y-73.984
X99.624Y-73.984
X102.164Y-73.984
X104.704Y-73.984
X107.244Y-73.984
X109.784Y-73.984
X112.324Y-73.984
T4
X137.333Y-107.61
X137.333Y-110.15
X137.333Y-112.69
T5
X104.546Y-59.599
X109.546Y-59.599
X79.908Y-59.599
X84.908Y-59.599
X117.699Y-59.7
X122.699Y-59.7
X92.573Y-59.599
X97.573Y-59.599
T6
X97.561Y-127.594
X56.164Y-127.594
X69.585Y-127.594
X83.005Y-127.594
X123.266Y-127.594
X110.891Y-127.594
T7
X53.624Y-125.054
X53.624Y-130.134
X58.704Y-125.054
X58.704Y-130.134
X67.045Y-125.054
X67.045Y-130.134
X72.125Y-125.054
X72.125Y-130.134
X80.465Y-125.054
X80.465Y-130.134
X85.545Y-125.054
X85.545Y-130.134
X120.726Y-125.054
X120.726Y-130.134
X125.806Y-125.054
X125.806Y-130.134
X108.351Y-125.054
X108.351Y-130.134
X113.431Y-125.054
X113.431Y-130.134
X95.021Y-125.054
X95.021Y-130.134
X100.101Y-125.054
X100.101Y-130.134
T8
X141.346Y-97.657
X141.346Y-122.657
T6
G00X137.478Y-66.836
M15
G01X136.178Y-66.836
M16
G05
G00X137.478Y-78.036
M15
G01X136.178Y-78.036
M16
G05
T0
M30
