G04 #@! TF.GenerationSoftware,KiCad,Pcbnew,(5.1.5)-3*
G04 #@! TF.CreationDate,2020-01-28T10:49:14+01:00*
G04 #@! TF.ProjectId,vfo-pcb,76666f2d-7063-4622-9e6b-696361645f70,rev?*
G04 #@! TF.SameCoordinates,Original*
G04 #@! TF.FileFunction,Soldermask,Bot*
G04 #@! TF.FilePolarity,Negative*
%FSLAX46Y46*%
G04 Gerber Fmt 4.6, Leading zero omitted, Abs format (unit mm)*
G04 Created by KiCad (PCBNEW (5.1.5)-3) date 2020-01-28 10:49:14*
%MOMM*%
%LPD*%
G04 APERTURE LIST*
%ADD10C,0.100000*%
G04 APERTURE END LIST*
D10*
G36*
X147471736Y-129861698D02*
G01*
X147578059Y-129882847D01*
X147878522Y-130007303D01*
X148148931Y-130187985D01*
X148378895Y-130417949D01*
X148559577Y-130688358D01*
X148684033Y-130988821D01*
X148747480Y-131307791D01*
X148747480Y-131633009D01*
X148684033Y-131951979D01*
X148559577Y-132252442D01*
X148378895Y-132522851D01*
X148148931Y-132752815D01*
X147878522Y-132933497D01*
X147578059Y-133057953D01*
X147471736Y-133079102D01*
X147259091Y-133121400D01*
X146933869Y-133121400D01*
X146721224Y-133079102D01*
X146614901Y-133057953D01*
X146314438Y-132933497D01*
X146044029Y-132752815D01*
X145814065Y-132522851D01*
X145633383Y-132252442D01*
X145508927Y-131951979D01*
X145445480Y-131633009D01*
X145445480Y-131307791D01*
X145508927Y-130988821D01*
X145633383Y-130688358D01*
X145814065Y-130417949D01*
X146044029Y-130187985D01*
X146314438Y-130007303D01*
X146614901Y-129882847D01*
X146721224Y-129861698D01*
X146933869Y-129819400D01*
X147259091Y-129819400D01*
X147471736Y-129861698D01*
G37*
G36*
X46623576Y-129861698D02*
G01*
X46729899Y-129882847D01*
X47030362Y-130007303D01*
X47300771Y-130187985D01*
X47530735Y-130417949D01*
X47711417Y-130688358D01*
X47835873Y-130988821D01*
X47899320Y-131307791D01*
X47899320Y-131633009D01*
X47835873Y-131951979D01*
X47711417Y-132252442D01*
X47530735Y-132522851D01*
X47300771Y-132752815D01*
X47030362Y-132933497D01*
X46729899Y-133057953D01*
X46623576Y-133079102D01*
X46410931Y-133121400D01*
X46085709Y-133121400D01*
X45873064Y-133079102D01*
X45766741Y-133057953D01*
X45466278Y-132933497D01*
X45195869Y-132752815D01*
X44965905Y-132522851D01*
X44785223Y-132252442D01*
X44660767Y-131951979D01*
X44597320Y-131633009D01*
X44597320Y-131307791D01*
X44660767Y-130988821D01*
X44785223Y-130688358D01*
X44965905Y-130417949D01*
X45195869Y-130187985D01*
X45466278Y-130007303D01*
X45766741Y-129882847D01*
X45873064Y-129861698D01*
X46085709Y-129819400D01*
X46410931Y-129819400D01*
X46623576Y-129861698D01*
G37*
G36*
X70809442Y-129192221D02*
G01*
X70844361Y-129202814D01*
X70876543Y-129220016D01*
X70904753Y-129243167D01*
X70927904Y-129271377D01*
X70945106Y-129303559D01*
X70955699Y-129338478D01*
X70959880Y-129380935D01*
X70959880Y-130847145D01*
X70955699Y-130889602D01*
X70945106Y-130924521D01*
X70927904Y-130956703D01*
X70904753Y-130984913D01*
X70876543Y-131008064D01*
X70844361Y-131025266D01*
X70809442Y-131035859D01*
X70766985Y-131040040D01*
X69625775Y-131040040D01*
X69583318Y-131035859D01*
X69548399Y-131025266D01*
X69516217Y-131008064D01*
X69488007Y-130984913D01*
X69464856Y-130956703D01*
X69447654Y-130924521D01*
X69437061Y-130889602D01*
X69432880Y-130847145D01*
X69432880Y-129380935D01*
X69437061Y-129338478D01*
X69447654Y-129303559D01*
X69464856Y-129271377D01*
X69488007Y-129243167D01*
X69516217Y-129220016D01*
X69548399Y-129202814D01*
X69583318Y-129192221D01*
X69625775Y-129188040D01*
X70766985Y-129188040D01*
X70809442Y-129192221D01*
G37*
G36*
X73784442Y-129192221D02*
G01*
X73819361Y-129202814D01*
X73851543Y-129220016D01*
X73879753Y-129243167D01*
X73902904Y-129271377D01*
X73920106Y-129303559D01*
X73930699Y-129338478D01*
X73934880Y-129380935D01*
X73934880Y-130847145D01*
X73930699Y-130889602D01*
X73920106Y-130924521D01*
X73902904Y-130956703D01*
X73879753Y-130984913D01*
X73851543Y-131008064D01*
X73819361Y-131025266D01*
X73784442Y-131035859D01*
X73741985Y-131040040D01*
X72600775Y-131040040D01*
X72558318Y-131035859D01*
X72523399Y-131025266D01*
X72491217Y-131008064D01*
X72463007Y-130984913D01*
X72439856Y-130956703D01*
X72422654Y-130924521D01*
X72412061Y-130889602D01*
X72407880Y-130847145D01*
X72407880Y-129380935D01*
X72412061Y-129338478D01*
X72422654Y-129303559D01*
X72439856Y-129271377D01*
X72463007Y-129243167D01*
X72491217Y-129220016D01*
X72523399Y-129202814D01*
X72558318Y-129192221D01*
X72600775Y-129188040D01*
X73741985Y-129188040D01*
X73784442Y-129192221D01*
G37*
G36*
X52086992Y-128816647D02*
G01*
X52236292Y-128846344D01*
X52400264Y-128914264D01*
X52547834Y-129012867D01*
X52673333Y-129138366D01*
X52771936Y-129285936D01*
X52839856Y-129449908D01*
X52874480Y-129623979D01*
X52874480Y-129801461D01*
X52839856Y-129975532D01*
X52771936Y-130139504D01*
X52673333Y-130287074D01*
X52547834Y-130412573D01*
X52400264Y-130511176D01*
X52236292Y-130579096D01*
X52086992Y-130608793D01*
X52062222Y-130613720D01*
X51884738Y-130613720D01*
X51859968Y-130608793D01*
X51710668Y-130579096D01*
X51546696Y-130511176D01*
X51399126Y-130412573D01*
X51273627Y-130287074D01*
X51175024Y-130139504D01*
X51107104Y-129975532D01*
X51072480Y-129801461D01*
X51072480Y-129623979D01*
X51107104Y-129449908D01*
X51175024Y-129285936D01*
X51273627Y-129138366D01*
X51399126Y-129012867D01*
X51546696Y-128914264D01*
X51710668Y-128846344D01*
X51859968Y-128816647D01*
X51884738Y-128811720D01*
X52062222Y-128811720D01*
X52086992Y-128816647D01*
G37*
G36*
X68042840Y-130594200D02*
G01*
X65540840Y-130594200D01*
X65540840Y-128892200D01*
X68042840Y-128892200D01*
X68042840Y-130594200D01*
G37*
G36*
X59738663Y-128904513D02*
G01*
X59899082Y-128953176D01*
X59952927Y-128981957D01*
X60046918Y-129032196D01*
X60176499Y-129138541D01*
X60282844Y-129268122D01*
X60282845Y-129268124D01*
X60361864Y-129415958D01*
X60410527Y-129576377D01*
X60426957Y-129743200D01*
X60410527Y-129910023D01*
X60361864Y-130070442D01*
X60299036Y-130187984D01*
X60282844Y-130218278D01*
X60176499Y-130347859D01*
X60046918Y-130454204D01*
X60046916Y-130454205D01*
X59899082Y-130533224D01*
X59738663Y-130581887D01*
X59613644Y-130594200D01*
X58730036Y-130594200D01*
X58605017Y-130581887D01*
X58444598Y-130533224D01*
X58296764Y-130454205D01*
X58296762Y-130454204D01*
X58167181Y-130347859D01*
X58060836Y-130218278D01*
X58044644Y-130187984D01*
X57981816Y-130070442D01*
X57933153Y-129910023D01*
X57916723Y-129743200D01*
X57933153Y-129576377D01*
X57981816Y-129415958D01*
X58060835Y-129268124D01*
X58060836Y-129268122D01*
X58167181Y-129138541D01*
X58296762Y-129032196D01*
X58390753Y-128981957D01*
X58444598Y-128953176D01*
X58605017Y-128904513D01*
X58730036Y-128892200D01*
X59613644Y-128892200D01*
X59738663Y-128904513D01*
G37*
G36*
X78076360Y-129531680D02*
G01*
X76274360Y-129531680D01*
X76274360Y-127729680D01*
X78076360Y-127729680D01*
X78076360Y-129531680D01*
G37*
G36*
X120734880Y-126982064D02*
G01*
X120886347Y-127012193D01*
X121100365Y-127100842D01*
X121164569Y-127143742D01*
X121292974Y-127229539D01*
X121456781Y-127393346D01*
X121500619Y-127458955D01*
X121585478Y-127585955D01*
X121674127Y-127799973D01*
X121719320Y-128027174D01*
X121719320Y-128258826D01*
X121674127Y-128486027D01*
X121585478Y-128700045D01*
X121585477Y-128700046D01*
X121456781Y-128892654D01*
X121292974Y-129056461D01*
X121170394Y-129138366D01*
X121100365Y-129185158D01*
X120886347Y-129273807D01*
X120736773Y-129303559D01*
X120659147Y-129319000D01*
X120427493Y-129319000D01*
X120349867Y-129303559D01*
X120200293Y-129273807D01*
X119986275Y-129185158D01*
X119916246Y-129138366D01*
X119793666Y-129056461D01*
X119629859Y-128892654D01*
X119501163Y-128700046D01*
X119501162Y-128700045D01*
X119412513Y-128486027D01*
X119367320Y-128258826D01*
X119367320Y-128027174D01*
X119412513Y-127799973D01*
X119501162Y-127585955D01*
X119586021Y-127458955D01*
X119629859Y-127393346D01*
X119793666Y-127229539D01*
X119922071Y-127143742D01*
X119986275Y-127100842D01*
X120200293Y-127012193D01*
X120351760Y-126982064D01*
X120427493Y-126967000D01*
X120659147Y-126967000D01*
X120734880Y-126982064D01*
G37*
G36*
X115654880Y-126982064D02*
G01*
X115806347Y-127012193D01*
X116020365Y-127100842D01*
X116084569Y-127143742D01*
X116212974Y-127229539D01*
X116376781Y-127393346D01*
X116420619Y-127458955D01*
X116505478Y-127585955D01*
X116594127Y-127799973D01*
X116639320Y-128027174D01*
X116639320Y-128258826D01*
X116594127Y-128486027D01*
X116505478Y-128700045D01*
X116505477Y-128700046D01*
X116376781Y-128892654D01*
X116212974Y-129056461D01*
X116090394Y-129138366D01*
X116020365Y-129185158D01*
X115806347Y-129273807D01*
X115656773Y-129303559D01*
X115579147Y-129319000D01*
X115347493Y-129319000D01*
X115269867Y-129303559D01*
X115120293Y-129273807D01*
X114906275Y-129185158D01*
X114836246Y-129138366D01*
X114713666Y-129056461D01*
X114549859Y-128892654D01*
X114421163Y-128700046D01*
X114421162Y-128700045D01*
X114332513Y-128486027D01*
X114287320Y-128258826D01*
X114287320Y-128027174D01*
X114332513Y-127799973D01*
X114421162Y-127585955D01*
X114506021Y-127458955D01*
X114549859Y-127393346D01*
X114713666Y-127229539D01*
X114842071Y-127143742D01*
X114906275Y-127100842D01*
X115120293Y-127012193D01*
X115271760Y-126982064D01*
X115347493Y-126967000D01*
X115579147Y-126967000D01*
X115654880Y-126982064D01*
G37*
G36*
X125413560Y-126855064D02*
G01*
X125565027Y-126885193D01*
X125779045Y-126973842D01*
X125779046Y-126973843D01*
X125971654Y-127102539D01*
X126135461Y-127266346D01*
X126204735Y-127370023D01*
X126264158Y-127458955D01*
X126352807Y-127672973D01*
X126398000Y-127900174D01*
X126398000Y-128131826D01*
X126352807Y-128359027D01*
X126264158Y-128573045D01*
X126264157Y-128573046D01*
X126135461Y-128765654D01*
X125971654Y-128929461D01*
X125893086Y-128981958D01*
X125779045Y-129058158D01*
X125565027Y-129146807D01*
X125413560Y-129176936D01*
X125337827Y-129192000D01*
X125106173Y-129192000D01*
X125030440Y-129176936D01*
X124878973Y-129146807D01*
X124664955Y-129058158D01*
X124550914Y-128981958D01*
X124472346Y-128929461D01*
X124308539Y-128765654D01*
X124179843Y-128573046D01*
X124179842Y-128573045D01*
X124091193Y-128359027D01*
X124046000Y-128131826D01*
X124046000Y-127900174D01*
X124091193Y-127672973D01*
X124179842Y-127458955D01*
X124239265Y-127370023D01*
X124308539Y-127266346D01*
X124472346Y-127102539D01*
X124664954Y-126973843D01*
X124664955Y-126973842D01*
X124878973Y-126885193D01*
X125030440Y-126855064D01*
X125106173Y-126840000D01*
X125337827Y-126840000D01*
X125413560Y-126855064D01*
G37*
G36*
X130493560Y-126855064D02*
G01*
X130645027Y-126885193D01*
X130859045Y-126973842D01*
X130859046Y-126973843D01*
X131051654Y-127102539D01*
X131215461Y-127266346D01*
X131284735Y-127370023D01*
X131344158Y-127458955D01*
X131432807Y-127672973D01*
X131478000Y-127900174D01*
X131478000Y-128131826D01*
X131432807Y-128359027D01*
X131344158Y-128573045D01*
X131344157Y-128573046D01*
X131215461Y-128765654D01*
X131051654Y-128929461D01*
X130973086Y-128981958D01*
X130859045Y-129058158D01*
X130645027Y-129146807D01*
X130493560Y-129176936D01*
X130417827Y-129192000D01*
X130186173Y-129192000D01*
X130110440Y-129176936D01*
X129958973Y-129146807D01*
X129744955Y-129058158D01*
X129630914Y-128981958D01*
X129552346Y-128929461D01*
X129388539Y-128765654D01*
X129259843Y-128573046D01*
X129259842Y-128573045D01*
X129171193Y-128359027D01*
X129126000Y-128131826D01*
X129126000Y-127900174D01*
X129171193Y-127672973D01*
X129259842Y-127458955D01*
X129319265Y-127370023D01*
X129388539Y-127266346D01*
X129552346Y-127102539D01*
X129744954Y-126973843D01*
X129744955Y-126973842D01*
X129958973Y-126885193D01*
X130110440Y-126855064D01*
X130186173Y-126840000D01*
X130417827Y-126840000D01*
X130493560Y-126855064D01*
G37*
G36*
X108299040Y-126778864D02*
G01*
X108450507Y-126808993D01*
X108664525Y-126897642D01*
X108728729Y-126940542D01*
X108857134Y-127026339D01*
X109020941Y-127190146D01*
X109071856Y-127266346D01*
X109149638Y-127382755D01*
X109238287Y-127596773D01*
X109283480Y-127823974D01*
X109283480Y-128055626D01*
X109238287Y-128282827D01*
X109149638Y-128496845D01*
X109149637Y-128496846D01*
X109020941Y-128689454D01*
X108857134Y-128853261D01*
X108780428Y-128904514D01*
X108664525Y-128981958D01*
X108450507Y-129070607D01*
X108299040Y-129100736D01*
X108223307Y-129115800D01*
X107991653Y-129115800D01*
X107915920Y-129100736D01*
X107764453Y-129070607D01*
X107550435Y-128981958D01*
X107434532Y-128904514D01*
X107357826Y-128853261D01*
X107194019Y-128689454D01*
X107065323Y-128496846D01*
X107065322Y-128496845D01*
X106976673Y-128282827D01*
X106931480Y-128055626D01*
X106931480Y-127823974D01*
X106976673Y-127596773D01*
X107065322Y-127382755D01*
X107143104Y-127266346D01*
X107194019Y-127190146D01*
X107357826Y-127026339D01*
X107486231Y-126940542D01*
X107550435Y-126897642D01*
X107764453Y-126808993D01*
X107915920Y-126778864D01*
X107991653Y-126763800D01*
X108223307Y-126763800D01*
X108299040Y-126778864D01*
G37*
G36*
X103219040Y-126778864D02*
G01*
X103370507Y-126808993D01*
X103584525Y-126897642D01*
X103648729Y-126940542D01*
X103777134Y-127026339D01*
X103940941Y-127190146D01*
X103991856Y-127266346D01*
X104069638Y-127382755D01*
X104158287Y-127596773D01*
X104203480Y-127823974D01*
X104203480Y-128055626D01*
X104158287Y-128282827D01*
X104069638Y-128496845D01*
X104069637Y-128496846D01*
X103940941Y-128689454D01*
X103777134Y-128853261D01*
X103700428Y-128904514D01*
X103584525Y-128981958D01*
X103370507Y-129070607D01*
X103219040Y-129100736D01*
X103143307Y-129115800D01*
X102911653Y-129115800D01*
X102835920Y-129100736D01*
X102684453Y-129070607D01*
X102470435Y-128981958D01*
X102354532Y-128904514D01*
X102277826Y-128853261D01*
X102114019Y-128689454D01*
X101985323Y-128496846D01*
X101985322Y-128496845D01*
X101896673Y-128282827D01*
X101851480Y-128055626D01*
X101851480Y-127823974D01*
X101896673Y-127596773D01*
X101985322Y-127382755D01*
X102063104Y-127266346D01*
X102114019Y-127190146D01*
X102277826Y-127026339D01*
X102406231Y-126940542D01*
X102470435Y-126897642D01*
X102684453Y-126808993D01*
X102835920Y-126778864D01*
X102911653Y-126763800D01*
X103143307Y-126763800D01*
X103219040Y-126778864D01*
G37*
G36*
X52086992Y-126276647D02*
G01*
X52236292Y-126306344D01*
X52400264Y-126374264D01*
X52547834Y-126472867D01*
X52673333Y-126598366D01*
X52771936Y-126745936D01*
X52839856Y-126909908D01*
X52874480Y-127083979D01*
X52874480Y-127261461D01*
X52839856Y-127435532D01*
X52771936Y-127599504D01*
X52673333Y-127747074D01*
X52547834Y-127872573D01*
X52400264Y-127971176D01*
X52236292Y-128039096D01*
X52086992Y-128068793D01*
X52062222Y-128073720D01*
X51884738Y-128073720D01*
X51859968Y-128068793D01*
X51710668Y-128039096D01*
X51546696Y-127971176D01*
X51399126Y-127872573D01*
X51273627Y-127747074D01*
X51175024Y-127599504D01*
X51107104Y-127435532D01*
X51072480Y-127261461D01*
X51072480Y-127083979D01*
X51107104Y-126909908D01*
X51175024Y-126745936D01*
X51273627Y-126598366D01*
X51399126Y-126472867D01*
X51546696Y-126374264D01*
X51710668Y-126306344D01*
X51859968Y-126276647D01*
X51884738Y-126271720D01*
X52062222Y-126271720D01*
X52086992Y-126276647D01*
G37*
G36*
X67358663Y-126364513D02*
G01*
X67519082Y-126413176D01*
X67630756Y-126472867D01*
X67666918Y-126492196D01*
X67796499Y-126598541D01*
X67902844Y-126728122D01*
X67902845Y-126728124D01*
X67981864Y-126875958D01*
X68030527Y-127036377D01*
X68046957Y-127203200D01*
X68030527Y-127370023D01*
X67981864Y-127530442D01*
X67910954Y-127663106D01*
X67902844Y-127678278D01*
X67796499Y-127807859D01*
X67666918Y-127914204D01*
X67666916Y-127914205D01*
X67519082Y-127993224D01*
X67358663Y-128041887D01*
X67233644Y-128054200D01*
X66350036Y-128054200D01*
X66225017Y-128041887D01*
X66064598Y-127993224D01*
X65916764Y-127914205D01*
X65916762Y-127914204D01*
X65787181Y-127807859D01*
X65680836Y-127678278D01*
X65672726Y-127663106D01*
X65601816Y-127530442D01*
X65553153Y-127370023D01*
X65536723Y-127203200D01*
X65553153Y-127036377D01*
X65601816Y-126875958D01*
X65680835Y-126728124D01*
X65680836Y-126728122D01*
X65787181Y-126598541D01*
X65916762Y-126492196D01*
X65952924Y-126472867D01*
X66064598Y-126413176D01*
X66225017Y-126364513D01*
X66350036Y-126352200D01*
X67233644Y-126352200D01*
X67358663Y-126364513D01*
G37*
G36*
X59738663Y-126364513D02*
G01*
X59899082Y-126413176D01*
X60010756Y-126472867D01*
X60046918Y-126492196D01*
X60176499Y-126598541D01*
X60282844Y-126728122D01*
X60282845Y-126728124D01*
X60361864Y-126875958D01*
X60410527Y-127036377D01*
X60426957Y-127203200D01*
X60410527Y-127370023D01*
X60361864Y-127530442D01*
X60290954Y-127663106D01*
X60282844Y-127678278D01*
X60176499Y-127807859D01*
X60046918Y-127914204D01*
X60046916Y-127914205D01*
X59899082Y-127993224D01*
X59738663Y-128041887D01*
X59613644Y-128054200D01*
X58730036Y-128054200D01*
X58605017Y-128041887D01*
X58444598Y-127993224D01*
X58296764Y-127914205D01*
X58296762Y-127914204D01*
X58167181Y-127807859D01*
X58060836Y-127678278D01*
X58052726Y-127663106D01*
X57981816Y-127530442D01*
X57933153Y-127370023D01*
X57916723Y-127203200D01*
X57933153Y-127036377D01*
X57981816Y-126875958D01*
X58060835Y-126728124D01*
X58060836Y-126728122D01*
X58167181Y-126598541D01*
X58296762Y-126492196D01*
X58332924Y-126472867D01*
X58444598Y-126413176D01*
X58605017Y-126364513D01*
X58730036Y-126352200D01*
X59613644Y-126352200D01*
X59738663Y-126364513D01*
G37*
G36*
X77288872Y-125194607D02*
G01*
X77438172Y-125224304D01*
X77602144Y-125292224D01*
X77749714Y-125390827D01*
X77875213Y-125516326D01*
X77973816Y-125663896D01*
X78041736Y-125827868D01*
X78076360Y-126001939D01*
X78076360Y-126179421D01*
X78041736Y-126353492D01*
X77973816Y-126517464D01*
X77875213Y-126665034D01*
X77749714Y-126790533D01*
X77602144Y-126889136D01*
X77438172Y-126957056D01*
X77288872Y-126986753D01*
X77264102Y-126991680D01*
X77086618Y-126991680D01*
X77061848Y-126986753D01*
X76912548Y-126957056D01*
X76748576Y-126889136D01*
X76601006Y-126790533D01*
X76475507Y-126665034D01*
X76376904Y-126517464D01*
X76308984Y-126353492D01*
X76274360Y-126179421D01*
X76274360Y-126001939D01*
X76308984Y-125827868D01*
X76376904Y-125663896D01*
X76475507Y-125516326D01*
X76601006Y-125390827D01*
X76748576Y-125292224D01*
X76912548Y-125224304D01*
X77061848Y-125194607D01*
X77086618Y-125189680D01*
X77264102Y-125189680D01*
X77288872Y-125194607D01*
G37*
G36*
X118178591Y-124540783D02*
G01*
X118317178Y-124568350D01*
X118512997Y-124649461D01*
X118689230Y-124767216D01*
X118839104Y-124917090D01*
X118956859Y-125093323D01*
X119037970Y-125289142D01*
X119079320Y-125497023D01*
X119079320Y-125708977D01*
X119037970Y-125916858D01*
X118956859Y-126112677D01*
X118839104Y-126288910D01*
X118689230Y-126438784D01*
X118512997Y-126556539D01*
X118317178Y-126637650D01*
X118179514Y-126665033D01*
X118109298Y-126679000D01*
X117897342Y-126679000D01*
X117827126Y-126665033D01*
X117689462Y-126637650D01*
X117493643Y-126556539D01*
X117317410Y-126438784D01*
X117167536Y-126288910D01*
X117049781Y-126112677D01*
X116968670Y-125916858D01*
X116927320Y-125708977D01*
X116927320Y-125497023D01*
X116968670Y-125289142D01*
X117049781Y-125093323D01*
X117167536Y-124917090D01*
X117317410Y-124767216D01*
X117493643Y-124649461D01*
X117689462Y-124568350D01*
X117828049Y-124540783D01*
X117897342Y-124527000D01*
X118109298Y-124527000D01*
X118178591Y-124540783D01*
G37*
G36*
X127937271Y-124413783D02*
G01*
X128075858Y-124441350D01*
X128271677Y-124522461D01*
X128447910Y-124640216D01*
X128597784Y-124790090D01*
X128715539Y-124966323D01*
X128796650Y-125162142D01*
X128838000Y-125370023D01*
X128838000Y-125581977D01*
X128796650Y-125789858D01*
X128715539Y-125985677D01*
X128597784Y-126161910D01*
X128447910Y-126311784D01*
X128271677Y-126429539D01*
X128075858Y-126510650D01*
X127937271Y-126538217D01*
X127867978Y-126552000D01*
X127656022Y-126552000D01*
X127586729Y-126538217D01*
X127448142Y-126510650D01*
X127252323Y-126429539D01*
X127076090Y-126311784D01*
X126926216Y-126161910D01*
X126808461Y-125985677D01*
X126727350Y-125789858D01*
X126686000Y-125581977D01*
X126686000Y-125370023D01*
X126727350Y-125162142D01*
X126808461Y-124966323D01*
X126926216Y-124790090D01*
X127076090Y-124640216D01*
X127252323Y-124522461D01*
X127448142Y-124441350D01*
X127586729Y-124413783D01*
X127656022Y-124400000D01*
X127867978Y-124400000D01*
X127937271Y-124413783D01*
G37*
G36*
X105734580Y-124335958D02*
G01*
X105881338Y-124365150D01*
X106077157Y-124446261D01*
X106253390Y-124564016D01*
X106403264Y-124713890D01*
X106521019Y-124890123D01*
X106602130Y-125085942D01*
X106617287Y-125162142D01*
X106643480Y-125293822D01*
X106643480Y-125505778D01*
X106637922Y-125533720D01*
X106602130Y-125713658D01*
X106521019Y-125909477D01*
X106403264Y-126085710D01*
X106253390Y-126235584D01*
X106077157Y-126353339D01*
X105881338Y-126434450D01*
X105742751Y-126462017D01*
X105673458Y-126475800D01*
X105461502Y-126475800D01*
X105392209Y-126462017D01*
X105253622Y-126434450D01*
X105057803Y-126353339D01*
X104881570Y-126235584D01*
X104731696Y-126085710D01*
X104613941Y-125909477D01*
X104532830Y-125713658D01*
X104497038Y-125533720D01*
X104491480Y-125505778D01*
X104491480Y-125293822D01*
X104517673Y-125162142D01*
X104532830Y-125085942D01*
X104613941Y-124890123D01*
X104731696Y-124713890D01*
X104881570Y-124564016D01*
X105057803Y-124446261D01*
X105253622Y-124365150D01*
X105400380Y-124335958D01*
X105461502Y-124323800D01*
X105673458Y-124323800D01*
X105734580Y-124335958D01*
G37*
G36*
X52086992Y-123736647D02*
G01*
X52236292Y-123766344D01*
X52400264Y-123834264D01*
X52547834Y-123932867D01*
X52673333Y-124058366D01*
X52771936Y-124205936D01*
X52839856Y-124369908D01*
X52874480Y-124543979D01*
X52874480Y-124721461D01*
X52839856Y-124895532D01*
X52771936Y-125059504D01*
X52673333Y-125207074D01*
X52547834Y-125332573D01*
X52400264Y-125431176D01*
X52236292Y-125499096D01*
X52086992Y-125528793D01*
X52062222Y-125533720D01*
X51884738Y-125533720D01*
X51859968Y-125528793D01*
X51710668Y-125499096D01*
X51546696Y-125431176D01*
X51399126Y-125332573D01*
X51273627Y-125207074D01*
X51175024Y-125059504D01*
X51107104Y-124895532D01*
X51072480Y-124721461D01*
X51072480Y-124543979D01*
X51107104Y-124369908D01*
X51175024Y-124205936D01*
X51273627Y-124058366D01*
X51399126Y-123932867D01*
X51546696Y-123834264D01*
X51710668Y-123766344D01*
X51859968Y-123736647D01*
X51884738Y-123731720D01*
X52062222Y-123731720D01*
X52086992Y-123736647D01*
G37*
G36*
X59738663Y-123824513D02*
G01*
X59899082Y-123873176D01*
X60010756Y-123932867D01*
X60046918Y-123952196D01*
X60176499Y-124058541D01*
X60282844Y-124188122D01*
X60282845Y-124188124D01*
X60361864Y-124335958D01*
X60410527Y-124496377D01*
X60426957Y-124663200D01*
X60410527Y-124830023D01*
X60390655Y-124895531D01*
X60369181Y-124966323D01*
X60361864Y-124990442D01*
X60310818Y-125085942D01*
X60282844Y-125138278D01*
X60176499Y-125267859D01*
X60046918Y-125374204D01*
X60031746Y-125382314D01*
X59899082Y-125453224D01*
X59738663Y-125501887D01*
X59613644Y-125514200D01*
X58730036Y-125514200D01*
X58605017Y-125501887D01*
X58444598Y-125453224D01*
X58311934Y-125382314D01*
X58296762Y-125374204D01*
X58167181Y-125267859D01*
X58060836Y-125138278D01*
X58032862Y-125085942D01*
X57981816Y-124990442D01*
X57974500Y-124966323D01*
X57953025Y-124895531D01*
X57933153Y-124830023D01*
X57916723Y-124663200D01*
X57933153Y-124496377D01*
X57981816Y-124335958D01*
X58060835Y-124188124D01*
X58060836Y-124188122D01*
X58167181Y-124058541D01*
X58296762Y-123952196D01*
X58332924Y-123932867D01*
X58444598Y-123873176D01*
X58605017Y-123824513D01*
X58730036Y-123812200D01*
X59613644Y-123812200D01*
X59738663Y-123824513D01*
G37*
G36*
X67358663Y-123824513D02*
G01*
X67519082Y-123873176D01*
X67630756Y-123932867D01*
X67666918Y-123952196D01*
X67796499Y-124058541D01*
X67902844Y-124188122D01*
X67902845Y-124188124D01*
X67981864Y-124335958D01*
X68030527Y-124496377D01*
X68046957Y-124663200D01*
X68030527Y-124830023D01*
X68010655Y-124895531D01*
X67989181Y-124966323D01*
X67981864Y-124990442D01*
X67930818Y-125085942D01*
X67902844Y-125138278D01*
X67796499Y-125267859D01*
X67666918Y-125374204D01*
X67651746Y-125382314D01*
X67519082Y-125453224D01*
X67358663Y-125501887D01*
X67233644Y-125514200D01*
X66350036Y-125514200D01*
X66225017Y-125501887D01*
X66064598Y-125453224D01*
X65931934Y-125382314D01*
X65916762Y-125374204D01*
X65787181Y-125267859D01*
X65680836Y-125138278D01*
X65652862Y-125085942D01*
X65601816Y-124990442D01*
X65594500Y-124966323D01*
X65573025Y-124895531D01*
X65553153Y-124830023D01*
X65536723Y-124663200D01*
X65553153Y-124496377D01*
X65601816Y-124335958D01*
X65680835Y-124188124D01*
X65680836Y-124188122D01*
X65787181Y-124058541D01*
X65916762Y-123952196D01*
X65952924Y-123932867D01*
X66064598Y-123873176D01*
X66225017Y-123824513D01*
X66350036Y-123812200D01*
X67233644Y-123812200D01*
X67358663Y-123824513D01*
G37*
G36*
X72190202Y-123852141D02*
G01*
X72225121Y-123862734D01*
X72257303Y-123879936D01*
X72285513Y-123903087D01*
X72308664Y-123931297D01*
X72325866Y-123963479D01*
X72336459Y-123998398D01*
X72340640Y-124040855D01*
X72340640Y-125182065D01*
X72336459Y-125224522D01*
X72325866Y-125259441D01*
X72308664Y-125291623D01*
X72285513Y-125319833D01*
X72257303Y-125342984D01*
X72225121Y-125360186D01*
X72190202Y-125370779D01*
X72147745Y-125374960D01*
X70681535Y-125374960D01*
X70639078Y-125370779D01*
X70604159Y-125360186D01*
X70571977Y-125342984D01*
X70543767Y-125319833D01*
X70520616Y-125291623D01*
X70503414Y-125259441D01*
X70492821Y-125224522D01*
X70488640Y-125182065D01*
X70488640Y-124040855D01*
X70492821Y-123998398D01*
X70503414Y-123963479D01*
X70520616Y-123931297D01*
X70543767Y-123903087D01*
X70571977Y-123879936D01*
X70604159Y-123862734D01*
X70639078Y-123852141D01*
X70681535Y-123847960D01*
X72147745Y-123847960D01*
X72190202Y-123852141D01*
G37*
G36*
X142017224Y-120443602D02*
G01*
X142436059Y-120617089D01*
X142436061Y-120617090D01*
X142625811Y-120743877D01*
X142813002Y-120868954D01*
X143133566Y-121189518D01*
X143385431Y-121566461D01*
X143558918Y-121985296D01*
X143647360Y-122429927D01*
X143647360Y-122883273D01*
X143558918Y-123327904D01*
X143429883Y-123639422D01*
X143385430Y-123746741D01*
X143281718Y-123901957D01*
X143133566Y-124123682D01*
X142813002Y-124444246D01*
X142801876Y-124451680D01*
X142436061Y-124696110D01*
X142436060Y-124696111D01*
X142436059Y-124696111D01*
X142017224Y-124869598D01*
X141572593Y-124958040D01*
X141119247Y-124958040D01*
X140674616Y-124869598D01*
X140255781Y-124696111D01*
X140255780Y-124696111D01*
X140255779Y-124696110D01*
X139889964Y-124451680D01*
X139878838Y-124444246D01*
X139558274Y-124123682D01*
X139410122Y-123901957D01*
X139306410Y-123746741D01*
X139261957Y-123639422D01*
X139132922Y-123327904D01*
X139044480Y-122883273D01*
X139044480Y-122429927D01*
X139132922Y-121985296D01*
X139306409Y-121566461D01*
X139558274Y-121189518D01*
X139878838Y-120868954D01*
X140066029Y-120743877D01*
X140255779Y-120617090D01*
X140255781Y-120617089D01*
X140674616Y-120443602D01*
X141119247Y-120355160D01*
X141572593Y-120355160D01*
X142017224Y-120443602D01*
G37*
G36*
X77288872Y-122654607D02*
G01*
X77438172Y-122684304D01*
X77602144Y-122752224D01*
X77749714Y-122850827D01*
X77875213Y-122976326D01*
X77973816Y-123123896D01*
X78041736Y-123287868D01*
X78076360Y-123461939D01*
X78076360Y-123639421D01*
X78041736Y-123813492D01*
X77973816Y-123977464D01*
X77875213Y-124125034D01*
X77749714Y-124250533D01*
X77602144Y-124349136D01*
X77438172Y-124417056D01*
X77301480Y-124444245D01*
X77264102Y-124451680D01*
X77086618Y-124451680D01*
X77049240Y-124444245D01*
X76912548Y-124417056D01*
X76748576Y-124349136D01*
X76601006Y-124250533D01*
X76475507Y-124125034D01*
X76376904Y-123977464D01*
X76308984Y-123813492D01*
X76274360Y-123639421D01*
X76274360Y-123461939D01*
X76308984Y-123287868D01*
X76376904Y-123123896D01*
X76475507Y-122976326D01*
X76601006Y-122850827D01*
X76748576Y-122752224D01*
X76912548Y-122684304D01*
X77061848Y-122654607D01*
X77086618Y-122649680D01*
X77264102Y-122649680D01*
X77288872Y-122654607D01*
G37*
G36*
X120734880Y-121902064D02*
G01*
X120886347Y-121932193D01*
X121100365Y-122020842D01*
X121164569Y-122063742D01*
X121292974Y-122149539D01*
X121456781Y-122313346D01*
X121514654Y-122399960D01*
X121585478Y-122505955D01*
X121674127Y-122719973D01*
X121719320Y-122947174D01*
X121719320Y-123178826D01*
X121674127Y-123406027D01*
X121585478Y-123620045D01*
X121542578Y-123684249D01*
X121456781Y-123812654D01*
X121292974Y-123976461D01*
X121196601Y-124040855D01*
X121100365Y-124105158D01*
X120886347Y-124193807D01*
X120734880Y-124223936D01*
X120659147Y-124239000D01*
X120427493Y-124239000D01*
X120351760Y-124223936D01*
X120200293Y-124193807D01*
X119986275Y-124105158D01*
X119890039Y-124040855D01*
X119793666Y-123976461D01*
X119629859Y-123812654D01*
X119544062Y-123684249D01*
X119501162Y-123620045D01*
X119412513Y-123406027D01*
X119367320Y-123178826D01*
X119367320Y-122947174D01*
X119412513Y-122719973D01*
X119501162Y-122505955D01*
X119571986Y-122399960D01*
X119629859Y-122313346D01*
X119793666Y-122149539D01*
X119922071Y-122063742D01*
X119986275Y-122020842D01*
X120200293Y-121932193D01*
X120351760Y-121902064D01*
X120427493Y-121887000D01*
X120659147Y-121887000D01*
X120734880Y-121902064D01*
G37*
G36*
X115654880Y-121902064D02*
G01*
X115806347Y-121932193D01*
X116020365Y-122020842D01*
X116084569Y-122063742D01*
X116212974Y-122149539D01*
X116376781Y-122313346D01*
X116434654Y-122399960D01*
X116505478Y-122505955D01*
X116594127Y-122719973D01*
X116639320Y-122947174D01*
X116639320Y-123178826D01*
X116594127Y-123406027D01*
X116505478Y-123620045D01*
X116462578Y-123684249D01*
X116376781Y-123812654D01*
X116212974Y-123976461D01*
X116116601Y-124040855D01*
X116020365Y-124105158D01*
X115806347Y-124193807D01*
X115654880Y-124223936D01*
X115579147Y-124239000D01*
X115347493Y-124239000D01*
X115271760Y-124223936D01*
X115120293Y-124193807D01*
X114906275Y-124105158D01*
X114810039Y-124040855D01*
X114713666Y-123976461D01*
X114549859Y-123812654D01*
X114464062Y-123684249D01*
X114421162Y-123620045D01*
X114332513Y-123406027D01*
X114287320Y-123178826D01*
X114287320Y-122947174D01*
X114332513Y-122719973D01*
X114421162Y-122505955D01*
X114491986Y-122399960D01*
X114549859Y-122313346D01*
X114713666Y-122149539D01*
X114842071Y-122063742D01*
X114906275Y-122020842D01*
X115120293Y-121932193D01*
X115271760Y-121902064D01*
X115347493Y-121887000D01*
X115579147Y-121887000D01*
X115654880Y-121902064D01*
G37*
G36*
X125413560Y-121775064D02*
G01*
X125565027Y-121805193D01*
X125779045Y-121893842D01*
X125779046Y-121893843D01*
X125971654Y-122022539D01*
X126135461Y-122186346D01*
X126198639Y-122280899D01*
X126264158Y-122378955D01*
X126352807Y-122592973D01*
X126398000Y-122820174D01*
X126398000Y-123051826D01*
X126352807Y-123279027D01*
X126264158Y-123493045D01*
X126264157Y-123493046D01*
X126135461Y-123685654D01*
X125971654Y-123849461D01*
X125856469Y-123926425D01*
X125779045Y-123978158D01*
X125565027Y-124066807D01*
X125413560Y-124096936D01*
X125337827Y-124112000D01*
X125106173Y-124112000D01*
X125030440Y-124096936D01*
X124878973Y-124066807D01*
X124664955Y-123978158D01*
X124587531Y-123926425D01*
X124472346Y-123849461D01*
X124308539Y-123685654D01*
X124179843Y-123493046D01*
X124179842Y-123493045D01*
X124091193Y-123279027D01*
X124046000Y-123051826D01*
X124046000Y-122820174D01*
X124091193Y-122592973D01*
X124179842Y-122378955D01*
X124245361Y-122280899D01*
X124308539Y-122186346D01*
X124472346Y-122022539D01*
X124664954Y-121893843D01*
X124664955Y-121893842D01*
X124878973Y-121805193D01*
X125030440Y-121775064D01*
X125106173Y-121760000D01*
X125337827Y-121760000D01*
X125413560Y-121775064D01*
G37*
G36*
X130493560Y-121775064D02*
G01*
X130645027Y-121805193D01*
X130859045Y-121893842D01*
X130859046Y-121893843D01*
X131051654Y-122022539D01*
X131215461Y-122186346D01*
X131278639Y-122280899D01*
X131344158Y-122378955D01*
X131432807Y-122592973D01*
X131478000Y-122820174D01*
X131478000Y-123051826D01*
X131432807Y-123279027D01*
X131344158Y-123493045D01*
X131344157Y-123493046D01*
X131215461Y-123685654D01*
X131051654Y-123849461D01*
X130936469Y-123926425D01*
X130859045Y-123978158D01*
X130645027Y-124066807D01*
X130493560Y-124096936D01*
X130417827Y-124112000D01*
X130186173Y-124112000D01*
X130110440Y-124096936D01*
X129958973Y-124066807D01*
X129744955Y-123978158D01*
X129667531Y-123926425D01*
X129552346Y-123849461D01*
X129388539Y-123685654D01*
X129259843Y-123493046D01*
X129259842Y-123493045D01*
X129171193Y-123279027D01*
X129126000Y-123051826D01*
X129126000Y-122820174D01*
X129171193Y-122592973D01*
X129259842Y-122378955D01*
X129325361Y-122280899D01*
X129388539Y-122186346D01*
X129552346Y-122022539D01*
X129744954Y-121893843D01*
X129744955Y-121893842D01*
X129958973Y-121805193D01*
X130110440Y-121775064D01*
X130186173Y-121760000D01*
X130417827Y-121760000D01*
X130493560Y-121775064D01*
G37*
G36*
X108299040Y-121698864D02*
G01*
X108450507Y-121728993D01*
X108664525Y-121817642D01*
X108728729Y-121860542D01*
X108857134Y-121946339D01*
X109020941Y-122110146D01*
X109071856Y-122186346D01*
X109149638Y-122302755D01*
X109238287Y-122516773D01*
X109283480Y-122743974D01*
X109283480Y-122975626D01*
X109238287Y-123202827D01*
X109149638Y-123416845D01*
X109149637Y-123416846D01*
X109020941Y-123609454D01*
X108857134Y-123773261D01*
X108743095Y-123849459D01*
X108664525Y-123901958D01*
X108450507Y-123990607D01*
X108336240Y-124013336D01*
X108223307Y-124035800D01*
X107991653Y-124035800D01*
X107878720Y-124013336D01*
X107764453Y-123990607D01*
X107550435Y-123901958D01*
X107471865Y-123849459D01*
X107357826Y-123773261D01*
X107194019Y-123609454D01*
X107065323Y-123416846D01*
X107065322Y-123416845D01*
X106976673Y-123202827D01*
X106931480Y-122975626D01*
X106931480Y-122743974D01*
X106976673Y-122516773D01*
X107065322Y-122302755D01*
X107143104Y-122186346D01*
X107194019Y-122110146D01*
X107357826Y-121946339D01*
X107486231Y-121860542D01*
X107550435Y-121817642D01*
X107764453Y-121728993D01*
X107915920Y-121698864D01*
X107991653Y-121683800D01*
X108223307Y-121683800D01*
X108299040Y-121698864D01*
G37*
G36*
X103219040Y-121698864D02*
G01*
X103370507Y-121728993D01*
X103584525Y-121817642D01*
X103648729Y-121860542D01*
X103777134Y-121946339D01*
X103940941Y-122110146D01*
X103991856Y-122186346D01*
X104069638Y-122302755D01*
X104158287Y-122516773D01*
X104203480Y-122743974D01*
X104203480Y-122975626D01*
X104158287Y-123202827D01*
X104069638Y-123416845D01*
X104069637Y-123416846D01*
X103940941Y-123609454D01*
X103777134Y-123773261D01*
X103663095Y-123849459D01*
X103584525Y-123901958D01*
X103370507Y-123990607D01*
X103256240Y-124013336D01*
X103143307Y-124035800D01*
X102911653Y-124035800D01*
X102798720Y-124013336D01*
X102684453Y-123990607D01*
X102470435Y-123901958D01*
X102391865Y-123849459D01*
X102277826Y-123773261D01*
X102114019Y-123609454D01*
X101985323Y-123416846D01*
X101985322Y-123416845D01*
X101896673Y-123202827D01*
X101851480Y-122975626D01*
X101851480Y-122743974D01*
X101896673Y-122516773D01*
X101985322Y-122302755D01*
X102063104Y-122186346D01*
X102114019Y-122110146D01*
X102277826Y-121946339D01*
X102406231Y-121860542D01*
X102470435Y-121817642D01*
X102684453Y-121728993D01*
X102835920Y-121698864D01*
X102911653Y-121683800D01*
X103143307Y-121683800D01*
X103219040Y-121698864D01*
G37*
G36*
X52086992Y-121196647D02*
G01*
X52236292Y-121226344D01*
X52400264Y-121294264D01*
X52547834Y-121392867D01*
X52673333Y-121518366D01*
X52771936Y-121665936D01*
X52839856Y-121829908D01*
X52874480Y-122003979D01*
X52874480Y-122181461D01*
X52839856Y-122355532D01*
X52771936Y-122519504D01*
X52673333Y-122667074D01*
X52547834Y-122792573D01*
X52400264Y-122891176D01*
X52236292Y-122959096D01*
X52086992Y-122988793D01*
X52062222Y-122993720D01*
X51884738Y-122993720D01*
X51859968Y-122988793D01*
X51710668Y-122959096D01*
X51546696Y-122891176D01*
X51399126Y-122792573D01*
X51273627Y-122667074D01*
X51175024Y-122519504D01*
X51107104Y-122355532D01*
X51072480Y-122181461D01*
X51072480Y-122003979D01*
X51107104Y-121829908D01*
X51175024Y-121665936D01*
X51273627Y-121518366D01*
X51399126Y-121392867D01*
X51546696Y-121294264D01*
X51710668Y-121226344D01*
X51859968Y-121196647D01*
X51884738Y-121191720D01*
X52062222Y-121191720D01*
X52086992Y-121196647D01*
G37*
G36*
X67358663Y-121284513D02*
G01*
X67519082Y-121333176D01*
X67630756Y-121392867D01*
X67666918Y-121412196D01*
X67796499Y-121518541D01*
X67902844Y-121648122D01*
X67902845Y-121648124D01*
X67981864Y-121795958D01*
X68030527Y-121956377D01*
X68046957Y-122123200D01*
X68030527Y-122290023D01*
X67981864Y-122450442D01*
X67910954Y-122583106D01*
X67902844Y-122598278D01*
X67796499Y-122727859D01*
X67666918Y-122834204D01*
X67666916Y-122834205D01*
X67519082Y-122913224D01*
X67358663Y-122961887D01*
X67233644Y-122974200D01*
X66350036Y-122974200D01*
X66225017Y-122961887D01*
X66064598Y-122913224D01*
X65916764Y-122834205D01*
X65916762Y-122834204D01*
X65787181Y-122727859D01*
X65680836Y-122598278D01*
X65672726Y-122583106D01*
X65601816Y-122450442D01*
X65553153Y-122290023D01*
X65536723Y-122123200D01*
X65553153Y-121956377D01*
X65601816Y-121795958D01*
X65680835Y-121648124D01*
X65680836Y-121648122D01*
X65787181Y-121518541D01*
X65916762Y-121412196D01*
X65952924Y-121392867D01*
X66064598Y-121333176D01*
X66225017Y-121284513D01*
X66350036Y-121272200D01*
X67233644Y-121272200D01*
X67358663Y-121284513D01*
G37*
G36*
X59738663Y-121284513D02*
G01*
X59899082Y-121333176D01*
X60010756Y-121392867D01*
X60046918Y-121412196D01*
X60176499Y-121518541D01*
X60282844Y-121648122D01*
X60282845Y-121648124D01*
X60361864Y-121795958D01*
X60410527Y-121956377D01*
X60426957Y-122123200D01*
X60410527Y-122290023D01*
X60361864Y-122450442D01*
X60290954Y-122583106D01*
X60282844Y-122598278D01*
X60176499Y-122727859D01*
X60046918Y-122834204D01*
X60046916Y-122834205D01*
X59899082Y-122913224D01*
X59738663Y-122961887D01*
X59613644Y-122974200D01*
X58730036Y-122974200D01*
X58605017Y-122961887D01*
X58444598Y-122913224D01*
X58296764Y-122834205D01*
X58296762Y-122834204D01*
X58167181Y-122727859D01*
X58060836Y-122598278D01*
X58052726Y-122583106D01*
X57981816Y-122450442D01*
X57933153Y-122290023D01*
X57916723Y-122123200D01*
X57933153Y-121956377D01*
X57981816Y-121795958D01*
X58060835Y-121648124D01*
X58060836Y-121648122D01*
X58167181Y-121518541D01*
X58296762Y-121412196D01*
X58332924Y-121392867D01*
X58444598Y-121333176D01*
X58605017Y-121284513D01*
X58730036Y-121272200D01*
X59613644Y-121272200D01*
X59738663Y-121284513D01*
G37*
G36*
X72190202Y-120877141D02*
G01*
X72225121Y-120887734D01*
X72257303Y-120904936D01*
X72285513Y-120928087D01*
X72308664Y-120956297D01*
X72325866Y-120988479D01*
X72336459Y-121023398D01*
X72340640Y-121065855D01*
X72340640Y-122207065D01*
X72336459Y-122249522D01*
X72325866Y-122284441D01*
X72308664Y-122316623D01*
X72285513Y-122344833D01*
X72257303Y-122367984D01*
X72225121Y-122385186D01*
X72190202Y-122395779D01*
X72147745Y-122399960D01*
X70681535Y-122399960D01*
X70639078Y-122395779D01*
X70604159Y-122385186D01*
X70571977Y-122367984D01*
X70543767Y-122344833D01*
X70520616Y-122316623D01*
X70503414Y-122284441D01*
X70492821Y-122249522D01*
X70488640Y-122207065D01*
X70488640Y-121065855D01*
X70492821Y-121023398D01*
X70503414Y-120988479D01*
X70520616Y-120956297D01*
X70543767Y-120928087D01*
X70571977Y-120904936D01*
X70604159Y-120887734D01*
X70639078Y-120877141D01*
X70681535Y-120872960D01*
X72147745Y-120872960D01*
X72190202Y-120877141D01*
G37*
G36*
X77288872Y-120114607D02*
G01*
X77438172Y-120144304D01*
X77602144Y-120212224D01*
X77749714Y-120310827D01*
X77875213Y-120436326D01*
X77973816Y-120583896D01*
X78041736Y-120747868D01*
X78076360Y-120921939D01*
X78076360Y-121099421D01*
X78041736Y-121273492D01*
X77973816Y-121437464D01*
X77875213Y-121585034D01*
X77749714Y-121710533D01*
X77602144Y-121809136D01*
X77438172Y-121877056D01*
X77288872Y-121906753D01*
X77264102Y-121911680D01*
X77086618Y-121911680D01*
X77061848Y-121906753D01*
X76912548Y-121877056D01*
X76748576Y-121809136D01*
X76601006Y-121710533D01*
X76475507Y-121585034D01*
X76376904Y-121437464D01*
X76308984Y-121273492D01*
X76274360Y-121099421D01*
X76274360Y-120921939D01*
X76308984Y-120747868D01*
X76376904Y-120583896D01*
X76475507Y-120436326D01*
X76601006Y-120310827D01*
X76748576Y-120212224D01*
X76912548Y-120144304D01*
X77061848Y-120114607D01*
X77086618Y-120109680D01*
X77264102Y-120109680D01*
X77288872Y-120114607D01*
G37*
G36*
X52086992Y-118656647D02*
G01*
X52236292Y-118686344D01*
X52400264Y-118754264D01*
X52547834Y-118852867D01*
X52673333Y-118978366D01*
X52771936Y-119125936D01*
X52839856Y-119289908D01*
X52874480Y-119463979D01*
X52874480Y-119641461D01*
X52839856Y-119815532D01*
X52771936Y-119979504D01*
X52673333Y-120127074D01*
X52547834Y-120252573D01*
X52400264Y-120351176D01*
X52236292Y-120419096D01*
X52086992Y-120448793D01*
X52062222Y-120453720D01*
X51884738Y-120453720D01*
X51859968Y-120448793D01*
X51710668Y-120419096D01*
X51546696Y-120351176D01*
X51399126Y-120252573D01*
X51273627Y-120127074D01*
X51175024Y-119979504D01*
X51107104Y-119815532D01*
X51072480Y-119641461D01*
X51072480Y-119463979D01*
X51107104Y-119289908D01*
X51175024Y-119125936D01*
X51273627Y-118978366D01*
X51399126Y-118852867D01*
X51546696Y-118754264D01*
X51710668Y-118686344D01*
X51859968Y-118656647D01*
X51884738Y-118651720D01*
X52062222Y-118651720D01*
X52086992Y-118656647D01*
G37*
G36*
X59738663Y-118744513D02*
G01*
X59899082Y-118793176D01*
X60010756Y-118852867D01*
X60046918Y-118872196D01*
X60176499Y-118978541D01*
X60282844Y-119108122D01*
X60282845Y-119108124D01*
X60361864Y-119255958D01*
X60410527Y-119416377D01*
X60426957Y-119583200D01*
X60410527Y-119750023D01*
X60361864Y-119910442D01*
X60290954Y-120043106D01*
X60282844Y-120058278D01*
X60176499Y-120187859D01*
X60046918Y-120294204D01*
X60046916Y-120294205D01*
X59899082Y-120373224D01*
X59738663Y-120421887D01*
X59613644Y-120434200D01*
X58730036Y-120434200D01*
X58605017Y-120421887D01*
X58444598Y-120373224D01*
X58296764Y-120294205D01*
X58296762Y-120294204D01*
X58167181Y-120187859D01*
X58060836Y-120058278D01*
X58052726Y-120043106D01*
X57981816Y-119910442D01*
X57933153Y-119750023D01*
X57916723Y-119583200D01*
X57933153Y-119416377D01*
X57981816Y-119255958D01*
X58060835Y-119108124D01*
X58060836Y-119108122D01*
X58167181Y-118978541D01*
X58296762Y-118872196D01*
X58332924Y-118852867D01*
X58444598Y-118793176D01*
X58605017Y-118744513D01*
X58730036Y-118732200D01*
X59613644Y-118732200D01*
X59738663Y-118744513D01*
G37*
G36*
X67358663Y-118744513D02*
G01*
X67519082Y-118793176D01*
X67630756Y-118852867D01*
X67666918Y-118872196D01*
X67796499Y-118978541D01*
X67902844Y-119108122D01*
X67902845Y-119108124D01*
X67981864Y-119255958D01*
X68030527Y-119416377D01*
X68046957Y-119583200D01*
X68030527Y-119750023D01*
X67981864Y-119910442D01*
X67910954Y-120043106D01*
X67902844Y-120058278D01*
X67796499Y-120187859D01*
X67666918Y-120294204D01*
X67666916Y-120294205D01*
X67519082Y-120373224D01*
X67358663Y-120421887D01*
X67233644Y-120434200D01*
X66350036Y-120434200D01*
X66225017Y-120421887D01*
X66064598Y-120373224D01*
X65916764Y-120294205D01*
X65916762Y-120294204D01*
X65787181Y-120187859D01*
X65680836Y-120058278D01*
X65672726Y-120043106D01*
X65601816Y-119910442D01*
X65553153Y-119750023D01*
X65536723Y-119583200D01*
X65553153Y-119416377D01*
X65601816Y-119255958D01*
X65680835Y-119108124D01*
X65680836Y-119108122D01*
X65787181Y-118978541D01*
X65916762Y-118872196D01*
X65952924Y-118852867D01*
X66064598Y-118793176D01*
X66225017Y-118744513D01*
X66350036Y-118732200D01*
X67233644Y-118732200D01*
X67358663Y-118744513D01*
G37*
G36*
X77288872Y-117574607D02*
G01*
X77438172Y-117604304D01*
X77602144Y-117672224D01*
X77749714Y-117770827D01*
X77875213Y-117896326D01*
X77973816Y-118043896D01*
X78041736Y-118207868D01*
X78076360Y-118381939D01*
X78076360Y-118559421D01*
X78041736Y-118733492D01*
X77973816Y-118897464D01*
X77875213Y-119045034D01*
X77749714Y-119170533D01*
X77602144Y-119269136D01*
X77438172Y-119337056D01*
X77288872Y-119366753D01*
X77264102Y-119371680D01*
X77086618Y-119371680D01*
X77061848Y-119366753D01*
X76912548Y-119337056D01*
X76748576Y-119269136D01*
X76601006Y-119170533D01*
X76475507Y-119045034D01*
X76376904Y-118897464D01*
X76308984Y-118733492D01*
X76274360Y-118559421D01*
X76274360Y-118381939D01*
X76308984Y-118207868D01*
X76376904Y-118043896D01*
X76475507Y-117896326D01*
X76601006Y-117770827D01*
X76748576Y-117672224D01*
X76912548Y-117604304D01*
X77061848Y-117574607D01*
X77086618Y-117569680D01*
X77264102Y-117569680D01*
X77288872Y-117574607D01*
G37*
G36*
X52086992Y-116116647D02*
G01*
X52236292Y-116146344D01*
X52400264Y-116214264D01*
X52547834Y-116312867D01*
X52673333Y-116438366D01*
X52771936Y-116585936D01*
X52839856Y-116749908D01*
X52874480Y-116923979D01*
X52874480Y-117101461D01*
X52839856Y-117275532D01*
X52771936Y-117439504D01*
X52673333Y-117587074D01*
X52547834Y-117712573D01*
X52400264Y-117811176D01*
X52236292Y-117879096D01*
X52086992Y-117908793D01*
X52062222Y-117913720D01*
X51884738Y-117913720D01*
X51859968Y-117908793D01*
X51710668Y-117879096D01*
X51546696Y-117811176D01*
X51399126Y-117712573D01*
X51273627Y-117587074D01*
X51175024Y-117439504D01*
X51107104Y-117275532D01*
X51072480Y-117101461D01*
X51072480Y-116923979D01*
X51107104Y-116749908D01*
X51175024Y-116585936D01*
X51273627Y-116438366D01*
X51399126Y-116312867D01*
X51546696Y-116214264D01*
X51710668Y-116146344D01*
X51859968Y-116116647D01*
X51884738Y-116111720D01*
X52062222Y-116111720D01*
X52086992Y-116116647D01*
G37*
G36*
X67358663Y-116204513D02*
G01*
X67519082Y-116253176D01*
X67630756Y-116312867D01*
X67666918Y-116332196D01*
X67796499Y-116438541D01*
X67902844Y-116568122D01*
X67902845Y-116568124D01*
X67981864Y-116715958D01*
X68030527Y-116876377D01*
X68046957Y-117043200D01*
X68030527Y-117210023D01*
X67981864Y-117370442D01*
X67927063Y-117472967D01*
X67902844Y-117518278D01*
X67796499Y-117647859D01*
X67666918Y-117754204D01*
X67666916Y-117754205D01*
X67519082Y-117833224D01*
X67358663Y-117881887D01*
X67233644Y-117894200D01*
X66350036Y-117894200D01*
X66225017Y-117881887D01*
X66064598Y-117833224D01*
X65916764Y-117754205D01*
X65916762Y-117754204D01*
X65787181Y-117647859D01*
X65680836Y-117518278D01*
X65656617Y-117472967D01*
X65601816Y-117370442D01*
X65553153Y-117210023D01*
X65536723Y-117043200D01*
X65553153Y-116876377D01*
X65601816Y-116715958D01*
X65680835Y-116568124D01*
X65680836Y-116568122D01*
X65787181Y-116438541D01*
X65916762Y-116332196D01*
X65952924Y-116312867D01*
X66064598Y-116253176D01*
X66225017Y-116204513D01*
X66350036Y-116192200D01*
X67233644Y-116192200D01*
X67358663Y-116204513D01*
G37*
G36*
X59738663Y-116204513D02*
G01*
X59899082Y-116253176D01*
X60010756Y-116312867D01*
X60046918Y-116332196D01*
X60176499Y-116438541D01*
X60282844Y-116568122D01*
X60282845Y-116568124D01*
X60361864Y-116715958D01*
X60410527Y-116876377D01*
X60426957Y-117043200D01*
X60410527Y-117210023D01*
X60361864Y-117370442D01*
X60307063Y-117472967D01*
X60282844Y-117518278D01*
X60176499Y-117647859D01*
X60046918Y-117754204D01*
X60046916Y-117754205D01*
X59899082Y-117833224D01*
X59738663Y-117881887D01*
X59613644Y-117894200D01*
X58730036Y-117894200D01*
X58605017Y-117881887D01*
X58444598Y-117833224D01*
X58296764Y-117754205D01*
X58296762Y-117754204D01*
X58167181Y-117647859D01*
X58060836Y-117518278D01*
X58036617Y-117472967D01*
X57981816Y-117370442D01*
X57933153Y-117210023D01*
X57916723Y-117043200D01*
X57933153Y-116876377D01*
X57981816Y-116715958D01*
X58060835Y-116568124D01*
X58060836Y-116568122D01*
X58167181Y-116438541D01*
X58296762Y-116332196D01*
X58332924Y-116312867D01*
X58444598Y-116253176D01*
X58605017Y-116204513D01*
X58730036Y-116192200D01*
X59613644Y-116192200D01*
X59738663Y-116204513D01*
G37*
G36*
X115654880Y-115181224D02*
G01*
X115806347Y-115211353D01*
X116020365Y-115300002D01*
X116020366Y-115300003D01*
X116212974Y-115428699D01*
X116376781Y-115592506D01*
X116462578Y-115720911D01*
X116505478Y-115785115D01*
X116594127Y-115999133D01*
X116639320Y-116226334D01*
X116639320Y-116457986D01*
X116594127Y-116685187D01*
X116505478Y-116899205D01*
X116505477Y-116899206D01*
X116376781Y-117091814D01*
X116212974Y-117255621D01*
X116084569Y-117341418D01*
X116020365Y-117384318D01*
X115806347Y-117472967D01*
X115654880Y-117503096D01*
X115579147Y-117518160D01*
X115347493Y-117518160D01*
X115271760Y-117503096D01*
X115120293Y-117472967D01*
X114906275Y-117384318D01*
X114842071Y-117341418D01*
X114713666Y-117255621D01*
X114549859Y-117091814D01*
X114421163Y-116899206D01*
X114421162Y-116899205D01*
X114332513Y-116685187D01*
X114287320Y-116457986D01*
X114287320Y-116226334D01*
X114332513Y-115999133D01*
X114421162Y-115785115D01*
X114464062Y-115720911D01*
X114549859Y-115592506D01*
X114713666Y-115428699D01*
X114906274Y-115300003D01*
X114906275Y-115300002D01*
X115120293Y-115211353D01*
X115271760Y-115181224D01*
X115347493Y-115166160D01*
X115579147Y-115166160D01*
X115654880Y-115181224D01*
G37*
G36*
X120734880Y-115181224D02*
G01*
X120886347Y-115211353D01*
X121100365Y-115300002D01*
X121100366Y-115300003D01*
X121292974Y-115428699D01*
X121456781Y-115592506D01*
X121542578Y-115720911D01*
X121585478Y-115785115D01*
X121674127Y-115999133D01*
X121719320Y-116226334D01*
X121719320Y-116457986D01*
X121674127Y-116685187D01*
X121585478Y-116899205D01*
X121585477Y-116899206D01*
X121456781Y-117091814D01*
X121292974Y-117255621D01*
X121164569Y-117341418D01*
X121100365Y-117384318D01*
X120886347Y-117472967D01*
X120734880Y-117503096D01*
X120659147Y-117518160D01*
X120427493Y-117518160D01*
X120351760Y-117503096D01*
X120200293Y-117472967D01*
X119986275Y-117384318D01*
X119922071Y-117341418D01*
X119793666Y-117255621D01*
X119629859Y-117091814D01*
X119501163Y-116899206D01*
X119501162Y-116899205D01*
X119412513Y-116685187D01*
X119367320Y-116457986D01*
X119367320Y-116226334D01*
X119412513Y-115999133D01*
X119501162Y-115785115D01*
X119544062Y-115720911D01*
X119629859Y-115592506D01*
X119793666Y-115428699D01*
X119986274Y-115300003D01*
X119986275Y-115300002D01*
X120200293Y-115211353D01*
X120351760Y-115181224D01*
X120427493Y-115166160D01*
X120659147Y-115166160D01*
X120734880Y-115181224D01*
G37*
G36*
X108299040Y-114978024D02*
G01*
X108450507Y-115008153D01*
X108664525Y-115096802D01*
X108728729Y-115139702D01*
X108857134Y-115225499D01*
X109020941Y-115389306D01*
X109097507Y-115503896D01*
X109149638Y-115581915D01*
X109238287Y-115795933D01*
X109238287Y-115795935D01*
X109282742Y-116019421D01*
X109283480Y-116023134D01*
X109283480Y-116254786D01*
X109238287Y-116481987D01*
X109149638Y-116696005D01*
X109149637Y-116696006D01*
X109020941Y-116888614D01*
X108857134Y-117052421D01*
X108728729Y-117138218D01*
X108664525Y-117181118D01*
X108450507Y-117269767D01*
X108299040Y-117299896D01*
X108223307Y-117314960D01*
X107991653Y-117314960D01*
X107915920Y-117299896D01*
X107764453Y-117269767D01*
X107550435Y-117181118D01*
X107486231Y-117138218D01*
X107357826Y-117052421D01*
X107194019Y-116888614D01*
X107065323Y-116696006D01*
X107065322Y-116696005D01*
X106976673Y-116481987D01*
X106931480Y-116254786D01*
X106931480Y-116023134D01*
X106932219Y-116019421D01*
X106976673Y-115795935D01*
X106976673Y-115795933D01*
X107065322Y-115581915D01*
X107117453Y-115503896D01*
X107194019Y-115389306D01*
X107357826Y-115225499D01*
X107486231Y-115139702D01*
X107550435Y-115096802D01*
X107764453Y-115008153D01*
X107915920Y-114978024D01*
X107991653Y-114962960D01*
X108223307Y-114962960D01*
X108299040Y-114978024D01*
G37*
G36*
X103219040Y-114978024D02*
G01*
X103370507Y-115008153D01*
X103584525Y-115096802D01*
X103648729Y-115139702D01*
X103777134Y-115225499D01*
X103940941Y-115389306D01*
X104017507Y-115503896D01*
X104069638Y-115581915D01*
X104158287Y-115795933D01*
X104158287Y-115795935D01*
X104202742Y-116019421D01*
X104203480Y-116023134D01*
X104203480Y-116254786D01*
X104158287Y-116481987D01*
X104069638Y-116696005D01*
X104069637Y-116696006D01*
X103940941Y-116888614D01*
X103777134Y-117052421D01*
X103648729Y-117138218D01*
X103584525Y-117181118D01*
X103370507Y-117269767D01*
X103219040Y-117299896D01*
X103143307Y-117314960D01*
X102911653Y-117314960D01*
X102835920Y-117299896D01*
X102684453Y-117269767D01*
X102470435Y-117181118D01*
X102406231Y-117138218D01*
X102277826Y-117052421D01*
X102114019Y-116888614D01*
X101985323Y-116696006D01*
X101985322Y-116696005D01*
X101896673Y-116481987D01*
X101851480Y-116254786D01*
X101851480Y-116023134D01*
X101852219Y-116019421D01*
X101896673Y-115795935D01*
X101896673Y-115795933D01*
X101985322Y-115581915D01*
X102037453Y-115503896D01*
X102114019Y-115389306D01*
X102277826Y-115225499D01*
X102406231Y-115139702D01*
X102470435Y-115096802D01*
X102684453Y-115008153D01*
X102835920Y-114978024D01*
X102911653Y-114962960D01*
X103143307Y-114962960D01*
X103219040Y-114978024D01*
G37*
G36*
X77288872Y-115034607D02*
G01*
X77438172Y-115064304D01*
X77602144Y-115132224D01*
X77749714Y-115230827D01*
X77875213Y-115356326D01*
X77973816Y-115503896D01*
X78041736Y-115667868D01*
X78065057Y-115785114D01*
X78076360Y-115841938D01*
X78076360Y-116019422D01*
X78071433Y-116044192D01*
X78041736Y-116193492D01*
X77973816Y-116357464D01*
X77875213Y-116505034D01*
X77749714Y-116630533D01*
X77602144Y-116729136D01*
X77438172Y-116797056D01*
X77288872Y-116826753D01*
X77264102Y-116831680D01*
X77086618Y-116831680D01*
X77061848Y-116826753D01*
X76912548Y-116797056D01*
X76748576Y-116729136D01*
X76601006Y-116630533D01*
X76475507Y-116505034D01*
X76376904Y-116357464D01*
X76308984Y-116193492D01*
X76279287Y-116044192D01*
X76274360Y-116019422D01*
X76274360Y-115841938D01*
X76285663Y-115785114D01*
X76308984Y-115667868D01*
X76376904Y-115503896D01*
X76475507Y-115356326D01*
X76601006Y-115230827D01*
X76748576Y-115132224D01*
X76912548Y-115064304D01*
X77061848Y-115034607D01*
X77086618Y-115029680D01*
X77264102Y-115029680D01*
X77288872Y-115034607D01*
G37*
G36*
X52874480Y-115373720D02*
G01*
X51072480Y-115373720D01*
X51072480Y-113571720D01*
X52874480Y-113571720D01*
X52874480Y-115373720D01*
G37*
G36*
X67358663Y-113664513D02*
G01*
X67519082Y-113713176D01*
X67574476Y-113742785D01*
X67666918Y-113792196D01*
X67796499Y-113898541D01*
X67902844Y-114028122D01*
X67902845Y-114028124D01*
X67981864Y-114175958D01*
X68030527Y-114336377D01*
X68046957Y-114503200D01*
X68030527Y-114670023D01*
X67981864Y-114830442D01*
X67978460Y-114836810D01*
X67902844Y-114978278D01*
X67796499Y-115107859D01*
X67666918Y-115214204D01*
X67666916Y-115214205D01*
X67519082Y-115293224D01*
X67358663Y-115341887D01*
X67233644Y-115354200D01*
X66350036Y-115354200D01*
X66225017Y-115341887D01*
X66064598Y-115293224D01*
X65916764Y-115214205D01*
X65916762Y-115214204D01*
X65787181Y-115107859D01*
X65680836Y-114978278D01*
X65605220Y-114836810D01*
X65601816Y-114830442D01*
X65553153Y-114670023D01*
X65536723Y-114503200D01*
X65553153Y-114336377D01*
X65601816Y-114175958D01*
X65680835Y-114028124D01*
X65680836Y-114028122D01*
X65787181Y-113898541D01*
X65916762Y-113792196D01*
X66009204Y-113742785D01*
X66064598Y-113713176D01*
X66225017Y-113664513D01*
X66350036Y-113652200D01*
X67233644Y-113652200D01*
X67358663Y-113664513D01*
G37*
G36*
X59738663Y-113664513D02*
G01*
X59899082Y-113713176D01*
X59954476Y-113742785D01*
X60046918Y-113792196D01*
X60176499Y-113898541D01*
X60282844Y-114028122D01*
X60282845Y-114028124D01*
X60361864Y-114175958D01*
X60410527Y-114336377D01*
X60426957Y-114503200D01*
X60410527Y-114670023D01*
X60361864Y-114830442D01*
X60358460Y-114836810D01*
X60282844Y-114978278D01*
X60176499Y-115107859D01*
X60046918Y-115214204D01*
X60046916Y-115214205D01*
X59899082Y-115293224D01*
X59738663Y-115341887D01*
X59613644Y-115354200D01*
X58730036Y-115354200D01*
X58605017Y-115341887D01*
X58444598Y-115293224D01*
X58296764Y-115214205D01*
X58296762Y-115214204D01*
X58167181Y-115107859D01*
X58060836Y-114978278D01*
X57985220Y-114836810D01*
X57981816Y-114830442D01*
X57933153Y-114670023D01*
X57916723Y-114503200D01*
X57933153Y-114336377D01*
X57981816Y-114175958D01*
X58060835Y-114028124D01*
X58060836Y-114028122D01*
X58167181Y-113898541D01*
X58296762Y-113792196D01*
X58389204Y-113742785D01*
X58444598Y-113713176D01*
X58605017Y-113664513D01*
X58730036Y-113652200D01*
X59613644Y-113652200D01*
X59738663Y-113664513D01*
G37*
G36*
X118178591Y-112739943D02*
G01*
X118317178Y-112767510D01*
X118512997Y-112848621D01*
X118689230Y-112966376D01*
X118839104Y-113116250D01*
X118956859Y-113292483D01*
X119037970Y-113488302D01*
X119054563Y-113571720D01*
X119079320Y-113696182D01*
X119079320Y-113908138D01*
X119074673Y-113931499D01*
X119037970Y-114116018D01*
X118956859Y-114311837D01*
X118839104Y-114488070D01*
X118689230Y-114637944D01*
X118512997Y-114755699D01*
X118317178Y-114836810D01*
X118178591Y-114864377D01*
X118109298Y-114878160D01*
X117897342Y-114878160D01*
X117828049Y-114864377D01*
X117689462Y-114836810D01*
X117493643Y-114755699D01*
X117317410Y-114637944D01*
X117167536Y-114488070D01*
X117049781Y-114311837D01*
X116968670Y-114116018D01*
X116931967Y-113931499D01*
X116927320Y-113908138D01*
X116927320Y-113696182D01*
X116952077Y-113571720D01*
X116968670Y-113488302D01*
X117049781Y-113292483D01*
X117167536Y-113116250D01*
X117317410Y-112966376D01*
X117493643Y-112848621D01*
X117689462Y-112767510D01*
X117828049Y-112739943D01*
X117897342Y-112726160D01*
X118109298Y-112726160D01*
X118178591Y-112739943D01*
G37*
G36*
X105742751Y-112536743D02*
G01*
X105881338Y-112564310D01*
X106077157Y-112645421D01*
X106253390Y-112763176D01*
X106403264Y-112913050D01*
X106521019Y-113089283D01*
X106602130Y-113285102D01*
X106602130Y-113285104D01*
X106643480Y-113492982D01*
X106643480Y-113704938D01*
X106641841Y-113713176D01*
X106602130Y-113912818D01*
X106521019Y-114108637D01*
X106403264Y-114284870D01*
X106253390Y-114434744D01*
X106077157Y-114552499D01*
X105881338Y-114633610D01*
X105742751Y-114661177D01*
X105673458Y-114674960D01*
X105461502Y-114674960D01*
X105392209Y-114661177D01*
X105253622Y-114633610D01*
X105057803Y-114552499D01*
X104881570Y-114434744D01*
X104731696Y-114284870D01*
X104613941Y-114108637D01*
X104532830Y-113912818D01*
X104493119Y-113713176D01*
X104491480Y-113704938D01*
X104491480Y-113492982D01*
X104532830Y-113285104D01*
X104532830Y-113285102D01*
X104613941Y-113089283D01*
X104731696Y-112913050D01*
X104881570Y-112763176D01*
X105057803Y-112645421D01*
X105253622Y-112564310D01*
X105392209Y-112536743D01*
X105461502Y-112522960D01*
X105673458Y-112522960D01*
X105742751Y-112536743D01*
G37*
G36*
X77280390Y-112492920D02*
G01*
X77438172Y-112524304D01*
X77602144Y-112592224D01*
X77749714Y-112690827D01*
X77875213Y-112816326D01*
X77973816Y-112963896D01*
X78041736Y-113127868D01*
X78071433Y-113277168D01*
X78076360Y-113301938D01*
X78076360Y-113479422D01*
X78071433Y-113504192D01*
X78041736Y-113653492D01*
X77973816Y-113817464D01*
X77875213Y-113965034D01*
X77749714Y-114090533D01*
X77602144Y-114189136D01*
X77438172Y-114257056D01*
X77298353Y-114284867D01*
X77264102Y-114291680D01*
X77086618Y-114291680D01*
X77052367Y-114284867D01*
X76912548Y-114257056D01*
X76748576Y-114189136D01*
X76601006Y-114090533D01*
X76475507Y-113965034D01*
X76376904Y-113817464D01*
X76308984Y-113653492D01*
X76279287Y-113504192D01*
X76274360Y-113479422D01*
X76274360Y-113301938D01*
X76279287Y-113277168D01*
X76308984Y-113127868D01*
X76376904Y-112963896D01*
X76475507Y-112816326D01*
X76601006Y-112690827D01*
X76748576Y-112592224D01*
X76912548Y-112524304D01*
X77070330Y-112492920D01*
X77086618Y-112489680D01*
X77264102Y-112489680D01*
X77280390Y-112492920D01*
G37*
G36*
X143590602Y-112087861D02*
G01*
X143625521Y-112098454D01*
X143657703Y-112115656D01*
X143685913Y-112138807D01*
X143709064Y-112167017D01*
X143726266Y-112199199D01*
X143736859Y-112234118D01*
X143741040Y-112276575D01*
X143741040Y-113742785D01*
X143736859Y-113785242D01*
X143726266Y-113820161D01*
X143709064Y-113852343D01*
X143685913Y-113880553D01*
X143657703Y-113903704D01*
X143625521Y-113920906D01*
X143590602Y-113931499D01*
X143548145Y-113935680D01*
X142406935Y-113935680D01*
X142364478Y-113931499D01*
X142329559Y-113920906D01*
X142297377Y-113903704D01*
X142269167Y-113880553D01*
X142246016Y-113852343D01*
X142228814Y-113820161D01*
X142218221Y-113785242D01*
X142214040Y-113742785D01*
X142214040Y-112276575D01*
X142218221Y-112234118D01*
X142228814Y-112199199D01*
X142246016Y-112167017D01*
X142269167Y-112138807D01*
X142297377Y-112115656D01*
X142329559Y-112098454D01*
X142364478Y-112087861D01*
X142406935Y-112083680D01*
X143548145Y-112083680D01*
X143590602Y-112087861D01*
G37*
G36*
X146565602Y-112087861D02*
G01*
X146600521Y-112098454D01*
X146632703Y-112115656D01*
X146660913Y-112138807D01*
X146684064Y-112167017D01*
X146701266Y-112199199D01*
X146711859Y-112234118D01*
X146716040Y-112276575D01*
X146716040Y-113742785D01*
X146711859Y-113785242D01*
X146701266Y-113820161D01*
X146684064Y-113852343D01*
X146660913Y-113880553D01*
X146632703Y-113903704D01*
X146600521Y-113920906D01*
X146565602Y-113931499D01*
X146523145Y-113935680D01*
X145381935Y-113935680D01*
X145339478Y-113931499D01*
X145304559Y-113920906D01*
X145272377Y-113903704D01*
X145244167Y-113880553D01*
X145221016Y-113852343D01*
X145203814Y-113820161D01*
X145193221Y-113785242D01*
X145189040Y-113742785D01*
X145189040Y-112276575D01*
X145193221Y-112234118D01*
X145203814Y-112199199D01*
X145221016Y-112167017D01*
X145244167Y-112138807D01*
X145272377Y-112115656D01*
X145304559Y-112098454D01*
X145339478Y-112087861D01*
X145381935Y-112083680D01*
X146523145Y-112083680D01*
X146565602Y-112087861D01*
G37*
G36*
X137478656Y-111690980D02*
G01*
X137576940Y-111700660D01*
X137766101Y-111758041D01*
X137940432Y-111851223D01*
X138093235Y-111976625D01*
X138218637Y-112129428D01*
X138297289Y-112276575D01*
X138309442Y-112299311D01*
X138311819Y-112303759D01*
X138369200Y-112492920D01*
X138388575Y-112689640D01*
X138369200Y-112886360D01*
X138311819Y-113075521D01*
X138218637Y-113249852D01*
X138093235Y-113402655D01*
X137940432Y-113528057D01*
X137766101Y-113621239D01*
X137576940Y-113678620D01*
X137478656Y-113688300D01*
X137429515Y-113693140D01*
X137235925Y-113693140D01*
X137186784Y-113688300D01*
X137088500Y-113678620D01*
X136899339Y-113621239D01*
X136725008Y-113528057D01*
X136572205Y-113402655D01*
X136446803Y-113249852D01*
X136353621Y-113075521D01*
X136296240Y-112886360D01*
X136276865Y-112689640D01*
X136296240Y-112492920D01*
X136353621Y-112303759D01*
X136355999Y-112299311D01*
X136368151Y-112276575D01*
X136446803Y-112129428D01*
X136572205Y-111976625D01*
X136725008Y-111851223D01*
X136899339Y-111758041D01*
X137088500Y-111700660D01*
X137186784Y-111690980D01*
X137235925Y-111686140D01*
X137429515Y-111686140D01*
X137478656Y-111690980D01*
G37*
G36*
X59738663Y-111124513D02*
G01*
X59899082Y-111173176D01*
X60031746Y-111244086D01*
X60046918Y-111252196D01*
X60176499Y-111358541D01*
X60282844Y-111488122D01*
X60282845Y-111488124D01*
X60361864Y-111635958D01*
X60410527Y-111796377D01*
X60426957Y-111963200D01*
X60410527Y-112130023D01*
X60361864Y-112290442D01*
X60307063Y-112392967D01*
X60282844Y-112438278D01*
X60176499Y-112567859D01*
X60046918Y-112674204D01*
X60046916Y-112674205D01*
X59899082Y-112753224D01*
X59738663Y-112801887D01*
X59613644Y-112814200D01*
X58730036Y-112814200D01*
X58605017Y-112801887D01*
X58444598Y-112753224D01*
X58296764Y-112674205D01*
X58296762Y-112674204D01*
X58167181Y-112567859D01*
X58060836Y-112438278D01*
X58036617Y-112392967D01*
X57981816Y-112290442D01*
X57933153Y-112130023D01*
X57916723Y-111963200D01*
X57933153Y-111796377D01*
X57981816Y-111635958D01*
X58060835Y-111488124D01*
X58060836Y-111488122D01*
X58167181Y-111358541D01*
X58296762Y-111252196D01*
X58311934Y-111244086D01*
X58444598Y-111173176D01*
X58605017Y-111124513D01*
X58730036Y-111112200D01*
X59613644Y-111112200D01*
X59738663Y-111124513D01*
G37*
G36*
X67358663Y-111124513D02*
G01*
X67519082Y-111173176D01*
X67651746Y-111244086D01*
X67666918Y-111252196D01*
X67796499Y-111358541D01*
X67902844Y-111488122D01*
X67902845Y-111488124D01*
X67981864Y-111635958D01*
X68030527Y-111796377D01*
X68046957Y-111963200D01*
X68030527Y-112130023D01*
X67981864Y-112290442D01*
X67927063Y-112392967D01*
X67902844Y-112438278D01*
X67796499Y-112567859D01*
X67666918Y-112674204D01*
X67666916Y-112674205D01*
X67519082Y-112753224D01*
X67358663Y-112801887D01*
X67233644Y-112814200D01*
X66350036Y-112814200D01*
X66225017Y-112801887D01*
X66064598Y-112753224D01*
X65916764Y-112674205D01*
X65916762Y-112674204D01*
X65787181Y-112567859D01*
X65680836Y-112438278D01*
X65656617Y-112392967D01*
X65601816Y-112290442D01*
X65553153Y-112130023D01*
X65536723Y-111963200D01*
X65553153Y-111796377D01*
X65601816Y-111635958D01*
X65680835Y-111488124D01*
X65680836Y-111488122D01*
X65787181Y-111358541D01*
X65916762Y-111252196D01*
X65931934Y-111244086D01*
X66064598Y-111173176D01*
X66225017Y-111124513D01*
X66350036Y-111112200D01*
X67233644Y-111112200D01*
X67358663Y-111124513D01*
G37*
G36*
X115654880Y-110101224D02*
G01*
X115806347Y-110131353D01*
X116020365Y-110220002D01*
X116020366Y-110220003D01*
X116212974Y-110348699D01*
X116376781Y-110512506D01*
X116392159Y-110535521D01*
X116505478Y-110705115D01*
X116594127Y-110919133D01*
X116639320Y-111146334D01*
X116639320Y-111377986D01*
X116594127Y-111605187D01*
X116505478Y-111819205D01*
X116505477Y-111819206D01*
X116376781Y-112011814D01*
X116212974Y-112175621D01*
X116103070Y-112249056D01*
X116020365Y-112304318D01*
X115806347Y-112392967D01*
X115654880Y-112423096D01*
X115579147Y-112438160D01*
X115347493Y-112438160D01*
X115271760Y-112423096D01*
X115120293Y-112392967D01*
X114906275Y-112304318D01*
X114823570Y-112249056D01*
X114713666Y-112175621D01*
X114549859Y-112011814D01*
X114421163Y-111819206D01*
X114421162Y-111819205D01*
X114332513Y-111605187D01*
X114287320Y-111377986D01*
X114287320Y-111146334D01*
X114332513Y-110919133D01*
X114421162Y-110705115D01*
X114534481Y-110535521D01*
X114549859Y-110512506D01*
X114713666Y-110348699D01*
X114906274Y-110220003D01*
X114906275Y-110220002D01*
X115120293Y-110131353D01*
X115271760Y-110101224D01*
X115347493Y-110086160D01*
X115579147Y-110086160D01*
X115654880Y-110101224D01*
G37*
G36*
X120734880Y-110101224D02*
G01*
X120886347Y-110131353D01*
X121100365Y-110220002D01*
X121100366Y-110220003D01*
X121292974Y-110348699D01*
X121456781Y-110512506D01*
X121472159Y-110535521D01*
X121585478Y-110705115D01*
X121674127Y-110919133D01*
X121719320Y-111146334D01*
X121719320Y-111377986D01*
X121674127Y-111605187D01*
X121585478Y-111819205D01*
X121585477Y-111819206D01*
X121456781Y-112011814D01*
X121292974Y-112175621D01*
X121183070Y-112249056D01*
X121100365Y-112304318D01*
X120886347Y-112392967D01*
X120734880Y-112423096D01*
X120659147Y-112438160D01*
X120427493Y-112438160D01*
X120351760Y-112423096D01*
X120200293Y-112392967D01*
X119986275Y-112304318D01*
X119903570Y-112249056D01*
X119793666Y-112175621D01*
X119629859Y-112011814D01*
X119501163Y-111819206D01*
X119501162Y-111819205D01*
X119412513Y-111605187D01*
X119367320Y-111377986D01*
X119367320Y-111146334D01*
X119412513Y-110919133D01*
X119501162Y-110705115D01*
X119614481Y-110535521D01*
X119629859Y-110512506D01*
X119793666Y-110348699D01*
X119986274Y-110220003D01*
X119986275Y-110220002D01*
X120200293Y-110131353D01*
X120351760Y-110101224D01*
X120427493Y-110086160D01*
X120659147Y-110086160D01*
X120734880Y-110101224D01*
G37*
G36*
X108299040Y-109898024D02*
G01*
X108450507Y-109928153D01*
X108664525Y-110016802D01*
X108664526Y-110016803D01*
X108857134Y-110145499D01*
X109020941Y-110309306D01*
X109106738Y-110437711D01*
X109149638Y-110501915D01*
X109238287Y-110715933D01*
X109283480Y-110943134D01*
X109283480Y-111174786D01*
X109238287Y-111401987D01*
X109149638Y-111616005D01*
X109149637Y-111616006D01*
X109020941Y-111808614D01*
X108857134Y-111972421D01*
X108728729Y-112058218D01*
X108664525Y-112101118D01*
X108450507Y-112189767D01*
X108299040Y-112219896D01*
X108223307Y-112234960D01*
X107991653Y-112234960D01*
X107915920Y-112219896D01*
X107764453Y-112189767D01*
X107550435Y-112101118D01*
X107486231Y-112058218D01*
X107357826Y-111972421D01*
X107194019Y-111808614D01*
X107065323Y-111616006D01*
X107065322Y-111616005D01*
X106976673Y-111401987D01*
X106931480Y-111174786D01*
X106931480Y-110943134D01*
X106976673Y-110715933D01*
X107065322Y-110501915D01*
X107108222Y-110437711D01*
X107194019Y-110309306D01*
X107357826Y-110145499D01*
X107550434Y-110016803D01*
X107550435Y-110016802D01*
X107764453Y-109928153D01*
X107915920Y-109898024D01*
X107991653Y-109882960D01*
X108223307Y-109882960D01*
X108299040Y-109898024D01*
G37*
G36*
X103219040Y-109898024D02*
G01*
X103370507Y-109928153D01*
X103584525Y-110016802D01*
X103584526Y-110016803D01*
X103777134Y-110145499D01*
X103940941Y-110309306D01*
X104026738Y-110437711D01*
X104069638Y-110501915D01*
X104158287Y-110715933D01*
X104203480Y-110943134D01*
X104203480Y-111174786D01*
X104158287Y-111401987D01*
X104069638Y-111616005D01*
X104069637Y-111616006D01*
X103940941Y-111808614D01*
X103777134Y-111972421D01*
X103648729Y-112058218D01*
X103584525Y-112101118D01*
X103370507Y-112189767D01*
X103219040Y-112219896D01*
X103143307Y-112234960D01*
X102911653Y-112234960D01*
X102835920Y-112219896D01*
X102684453Y-112189767D01*
X102470435Y-112101118D01*
X102406231Y-112058218D01*
X102277826Y-111972421D01*
X102114019Y-111808614D01*
X101985323Y-111616006D01*
X101985322Y-111616005D01*
X101896673Y-111401987D01*
X101851480Y-111174786D01*
X101851480Y-110943134D01*
X101896673Y-110715933D01*
X101985322Y-110501915D01*
X102028222Y-110437711D01*
X102114019Y-110309306D01*
X102277826Y-110145499D01*
X102470434Y-110016803D01*
X102470435Y-110016802D01*
X102684453Y-109928153D01*
X102835920Y-109898024D01*
X102911653Y-109882960D01*
X103143307Y-109882960D01*
X103219040Y-109898024D01*
G37*
G36*
X137478656Y-109150980D02*
G01*
X137576940Y-109160660D01*
X137766101Y-109218041D01*
X137940432Y-109311223D01*
X138093235Y-109436625D01*
X138218637Y-109589428D01*
X138311819Y-109763759D01*
X138369200Y-109952920D01*
X138388575Y-110149640D01*
X138369200Y-110346360D01*
X138311819Y-110535521D01*
X138218637Y-110709852D01*
X138093235Y-110862655D01*
X137940432Y-110988057D01*
X137766101Y-111081239D01*
X137576940Y-111138620D01*
X137498617Y-111146334D01*
X137429515Y-111153140D01*
X137235925Y-111153140D01*
X137166823Y-111146334D01*
X137088500Y-111138620D01*
X136899339Y-111081239D01*
X136725008Y-110988057D01*
X136572205Y-110862655D01*
X136446803Y-110709852D01*
X136353621Y-110535521D01*
X136296240Y-110346360D01*
X136276865Y-110149640D01*
X136296240Y-109952920D01*
X136353621Y-109763759D01*
X136446803Y-109589428D01*
X136572205Y-109436625D01*
X136725008Y-109311223D01*
X136899339Y-109218041D01*
X137088500Y-109160660D01*
X137186784Y-109150980D01*
X137235925Y-109146140D01*
X137429515Y-109146140D01*
X137478656Y-109150980D01*
G37*
G36*
X138383720Y-108613140D02*
G01*
X136281720Y-108613140D01*
X136281720Y-106606140D01*
X138383720Y-106606140D01*
X138383720Y-108613140D01*
G37*
G36*
X133475322Y-105355861D02*
G01*
X133510241Y-105366454D01*
X133542423Y-105383656D01*
X133570633Y-105406807D01*
X133593784Y-105435017D01*
X133610986Y-105467199D01*
X133621579Y-105502118D01*
X133625760Y-105544575D01*
X133625760Y-106685785D01*
X133621579Y-106728242D01*
X133610986Y-106763161D01*
X133593784Y-106795343D01*
X133570633Y-106823553D01*
X133542423Y-106846704D01*
X133510241Y-106863906D01*
X133475322Y-106874499D01*
X133432865Y-106878680D01*
X131966655Y-106878680D01*
X131924198Y-106874499D01*
X131889279Y-106863906D01*
X131857097Y-106846704D01*
X131828887Y-106823553D01*
X131805736Y-106795343D01*
X131788534Y-106763161D01*
X131777941Y-106728242D01*
X131773760Y-106685785D01*
X131773760Y-105544575D01*
X131777941Y-105502118D01*
X131788534Y-105467199D01*
X131805736Y-105435017D01*
X131828887Y-105406807D01*
X131857097Y-105383656D01*
X131889279Y-105366454D01*
X131924198Y-105355861D01*
X131966655Y-105351680D01*
X133432865Y-105351680D01*
X133475322Y-105355861D01*
G37*
G36*
X57546616Y-103485818D02*
G01*
X57652939Y-103506967D01*
X57953402Y-103631423D01*
X58223811Y-103812105D01*
X58453775Y-104042069D01*
X58634457Y-104312478D01*
X58634458Y-104312480D01*
X58758913Y-104612942D01*
X58822360Y-104931909D01*
X58822360Y-105257131D01*
X58797192Y-105383656D01*
X58758913Y-105576099D01*
X58634457Y-105876562D01*
X58453775Y-106146971D01*
X58223811Y-106376935D01*
X57953402Y-106557617D01*
X57652939Y-106682073D01*
X57634277Y-106685785D01*
X57333971Y-106745520D01*
X57008749Y-106745520D01*
X56708443Y-106685785D01*
X56689781Y-106682073D01*
X56389318Y-106557617D01*
X56118909Y-106376935D01*
X55888945Y-106146971D01*
X55708263Y-105876562D01*
X55583807Y-105576099D01*
X55545528Y-105383656D01*
X55520360Y-105257131D01*
X55520360Y-104931909D01*
X55583807Y-104612942D01*
X55708262Y-104312480D01*
X55708263Y-104312478D01*
X55888945Y-104042069D01*
X56118909Y-103812105D01*
X56389318Y-103631423D01*
X56689781Y-103506967D01*
X56796104Y-103485818D01*
X57008749Y-103443520D01*
X57333971Y-103443520D01*
X57546616Y-103485818D01*
G37*
G36*
X125246616Y-103485818D02*
G01*
X125352939Y-103506967D01*
X125653402Y-103631423D01*
X125923811Y-103812105D01*
X126153775Y-104042069D01*
X126334457Y-104312478D01*
X126334458Y-104312480D01*
X126458913Y-104612942D01*
X126522360Y-104931909D01*
X126522360Y-105257131D01*
X126497192Y-105383656D01*
X126458913Y-105576099D01*
X126334457Y-105876562D01*
X126153775Y-106146971D01*
X125923811Y-106376935D01*
X125653402Y-106557617D01*
X125352939Y-106682073D01*
X125334277Y-106685785D01*
X125033971Y-106745520D01*
X124708749Y-106745520D01*
X124408443Y-106685785D01*
X124389781Y-106682073D01*
X124089318Y-106557617D01*
X123818909Y-106376935D01*
X123588945Y-106146971D01*
X123408263Y-105876562D01*
X123283807Y-105576099D01*
X123245528Y-105383656D01*
X123220360Y-105257131D01*
X123220360Y-104931909D01*
X123283807Y-104612942D01*
X123408262Y-104312480D01*
X123408263Y-104312478D01*
X123588945Y-104042069D01*
X123818909Y-103812105D01*
X124089318Y-103631423D01*
X124389781Y-103506967D01*
X124496104Y-103485818D01*
X124708749Y-103443520D01*
X125033971Y-103443520D01*
X125246616Y-103485818D01*
G37*
G36*
X53062440Y-104136760D02*
G01*
X51260440Y-104136760D01*
X51260440Y-102334760D01*
X53062440Y-102334760D01*
X53062440Y-104136760D01*
G37*
G36*
X133475322Y-102380861D02*
G01*
X133510241Y-102391454D01*
X133542423Y-102408656D01*
X133570633Y-102431807D01*
X133593784Y-102460017D01*
X133610986Y-102492199D01*
X133621579Y-102527118D01*
X133625760Y-102569575D01*
X133625760Y-103710785D01*
X133621579Y-103753242D01*
X133610986Y-103788161D01*
X133593784Y-103820343D01*
X133570633Y-103848553D01*
X133542423Y-103871704D01*
X133510241Y-103888906D01*
X133475322Y-103899499D01*
X133432865Y-103903680D01*
X131966655Y-103903680D01*
X131924198Y-103899499D01*
X131889279Y-103888906D01*
X131857097Y-103871704D01*
X131828887Y-103848553D01*
X131805736Y-103820343D01*
X131788534Y-103788161D01*
X131777941Y-103753242D01*
X131773760Y-103710785D01*
X131773760Y-102569575D01*
X131777941Y-102527118D01*
X131788534Y-102492199D01*
X131805736Y-102460017D01*
X131828887Y-102431807D01*
X131857097Y-102408656D01*
X131889279Y-102391454D01*
X131924198Y-102380861D01*
X131966655Y-102376680D01*
X133432865Y-102376680D01*
X133475322Y-102380861D01*
G37*
G36*
X52274952Y-99799687D02*
G01*
X52424252Y-99829384D01*
X52588224Y-99897304D01*
X52735794Y-99995907D01*
X52861293Y-100121406D01*
X52959896Y-100268976D01*
X53027816Y-100432948D01*
X53062440Y-100607019D01*
X53062440Y-100784501D01*
X53027816Y-100958572D01*
X52959896Y-101122544D01*
X52861293Y-101270114D01*
X52735794Y-101395613D01*
X52588224Y-101494216D01*
X52424252Y-101562136D01*
X52274952Y-101591833D01*
X52250182Y-101596760D01*
X52072698Y-101596760D01*
X52047928Y-101591833D01*
X51898628Y-101562136D01*
X51734656Y-101494216D01*
X51587086Y-101395613D01*
X51461587Y-101270114D01*
X51362984Y-101122544D01*
X51295064Y-100958572D01*
X51260440Y-100784501D01*
X51260440Y-100607019D01*
X51295064Y-100432948D01*
X51362984Y-100268976D01*
X51461587Y-100121406D01*
X51587086Y-99995907D01*
X51734656Y-99897304D01*
X51898628Y-99829384D01*
X52047928Y-99799687D01*
X52072698Y-99794760D01*
X52250182Y-99794760D01*
X52274952Y-99799687D01*
G37*
G36*
X142017224Y-95443602D02*
G01*
X142436059Y-95617089D01*
X142436061Y-95617090D01*
X142566882Y-95704502D01*
X142813002Y-95868954D01*
X143133566Y-96189518D01*
X143385431Y-96566461D01*
X143558918Y-96985296D01*
X143647360Y-97429927D01*
X143647360Y-97883273D01*
X143558918Y-98327904D01*
X143396097Y-98720988D01*
X143385430Y-98746741D01*
X143312684Y-98855613D01*
X143167737Y-99072542D01*
X143133565Y-99123683D01*
X142813003Y-99444245D01*
X142436061Y-99696110D01*
X142436060Y-99696111D01*
X142436059Y-99696111D01*
X142017224Y-99869598D01*
X141572593Y-99958040D01*
X141119247Y-99958040D01*
X140674616Y-99869598D01*
X140255781Y-99696111D01*
X140255780Y-99696111D01*
X140255779Y-99696110D01*
X139878837Y-99444245D01*
X139558275Y-99123683D01*
X139524104Y-99072542D01*
X139379156Y-98855613D01*
X139306410Y-98746741D01*
X139295743Y-98720988D01*
X139132922Y-98327904D01*
X139044480Y-97883273D01*
X139044480Y-97429927D01*
X139132922Y-96985296D01*
X139306409Y-96566461D01*
X139558274Y-96189518D01*
X139878838Y-95868954D01*
X140124958Y-95704502D01*
X140255779Y-95617090D01*
X140255781Y-95617089D01*
X140674616Y-95443602D01*
X141119247Y-95355160D01*
X141572593Y-95355160D01*
X142017224Y-95443602D01*
G37*
G36*
X69257392Y-98087727D02*
G01*
X69406692Y-98117424D01*
X69570664Y-98185344D01*
X69718234Y-98283947D01*
X69843733Y-98409446D01*
X69942336Y-98557016D01*
X70010256Y-98720988D01*
X70044880Y-98895059D01*
X70044880Y-99072541D01*
X70010256Y-99246612D01*
X69942336Y-99410584D01*
X69843733Y-99558154D01*
X69718234Y-99683653D01*
X69570664Y-99782256D01*
X69406692Y-99850176D01*
X69257392Y-99879873D01*
X69232622Y-99884800D01*
X69055138Y-99884800D01*
X69030368Y-99879873D01*
X68881068Y-99850176D01*
X68717096Y-99782256D01*
X68569526Y-99683653D01*
X68444027Y-99558154D01*
X68345424Y-99410584D01*
X68277504Y-99246612D01*
X68242880Y-99072541D01*
X68242880Y-98895059D01*
X68277504Y-98720988D01*
X68345424Y-98557016D01*
X68444027Y-98409446D01*
X68569526Y-98283947D01*
X68717096Y-98185344D01*
X68881068Y-98117424D01*
X69030368Y-98087727D01*
X69055138Y-98082800D01*
X69232622Y-98082800D01*
X69257392Y-98087727D01*
G37*
G36*
X67504880Y-99884800D02*
G01*
X65702880Y-99884800D01*
X65702880Y-98082800D01*
X67504880Y-98082800D01*
X67504880Y-99884800D01*
G37*
G36*
X102277392Y-98087727D02*
G01*
X102426692Y-98117424D01*
X102590664Y-98185344D01*
X102738234Y-98283947D01*
X102863733Y-98409446D01*
X102962336Y-98557016D01*
X103030256Y-98720988D01*
X103064880Y-98895059D01*
X103064880Y-99072541D01*
X103030256Y-99246612D01*
X102962336Y-99410584D01*
X102863733Y-99558154D01*
X102738234Y-99683653D01*
X102590664Y-99782256D01*
X102426692Y-99850176D01*
X102277392Y-99879873D01*
X102252622Y-99884800D01*
X102075138Y-99884800D01*
X102050368Y-99879873D01*
X101901068Y-99850176D01*
X101737096Y-99782256D01*
X101589526Y-99683653D01*
X101464027Y-99558154D01*
X101365424Y-99410584D01*
X101297504Y-99246612D01*
X101262880Y-99072541D01*
X101262880Y-98895059D01*
X101297504Y-98720988D01*
X101365424Y-98557016D01*
X101464027Y-98409446D01*
X101589526Y-98283947D01*
X101737096Y-98185344D01*
X101901068Y-98117424D01*
X102050368Y-98087727D01*
X102075138Y-98082800D01*
X102252622Y-98082800D01*
X102277392Y-98087727D01*
G37*
G36*
X104817392Y-98087727D02*
G01*
X104966692Y-98117424D01*
X105130664Y-98185344D01*
X105278234Y-98283947D01*
X105403733Y-98409446D01*
X105502336Y-98557016D01*
X105570256Y-98720988D01*
X105604880Y-98895059D01*
X105604880Y-99072541D01*
X105570256Y-99246612D01*
X105502336Y-99410584D01*
X105403733Y-99558154D01*
X105278234Y-99683653D01*
X105130664Y-99782256D01*
X104966692Y-99850176D01*
X104817392Y-99879873D01*
X104792622Y-99884800D01*
X104615138Y-99884800D01*
X104590368Y-99879873D01*
X104441068Y-99850176D01*
X104277096Y-99782256D01*
X104129526Y-99683653D01*
X104004027Y-99558154D01*
X103905424Y-99410584D01*
X103837504Y-99246612D01*
X103802880Y-99072541D01*
X103802880Y-98895059D01*
X103837504Y-98720988D01*
X103905424Y-98557016D01*
X104004027Y-98409446D01*
X104129526Y-98283947D01*
X104277096Y-98185344D01*
X104441068Y-98117424D01*
X104590368Y-98087727D01*
X104615138Y-98082800D01*
X104792622Y-98082800D01*
X104817392Y-98087727D01*
G37*
G36*
X107357392Y-98087727D02*
G01*
X107506692Y-98117424D01*
X107670664Y-98185344D01*
X107818234Y-98283947D01*
X107943733Y-98409446D01*
X108042336Y-98557016D01*
X108110256Y-98720988D01*
X108144880Y-98895059D01*
X108144880Y-99072541D01*
X108110256Y-99246612D01*
X108042336Y-99410584D01*
X107943733Y-99558154D01*
X107818234Y-99683653D01*
X107670664Y-99782256D01*
X107506692Y-99850176D01*
X107357392Y-99879873D01*
X107332622Y-99884800D01*
X107155138Y-99884800D01*
X107130368Y-99879873D01*
X106981068Y-99850176D01*
X106817096Y-99782256D01*
X106669526Y-99683653D01*
X106544027Y-99558154D01*
X106445424Y-99410584D01*
X106377504Y-99246612D01*
X106342880Y-99072541D01*
X106342880Y-98895059D01*
X106377504Y-98720988D01*
X106445424Y-98557016D01*
X106544027Y-98409446D01*
X106669526Y-98283947D01*
X106817096Y-98185344D01*
X106981068Y-98117424D01*
X107130368Y-98087727D01*
X107155138Y-98082800D01*
X107332622Y-98082800D01*
X107357392Y-98087727D01*
G37*
G36*
X109897392Y-98087727D02*
G01*
X110046692Y-98117424D01*
X110210664Y-98185344D01*
X110358234Y-98283947D01*
X110483733Y-98409446D01*
X110582336Y-98557016D01*
X110650256Y-98720988D01*
X110684880Y-98895059D01*
X110684880Y-99072541D01*
X110650256Y-99246612D01*
X110582336Y-99410584D01*
X110483733Y-99558154D01*
X110358234Y-99683653D01*
X110210664Y-99782256D01*
X110046692Y-99850176D01*
X109897392Y-99879873D01*
X109872622Y-99884800D01*
X109695138Y-99884800D01*
X109670368Y-99879873D01*
X109521068Y-99850176D01*
X109357096Y-99782256D01*
X109209526Y-99683653D01*
X109084027Y-99558154D01*
X108985424Y-99410584D01*
X108917504Y-99246612D01*
X108882880Y-99072541D01*
X108882880Y-98895059D01*
X108917504Y-98720988D01*
X108985424Y-98557016D01*
X109084027Y-98409446D01*
X109209526Y-98283947D01*
X109357096Y-98185344D01*
X109521068Y-98117424D01*
X109670368Y-98087727D01*
X109695138Y-98082800D01*
X109872622Y-98082800D01*
X109897392Y-98087727D01*
G37*
G36*
X89577392Y-98087727D02*
G01*
X89726692Y-98117424D01*
X89890664Y-98185344D01*
X90038234Y-98283947D01*
X90163733Y-98409446D01*
X90262336Y-98557016D01*
X90330256Y-98720988D01*
X90364880Y-98895059D01*
X90364880Y-99072541D01*
X90330256Y-99246612D01*
X90262336Y-99410584D01*
X90163733Y-99558154D01*
X90038234Y-99683653D01*
X89890664Y-99782256D01*
X89726692Y-99850176D01*
X89577392Y-99879873D01*
X89552622Y-99884800D01*
X89375138Y-99884800D01*
X89350368Y-99879873D01*
X89201068Y-99850176D01*
X89037096Y-99782256D01*
X88889526Y-99683653D01*
X88764027Y-99558154D01*
X88665424Y-99410584D01*
X88597504Y-99246612D01*
X88562880Y-99072541D01*
X88562880Y-98895059D01*
X88597504Y-98720988D01*
X88665424Y-98557016D01*
X88764027Y-98409446D01*
X88889526Y-98283947D01*
X89037096Y-98185344D01*
X89201068Y-98117424D01*
X89350368Y-98087727D01*
X89375138Y-98082800D01*
X89552622Y-98082800D01*
X89577392Y-98087727D01*
G37*
G36*
X112437392Y-98087727D02*
G01*
X112586692Y-98117424D01*
X112750664Y-98185344D01*
X112898234Y-98283947D01*
X113023733Y-98409446D01*
X113122336Y-98557016D01*
X113190256Y-98720988D01*
X113224880Y-98895059D01*
X113224880Y-99072541D01*
X113190256Y-99246612D01*
X113122336Y-99410584D01*
X113023733Y-99558154D01*
X112898234Y-99683653D01*
X112750664Y-99782256D01*
X112586692Y-99850176D01*
X112437392Y-99879873D01*
X112412622Y-99884800D01*
X112235138Y-99884800D01*
X112210368Y-99879873D01*
X112061068Y-99850176D01*
X111897096Y-99782256D01*
X111749526Y-99683653D01*
X111624027Y-99558154D01*
X111525424Y-99410584D01*
X111457504Y-99246612D01*
X111422880Y-99072541D01*
X111422880Y-98895059D01*
X111457504Y-98720988D01*
X111525424Y-98557016D01*
X111624027Y-98409446D01*
X111749526Y-98283947D01*
X111897096Y-98185344D01*
X112061068Y-98117424D01*
X112210368Y-98087727D01*
X112235138Y-98082800D01*
X112412622Y-98082800D01*
X112437392Y-98087727D01*
G37*
G36*
X99737392Y-98087727D02*
G01*
X99886692Y-98117424D01*
X100050664Y-98185344D01*
X100198234Y-98283947D01*
X100323733Y-98409446D01*
X100422336Y-98557016D01*
X100490256Y-98720988D01*
X100524880Y-98895059D01*
X100524880Y-99072541D01*
X100490256Y-99246612D01*
X100422336Y-99410584D01*
X100323733Y-99558154D01*
X100198234Y-99683653D01*
X100050664Y-99782256D01*
X99886692Y-99850176D01*
X99737392Y-99879873D01*
X99712622Y-99884800D01*
X99535138Y-99884800D01*
X99510368Y-99879873D01*
X99361068Y-99850176D01*
X99197096Y-99782256D01*
X99049526Y-99683653D01*
X98924027Y-99558154D01*
X98825424Y-99410584D01*
X98757504Y-99246612D01*
X98722880Y-99072541D01*
X98722880Y-98895059D01*
X98757504Y-98720988D01*
X98825424Y-98557016D01*
X98924027Y-98409446D01*
X99049526Y-98283947D01*
X99197096Y-98185344D01*
X99361068Y-98117424D01*
X99510368Y-98087727D01*
X99535138Y-98082800D01*
X99712622Y-98082800D01*
X99737392Y-98087727D01*
G37*
G36*
X97197392Y-98087727D02*
G01*
X97346692Y-98117424D01*
X97510664Y-98185344D01*
X97658234Y-98283947D01*
X97783733Y-98409446D01*
X97882336Y-98557016D01*
X97950256Y-98720988D01*
X97984880Y-98895059D01*
X97984880Y-99072541D01*
X97950256Y-99246612D01*
X97882336Y-99410584D01*
X97783733Y-99558154D01*
X97658234Y-99683653D01*
X97510664Y-99782256D01*
X97346692Y-99850176D01*
X97197392Y-99879873D01*
X97172622Y-99884800D01*
X96995138Y-99884800D01*
X96970368Y-99879873D01*
X96821068Y-99850176D01*
X96657096Y-99782256D01*
X96509526Y-99683653D01*
X96384027Y-99558154D01*
X96285424Y-99410584D01*
X96217504Y-99246612D01*
X96182880Y-99072541D01*
X96182880Y-98895059D01*
X96217504Y-98720988D01*
X96285424Y-98557016D01*
X96384027Y-98409446D01*
X96509526Y-98283947D01*
X96657096Y-98185344D01*
X96821068Y-98117424D01*
X96970368Y-98087727D01*
X96995138Y-98082800D01*
X97172622Y-98082800D01*
X97197392Y-98087727D01*
G37*
G36*
X74337392Y-98087727D02*
G01*
X74486692Y-98117424D01*
X74650664Y-98185344D01*
X74798234Y-98283947D01*
X74923733Y-98409446D01*
X75022336Y-98557016D01*
X75090256Y-98720988D01*
X75124880Y-98895059D01*
X75124880Y-99072541D01*
X75090256Y-99246612D01*
X75022336Y-99410584D01*
X74923733Y-99558154D01*
X74798234Y-99683653D01*
X74650664Y-99782256D01*
X74486692Y-99850176D01*
X74337392Y-99879873D01*
X74312622Y-99884800D01*
X74135138Y-99884800D01*
X74110368Y-99879873D01*
X73961068Y-99850176D01*
X73797096Y-99782256D01*
X73649526Y-99683653D01*
X73524027Y-99558154D01*
X73425424Y-99410584D01*
X73357504Y-99246612D01*
X73322880Y-99072541D01*
X73322880Y-98895059D01*
X73357504Y-98720988D01*
X73425424Y-98557016D01*
X73524027Y-98409446D01*
X73649526Y-98283947D01*
X73797096Y-98185344D01*
X73961068Y-98117424D01*
X74110368Y-98087727D01*
X74135138Y-98082800D01*
X74312622Y-98082800D01*
X74337392Y-98087727D01*
G37*
G36*
X71797392Y-98087727D02*
G01*
X71946692Y-98117424D01*
X72110664Y-98185344D01*
X72258234Y-98283947D01*
X72383733Y-98409446D01*
X72482336Y-98557016D01*
X72550256Y-98720988D01*
X72584880Y-98895059D01*
X72584880Y-99072541D01*
X72550256Y-99246612D01*
X72482336Y-99410584D01*
X72383733Y-99558154D01*
X72258234Y-99683653D01*
X72110664Y-99782256D01*
X71946692Y-99850176D01*
X71797392Y-99879873D01*
X71772622Y-99884800D01*
X71595138Y-99884800D01*
X71570368Y-99879873D01*
X71421068Y-99850176D01*
X71257096Y-99782256D01*
X71109526Y-99683653D01*
X70984027Y-99558154D01*
X70885424Y-99410584D01*
X70817504Y-99246612D01*
X70782880Y-99072541D01*
X70782880Y-98895059D01*
X70817504Y-98720988D01*
X70885424Y-98557016D01*
X70984027Y-98409446D01*
X71109526Y-98283947D01*
X71257096Y-98185344D01*
X71421068Y-98117424D01*
X71570368Y-98087727D01*
X71595138Y-98082800D01*
X71772622Y-98082800D01*
X71797392Y-98087727D01*
G37*
G36*
X94657392Y-98087727D02*
G01*
X94806692Y-98117424D01*
X94970664Y-98185344D01*
X95118234Y-98283947D01*
X95243733Y-98409446D01*
X95342336Y-98557016D01*
X95410256Y-98720988D01*
X95444880Y-98895059D01*
X95444880Y-99072541D01*
X95410256Y-99246612D01*
X95342336Y-99410584D01*
X95243733Y-99558154D01*
X95118234Y-99683653D01*
X94970664Y-99782256D01*
X94806692Y-99850176D01*
X94657392Y-99879873D01*
X94632622Y-99884800D01*
X94455138Y-99884800D01*
X94430368Y-99879873D01*
X94281068Y-99850176D01*
X94117096Y-99782256D01*
X93969526Y-99683653D01*
X93844027Y-99558154D01*
X93745424Y-99410584D01*
X93677504Y-99246612D01*
X93642880Y-99072541D01*
X93642880Y-98895059D01*
X93677504Y-98720988D01*
X93745424Y-98557016D01*
X93844027Y-98409446D01*
X93969526Y-98283947D01*
X94117096Y-98185344D01*
X94281068Y-98117424D01*
X94430368Y-98087727D01*
X94455138Y-98082800D01*
X94632622Y-98082800D01*
X94657392Y-98087727D01*
G37*
G36*
X84497392Y-98087727D02*
G01*
X84646692Y-98117424D01*
X84810664Y-98185344D01*
X84958234Y-98283947D01*
X85083733Y-98409446D01*
X85182336Y-98557016D01*
X85250256Y-98720988D01*
X85284880Y-98895059D01*
X85284880Y-99072541D01*
X85250256Y-99246612D01*
X85182336Y-99410584D01*
X85083733Y-99558154D01*
X84958234Y-99683653D01*
X84810664Y-99782256D01*
X84646692Y-99850176D01*
X84497392Y-99879873D01*
X84472622Y-99884800D01*
X84295138Y-99884800D01*
X84270368Y-99879873D01*
X84121068Y-99850176D01*
X83957096Y-99782256D01*
X83809526Y-99683653D01*
X83684027Y-99558154D01*
X83585424Y-99410584D01*
X83517504Y-99246612D01*
X83482880Y-99072541D01*
X83482880Y-98895059D01*
X83517504Y-98720988D01*
X83585424Y-98557016D01*
X83684027Y-98409446D01*
X83809526Y-98283947D01*
X83957096Y-98185344D01*
X84121068Y-98117424D01*
X84270368Y-98087727D01*
X84295138Y-98082800D01*
X84472622Y-98082800D01*
X84497392Y-98087727D01*
G37*
G36*
X92117392Y-98087727D02*
G01*
X92266692Y-98117424D01*
X92430664Y-98185344D01*
X92578234Y-98283947D01*
X92703733Y-98409446D01*
X92802336Y-98557016D01*
X92870256Y-98720988D01*
X92904880Y-98895059D01*
X92904880Y-99072541D01*
X92870256Y-99246612D01*
X92802336Y-99410584D01*
X92703733Y-99558154D01*
X92578234Y-99683653D01*
X92430664Y-99782256D01*
X92266692Y-99850176D01*
X92117392Y-99879873D01*
X92092622Y-99884800D01*
X91915138Y-99884800D01*
X91890368Y-99879873D01*
X91741068Y-99850176D01*
X91577096Y-99782256D01*
X91429526Y-99683653D01*
X91304027Y-99558154D01*
X91205424Y-99410584D01*
X91137504Y-99246612D01*
X91102880Y-99072541D01*
X91102880Y-98895059D01*
X91137504Y-98720988D01*
X91205424Y-98557016D01*
X91304027Y-98409446D01*
X91429526Y-98283947D01*
X91577096Y-98185344D01*
X91741068Y-98117424D01*
X91890368Y-98087727D01*
X91915138Y-98082800D01*
X92092622Y-98082800D01*
X92117392Y-98087727D01*
G37*
G36*
X81957392Y-98087727D02*
G01*
X82106692Y-98117424D01*
X82270664Y-98185344D01*
X82418234Y-98283947D01*
X82543733Y-98409446D01*
X82642336Y-98557016D01*
X82710256Y-98720988D01*
X82744880Y-98895059D01*
X82744880Y-99072541D01*
X82710256Y-99246612D01*
X82642336Y-99410584D01*
X82543733Y-99558154D01*
X82418234Y-99683653D01*
X82270664Y-99782256D01*
X82106692Y-99850176D01*
X81957392Y-99879873D01*
X81932622Y-99884800D01*
X81755138Y-99884800D01*
X81730368Y-99879873D01*
X81581068Y-99850176D01*
X81417096Y-99782256D01*
X81269526Y-99683653D01*
X81144027Y-99558154D01*
X81045424Y-99410584D01*
X80977504Y-99246612D01*
X80942880Y-99072541D01*
X80942880Y-98895059D01*
X80977504Y-98720988D01*
X81045424Y-98557016D01*
X81144027Y-98409446D01*
X81269526Y-98283947D01*
X81417096Y-98185344D01*
X81581068Y-98117424D01*
X81730368Y-98087727D01*
X81755138Y-98082800D01*
X81932622Y-98082800D01*
X81957392Y-98087727D01*
G37*
G36*
X79417392Y-98087727D02*
G01*
X79566692Y-98117424D01*
X79730664Y-98185344D01*
X79878234Y-98283947D01*
X80003733Y-98409446D01*
X80102336Y-98557016D01*
X80170256Y-98720988D01*
X80204880Y-98895059D01*
X80204880Y-99072541D01*
X80170256Y-99246612D01*
X80102336Y-99410584D01*
X80003733Y-99558154D01*
X79878234Y-99683653D01*
X79730664Y-99782256D01*
X79566692Y-99850176D01*
X79417392Y-99879873D01*
X79392622Y-99884800D01*
X79215138Y-99884800D01*
X79190368Y-99879873D01*
X79041068Y-99850176D01*
X78877096Y-99782256D01*
X78729526Y-99683653D01*
X78604027Y-99558154D01*
X78505424Y-99410584D01*
X78437504Y-99246612D01*
X78402880Y-99072541D01*
X78402880Y-98895059D01*
X78437504Y-98720988D01*
X78505424Y-98557016D01*
X78604027Y-98409446D01*
X78729526Y-98283947D01*
X78877096Y-98185344D01*
X79041068Y-98117424D01*
X79190368Y-98087727D01*
X79215138Y-98082800D01*
X79392622Y-98082800D01*
X79417392Y-98087727D01*
G37*
G36*
X76877392Y-98087727D02*
G01*
X77026692Y-98117424D01*
X77190664Y-98185344D01*
X77338234Y-98283947D01*
X77463733Y-98409446D01*
X77562336Y-98557016D01*
X77630256Y-98720988D01*
X77664880Y-98895059D01*
X77664880Y-99072541D01*
X77630256Y-99246612D01*
X77562336Y-99410584D01*
X77463733Y-99558154D01*
X77338234Y-99683653D01*
X77190664Y-99782256D01*
X77026692Y-99850176D01*
X76877392Y-99879873D01*
X76852622Y-99884800D01*
X76675138Y-99884800D01*
X76650368Y-99879873D01*
X76501068Y-99850176D01*
X76337096Y-99782256D01*
X76189526Y-99683653D01*
X76064027Y-99558154D01*
X75965424Y-99410584D01*
X75897504Y-99246612D01*
X75862880Y-99072541D01*
X75862880Y-98895059D01*
X75897504Y-98720988D01*
X75965424Y-98557016D01*
X76064027Y-98409446D01*
X76189526Y-98283947D01*
X76337096Y-98185344D01*
X76501068Y-98117424D01*
X76650368Y-98087727D01*
X76675138Y-98082800D01*
X76852622Y-98082800D01*
X76877392Y-98087727D01*
G37*
G36*
X87037392Y-98087727D02*
G01*
X87186692Y-98117424D01*
X87350664Y-98185344D01*
X87498234Y-98283947D01*
X87623733Y-98409446D01*
X87722336Y-98557016D01*
X87790256Y-98720988D01*
X87824880Y-98895059D01*
X87824880Y-99072541D01*
X87790256Y-99246612D01*
X87722336Y-99410584D01*
X87623733Y-99558154D01*
X87498234Y-99683653D01*
X87350664Y-99782256D01*
X87186692Y-99850176D01*
X87037392Y-99879873D01*
X87012622Y-99884800D01*
X86835138Y-99884800D01*
X86810368Y-99879873D01*
X86661068Y-99850176D01*
X86497096Y-99782256D01*
X86349526Y-99683653D01*
X86224027Y-99558154D01*
X86125424Y-99410584D01*
X86057504Y-99246612D01*
X86022880Y-99072541D01*
X86022880Y-98895059D01*
X86057504Y-98720988D01*
X86125424Y-98557016D01*
X86224027Y-98409446D01*
X86349526Y-98283947D01*
X86497096Y-98185344D01*
X86661068Y-98117424D01*
X86810368Y-98087727D01*
X86835138Y-98082800D01*
X87012622Y-98082800D01*
X87037392Y-98087727D01*
G37*
G36*
X52274952Y-97259687D02*
G01*
X52424252Y-97289384D01*
X52588224Y-97357304D01*
X52735794Y-97455907D01*
X52861293Y-97581406D01*
X52959896Y-97728976D01*
X53027816Y-97892948D01*
X53062440Y-98067019D01*
X53062440Y-98244501D01*
X53027816Y-98418572D01*
X52959896Y-98582544D01*
X52861293Y-98730114D01*
X52735794Y-98855613D01*
X52588224Y-98954216D01*
X52424252Y-99022136D01*
X52274952Y-99051833D01*
X52250182Y-99056760D01*
X52072698Y-99056760D01*
X52047928Y-99051833D01*
X51898628Y-99022136D01*
X51734656Y-98954216D01*
X51587086Y-98855613D01*
X51461587Y-98730114D01*
X51362984Y-98582544D01*
X51295064Y-98418572D01*
X51260440Y-98244501D01*
X51260440Y-98067019D01*
X51295064Y-97892948D01*
X51362984Y-97728976D01*
X51461587Y-97581406D01*
X51587086Y-97455907D01*
X51734656Y-97357304D01*
X51898628Y-97289384D01*
X52047928Y-97259687D01*
X52072698Y-97254760D01*
X52250182Y-97254760D01*
X52274952Y-97259687D01*
G37*
G36*
X52274952Y-94719687D02*
G01*
X52424252Y-94749384D01*
X52588224Y-94817304D01*
X52735794Y-94915907D01*
X52861293Y-95041406D01*
X52959896Y-95188976D01*
X53027816Y-95352948D01*
X53062440Y-95527019D01*
X53062440Y-95704501D01*
X53027816Y-95878572D01*
X52959896Y-96042544D01*
X52861293Y-96190114D01*
X52735794Y-96315613D01*
X52588224Y-96414216D01*
X52424252Y-96482136D01*
X52274952Y-96511833D01*
X52250182Y-96516760D01*
X52072698Y-96516760D01*
X52047928Y-96511833D01*
X51898628Y-96482136D01*
X51734656Y-96414216D01*
X51587086Y-96315613D01*
X51461587Y-96190114D01*
X51362984Y-96042544D01*
X51295064Y-95878572D01*
X51260440Y-95704501D01*
X51260440Y-95527019D01*
X51295064Y-95352948D01*
X51362984Y-95188976D01*
X51461587Y-95041406D01*
X51587086Y-94915907D01*
X51734656Y-94817304D01*
X51898628Y-94749384D01*
X52047928Y-94719687D01*
X52072698Y-94714760D01*
X52250182Y-94714760D01*
X52274952Y-94719687D01*
G37*
G36*
X52274952Y-92179687D02*
G01*
X52424252Y-92209384D01*
X52588224Y-92277304D01*
X52735794Y-92375907D01*
X52861293Y-92501406D01*
X52959896Y-92648976D01*
X53027816Y-92812948D01*
X53062440Y-92987019D01*
X53062440Y-93164501D01*
X53027816Y-93338572D01*
X52959896Y-93502544D01*
X52861293Y-93650114D01*
X52735794Y-93775613D01*
X52588224Y-93874216D01*
X52424252Y-93942136D01*
X52274952Y-93971833D01*
X52250182Y-93976760D01*
X52072698Y-93976760D01*
X52047928Y-93971833D01*
X51898628Y-93942136D01*
X51734656Y-93874216D01*
X51587086Y-93775613D01*
X51461587Y-93650114D01*
X51362984Y-93502544D01*
X51295064Y-93338572D01*
X51260440Y-93164501D01*
X51260440Y-92987019D01*
X51295064Y-92812948D01*
X51362984Y-92648976D01*
X51461587Y-92501406D01*
X51587086Y-92375907D01*
X51734656Y-92277304D01*
X51898628Y-92209384D01*
X52047928Y-92179687D01*
X52072698Y-92174760D01*
X52250182Y-92174760D01*
X52274952Y-92179687D01*
G37*
G36*
X52274952Y-89639687D02*
G01*
X52424252Y-89669384D01*
X52588224Y-89737304D01*
X52735794Y-89835907D01*
X52861293Y-89961406D01*
X52959896Y-90108976D01*
X53027816Y-90272948D01*
X53062440Y-90447019D01*
X53062440Y-90624501D01*
X53027816Y-90798572D01*
X52959896Y-90962544D01*
X52861293Y-91110114D01*
X52735794Y-91235613D01*
X52588224Y-91334216D01*
X52424252Y-91402136D01*
X52274952Y-91431833D01*
X52250182Y-91436760D01*
X52072698Y-91436760D01*
X52047928Y-91431833D01*
X51898628Y-91402136D01*
X51734656Y-91334216D01*
X51587086Y-91235613D01*
X51461587Y-91110114D01*
X51362984Y-90962544D01*
X51295064Y-90798572D01*
X51260440Y-90624501D01*
X51260440Y-90447019D01*
X51295064Y-90272948D01*
X51362984Y-90108976D01*
X51461587Y-89961406D01*
X51587086Y-89835907D01*
X51734656Y-89737304D01*
X51898628Y-89669384D01*
X52047928Y-89639687D01*
X52072698Y-89634760D01*
X52250182Y-89634760D01*
X52274952Y-89639687D01*
G37*
G36*
X143268800Y-89410640D02*
G01*
X141566800Y-89410640D01*
X141566800Y-87708640D01*
X143268800Y-87708640D01*
X143268800Y-89410640D01*
G37*
G36*
X52274952Y-87099687D02*
G01*
X52424252Y-87129384D01*
X52588224Y-87197304D01*
X52735794Y-87295907D01*
X52861293Y-87421406D01*
X52959896Y-87568976D01*
X53027816Y-87732948D01*
X53062440Y-87907019D01*
X53062440Y-88084501D01*
X53027816Y-88258572D01*
X52959896Y-88422544D01*
X52861293Y-88570114D01*
X52735794Y-88695613D01*
X52588224Y-88794216D01*
X52424252Y-88862136D01*
X52274952Y-88891833D01*
X52250182Y-88896760D01*
X52072698Y-88896760D01*
X52047928Y-88891833D01*
X51898628Y-88862136D01*
X51734656Y-88794216D01*
X51587086Y-88695613D01*
X51461587Y-88570114D01*
X51362984Y-88422544D01*
X51295064Y-88258572D01*
X51260440Y-88084501D01*
X51260440Y-87907019D01*
X51295064Y-87732948D01*
X51362984Y-87568976D01*
X51461587Y-87421406D01*
X51587086Y-87295907D01*
X51734656Y-87197304D01*
X51898628Y-87129384D01*
X52047928Y-87099687D01*
X52072698Y-87094760D01*
X52250182Y-87094760D01*
X52274952Y-87099687D01*
G37*
G36*
X134754720Y-87307520D02*
G01*
X133052720Y-87307520D01*
X133052720Y-85605520D01*
X134754720Y-85605520D01*
X134754720Y-87307520D01*
G37*
G36*
X130651948Y-85638223D02*
G01*
X130806820Y-85702373D01*
X130946201Y-85795505D01*
X131064735Y-85914039D01*
X131157867Y-86053420D01*
X131222017Y-86208292D01*
X131254720Y-86372704D01*
X131254720Y-86540336D01*
X131222017Y-86704748D01*
X131157867Y-86859620D01*
X131064735Y-86999001D01*
X130946201Y-87117535D01*
X130806820Y-87210667D01*
X130651948Y-87274817D01*
X130487536Y-87307520D01*
X130319904Y-87307520D01*
X130155492Y-87274817D01*
X130000620Y-87210667D01*
X129861239Y-87117535D01*
X129742705Y-86999001D01*
X129649573Y-86859620D01*
X129585423Y-86704748D01*
X129552720Y-86540336D01*
X129552720Y-86372704D01*
X129585423Y-86208292D01*
X129649573Y-86053420D01*
X129742705Y-85914039D01*
X129861239Y-85795505D01*
X130000620Y-85702373D01*
X130155492Y-85638223D01*
X130319904Y-85605520D01*
X130487536Y-85605520D01*
X130651948Y-85638223D01*
G37*
G36*
X52274952Y-84559687D02*
G01*
X52424252Y-84589384D01*
X52588224Y-84657304D01*
X52735794Y-84755907D01*
X52861293Y-84881406D01*
X52959896Y-85028976D01*
X53027816Y-85192948D01*
X53062440Y-85367019D01*
X53062440Y-85544501D01*
X53027816Y-85718572D01*
X52959896Y-85882544D01*
X52861293Y-86030114D01*
X52735794Y-86155613D01*
X52588224Y-86254216D01*
X52424252Y-86322136D01*
X52274952Y-86351833D01*
X52250182Y-86356760D01*
X52072698Y-86356760D01*
X52047928Y-86351833D01*
X51898628Y-86322136D01*
X51734656Y-86254216D01*
X51587086Y-86155613D01*
X51461587Y-86030114D01*
X51362984Y-85882544D01*
X51295064Y-85718572D01*
X51260440Y-85544501D01*
X51260440Y-85367019D01*
X51295064Y-85192948D01*
X51362984Y-85028976D01*
X51461587Y-84881406D01*
X51587086Y-84755907D01*
X51734656Y-84657304D01*
X51898628Y-84589384D01*
X52047928Y-84559687D01*
X52072698Y-84554760D01*
X52250182Y-84554760D01*
X52274952Y-84559687D01*
G37*
G36*
X142666028Y-84241343D02*
G01*
X142820900Y-84305493D01*
X142960281Y-84398625D01*
X143078815Y-84517159D01*
X143171947Y-84656540D01*
X143236097Y-84811412D01*
X143268800Y-84975824D01*
X143268800Y-85143456D01*
X143236097Y-85307868D01*
X143171947Y-85462740D01*
X143078815Y-85602121D01*
X142960281Y-85720655D01*
X142820900Y-85813787D01*
X142666028Y-85877937D01*
X142501616Y-85910640D01*
X142333984Y-85910640D01*
X142169572Y-85877937D01*
X142014700Y-85813787D01*
X141875319Y-85720655D01*
X141756785Y-85602121D01*
X141663653Y-85462740D01*
X141599503Y-85307868D01*
X141566800Y-85143456D01*
X141566800Y-84975824D01*
X141599503Y-84811412D01*
X141663653Y-84656540D01*
X141756785Y-84517159D01*
X141875319Y-84398625D01*
X142014700Y-84305493D01*
X142169572Y-84241343D01*
X142333984Y-84208640D01*
X142501616Y-84208640D01*
X142666028Y-84241343D01*
G37*
G36*
X52274952Y-82019687D02*
G01*
X52424252Y-82049384D01*
X52588224Y-82117304D01*
X52735794Y-82215907D01*
X52861293Y-82341406D01*
X52959896Y-82488976D01*
X53027816Y-82652948D01*
X53062440Y-82827019D01*
X53062440Y-83004501D01*
X53027816Y-83178572D01*
X52959896Y-83342544D01*
X52861293Y-83490114D01*
X52735794Y-83615613D01*
X52588224Y-83714216D01*
X52424252Y-83782136D01*
X52274952Y-83811833D01*
X52250182Y-83816760D01*
X52072698Y-83816760D01*
X52047928Y-83811833D01*
X51898628Y-83782136D01*
X51734656Y-83714216D01*
X51587086Y-83615613D01*
X51461587Y-83490114D01*
X51362984Y-83342544D01*
X51295064Y-83178572D01*
X51260440Y-83004501D01*
X51260440Y-82827019D01*
X51295064Y-82652948D01*
X51362984Y-82488976D01*
X51461587Y-82341406D01*
X51587086Y-82215907D01*
X51734656Y-82117304D01*
X51898628Y-82049384D01*
X52047928Y-82019687D01*
X52072698Y-82014760D01*
X52250182Y-82014760D01*
X52274952Y-82019687D01*
G37*
G36*
X52274952Y-79479687D02*
G01*
X52424252Y-79509384D01*
X52588224Y-79577304D01*
X52735794Y-79675907D01*
X52861293Y-79801406D01*
X52959896Y-79948976D01*
X53027816Y-80112948D01*
X53062440Y-80287019D01*
X53062440Y-80464501D01*
X53027816Y-80638572D01*
X52959896Y-80802544D01*
X52861293Y-80950114D01*
X52735794Y-81075613D01*
X52588224Y-81174216D01*
X52424252Y-81242136D01*
X52274952Y-81271833D01*
X52250182Y-81276760D01*
X52072698Y-81276760D01*
X52047928Y-81271833D01*
X51898628Y-81242136D01*
X51734656Y-81174216D01*
X51587086Y-81075613D01*
X51461587Y-80950114D01*
X51362984Y-80802544D01*
X51295064Y-80638572D01*
X51260440Y-80464501D01*
X51260440Y-80287019D01*
X51295064Y-80112948D01*
X51362984Y-79948976D01*
X51461587Y-79801406D01*
X51587086Y-79675907D01*
X51734656Y-79577304D01*
X51898628Y-79509384D01*
X52047928Y-79479687D01*
X52072698Y-79474760D01*
X52250182Y-79474760D01*
X52274952Y-79479687D01*
G37*
G36*
X138478880Y-79087360D02*
G01*
X135176880Y-79087360D01*
X135176880Y-76985360D01*
X138478880Y-76985360D01*
X138478880Y-79087360D01*
G37*
G36*
X52274952Y-76939687D02*
G01*
X52424252Y-76969384D01*
X52588224Y-77037304D01*
X52735794Y-77135907D01*
X52861293Y-77261406D01*
X52959896Y-77408976D01*
X53027816Y-77572948D01*
X53062440Y-77747019D01*
X53062440Y-77924501D01*
X53027816Y-78098572D01*
X52959896Y-78262544D01*
X52861293Y-78410114D01*
X52735794Y-78535613D01*
X52588224Y-78634216D01*
X52424252Y-78702136D01*
X52274952Y-78731833D01*
X52250182Y-78736760D01*
X52072698Y-78736760D01*
X52047928Y-78731833D01*
X51898628Y-78702136D01*
X51734656Y-78634216D01*
X51587086Y-78535613D01*
X51461587Y-78410114D01*
X51362984Y-78262544D01*
X51295064Y-78098572D01*
X51260440Y-77924501D01*
X51260440Y-77747019D01*
X51295064Y-77572948D01*
X51362984Y-77408976D01*
X51461587Y-77261406D01*
X51587086Y-77135907D01*
X51734656Y-77037304D01*
X51898628Y-76969384D01*
X52047928Y-76939687D01*
X52072698Y-76934760D01*
X52250182Y-76934760D01*
X52274952Y-76939687D01*
G37*
G36*
X52274952Y-74399687D02*
G01*
X52424252Y-74429384D01*
X52588224Y-74497304D01*
X52735794Y-74595907D01*
X52861293Y-74721406D01*
X52959896Y-74868976D01*
X53027816Y-75032948D01*
X53062440Y-75207019D01*
X53062440Y-75384501D01*
X53027816Y-75558572D01*
X52959896Y-75722544D01*
X52861293Y-75870114D01*
X52735794Y-75995613D01*
X52588224Y-76094216D01*
X52424252Y-76162136D01*
X52274952Y-76191833D01*
X52250182Y-76196760D01*
X52072698Y-76196760D01*
X52047928Y-76191833D01*
X51898628Y-76162136D01*
X51734656Y-76094216D01*
X51587086Y-75995613D01*
X51461587Y-75870114D01*
X51362984Y-75722544D01*
X51295064Y-75558572D01*
X51260440Y-75384501D01*
X51260440Y-75207019D01*
X51295064Y-75032948D01*
X51362984Y-74868976D01*
X51461587Y-74721406D01*
X51587086Y-74595907D01*
X51734656Y-74497304D01*
X51898628Y-74429384D01*
X52047928Y-74399687D01*
X52072698Y-74394760D01*
X52250182Y-74394760D01*
X52274952Y-74399687D01*
G37*
G36*
X130134444Y-73925749D02*
G01*
X130325713Y-74004975D01*
X130325715Y-74004976D01*
X130497853Y-74119995D01*
X130644245Y-74266387D01*
X130759265Y-74438527D01*
X130838491Y-74629796D01*
X130878880Y-74832844D01*
X130878880Y-75039876D01*
X130838491Y-75242924D01*
X130759265Y-75434193D01*
X130759264Y-75434195D01*
X130644245Y-75606333D01*
X130497853Y-75752725D01*
X130325715Y-75867744D01*
X130325714Y-75867745D01*
X130325713Y-75867745D01*
X130134444Y-75946971D01*
X129931396Y-75987360D01*
X129724364Y-75987360D01*
X129521316Y-75946971D01*
X129330047Y-75867745D01*
X129330046Y-75867745D01*
X129330045Y-75867744D01*
X129157907Y-75752725D01*
X129011515Y-75606333D01*
X128896496Y-75434195D01*
X128896495Y-75434193D01*
X128817269Y-75242924D01*
X128776880Y-75039876D01*
X128776880Y-74832844D01*
X128817269Y-74629796D01*
X128896495Y-74438527D01*
X129011515Y-74266387D01*
X129157907Y-74119995D01*
X129330045Y-74004976D01*
X129330047Y-74004975D01*
X129521316Y-73925749D01*
X129724364Y-73885360D01*
X129931396Y-73885360D01*
X130134444Y-73925749D01*
G37*
G36*
X144634444Y-73925749D02*
G01*
X144825713Y-74004975D01*
X144825715Y-74004976D01*
X144997853Y-74119995D01*
X145144245Y-74266387D01*
X145259265Y-74438527D01*
X145338491Y-74629796D01*
X145378880Y-74832844D01*
X145378880Y-75039876D01*
X145338491Y-75242924D01*
X145259265Y-75434193D01*
X145259264Y-75434195D01*
X145144245Y-75606333D01*
X144997853Y-75752725D01*
X144825715Y-75867744D01*
X144825714Y-75867745D01*
X144825713Y-75867745D01*
X144634444Y-75946971D01*
X144431396Y-75987360D01*
X144224364Y-75987360D01*
X144021316Y-75946971D01*
X143830047Y-75867745D01*
X143830046Y-75867745D01*
X143830045Y-75867744D01*
X143657907Y-75752725D01*
X143511515Y-75606333D01*
X143396496Y-75434195D01*
X143396495Y-75434193D01*
X143317269Y-75242924D01*
X143276880Y-75039876D01*
X143276880Y-74832844D01*
X143317269Y-74629796D01*
X143396495Y-74438527D01*
X143511515Y-74266387D01*
X143657907Y-74119995D01*
X143830045Y-74004976D01*
X143830047Y-74004975D01*
X144021316Y-73925749D01*
X144224364Y-73885360D01*
X144431396Y-73885360D01*
X144634444Y-73925749D01*
G37*
G36*
X112437392Y-73087727D02*
G01*
X112586692Y-73117424D01*
X112750664Y-73185344D01*
X112898234Y-73283947D01*
X113023733Y-73409446D01*
X113122336Y-73557016D01*
X113190256Y-73720988D01*
X113224880Y-73895059D01*
X113224880Y-74072541D01*
X113190256Y-74246612D01*
X113122336Y-74410584D01*
X113023733Y-74558154D01*
X112898234Y-74683653D01*
X112750664Y-74782256D01*
X112586692Y-74850176D01*
X112437392Y-74879873D01*
X112412622Y-74884800D01*
X112235138Y-74884800D01*
X112210368Y-74879873D01*
X112061068Y-74850176D01*
X111897096Y-74782256D01*
X111749526Y-74683653D01*
X111624027Y-74558154D01*
X111525424Y-74410584D01*
X111457504Y-74246612D01*
X111422880Y-74072541D01*
X111422880Y-73895059D01*
X111457504Y-73720988D01*
X111525424Y-73557016D01*
X111624027Y-73409446D01*
X111749526Y-73283947D01*
X111897096Y-73185344D01*
X112061068Y-73117424D01*
X112210368Y-73087727D01*
X112235138Y-73082800D01*
X112412622Y-73082800D01*
X112437392Y-73087727D01*
G37*
G36*
X109897392Y-73087727D02*
G01*
X110046692Y-73117424D01*
X110210664Y-73185344D01*
X110358234Y-73283947D01*
X110483733Y-73409446D01*
X110582336Y-73557016D01*
X110650256Y-73720988D01*
X110684880Y-73895059D01*
X110684880Y-74072541D01*
X110650256Y-74246612D01*
X110582336Y-74410584D01*
X110483733Y-74558154D01*
X110358234Y-74683653D01*
X110210664Y-74782256D01*
X110046692Y-74850176D01*
X109897392Y-74879873D01*
X109872622Y-74884800D01*
X109695138Y-74884800D01*
X109670368Y-74879873D01*
X109521068Y-74850176D01*
X109357096Y-74782256D01*
X109209526Y-74683653D01*
X109084027Y-74558154D01*
X108985424Y-74410584D01*
X108917504Y-74246612D01*
X108882880Y-74072541D01*
X108882880Y-73895059D01*
X108917504Y-73720988D01*
X108985424Y-73557016D01*
X109084027Y-73409446D01*
X109209526Y-73283947D01*
X109357096Y-73185344D01*
X109521068Y-73117424D01*
X109670368Y-73087727D01*
X109695138Y-73082800D01*
X109872622Y-73082800D01*
X109897392Y-73087727D01*
G37*
G36*
X104817392Y-73087727D02*
G01*
X104966692Y-73117424D01*
X105130664Y-73185344D01*
X105278234Y-73283947D01*
X105403733Y-73409446D01*
X105502336Y-73557016D01*
X105570256Y-73720988D01*
X105604880Y-73895059D01*
X105604880Y-74072541D01*
X105570256Y-74246612D01*
X105502336Y-74410584D01*
X105403733Y-74558154D01*
X105278234Y-74683653D01*
X105130664Y-74782256D01*
X104966692Y-74850176D01*
X104817392Y-74879873D01*
X104792622Y-74884800D01*
X104615138Y-74884800D01*
X104590368Y-74879873D01*
X104441068Y-74850176D01*
X104277096Y-74782256D01*
X104129526Y-74683653D01*
X104004027Y-74558154D01*
X103905424Y-74410584D01*
X103837504Y-74246612D01*
X103802880Y-74072541D01*
X103802880Y-73895059D01*
X103837504Y-73720988D01*
X103905424Y-73557016D01*
X104004027Y-73409446D01*
X104129526Y-73283947D01*
X104277096Y-73185344D01*
X104441068Y-73117424D01*
X104590368Y-73087727D01*
X104615138Y-73082800D01*
X104792622Y-73082800D01*
X104817392Y-73087727D01*
G37*
G36*
X102277392Y-73087727D02*
G01*
X102426692Y-73117424D01*
X102590664Y-73185344D01*
X102738234Y-73283947D01*
X102863733Y-73409446D01*
X102962336Y-73557016D01*
X103030256Y-73720988D01*
X103064880Y-73895059D01*
X103064880Y-74072541D01*
X103030256Y-74246612D01*
X102962336Y-74410584D01*
X102863733Y-74558154D01*
X102738234Y-74683653D01*
X102590664Y-74782256D01*
X102426692Y-74850176D01*
X102277392Y-74879873D01*
X102252622Y-74884800D01*
X102075138Y-74884800D01*
X102050368Y-74879873D01*
X101901068Y-74850176D01*
X101737096Y-74782256D01*
X101589526Y-74683653D01*
X101464027Y-74558154D01*
X101365424Y-74410584D01*
X101297504Y-74246612D01*
X101262880Y-74072541D01*
X101262880Y-73895059D01*
X101297504Y-73720988D01*
X101365424Y-73557016D01*
X101464027Y-73409446D01*
X101589526Y-73283947D01*
X101737096Y-73185344D01*
X101901068Y-73117424D01*
X102050368Y-73087727D01*
X102075138Y-73082800D01*
X102252622Y-73082800D01*
X102277392Y-73087727D01*
G37*
G36*
X99737392Y-73087727D02*
G01*
X99886692Y-73117424D01*
X100050664Y-73185344D01*
X100198234Y-73283947D01*
X100323733Y-73409446D01*
X100422336Y-73557016D01*
X100490256Y-73720988D01*
X100524880Y-73895059D01*
X100524880Y-74072541D01*
X100490256Y-74246612D01*
X100422336Y-74410584D01*
X100323733Y-74558154D01*
X100198234Y-74683653D01*
X100050664Y-74782256D01*
X99886692Y-74850176D01*
X99737392Y-74879873D01*
X99712622Y-74884800D01*
X99535138Y-74884800D01*
X99510368Y-74879873D01*
X99361068Y-74850176D01*
X99197096Y-74782256D01*
X99049526Y-74683653D01*
X98924027Y-74558154D01*
X98825424Y-74410584D01*
X98757504Y-74246612D01*
X98722880Y-74072541D01*
X98722880Y-73895059D01*
X98757504Y-73720988D01*
X98825424Y-73557016D01*
X98924027Y-73409446D01*
X99049526Y-73283947D01*
X99197096Y-73185344D01*
X99361068Y-73117424D01*
X99510368Y-73087727D01*
X99535138Y-73082800D01*
X99712622Y-73082800D01*
X99737392Y-73087727D01*
G37*
G36*
X97197392Y-73087727D02*
G01*
X97346692Y-73117424D01*
X97510664Y-73185344D01*
X97658234Y-73283947D01*
X97783733Y-73409446D01*
X97882336Y-73557016D01*
X97950256Y-73720988D01*
X97984880Y-73895059D01*
X97984880Y-74072541D01*
X97950256Y-74246612D01*
X97882336Y-74410584D01*
X97783733Y-74558154D01*
X97658234Y-74683653D01*
X97510664Y-74782256D01*
X97346692Y-74850176D01*
X97197392Y-74879873D01*
X97172622Y-74884800D01*
X96995138Y-74884800D01*
X96970368Y-74879873D01*
X96821068Y-74850176D01*
X96657096Y-74782256D01*
X96509526Y-74683653D01*
X96384027Y-74558154D01*
X96285424Y-74410584D01*
X96217504Y-74246612D01*
X96182880Y-74072541D01*
X96182880Y-73895059D01*
X96217504Y-73720988D01*
X96285424Y-73557016D01*
X96384027Y-73409446D01*
X96509526Y-73283947D01*
X96657096Y-73185344D01*
X96821068Y-73117424D01*
X96970368Y-73087727D01*
X96995138Y-73082800D01*
X97172622Y-73082800D01*
X97197392Y-73087727D01*
G37*
G36*
X94657392Y-73087727D02*
G01*
X94806692Y-73117424D01*
X94970664Y-73185344D01*
X95118234Y-73283947D01*
X95243733Y-73409446D01*
X95342336Y-73557016D01*
X95410256Y-73720988D01*
X95444880Y-73895059D01*
X95444880Y-74072541D01*
X95410256Y-74246612D01*
X95342336Y-74410584D01*
X95243733Y-74558154D01*
X95118234Y-74683653D01*
X94970664Y-74782256D01*
X94806692Y-74850176D01*
X94657392Y-74879873D01*
X94632622Y-74884800D01*
X94455138Y-74884800D01*
X94430368Y-74879873D01*
X94281068Y-74850176D01*
X94117096Y-74782256D01*
X93969526Y-74683653D01*
X93844027Y-74558154D01*
X93745424Y-74410584D01*
X93677504Y-74246612D01*
X93642880Y-74072541D01*
X93642880Y-73895059D01*
X93677504Y-73720988D01*
X93745424Y-73557016D01*
X93844027Y-73409446D01*
X93969526Y-73283947D01*
X94117096Y-73185344D01*
X94281068Y-73117424D01*
X94430368Y-73087727D01*
X94455138Y-73082800D01*
X94632622Y-73082800D01*
X94657392Y-73087727D01*
G37*
G36*
X92117392Y-73087727D02*
G01*
X92266692Y-73117424D01*
X92430664Y-73185344D01*
X92578234Y-73283947D01*
X92703733Y-73409446D01*
X92802336Y-73557016D01*
X92870256Y-73720988D01*
X92904880Y-73895059D01*
X92904880Y-74072541D01*
X92870256Y-74246612D01*
X92802336Y-74410584D01*
X92703733Y-74558154D01*
X92578234Y-74683653D01*
X92430664Y-74782256D01*
X92266692Y-74850176D01*
X92117392Y-74879873D01*
X92092622Y-74884800D01*
X91915138Y-74884800D01*
X91890368Y-74879873D01*
X91741068Y-74850176D01*
X91577096Y-74782256D01*
X91429526Y-74683653D01*
X91304027Y-74558154D01*
X91205424Y-74410584D01*
X91137504Y-74246612D01*
X91102880Y-74072541D01*
X91102880Y-73895059D01*
X91137504Y-73720988D01*
X91205424Y-73557016D01*
X91304027Y-73409446D01*
X91429526Y-73283947D01*
X91577096Y-73185344D01*
X91741068Y-73117424D01*
X91890368Y-73087727D01*
X91915138Y-73082800D01*
X92092622Y-73082800D01*
X92117392Y-73087727D01*
G37*
G36*
X89577392Y-73087727D02*
G01*
X89726692Y-73117424D01*
X89890664Y-73185344D01*
X90038234Y-73283947D01*
X90163733Y-73409446D01*
X90262336Y-73557016D01*
X90330256Y-73720988D01*
X90364880Y-73895059D01*
X90364880Y-74072541D01*
X90330256Y-74246612D01*
X90262336Y-74410584D01*
X90163733Y-74558154D01*
X90038234Y-74683653D01*
X89890664Y-74782256D01*
X89726692Y-74850176D01*
X89577392Y-74879873D01*
X89552622Y-74884800D01*
X89375138Y-74884800D01*
X89350368Y-74879873D01*
X89201068Y-74850176D01*
X89037096Y-74782256D01*
X88889526Y-74683653D01*
X88764027Y-74558154D01*
X88665424Y-74410584D01*
X88597504Y-74246612D01*
X88562880Y-74072541D01*
X88562880Y-73895059D01*
X88597504Y-73720988D01*
X88665424Y-73557016D01*
X88764027Y-73409446D01*
X88889526Y-73283947D01*
X89037096Y-73185344D01*
X89201068Y-73117424D01*
X89350368Y-73087727D01*
X89375138Y-73082800D01*
X89552622Y-73082800D01*
X89577392Y-73087727D01*
G37*
G36*
X87037392Y-73087727D02*
G01*
X87186692Y-73117424D01*
X87350664Y-73185344D01*
X87498234Y-73283947D01*
X87623733Y-73409446D01*
X87722336Y-73557016D01*
X87790256Y-73720988D01*
X87824880Y-73895059D01*
X87824880Y-74072541D01*
X87790256Y-74246612D01*
X87722336Y-74410584D01*
X87623733Y-74558154D01*
X87498234Y-74683653D01*
X87350664Y-74782256D01*
X87186692Y-74850176D01*
X87037392Y-74879873D01*
X87012622Y-74884800D01*
X86835138Y-74884800D01*
X86810368Y-74879873D01*
X86661068Y-74850176D01*
X86497096Y-74782256D01*
X86349526Y-74683653D01*
X86224027Y-74558154D01*
X86125424Y-74410584D01*
X86057504Y-74246612D01*
X86022880Y-74072541D01*
X86022880Y-73895059D01*
X86057504Y-73720988D01*
X86125424Y-73557016D01*
X86224027Y-73409446D01*
X86349526Y-73283947D01*
X86497096Y-73185344D01*
X86661068Y-73117424D01*
X86810368Y-73087727D01*
X86835138Y-73082800D01*
X87012622Y-73082800D01*
X87037392Y-73087727D01*
G37*
G36*
X81957392Y-73087727D02*
G01*
X82106692Y-73117424D01*
X82270664Y-73185344D01*
X82418234Y-73283947D01*
X82543733Y-73409446D01*
X82642336Y-73557016D01*
X82710256Y-73720988D01*
X82744880Y-73895059D01*
X82744880Y-74072541D01*
X82710256Y-74246612D01*
X82642336Y-74410584D01*
X82543733Y-74558154D01*
X82418234Y-74683653D01*
X82270664Y-74782256D01*
X82106692Y-74850176D01*
X81957392Y-74879873D01*
X81932622Y-74884800D01*
X81755138Y-74884800D01*
X81730368Y-74879873D01*
X81581068Y-74850176D01*
X81417096Y-74782256D01*
X81269526Y-74683653D01*
X81144027Y-74558154D01*
X81045424Y-74410584D01*
X80977504Y-74246612D01*
X80942880Y-74072541D01*
X80942880Y-73895059D01*
X80977504Y-73720988D01*
X81045424Y-73557016D01*
X81144027Y-73409446D01*
X81269526Y-73283947D01*
X81417096Y-73185344D01*
X81581068Y-73117424D01*
X81730368Y-73087727D01*
X81755138Y-73082800D01*
X81932622Y-73082800D01*
X81957392Y-73087727D01*
G37*
G36*
X79417392Y-73087727D02*
G01*
X79566692Y-73117424D01*
X79730664Y-73185344D01*
X79878234Y-73283947D01*
X80003733Y-73409446D01*
X80102336Y-73557016D01*
X80170256Y-73720988D01*
X80204880Y-73895059D01*
X80204880Y-74072541D01*
X80170256Y-74246612D01*
X80102336Y-74410584D01*
X80003733Y-74558154D01*
X79878234Y-74683653D01*
X79730664Y-74782256D01*
X79566692Y-74850176D01*
X79417392Y-74879873D01*
X79392622Y-74884800D01*
X79215138Y-74884800D01*
X79190368Y-74879873D01*
X79041068Y-74850176D01*
X78877096Y-74782256D01*
X78729526Y-74683653D01*
X78604027Y-74558154D01*
X78505424Y-74410584D01*
X78437504Y-74246612D01*
X78402880Y-74072541D01*
X78402880Y-73895059D01*
X78437504Y-73720988D01*
X78505424Y-73557016D01*
X78604027Y-73409446D01*
X78729526Y-73283947D01*
X78877096Y-73185344D01*
X79041068Y-73117424D01*
X79190368Y-73087727D01*
X79215138Y-73082800D01*
X79392622Y-73082800D01*
X79417392Y-73087727D01*
G37*
G36*
X76877392Y-73087727D02*
G01*
X77026692Y-73117424D01*
X77190664Y-73185344D01*
X77338234Y-73283947D01*
X77463733Y-73409446D01*
X77562336Y-73557016D01*
X77630256Y-73720988D01*
X77664880Y-73895059D01*
X77664880Y-74072541D01*
X77630256Y-74246612D01*
X77562336Y-74410584D01*
X77463733Y-74558154D01*
X77338234Y-74683653D01*
X77190664Y-74782256D01*
X77026692Y-74850176D01*
X76877392Y-74879873D01*
X76852622Y-74884800D01*
X76675138Y-74884800D01*
X76650368Y-74879873D01*
X76501068Y-74850176D01*
X76337096Y-74782256D01*
X76189526Y-74683653D01*
X76064027Y-74558154D01*
X75965424Y-74410584D01*
X75897504Y-74246612D01*
X75862880Y-74072541D01*
X75862880Y-73895059D01*
X75897504Y-73720988D01*
X75965424Y-73557016D01*
X76064027Y-73409446D01*
X76189526Y-73283947D01*
X76337096Y-73185344D01*
X76501068Y-73117424D01*
X76650368Y-73087727D01*
X76675138Y-73082800D01*
X76852622Y-73082800D01*
X76877392Y-73087727D01*
G37*
G36*
X74337392Y-73087727D02*
G01*
X74486692Y-73117424D01*
X74650664Y-73185344D01*
X74798234Y-73283947D01*
X74923733Y-73409446D01*
X75022336Y-73557016D01*
X75090256Y-73720988D01*
X75124880Y-73895059D01*
X75124880Y-74072541D01*
X75090256Y-74246612D01*
X75022336Y-74410584D01*
X74923733Y-74558154D01*
X74798234Y-74683653D01*
X74650664Y-74782256D01*
X74486692Y-74850176D01*
X74337392Y-74879873D01*
X74312622Y-74884800D01*
X74135138Y-74884800D01*
X74110368Y-74879873D01*
X73961068Y-74850176D01*
X73797096Y-74782256D01*
X73649526Y-74683653D01*
X73524027Y-74558154D01*
X73425424Y-74410584D01*
X73357504Y-74246612D01*
X73322880Y-74072541D01*
X73322880Y-73895059D01*
X73357504Y-73720988D01*
X73425424Y-73557016D01*
X73524027Y-73409446D01*
X73649526Y-73283947D01*
X73797096Y-73185344D01*
X73961068Y-73117424D01*
X74110368Y-73087727D01*
X74135138Y-73082800D01*
X74312622Y-73082800D01*
X74337392Y-73087727D01*
G37*
G36*
X71797392Y-73087727D02*
G01*
X71946692Y-73117424D01*
X72110664Y-73185344D01*
X72258234Y-73283947D01*
X72383733Y-73409446D01*
X72482336Y-73557016D01*
X72550256Y-73720988D01*
X72584880Y-73895059D01*
X72584880Y-74072541D01*
X72550256Y-74246612D01*
X72482336Y-74410584D01*
X72383733Y-74558154D01*
X72258234Y-74683653D01*
X72110664Y-74782256D01*
X71946692Y-74850176D01*
X71797392Y-74879873D01*
X71772622Y-74884800D01*
X71595138Y-74884800D01*
X71570368Y-74879873D01*
X71421068Y-74850176D01*
X71257096Y-74782256D01*
X71109526Y-74683653D01*
X70984027Y-74558154D01*
X70885424Y-74410584D01*
X70817504Y-74246612D01*
X70782880Y-74072541D01*
X70782880Y-73895059D01*
X70817504Y-73720988D01*
X70885424Y-73557016D01*
X70984027Y-73409446D01*
X71109526Y-73283947D01*
X71257096Y-73185344D01*
X71421068Y-73117424D01*
X71570368Y-73087727D01*
X71595138Y-73082800D01*
X71772622Y-73082800D01*
X71797392Y-73087727D01*
G37*
G36*
X69257392Y-73087727D02*
G01*
X69406692Y-73117424D01*
X69570664Y-73185344D01*
X69718234Y-73283947D01*
X69843733Y-73409446D01*
X69942336Y-73557016D01*
X70010256Y-73720988D01*
X70044880Y-73895059D01*
X70044880Y-74072541D01*
X70010256Y-74246612D01*
X69942336Y-74410584D01*
X69843733Y-74558154D01*
X69718234Y-74683653D01*
X69570664Y-74782256D01*
X69406692Y-74850176D01*
X69257392Y-74879873D01*
X69232622Y-74884800D01*
X69055138Y-74884800D01*
X69030368Y-74879873D01*
X68881068Y-74850176D01*
X68717096Y-74782256D01*
X68569526Y-74683653D01*
X68444027Y-74558154D01*
X68345424Y-74410584D01*
X68277504Y-74246612D01*
X68242880Y-74072541D01*
X68242880Y-73895059D01*
X68277504Y-73720988D01*
X68345424Y-73557016D01*
X68444027Y-73409446D01*
X68569526Y-73283947D01*
X68717096Y-73185344D01*
X68881068Y-73117424D01*
X69030368Y-73087727D01*
X69055138Y-73082800D01*
X69232622Y-73082800D01*
X69257392Y-73087727D01*
G37*
G36*
X107357392Y-73087727D02*
G01*
X107506692Y-73117424D01*
X107670664Y-73185344D01*
X107818234Y-73283947D01*
X107943733Y-73409446D01*
X108042336Y-73557016D01*
X108110256Y-73720988D01*
X108144880Y-73895059D01*
X108144880Y-74072541D01*
X108110256Y-74246612D01*
X108042336Y-74410584D01*
X107943733Y-74558154D01*
X107818234Y-74683653D01*
X107670664Y-74782256D01*
X107506692Y-74850176D01*
X107357392Y-74879873D01*
X107332622Y-74884800D01*
X107155138Y-74884800D01*
X107130368Y-74879873D01*
X106981068Y-74850176D01*
X106817096Y-74782256D01*
X106669526Y-74683653D01*
X106544027Y-74558154D01*
X106445424Y-74410584D01*
X106377504Y-74246612D01*
X106342880Y-74072541D01*
X106342880Y-73895059D01*
X106377504Y-73720988D01*
X106445424Y-73557016D01*
X106544027Y-73409446D01*
X106669526Y-73283947D01*
X106817096Y-73185344D01*
X106981068Y-73117424D01*
X107130368Y-73087727D01*
X107155138Y-73082800D01*
X107332622Y-73082800D01*
X107357392Y-73087727D01*
G37*
G36*
X67504880Y-74884800D02*
G01*
X65702880Y-74884800D01*
X65702880Y-73082800D01*
X67504880Y-73082800D01*
X67504880Y-74884800D01*
G37*
G36*
X84497392Y-73087727D02*
G01*
X84646692Y-73117424D01*
X84810664Y-73185344D01*
X84958234Y-73283947D01*
X85083733Y-73409446D01*
X85182336Y-73557016D01*
X85250256Y-73720988D01*
X85284880Y-73895059D01*
X85284880Y-74072541D01*
X85250256Y-74246612D01*
X85182336Y-74410584D01*
X85083733Y-74558154D01*
X84958234Y-74683653D01*
X84810664Y-74782256D01*
X84646692Y-74850176D01*
X84497392Y-74879873D01*
X84472622Y-74884800D01*
X84295138Y-74884800D01*
X84270368Y-74879873D01*
X84121068Y-74850176D01*
X83957096Y-74782256D01*
X83809526Y-74683653D01*
X83684027Y-74558154D01*
X83585424Y-74410584D01*
X83517504Y-74246612D01*
X83482880Y-74072541D01*
X83482880Y-73895059D01*
X83517504Y-73720988D01*
X83585424Y-73557016D01*
X83684027Y-73409446D01*
X83809526Y-73283947D01*
X83957096Y-73185344D01*
X84121068Y-73117424D01*
X84270368Y-73087727D01*
X84295138Y-73082800D01*
X84472622Y-73082800D01*
X84497392Y-73087727D01*
G37*
G36*
X52274952Y-71859687D02*
G01*
X52424252Y-71889384D01*
X52588224Y-71957304D01*
X52735794Y-72055907D01*
X52861293Y-72181406D01*
X52959896Y-72328976D01*
X53027816Y-72492948D01*
X53062440Y-72667019D01*
X53062440Y-72844501D01*
X53027816Y-73018572D01*
X52959896Y-73182544D01*
X52861293Y-73330114D01*
X52735794Y-73455613D01*
X52588224Y-73554216D01*
X52424252Y-73622136D01*
X52274952Y-73651833D01*
X52250182Y-73656760D01*
X52072698Y-73656760D01*
X52047928Y-73651833D01*
X51898628Y-73622136D01*
X51734656Y-73554216D01*
X51587086Y-73455613D01*
X51461587Y-73330114D01*
X51362984Y-73182544D01*
X51295064Y-73018572D01*
X51260440Y-72844501D01*
X51260440Y-72667019D01*
X51295064Y-72492948D01*
X51362984Y-72328976D01*
X51461587Y-72181406D01*
X51587086Y-72055907D01*
X51734656Y-71957304D01*
X51898628Y-71889384D01*
X52047928Y-71859687D01*
X52072698Y-71854760D01*
X52250182Y-71854760D01*
X52274952Y-71859687D01*
G37*
G36*
X144634444Y-71425749D02*
G01*
X144825713Y-71504975D01*
X144825715Y-71504976D01*
X144997853Y-71619995D01*
X145144245Y-71766387D01*
X145226430Y-71889385D01*
X145259265Y-71938527D01*
X145338491Y-72129796D01*
X145378880Y-72332844D01*
X145378880Y-72539876D01*
X145338491Y-72742924D01*
X145296416Y-72844502D01*
X145259264Y-72934195D01*
X145144245Y-73106333D01*
X144997853Y-73252725D01*
X144825715Y-73367744D01*
X144825714Y-73367745D01*
X144825713Y-73367745D01*
X144634444Y-73446971D01*
X144431396Y-73487360D01*
X144224364Y-73487360D01*
X144021316Y-73446971D01*
X143830047Y-73367745D01*
X143830046Y-73367745D01*
X143830045Y-73367744D01*
X143657907Y-73252725D01*
X143511515Y-73106333D01*
X143396496Y-72934195D01*
X143359344Y-72844502D01*
X143317269Y-72742924D01*
X143276880Y-72539876D01*
X143276880Y-72332844D01*
X143317269Y-72129796D01*
X143396495Y-71938527D01*
X143429331Y-71889385D01*
X143511515Y-71766387D01*
X143657907Y-71619995D01*
X143830045Y-71504976D01*
X143830047Y-71504975D01*
X144021316Y-71425749D01*
X144224364Y-71385360D01*
X144431396Y-71385360D01*
X144634444Y-71425749D01*
G37*
G36*
X52274952Y-69319687D02*
G01*
X52424252Y-69349384D01*
X52588224Y-69417304D01*
X52735794Y-69515907D01*
X52861293Y-69641406D01*
X52959896Y-69788976D01*
X53027816Y-69952948D01*
X53062440Y-70127019D01*
X53062440Y-70304501D01*
X53027816Y-70478572D01*
X52959896Y-70642544D01*
X52861293Y-70790114D01*
X52735794Y-70915613D01*
X52588224Y-71014216D01*
X52424252Y-71082136D01*
X52274952Y-71111833D01*
X52250182Y-71116760D01*
X52072698Y-71116760D01*
X52047928Y-71111833D01*
X51898628Y-71082136D01*
X51734656Y-71014216D01*
X51587086Y-70915613D01*
X51461587Y-70790114D01*
X51362984Y-70642544D01*
X51295064Y-70478572D01*
X51260440Y-70304501D01*
X51260440Y-70127019D01*
X51295064Y-69952948D01*
X51362984Y-69788976D01*
X51461587Y-69641406D01*
X51587086Y-69515907D01*
X51734656Y-69417304D01*
X51898628Y-69349384D01*
X52047928Y-69319687D01*
X52072698Y-69314760D01*
X52250182Y-69314760D01*
X52274952Y-69319687D01*
G37*
G36*
X130134444Y-68925749D02*
G01*
X130325713Y-69004975D01*
X130325715Y-69004976D01*
X130497853Y-69119995D01*
X130644245Y-69266387D01*
X130751543Y-69426969D01*
X130759265Y-69438527D01*
X130838491Y-69629796D01*
X130878880Y-69832844D01*
X130878880Y-70039876D01*
X130838491Y-70242924D01*
X130759265Y-70434193D01*
X130759264Y-70434195D01*
X130644245Y-70606333D01*
X130497853Y-70752725D01*
X130325715Y-70867744D01*
X130325714Y-70867745D01*
X130325713Y-70867745D01*
X130134444Y-70946971D01*
X129931396Y-70987360D01*
X129724364Y-70987360D01*
X129521316Y-70946971D01*
X129330047Y-70867745D01*
X129330046Y-70867745D01*
X129330045Y-70867744D01*
X129157907Y-70752725D01*
X129011515Y-70606333D01*
X128896496Y-70434195D01*
X128896495Y-70434193D01*
X128817269Y-70242924D01*
X128776880Y-70039876D01*
X128776880Y-69832844D01*
X128817269Y-69629796D01*
X128896495Y-69438527D01*
X128904218Y-69426969D01*
X129011515Y-69266387D01*
X129157907Y-69119995D01*
X129330045Y-69004976D01*
X129330047Y-69004975D01*
X129521316Y-68925749D01*
X129724364Y-68885360D01*
X129931396Y-68885360D01*
X130134444Y-68925749D01*
G37*
G36*
X145378880Y-70987360D02*
G01*
X143276880Y-70987360D01*
X143276880Y-68885360D01*
X145378880Y-68885360D01*
X145378880Y-70987360D01*
G37*
G36*
X57546616Y-66765818D02*
G01*
X57652939Y-66786967D01*
X57953402Y-66911423D01*
X58223811Y-67092105D01*
X58453775Y-67322069D01*
X58634457Y-67592478D01*
X58758913Y-67892941D01*
X58822360Y-68211911D01*
X58822360Y-68537129D01*
X58758913Y-68856099D01*
X58634457Y-69156562D01*
X58453775Y-69426971D01*
X58223811Y-69656935D01*
X57953402Y-69837617D01*
X57652939Y-69962073D01*
X57546616Y-69983222D01*
X57333971Y-70025520D01*
X57008749Y-70025520D01*
X56796104Y-69983222D01*
X56689781Y-69962073D01*
X56389318Y-69837617D01*
X56118909Y-69656935D01*
X55888945Y-69426971D01*
X55708263Y-69156562D01*
X55583807Y-68856099D01*
X55520360Y-68537129D01*
X55520360Y-68211911D01*
X55583807Y-67892941D01*
X55708263Y-67592478D01*
X55888945Y-67322069D01*
X56118909Y-67092105D01*
X56389318Y-66911423D01*
X56689781Y-66786967D01*
X56796104Y-66765818D01*
X57008749Y-66723520D01*
X57333971Y-66723520D01*
X57546616Y-66765818D01*
G37*
G36*
X125246616Y-66765818D02*
G01*
X125352939Y-66786967D01*
X125653402Y-66911423D01*
X125923811Y-67092105D01*
X126153775Y-67322069D01*
X126334457Y-67592478D01*
X126458913Y-67892941D01*
X126522360Y-68211911D01*
X126522360Y-68537129D01*
X126458913Y-68856099D01*
X126334457Y-69156562D01*
X126153775Y-69426971D01*
X125923811Y-69656935D01*
X125653402Y-69837617D01*
X125352939Y-69962073D01*
X125246616Y-69983222D01*
X125033971Y-70025520D01*
X124708749Y-70025520D01*
X124496104Y-69983222D01*
X124389781Y-69962073D01*
X124089318Y-69837617D01*
X123818909Y-69656935D01*
X123588945Y-69426971D01*
X123408263Y-69156562D01*
X123283807Y-68856099D01*
X123220360Y-68537129D01*
X123220360Y-68211911D01*
X123283807Y-67892941D01*
X123408263Y-67592478D01*
X123588945Y-67322069D01*
X123818909Y-67092105D01*
X124089318Y-66911423D01*
X124389781Y-66786967D01*
X124496104Y-66765818D01*
X124708749Y-66723520D01*
X125033971Y-66723520D01*
X125246616Y-66765818D01*
G37*
G36*
X138478880Y-67887360D02*
G01*
X135176880Y-67887360D01*
X135176880Y-65785360D01*
X138478880Y-65785360D01*
X138478880Y-67887360D01*
G37*
G36*
X56857200Y-61916880D02*
G01*
X55055200Y-61916880D01*
X55055200Y-60114880D01*
X56857200Y-60114880D01*
X56857200Y-61916880D01*
G37*
G36*
X66229712Y-60119807D02*
G01*
X66379012Y-60149504D01*
X66542984Y-60217424D01*
X66690554Y-60316027D01*
X66816053Y-60441526D01*
X66914656Y-60589096D01*
X66982576Y-60753068D01*
X67017200Y-60927139D01*
X67017200Y-61104621D01*
X66982576Y-61278692D01*
X66914656Y-61442664D01*
X66816053Y-61590234D01*
X66690554Y-61715733D01*
X66542984Y-61814336D01*
X66379012Y-61882256D01*
X66229712Y-61911953D01*
X66204942Y-61916880D01*
X66027458Y-61916880D01*
X66002688Y-61911953D01*
X65853388Y-61882256D01*
X65689416Y-61814336D01*
X65541846Y-61715733D01*
X65416347Y-61590234D01*
X65317744Y-61442664D01*
X65249824Y-61278692D01*
X65215200Y-61104621D01*
X65215200Y-60927139D01*
X65249824Y-60753068D01*
X65317744Y-60589096D01*
X65416347Y-60441526D01*
X65541846Y-60316027D01*
X65689416Y-60217424D01*
X65853388Y-60149504D01*
X66002688Y-60119807D01*
X66027458Y-60114880D01*
X66204942Y-60114880D01*
X66229712Y-60119807D01*
G37*
G36*
X63689712Y-60119807D02*
G01*
X63839012Y-60149504D01*
X64002984Y-60217424D01*
X64150554Y-60316027D01*
X64276053Y-60441526D01*
X64374656Y-60589096D01*
X64442576Y-60753068D01*
X64477200Y-60927139D01*
X64477200Y-61104621D01*
X64442576Y-61278692D01*
X64374656Y-61442664D01*
X64276053Y-61590234D01*
X64150554Y-61715733D01*
X64002984Y-61814336D01*
X63839012Y-61882256D01*
X63689712Y-61911953D01*
X63664942Y-61916880D01*
X63487458Y-61916880D01*
X63462688Y-61911953D01*
X63313388Y-61882256D01*
X63149416Y-61814336D01*
X63001846Y-61715733D01*
X62876347Y-61590234D01*
X62777744Y-61442664D01*
X62709824Y-61278692D01*
X62675200Y-61104621D01*
X62675200Y-60927139D01*
X62709824Y-60753068D01*
X62777744Y-60589096D01*
X62876347Y-60441526D01*
X63001846Y-60316027D01*
X63149416Y-60217424D01*
X63313388Y-60149504D01*
X63462688Y-60119807D01*
X63487458Y-60114880D01*
X63664942Y-60114880D01*
X63689712Y-60119807D01*
G37*
G36*
X61149712Y-60119807D02*
G01*
X61299012Y-60149504D01*
X61462984Y-60217424D01*
X61610554Y-60316027D01*
X61736053Y-60441526D01*
X61834656Y-60589096D01*
X61902576Y-60753068D01*
X61937200Y-60927139D01*
X61937200Y-61104621D01*
X61902576Y-61278692D01*
X61834656Y-61442664D01*
X61736053Y-61590234D01*
X61610554Y-61715733D01*
X61462984Y-61814336D01*
X61299012Y-61882256D01*
X61149712Y-61911953D01*
X61124942Y-61916880D01*
X60947458Y-61916880D01*
X60922688Y-61911953D01*
X60773388Y-61882256D01*
X60609416Y-61814336D01*
X60461846Y-61715733D01*
X60336347Y-61590234D01*
X60237744Y-61442664D01*
X60169824Y-61278692D01*
X60135200Y-61104621D01*
X60135200Y-60927139D01*
X60169824Y-60753068D01*
X60237744Y-60589096D01*
X60336347Y-60441526D01*
X60461846Y-60316027D01*
X60609416Y-60217424D01*
X60773388Y-60149504D01*
X60922688Y-60119807D01*
X60947458Y-60114880D01*
X61124942Y-60114880D01*
X61149712Y-60119807D01*
G37*
G36*
X58609712Y-60119807D02*
G01*
X58759012Y-60149504D01*
X58922984Y-60217424D01*
X59070554Y-60316027D01*
X59196053Y-60441526D01*
X59294656Y-60589096D01*
X59362576Y-60753068D01*
X59397200Y-60927139D01*
X59397200Y-61104621D01*
X59362576Y-61278692D01*
X59294656Y-61442664D01*
X59196053Y-61590234D01*
X59070554Y-61715733D01*
X58922984Y-61814336D01*
X58759012Y-61882256D01*
X58609712Y-61911953D01*
X58584942Y-61916880D01*
X58407458Y-61916880D01*
X58382688Y-61911953D01*
X58233388Y-61882256D01*
X58069416Y-61814336D01*
X57921846Y-61715733D01*
X57796347Y-61590234D01*
X57697744Y-61442664D01*
X57629824Y-61278692D01*
X57595200Y-61104621D01*
X57595200Y-60927139D01*
X57629824Y-60753068D01*
X57697744Y-60589096D01*
X57796347Y-60441526D01*
X57921846Y-60316027D01*
X58069416Y-60217424D01*
X58233388Y-60149504D01*
X58382688Y-60119807D01*
X58407458Y-60114880D01*
X58584942Y-60114880D01*
X58609712Y-60119807D01*
G37*
G36*
X68769712Y-60119807D02*
G01*
X68919012Y-60149504D01*
X69082984Y-60217424D01*
X69230554Y-60316027D01*
X69356053Y-60441526D01*
X69454656Y-60589096D01*
X69522576Y-60753068D01*
X69557200Y-60927139D01*
X69557200Y-61104621D01*
X69522576Y-61278692D01*
X69454656Y-61442664D01*
X69356053Y-61590234D01*
X69230554Y-61715733D01*
X69082984Y-61814336D01*
X68919012Y-61882256D01*
X68769712Y-61911953D01*
X68744942Y-61916880D01*
X68567458Y-61916880D01*
X68542688Y-61911953D01*
X68393388Y-61882256D01*
X68229416Y-61814336D01*
X68081846Y-61715733D01*
X67956347Y-61590234D01*
X67857744Y-61442664D01*
X67789824Y-61278692D01*
X67755200Y-61104621D01*
X67755200Y-60927139D01*
X67789824Y-60753068D01*
X67857744Y-60589096D01*
X67956347Y-60441526D01*
X68081846Y-60316027D01*
X68229416Y-60217424D01*
X68393388Y-60149504D01*
X68542688Y-60119807D01*
X68567458Y-60114880D01*
X68744942Y-60114880D01*
X68769712Y-60119807D01*
G37*
G36*
X71309712Y-60119807D02*
G01*
X71459012Y-60149504D01*
X71622984Y-60217424D01*
X71770554Y-60316027D01*
X71896053Y-60441526D01*
X71994656Y-60589096D01*
X72062576Y-60753068D01*
X72097200Y-60927139D01*
X72097200Y-61104621D01*
X72062576Y-61278692D01*
X71994656Y-61442664D01*
X71896053Y-61590234D01*
X71770554Y-61715733D01*
X71622984Y-61814336D01*
X71459012Y-61882256D01*
X71309712Y-61911953D01*
X71284942Y-61916880D01*
X71107458Y-61916880D01*
X71082688Y-61911953D01*
X70933388Y-61882256D01*
X70769416Y-61814336D01*
X70621846Y-61715733D01*
X70496347Y-61590234D01*
X70397744Y-61442664D01*
X70329824Y-61278692D01*
X70295200Y-61104621D01*
X70295200Y-60927139D01*
X70329824Y-60753068D01*
X70397744Y-60589096D01*
X70496347Y-60441526D01*
X70621846Y-60316027D01*
X70769416Y-60217424D01*
X70933388Y-60149504D01*
X71082688Y-60119807D01*
X71107458Y-60114880D01*
X71284942Y-60114880D01*
X71309712Y-60119807D01*
G37*
G36*
X119149520Y-61151160D02*
G01*
X116247520Y-61151160D01*
X116247520Y-58249160D01*
X119149520Y-58249160D01*
X119149520Y-61151160D01*
G37*
G36*
X123121761Y-58304920D02*
G01*
X123385825Y-58414299D01*
X123623478Y-58573094D01*
X123825586Y-58775202D01*
X123984381Y-59012855D01*
X124093760Y-59276919D01*
X124149520Y-59557248D01*
X124149520Y-59843072D01*
X124093760Y-60123401D01*
X123984381Y-60387465D01*
X123825586Y-60625118D01*
X123623478Y-60827226D01*
X123385825Y-60986021D01*
X123121761Y-61095400D01*
X122841432Y-61151160D01*
X122555608Y-61151160D01*
X122275279Y-61095400D01*
X122011215Y-60986021D01*
X121773562Y-60827226D01*
X121571454Y-60625118D01*
X121412659Y-60387465D01*
X121303280Y-60123401D01*
X121247520Y-59843072D01*
X121247520Y-59557248D01*
X121303280Y-59276919D01*
X121412659Y-59012855D01*
X121571454Y-58775202D01*
X121773562Y-58573094D01*
X122011215Y-58414299D01*
X122275279Y-58304920D01*
X122555608Y-58249160D01*
X122841432Y-58249160D01*
X123121761Y-58304920D01*
G37*
G36*
X81359400Y-61049560D02*
G01*
X78457400Y-61049560D01*
X78457400Y-58147560D01*
X81359400Y-58147560D01*
X81359400Y-61049560D01*
G37*
G36*
X105997400Y-61049560D02*
G01*
X103095400Y-61049560D01*
X103095400Y-58147560D01*
X105997400Y-58147560D01*
X105997400Y-61049560D01*
G37*
G36*
X109969641Y-58203320D02*
G01*
X110233705Y-58312699D01*
X110471358Y-58471494D01*
X110673466Y-58673602D01*
X110832261Y-58911255D01*
X110941640Y-59175319D01*
X110997400Y-59455648D01*
X110997400Y-59741472D01*
X110941640Y-60021801D01*
X110832261Y-60285865D01*
X110673466Y-60523518D01*
X110471358Y-60725626D01*
X110233705Y-60884421D01*
X109969641Y-60993800D01*
X109689312Y-61049560D01*
X109403488Y-61049560D01*
X109123159Y-60993800D01*
X108859095Y-60884421D01*
X108621442Y-60725626D01*
X108419334Y-60523518D01*
X108260539Y-60285865D01*
X108151160Y-60021801D01*
X108095400Y-59741472D01*
X108095400Y-59455648D01*
X108151160Y-59175319D01*
X108260539Y-58911255D01*
X108419334Y-58673602D01*
X108621442Y-58471494D01*
X108859095Y-58312699D01*
X109123159Y-58203320D01*
X109403488Y-58147560D01*
X109689312Y-58147560D01*
X109969641Y-58203320D01*
G37*
G36*
X85331641Y-58203320D02*
G01*
X85595705Y-58312699D01*
X85833358Y-58471494D01*
X86035466Y-58673602D01*
X86194261Y-58911255D01*
X86303640Y-59175319D01*
X86359400Y-59455648D01*
X86359400Y-59741472D01*
X86303640Y-60021801D01*
X86194261Y-60285865D01*
X86035466Y-60523518D01*
X85833358Y-60725626D01*
X85595705Y-60884421D01*
X85331641Y-60993800D01*
X85051312Y-61049560D01*
X84765488Y-61049560D01*
X84485159Y-60993800D01*
X84221095Y-60884421D01*
X83983442Y-60725626D01*
X83781334Y-60523518D01*
X83622539Y-60285865D01*
X83513160Y-60021801D01*
X83457400Y-59741472D01*
X83457400Y-59455648D01*
X83513160Y-59175319D01*
X83622539Y-58911255D01*
X83781334Y-58673602D01*
X83983442Y-58471494D01*
X84221095Y-58312699D01*
X84485159Y-58203320D01*
X84765488Y-58147560D01*
X85051312Y-58147560D01*
X85331641Y-58203320D01*
G37*
G36*
X97996081Y-58203320D02*
G01*
X98260145Y-58312699D01*
X98497798Y-58471494D01*
X98699906Y-58673602D01*
X98858701Y-58911255D01*
X98968080Y-59175319D01*
X99023840Y-59455648D01*
X99023840Y-59741472D01*
X98968080Y-60021801D01*
X98858701Y-60285865D01*
X98699906Y-60523518D01*
X98497798Y-60725626D01*
X98260145Y-60884421D01*
X97996081Y-60993800D01*
X97715752Y-61049560D01*
X97429928Y-61049560D01*
X97149599Y-60993800D01*
X96885535Y-60884421D01*
X96647882Y-60725626D01*
X96445774Y-60523518D01*
X96286979Y-60285865D01*
X96177600Y-60021801D01*
X96121840Y-59741472D01*
X96121840Y-59455648D01*
X96177600Y-59175319D01*
X96286979Y-58911255D01*
X96445774Y-58673602D01*
X96647882Y-58471494D01*
X96885535Y-58312699D01*
X97149599Y-58203320D01*
X97429928Y-58147560D01*
X97715752Y-58147560D01*
X97996081Y-58203320D01*
G37*
G36*
X94023840Y-61049560D02*
G01*
X91121840Y-61049560D01*
X91121840Y-58147560D01*
X94023840Y-58147560D01*
X94023840Y-61049560D01*
G37*
G36*
X147380296Y-54413538D02*
G01*
X147486619Y-54434687D01*
X147787082Y-54559143D01*
X148057491Y-54739825D01*
X148287455Y-54969789D01*
X148468137Y-55240198D01*
X148592593Y-55540661D01*
X148656040Y-55859631D01*
X148656040Y-56184849D01*
X148592593Y-56503819D01*
X148468137Y-56804282D01*
X148287455Y-57074691D01*
X148057491Y-57304655D01*
X147787082Y-57485337D01*
X147486619Y-57609793D01*
X147380296Y-57630942D01*
X147167651Y-57673240D01*
X146842429Y-57673240D01*
X146629784Y-57630942D01*
X146523461Y-57609793D01*
X146222998Y-57485337D01*
X145952589Y-57304655D01*
X145722625Y-57074691D01*
X145541943Y-56804282D01*
X145417487Y-56503819D01*
X145354040Y-56184849D01*
X145354040Y-55859631D01*
X145417487Y-55540661D01*
X145541943Y-55240198D01*
X145722625Y-54969789D01*
X145952589Y-54739825D01*
X146222998Y-54559143D01*
X146523461Y-54434687D01*
X146629784Y-54413538D01*
X146842429Y-54371240D01*
X147167651Y-54371240D01*
X147380296Y-54413538D01*
G37*
G36*
X46623576Y-54413538D02*
G01*
X46729899Y-54434687D01*
X47030362Y-54559143D01*
X47300771Y-54739825D01*
X47530735Y-54969789D01*
X47711417Y-55240198D01*
X47835873Y-55540661D01*
X47899320Y-55859631D01*
X47899320Y-56184849D01*
X47835873Y-56503819D01*
X47711417Y-56804282D01*
X47530735Y-57074691D01*
X47300771Y-57304655D01*
X47030362Y-57485337D01*
X46729899Y-57609793D01*
X46623576Y-57630942D01*
X46410931Y-57673240D01*
X46085709Y-57673240D01*
X45873064Y-57630942D01*
X45766741Y-57609793D01*
X45466278Y-57485337D01*
X45195869Y-57304655D01*
X44965905Y-57074691D01*
X44785223Y-56804282D01*
X44660767Y-56503819D01*
X44597320Y-56184849D01*
X44597320Y-55859631D01*
X44660767Y-55540661D01*
X44785223Y-55240198D01*
X44965905Y-54969789D01*
X45195869Y-54739825D01*
X45466278Y-54559143D01*
X45766741Y-54434687D01*
X45873064Y-54413538D01*
X46085709Y-54371240D01*
X46410931Y-54371240D01*
X46623576Y-54413538D01*
G37*
M02*
