G04 #@! TF.GenerationSoftware,KiCad,Pcbnew,(5.1.5)-3*
G04 #@! TF.CreationDate,2020-05-13T11:32:24+02:00*
G04 #@! TF.ProjectId,vfo-pcb,76666f2d-7063-4622-9e6b-696361645f70,rev?*
G04 #@! TF.SameCoordinates,Original*
G04 #@! TF.FileFunction,Legend,Top*
G04 #@! TF.FilePolarity,Positive*
%FSLAX46Y46*%
G04 Gerber Fmt 4.6, Leading zero omitted, Abs format (unit mm)*
G04 Created by KiCad (PCBNEW (5.1.5)-3) date 2020-05-13 11:32:24*
%MOMM*%
%LPD*%
G04 APERTURE LIST*
%ADD10C,0.120000*%
%ADD11C,0.150000*%
G04 APERTURE END LIST*
D10*
X50225960Y-108097320D02*
X50251360Y-65374520D01*
X127406400Y-108036360D02*
X50225960Y-108097320D01*
X127426720Y-65318640D02*
X127406400Y-108036360D01*
X50251360Y-65374520D02*
X127426720Y-65318640D01*
X104364200Y-126459064D02*
X104364200Y-125254936D01*
X102544200Y-126459064D02*
X102544200Y-125254936D01*
X77049040Y-126753704D02*
X77049040Y-125549576D01*
X75229040Y-126753704D02*
X75229040Y-125549576D01*
X58173704Y-115005440D02*
X56969576Y-115005440D01*
X58173704Y-116825440D02*
X56969576Y-116825440D01*
X109476456Y-119736280D02*
X110680584Y-119736280D01*
X109476456Y-117916280D02*
X110680584Y-117916280D01*
X94470136Y-118486600D02*
X95674264Y-118486600D01*
X94470136Y-116666600D02*
X95674264Y-116666600D01*
X126687664Y-115025760D02*
X125483536Y-115025760D01*
X126687664Y-116845760D02*
X125483536Y-116845760D01*
X107855936Y-116480000D02*
X109060064Y-116480000D01*
X107855936Y-114660000D02*
X109060064Y-114660000D01*
X114158440Y-113266304D02*
X114158440Y-112062176D01*
X112338440Y-113266304D02*
X112338440Y-112062176D01*
X118730440Y-113256144D02*
X118730440Y-112052016D01*
X116910440Y-113256144D02*
X116910440Y-112052016D01*
X114661400Y-122257040D02*
X116071400Y-122257040D01*
X116071400Y-119937040D02*
X114041400Y-119937040D01*
X116071400Y-119937040D02*
X116071400Y-120597040D01*
X116071400Y-121597040D02*
X116071400Y-122257040D01*
X99771920Y-121820160D02*
X101181920Y-121820160D01*
X101181920Y-119500160D02*
X99151920Y-119500160D01*
X101181920Y-119500160D02*
X101181920Y-120160160D01*
X101181920Y-121160160D02*
X101181920Y-121820160D01*
X121441760Y-119881160D02*
X120031760Y-119881160D01*
X120031760Y-122201160D02*
X122061760Y-122201160D01*
X120031760Y-122201160D02*
X120031760Y-121541160D01*
X120031760Y-120541160D02*
X120031760Y-119881160D01*
X58983880Y-63377120D02*
X58983880Y-60717120D01*
X58983880Y-63377120D02*
X74283880Y-63377120D01*
X74283880Y-63377120D02*
X74283880Y-60717120D01*
X58983880Y-60717120D02*
X74283880Y-60717120D01*
X56383880Y-60717120D02*
X57713880Y-60717120D01*
X56383880Y-62047120D02*
X56383880Y-60717120D01*
D11*
X58182640Y-111259960D02*
X56957640Y-111259960D01*
X58182640Y-114384960D02*
X61532640Y-114384960D01*
X58182640Y-111034960D02*
X61532640Y-111034960D01*
X58182640Y-114384960D02*
X58182640Y-114084960D01*
X61532640Y-114384960D02*
X61532640Y-114084960D01*
X61532640Y-111034960D02*
X61532640Y-111334960D01*
X58182640Y-111034960D02*
X58182640Y-111259960D01*
D10*
X146537800Y-86809640D02*
G75*
G03X146537800Y-86809640I-4120000J0D01*
G01*
X138337800Y-86809640D02*
X146497800Y-86809640D01*
X138337800Y-86769640D02*
X146497800Y-86769640D01*
X138337800Y-86729640D02*
X146497800Y-86729640D01*
X138338800Y-86689640D02*
X146496800Y-86689640D01*
X138340800Y-86649640D02*
X146494800Y-86649640D01*
X138341800Y-86609640D02*
X146493800Y-86609640D01*
X138343800Y-86569640D02*
X146491800Y-86569640D01*
X138346800Y-86529640D02*
X146488800Y-86529640D01*
X138349800Y-86489640D02*
X146485800Y-86489640D01*
X138352800Y-86449640D02*
X146482800Y-86449640D01*
X138356800Y-86409640D02*
X146478800Y-86409640D01*
X138360800Y-86369640D02*
X146474800Y-86369640D01*
X138365800Y-86329640D02*
X146469800Y-86329640D01*
X138369800Y-86289640D02*
X146465800Y-86289640D01*
X138375800Y-86249640D02*
X146459800Y-86249640D01*
X138380800Y-86209640D02*
X146454800Y-86209640D01*
X138387800Y-86169640D02*
X146447800Y-86169640D01*
X138393800Y-86129640D02*
X146441800Y-86129640D01*
X138400800Y-86088640D02*
X141377800Y-86088640D01*
X143457800Y-86088640D02*
X146434800Y-86088640D01*
X138407800Y-86048640D02*
X141377800Y-86048640D01*
X143457800Y-86048640D02*
X146427800Y-86048640D01*
X138415800Y-86008640D02*
X141377800Y-86008640D01*
X143457800Y-86008640D02*
X146419800Y-86008640D01*
X138423800Y-85968640D02*
X141377800Y-85968640D01*
X143457800Y-85968640D02*
X146411800Y-85968640D01*
X138432800Y-85928640D02*
X141377800Y-85928640D01*
X143457800Y-85928640D02*
X146402800Y-85928640D01*
X138441800Y-85888640D02*
X141377800Y-85888640D01*
X143457800Y-85888640D02*
X146393800Y-85888640D01*
X138450800Y-85848640D02*
X141377800Y-85848640D01*
X143457800Y-85848640D02*
X146384800Y-85848640D01*
X138460800Y-85808640D02*
X141377800Y-85808640D01*
X143457800Y-85808640D02*
X146374800Y-85808640D01*
X138470800Y-85768640D02*
X141377800Y-85768640D01*
X143457800Y-85768640D02*
X146364800Y-85768640D01*
X138481800Y-85728640D02*
X141377800Y-85728640D01*
X143457800Y-85728640D02*
X146353800Y-85728640D01*
X138492800Y-85688640D02*
X141377800Y-85688640D01*
X143457800Y-85688640D02*
X146342800Y-85688640D01*
X138503800Y-85648640D02*
X141377800Y-85648640D01*
X143457800Y-85648640D02*
X146331800Y-85648640D01*
X138515800Y-85608640D02*
X141377800Y-85608640D01*
X143457800Y-85608640D02*
X146319800Y-85608640D01*
X138528800Y-85568640D02*
X141377800Y-85568640D01*
X143457800Y-85568640D02*
X146306800Y-85568640D01*
X138540800Y-85528640D02*
X141377800Y-85528640D01*
X143457800Y-85528640D02*
X146294800Y-85528640D01*
X138554800Y-85488640D02*
X141377800Y-85488640D01*
X143457800Y-85488640D02*
X146280800Y-85488640D01*
X138567800Y-85448640D02*
X141377800Y-85448640D01*
X143457800Y-85448640D02*
X146267800Y-85448640D01*
X138582800Y-85408640D02*
X141377800Y-85408640D01*
X143457800Y-85408640D02*
X146252800Y-85408640D01*
X138596800Y-85368640D02*
X141377800Y-85368640D01*
X143457800Y-85368640D02*
X146238800Y-85368640D01*
X138612800Y-85328640D02*
X141377800Y-85328640D01*
X143457800Y-85328640D02*
X146222800Y-85328640D01*
X138627800Y-85288640D02*
X141377800Y-85288640D01*
X143457800Y-85288640D02*
X146207800Y-85288640D01*
X138643800Y-85248640D02*
X141377800Y-85248640D01*
X143457800Y-85248640D02*
X146191800Y-85248640D01*
X138660800Y-85208640D02*
X141377800Y-85208640D01*
X143457800Y-85208640D02*
X146174800Y-85208640D01*
X138677800Y-85168640D02*
X141377800Y-85168640D01*
X143457800Y-85168640D02*
X146157800Y-85168640D01*
X138695800Y-85128640D02*
X141377800Y-85128640D01*
X143457800Y-85128640D02*
X146139800Y-85128640D01*
X138713800Y-85088640D02*
X141377800Y-85088640D01*
X143457800Y-85088640D02*
X146121800Y-85088640D01*
X138731800Y-85048640D02*
X141377800Y-85048640D01*
X143457800Y-85048640D02*
X146103800Y-85048640D01*
X138751800Y-85008640D02*
X141377800Y-85008640D01*
X143457800Y-85008640D02*
X146083800Y-85008640D01*
X138770800Y-84968640D02*
X141377800Y-84968640D01*
X143457800Y-84968640D02*
X146064800Y-84968640D01*
X138790800Y-84928640D02*
X141377800Y-84928640D01*
X143457800Y-84928640D02*
X146044800Y-84928640D01*
X138811800Y-84888640D02*
X141377800Y-84888640D01*
X143457800Y-84888640D02*
X146023800Y-84888640D01*
X138833800Y-84848640D02*
X141377800Y-84848640D01*
X143457800Y-84848640D02*
X146001800Y-84848640D01*
X138855800Y-84808640D02*
X141377800Y-84808640D01*
X143457800Y-84808640D02*
X145979800Y-84808640D01*
X138877800Y-84768640D02*
X141377800Y-84768640D01*
X143457800Y-84768640D02*
X145957800Y-84768640D01*
X138900800Y-84728640D02*
X141377800Y-84728640D01*
X143457800Y-84728640D02*
X145934800Y-84728640D01*
X138924800Y-84688640D02*
X141377800Y-84688640D01*
X143457800Y-84688640D02*
X145910800Y-84688640D01*
X138948800Y-84648640D02*
X141377800Y-84648640D01*
X143457800Y-84648640D02*
X145886800Y-84648640D01*
X138973800Y-84608640D02*
X141377800Y-84608640D01*
X143457800Y-84608640D02*
X145861800Y-84608640D01*
X138999800Y-84568640D02*
X141377800Y-84568640D01*
X143457800Y-84568640D02*
X145835800Y-84568640D01*
X139025800Y-84528640D02*
X141377800Y-84528640D01*
X143457800Y-84528640D02*
X145809800Y-84528640D01*
X139052800Y-84488640D02*
X141377800Y-84488640D01*
X143457800Y-84488640D02*
X145782800Y-84488640D01*
X139079800Y-84448640D02*
X141377800Y-84448640D01*
X143457800Y-84448640D02*
X145755800Y-84448640D01*
X139108800Y-84408640D02*
X141377800Y-84408640D01*
X143457800Y-84408640D02*
X145726800Y-84408640D01*
X139137800Y-84368640D02*
X141377800Y-84368640D01*
X143457800Y-84368640D02*
X145697800Y-84368640D01*
X139167800Y-84328640D02*
X141377800Y-84328640D01*
X143457800Y-84328640D02*
X145667800Y-84328640D01*
X139197800Y-84288640D02*
X141377800Y-84288640D01*
X143457800Y-84288640D02*
X145637800Y-84288640D01*
X139228800Y-84248640D02*
X141377800Y-84248640D01*
X143457800Y-84248640D02*
X145606800Y-84248640D01*
X139261800Y-84208640D02*
X141377800Y-84208640D01*
X143457800Y-84208640D02*
X145573800Y-84208640D01*
X139293800Y-84168640D02*
X141377800Y-84168640D01*
X143457800Y-84168640D02*
X145541800Y-84168640D01*
X139327800Y-84128640D02*
X141377800Y-84128640D01*
X143457800Y-84128640D02*
X145507800Y-84128640D01*
X139362800Y-84088640D02*
X141377800Y-84088640D01*
X143457800Y-84088640D02*
X145472800Y-84088640D01*
X139398800Y-84048640D02*
X141377800Y-84048640D01*
X143457800Y-84048640D02*
X145436800Y-84048640D01*
X139434800Y-84008640D02*
X145400800Y-84008640D01*
X139472800Y-83968640D02*
X145362800Y-83968640D01*
X139510800Y-83928640D02*
X145324800Y-83928640D01*
X139550800Y-83888640D02*
X145284800Y-83888640D01*
X139591800Y-83848640D02*
X145243800Y-83848640D01*
X139633800Y-83808640D02*
X145201800Y-83808640D01*
X139676800Y-83768640D02*
X145158800Y-83768640D01*
X139720800Y-83728640D02*
X145114800Y-83728640D01*
X139766800Y-83688640D02*
X145068800Y-83688640D01*
X139813800Y-83648640D02*
X145021800Y-83648640D01*
X139861800Y-83608640D02*
X144973800Y-83608640D01*
X139912800Y-83568640D02*
X144922800Y-83568640D01*
X139963800Y-83528640D02*
X144871800Y-83528640D01*
X140017800Y-83488640D02*
X144817800Y-83488640D01*
X140072800Y-83448640D02*
X144762800Y-83448640D01*
X140130800Y-83408640D02*
X144704800Y-83408640D01*
X140189800Y-83368640D02*
X144645800Y-83368640D01*
X140251800Y-83328640D02*
X144583800Y-83328640D01*
X140315800Y-83288640D02*
X144519800Y-83288640D01*
X140383800Y-83248640D02*
X144451800Y-83248640D01*
X140453800Y-83208640D02*
X144381800Y-83208640D01*
X140527800Y-83168640D02*
X144307800Y-83168640D01*
X140604800Y-83128640D02*
X144230800Y-83128640D01*
X140686800Y-83088640D02*
X144148800Y-83088640D01*
X140772800Y-83048640D02*
X144062800Y-83048640D01*
X140865800Y-83008640D02*
X143969800Y-83008640D01*
X140964800Y-82968640D02*
X143870800Y-82968640D01*
X141071800Y-82928640D02*
X143763800Y-82928640D01*
X141188800Y-82888640D02*
X143646800Y-82888640D01*
X141319800Y-82848640D02*
X143515800Y-82848640D01*
X141469800Y-82808640D02*
X143365800Y-82808640D01*
X141649800Y-82768640D02*
X143185800Y-82768640D01*
X141884800Y-82728640D02*
X142950800Y-82728640D01*
X140102800Y-91219338D02*
X140102800Y-90419338D01*
X139702800Y-90819338D02*
X140502800Y-90819338D01*
X65273880Y-98983800D02*
X65273880Y-97653800D01*
X65273880Y-97653800D02*
X66603880Y-97653800D01*
X67873880Y-97653800D02*
X113653880Y-97653800D01*
X113653880Y-100313800D02*
X113653880Y-97653800D01*
X67873880Y-100313800D02*
X113653880Y-100313800D01*
X67873880Y-100313800D02*
X67873880Y-97653800D01*
X67873880Y-75313800D02*
X67873880Y-72653800D01*
X67873880Y-75313800D02*
X113653880Y-75313800D01*
X113653880Y-75313800D02*
X113653880Y-72653800D01*
X67873880Y-72653800D02*
X113653880Y-72653800D01*
X65273880Y-72653800D02*
X66603880Y-72653800D01*
X65273880Y-73983800D02*
X65273880Y-72653800D01*
X105241901Y-61237059D02*
G75*
G02X104546400Y-61378560I-695501J1638499D01*
G01*
X106185605Y-58903044D02*
G75*
G02X106185400Y-60294560I-1639205J-695516D01*
G01*
X103850884Y-57959355D02*
G75*
G02X105242400Y-57959560I695516J-1639205D01*
G01*
X102907195Y-60294076D02*
G75*
G02X102907400Y-58902560I1639205J695516D01*
G01*
X104577214Y-61378949D02*
G75*
G02X103850400Y-61237560I-30814J1780389D01*
G01*
X111326400Y-59598560D02*
G75*
G03X111326400Y-59598560I-1780000J0D01*
G01*
X101986400Y-61598560D02*
X112106400Y-61598560D01*
X101986400Y-57598560D02*
X112106400Y-57598560D01*
X101986400Y-56598560D02*
X112106400Y-56598560D01*
X101986400Y-53038560D02*
X112106400Y-53038560D01*
X101986400Y-63658560D02*
X112106400Y-63658560D01*
X101986400Y-53038560D02*
X101986400Y-63658560D01*
X112106400Y-53038560D02*
X112106400Y-63658560D01*
X110896400Y-58465560D02*
X110847400Y-58515560D01*
X108438400Y-60923560D02*
X108414400Y-60948560D01*
X110679400Y-58248560D02*
X110654400Y-58272560D01*
X108246400Y-60681560D02*
X108196400Y-60731560D01*
X101746400Y-61658560D02*
X101746400Y-63898560D01*
X101746400Y-63898560D02*
X103746400Y-63898560D01*
X77108400Y-63898560D02*
X79108400Y-63898560D01*
X77108400Y-61658560D02*
X77108400Y-63898560D01*
X83608400Y-60681560D02*
X83558400Y-60731560D01*
X86041400Y-58248560D02*
X86016400Y-58272560D01*
X83800400Y-60923560D02*
X83776400Y-60948560D01*
X86258400Y-58465560D02*
X86209400Y-58515560D01*
X87468400Y-53038560D02*
X87468400Y-63658560D01*
X77348400Y-53038560D02*
X77348400Y-63658560D01*
X77348400Y-63658560D02*
X87468400Y-63658560D01*
X77348400Y-53038560D02*
X87468400Y-53038560D01*
X77348400Y-56598560D02*
X87468400Y-56598560D01*
X77348400Y-57598560D02*
X87468400Y-57598560D01*
X77348400Y-61598560D02*
X87468400Y-61598560D01*
X86688400Y-59598560D02*
G75*
G03X86688400Y-59598560I-1780000J0D01*
G01*
X79939214Y-61378949D02*
G75*
G02X79212400Y-61237560I-30814J1780389D01*
G01*
X78269195Y-60294076D02*
G75*
G02X78269400Y-58902560I1639205J695516D01*
G01*
X79212884Y-57959355D02*
G75*
G02X80604400Y-57959560I695516J-1639205D01*
G01*
X81547605Y-58903044D02*
G75*
G02X81547400Y-60294560I-1639205J-695516D01*
G01*
X80603901Y-61237059D02*
G75*
G02X79908400Y-61378560I-695501J1638499D01*
G01*
X89772840Y-63898560D02*
X91772840Y-63898560D01*
X89772840Y-61658560D02*
X89772840Y-63898560D01*
X96272840Y-60681560D02*
X96222840Y-60731560D01*
X98705840Y-58248560D02*
X98680840Y-58272560D01*
X96464840Y-60923560D02*
X96440840Y-60948560D01*
X98922840Y-58465560D02*
X98873840Y-58515560D01*
X100132840Y-53038560D02*
X100132840Y-63658560D01*
X90012840Y-53038560D02*
X90012840Y-63658560D01*
X90012840Y-63658560D02*
X100132840Y-63658560D01*
X90012840Y-53038560D02*
X100132840Y-53038560D01*
X90012840Y-56598560D02*
X100132840Y-56598560D01*
X90012840Y-57598560D02*
X100132840Y-57598560D01*
X90012840Y-61598560D02*
X100132840Y-61598560D01*
X99352840Y-59598560D02*
G75*
G03X99352840Y-59598560I-1780000J0D01*
G01*
X92603654Y-61378949D02*
G75*
G02X91876840Y-61237560I-30814J1780389D01*
G01*
X90933635Y-60294076D02*
G75*
G02X90933840Y-58902560I1639205J695516D01*
G01*
X91877324Y-57959355D02*
G75*
G02X93268840Y-57959560I695516J-1639205D01*
G01*
X94212045Y-58903044D02*
G75*
G02X94211840Y-60294560I-1639205J-695516D01*
G01*
X93268341Y-61237059D02*
G75*
G02X92572840Y-61378560I-695501J1638499D01*
G01*
X118394021Y-61338659D02*
G75*
G02X117698520Y-61480160I-695501J1638499D01*
G01*
X119337725Y-59004644D02*
G75*
G02X119337520Y-60396160I-1639205J-695516D01*
G01*
X117003004Y-58060955D02*
G75*
G02X118394520Y-58061160I695516J-1639205D01*
G01*
X116059315Y-60395676D02*
G75*
G02X116059520Y-59004160I1639205J695516D01*
G01*
X117729334Y-61480549D02*
G75*
G02X117002520Y-61339160I-30814J1780389D01*
G01*
X124478520Y-59700160D02*
G75*
G03X124478520Y-59700160I-1780000J0D01*
G01*
X115138520Y-61700160D02*
X125258520Y-61700160D01*
X115138520Y-57700160D02*
X125258520Y-57700160D01*
X115138520Y-56700160D02*
X125258520Y-56700160D01*
X115138520Y-53140160D02*
X125258520Y-53140160D01*
X115138520Y-63760160D02*
X125258520Y-63760160D01*
X115138520Y-53140160D02*
X115138520Y-63760160D01*
X125258520Y-53140160D02*
X125258520Y-63760160D01*
X124048520Y-58567160D02*
X123999520Y-58617160D01*
X121590520Y-61025160D02*
X121566520Y-61050160D01*
X123831520Y-58350160D02*
X123806520Y-58374160D01*
X121398520Y-60783160D02*
X121348520Y-60833160D01*
X114898520Y-61760160D02*
X114898520Y-64000160D01*
X114898520Y-64000160D02*
X116898520Y-64000160D01*
X140602720Y-105029640D02*
X140602720Y-115269640D01*
X135961720Y-105029640D02*
X135961720Y-115269640D01*
X140602720Y-105029640D02*
X135961720Y-105029640D01*
X140602720Y-115269640D02*
X135961720Y-115269640D01*
X139092720Y-105029640D02*
X139092720Y-115269640D01*
X140602720Y-108299640D02*
X139092720Y-108299640D01*
X140602720Y-112000640D02*
X139092720Y-112000640D01*
X76062840Y-70321480D02*
X76062840Y-67661480D01*
X76062840Y-70321480D02*
X91362840Y-70321480D01*
X91362840Y-70321480D02*
X91362840Y-67661480D01*
X76062840Y-67661480D02*
X91362840Y-67661480D01*
X73462840Y-67661480D02*
X74792840Y-67661480D01*
X73462840Y-68991480D02*
X73462840Y-67661480D01*
X136163418Y-89171520D02*
X136163418Y-88371520D01*
X136563418Y-88771520D02*
X135763418Y-88771520D01*
X128072720Y-86989520D02*
X128072720Y-85923520D01*
X128112720Y-87224520D02*
X128112720Y-85688520D01*
X128152720Y-87404520D02*
X128152720Y-85508520D01*
X128192720Y-87554520D02*
X128192720Y-85358520D01*
X128232720Y-87685520D02*
X128232720Y-85227520D01*
X128272720Y-87802520D02*
X128272720Y-85110520D01*
X128312720Y-87909520D02*
X128312720Y-85003520D01*
X128352720Y-88008520D02*
X128352720Y-84904520D01*
X128392720Y-88101520D02*
X128392720Y-84811520D01*
X128432720Y-88187520D02*
X128432720Y-84725520D01*
X128472720Y-88269520D02*
X128472720Y-84643520D01*
X128512720Y-88346520D02*
X128512720Y-84566520D01*
X128552720Y-88420520D02*
X128552720Y-84492520D01*
X128592720Y-88490520D02*
X128592720Y-84422520D01*
X128632720Y-88558520D02*
X128632720Y-84354520D01*
X128672720Y-88622520D02*
X128672720Y-84290520D01*
X128712720Y-88684520D02*
X128712720Y-84228520D01*
X128752720Y-88743520D02*
X128752720Y-84169520D01*
X128792720Y-88801520D02*
X128792720Y-84111520D01*
X128832720Y-88856520D02*
X128832720Y-84056520D01*
X128872720Y-88910520D02*
X128872720Y-84002520D01*
X128912720Y-88961520D02*
X128912720Y-83951520D01*
X128952720Y-89012520D02*
X128952720Y-83900520D01*
X128992720Y-89060520D02*
X128992720Y-83852520D01*
X129032720Y-89107520D02*
X129032720Y-83805520D01*
X129072720Y-89153520D02*
X129072720Y-83759520D01*
X129112720Y-89197520D02*
X129112720Y-83715520D01*
X129152720Y-89240520D02*
X129152720Y-83672520D01*
X129192720Y-89282520D02*
X129192720Y-83630520D01*
X129232720Y-89323520D02*
X129232720Y-83589520D01*
X129272720Y-89363520D02*
X129272720Y-83549520D01*
X129312720Y-89401520D02*
X129312720Y-83511520D01*
X129352720Y-89439520D02*
X129352720Y-83473520D01*
X129392720Y-85416520D02*
X129392720Y-83437520D01*
X129392720Y-89475520D02*
X129392720Y-87496520D01*
X129432720Y-85416520D02*
X129432720Y-83401520D01*
X129432720Y-89511520D02*
X129432720Y-87496520D01*
X129472720Y-85416520D02*
X129472720Y-83366520D01*
X129472720Y-89546520D02*
X129472720Y-87496520D01*
X129512720Y-85416520D02*
X129512720Y-83332520D01*
X129512720Y-89580520D02*
X129512720Y-87496520D01*
X129552720Y-85416520D02*
X129552720Y-83300520D01*
X129552720Y-89612520D02*
X129552720Y-87496520D01*
X129592720Y-85416520D02*
X129592720Y-83267520D01*
X129592720Y-89645520D02*
X129592720Y-87496520D01*
X129632720Y-85416520D02*
X129632720Y-83236520D01*
X129632720Y-89676520D02*
X129632720Y-87496520D01*
X129672720Y-85416520D02*
X129672720Y-83206520D01*
X129672720Y-89706520D02*
X129672720Y-87496520D01*
X129712720Y-85416520D02*
X129712720Y-83176520D01*
X129712720Y-89736520D02*
X129712720Y-87496520D01*
X129752720Y-85416520D02*
X129752720Y-83147520D01*
X129752720Y-89765520D02*
X129752720Y-87496520D01*
X129792720Y-85416520D02*
X129792720Y-83118520D01*
X129792720Y-89794520D02*
X129792720Y-87496520D01*
X129832720Y-85416520D02*
X129832720Y-83091520D01*
X129832720Y-89821520D02*
X129832720Y-87496520D01*
X129872720Y-85416520D02*
X129872720Y-83064520D01*
X129872720Y-89848520D02*
X129872720Y-87496520D01*
X129912720Y-85416520D02*
X129912720Y-83038520D01*
X129912720Y-89874520D02*
X129912720Y-87496520D01*
X129952720Y-85416520D02*
X129952720Y-83012520D01*
X129952720Y-89900520D02*
X129952720Y-87496520D01*
X129992720Y-85416520D02*
X129992720Y-82987520D01*
X129992720Y-89925520D02*
X129992720Y-87496520D01*
X130032720Y-85416520D02*
X130032720Y-82963520D01*
X130032720Y-89949520D02*
X130032720Y-87496520D01*
X130072720Y-85416520D02*
X130072720Y-82939520D01*
X130072720Y-89973520D02*
X130072720Y-87496520D01*
X130112720Y-85416520D02*
X130112720Y-82916520D01*
X130112720Y-89996520D02*
X130112720Y-87496520D01*
X130152720Y-85416520D02*
X130152720Y-82894520D01*
X130152720Y-90018520D02*
X130152720Y-87496520D01*
X130192720Y-85416520D02*
X130192720Y-82872520D01*
X130192720Y-90040520D02*
X130192720Y-87496520D01*
X130232720Y-85416520D02*
X130232720Y-82850520D01*
X130232720Y-90062520D02*
X130232720Y-87496520D01*
X130272720Y-85416520D02*
X130272720Y-82829520D01*
X130272720Y-90083520D02*
X130272720Y-87496520D01*
X130312720Y-85416520D02*
X130312720Y-82809520D01*
X130312720Y-90103520D02*
X130312720Y-87496520D01*
X130352720Y-85416520D02*
X130352720Y-82790520D01*
X130352720Y-90122520D02*
X130352720Y-87496520D01*
X130392720Y-85416520D02*
X130392720Y-82770520D01*
X130392720Y-90142520D02*
X130392720Y-87496520D01*
X130432720Y-85416520D02*
X130432720Y-82752520D01*
X130432720Y-90160520D02*
X130432720Y-87496520D01*
X130472720Y-85416520D02*
X130472720Y-82734520D01*
X130472720Y-90178520D02*
X130472720Y-87496520D01*
X130512720Y-85416520D02*
X130512720Y-82716520D01*
X130512720Y-90196520D02*
X130512720Y-87496520D01*
X130552720Y-85416520D02*
X130552720Y-82699520D01*
X130552720Y-90213520D02*
X130552720Y-87496520D01*
X130592720Y-85416520D02*
X130592720Y-82682520D01*
X130592720Y-90230520D02*
X130592720Y-87496520D01*
X130632720Y-85416520D02*
X130632720Y-82666520D01*
X130632720Y-90246520D02*
X130632720Y-87496520D01*
X130672720Y-85416520D02*
X130672720Y-82651520D01*
X130672720Y-90261520D02*
X130672720Y-87496520D01*
X130712720Y-85416520D02*
X130712720Y-82635520D01*
X130712720Y-90277520D02*
X130712720Y-87496520D01*
X130752720Y-85416520D02*
X130752720Y-82621520D01*
X130752720Y-90291520D02*
X130752720Y-87496520D01*
X130792720Y-85416520D02*
X130792720Y-82606520D01*
X130792720Y-90306520D02*
X130792720Y-87496520D01*
X130832720Y-85416520D02*
X130832720Y-82593520D01*
X130832720Y-90319520D02*
X130832720Y-87496520D01*
X130872720Y-85416520D02*
X130872720Y-82579520D01*
X130872720Y-90333520D02*
X130872720Y-87496520D01*
X130912720Y-85416520D02*
X130912720Y-82567520D01*
X130912720Y-90345520D02*
X130912720Y-87496520D01*
X130952720Y-85416520D02*
X130952720Y-82554520D01*
X130952720Y-90358520D02*
X130952720Y-87496520D01*
X130992720Y-85416520D02*
X130992720Y-82542520D01*
X130992720Y-90370520D02*
X130992720Y-87496520D01*
X131032720Y-85416520D02*
X131032720Y-82531520D01*
X131032720Y-90381520D02*
X131032720Y-87496520D01*
X131072720Y-85416520D02*
X131072720Y-82520520D01*
X131072720Y-90392520D02*
X131072720Y-87496520D01*
X131112720Y-85416520D02*
X131112720Y-82509520D01*
X131112720Y-90403520D02*
X131112720Y-87496520D01*
X131152720Y-85416520D02*
X131152720Y-82499520D01*
X131152720Y-90413520D02*
X131152720Y-87496520D01*
X131192720Y-85416520D02*
X131192720Y-82489520D01*
X131192720Y-90423520D02*
X131192720Y-87496520D01*
X131232720Y-85416520D02*
X131232720Y-82480520D01*
X131232720Y-90432520D02*
X131232720Y-87496520D01*
X131272720Y-85416520D02*
X131272720Y-82471520D01*
X131272720Y-90441520D02*
X131272720Y-87496520D01*
X131312720Y-85416520D02*
X131312720Y-82462520D01*
X131312720Y-90450520D02*
X131312720Y-87496520D01*
X131352720Y-85416520D02*
X131352720Y-82454520D01*
X131352720Y-90458520D02*
X131352720Y-87496520D01*
X131392720Y-85416520D02*
X131392720Y-82446520D01*
X131392720Y-90466520D02*
X131392720Y-87496520D01*
X131432720Y-85416520D02*
X131432720Y-82439520D01*
X131432720Y-90473520D02*
X131432720Y-87496520D01*
X131473720Y-90480520D02*
X131473720Y-82432520D01*
X131513720Y-90486520D02*
X131513720Y-82426520D01*
X131553720Y-90493520D02*
X131553720Y-82419520D01*
X131593720Y-90498520D02*
X131593720Y-82414520D01*
X131633720Y-90504520D02*
X131633720Y-82408520D01*
X131673720Y-90508520D02*
X131673720Y-82404520D01*
X131713720Y-90513520D02*
X131713720Y-82399520D01*
X131753720Y-90517520D02*
X131753720Y-82395520D01*
X131793720Y-90521520D02*
X131793720Y-82391520D01*
X131833720Y-90524520D02*
X131833720Y-82388520D01*
X131873720Y-90527520D02*
X131873720Y-82385520D01*
X131913720Y-90530520D02*
X131913720Y-82382520D01*
X131953720Y-90532520D02*
X131953720Y-82380520D01*
X131993720Y-90533520D02*
X131993720Y-82379520D01*
X132033720Y-90535520D02*
X132033720Y-82377520D01*
X132073720Y-90536520D02*
X132073720Y-82376520D01*
X132113720Y-90536520D02*
X132113720Y-82376520D01*
X132153720Y-90536520D02*
X132153720Y-82376520D01*
X136273720Y-86456520D02*
G75*
G03X136273720Y-86456520I-4120000J0D01*
G01*
X105498816Y-93183120D02*
X106702944Y-93183120D01*
X105498816Y-91363120D02*
X106702944Y-91363120D01*
X101262264Y-93158880D02*
X100058136Y-93158880D01*
X101262264Y-91338880D02*
X100058136Y-91338880D01*
X124772504Y-85375160D02*
X123568376Y-85375160D01*
X124772504Y-83555160D02*
X123568376Y-83555160D01*
X124813144Y-89891280D02*
X123609016Y-89891280D01*
X124813144Y-88071280D02*
X123609016Y-88071280D01*
X122198720Y-78249696D02*
X122198720Y-79453824D01*
X124018720Y-78249696D02*
X124018720Y-79453824D01*
X103866360Y-80002464D02*
X103866360Y-78798336D01*
X102046360Y-80002464D02*
X102046360Y-78798336D01*
X98175400Y-80002464D02*
X98175400Y-78798336D01*
X99995400Y-80002464D02*
X99995400Y-78798336D01*
X109237864Y-67651040D02*
X108033736Y-67651040D01*
X109237864Y-65831040D02*
X108033736Y-65831040D01*
X117492696Y-83534840D02*
X118696824Y-83534840D01*
X117492696Y-85354840D02*
X118696824Y-85354840D01*
X117446976Y-89901440D02*
X118651104Y-89901440D01*
X117446976Y-88081440D02*
X118651104Y-88081440D01*
X117645096Y-78917120D02*
X118849224Y-78917120D01*
X117645096Y-80737120D02*
X118849224Y-80737120D01*
X112419720Y-85773344D02*
X112419720Y-84569216D01*
X114239720Y-85773344D02*
X114239720Y-84569216D01*
X114249880Y-91081944D02*
X114249880Y-89877816D01*
X112429880Y-91081944D02*
X112429880Y-89877816D01*
X112495920Y-80175184D02*
X112495920Y-78971056D01*
X114315920Y-80175184D02*
X114315920Y-78971056D01*
X101721240Y-106088096D02*
X101721240Y-107292224D01*
X103541240Y-106088096D02*
X103541240Y-107292224D01*
X51945456Y-109265040D02*
X53149584Y-109265040D01*
X51945456Y-111085040D02*
X53149584Y-111085040D01*
X125447976Y-121290760D02*
X126652104Y-121290760D01*
X125447976Y-119470760D02*
X126652104Y-119470760D01*
X110619624Y-122799520D02*
X109415496Y-122799520D01*
X110619624Y-120979520D02*
X109415496Y-120979520D01*
X95714904Y-119907640D02*
X94510776Y-119907640D01*
X95714904Y-121727640D02*
X94510776Y-121727640D01*
X67424216Y-120085440D02*
X68628344Y-120085440D01*
X67424216Y-121905440D02*
X68628344Y-121905440D01*
X80911616Y-122027360D02*
X82115744Y-122027360D01*
X80911616Y-120207360D02*
X82115744Y-120207360D01*
X55085064Y-122901120D02*
X53880936Y-122901120D01*
X55085064Y-121081120D02*
X53880936Y-121081120D01*
X119586200Y-125794360D02*
X119586200Y-129394360D01*
X126946200Y-125794360D02*
X126946200Y-129394360D01*
X121466200Y-131274360D02*
X125066200Y-131274360D01*
X121466200Y-123914360D02*
X125066200Y-123914360D01*
X107211320Y-125794360D02*
X107211320Y-129394360D01*
X114571320Y-125794360D02*
X114571320Y-129394360D01*
X109091320Y-131274360D02*
X112691320Y-131274360D01*
X109091320Y-123914360D02*
X112691320Y-123914360D01*
X93881400Y-125794360D02*
X93881400Y-129394360D01*
X101241400Y-125794360D02*
X101241400Y-129394360D01*
X95761400Y-131274360D02*
X99361400Y-131274360D01*
X95761400Y-123914360D02*
X99361400Y-123914360D01*
X81205168Y-123914360D02*
X84805168Y-123914360D01*
X81205168Y-131274360D02*
X84805168Y-131274360D01*
X86685168Y-125794360D02*
X86685168Y-129394360D01*
X79325168Y-125794360D02*
X79325168Y-129394360D01*
X67784824Y-123914360D02*
X71384824Y-123914360D01*
X67784824Y-131274360D02*
X71384824Y-131274360D01*
X73264824Y-125794360D02*
X73264824Y-129394360D01*
X65904824Y-125794360D02*
X65904824Y-129394360D01*
X54364480Y-123914360D02*
X57964480Y-123914360D01*
X54364480Y-131274360D02*
X57964480Y-131274360D01*
X59844480Y-125794360D02*
X59844480Y-129394360D01*
X52484480Y-125794360D02*
X52484480Y-129394360D01*
D11*
X103160960Y-109998640D02*
X103160960Y-110223640D01*
X106510960Y-109998640D02*
X106510960Y-110298640D01*
X106510960Y-113348640D02*
X106510960Y-113048640D01*
X103160960Y-113348640D02*
X103160960Y-113048640D01*
X103160960Y-109998640D02*
X106510960Y-109998640D01*
X103160960Y-113348640D02*
X106510960Y-113348640D01*
X103160960Y-110223640D02*
X101935960Y-110223640D01*
D10*
X95118360Y-113118880D02*
X99618360Y-113118880D01*
X99618360Y-113118880D02*
X99618360Y-107718880D01*
X52821400Y-117264160D02*
X52821400Y-111864160D01*
X48321400Y-117264160D02*
X52821400Y-117264160D01*
X65778464Y-80747280D02*
X64574336Y-80747280D01*
X65778464Y-78927280D02*
X64574336Y-78927280D01*
X64614976Y-85207520D02*
X65819104Y-85207520D01*
X64614976Y-83387520D02*
X65819104Y-83387520D01*
X65481120Y-93828920D02*
X65481120Y-92568920D01*
X65481120Y-87008920D02*
X65481120Y-88268920D01*
X61721120Y-93828920D02*
X65481120Y-93828920D01*
X59471120Y-87008920D02*
X65481120Y-87008920D01*
X75699536Y-103489080D02*
X76903664Y-103489080D01*
X75699536Y-105309080D02*
X76903664Y-105309080D01*
X70309824Y-103489080D02*
X69105696Y-103489080D01*
X70309824Y-105309080D02*
X69105696Y-105309080D01*
X75185520Y-120459880D02*
X75185520Y-119799880D01*
X75185520Y-122119880D02*
X75185520Y-121459880D01*
X75185520Y-122119880D02*
X77215520Y-122119880D01*
X76595520Y-119799880D02*
X75185520Y-119799880D01*
X60039000Y-122242200D02*
X60039000Y-122902200D01*
X60039000Y-120582200D02*
X60039000Y-121242200D01*
X60039000Y-120582200D02*
X58009000Y-120582200D01*
X58629000Y-122902200D02*
X60039000Y-122902200D01*
X66914480Y-118157480D02*
X68324480Y-118157480D01*
X68324480Y-115837480D02*
X66294480Y-115837480D01*
X68324480Y-115837480D02*
X68324480Y-116497480D01*
X68324480Y-117497480D02*
X68324480Y-118157480D01*
X74160464Y-110922480D02*
X72956336Y-110922480D01*
X74160464Y-109102480D02*
X72956336Y-109102480D01*
X67458000Y-112920864D02*
X67458000Y-111716736D01*
X65638000Y-112920864D02*
X65638000Y-111716736D01*
X59448616Y-118226160D02*
X60652744Y-118226160D01*
X59448616Y-120046160D02*
X60652744Y-120046160D01*
X78976304Y-117633160D02*
X77772176Y-117633160D01*
X78976304Y-115813160D02*
X77772176Y-115813160D01*
X53880936Y-120310320D02*
X55085064Y-120310320D01*
X53880936Y-118490320D02*
X55085064Y-118490320D01*
X63057360Y-116720536D02*
X63057360Y-117924664D01*
X64877360Y-116720536D02*
X64877360Y-117924664D01*
X100681200Y-115704536D02*
X100681200Y-116908664D01*
X98861200Y-115704536D02*
X98861200Y-116908664D01*
X116625960Y-126489544D02*
X116625960Y-125285416D01*
X118445960Y-126489544D02*
X118445960Y-125285416D01*
X63896920Y-126626704D02*
X63896920Y-125422576D01*
X62076920Y-126626704D02*
X62076920Y-125422576D01*
D11*
X101991342Y-126499857D02*
X102038961Y-126547476D01*
X102086580Y-126690333D01*
X102086580Y-126785571D01*
X102038961Y-126928428D01*
X101943723Y-127023666D01*
X101848485Y-127071285D01*
X101658009Y-127118904D01*
X101515152Y-127118904D01*
X101324676Y-127071285D01*
X101229438Y-127023666D01*
X101134200Y-126928428D01*
X101086580Y-126785571D01*
X101086580Y-126690333D01*
X101134200Y-126547476D01*
X101181819Y-126499857D01*
X101181819Y-126118904D02*
X101134200Y-126071285D01*
X101086580Y-125976047D01*
X101086580Y-125737952D01*
X101134200Y-125642714D01*
X101181819Y-125595095D01*
X101277057Y-125547476D01*
X101372295Y-125547476D01*
X101515152Y-125595095D01*
X102086580Y-126166523D01*
X102086580Y-125547476D01*
X101086580Y-125214142D02*
X101086580Y-124595095D01*
X101467533Y-124928428D01*
X101467533Y-124785571D01*
X101515152Y-124690333D01*
X101562771Y-124642714D01*
X101658009Y-124595095D01*
X101896104Y-124595095D01*
X101991342Y-124642714D01*
X102038961Y-124690333D01*
X102086580Y-124785571D01*
X102086580Y-125071285D01*
X102038961Y-125166523D01*
X101991342Y-125214142D01*
X74676182Y-126794497D02*
X74723801Y-126842116D01*
X74771420Y-126984973D01*
X74771420Y-127080211D01*
X74723801Y-127223068D01*
X74628563Y-127318306D01*
X74533325Y-127365925D01*
X74342849Y-127413544D01*
X74199992Y-127413544D01*
X74009516Y-127365925D01*
X73914278Y-127318306D01*
X73819040Y-127223068D01*
X73771420Y-127080211D01*
X73771420Y-126984973D01*
X73819040Y-126842116D01*
X73866659Y-126794497D01*
X73866659Y-126413544D02*
X73819040Y-126365925D01*
X73771420Y-126270687D01*
X73771420Y-126032592D01*
X73819040Y-125937354D01*
X73866659Y-125889735D01*
X73961897Y-125842116D01*
X74057135Y-125842116D01*
X74199992Y-125889735D01*
X74771420Y-126461163D01*
X74771420Y-125842116D01*
X73771420Y-125223068D02*
X73771420Y-125127830D01*
X73819040Y-125032592D01*
X73866659Y-124984973D01*
X73961897Y-124937354D01*
X74152373Y-124889735D01*
X74390468Y-124889735D01*
X74580944Y-124937354D01*
X74676182Y-124984973D01*
X74723801Y-125032592D01*
X74771420Y-125127830D01*
X74771420Y-125223068D01*
X74723801Y-125318306D01*
X74676182Y-125365925D01*
X74580944Y-125413544D01*
X74390468Y-125461163D01*
X74152373Y-125461163D01*
X73961897Y-125413544D01*
X73866659Y-125365925D01*
X73819040Y-125318306D01*
X73771420Y-125223068D01*
X56928782Y-118092582D02*
X56881163Y-118140201D01*
X56738306Y-118187820D01*
X56643068Y-118187820D01*
X56500211Y-118140201D01*
X56404973Y-118044963D01*
X56357354Y-117949725D01*
X56309735Y-117759249D01*
X56309735Y-117616392D01*
X56357354Y-117425916D01*
X56404973Y-117330678D01*
X56500211Y-117235440D01*
X56643068Y-117187820D01*
X56738306Y-117187820D01*
X56881163Y-117235440D01*
X56928782Y-117283059D01*
X57881163Y-118187820D02*
X57309735Y-118187820D01*
X57595449Y-118187820D02*
X57595449Y-117187820D01*
X57500211Y-117330678D01*
X57404973Y-117425916D01*
X57309735Y-117473535D01*
X58357354Y-118187820D02*
X58547830Y-118187820D01*
X58643068Y-118140201D01*
X58690687Y-118092582D01*
X58785925Y-117949725D01*
X58833544Y-117759249D01*
X58833544Y-117378297D01*
X58785925Y-117283059D01*
X58738306Y-117235440D01*
X58643068Y-117187820D01*
X58452592Y-117187820D01*
X58357354Y-117235440D01*
X58309735Y-117283059D01*
X58262116Y-117378297D01*
X58262116Y-117616392D01*
X58309735Y-117711630D01*
X58357354Y-117759249D01*
X58452592Y-117806868D01*
X58643068Y-117806868D01*
X58738306Y-117759249D01*
X58785925Y-117711630D01*
X58833544Y-117616392D01*
X109435662Y-117458660D02*
X109102329Y-116982470D01*
X108864234Y-117458660D02*
X108864234Y-116458660D01*
X109245186Y-116458660D01*
X109340424Y-116506280D01*
X109388043Y-116553899D01*
X109435662Y-116649137D01*
X109435662Y-116791994D01*
X109388043Y-116887232D01*
X109340424Y-116934851D01*
X109245186Y-116982470D01*
X108864234Y-116982470D01*
X109816615Y-116553899D02*
X109864234Y-116506280D01*
X109959472Y-116458660D01*
X110197567Y-116458660D01*
X110292805Y-116506280D01*
X110340424Y-116553899D01*
X110388043Y-116649137D01*
X110388043Y-116744375D01*
X110340424Y-116887232D01*
X109768996Y-117458660D01*
X110388043Y-117458660D01*
X111245186Y-116458660D02*
X111054710Y-116458660D01*
X110959472Y-116506280D01*
X110911853Y-116553899D01*
X110816615Y-116696756D01*
X110768996Y-116887232D01*
X110768996Y-117268184D01*
X110816615Y-117363422D01*
X110864234Y-117411041D01*
X110959472Y-117458660D01*
X111149948Y-117458660D01*
X111245186Y-117411041D01*
X111292805Y-117363422D01*
X111340424Y-117268184D01*
X111340424Y-117030089D01*
X111292805Y-116934851D01*
X111245186Y-116887232D01*
X111149948Y-116839613D01*
X110959472Y-116839613D01*
X110864234Y-116887232D01*
X110816615Y-116934851D01*
X110768996Y-117030089D01*
X94429342Y-116208980D02*
X94096009Y-115732790D01*
X93857914Y-116208980D02*
X93857914Y-115208980D01*
X94238866Y-115208980D01*
X94334104Y-115256600D01*
X94381723Y-115304219D01*
X94429342Y-115399457D01*
X94429342Y-115542314D01*
X94381723Y-115637552D01*
X94334104Y-115685171D01*
X94238866Y-115732790D01*
X93857914Y-115732790D01*
X94810295Y-115304219D02*
X94857914Y-115256600D01*
X94953152Y-115208980D01*
X95191247Y-115208980D01*
X95286485Y-115256600D01*
X95334104Y-115304219D01*
X95381723Y-115399457D01*
X95381723Y-115494695D01*
X95334104Y-115637552D01*
X94762676Y-116208980D01*
X95381723Y-116208980D01*
X96286485Y-115208980D02*
X95810295Y-115208980D01*
X95762676Y-115685171D01*
X95810295Y-115637552D01*
X95905533Y-115589933D01*
X96143628Y-115589933D01*
X96238866Y-115637552D01*
X96286485Y-115685171D01*
X96334104Y-115780409D01*
X96334104Y-116018504D01*
X96286485Y-116113742D01*
X96238866Y-116161361D01*
X96143628Y-116208980D01*
X95905533Y-116208980D01*
X95810295Y-116161361D01*
X95762676Y-116113742D01*
X125513862Y-114325660D02*
X125180529Y-113849470D01*
X124942434Y-114325660D02*
X124942434Y-113325660D01*
X125323386Y-113325660D01*
X125418624Y-113373280D01*
X125466243Y-113420899D01*
X125513862Y-113516137D01*
X125513862Y-113658994D01*
X125466243Y-113754232D01*
X125418624Y-113801851D01*
X125323386Y-113849470D01*
X124942434Y-113849470D01*
X125894815Y-113420899D02*
X125942434Y-113373280D01*
X126037672Y-113325660D01*
X126275767Y-113325660D01*
X126371005Y-113373280D01*
X126418624Y-113420899D01*
X126466243Y-113516137D01*
X126466243Y-113611375D01*
X126418624Y-113754232D01*
X125847196Y-114325660D01*
X126466243Y-114325660D01*
X127323386Y-113658994D02*
X127323386Y-114325660D01*
X127085291Y-113278041D02*
X126847196Y-113992327D01*
X127466243Y-113992327D01*
X107815142Y-114202380D02*
X107481809Y-113726190D01*
X107243714Y-114202380D02*
X107243714Y-113202380D01*
X107624666Y-113202380D01*
X107719904Y-113250000D01*
X107767523Y-113297619D01*
X107815142Y-113392857D01*
X107815142Y-113535714D01*
X107767523Y-113630952D01*
X107719904Y-113678571D01*
X107624666Y-113726190D01*
X107243714Y-113726190D01*
X108196095Y-113297619D02*
X108243714Y-113250000D01*
X108338952Y-113202380D01*
X108577047Y-113202380D01*
X108672285Y-113250000D01*
X108719904Y-113297619D01*
X108767523Y-113392857D01*
X108767523Y-113488095D01*
X108719904Y-113630952D01*
X108148476Y-114202380D01*
X108767523Y-114202380D01*
X109100857Y-113202380D02*
X109719904Y-113202380D01*
X109386571Y-113583333D01*
X109529428Y-113583333D01*
X109624666Y-113630952D01*
X109672285Y-113678571D01*
X109719904Y-113773809D01*
X109719904Y-114011904D01*
X109672285Y-114107142D01*
X109624666Y-114154761D01*
X109529428Y-114202380D01*
X109243714Y-114202380D01*
X109148476Y-114154761D01*
X109100857Y-114107142D01*
X111880820Y-113307097D02*
X111404630Y-113640430D01*
X111880820Y-113878525D02*
X110880820Y-113878525D01*
X110880820Y-113497573D01*
X110928440Y-113402335D01*
X110976059Y-113354716D01*
X111071297Y-113307097D01*
X111214154Y-113307097D01*
X111309392Y-113354716D01*
X111357011Y-113402335D01*
X111404630Y-113497573D01*
X111404630Y-113878525D01*
X110976059Y-112926144D02*
X110928440Y-112878525D01*
X110880820Y-112783287D01*
X110880820Y-112545192D01*
X110928440Y-112449954D01*
X110976059Y-112402335D01*
X111071297Y-112354716D01*
X111166535Y-112354716D01*
X111309392Y-112402335D01*
X111880820Y-112973763D01*
X111880820Y-112354716D01*
X110976059Y-111973763D02*
X110928440Y-111926144D01*
X110880820Y-111830906D01*
X110880820Y-111592811D01*
X110928440Y-111497573D01*
X110976059Y-111449954D01*
X111071297Y-111402335D01*
X111166535Y-111402335D01*
X111309392Y-111449954D01*
X111880820Y-112021382D01*
X111880820Y-111402335D01*
X116452820Y-113296937D02*
X115976630Y-113630270D01*
X116452820Y-113868365D02*
X115452820Y-113868365D01*
X115452820Y-113487413D01*
X115500440Y-113392175D01*
X115548059Y-113344556D01*
X115643297Y-113296937D01*
X115786154Y-113296937D01*
X115881392Y-113344556D01*
X115929011Y-113392175D01*
X115976630Y-113487413D01*
X115976630Y-113868365D01*
X115548059Y-112915984D02*
X115500440Y-112868365D01*
X115452820Y-112773127D01*
X115452820Y-112535032D01*
X115500440Y-112439794D01*
X115548059Y-112392175D01*
X115643297Y-112344556D01*
X115738535Y-112344556D01*
X115881392Y-112392175D01*
X116452820Y-112963603D01*
X116452820Y-112344556D01*
X116452820Y-111392175D02*
X116452820Y-111963603D01*
X116452820Y-111677889D02*
X115452820Y-111677889D01*
X115595678Y-111773127D01*
X115690916Y-111868365D01*
X115738535Y-111963603D01*
X115196161Y-119694659D02*
X115100923Y-119647040D01*
X115005685Y-119551801D01*
X114862828Y-119408944D01*
X114767590Y-119361325D01*
X114672352Y-119361325D01*
X114719971Y-119599420D02*
X114624733Y-119551801D01*
X114529495Y-119456563D01*
X114481876Y-119266087D01*
X114481876Y-118932754D01*
X114529495Y-118742278D01*
X114624733Y-118647040D01*
X114719971Y-118599420D01*
X114910447Y-118599420D01*
X115005685Y-118647040D01*
X115100923Y-118742278D01*
X115148542Y-118932754D01*
X115148542Y-119266087D01*
X115100923Y-119456563D01*
X115005685Y-119551801D01*
X114910447Y-119599420D01*
X114719971Y-119599420D01*
X116005685Y-118599420D02*
X115815209Y-118599420D01*
X115719971Y-118647040D01*
X115672352Y-118694659D01*
X115577114Y-118837516D01*
X115529495Y-119027992D01*
X115529495Y-119408944D01*
X115577114Y-119504182D01*
X115624733Y-119551801D01*
X115719971Y-119599420D01*
X115910447Y-119599420D01*
X116005685Y-119551801D01*
X116053304Y-119504182D01*
X116100923Y-119408944D01*
X116100923Y-119170849D01*
X116053304Y-119075611D01*
X116005685Y-119027992D01*
X115910447Y-118980373D01*
X115719971Y-118980373D01*
X115624733Y-119027992D01*
X115577114Y-119075611D01*
X115529495Y-119170849D01*
X100306681Y-119257779D02*
X100211443Y-119210160D01*
X100116205Y-119114921D01*
X99973348Y-118972064D01*
X99878110Y-118924445D01*
X99782872Y-118924445D01*
X99830491Y-119162540D02*
X99735253Y-119114921D01*
X99640015Y-119019683D01*
X99592396Y-118829207D01*
X99592396Y-118495874D01*
X99640015Y-118305398D01*
X99735253Y-118210160D01*
X99830491Y-118162540D01*
X100020967Y-118162540D01*
X100116205Y-118210160D01*
X100211443Y-118305398D01*
X100259062Y-118495874D01*
X100259062Y-118829207D01*
X100211443Y-119019683D01*
X100116205Y-119114921D01*
X100020967Y-119162540D01*
X99830491Y-119162540D01*
X101163824Y-118162540D02*
X100687634Y-118162540D01*
X100640015Y-118638731D01*
X100687634Y-118591112D01*
X100782872Y-118543493D01*
X101020967Y-118543493D01*
X101116205Y-118591112D01*
X101163824Y-118638731D01*
X101211443Y-118733969D01*
X101211443Y-118972064D01*
X101163824Y-119067302D01*
X101116205Y-119114921D01*
X101020967Y-119162540D01*
X100782872Y-119162540D01*
X100687634Y-119114921D01*
X100640015Y-119067302D01*
X120716521Y-123538779D02*
X120621283Y-123491160D01*
X120526045Y-123395921D01*
X120383188Y-123253064D01*
X120287950Y-123205445D01*
X120192712Y-123205445D01*
X120240331Y-123443540D02*
X120145093Y-123395921D01*
X120049855Y-123300683D01*
X120002236Y-123110207D01*
X120002236Y-122776874D01*
X120049855Y-122586398D01*
X120145093Y-122491160D01*
X120240331Y-122443540D01*
X120430807Y-122443540D01*
X120526045Y-122491160D01*
X120621283Y-122586398D01*
X120668902Y-122776874D01*
X120668902Y-123110207D01*
X120621283Y-123300683D01*
X120526045Y-123395921D01*
X120430807Y-123443540D01*
X120240331Y-123443540D01*
X121526045Y-122776874D02*
X121526045Y-123443540D01*
X121287950Y-122395921D02*
X121049855Y-123110207D01*
X121668902Y-123110207D01*
X54396260Y-62380453D02*
X55110546Y-62380453D01*
X55253403Y-62428072D01*
X55348641Y-62523310D01*
X55396260Y-62666167D01*
X55396260Y-62761405D01*
X55396260Y-61856643D02*
X55396260Y-61666167D01*
X55348641Y-61570929D01*
X55301022Y-61523310D01*
X55158165Y-61428072D01*
X54967689Y-61380453D01*
X54586737Y-61380453D01*
X54491499Y-61428072D01*
X54443880Y-61475691D01*
X54396260Y-61570929D01*
X54396260Y-61761405D01*
X54443880Y-61856643D01*
X54491499Y-61904262D01*
X54586737Y-61951881D01*
X54824832Y-61951881D01*
X54920070Y-61904262D01*
X54967689Y-61856643D01*
X55015308Y-61761405D01*
X55015308Y-61570929D01*
X54967689Y-61475691D01*
X54920070Y-61428072D01*
X54824832Y-61380453D01*
X59095735Y-109562340D02*
X59095735Y-110371864D01*
X59143354Y-110467102D01*
X59190973Y-110514721D01*
X59286211Y-110562340D01*
X59476687Y-110562340D01*
X59571925Y-110514721D01*
X59619544Y-110467102D01*
X59667163Y-110371864D01*
X59667163Y-109562340D01*
X60048116Y-109562340D02*
X60667163Y-109562340D01*
X60333830Y-109943293D01*
X60476687Y-109943293D01*
X60571925Y-109990912D01*
X60619544Y-110038531D01*
X60667163Y-110133769D01*
X60667163Y-110371864D01*
X60619544Y-110467102D01*
X60571925Y-110514721D01*
X60476687Y-110562340D01*
X60190973Y-110562340D01*
X60095735Y-110514721D01*
X60048116Y-110467102D01*
X137524942Y-86976306D02*
X137572561Y-87023925D01*
X137620180Y-87166782D01*
X137620180Y-87262020D01*
X137572561Y-87404878D01*
X137477323Y-87500116D01*
X137382085Y-87547735D01*
X137191609Y-87595354D01*
X137048752Y-87595354D01*
X136858276Y-87547735D01*
X136763038Y-87500116D01*
X136667800Y-87404878D01*
X136620180Y-87262020D01*
X136620180Y-87166782D01*
X136667800Y-87023925D01*
X136715419Y-86976306D01*
X136953514Y-86119163D02*
X137620180Y-86119163D01*
X136572561Y-86357259D02*
X137286847Y-86595354D01*
X137286847Y-85976306D01*
X63286260Y-99317133D02*
X64000546Y-99317133D01*
X64143403Y-99364752D01*
X64238641Y-99459990D01*
X64286260Y-99602847D01*
X64286260Y-99698085D01*
X63286260Y-98412371D02*
X63286260Y-98602847D01*
X63333880Y-98698085D01*
X63381499Y-98745704D01*
X63524356Y-98840942D01*
X63714832Y-98888561D01*
X64095784Y-98888561D01*
X64191022Y-98840942D01*
X64238641Y-98793323D01*
X64286260Y-98698085D01*
X64286260Y-98507609D01*
X64238641Y-98412371D01*
X64191022Y-98364752D01*
X64095784Y-98317133D01*
X63857689Y-98317133D01*
X63762451Y-98364752D01*
X63714832Y-98412371D01*
X63667213Y-98507609D01*
X63667213Y-98698085D01*
X63714832Y-98793323D01*
X63762451Y-98840942D01*
X63857689Y-98888561D01*
X63286260Y-74317133D02*
X64000546Y-74317133D01*
X64143403Y-74364752D01*
X64238641Y-74459990D01*
X64286260Y-74602847D01*
X64286260Y-74698085D01*
X63286260Y-73936180D02*
X63286260Y-73269514D01*
X64286260Y-73698085D01*
X106713066Y-51490940D02*
X106713066Y-52205226D01*
X106665447Y-52348083D01*
X106570209Y-52443321D01*
X106427352Y-52490940D01*
X106332114Y-52490940D01*
X107617828Y-51824274D02*
X107617828Y-52490940D01*
X107379733Y-51443321D02*
X107141638Y-52157607D01*
X107760685Y-52157607D01*
X82075066Y-51490940D02*
X82075066Y-52205226D01*
X82027447Y-52348083D01*
X81932209Y-52443321D01*
X81789352Y-52490940D01*
X81694114Y-52490940D01*
X83075066Y-52490940D02*
X82503638Y-52490940D01*
X82789352Y-52490940D02*
X82789352Y-51490940D01*
X82694114Y-51633798D01*
X82598876Y-51729036D01*
X82503638Y-51776655D01*
X94739506Y-51490940D02*
X94739506Y-52205226D01*
X94691887Y-52348083D01*
X94596649Y-52443321D01*
X94453792Y-52490940D01*
X94358554Y-52490940D01*
X95168078Y-51586179D02*
X95215697Y-51538560D01*
X95310935Y-51490940D01*
X95549030Y-51490940D01*
X95644268Y-51538560D01*
X95691887Y-51586179D01*
X95739506Y-51681417D01*
X95739506Y-51776655D01*
X95691887Y-51919512D01*
X95120459Y-52490940D01*
X95739506Y-52490940D01*
X119865186Y-51592540D02*
X119865186Y-52306826D01*
X119817567Y-52449683D01*
X119722329Y-52544921D01*
X119579472Y-52592540D01*
X119484234Y-52592540D01*
X120817567Y-51592540D02*
X120341377Y-51592540D01*
X120293758Y-52068731D01*
X120341377Y-52021112D01*
X120436615Y-51973493D01*
X120674710Y-51973493D01*
X120769948Y-52021112D01*
X120817567Y-52068731D01*
X120865186Y-52163969D01*
X120865186Y-52402064D01*
X120817567Y-52497302D01*
X120769948Y-52544921D01*
X120674710Y-52592540D01*
X120436615Y-52592540D01*
X120341377Y-52544921D01*
X120293758Y-52497302D01*
X141055100Y-110911544D02*
X141864624Y-110911544D01*
X141959862Y-110863925D01*
X142007481Y-110816306D01*
X142055100Y-110721068D01*
X142055100Y-110530592D01*
X142007481Y-110435354D01*
X141959862Y-110387735D01*
X141864624Y-110340116D01*
X141055100Y-110340116D01*
X142055100Y-109340116D02*
X142055100Y-109911544D01*
X142055100Y-109625830D02*
X141055100Y-109625830D01*
X141197958Y-109721068D01*
X141293196Y-109816306D01*
X141340815Y-109911544D01*
X71475220Y-69324813D02*
X72189506Y-69324813D01*
X72332363Y-69372432D01*
X72427601Y-69467670D01*
X72475220Y-69610527D01*
X72475220Y-69705765D01*
X71475220Y-68943860D02*
X71475220Y-68324813D01*
X71856173Y-68658146D01*
X71856173Y-68515289D01*
X71903792Y-68420051D01*
X71951411Y-68372432D01*
X72046649Y-68324813D01*
X72284744Y-68324813D01*
X72379982Y-68372432D01*
X72427601Y-68420051D01*
X72475220Y-68515289D01*
X72475220Y-68801003D01*
X72427601Y-68896241D01*
X72379982Y-68943860D01*
X131987053Y-92063662D02*
X131939434Y-92111281D01*
X131796577Y-92158900D01*
X131701339Y-92158900D01*
X131558481Y-92111281D01*
X131463243Y-92016043D01*
X131415624Y-91920805D01*
X131368005Y-91730329D01*
X131368005Y-91587472D01*
X131415624Y-91396996D01*
X131463243Y-91301758D01*
X131558481Y-91206520D01*
X131701339Y-91158900D01*
X131796577Y-91158900D01*
X131939434Y-91206520D01*
X131987053Y-91254139D01*
X132939434Y-92158900D02*
X132368005Y-92158900D01*
X132653720Y-92158900D02*
X132653720Y-91158900D01*
X132558481Y-91301758D01*
X132463243Y-91396996D01*
X132368005Y-91444615D01*
X105934213Y-90905500D02*
X105600880Y-90429310D01*
X105362784Y-90905500D02*
X105362784Y-89905500D01*
X105743737Y-89905500D01*
X105838975Y-89953120D01*
X105886594Y-90000739D01*
X105934213Y-90095977D01*
X105934213Y-90238834D01*
X105886594Y-90334072D01*
X105838975Y-90381691D01*
X105743737Y-90429310D01*
X105362784Y-90429310D01*
X106791356Y-90238834D02*
X106791356Y-90905500D01*
X106553260Y-89857881D02*
X106315165Y-90572167D01*
X106934213Y-90572167D01*
X100493533Y-94521260D02*
X100160200Y-94045070D01*
X99922104Y-94521260D02*
X99922104Y-93521260D01*
X100303057Y-93521260D01*
X100398295Y-93568880D01*
X100445914Y-93616499D01*
X100493533Y-93711737D01*
X100493533Y-93854594D01*
X100445914Y-93949832D01*
X100398295Y-93997451D01*
X100303057Y-94045070D01*
X99922104Y-94045070D01*
X101398295Y-93521260D02*
X100922104Y-93521260D01*
X100874485Y-93997451D01*
X100922104Y-93949832D01*
X101017342Y-93902213D01*
X101255438Y-93902213D01*
X101350676Y-93949832D01*
X101398295Y-93997451D01*
X101445914Y-94092689D01*
X101445914Y-94330784D01*
X101398295Y-94426022D01*
X101350676Y-94473641D01*
X101255438Y-94521260D01*
X101017342Y-94521260D01*
X100922104Y-94473641D01*
X100874485Y-94426022D01*
X124003773Y-86737540D02*
X123670440Y-86261350D01*
X123432344Y-86737540D02*
X123432344Y-85737540D01*
X123813297Y-85737540D01*
X123908535Y-85785160D01*
X123956154Y-85832779D01*
X124003773Y-85928017D01*
X124003773Y-86070874D01*
X123956154Y-86166112D01*
X123908535Y-86213731D01*
X123813297Y-86261350D01*
X123432344Y-86261350D01*
X124337106Y-85737540D02*
X125003773Y-85737540D01*
X124575201Y-86737540D01*
X124044413Y-91253660D02*
X123711080Y-90777470D01*
X123472984Y-91253660D02*
X123472984Y-90253660D01*
X123853937Y-90253660D01*
X123949175Y-90301280D01*
X123996794Y-90348899D01*
X124044413Y-90444137D01*
X124044413Y-90586994D01*
X123996794Y-90682232D01*
X123949175Y-90729851D01*
X123853937Y-90777470D01*
X123472984Y-90777470D01*
X124520603Y-91253660D02*
X124711080Y-91253660D01*
X124806318Y-91206041D01*
X124853937Y-91158422D01*
X124949175Y-91015565D01*
X124996794Y-90825089D01*
X124996794Y-90444137D01*
X124949175Y-90348899D01*
X124901556Y-90301280D01*
X124806318Y-90253660D01*
X124615841Y-90253660D01*
X124520603Y-90301280D01*
X124472984Y-90348899D01*
X124425365Y-90444137D01*
X124425365Y-90682232D01*
X124472984Y-90777470D01*
X124520603Y-90825089D01*
X124615841Y-90872708D01*
X124806318Y-90872708D01*
X124901556Y-90825089D01*
X124949175Y-90777470D01*
X124996794Y-90682232D01*
X125381100Y-79494617D02*
X124904910Y-79827950D01*
X125381100Y-80066045D02*
X124381100Y-80066045D01*
X124381100Y-79685093D01*
X124428720Y-79589855D01*
X124476339Y-79542236D01*
X124571577Y-79494617D01*
X124714434Y-79494617D01*
X124809672Y-79542236D01*
X124857291Y-79589855D01*
X124904910Y-79685093D01*
X124904910Y-80066045D01*
X125381100Y-78542236D02*
X125381100Y-79113664D01*
X125381100Y-78827950D02*
X124381100Y-78827950D01*
X124523958Y-78923188D01*
X124619196Y-79018426D01*
X124666815Y-79113664D01*
X125381100Y-77589855D02*
X125381100Y-78161283D01*
X125381100Y-77875569D02*
X124381100Y-77875569D01*
X124523958Y-77970807D01*
X124619196Y-78066045D01*
X124666815Y-78161283D01*
X101588740Y-79567066D02*
X101112550Y-79900400D01*
X101588740Y-80138495D02*
X100588740Y-80138495D01*
X100588740Y-79757542D01*
X100636360Y-79662304D01*
X100683979Y-79614685D01*
X100779217Y-79567066D01*
X100922074Y-79567066D01*
X101017312Y-79614685D01*
X101064931Y-79662304D01*
X101112550Y-79757542D01*
X101112550Y-80138495D01*
X101588740Y-78614685D02*
X101588740Y-79186114D01*
X101588740Y-78900400D02*
X100588740Y-78900400D01*
X100731598Y-78995638D01*
X100826836Y-79090876D01*
X100874455Y-79186114D01*
X97717780Y-79567066D02*
X97241590Y-79900400D01*
X97717780Y-80138495D02*
X96717780Y-80138495D01*
X96717780Y-79757542D01*
X96765400Y-79662304D01*
X96813019Y-79614685D01*
X96908257Y-79567066D01*
X97051114Y-79567066D01*
X97146352Y-79614685D01*
X97193971Y-79662304D01*
X97241590Y-79757542D01*
X97241590Y-80138495D01*
X96813019Y-79186114D02*
X96765400Y-79138495D01*
X96717780Y-79043257D01*
X96717780Y-78805161D01*
X96765400Y-78709923D01*
X96813019Y-78662304D01*
X96908257Y-78614685D01*
X97003495Y-78614685D01*
X97146352Y-78662304D01*
X97717780Y-79233733D01*
X97717780Y-78614685D01*
X108469133Y-69013420D02*
X108135800Y-68537230D01*
X107897704Y-69013420D02*
X107897704Y-68013420D01*
X108278657Y-68013420D01*
X108373895Y-68061040D01*
X108421514Y-68108659D01*
X108469133Y-68203897D01*
X108469133Y-68346754D01*
X108421514Y-68441992D01*
X108373895Y-68489611D01*
X108278657Y-68537230D01*
X107897704Y-68537230D01*
X108802466Y-68013420D02*
X109421514Y-68013420D01*
X109088180Y-68394373D01*
X109231038Y-68394373D01*
X109326276Y-68441992D01*
X109373895Y-68489611D01*
X109421514Y-68584849D01*
X109421514Y-68822944D01*
X109373895Y-68918182D01*
X109326276Y-68965801D01*
X109231038Y-69013420D01*
X108945323Y-69013420D01*
X108850085Y-68965801D01*
X108802466Y-68918182D01*
X117928093Y-83077220D02*
X117594760Y-82601030D01*
X117356664Y-83077220D02*
X117356664Y-82077220D01*
X117737617Y-82077220D01*
X117832855Y-82124840D01*
X117880474Y-82172459D01*
X117928093Y-82267697D01*
X117928093Y-82410554D01*
X117880474Y-82505792D01*
X117832855Y-82553411D01*
X117737617Y-82601030D01*
X117356664Y-82601030D01*
X118499521Y-82505792D02*
X118404283Y-82458173D01*
X118356664Y-82410554D01*
X118309045Y-82315316D01*
X118309045Y-82267697D01*
X118356664Y-82172459D01*
X118404283Y-82124840D01*
X118499521Y-82077220D01*
X118689998Y-82077220D01*
X118785236Y-82124840D01*
X118832855Y-82172459D01*
X118880474Y-82267697D01*
X118880474Y-82315316D01*
X118832855Y-82410554D01*
X118785236Y-82458173D01*
X118689998Y-82505792D01*
X118499521Y-82505792D01*
X118404283Y-82553411D01*
X118356664Y-82601030D01*
X118309045Y-82696268D01*
X118309045Y-82886744D01*
X118356664Y-82981982D01*
X118404283Y-83029601D01*
X118499521Y-83077220D01*
X118689998Y-83077220D01*
X118785236Y-83029601D01*
X118832855Y-82981982D01*
X118880474Y-82886744D01*
X118880474Y-82696268D01*
X118832855Y-82601030D01*
X118785236Y-82553411D01*
X118689998Y-82505792D01*
X117406182Y-87623820D02*
X117072849Y-87147630D01*
X116834754Y-87623820D02*
X116834754Y-86623820D01*
X117215706Y-86623820D01*
X117310944Y-86671440D01*
X117358563Y-86719059D01*
X117406182Y-86814297D01*
X117406182Y-86957154D01*
X117358563Y-87052392D01*
X117310944Y-87100011D01*
X117215706Y-87147630D01*
X116834754Y-87147630D01*
X118358563Y-87623820D02*
X117787135Y-87623820D01*
X118072849Y-87623820D02*
X118072849Y-86623820D01*
X117977611Y-86766678D01*
X117882373Y-86861916D01*
X117787135Y-86909535D01*
X118977611Y-86623820D02*
X119072849Y-86623820D01*
X119168087Y-86671440D01*
X119215706Y-86719059D01*
X119263325Y-86814297D01*
X119310944Y-87004773D01*
X119310944Y-87242868D01*
X119263325Y-87433344D01*
X119215706Y-87528582D01*
X119168087Y-87576201D01*
X119072849Y-87623820D01*
X118977611Y-87623820D01*
X118882373Y-87576201D01*
X118834754Y-87528582D01*
X118787135Y-87433344D01*
X118739516Y-87242868D01*
X118739516Y-87004773D01*
X118787135Y-86814297D01*
X118834754Y-86719059D01*
X118882373Y-86671440D01*
X118977611Y-86623820D01*
X117604302Y-78459500D02*
X117270969Y-77983310D01*
X117032874Y-78459500D02*
X117032874Y-77459500D01*
X117413826Y-77459500D01*
X117509064Y-77507120D01*
X117556683Y-77554739D01*
X117604302Y-77649977D01*
X117604302Y-77792834D01*
X117556683Y-77888072D01*
X117509064Y-77935691D01*
X117413826Y-77983310D01*
X117032874Y-77983310D01*
X118556683Y-78459500D02*
X117985255Y-78459500D01*
X118270969Y-78459500D02*
X118270969Y-77459500D01*
X118175731Y-77602358D01*
X118080493Y-77697596D01*
X117985255Y-77745215D01*
X118937636Y-77554739D02*
X118985255Y-77507120D01*
X119080493Y-77459500D01*
X119318588Y-77459500D01*
X119413826Y-77507120D01*
X119461445Y-77554739D01*
X119509064Y-77649977D01*
X119509064Y-77745215D01*
X119461445Y-77888072D01*
X118890017Y-78459500D01*
X119509064Y-78459500D01*
X111866862Y-85337946D02*
X111914481Y-85385565D01*
X111962100Y-85528422D01*
X111962100Y-85623660D01*
X111914481Y-85766518D01*
X111819243Y-85861756D01*
X111724005Y-85909375D01*
X111533529Y-85956994D01*
X111390672Y-85956994D01*
X111200196Y-85909375D01*
X111104958Y-85861756D01*
X111009720Y-85766518D01*
X110962100Y-85623660D01*
X110962100Y-85528422D01*
X111009720Y-85385565D01*
X111057339Y-85337946D01*
X110962100Y-85004613D02*
X110962100Y-84385565D01*
X111343053Y-84718899D01*
X111343053Y-84576041D01*
X111390672Y-84480803D01*
X111438291Y-84433184D01*
X111533529Y-84385565D01*
X111771624Y-84385565D01*
X111866862Y-84433184D01*
X111914481Y-84480803D01*
X111962100Y-84576041D01*
X111962100Y-84861756D01*
X111914481Y-84956994D01*
X111866862Y-85004613D01*
X111877022Y-90646546D02*
X111924641Y-90694165D01*
X111972260Y-90837022D01*
X111972260Y-90932260D01*
X111924641Y-91075118D01*
X111829403Y-91170356D01*
X111734165Y-91217975D01*
X111543689Y-91265594D01*
X111400832Y-91265594D01*
X111210356Y-91217975D01*
X111115118Y-91170356D01*
X111019880Y-91075118D01*
X110972260Y-90932260D01*
X110972260Y-90837022D01*
X111019880Y-90694165D01*
X111067499Y-90646546D01*
X110972260Y-89741784D02*
X110972260Y-90217975D01*
X111448451Y-90265594D01*
X111400832Y-90217975D01*
X111353213Y-90122737D01*
X111353213Y-89884641D01*
X111400832Y-89789403D01*
X111448451Y-89741784D01*
X111543689Y-89694165D01*
X111781784Y-89694165D01*
X111877022Y-89741784D01*
X111924641Y-89789403D01*
X111972260Y-89884641D01*
X111972260Y-90122737D01*
X111924641Y-90217975D01*
X111877022Y-90265594D01*
X111943062Y-79739786D02*
X111990681Y-79787405D01*
X112038300Y-79930262D01*
X112038300Y-80025500D01*
X111990681Y-80168358D01*
X111895443Y-80263596D01*
X111800205Y-80311215D01*
X111609729Y-80358834D01*
X111466872Y-80358834D01*
X111276396Y-80311215D01*
X111181158Y-80263596D01*
X111085920Y-80168358D01*
X111038300Y-80025500D01*
X111038300Y-79930262D01*
X111085920Y-79787405D01*
X111133539Y-79739786D01*
X111038300Y-79406453D02*
X111038300Y-78739786D01*
X112038300Y-79168358D01*
X104808382Y-106856826D02*
X104856001Y-106904445D01*
X104903620Y-107047302D01*
X104903620Y-107142540D01*
X104856001Y-107285398D01*
X104760763Y-107380636D01*
X104665525Y-107428255D01*
X104475049Y-107475874D01*
X104332192Y-107475874D01*
X104141716Y-107428255D01*
X104046478Y-107380636D01*
X103951240Y-107285398D01*
X103903620Y-107142540D01*
X103903620Y-107047302D01*
X103951240Y-106904445D01*
X103998859Y-106856826D01*
X104332192Y-106285398D02*
X104284573Y-106380636D01*
X104236954Y-106428255D01*
X104141716Y-106475874D01*
X104094097Y-106475874D01*
X103998859Y-106428255D01*
X103951240Y-106380636D01*
X103903620Y-106285398D01*
X103903620Y-106094921D01*
X103951240Y-105999683D01*
X103998859Y-105952064D01*
X104094097Y-105904445D01*
X104141716Y-105904445D01*
X104236954Y-105952064D01*
X104284573Y-105999683D01*
X104332192Y-106094921D01*
X104332192Y-106285398D01*
X104379811Y-106380636D01*
X104427430Y-106428255D01*
X104522668Y-106475874D01*
X104713144Y-106475874D01*
X104808382Y-106428255D01*
X104856001Y-106380636D01*
X104903620Y-106285398D01*
X104903620Y-106094921D01*
X104856001Y-105999683D01*
X104808382Y-105952064D01*
X104713144Y-105904445D01*
X104522668Y-105904445D01*
X104427430Y-105952064D01*
X104379811Y-105999683D01*
X104332192Y-106094921D01*
X52380853Y-108712182D02*
X52333234Y-108759801D01*
X52190377Y-108807420D01*
X52095139Y-108807420D01*
X51952281Y-108759801D01*
X51857043Y-108664563D01*
X51809424Y-108569325D01*
X51761805Y-108378849D01*
X51761805Y-108235992D01*
X51809424Y-108045516D01*
X51857043Y-107950278D01*
X51952281Y-107855040D01*
X52095139Y-107807420D01*
X52190377Y-107807420D01*
X52333234Y-107855040D01*
X52380853Y-107902659D01*
X52857043Y-108807420D02*
X53047520Y-108807420D01*
X53142758Y-108759801D01*
X53190377Y-108712182D01*
X53285615Y-108569325D01*
X53333234Y-108378849D01*
X53333234Y-107997897D01*
X53285615Y-107902659D01*
X53237996Y-107855040D01*
X53142758Y-107807420D01*
X52952281Y-107807420D01*
X52857043Y-107855040D01*
X52809424Y-107902659D01*
X52761805Y-107997897D01*
X52761805Y-108235992D01*
X52809424Y-108331230D01*
X52857043Y-108378849D01*
X52952281Y-108426468D01*
X53142758Y-108426468D01*
X53237996Y-108378849D01*
X53285615Y-108331230D01*
X53333234Y-108235992D01*
X125407182Y-118917902D02*
X125359563Y-118965521D01*
X125216706Y-119013140D01*
X125121468Y-119013140D01*
X124978611Y-118965521D01*
X124883373Y-118870283D01*
X124835754Y-118775045D01*
X124788135Y-118584569D01*
X124788135Y-118441712D01*
X124835754Y-118251236D01*
X124883373Y-118155998D01*
X124978611Y-118060760D01*
X125121468Y-118013140D01*
X125216706Y-118013140D01*
X125359563Y-118060760D01*
X125407182Y-118108379D01*
X126359563Y-119013140D02*
X125788135Y-119013140D01*
X126073849Y-119013140D02*
X126073849Y-118013140D01*
X125978611Y-118155998D01*
X125883373Y-118251236D01*
X125788135Y-118298855D01*
X126978611Y-118013140D02*
X127073849Y-118013140D01*
X127169087Y-118060760D01*
X127216706Y-118108379D01*
X127264325Y-118203617D01*
X127311944Y-118394093D01*
X127311944Y-118632188D01*
X127264325Y-118822664D01*
X127216706Y-118917902D01*
X127169087Y-118965521D01*
X127073849Y-119013140D01*
X126978611Y-119013140D01*
X126883373Y-118965521D01*
X126835754Y-118917902D01*
X126788135Y-118822664D01*
X126740516Y-118632188D01*
X126740516Y-118394093D01*
X126788135Y-118203617D01*
X126835754Y-118108379D01*
X126883373Y-118060760D01*
X126978611Y-118013140D01*
X109374702Y-124066662D02*
X109327083Y-124114281D01*
X109184226Y-124161900D01*
X109088988Y-124161900D01*
X108946131Y-124114281D01*
X108850893Y-124019043D01*
X108803274Y-123923805D01*
X108755655Y-123733329D01*
X108755655Y-123590472D01*
X108803274Y-123399996D01*
X108850893Y-123304758D01*
X108946131Y-123209520D01*
X109088988Y-123161900D01*
X109184226Y-123161900D01*
X109327083Y-123209520D01*
X109374702Y-123257139D01*
X110327083Y-124161900D02*
X109755655Y-124161900D01*
X110041369Y-124161900D02*
X110041369Y-123161900D01*
X109946131Y-123304758D01*
X109850893Y-123399996D01*
X109755655Y-123447615D01*
X111279464Y-124161900D02*
X110708036Y-124161900D01*
X110993750Y-124161900D02*
X110993750Y-123161900D01*
X110898512Y-123304758D01*
X110803274Y-123399996D01*
X110708036Y-123447615D01*
X94469982Y-122994782D02*
X94422363Y-123042401D01*
X94279506Y-123090020D01*
X94184268Y-123090020D01*
X94041411Y-123042401D01*
X93946173Y-122947163D01*
X93898554Y-122851925D01*
X93850935Y-122661449D01*
X93850935Y-122518592D01*
X93898554Y-122328116D01*
X93946173Y-122232878D01*
X94041411Y-122137640D01*
X94184268Y-122090020D01*
X94279506Y-122090020D01*
X94422363Y-122137640D01*
X94469982Y-122185259D01*
X95422363Y-123090020D02*
X94850935Y-123090020D01*
X95136649Y-123090020D02*
X95136649Y-122090020D01*
X95041411Y-122232878D01*
X94946173Y-122328116D01*
X94850935Y-122375735D01*
X95803316Y-122185259D02*
X95850935Y-122137640D01*
X95946173Y-122090020D01*
X96184268Y-122090020D01*
X96279506Y-122137640D01*
X96327125Y-122185259D01*
X96374744Y-122280497D01*
X96374744Y-122375735D01*
X96327125Y-122518592D01*
X95755697Y-123090020D01*
X96374744Y-123090020D01*
X67383422Y-119532582D02*
X67335803Y-119580201D01*
X67192946Y-119627820D01*
X67097708Y-119627820D01*
X66954851Y-119580201D01*
X66859613Y-119484963D01*
X66811994Y-119389725D01*
X66764375Y-119199249D01*
X66764375Y-119056392D01*
X66811994Y-118865916D01*
X66859613Y-118770678D01*
X66954851Y-118675440D01*
X67097708Y-118627820D01*
X67192946Y-118627820D01*
X67335803Y-118675440D01*
X67383422Y-118723059D01*
X68335803Y-119627820D02*
X67764375Y-119627820D01*
X68050089Y-119627820D02*
X68050089Y-118627820D01*
X67954851Y-118770678D01*
X67859613Y-118865916D01*
X67764375Y-118913535D01*
X68669137Y-118627820D02*
X69288184Y-118627820D01*
X68954851Y-119008773D01*
X69097708Y-119008773D01*
X69192946Y-119056392D01*
X69240565Y-119104011D01*
X69288184Y-119199249D01*
X69288184Y-119437344D01*
X69240565Y-119532582D01*
X69192946Y-119580201D01*
X69097708Y-119627820D01*
X68811994Y-119627820D01*
X68716756Y-119580201D01*
X68669137Y-119532582D01*
X80870822Y-119654502D02*
X80823203Y-119702121D01*
X80680346Y-119749740D01*
X80585108Y-119749740D01*
X80442251Y-119702121D01*
X80347013Y-119606883D01*
X80299394Y-119511645D01*
X80251775Y-119321169D01*
X80251775Y-119178312D01*
X80299394Y-118987836D01*
X80347013Y-118892598D01*
X80442251Y-118797360D01*
X80585108Y-118749740D01*
X80680346Y-118749740D01*
X80823203Y-118797360D01*
X80870822Y-118844979D01*
X81823203Y-119749740D02*
X81251775Y-119749740D01*
X81537489Y-119749740D02*
X81537489Y-118749740D01*
X81442251Y-118892598D01*
X81347013Y-118987836D01*
X81251775Y-119035455D01*
X82680346Y-119083074D02*
X82680346Y-119749740D01*
X82442251Y-118702121D02*
X82204156Y-119416407D01*
X82823203Y-119416407D01*
X53769022Y-120534702D02*
X53721403Y-120582321D01*
X53578546Y-120629940D01*
X53483308Y-120629940D01*
X53340451Y-120582321D01*
X53245213Y-120487083D01*
X53197594Y-120391845D01*
X53149975Y-120201369D01*
X53149975Y-120058512D01*
X53197594Y-119868036D01*
X53245213Y-119772798D01*
X53340451Y-119677560D01*
X53483308Y-119629940D01*
X53578546Y-119629940D01*
X53721403Y-119677560D01*
X53769022Y-119725179D01*
X54721403Y-120629940D02*
X54149975Y-120629940D01*
X54435689Y-120629940D02*
X54435689Y-119629940D01*
X54340451Y-119772798D01*
X54245213Y-119868036D01*
X54149975Y-119915655D01*
X55626165Y-119629940D02*
X55149975Y-119629940D01*
X55102356Y-120106131D01*
X55149975Y-120058512D01*
X55245213Y-120010893D01*
X55483308Y-120010893D01*
X55578546Y-120058512D01*
X55626165Y-120106131D01*
X55673784Y-120201369D01*
X55673784Y-120439464D01*
X55626165Y-120534702D01*
X55578546Y-120582321D01*
X55483308Y-120629940D01*
X55245213Y-120629940D01*
X55149975Y-120582321D01*
X55102356Y-120534702D01*
X117087116Y-126894340D02*
X117087116Y-127608626D01*
X117039497Y-127751483D01*
X116944259Y-127846721D01*
X116801401Y-127894340D01*
X116706163Y-127894340D01*
X118087116Y-127894340D02*
X117515687Y-127894340D01*
X117801401Y-127894340D02*
X117801401Y-126894340D01*
X117706163Y-127037198D01*
X117610925Y-127132436D01*
X117515687Y-127180055D01*
X118706163Y-126894340D02*
X118801401Y-126894340D01*
X118896640Y-126941960D01*
X118944259Y-126989579D01*
X118991878Y-127084817D01*
X119039497Y-127275293D01*
X119039497Y-127513388D01*
X118991878Y-127703864D01*
X118944259Y-127799102D01*
X118896640Y-127846721D01*
X118801401Y-127894340D01*
X118706163Y-127894340D01*
X118610925Y-127846721D01*
X118563306Y-127799102D01*
X118515687Y-127703864D01*
X118468068Y-127513388D01*
X118468068Y-127275293D01*
X118515687Y-127084817D01*
X118563306Y-126989579D01*
X118610925Y-126941960D01*
X118706163Y-126894340D01*
X104737636Y-126934980D02*
X104737636Y-127649266D01*
X104690017Y-127792123D01*
X104594779Y-127887361D01*
X104451921Y-127934980D01*
X104356683Y-127934980D01*
X105737636Y-127934980D02*
X105166207Y-127934980D01*
X105451921Y-127934980D02*
X105451921Y-126934980D01*
X105356683Y-127077838D01*
X105261445Y-127173076D01*
X105166207Y-127220695D01*
X106690017Y-127934980D02*
X106118588Y-127934980D01*
X106404302Y-127934980D02*
X106404302Y-126934980D01*
X106309064Y-127077838D01*
X106213826Y-127173076D01*
X106118588Y-127220695D01*
X91011476Y-127214380D02*
X91011476Y-127928666D01*
X90963857Y-128071523D01*
X90868619Y-128166761D01*
X90725761Y-128214380D01*
X90630523Y-128214380D01*
X92011476Y-128214380D02*
X91440047Y-128214380D01*
X91725761Y-128214380D02*
X91725761Y-127214380D01*
X91630523Y-127357238D01*
X91535285Y-127452476D01*
X91440047Y-127500095D01*
X92392428Y-127309619D02*
X92440047Y-127262000D01*
X92535285Y-127214380D01*
X92773380Y-127214380D01*
X92868619Y-127262000D01*
X92916238Y-127309619D01*
X92963857Y-127404857D01*
X92963857Y-127500095D01*
X92916238Y-127642952D01*
X92344809Y-128214380D01*
X92963857Y-128214380D01*
X82195644Y-122296740D02*
X82195644Y-123011026D01*
X82148025Y-123153883D01*
X82052787Y-123249121D01*
X81909929Y-123296740D01*
X81814691Y-123296740D01*
X83195644Y-123296740D02*
X82624215Y-123296740D01*
X82909929Y-123296740D02*
X82909929Y-122296740D01*
X82814691Y-122439598D01*
X82719453Y-122534836D01*
X82624215Y-122582455D01*
X83528977Y-122296740D02*
X84148025Y-122296740D01*
X83814691Y-122677693D01*
X83957548Y-122677693D01*
X84052787Y-122725312D01*
X84100406Y-122772931D01*
X84148025Y-122868169D01*
X84148025Y-123106264D01*
X84100406Y-123201502D01*
X84052787Y-123249121D01*
X83957548Y-123296740D01*
X83671834Y-123296740D01*
X83576596Y-123249121D01*
X83528977Y-123201502D01*
X68775300Y-122296740D02*
X68775300Y-123011026D01*
X68727681Y-123153883D01*
X68632443Y-123249121D01*
X68489585Y-123296740D01*
X68394347Y-123296740D01*
X69775300Y-123296740D02*
X69203871Y-123296740D01*
X69489585Y-123296740D02*
X69489585Y-122296740D01*
X69394347Y-122439598D01*
X69299109Y-122534836D01*
X69203871Y-122582455D01*
X70632443Y-122630074D02*
X70632443Y-123296740D01*
X70394347Y-122249121D02*
X70156252Y-122963407D01*
X70775300Y-122963407D01*
X55354956Y-122296740D02*
X55354956Y-123011026D01*
X55307337Y-123153883D01*
X55212099Y-123249121D01*
X55069241Y-123296740D01*
X54974003Y-123296740D01*
X56354956Y-123296740D02*
X55783527Y-123296740D01*
X56069241Y-123296740D02*
X56069241Y-122296740D01*
X55974003Y-122439598D01*
X55878765Y-122534836D01*
X55783527Y-122582455D01*
X57259718Y-122296740D02*
X56783527Y-122296740D01*
X56735908Y-122772931D01*
X56783527Y-122725312D01*
X56878765Y-122677693D01*
X57116860Y-122677693D01*
X57212099Y-122725312D01*
X57259718Y-122772931D01*
X57307337Y-122868169D01*
X57307337Y-123106264D01*
X57259718Y-123201502D01*
X57212099Y-123249121D01*
X57116860Y-123296740D01*
X56878765Y-123296740D01*
X56783527Y-123249121D01*
X56735908Y-123201502D01*
X104104535Y-108306620D02*
X104104535Y-109116144D01*
X104152154Y-109211382D01*
X104199773Y-109259001D01*
X104295011Y-109306620D01*
X104485487Y-109306620D01*
X104580725Y-109259001D01*
X104628344Y-109211382D01*
X104675963Y-109116144D01*
X104675963Y-108306620D01*
X105104535Y-108401859D02*
X105152154Y-108354240D01*
X105247392Y-108306620D01*
X105485487Y-108306620D01*
X105580725Y-108354240D01*
X105628344Y-108401859D01*
X105675963Y-108497097D01*
X105675963Y-108592335D01*
X105628344Y-108735192D01*
X105056916Y-109306620D01*
X105675963Y-109306620D01*
X94294550Y-110895070D02*
X94770740Y-110895070D01*
X93770740Y-111228403D02*
X94294550Y-110895070D01*
X93770740Y-110561737D01*
X94770740Y-109704594D02*
X94770740Y-110276022D01*
X94770740Y-109990308D02*
X93770740Y-109990308D01*
X93913598Y-110085546D01*
X94008836Y-110180784D01*
X94056455Y-110276022D01*
X47497590Y-115040350D02*
X47973780Y-115040350D01*
X46973780Y-115373683D02*
X47497590Y-115040350D01*
X46973780Y-114707017D01*
X47069019Y-114421302D02*
X47021400Y-114373683D01*
X46973780Y-114278445D01*
X46973780Y-114040350D01*
X47021400Y-113945112D01*
X47069019Y-113897493D01*
X47164257Y-113849874D01*
X47259495Y-113849874D01*
X47402352Y-113897493D01*
X47973780Y-114468921D01*
X47973780Y-113849874D01*
X63502302Y-78309742D02*
X63454683Y-78357361D01*
X63311826Y-78404980D01*
X63216588Y-78404980D01*
X63073731Y-78357361D01*
X62978493Y-78262123D01*
X62930874Y-78166885D01*
X62883255Y-77976409D01*
X62883255Y-77833552D01*
X62930874Y-77643076D01*
X62978493Y-77547838D01*
X63073731Y-77452600D01*
X63216588Y-77404980D01*
X63311826Y-77404980D01*
X63454683Y-77452600D01*
X63502302Y-77500219D01*
X64454683Y-78404980D02*
X63883255Y-78404980D01*
X64168969Y-78404980D02*
X64168969Y-77404980D01*
X64073731Y-77547838D01*
X63978493Y-77643076D01*
X63883255Y-77690695D01*
X65311826Y-77404980D02*
X65121350Y-77404980D01*
X65026112Y-77452600D01*
X64978493Y-77500219D01*
X64883255Y-77643076D01*
X64835636Y-77833552D01*
X64835636Y-78214504D01*
X64883255Y-78309742D01*
X64930874Y-78357361D01*
X65026112Y-78404980D01*
X65216588Y-78404980D01*
X65311826Y-78357361D01*
X65359445Y-78309742D01*
X65407064Y-78214504D01*
X65407064Y-77976409D01*
X65359445Y-77881171D01*
X65311826Y-77833552D01*
X65216588Y-77785933D01*
X65026112Y-77785933D01*
X64930874Y-77833552D01*
X64883255Y-77881171D01*
X64835636Y-77976409D01*
X64574182Y-82834662D02*
X64526563Y-82882281D01*
X64383706Y-82929900D01*
X64288468Y-82929900D01*
X64145611Y-82882281D01*
X64050373Y-82787043D01*
X64002754Y-82691805D01*
X63955135Y-82501329D01*
X63955135Y-82358472D01*
X64002754Y-82167996D01*
X64050373Y-82072758D01*
X64145611Y-81977520D01*
X64288468Y-81929900D01*
X64383706Y-81929900D01*
X64526563Y-81977520D01*
X64574182Y-82025139D01*
X65526563Y-82929900D02*
X64955135Y-82929900D01*
X65240849Y-82929900D02*
X65240849Y-81929900D01*
X65145611Y-82072758D01*
X65050373Y-82167996D01*
X64955135Y-82215615D01*
X65859897Y-81929900D02*
X66526563Y-81929900D01*
X66097992Y-82929900D01*
X62809215Y-85371300D02*
X62809215Y-86180824D01*
X62856834Y-86276062D01*
X62904453Y-86323681D01*
X62999691Y-86371300D01*
X63190167Y-86371300D01*
X63285405Y-86323681D01*
X63333024Y-86276062D01*
X63380643Y-86180824D01*
X63380643Y-85371300D01*
X64285405Y-85704634D02*
X64285405Y-86371300D01*
X64047310Y-85323681D02*
X63809215Y-86037967D01*
X64428262Y-86037967D01*
X75658742Y-103031460D02*
X75325409Y-102555270D01*
X75087314Y-103031460D02*
X75087314Y-102031460D01*
X75468266Y-102031460D01*
X75563504Y-102079080D01*
X75611123Y-102126699D01*
X75658742Y-102221937D01*
X75658742Y-102364794D01*
X75611123Y-102460032D01*
X75563504Y-102507651D01*
X75468266Y-102555270D01*
X75087314Y-102555270D01*
X76611123Y-103031460D02*
X76039695Y-103031460D01*
X76325409Y-103031460D02*
X76325409Y-102031460D01*
X76230171Y-102174318D01*
X76134933Y-102269556D01*
X76039695Y-102317175D01*
X76944457Y-102031460D02*
X77563504Y-102031460D01*
X77230171Y-102412413D01*
X77373028Y-102412413D01*
X77468266Y-102460032D01*
X77515885Y-102507651D01*
X77563504Y-102602889D01*
X77563504Y-102840984D01*
X77515885Y-102936222D01*
X77468266Y-102983841D01*
X77373028Y-103031460D01*
X77087314Y-103031460D01*
X76992076Y-102983841D01*
X76944457Y-102936222D01*
X69064902Y-106671460D02*
X68731569Y-106195270D01*
X68493474Y-106671460D02*
X68493474Y-105671460D01*
X68874426Y-105671460D01*
X68969664Y-105719080D01*
X69017283Y-105766699D01*
X69064902Y-105861937D01*
X69064902Y-106004794D01*
X69017283Y-106100032D01*
X68969664Y-106147651D01*
X68874426Y-106195270D01*
X68493474Y-106195270D01*
X70017283Y-106671460D02*
X69445855Y-106671460D01*
X69731569Y-106671460D02*
X69731569Y-105671460D01*
X69636331Y-105814318D01*
X69541093Y-105909556D01*
X69445855Y-105957175D01*
X70874426Y-106004794D02*
X70874426Y-106671460D01*
X70636331Y-105623841D02*
X70398236Y-106338127D01*
X71017283Y-106338127D01*
X75870281Y-123457499D02*
X75775043Y-123409880D01*
X75679805Y-123314641D01*
X75536948Y-123171784D01*
X75441710Y-123124165D01*
X75346472Y-123124165D01*
X75394091Y-123362260D02*
X75298853Y-123314641D01*
X75203615Y-123219403D01*
X75155996Y-123028927D01*
X75155996Y-122695594D01*
X75203615Y-122505118D01*
X75298853Y-122409880D01*
X75394091Y-122362260D01*
X75584567Y-122362260D01*
X75679805Y-122409880D01*
X75775043Y-122505118D01*
X75822662Y-122695594D01*
X75822662Y-123028927D01*
X75775043Y-123219403D01*
X75679805Y-123314641D01*
X75584567Y-123362260D01*
X75394091Y-123362260D01*
X76775043Y-123362260D02*
X76203615Y-123362260D01*
X76489329Y-123362260D02*
X76489329Y-122362260D01*
X76394091Y-122505118D01*
X76298853Y-122600356D01*
X76203615Y-122647975D01*
X59163761Y-120339819D02*
X59068523Y-120292200D01*
X58973285Y-120196961D01*
X58830428Y-120054104D01*
X58735190Y-120006485D01*
X58639952Y-120006485D01*
X58687571Y-120244580D02*
X58592333Y-120196961D01*
X58497095Y-120101723D01*
X58449476Y-119911247D01*
X58449476Y-119577914D01*
X58497095Y-119387438D01*
X58592333Y-119292200D01*
X58687571Y-119244580D01*
X58878047Y-119244580D01*
X58973285Y-119292200D01*
X59068523Y-119387438D01*
X59116142Y-119577914D01*
X59116142Y-119911247D01*
X59068523Y-120101723D01*
X58973285Y-120196961D01*
X58878047Y-120244580D01*
X58687571Y-120244580D01*
X59497095Y-119339819D02*
X59544714Y-119292200D01*
X59639952Y-119244580D01*
X59878047Y-119244580D01*
X59973285Y-119292200D01*
X60020904Y-119339819D01*
X60068523Y-119435057D01*
X60068523Y-119530295D01*
X60020904Y-119673152D01*
X59449476Y-120244580D01*
X60068523Y-120244580D01*
X67449241Y-115595099D02*
X67354003Y-115547480D01*
X67258765Y-115452241D01*
X67115908Y-115309384D01*
X67020670Y-115261765D01*
X66925432Y-115261765D01*
X66973051Y-115499860D02*
X66877813Y-115452241D01*
X66782575Y-115357003D01*
X66734956Y-115166527D01*
X66734956Y-114833194D01*
X66782575Y-114642718D01*
X66877813Y-114547480D01*
X66973051Y-114499860D01*
X67163527Y-114499860D01*
X67258765Y-114547480D01*
X67354003Y-114642718D01*
X67401622Y-114833194D01*
X67401622Y-115166527D01*
X67354003Y-115357003D01*
X67258765Y-115452241D01*
X67163527Y-115499860D01*
X66973051Y-115499860D01*
X67734956Y-114499860D02*
X68354003Y-114499860D01*
X68020670Y-114880813D01*
X68163527Y-114880813D01*
X68258765Y-114928432D01*
X68306384Y-114976051D01*
X68354003Y-115071289D01*
X68354003Y-115309384D01*
X68306384Y-115404622D01*
X68258765Y-115452241D01*
X68163527Y-115499860D01*
X67877813Y-115499860D01*
X67782575Y-115452241D01*
X67734956Y-115404622D01*
X76293742Y-112466380D02*
X75960409Y-111990190D01*
X75722314Y-112466380D02*
X75722314Y-111466380D01*
X76103266Y-111466380D01*
X76198504Y-111514000D01*
X76246123Y-111561619D01*
X76293742Y-111656857D01*
X76293742Y-111799714D01*
X76246123Y-111894952D01*
X76198504Y-111942571D01*
X76103266Y-111990190D01*
X75722314Y-111990190D01*
X77246123Y-112466380D02*
X76674695Y-112466380D01*
X76960409Y-112466380D02*
X76960409Y-111466380D01*
X76865171Y-111609238D01*
X76769933Y-111704476D01*
X76674695Y-111752095D01*
X78150885Y-111466380D02*
X77674695Y-111466380D01*
X77627076Y-111942571D01*
X77674695Y-111894952D01*
X77769933Y-111847333D01*
X78008028Y-111847333D01*
X78103266Y-111894952D01*
X78150885Y-111942571D01*
X78198504Y-112037809D01*
X78198504Y-112275904D01*
X78150885Y-112371142D01*
X78103266Y-112418761D01*
X78008028Y-112466380D01*
X77769933Y-112466380D01*
X77674695Y-112418761D01*
X77627076Y-112371142D01*
X65180380Y-112961657D02*
X64704190Y-113294990D01*
X65180380Y-113533085D02*
X64180380Y-113533085D01*
X64180380Y-113152133D01*
X64228000Y-113056895D01*
X64275619Y-113009276D01*
X64370857Y-112961657D01*
X64513714Y-112961657D01*
X64608952Y-113009276D01*
X64656571Y-113056895D01*
X64704190Y-113152133D01*
X64704190Y-113533085D01*
X65180380Y-112009276D02*
X65180380Y-112580704D01*
X65180380Y-112294990D02*
X64180380Y-112294990D01*
X64323238Y-112390228D01*
X64418476Y-112485466D01*
X64466095Y-112580704D01*
X64180380Y-111152133D02*
X64180380Y-111342609D01*
X64228000Y-111437847D01*
X64275619Y-111485466D01*
X64418476Y-111580704D01*
X64608952Y-111628323D01*
X64989904Y-111628323D01*
X65085142Y-111580704D01*
X65132761Y-111533085D01*
X65180380Y-111437847D01*
X65180380Y-111247371D01*
X65132761Y-111152133D01*
X65085142Y-111104514D01*
X64989904Y-111056895D01*
X64751809Y-111056895D01*
X64656571Y-111104514D01*
X64608952Y-111152133D01*
X64561333Y-111247371D01*
X64561333Y-111437847D01*
X64608952Y-111533085D01*
X64656571Y-111580704D01*
X64751809Y-111628323D01*
X59407822Y-117768540D02*
X59074489Y-117292350D01*
X58836394Y-117768540D02*
X58836394Y-116768540D01*
X59217346Y-116768540D01*
X59312584Y-116816160D01*
X59360203Y-116863779D01*
X59407822Y-116959017D01*
X59407822Y-117101874D01*
X59360203Y-117197112D01*
X59312584Y-117244731D01*
X59217346Y-117292350D01*
X58836394Y-117292350D01*
X60360203Y-117768540D02*
X59788775Y-117768540D01*
X60074489Y-117768540D02*
X60074489Y-116768540D01*
X59979251Y-116911398D01*
X59884013Y-117006636D01*
X59788775Y-117054255D01*
X60693537Y-116768540D02*
X61360203Y-116768540D01*
X60931632Y-117768540D01*
X77731382Y-118995540D02*
X77398049Y-118519350D01*
X77159954Y-118995540D02*
X77159954Y-117995540D01*
X77540906Y-117995540D01*
X77636144Y-118043160D01*
X77683763Y-118090779D01*
X77731382Y-118186017D01*
X77731382Y-118328874D01*
X77683763Y-118424112D01*
X77636144Y-118471731D01*
X77540906Y-118519350D01*
X77159954Y-118519350D01*
X78683763Y-118995540D02*
X78112335Y-118995540D01*
X78398049Y-118995540D02*
X78398049Y-117995540D01*
X78302811Y-118138398D01*
X78207573Y-118233636D01*
X78112335Y-118281255D01*
X79255192Y-118424112D02*
X79159954Y-118376493D01*
X79112335Y-118328874D01*
X79064716Y-118233636D01*
X79064716Y-118186017D01*
X79112335Y-118090779D01*
X79159954Y-118043160D01*
X79255192Y-117995540D01*
X79445668Y-117995540D01*
X79540906Y-118043160D01*
X79588525Y-118090779D01*
X79636144Y-118186017D01*
X79636144Y-118233636D01*
X79588525Y-118328874D01*
X79540906Y-118376493D01*
X79445668Y-118424112D01*
X79255192Y-118424112D01*
X79159954Y-118471731D01*
X79112335Y-118519350D01*
X79064716Y-118614588D01*
X79064716Y-118805064D01*
X79112335Y-118900302D01*
X79159954Y-118947921D01*
X79255192Y-118995540D01*
X79445668Y-118995540D01*
X79540906Y-118947921D01*
X79588525Y-118900302D01*
X79636144Y-118805064D01*
X79636144Y-118614588D01*
X79588525Y-118519350D01*
X79540906Y-118471731D01*
X79445668Y-118424112D01*
X53840142Y-118032700D02*
X53506809Y-117556510D01*
X53268714Y-118032700D02*
X53268714Y-117032700D01*
X53649666Y-117032700D01*
X53744904Y-117080320D01*
X53792523Y-117127939D01*
X53840142Y-117223177D01*
X53840142Y-117366034D01*
X53792523Y-117461272D01*
X53744904Y-117508891D01*
X53649666Y-117556510D01*
X53268714Y-117556510D01*
X54792523Y-118032700D02*
X54221095Y-118032700D01*
X54506809Y-118032700D02*
X54506809Y-117032700D01*
X54411571Y-117175558D01*
X54316333Y-117270796D01*
X54221095Y-117318415D01*
X55268714Y-118032700D02*
X55459190Y-118032700D01*
X55554428Y-117985081D01*
X55602047Y-117937462D01*
X55697285Y-117794605D01*
X55744904Y-117604129D01*
X55744904Y-117223177D01*
X55697285Y-117127939D01*
X55649666Y-117080320D01*
X55554428Y-117032700D01*
X55363952Y-117032700D01*
X55268714Y-117080320D01*
X55221095Y-117127939D01*
X55173476Y-117223177D01*
X55173476Y-117461272D01*
X55221095Y-117556510D01*
X55268714Y-117604129D01*
X55363952Y-117651748D01*
X55554428Y-117651748D01*
X55649666Y-117604129D01*
X55697285Y-117556510D01*
X55744904Y-117461272D01*
X66239740Y-117965457D02*
X65763550Y-118298790D01*
X66239740Y-118536885D02*
X65239740Y-118536885D01*
X65239740Y-118155933D01*
X65287360Y-118060695D01*
X65334979Y-118013076D01*
X65430217Y-117965457D01*
X65573074Y-117965457D01*
X65668312Y-118013076D01*
X65715931Y-118060695D01*
X65763550Y-118155933D01*
X65763550Y-118536885D01*
X65334979Y-117584504D02*
X65287360Y-117536885D01*
X65239740Y-117441647D01*
X65239740Y-117203552D01*
X65287360Y-117108314D01*
X65334979Y-117060695D01*
X65430217Y-117013076D01*
X65525455Y-117013076D01*
X65668312Y-117060695D01*
X66239740Y-117632123D01*
X66239740Y-117013076D01*
X65239740Y-116394028D02*
X65239740Y-116298790D01*
X65287360Y-116203552D01*
X65334979Y-116155933D01*
X65430217Y-116108314D01*
X65620693Y-116060695D01*
X65858788Y-116060695D01*
X66049264Y-116108314D01*
X66144502Y-116155933D01*
X66192121Y-116203552D01*
X66239740Y-116298790D01*
X66239740Y-116394028D01*
X66192121Y-116489266D01*
X66144502Y-116536885D01*
X66049264Y-116584504D01*
X65858788Y-116632123D01*
X65620693Y-116632123D01*
X65430217Y-116584504D01*
X65334979Y-116536885D01*
X65287360Y-116489266D01*
X65239740Y-116394028D01*
X101948342Y-116949457D02*
X101995961Y-116997076D01*
X102043580Y-117139933D01*
X102043580Y-117235171D01*
X101995961Y-117378028D01*
X101900723Y-117473266D01*
X101805485Y-117520885D01*
X101615009Y-117568504D01*
X101472152Y-117568504D01*
X101281676Y-117520885D01*
X101186438Y-117473266D01*
X101091200Y-117378028D01*
X101043580Y-117235171D01*
X101043580Y-117139933D01*
X101091200Y-116997076D01*
X101138819Y-116949457D01*
X102043580Y-115997076D02*
X102043580Y-116568504D01*
X102043580Y-116282790D02*
X101043580Y-116282790D01*
X101186438Y-116378028D01*
X101281676Y-116473266D01*
X101329295Y-116568504D01*
X101472152Y-115425647D02*
X101424533Y-115520885D01*
X101376914Y-115568504D01*
X101281676Y-115616123D01*
X101234057Y-115616123D01*
X101138819Y-115568504D01*
X101091200Y-115520885D01*
X101043580Y-115425647D01*
X101043580Y-115235171D01*
X101091200Y-115139933D01*
X101138819Y-115092314D01*
X101234057Y-115044695D01*
X101281676Y-115044695D01*
X101376914Y-115092314D01*
X101424533Y-115139933D01*
X101472152Y-115235171D01*
X101472152Y-115425647D01*
X101519771Y-115520885D01*
X101567390Y-115568504D01*
X101662628Y-115616123D01*
X101853104Y-115616123D01*
X101948342Y-115568504D01*
X101995961Y-115520885D01*
X102043580Y-115425647D01*
X102043580Y-115235171D01*
X101995961Y-115139933D01*
X101948342Y-115092314D01*
X101853104Y-115044695D01*
X101662628Y-115044695D01*
X101567390Y-115092314D01*
X101519771Y-115139933D01*
X101472152Y-115235171D01*
X116073102Y-126530337D02*
X116120721Y-126577956D01*
X116168340Y-126720813D01*
X116168340Y-126816051D01*
X116120721Y-126958908D01*
X116025483Y-127054146D01*
X115930245Y-127101765D01*
X115739769Y-127149384D01*
X115596912Y-127149384D01*
X115406436Y-127101765D01*
X115311198Y-127054146D01*
X115215960Y-126958908D01*
X115168340Y-126816051D01*
X115168340Y-126720813D01*
X115215960Y-126577956D01*
X115263579Y-126530337D01*
X115263579Y-126149384D02*
X115215960Y-126101765D01*
X115168340Y-126006527D01*
X115168340Y-125768432D01*
X115215960Y-125673194D01*
X115263579Y-125625575D01*
X115358817Y-125577956D01*
X115454055Y-125577956D01*
X115596912Y-125625575D01*
X116168340Y-126197003D01*
X116168340Y-125577956D01*
X116168340Y-124625575D02*
X116168340Y-125197003D01*
X116168340Y-124911289D02*
X115168340Y-124911289D01*
X115311198Y-125006527D01*
X115406436Y-125101765D01*
X115454055Y-125197003D01*
X61524062Y-126667497D02*
X61571681Y-126715116D01*
X61619300Y-126857973D01*
X61619300Y-126953211D01*
X61571681Y-127096068D01*
X61476443Y-127191306D01*
X61381205Y-127238925D01*
X61190729Y-127286544D01*
X61047872Y-127286544D01*
X60857396Y-127238925D01*
X60762158Y-127191306D01*
X60666920Y-127096068D01*
X60619300Y-126953211D01*
X60619300Y-126857973D01*
X60666920Y-126715116D01*
X60714539Y-126667497D01*
X60714539Y-126286544D02*
X60666920Y-126238925D01*
X60619300Y-126143687D01*
X60619300Y-125905592D01*
X60666920Y-125810354D01*
X60714539Y-125762735D01*
X60809777Y-125715116D01*
X60905015Y-125715116D01*
X61047872Y-125762735D01*
X61619300Y-126334163D01*
X61619300Y-125715116D01*
X60714539Y-125334163D02*
X60666920Y-125286544D01*
X60619300Y-125191306D01*
X60619300Y-124953211D01*
X60666920Y-124857973D01*
X60714539Y-124810354D01*
X60809777Y-124762735D01*
X60905015Y-124762735D01*
X61047872Y-124810354D01*
X61619300Y-125381782D01*
X61619300Y-124762735D01*
M02*
