G04 #@! TF.GenerationSoftware,KiCad,Pcbnew,(5.1.9)-1*
G04 #@! TF.CreationDate,2021-04-03T17:20:52+02:00*
G04 #@! TF.ProjectId,vfo-pcb,76666f2d-7063-4622-9e6b-696361645f70,rev?*
G04 #@! TF.SameCoordinates,Original*
G04 #@! TF.FileFunction,Legend,Bot*
G04 #@! TF.FilePolarity,Positive*
%FSLAX46Y46*%
G04 Gerber Fmt 4.6, Leading zero omitted, Abs format (unit mm)*
G04 Created by KiCad (PCBNEW (5.1.9)-1) date 2021-04-03 17:20:52*
%MOMM*%
%LPD*%
G01*
G04 APERTURE LIST*
%ADD10C,0.120000*%
%ADD11C,0.150000*%
G04 APERTURE END LIST*
D10*
X69997320Y-65669160D02*
X120035320Y-65659000D01*
X70025260Y-105669080D02*
X69997320Y-65669160D01*
X120025160Y-105681780D02*
X70025260Y-105669080D01*
X120025160Y-105674160D02*
X120032780Y-65660880D01*
X50233580Y-108064300D02*
X50251360Y-65374520D01*
X127106680Y-108036360D02*
X50228500Y-108059220D01*
X127126720Y-65318640D02*
X127106400Y-108036360D01*
X50251360Y-65374520D02*
X127124460Y-65318640D01*
X133490380Y-103070576D02*
X133490380Y-104274704D01*
X131670380Y-103070576D02*
X131670380Y-104274704D01*
X144947724Y-111144640D02*
X143743596Y-111144640D01*
X144947724Y-112964640D02*
X143743596Y-112964640D01*
X52161440Y-104565760D02*
X53491440Y-104565760D01*
X53491440Y-104565760D02*
X53491440Y-103235760D01*
X53491440Y-101965760D02*
X53491440Y-68885760D01*
X50831440Y-68885760D02*
X53491440Y-68885760D01*
X50831440Y-101965760D02*
X50831440Y-68885760D01*
X50831440Y-101965760D02*
X53491440Y-101965760D01*
X137327880Y-72436360D02*
X136327880Y-72436360D01*
X136827880Y-71936360D02*
X136827880Y-72936360D01*
X130727880Y-75936360D02*
X130727880Y-78336360D01*
X130727880Y-71136360D02*
X130727880Y-73736360D01*
X130727880Y-66536360D02*
X130727880Y-68936360D01*
X144027880Y-68336360D02*
X144327880Y-68636360D01*
X144627880Y-68336360D02*
X144027880Y-68336360D01*
X144327880Y-68636360D02*
X144627880Y-68336360D01*
X142927880Y-66536360D02*
X142927880Y-78336360D01*
X138827880Y-66536360D02*
X142927880Y-66536360D01*
X138827880Y-78336360D02*
X142927880Y-78336360D01*
X130727880Y-78336360D02*
X134827880Y-78336360D01*
X134827880Y-66536360D02*
X130727880Y-66536360D01*
X139827880Y-72436360D02*
G75*
G03*
X139827880Y-72436360I-3000000J0D01*
G01*
X45871720Y-84350776D02*
X45871720Y-85554904D01*
X47691720Y-84350776D02*
X47691720Y-85554904D01*
D11*
X131117522Y-103505973D02*
X131165141Y-103458354D01*
X131212760Y-103315497D01*
X131212760Y-103220259D01*
X131165141Y-103077401D01*
X131069903Y-102982163D01*
X130974665Y-102934544D01*
X130784189Y-102886925D01*
X130641332Y-102886925D01*
X130450856Y-102934544D01*
X130355618Y-102982163D01*
X130260380Y-103077401D01*
X130212760Y-103220259D01*
X130212760Y-103315497D01*
X130260380Y-103458354D01*
X130307999Y-103505973D01*
X130641332Y-104077401D02*
X130593713Y-103982163D01*
X130546094Y-103934544D01*
X130450856Y-103886925D01*
X130403237Y-103886925D01*
X130307999Y-103934544D01*
X130260380Y-103982163D01*
X130212760Y-104077401D01*
X130212760Y-104267878D01*
X130260380Y-104363116D01*
X130307999Y-104410735D01*
X130403237Y-104458354D01*
X130450856Y-104458354D01*
X130546094Y-104410735D01*
X130593713Y-104363116D01*
X130641332Y-104267878D01*
X130641332Y-104077401D01*
X130688951Y-103982163D01*
X130736570Y-103934544D01*
X130831808Y-103886925D01*
X131022284Y-103886925D01*
X131117522Y-103934544D01*
X131165141Y-103982163D01*
X131212760Y-104077401D01*
X131212760Y-104267878D01*
X131165141Y-104363116D01*
X131117522Y-104410735D01*
X131022284Y-104458354D01*
X130831808Y-104458354D01*
X130736570Y-104410735D01*
X130688951Y-104363116D01*
X130641332Y-104267878D01*
X144988517Y-110591782D02*
X145036136Y-110639401D01*
X145178993Y-110687020D01*
X145274231Y-110687020D01*
X145417088Y-110639401D01*
X145512326Y-110544163D01*
X145559945Y-110448925D01*
X145607564Y-110258449D01*
X145607564Y-110115592D01*
X145559945Y-109925116D01*
X145512326Y-109829878D01*
X145417088Y-109734640D01*
X145274231Y-109687020D01*
X145178993Y-109687020D01*
X145036136Y-109734640D01*
X144988517Y-109782259D01*
X144036136Y-110687020D02*
X144607564Y-110687020D01*
X144321850Y-110687020D02*
X144321850Y-109687020D01*
X144417088Y-109829878D01*
X144512326Y-109925116D01*
X144607564Y-109972735D01*
X143655183Y-109782259D02*
X143607564Y-109734640D01*
X143512326Y-109687020D01*
X143274231Y-109687020D01*
X143178993Y-109734640D01*
X143131374Y-109782259D01*
X143083755Y-109877497D01*
X143083755Y-109972735D01*
X143131374Y-110115592D01*
X143702802Y-110687020D01*
X143083755Y-110687020D01*
X52494773Y-105458140D02*
X52494773Y-106172426D01*
X52542392Y-106315283D01*
X52637630Y-106410521D01*
X52780487Y-106458140D01*
X52875725Y-106458140D01*
X51875725Y-105886712D02*
X51970963Y-105839093D01*
X52018582Y-105791474D01*
X52066201Y-105696236D01*
X52066201Y-105648617D01*
X52018582Y-105553379D01*
X51970963Y-105505760D01*
X51875725Y-105458140D01*
X51685249Y-105458140D01*
X51590011Y-105505760D01*
X51542392Y-105553379D01*
X51494773Y-105648617D01*
X51494773Y-105696236D01*
X51542392Y-105791474D01*
X51590011Y-105839093D01*
X51685249Y-105886712D01*
X51875725Y-105886712D01*
X51970963Y-105934331D01*
X52018582Y-105981950D01*
X52066201Y-106077188D01*
X52066201Y-106267664D01*
X52018582Y-106362902D01*
X51970963Y-106410521D01*
X51875725Y-106458140D01*
X51685249Y-106458140D01*
X51590011Y-106410521D01*
X51542392Y-106362902D01*
X51494773Y-106267664D01*
X51494773Y-106077188D01*
X51542392Y-105981950D01*
X51590011Y-105934331D01*
X51685249Y-105886712D01*
X142861213Y-65641121D02*
X142718356Y-65688740D01*
X142480260Y-65688740D01*
X142385022Y-65641121D01*
X142337403Y-65593502D01*
X142289784Y-65498264D01*
X142289784Y-65403026D01*
X142337403Y-65307788D01*
X142385022Y-65260169D01*
X142480260Y-65212550D01*
X142670737Y-65164931D01*
X142765975Y-65117312D01*
X142813594Y-65069693D01*
X142861213Y-64974455D01*
X142861213Y-64879217D01*
X142813594Y-64783979D01*
X142765975Y-64736360D01*
X142670737Y-64688740D01*
X142432641Y-64688740D01*
X142289784Y-64736360D01*
X141956451Y-64688740D02*
X141718356Y-65688740D01*
X141527880Y-64974455D01*
X141337403Y-65688740D01*
X141099308Y-64688740D01*
X140194546Y-65688740D02*
X140765975Y-65688740D01*
X140480260Y-65688740D02*
X140480260Y-64688740D01*
X140575499Y-64831598D01*
X140670737Y-64926836D01*
X140765975Y-64974455D01*
X45414100Y-84786173D02*
X44937910Y-84452840D01*
X45414100Y-84214744D02*
X44414100Y-84214744D01*
X44414100Y-84595697D01*
X44461720Y-84690935D01*
X44509339Y-84738554D01*
X44604577Y-84786173D01*
X44747434Y-84786173D01*
X44842672Y-84738554D01*
X44890291Y-84690935D01*
X44937910Y-84595697D01*
X44937910Y-84214744D01*
X44747434Y-85643316D02*
X45414100Y-85643316D01*
X44366481Y-85405220D02*
X45080767Y-85167125D01*
X45080767Y-85786173D01*
M02*
