G04 #@! TF.GenerationSoftware,KiCad,Pcbnew,(5.1.5)-3*
G04 #@! TF.CreationDate,2020-05-10T17:34:40+02:00*
G04 #@! TF.ProjectId,vfo-pcb,76666f2d-7063-4622-9e6b-696361645f70,rev?*
G04 #@! TF.SameCoordinates,Original*
G04 #@! TF.FileFunction,Paste,Top*
G04 #@! TF.FilePolarity,Positive*
%FSLAX46Y46*%
G04 Gerber Fmt 4.6, Leading zero omitted, Abs format (unit mm)*
G04 Created by KiCad (PCBNEW (5.1.5)-3) date 2020-05-10 17:34:40*
%MOMM*%
%LPD*%
G04 APERTURE LIST*
%ADD10R,0.650000X0.400000*%
%ADD11C,0.100000*%
G04 APERTURE END LIST*
D10*
X94930000Y-118353600D03*
X94930000Y-117053600D03*
X93030000Y-117703600D03*
X94930000Y-117703600D03*
X93030000Y-117053600D03*
X93030000Y-118353600D03*
X93065560Y-123311680D03*
X93065560Y-122011680D03*
X94965560Y-122661680D03*
X93065560Y-122661680D03*
X94965560Y-122011680D03*
X94965560Y-123311680D03*
D11*
G36*
X108075384Y-91399324D02*
G01*
X108099653Y-91402924D01*
X108123451Y-91408885D01*
X108146551Y-91417150D01*
X108168729Y-91427640D01*
X108189773Y-91440253D01*
X108209478Y-91454867D01*
X108227657Y-91471343D01*
X108244133Y-91489522D01*
X108258747Y-91509227D01*
X108271360Y-91530271D01*
X108281850Y-91552449D01*
X108290115Y-91575549D01*
X108296076Y-91599347D01*
X108299676Y-91623616D01*
X108300880Y-91648120D01*
X108300880Y-92898120D01*
X108299676Y-92922624D01*
X108296076Y-92946893D01*
X108290115Y-92970691D01*
X108281850Y-92993791D01*
X108271360Y-93015969D01*
X108258747Y-93037013D01*
X108244133Y-93056718D01*
X108227657Y-93074897D01*
X108209478Y-93091373D01*
X108189773Y-93105987D01*
X108168729Y-93118600D01*
X108146551Y-93129090D01*
X108123451Y-93137355D01*
X108099653Y-93143316D01*
X108075384Y-93146916D01*
X108050880Y-93148120D01*
X107125880Y-93148120D01*
X107101376Y-93146916D01*
X107077107Y-93143316D01*
X107053309Y-93137355D01*
X107030209Y-93129090D01*
X107008031Y-93118600D01*
X106986987Y-93105987D01*
X106967282Y-93091373D01*
X106949103Y-93074897D01*
X106932627Y-93056718D01*
X106918013Y-93037013D01*
X106905400Y-93015969D01*
X106894910Y-92993791D01*
X106886645Y-92970691D01*
X106880684Y-92946893D01*
X106877084Y-92922624D01*
X106875880Y-92898120D01*
X106875880Y-91648120D01*
X106877084Y-91623616D01*
X106880684Y-91599347D01*
X106886645Y-91575549D01*
X106894910Y-91552449D01*
X106905400Y-91530271D01*
X106918013Y-91509227D01*
X106932627Y-91489522D01*
X106949103Y-91471343D01*
X106967282Y-91454867D01*
X106986987Y-91440253D01*
X107008031Y-91427640D01*
X107030209Y-91417150D01*
X107053309Y-91408885D01*
X107077107Y-91402924D01*
X107101376Y-91399324D01*
X107125880Y-91398120D01*
X108050880Y-91398120D01*
X108075384Y-91399324D01*
G37*
G36*
X105100384Y-91399324D02*
G01*
X105124653Y-91402924D01*
X105148451Y-91408885D01*
X105171551Y-91417150D01*
X105193729Y-91427640D01*
X105214773Y-91440253D01*
X105234478Y-91454867D01*
X105252657Y-91471343D01*
X105269133Y-91489522D01*
X105283747Y-91509227D01*
X105296360Y-91530271D01*
X105306850Y-91552449D01*
X105315115Y-91575549D01*
X105321076Y-91599347D01*
X105324676Y-91623616D01*
X105325880Y-91648120D01*
X105325880Y-92898120D01*
X105324676Y-92922624D01*
X105321076Y-92946893D01*
X105315115Y-92970691D01*
X105306850Y-92993791D01*
X105296360Y-93015969D01*
X105283747Y-93037013D01*
X105269133Y-93056718D01*
X105252657Y-93074897D01*
X105234478Y-93091373D01*
X105214773Y-93105987D01*
X105193729Y-93118600D01*
X105171551Y-93129090D01*
X105148451Y-93137355D01*
X105124653Y-93143316D01*
X105100384Y-93146916D01*
X105075880Y-93148120D01*
X104150880Y-93148120D01*
X104126376Y-93146916D01*
X104102107Y-93143316D01*
X104078309Y-93137355D01*
X104055209Y-93129090D01*
X104033031Y-93118600D01*
X104011987Y-93105987D01*
X103992282Y-93091373D01*
X103974103Y-93074897D01*
X103957627Y-93056718D01*
X103943013Y-93037013D01*
X103930400Y-93015969D01*
X103919910Y-92993791D01*
X103911645Y-92970691D01*
X103905684Y-92946893D01*
X103902084Y-92922624D01*
X103900880Y-92898120D01*
X103900880Y-91648120D01*
X103902084Y-91623616D01*
X103905684Y-91599347D01*
X103911645Y-91575549D01*
X103919910Y-91552449D01*
X103930400Y-91530271D01*
X103943013Y-91509227D01*
X103957627Y-91489522D01*
X103974103Y-91471343D01*
X103992282Y-91454867D01*
X104011987Y-91440253D01*
X104033031Y-91427640D01*
X104055209Y-91417150D01*
X104078309Y-91408885D01*
X104102107Y-91402924D01*
X104126376Y-91399324D01*
X104150880Y-91398120D01*
X105075880Y-91398120D01*
X105100384Y-91399324D01*
G37*
G36*
X102634704Y-91375084D02*
G01*
X102658973Y-91378684D01*
X102682771Y-91384645D01*
X102705871Y-91392910D01*
X102728049Y-91403400D01*
X102749093Y-91416013D01*
X102768798Y-91430627D01*
X102786977Y-91447103D01*
X102803453Y-91465282D01*
X102818067Y-91484987D01*
X102830680Y-91506031D01*
X102841170Y-91528209D01*
X102849435Y-91551309D01*
X102855396Y-91575107D01*
X102858996Y-91599376D01*
X102860200Y-91623880D01*
X102860200Y-92873880D01*
X102858996Y-92898384D01*
X102855396Y-92922653D01*
X102849435Y-92946451D01*
X102841170Y-92969551D01*
X102830680Y-92991729D01*
X102818067Y-93012773D01*
X102803453Y-93032478D01*
X102786977Y-93050657D01*
X102768798Y-93067133D01*
X102749093Y-93081747D01*
X102728049Y-93094360D01*
X102705871Y-93104850D01*
X102682771Y-93113115D01*
X102658973Y-93119076D01*
X102634704Y-93122676D01*
X102610200Y-93123880D01*
X101685200Y-93123880D01*
X101660696Y-93122676D01*
X101636427Y-93119076D01*
X101612629Y-93113115D01*
X101589529Y-93104850D01*
X101567351Y-93094360D01*
X101546307Y-93081747D01*
X101526602Y-93067133D01*
X101508423Y-93050657D01*
X101491947Y-93032478D01*
X101477333Y-93012773D01*
X101464720Y-92991729D01*
X101454230Y-92969551D01*
X101445965Y-92946451D01*
X101440004Y-92922653D01*
X101436404Y-92898384D01*
X101435200Y-92873880D01*
X101435200Y-91623880D01*
X101436404Y-91599376D01*
X101440004Y-91575107D01*
X101445965Y-91551309D01*
X101454230Y-91528209D01*
X101464720Y-91506031D01*
X101477333Y-91484987D01*
X101491947Y-91465282D01*
X101508423Y-91447103D01*
X101526602Y-91430627D01*
X101546307Y-91416013D01*
X101567351Y-91403400D01*
X101589529Y-91392910D01*
X101612629Y-91384645D01*
X101636427Y-91378684D01*
X101660696Y-91375084D01*
X101685200Y-91373880D01*
X102610200Y-91373880D01*
X102634704Y-91375084D01*
G37*
G36*
X99659704Y-91375084D02*
G01*
X99683973Y-91378684D01*
X99707771Y-91384645D01*
X99730871Y-91392910D01*
X99753049Y-91403400D01*
X99774093Y-91416013D01*
X99793798Y-91430627D01*
X99811977Y-91447103D01*
X99828453Y-91465282D01*
X99843067Y-91484987D01*
X99855680Y-91506031D01*
X99866170Y-91528209D01*
X99874435Y-91551309D01*
X99880396Y-91575107D01*
X99883996Y-91599376D01*
X99885200Y-91623880D01*
X99885200Y-92873880D01*
X99883996Y-92898384D01*
X99880396Y-92922653D01*
X99874435Y-92946451D01*
X99866170Y-92969551D01*
X99855680Y-92991729D01*
X99843067Y-93012773D01*
X99828453Y-93032478D01*
X99811977Y-93050657D01*
X99793798Y-93067133D01*
X99774093Y-93081747D01*
X99753049Y-93094360D01*
X99730871Y-93104850D01*
X99707771Y-93113115D01*
X99683973Y-93119076D01*
X99659704Y-93122676D01*
X99635200Y-93123880D01*
X98710200Y-93123880D01*
X98685696Y-93122676D01*
X98661427Y-93119076D01*
X98637629Y-93113115D01*
X98614529Y-93104850D01*
X98592351Y-93094360D01*
X98571307Y-93081747D01*
X98551602Y-93067133D01*
X98533423Y-93050657D01*
X98516947Y-93032478D01*
X98502333Y-93012773D01*
X98489720Y-92991729D01*
X98479230Y-92969551D01*
X98470965Y-92946451D01*
X98465004Y-92922653D01*
X98461404Y-92898384D01*
X98460200Y-92873880D01*
X98460200Y-91623880D01*
X98461404Y-91599376D01*
X98465004Y-91575107D01*
X98470965Y-91551309D01*
X98479230Y-91528209D01*
X98489720Y-91506031D01*
X98502333Y-91484987D01*
X98516947Y-91465282D01*
X98533423Y-91447103D01*
X98551602Y-91430627D01*
X98571307Y-91416013D01*
X98592351Y-91403400D01*
X98614529Y-91392910D01*
X98637629Y-91384645D01*
X98661427Y-91378684D01*
X98685696Y-91375084D01*
X98710200Y-91373880D01*
X99635200Y-91373880D01*
X99659704Y-91375084D01*
G37*
G36*
X48304984Y-84288204D02*
G01*
X48329253Y-84291804D01*
X48353051Y-84297765D01*
X48376151Y-84306030D01*
X48398329Y-84316520D01*
X48419373Y-84329133D01*
X48439078Y-84343747D01*
X48457257Y-84360223D01*
X48473733Y-84378402D01*
X48488347Y-84398107D01*
X48500960Y-84419151D01*
X48511450Y-84441329D01*
X48519715Y-84464429D01*
X48525676Y-84488227D01*
X48529276Y-84512496D01*
X48530480Y-84537000D01*
X48530480Y-85462000D01*
X48529276Y-85486504D01*
X48525676Y-85510773D01*
X48519715Y-85534571D01*
X48511450Y-85557671D01*
X48500960Y-85579849D01*
X48488347Y-85600893D01*
X48473733Y-85620598D01*
X48457257Y-85638777D01*
X48439078Y-85655253D01*
X48419373Y-85669867D01*
X48398329Y-85682480D01*
X48376151Y-85692970D01*
X48353051Y-85701235D01*
X48329253Y-85707196D01*
X48304984Y-85710796D01*
X48280480Y-85712000D01*
X47030480Y-85712000D01*
X47005976Y-85710796D01*
X46981707Y-85707196D01*
X46957909Y-85701235D01*
X46934809Y-85692970D01*
X46912631Y-85682480D01*
X46891587Y-85669867D01*
X46871882Y-85655253D01*
X46853703Y-85638777D01*
X46837227Y-85620598D01*
X46822613Y-85600893D01*
X46810000Y-85579849D01*
X46799510Y-85557671D01*
X46791245Y-85534571D01*
X46785284Y-85510773D01*
X46781684Y-85486504D01*
X46780480Y-85462000D01*
X46780480Y-84537000D01*
X46781684Y-84512496D01*
X46785284Y-84488227D01*
X46791245Y-84464429D01*
X46799510Y-84441329D01*
X46810000Y-84419151D01*
X46822613Y-84398107D01*
X46837227Y-84378402D01*
X46853703Y-84360223D01*
X46871882Y-84343747D01*
X46891587Y-84329133D01*
X46912631Y-84316520D01*
X46934809Y-84306030D01*
X46957909Y-84297765D01*
X46981707Y-84291804D01*
X47005976Y-84288204D01*
X47030480Y-84287000D01*
X48280480Y-84287000D01*
X48304984Y-84288204D01*
G37*
G36*
X48304984Y-87263204D02*
G01*
X48329253Y-87266804D01*
X48353051Y-87272765D01*
X48376151Y-87281030D01*
X48398329Y-87291520D01*
X48419373Y-87304133D01*
X48439078Y-87318747D01*
X48457257Y-87335223D01*
X48473733Y-87353402D01*
X48488347Y-87373107D01*
X48500960Y-87394151D01*
X48511450Y-87416329D01*
X48519715Y-87439429D01*
X48525676Y-87463227D01*
X48529276Y-87487496D01*
X48530480Y-87512000D01*
X48530480Y-88437000D01*
X48529276Y-88461504D01*
X48525676Y-88485773D01*
X48519715Y-88509571D01*
X48511450Y-88532671D01*
X48500960Y-88554849D01*
X48488347Y-88575893D01*
X48473733Y-88595598D01*
X48457257Y-88613777D01*
X48439078Y-88630253D01*
X48419373Y-88644867D01*
X48398329Y-88657480D01*
X48376151Y-88667970D01*
X48353051Y-88676235D01*
X48329253Y-88682196D01*
X48304984Y-88685796D01*
X48280480Y-88687000D01*
X47030480Y-88687000D01*
X47005976Y-88685796D01*
X46981707Y-88682196D01*
X46957909Y-88676235D01*
X46934809Y-88667970D01*
X46912631Y-88657480D01*
X46891587Y-88644867D01*
X46871882Y-88630253D01*
X46853703Y-88613777D01*
X46837227Y-88595598D01*
X46822613Y-88575893D01*
X46810000Y-88554849D01*
X46799510Y-88532671D01*
X46791245Y-88509571D01*
X46785284Y-88485773D01*
X46781684Y-88461504D01*
X46780480Y-88437000D01*
X46780480Y-87512000D01*
X46781684Y-87487496D01*
X46785284Y-87463227D01*
X46791245Y-87439429D01*
X46799510Y-87416329D01*
X46810000Y-87394151D01*
X46822613Y-87373107D01*
X46837227Y-87353402D01*
X46853703Y-87335223D01*
X46871882Y-87318747D01*
X46891587Y-87304133D01*
X46912631Y-87291520D01*
X46934809Y-87281030D01*
X46957909Y-87272765D01*
X46981707Y-87266804D01*
X47005976Y-87263204D01*
X47030480Y-87262000D01*
X48280480Y-87262000D01*
X48304984Y-87263204D01*
G37*
G36*
X126144944Y-83591364D02*
G01*
X126169213Y-83594964D01*
X126193011Y-83600925D01*
X126216111Y-83609190D01*
X126238289Y-83619680D01*
X126259333Y-83632293D01*
X126279038Y-83646907D01*
X126297217Y-83663383D01*
X126313693Y-83681562D01*
X126328307Y-83701267D01*
X126340920Y-83722311D01*
X126351410Y-83744489D01*
X126359675Y-83767589D01*
X126365636Y-83791387D01*
X126369236Y-83815656D01*
X126370440Y-83840160D01*
X126370440Y-85090160D01*
X126369236Y-85114664D01*
X126365636Y-85138933D01*
X126359675Y-85162731D01*
X126351410Y-85185831D01*
X126340920Y-85208009D01*
X126328307Y-85229053D01*
X126313693Y-85248758D01*
X126297217Y-85266937D01*
X126279038Y-85283413D01*
X126259333Y-85298027D01*
X126238289Y-85310640D01*
X126216111Y-85321130D01*
X126193011Y-85329395D01*
X126169213Y-85335356D01*
X126144944Y-85338956D01*
X126120440Y-85340160D01*
X125195440Y-85340160D01*
X125170936Y-85338956D01*
X125146667Y-85335356D01*
X125122869Y-85329395D01*
X125099769Y-85321130D01*
X125077591Y-85310640D01*
X125056547Y-85298027D01*
X125036842Y-85283413D01*
X125018663Y-85266937D01*
X125002187Y-85248758D01*
X124987573Y-85229053D01*
X124974960Y-85208009D01*
X124964470Y-85185831D01*
X124956205Y-85162731D01*
X124950244Y-85138933D01*
X124946644Y-85114664D01*
X124945440Y-85090160D01*
X124945440Y-83840160D01*
X124946644Y-83815656D01*
X124950244Y-83791387D01*
X124956205Y-83767589D01*
X124964470Y-83744489D01*
X124974960Y-83722311D01*
X124987573Y-83701267D01*
X125002187Y-83681562D01*
X125018663Y-83663383D01*
X125036842Y-83646907D01*
X125056547Y-83632293D01*
X125077591Y-83619680D01*
X125099769Y-83609190D01*
X125122869Y-83600925D01*
X125146667Y-83594964D01*
X125170936Y-83591364D01*
X125195440Y-83590160D01*
X126120440Y-83590160D01*
X126144944Y-83591364D01*
G37*
G36*
X123169944Y-83591364D02*
G01*
X123194213Y-83594964D01*
X123218011Y-83600925D01*
X123241111Y-83609190D01*
X123263289Y-83619680D01*
X123284333Y-83632293D01*
X123304038Y-83646907D01*
X123322217Y-83663383D01*
X123338693Y-83681562D01*
X123353307Y-83701267D01*
X123365920Y-83722311D01*
X123376410Y-83744489D01*
X123384675Y-83767589D01*
X123390636Y-83791387D01*
X123394236Y-83815656D01*
X123395440Y-83840160D01*
X123395440Y-85090160D01*
X123394236Y-85114664D01*
X123390636Y-85138933D01*
X123384675Y-85162731D01*
X123376410Y-85185831D01*
X123365920Y-85208009D01*
X123353307Y-85229053D01*
X123338693Y-85248758D01*
X123322217Y-85266937D01*
X123304038Y-85283413D01*
X123284333Y-85298027D01*
X123263289Y-85310640D01*
X123241111Y-85321130D01*
X123218011Y-85329395D01*
X123194213Y-85335356D01*
X123169944Y-85338956D01*
X123145440Y-85340160D01*
X122220440Y-85340160D01*
X122195936Y-85338956D01*
X122171667Y-85335356D01*
X122147869Y-85329395D01*
X122124769Y-85321130D01*
X122102591Y-85310640D01*
X122081547Y-85298027D01*
X122061842Y-85283413D01*
X122043663Y-85266937D01*
X122027187Y-85248758D01*
X122012573Y-85229053D01*
X121999960Y-85208009D01*
X121989470Y-85185831D01*
X121981205Y-85162731D01*
X121975244Y-85138933D01*
X121971644Y-85114664D01*
X121970440Y-85090160D01*
X121970440Y-83840160D01*
X121971644Y-83815656D01*
X121975244Y-83791387D01*
X121981205Y-83767589D01*
X121989470Y-83744489D01*
X121999960Y-83722311D01*
X122012573Y-83701267D01*
X122027187Y-83681562D01*
X122043663Y-83663383D01*
X122061842Y-83646907D01*
X122081547Y-83632293D01*
X122102591Y-83619680D01*
X122124769Y-83609190D01*
X122147869Y-83600925D01*
X122171667Y-83594964D01*
X122195936Y-83591364D01*
X122220440Y-83590160D01*
X123145440Y-83590160D01*
X123169944Y-83591364D01*
G37*
G36*
X126185584Y-88107484D02*
G01*
X126209853Y-88111084D01*
X126233651Y-88117045D01*
X126256751Y-88125310D01*
X126278929Y-88135800D01*
X126299973Y-88148413D01*
X126319678Y-88163027D01*
X126337857Y-88179503D01*
X126354333Y-88197682D01*
X126368947Y-88217387D01*
X126381560Y-88238431D01*
X126392050Y-88260609D01*
X126400315Y-88283709D01*
X126406276Y-88307507D01*
X126409876Y-88331776D01*
X126411080Y-88356280D01*
X126411080Y-89606280D01*
X126409876Y-89630784D01*
X126406276Y-89655053D01*
X126400315Y-89678851D01*
X126392050Y-89701951D01*
X126381560Y-89724129D01*
X126368947Y-89745173D01*
X126354333Y-89764878D01*
X126337857Y-89783057D01*
X126319678Y-89799533D01*
X126299973Y-89814147D01*
X126278929Y-89826760D01*
X126256751Y-89837250D01*
X126233651Y-89845515D01*
X126209853Y-89851476D01*
X126185584Y-89855076D01*
X126161080Y-89856280D01*
X125236080Y-89856280D01*
X125211576Y-89855076D01*
X125187307Y-89851476D01*
X125163509Y-89845515D01*
X125140409Y-89837250D01*
X125118231Y-89826760D01*
X125097187Y-89814147D01*
X125077482Y-89799533D01*
X125059303Y-89783057D01*
X125042827Y-89764878D01*
X125028213Y-89745173D01*
X125015600Y-89724129D01*
X125005110Y-89701951D01*
X124996845Y-89678851D01*
X124990884Y-89655053D01*
X124987284Y-89630784D01*
X124986080Y-89606280D01*
X124986080Y-88356280D01*
X124987284Y-88331776D01*
X124990884Y-88307507D01*
X124996845Y-88283709D01*
X125005110Y-88260609D01*
X125015600Y-88238431D01*
X125028213Y-88217387D01*
X125042827Y-88197682D01*
X125059303Y-88179503D01*
X125077482Y-88163027D01*
X125097187Y-88148413D01*
X125118231Y-88135800D01*
X125140409Y-88125310D01*
X125163509Y-88117045D01*
X125187307Y-88111084D01*
X125211576Y-88107484D01*
X125236080Y-88106280D01*
X126161080Y-88106280D01*
X126185584Y-88107484D01*
G37*
G36*
X123210584Y-88107484D02*
G01*
X123234853Y-88111084D01*
X123258651Y-88117045D01*
X123281751Y-88125310D01*
X123303929Y-88135800D01*
X123324973Y-88148413D01*
X123344678Y-88163027D01*
X123362857Y-88179503D01*
X123379333Y-88197682D01*
X123393947Y-88217387D01*
X123406560Y-88238431D01*
X123417050Y-88260609D01*
X123425315Y-88283709D01*
X123431276Y-88307507D01*
X123434876Y-88331776D01*
X123436080Y-88356280D01*
X123436080Y-89606280D01*
X123434876Y-89630784D01*
X123431276Y-89655053D01*
X123425315Y-89678851D01*
X123417050Y-89701951D01*
X123406560Y-89724129D01*
X123393947Y-89745173D01*
X123379333Y-89764878D01*
X123362857Y-89783057D01*
X123344678Y-89799533D01*
X123324973Y-89814147D01*
X123303929Y-89826760D01*
X123281751Y-89837250D01*
X123258651Y-89845515D01*
X123234853Y-89851476D01*
X123210584Y-89855076D01*
X123186080Y-89856280D01*
X122261080Y-89856280D01*
X122236576Y-89855076D01*
X122212307Y-89851476D01*
X122188509Y-89845515D01*
X122165409Y-89837250D01*
X122143231Y-89826760D01*
X122122187Y-89814147D01*
X122102482Y-89799533D01*
X122084303Y-89783057D01*
X122067827Y-89764878D01*
X122053213Y-89745173D01*
X122040600Y-89724129D01*
X122030110Y-89701951D01*
X122021845Y-89678851D01*
X122015884Y-89655053D01*
X122012284Y-89630784D01*
X122011080Y-89606280D01*
X122011080Y-88356280D01*
X122012284Y-88331776D01*
X122015884Y-88307507D01*
X122021845Y-88283709D01*
X122030110Y-88260609D01*
X122040600Y-88238431D01*
X122053213Y-88217387D01*
X122067827Y-88197682D01*
X122084303Y-88179503D01*
X122102482Y-88163027D01*
X122122187Y-88148413D01*
X122143231Y-88135800D01*
X122165409Y-88125310D01*
X122188509Y-88117045D01*
X122212307Y-88111084D01*
X122236576Y-88107484D01*
X122261080Y-88106280D01*
X123186080Y-88106280D01*
X123210584Y-88107484D01*
G37*
G36*
X123758224Y-79627964D02*
G01*
X123782493Y-79631564D01*
X123806291Y-79637525D01*
X123829391Y-79645790D01*
X123851569Y-79656280D01*
X123872613Y-79668893D01*
X123892318Y-79683507D01*
X123910497Y-79699983D01*
X123926973Y-79718162D01*
X123941587Y-79737867D01*
X123954200Y-79758911D01*
X123964690Y-79781089D01*
X123972955Y-79804189D01*
X123978916Y-79827987D01*
X123982516Y-79852256D01*
X123983720Y-79876760D01*
X123983720Y-80801760D01*
X123982516Y-80826264D01*
X123978916Y-80850533D01*
X123972955Y-80874331D01*
X123964690Y-80897431D01*
X123954200Y-80919609D01*
X123941587Y-80940653D01*
X123926973Y-80960358D01*
X123910497Y-80978537D01*
X123892318Y-80995013D01*
X123872613Y-81009627D01*
X123851569Y-81022240D01*
X123829391Y-81032730D01*
X123806291Y-81040995D01*
X123782493Y-81046956D01*
X123758224Y-81050556D01*
X123733720Y-81051760D01*
X122483720Y-81051760D01*
X122459216Y-81050556D01*
X122434947Y-81046956D01*
X122411149Y-81040995D01*
X122388049Y-81032730D01*
X122365871Y-81022240D01*
X122344827Y-81009627D01*
X122325122Y-80995013D01*
X122306943Y-80978537D01*
X122290467Y-80960358D01*
X122275853Y-80940653D01*
X122263240Y-80919609D01*
X122252750Y-80897431D01*
X122244485Y-80874331D01*
X122238524Y-80850533D01*
X122234924Y-80826264D01*
X122233720Y-80801760D01*
X122233720Y-79876760D01*
X122234924Y-79852256D01*
X122238524Y-79827987D01*
X122244485Y-79804189D01*
X122252750Y-79781089D01*
X122263240Y-79758911D01*
X122275853Y-79737867D01*
X122290467Y-79718162D01*
X122306943Y-79699983D01*
X122325122Y-79683507D01*
X122344827Y-79668893D01*
X122365871Y-79656280D01*
X122388049Y-79645790D01*
X122411149Y-79637525D01*
X122434947Y-79631564D01*
X122459216Y-79627964D01*
X122483720Y-79626760D01*
X123733720Y-79626760D01*
X123758224Y-79627964D01*
G37*
G36*
X123758224Y-76652964D02*
G01*
X123782493Y-76656564D01*
X123806291Y-76662525D01*
X123829391Y-76670790D01*
X123851569Y-76681280D01*
X123872613Y-76693893D01*
X123892318Y-76708507D01*
X123910497Y-76724983D01*
X123926973Y-76743162D01*
X123941587Y-76762867D01*
X123954200Y-76783911D01*
X123964690Y-76806089D01*
X123972955Y-76829189D01*
X123978916Y-76852987D01*
X123982516Y-76877256D01*
X123983720Y-76901760D01*
X123983720Y-77826760D01*
X123982516Y-77851264D01*
X123978916Y-77875533D01*
X123972955Y-77899331D01*
X123964690Y-77922431D01*
X123954200Y-77944609D01*
X123941587Y-77965653D01*
X123926973Y-77985358D01*
X123910497Y-78003537D01*
X123892318Y-78020013D01*
X123872613Y-78034627D01*
X123851569Y-78047240D01*
X123829391Y-78057730D01*
X123806291Y-78065995D01*
X123782493Y-78071956D01*
X123758224Y-78075556D01*
X123733720Y-78076760D01*
X122483720Y-78076760D01*
X122459216Y-78075556D01*
X122434947Y-78071956D01*
X122411149Y-78065995D01*
X122388049Y-78057730D01*
X122365871Y-78047240D01*
X122344827Y-78034627D01*
X122325122Y-78020013D01*
X122306943Y-78003537D01*
X122290467Y-77985358D01*
X122275853Y-77965653D01*
X122263240Y-77944609D01*
X122252750Y-77922431D01*
X122244485Y-77899331D01*
X122238524Y-77875533D01*
X122234924Y-77851264D01*
X122233720Y-77826760D01*
X122233720Y-76901760D01*
X122234924Y-76877256D01*
X122238524Y-76852987D01*
X122244485Y-76829189D01*
X122252750Y-76806089D01*
X122263240Y-76783911D01*
X122275853Y-76762867D01*
X122290467Y-76743162D01*
X122306943Y-76724983D01*
X122325122Y-76708507D01*
X122344827Y-76693893D01*
X122365871Y-76681280D01*
X122388049Y-76670790D01*
X122411149Y-76662525D01*
X122434947Y-76656564D01*
X122459216Y-76652964D01*
X122483720Y-76651760D01*
X123733720Y-76651760D01*
X123758224Y-76652964D01*
G37*
G36*
X103605864Y-77201604D02*
G01*
X103630133Y-77205204D01*
X103653931Y-77211165D01*
X103677031Y-77219430D01*
X103699209Y-77229920D01*
X103720253Y-77242533D01*
X103739958Y-77257147D01*
X103758137Y-77273623D01*
X103774613Y-77291802D01*
X103789227Y-77311507D01*
X103801840Y-77332551D01*
X103812330Y-77354729D01*
X103820595Y-77377829D01*
X103826556Y-77401627D01*
X103830156Y-77425896D01*
X103831360Y-77450400D01*
X103831360Y-78375400D01*
X103830156Y-78399904D01*
X103826556Y-78424173D01*
X103820595Y-78447971D01*
X103812330Y-78471071D01*
X103801840Y-78493249D01*
X103789227Y-78514293D01*
X103774613Y-78533998D01*
X103758137Y-78552177D01*
X103739958Y-78568653D01*
X103720253Y-78583267D01*
X103699209Y-78595880D01*
X103677031Y-78606370D01*
X103653931Y-78614635D01*
X103630133Y-78620596D01*
X103605864Y-78624196D01*
X103581360Y-78625400D01*
X102331360Y-78625400D01*
X102306856Y-78624196D01*
X102282587Y-78620596D01*
X102258789Y-78614635D01*
X102235689Y-78606370D01*
X102213511Y-78595880D01*
X102192467Y-78583267D01*
X102172762Y-78568653D01*
X102154583Y-78552177D01*
X102138107Y-78533998D01*
X102123493Y-78514293D01*
X102110880Y-78493249D01*
X102100390Y-78471071D01*
X102092125Y-78447971D01*
X102086164Y-78424173D01*
X102082564Y-78399904D01*
X102081360Y-78375400D01*
X102081360Y-77450400D01*
X102082564Y-77425896D01*
X102086164Y-77401627D01*
X102092125Y-77377829D01*
X102100390Y-77354729D01*
X102110880Y-77332551D01*
X102123493Y-77311507D01*
X102138107Y-77291802D01*
X102154583Y-77273623D01*
X102172762Y-77257147D01*
X102192467Y-77242533D01*
X102213511Y-77229920D01*
X102235689Y-77219430D01*
X102258789Y-77211165D01*
X102282587Y-77205204D01*
X102306856Y-77201604D01*
X102331360Y-77200400D01*
X103581360Y-77200400D01*
X103605864Y-77201604D01*
G37*
G36*
X103605864Y-80176604D02*
G01*
X103630133Y-80180204D01*
X103653931Y-80186165D01*
X103677031Y-80194430D01*
X103699209Y-80204920D01*
X103720253Y-80217533D01*
X103739958Y-80232147D01*
X103758137Y-80248623D01*
X103774613Y-80266802D01*
X103789227Y-80286507D01*
X103801840Y-80307551D01*
X103812330Y-80329729D01*
X103820595Y-80352829D01*
X103826556Y-80376627D01*
X103830156Y-80400896D01*
X103831360Y-80425400D01*
X103831360Y-81350400D01*
X103830156Y-81374904D01*
X103826556Y-81399173D01*
X103820595Y-81422971D01*
X103812330Y-81446071D01*
X103801840Y-81468249D01*
X103789227Y-81489293D01*
X103774613Y-81508998D01*
X103758137Y-81527177D01*
X103739958Y-81543653D01*
X103720253Y-81558267D01*
X103699209Y-81570880D01*
X103677031Y-81581370D01*
X103653931Y-81589635D01*
X103630133Y-81595596D01*
X103605864Y-81599196D01*
X103581360Y-81600400D01*
X102331360Y-81600400D01*
X102306856Y-81599196D01*
X102282587Y-81595596D01*
X102258789Y-81589635D01*
X102235689Y-81581370D01*
X102213511Y-81570880D01*
X102192467Y-81558267D01*
X102172762Y-81543653D01*
X102154583Y-81527177D01*
X102138107Y-81508998D01*
X102123493Y-81489293D01*
X102110880Y-81468249D01*
X102100390Y-81446071D01*
X102092125Y-81422971D01*
X102086164Y-81399173D01*
X102082564Y-81374904D01*
X102081360Y-81350400D01*
X102081360Y-80425400D01*
X102082564Y-80400896D01*
X102086164Y-80376627D01*
X102092125Y-80352829D01*
X102100390Y-80329729D01*
X102110880Y-80307551D01*
X102123493Y-80286507D01*
X102138107Y-80266802D01*
X102154583Y-80248623D01*
X102172762Y-80232147D01*
X102192467Y-80217533D01*
X102213511Y-80204920D01*
X102235689Y-80194430D01*
X102258789Y-80186165D01*
X102282587Y-80180204D01*
X102306856Y-80176604D01*
X102331360Y-80175400D01*
X103581360Y-80175400D01*
X103605864Y-80176604D01*
G37*
G36*
X99734904Y-80176604D02*
G01*
X99759173Y-80180204D01*
X99782971Y-80186165D01*
X99806071Y-80194430D01*
X99828249Y-80204920D01*
X99849293Y-80217533D01*
X99868998Y-80232147D01*
X99887177Y-80248623D01*
X99903653Y-80266802D01*
X99918267Y-80286507D01*
X99930880Y-80307551D01*
X99941370Y-80329729D01*
X99949635Y-80352829D01*
X99955596Y-80376627D01*
X99959196Y-80400896D01*
X99960400Y-80425400D01*
X99960400Y-81350400D01*
X99959196Y-81374904D01*
X99955596Y-81399173D01*
X99949635Y-81422971D01*
X99941370Y-81446071D01*
X99930880Y-81468249D01*
X99918267Y-81489293D01*
X99903653Y-81508998D01*
X99887177Y-81527177D01*
X99868998Y-81543653D01*
X99849293Y-81558267D01*
X99828249Y-81570880D01*
X99806071Y-81581370D01*
X99782971Y-81589635D01*
X99759173Y-81595596D01*
X99734904Y-81599196D01*
X99710400Y-81600400D01*
X98460400Y-81600400D01*
X98435896Y-81599196D01*
X98411627Y-81595596D01*
X98387829Y-81589635D01*
X98364729Y-81581370D01*
X98342551Y-81570880D01*
X98321507Y-81558267D01*
X98301802Y-81543653D01*
X98283623Y-81527177D01*
X98267147Y-81508998D01*
X98252533Y-81489293D01*
X98239920Y-81468249D01*
X98229430Y-81446071D01*
X98221165Y-81422971D01*
X98215204Y-81399173D01*
X98211604Y-81374904D01*
X98210400Y-81350400D01*
X98210400Y-80425400D01*
X98211604Y-80400896D01*
X98215204Y-80376627D01*
X98221165Y-80352829D01*
X98229430Y-80329729D01*
X98239920Y-80307551D01*
X98252533Y-80286507D01*
X98267147Y-80266802D01*
X98283623Y-80248623D01*
X98301802Y-80232147D01*
X98321507Y-80217533D01*
X98342551Y-80204920D01*
X98364729Y-80194430D01*
X98387829Y-80186165D01*
X98411627Y-80180204D01*
X98435896Y-80176604D01*
X98460400Y-80175400D01*
X99710400Y-80175400D01*
X99734904Y-80176604D01*
G37*
G36*
X99734904Y-77201604D02*
G01*
X99759173Y-77205204D01*
X99782971Y-77211165D01*
X99806071Y-77219430D01*
X99828249Y-77229920D01*
X99849293Y-77242533D01*
X99868998Y-77257147D01*
X99887177Y-77273623D01*
X99903653Y-77291802D01*
X99918267Y-77311507D01*
X99930880Y-77332551D01*
X99941370Y-77354729D01*
X99949635Y-77377829D01*
X99955596Y-77401627D01*
X99959196Y-77425896D01*
X99960400Y-77450400D01*
X99960400Y-78375400D01*
X99959196Y-78399904D01*
X99955596Y-78424173D01*
X99949635Y-78447971D01*
X99941370Y-78471071D01*
X99930880Y-78493249D01*
X99918267Y-78514293D01*
X99903653Y-78533998D01*
X99887177Y-78552177D01*
X99868998Y-78568653D01*
X99849293Y-78583267D01*
X99828249Y-78595880D01*
X99806071Y-78606370D01*
X99782971Y-78614635D01*
X99759173Y-78620596D01*
X99734904Y-78624196D01*
X99710400Y-78625400D01*
X98460400Y-78625400D01*
X98435896Y-78624196D01*
X98411627Y-78620596D01*
X98387829Y-78614635D01*
X98364729Y-78606370D01*
X98342551Y-78595880D01*
X98321507Y-78583267D01*
X98301802Y-78568653D01*
X98283623Y-78552177D01*
X98267147Y-78533998D01*
X98252533Y-78514293D01*
X98239920Y-78493249D01*
X98229430Y-78471071D01*
X98221165Y-78447971D01*
X98215204Y-78424173D01*
X98211604Y-78399904D01*
X98210400Y-78375400D01*
X98210400Y-77450400D01*
X98211604Y-77425896D01*
X98215204Y-77401627D01*
X98221165Y-77377829D01*
X98229430Y-77354729D01*
X98239920Y-77332551D01*
X98252533Y-77311507D01*
X98267147Y-77291802D01*
X98283623Y-77273623D01*
X98301802Y-77257147D01*
X98321507Y-77242533D01*
X98342551Y-77229920D01*
X98364729Y-77219430D01*
X98387829Y-77211165D01*
X98411627Y-77205204D01*
X98435896Y-77201604D01*
X98460400Y-77200400D01*
X99710400Y-77200400D01*
X99734904Y-77201604D01*
G37*
G36*
X110610304Y-65867244D02*
G01*
X110634573Y-65870844D01*
X110658371Y-65876805D01*
X110681471Y-65885070D01*
X110703649Y-65895560D01*
X110724693Y-65908173D01*
X110744398Y-65922787D01*
X110762577Y-65939263D01*
X110779053Y-65957442D01*
X110793667Y-65977147D01*
X110806280Y-65998191D01*
X110816770Y-66020369D01*
X110825035Y-66043469D01*
X110830996Y-66067267D01*
X110834596Y-66091536D01*
X110835800Y-66116040D01*
X110835800Y-67366040D01*
X110834596Y-67390544D01*
X110830996Y-67414813D01*
X110825035Y-67438611D01*
X110816770Y-67461711D01*
X110806280Y-67483889D01*
X110793667Y-67504933D01*
X110779053Y-67524638D01*
X110762577Y-67542817D01*
X110744398Y-67559293D01*
X110724693Y-67573907D01*
X110703649Y-67586520D01*
X110681471Y-67597010D01*
X110658371Y-67605275D01*
X110634573Y-67611236D01*
X110610304Y-67614836D01*
X110585800Y-67616040D01*
X109660800Y-67616040D01*
X109636296Y-67614836D01*
X109612027Y-67611236D01*
X109588229Y-67605275D01*
X109565129Y-67597010D01*
X109542951Y-67586520D01*
X109521907Y-67573907D01*
X109502202Y-67559293D01*
X109484023Y-67542817D01*
X109467547Y-67524638D01*
X109452933Y-67504933D01*
X109440320Y-67483889D01*
X109429830Y-67461711D01*
X109421565Y-67438611D01*
X109415604Y-67414813D01*
X109412004Y-67390544D01*
X109410800Y-67366040D01*
X109410800Y-66116040D01*
X109412004Y-66091536D01*
X109415604Y-66067267D01*
X109421565Y-66043469D01*
X109429830Y-66020369D01*
X109440320Y-65998191D01*
X109452933Y-65977147D01*
X109467547Y-65957442D01*
X109484023Y-65939263D01*
X109502202Y-65922787D01*
X109521907Y-65908173D01*
X109542951Y-65895560D01*
X109565129Y-65885070D01*
X109588229Y-65876805D01*
X109612027Y-65870844D01*
X109636296Y-65867244D01*
X109660800Y-65866040D01*
X110585800Y-65866040D01*
X110610304Y-65867244D01*
G37*
G36*
X107635304Y-65867244D02*
G01*
X107659573Y-65870844D01*
X107683371Y-65876805D01*
X107706471Y-65885070D01*
X107728649Y-65895560D01*
X107749693Y-65908173D01*
X107769398Y-65922787D01*
X107787577Y-65939263D01*
X107804053Y-65957442D01*
X107818667Y-65977147D01*
X107831280Y-65998191D01*
X107841770Y-66020369D01*
X107850035Y-66043469D01*
X107855996Y-66067267D01*
X107859596Y-66091536D01*
X107860800Y-66116040D01*
X107860800Y-67366040D01*
X107859596Y-67390544D01*
X107855996Y-67414813D01*
X107850035Y-67438611D01*
X107841770Y-67461711D01*
X107831280Y-67483889D01*
X107818667Y-67504933D01*
X107804053Y-67524638D01*
X107787577Y-67542817D01*
X107769398Y-67559293D01*
X107749693Y-67573907D01*
X107728649Y-67586520D01*
X107706471Y-67597010D01*
X107683371Y-67605275D01*
X107659573Y-67611236D01*
X107635304Y-67614836D01*
X107610800Y-67616040D01*
X106685800Y-67616040D01*
X106661296Y-67614836D01*
X106637027Y-67611236D01*
X106613229Y-67605275D01*
X106590129Y-67597010D01*
X106567951Y-67586520D01*
X106546907Y-67573907D01*
X106527202Y-67559293D01*
X106509023Y-67542817D01*
X106492547Y-67524638D01*
X106477933Y-67504933D01*
X106465320Y-67483889D01*
X106454830Y-67461711D01*
X106446565Y-67438611D01*
X106440604Y-67414813D01*
X106437004Y-67390544D01*
X106435800Y-67366040D01*
X106435800Y-66116040D01*
X106437004Y-66091536D01*
X106440604Y-66067267D01*
X106446565Y-66043469D01*
X106454830Y-66020369D01*
X106465320Y-65998191D01*
X106477933Y-65977147D01*
X106492547Y-65957442D01*
X106509023Y-65939263D01*
X106527202Y-65922787D01*
X106546907Y-65908173D01*
X106567951Y-65895560D01*
X106590129Y-65885070D01*
X106613229Y-65876805D01*
X106637027Y-65870844D01*
X106661296Y-65867244D01*
X106685800Y-65866040D01*
X107610800Y-65866040D01*
X107635304Y-65867244D01*
G37*
G36*
X117094264Y-83571044D02*
G01*
X117118533Y-83574644D01*
X117142331Y-83580605D01*
X117165431Y-83588870D01*
X117187609Y-83599360D01*
X117208653Y-83611973D01*
X117228358Y-83626587D01*
X117246537Y-83643063D01*
X117263013Y-83661242D01*
X117277627Y-83680947D01*
X117290240Y-83701991D01*
X117300730Y-83724169D01*
X117308995Y-83747269D01*
X117314956Y-83771067D01*
X117318556Y-83795336D01*
X117319760Y-83819840D01*
X117319760Y-85069840D01*
X117318556Y-85094344D01*
X117314956Y-85118613D01*
X117308995Y-85142411D01*
X117300730Y-85165511D01*
X117290240Y-85187689D01*
X117277627Y-85208733D01*
X117263013Y-85228438D01*
X117246537Y-85246617D01*
X117228358Y-85263093D01*
X117208653Y-85277707D01*
X117187609Y-85290320D01*
X117165431Y-85300810D01*
X117142331Y-85309075D01*
X117118533Y-85315036D01*
X117094264Y-85318636D01*
X117069760Y-85319840D01*
X116144760Y-85319840D01*
X116120256Y-85318636D01*
X116095987Y-85315036D01*
X116072189Y-85309075D01*
X116049089Y-85300810D01*
X116026911Y-85290320D01*
X116005867Y-85277707D01*
X115986162Y-85263093D01*
X115967983Y-85246617D01*
X115951507Y-85228438D01*
X115936893Y-85208733D01*
X115924280Y-85187689D01*
X115913790Y-85165511D01*
X115905525Y-85142411D01*
X115899564Y-85118613D01*
X115895964Y-85094344D01*
X115894760Y-85069840D01*
X115894760Y-83819840D01*
X115895964Y-83795336D01*
X115899564Y-83771067D01*
X115905525Y-83747269D01*
X115913790Y-83724169D01*
X115924280Y-83701991D01*
X115936893Y-83680947D01*
X115951507Y-83661242D01*
X115967983Y-83643063D01*
X115986162Y-83626587D01*
X116005867Y-83611973D01*
X116026911Y-83599360D01*
X116049089Y-83588870D01*
X116072189Y-83580605D01*
X116095987Y-83574644D01*
X116120256Y-83571044D01*
X116144760Y-83569840D01*
X117069760Y-83569840D01*
X117094264Y-83571044D01*
G37*
G36*
X120069264Y-83571044D02*
G01*
X120093533Y-83574644D01*
X120117331Y-83580605D01*
X120140431Y-83588870D01*
X120162609Y-83599360D01*
X120183653Y-83611973D01*
X120203358Y-83626587D01*
X120221537Y-83643063D01*
X120238013Y-83661242D01*
X120252627Y-83680947D01*
X120265240Y-83701991D01*
X120275730Y-83724169D01*
X120283995Y-83747269D01*
X120289956Y-83771067D01*
X120293556Y-83795336D01*
X120294760Y-83819840D01*
X120294760Y-85069840D01*
X120293556Y-85094344D01*
X120289956Y-85118613D01*
X120283995Y-85142411D01*
X120275730Y-85165511D01*
X120265240Y-85187689D01*
X120252627Y-85208733D01*
X120238013Y-85228438D01*
X120221537Y-85246617D01*
X120203358Y-85263093D01*
X120183653Y-85277707D01*
X120162609Y-85290320D01*
X120140431Y-85300810D01*
X120117331Y-85309075D01*
X120093533Y-85315036D01*
X120069264Y-85318636D01*
X120044760Y-85319840D01*
X119119760Y-85319840D01*
X119095256Y-85318636D01*
X119070987Y-85315036D01*
X119047189Y-85309075D01*
X119024089Y-85300810D01*
X119001911Y-85290320D01*
X118980867Y-85277707D01*
X118961162Y-85263093D01*
X118942983Y-85246617D01*
X118926507Y-85228438D01*
X118911893Y-85208733D01*
X118899280Y-85187689D01*
X118888790Y-85165511D01*
X118880525Y-85142411D01*
X118874564Y-85118613D01*
X118870964Y-85094344D01*
X118869760Y-85069840D01*
X118869760Y-83819840D01*
X118870964Y-83795336D01*
X118874564Y-83771067D01*
X118880525Y-83747269D01*
X118888790Y-83724169D01*
X118899280Y-83701991D01*
X118911893Y-83680947D01*
X118926507Y-83661242D01*
X118942983Y-83643063D01*
X118961162Y-83626587D01*
X118980867Y-83611973D01*
X119001911Y-83599360D01*
X119024089Y-83588870D01*
X119047189Y-83580605D01*
X119070987Y-83574644D01*
X119095256Y-83571044D01*
X119119760Y-83569840D01*
X120044760Y-83569840D01*
X120069264Y-83571044D01*
G37*
G36*
X120023544Y-88117644D02*
G01*
X120047813Y-88121244D01*
X120071611Y-88127205D01*
X120094711Y-88135470D01*
X120116889Y-88145960D01*
X120137933Y-88158573D01*
X120157638Y-88173187D01*
X120175817Y-88189663D01*
X120192293Y-88207842D01*
X120206907Y-88227547D01*
X120219520Y-88248591D01*
X120230010Y-88270769D01*
X120238275Y-88293869D01*
X120244236Y-88317667D01*
X120247836Y-88341936D01*
X120249040Y-88366440D01*
X120249040Y-89616440D01*
X120247836Y-89640944D01*
X120244236Y-89665213D01*
X120238275Y-89689011D01*
X120230010Y-89712111D01*
X120219520Y-89734289D01*
X120206907Y-89755333D01*
X120192293Y-89775038D01*
X120175817Y-89793217D01*
X120157638Y-89809693D01*
X120137933Y-89824307D01*
X120116889Y-89836920D01*
X120094711Y-89847410D01*
X120071611Y-89855675D01*
X120047813Y-89861636D01*
X120023544Y-89865236D01*
X119999040Y-89866440D01*
X119074040Y-89866440D01*
X119049536Y-89865236D01*
X119025267Y-89861636D01*
X119001469Y-89855675D01*
X118978369Y-89847410D01*
X118956191Y-89836920D01*
X118935147Y-89824307D01*
X118915442Y-89809693D01*
X118897263Y-89793217D01*
X118880787Y-89775038D01*
X118866173Y-89755333D01*
X118853560Y-89734289D01*
X118843070Y-89712111D01*
X118834805Y-89689011D01*
X118828844Y-89665213D01*
X118825244Y-89640944D01*
X118824040Y-89616440D01*
X118824040Y-88366440D01*
X118825244Y-88341936D01*
X118828844Y-88317667D01*
X118834805Y-88293869D01*
X118843070Y-88270769D01*
X118853560Y-88248591D01*
X118866173Y-88227547D01*
X118880787Y-88207842D01*
X118897263Y-88189663D01*
X118915442Y-88173187D01*
X118935147Y-88158573D01*
X118956191Y-88145960D01*
X118978369Y-88135470D01*
X119001469Y-88127205D01*
X119025267Y-88121244D01*
X119049536Y-88117644D01*
X119074040Y-88116440D01*
X119999040Y-88116440D01*
X120023544Y-88117644D01*
G37*
G36*
X117048544Y-88117644D02*
G01*
X117072813Y-88121244D01*
X117096611Y-88127205D01*
X117119711Y-88135470D01*
X117141889Y-88145960D01*
X117162933Y-88158573D01*
X117182638Y-88173187D01*
X117200817Y-88189663D01*
X117217293Y-88207842D01*
X117231907Y-88227547D01*
X117244520Y-88248591D01*
X117255010Y-88270769D01*
X117263275Y-88293869D01*
X117269236Y-88317667D01*
X117272836Y-88341936D01*
X117274040Y-88366440D01*
X117274040Y-89616440D01*
X117272836Y-89640944D01*
X117269236Y-89665213D01*
X117263275Y-89689011D01*
X117255010Y-89712111D01*
X117244520Y-89734289D01*
X117231907Y-89755333D01*
X117217293Y-89775038D01*
X117200817Y-89793217D01*
X117182638Y-89809693D01*
X117162933Y-89824307D01*
X117141889Y-89836920D01*
X117119711Y-89847410D01*
X117096611Y-89855675D01*
X117072813Y-89861636D01*
X117048544Y-89865236D01*
X117024040Y-89866440D01*
X116099040Y-89866440D01*
X116074536Y-89865236D01*
X116050267Y-89861636D01*
X116026469Y-89855675D01*
X116003369Y-89847410D01*
X115981191Y-89836920D01*
X115960147Y-89824307D01*
X115940442Y-89809693D01*
X115922263Y-89793217D01*
X115905787Y-89775038D01*
X115891173Y-89755333D01*
X115878560Y-89734289D01*
X115868070Y-89712111D01*
X115859805Y-89689011D01*
X115853844Y-89665213D01*
X115850244Y-89640944D01*
X115849040Y-89616440D01*
X115849040Y-88366440D01*
X115850244Y-88341936D01*
X115853844Y-88317667D01*
X115859805Y-88293869D01*
X115868070Y-88270769D01*
X115878560Y-88248591D01*
X115891173Y-88227547D01*
X115905787Y-88207842D01*
X115922263Y-88189663D01*
X115940442Y-88173187D01*
X115960147Y-88158573D01*
X115981191Y-88145960D01*
X116003369Y-88135470D01*
X116026469Y-88127205D01*
X116050267Y-88121244D01*
X116074536Y-88117644D01*
X116099040Y-88116440D01*
X117024040Y-88116440D01*
X117048544Y-88117644D01*
G37*
G36*
X117246664Y-78953324D02*
G01*
X117270933Y-78956924D01*
X117294731Y-78962885D01*
X117317831Y-78971150D01*
X117340009Y-78981640D01*
X117361053Y-78994253D01*
X117380758Y-79008867D01*
X117398937Y-79025343D01*
X117415413Y-79043522D01*
X117430027Y-79063227D01*
X117442640Y-79084271D01*
X117453130Y-79106449D01*
X117461395Y-79129549D01*
X117467356Y-79153347D01*
X117470956Y-79177616D01*
X117472160Y-79202120D01*
X117472160Y-80452120D01*
X117470956Y-80476624D01*
X117467356Y-80500893D01*
X117461395Y-80524691D01*
X117453130Y-80547791D01*
X117442640Y-80569969D01*
X117430027Y-80591013D01*
X117415413Y-80610718D01*
X117398937Y-80628897D01*
X117380758Y-80645373D01*
X117361053Y-80659987D01*
X117340009Y-80672600D01*
X117317831Y-80683090D01*
X117294731Y-80691355D01*
X117270933Y-80697316D01*
X117246664Y-80700916D01*
X117222160Y-80702120D01*
X116297160Y-80702120D01*
X116272656Y-80700916D01*
X116248387Y-80697316D01*
X116224589Y-80691355D01*
X116201489Y-80683090D01*
X116179311Y-80672600D01*
X116158267Y-80659987D01*
X116138562Y-80645373D01*
X116120383Y-80628897D01*
X116103907Y-80610718D01*
X116089293Y-80591013D01*
X116076680Y-80569969D01*
X116066190Y-80547791D01*
X116057925Y-80524691D01*
X116051964Y-80500893D01*
X116048364Y-80476624D01*
X116047160Y-80452120D01*
X116047160Y-79202120D01*
X116048364Y-79177616D01*
X116051964Y-79153347D01*
X116057925Y-79129549D01*
X116066190Y-79106449D01*
X116076680Y-79084271D01*
X116089293Y-79063227D01*
X116103907Y-79043522D01*
X116120383Y-79025343D01*
X116138562Y-79008867D01*
X116158267Y-78994253D01*
X116179311Y-78981640D01*
X116201489Y-78971150D01*
X116224589Y-78962885D01*
X116248387Y-78956924D01*
X116272656Y-78953324D01*
X116297160Y-78952120D01*
X117222160Y-78952120D01*
X117246664Y-78953324D01*
G37*
G36*
X120221664Y-78953324D02*
G01*
X120245933Y-78956924D01*
X120269731Y-78962885D01*
X120292831Y-78971150D01*
X120315009Y-78981640D01*
X120336053Y-78994253D01*
X120355758Y-79008867D01*
X120373937Y-79025343D01*
X120390413Y-79043522D01*
X120405027Y-79063227D01*
X120417640Y-79084271D01*
X120428130Y-79106449D01*
X120436395Y-79129549D01*
X120442356Y-79153347D01*
X120445956Y-79177616D01*
X120447160Y-79202120D01*
X120447160Y-80452120D01*
X120445956Y-80476624D01*
X120442356Y-80500893D01*
X120436395Y-80524691D01*
X120428130Y-80547791D01*
X120417640Y-80569969D01*
X120405027Y-80591013D01*
X120390413Y-80610718D01*
X120373937Y-80628897D01*
X120355758Y-80645373D01*
X120336053Y-80659987D01*
X120315009Y-80672600D01*
X120292831Y-80683090D01*
X120269731Y-80691355D01*
X120245933Y-80697316D01*
X120221664Y-80700916D01*
X120197160Y-80702120D01*
X119272160Y-80702120D01*
X119247656Y-80700916D01*
X119223387Y-80697316D01*
X119199589Y-80691355D01*
X119176489Y-80683090D01*
X119154311Y-80672600D01*
X119133267Y-80659987D01*
X119113562Y-80645373D01*
X119095383Y-80628897D01*
X119078907Y-80610718D01*
X119064293Y-80591013D01*
X119051680Y-80569969D01*
X119041190Y-80547791D01*
X119032925Y-80524691D01*
X119026964Y-80500893D01*
X119023364Y-80476624D01*
X119022160Y-80452120D01*
X119022160Y-79202120D01*
X119023364Y-79177616D01*
X119026964Y-79153347D01*
X119032925Y-79129549D01*
X119041190Y-79106449D01*
X119051680Y-79084271D01*
X119064293Y-79063227D01*
X119078907Y-79043522D01*
X119095383Y-79025343D01*
X119113562Y-79008867D01*
X119133267Y-78994253D01*
X119154311Y-78981640D01*
X119176489Y-78971150D01*
X119199589Y-78962885D01*
X119223387Y-78956924D01*
X119247656Y-78953324D01*
X119272160Y-78952120D01*
X120197160Y-78952120D01*
X120221664Y-78953324D01*
G37*
G36*
X113979224Y-85947484D02*
G01*
X114003493Y-85951084D01*
X114027291Y-85957045D01*
X114050391Y-85965310D01*
X114072569Y-85975800D01*
X114093613Y-85988413D01*
X114113318Y-86003027D01*
X114131497Y-86019503D01*
X114147973Y-86037682D01*
X114162587Y-86057387D01*
X114175200Y-86078431D01*
X114185690Y-86100609D01*
X114193955Y-86123709D01*
X114199916Y-86147507D01*
X114203516Y-86171776D01*
X114204720Y-86196280D01*
X114204720Y-87121280D01*
X114203516Y-87145784D01*
X114199916Y-87170053D01*
X114193955Y-87193851D01*
X114185690Y-87216951D01*
X114175200Y-87239129D01*
X114162587Y-87260173D01*
X114147973Y-87279878D01*
X114131497Y-87298057D01*
X114113318Y-87314533D01*
X114093613Y-87329147D01*
X114072569Y-87341760D01*
X114050391Y-87352250D01*
X114027291Y-87360515D01*
X114003493Y-87366476D01*
X113979224Y-87370076D01*
X113954720Y-87371280D01*
X112704720Y-87371280D01*
X112680216Y-87370076D01*
X112655947Y-87366476D01*
X112632149Y-87360515D01*
X112609049Y-87352250D01*
X112586871Y-87341760D01*
X112565827Y-87329147D01*
X112546122Y-87314533D01*
X112527943Y-87298057D01*
X112511467Y-87279878D01*
X112496853Y-87260173D01*
X112484240Y-87239129D01*
X112473750Y-87216951D01*
X112465485Y-87193851D01*
X112459524Y-87170053D01*
X112455924Y-87145784D01*
X112454720Y-87121280D01*
X112454720Y-86196280D01*
X112455924Y-86171776D01*
X112459524Y-86147507D01*
X112465485Y-86123709D01*
X112473750Y-86100609D01*
X112484240Y-86078431D01*
X112496853Y-86057387D01*
X112511467Y-86037682D01*
X112527943Y-86019503D01*
X112546122Y-86003027D01*
X112565827Y-85988413D01*
X112586871Y-85975800D01*
X112609049Y-85965310D01*
X112632149Y-85957045D01*
X112655947Y-85951084D01*
X112680216Y-85947484D01*
X112704720Y-85946280D01*
X113954720Y-85946280D01*
X113979224Y-85947484D01*
G37*
G36*
X113979224Y-82972484D02*
G01*
X114003493Y-82976084D01*
X114027291Y-82982045D01*
X114050391Y-82990310D01*
X114072569Y-83000800D01*
X114093613Y-83013413D01*
X114113318Y-83028027D01*
X114131497Y-83044503D01*
X114147973Y-83062682D01*
X114162587Y-83082387D01*
X114175200Y-83103431D01*
X114185690Y-83125609D01*
X114193955Y-83148709D01*
X114199916Y-83172507D01*
X114203516Y-83196776D01*
X114204720Y-83221280D01*
X114204720Y-84146280D01*
X114203516Y-84170784D01*
X114199916Y-84195053D01*
X114193955Y-84218851D01*
X114185690Y-84241951D01*
X114175200Y-84264129D01*
X114162587Y-84285173D01*
X114147973Y-84304878D01*
X114131497Y-84323057D01*
X114113318Y-84339533D01*
X114093613Y-84354147D01*
X114072569Y-84366760D01*
X114050391Y-84377250D01*
X114027291Y-84385515D01*
X114003493Y-84391476D01*
X113979224Y-84395076D01*
X113954720Y-84396280D01*
X112704720Y-84396280D01*
X112680216Y-84395076D01*
X112655947Y-84391476D01*
X112632149Y-84385515D01*
X112609049Y-84377250D01*
X112586871Y-84366760D01*
X112565827Y-84354147D01*
X112546122Y-84339533D01*
X112527943Y-84323057D01*
X112511467Y-84304878D01*
X112496853Y-84285173D01*
X112484240Y-84264129D01*
X112473750Y-84241951D01*
X112465485Y-84218851D01*
X112459524Y-84195053D01*
X112455924Y-84170784D01*
X112454720Y-84146280D01*
X112454720Y-83221280D01*
X112455924Y-83196776D01*
X112459524Y-83172507D01*
X112465485Y-83148709D01*
X112473750Y-83125609D01*
X112484240Y-83103431D01*
X112496853Y-83082387D01*
X112511467Y-83062682D01*
X112527943Y-83044503D01*
X112546122Y-83028027D01*
X112565827Y-83013413D01*
X112586871Y-83000800D01*
X112609049Y-82990310D01*
X112632149Y-82982045D01*
X112655947Y-82976084D01*
X112680216Y-82972484D01*
X112704720Y-82971280D01*
X113954720Y-82971280D01*
X113979224Y-82972484D01*
G37*
G36*
X113989384Y-88281084D02*
G01*
X114013653Y-88284684D01*
X114037451Y-88290645D01*
X114060551Y-88298910D01*
X114082729Y-88309400D01*
X114103773Y-88322013D01*
X114123478Y-88336627D01*
X114141657Y-88353103D01*
X114158133Y-88371282D01*
X114172747Y-88390987D01*
X114185360Y-88412031D01*
X114195850Y-88434209D01*
X114204115Y-88457309D01*
X114210076Y-88481107D01*
X114213676Y-88505376D01*
X114214880Y-88529880D01*
X114214880Y-89454880D01*
X114213676Y-89479384D01*
X114210076Y-89503653D01*
X114204115Y-89527451D01*
X114195850Y-89550551D01*
X114185360Y-89572729D01*
X114172747Y-89593773D01*
X114158133Y-89613478D01*
X114141657Y-89631657D01*
X114123478Y-89648133D01*
X114103773Y-89662747D01*
X114082729Y-89675360D01*
X114060551Y-89685850D01*
X114037451Y-89694115D01*
X114013653Y-89700076D01*
X113989384Y-89703676D01*
X113964880Y-89704880D01*
X112714880Y-89704880D01*
X112690376Y-89703676D01*
X112666107Y-89700076D01*
X112642309Y-89694115D01*
X112619209Y-89685850D01*
X112597031Y-89675360D01*
X112575987Y-89662747D01*
X112556282Y-89648133D01*
X112538103Y-89631657D01*
X112521627Y-89613478D01*
X112507013Y-89593773D01*
X112494400Y-89572729D01*
X112483910Y-89550551D01*
X112475645Y-89527451D01*
X112469684Y-89503653D01*
X112466084Y-89479384D01*
X112464880Y-89454880D01*
X112464880Y-88529880D01*
X112466084Y-88505376D01*
X112469684Y-88481107D01*
X112475645Y-88457309D01*
X112483910Y-88434209D01*
X112494400Y-88412031D01*
X112507013Y-88390987D01*
X112521627Y-88371282D01*
X112538103Y-88353103D01*
X112556282Y-88336627D01*
X112575987Y-88322013D01*
X112597031Y-88309400D01*
X112619209Y-88298910D01*
X112642309Y-88290645D01*
X112666107Y-88284684D01*
X112690376Y-88281084D01*
X112714880Y-88279880D01*
X113964880Y-88279880D01*
X113989384Y-88281084D01*
G37*
G36*
X113989384Y-91256084D02*
G01*
X114013653Y-91259684D01*
X114037451Y-91265645D01*
X114060551Y-91273910D01*
X114082729Y-91284400D01*
X114103773Y-91297013D01*
X114123478Y-91311627D01*
X114141657Y-91328103D01*
X114158133Y-91346282D01*
X114172747Y-91365987D01*
X114185360Y-91387031D01*
X114195850Y-91409209D01*
X114204115Y-91432309D01*
X114210076Y-91456107D01*
X114213676Y-91480376D01*
X114214880Y-91504880D01*
X114214880Y-92429880D01*
X114213676Y-92454384D01*
X114210076Y-92478653D01*
X114204115Y-92502451D01*
X114195850Y-92525551D01*
X114185360Y-92547729D01*
X114172747Y-92568773D01*
X114158133Y-92588478D01*
X114141657Y-92606657D01*
X114123478Y-92623133D01*
X114103773Y-92637747D01*
X114082729Y-92650360D01*
X114060551Y-92660850D01*
X114037451Y-92669115D01*
X114013653Y-92675076D01*
X113989384Y-92678676D01*
X113964880Y-92679880D01*
X112714880Y-92679880D01*
X112690376Y-92678676D01*
X112666107Y-92675076D01*
X112642309Y-92669115D01*
X112619209Y-92660850D01*
X112597031Y-92650360D01*
X112575987Y-92637747D01*
X112556282Y-92623133D01*
X112538103Y-92606657D01*
X112521627Y-92588478D01*
X112507013Y-92568773D01*
X112494400Y-92547729D01*
X112483910Y-92525551D01*
X112475645Y-92502451D01*
X112469684Y-92478653D01*
X112466084Y-92454384D01*
X112464880Y-92429880D01*
X112464880Y-91504880D01*
X112466084Y-91480376D01*
X112469684Y-91456107D01*
X112475645Y-91432309D01*
X112483910Y-91409209D01*
X112494400Y-91387031D01*
X112507013Y-91365987D01*
X112521627Y-91346282D01*
X112538103Y-91328103D01*
X112556282Y-91311627D01*
X112575987Y-91297013D01*
X112597031Y-91284400D01*
X112619209Y-91273910D01*
X112642309Y-91265645D01*
X112666107Y-91259684D01*
X112690376Y-91256084D01*
X112714880Y-91254880D01*
X113964880Y-91254880D01*
X113989384Y-91256084D01*
G37*
G36*
X114055424Y-80349324D02*
G01*
X114079693Y-80352924D01*
X114103491Y-80358885D01*
X114126591Y-80367150D01*
X114148769Y-80377640D01*
X114169813Y-80390253D01*
X114189518Y-80404867D01*
X114207697Y-80421343D01*
X114224173Y-80439522D01*
X114238787Y-80459227D01*
X114251400Y-80480271D01*
X114261890Y-80502449D01*
X114270155Y-80525549D01*
X114276116Y-80549347D01*
X114279716Y-80573616D01*
X114280920Y-80598120D01*
X114280920Y-81523120D01*
X114279716Y-81547624D01*
X114276116Y-81571893D01*
X114270155Y-81595691D01*
X114261890Y-81618791D01*
X114251400Y-81640969D01*
X114238787Y-81662013D01*
X114224173Y-81681718D01*
X114207697Y-81699897D01*
X114189518Y-81716373D01*
X114169813Y-81730987D01*
X114148769Y-81743600D01*
X114126591Y-81754090D01*
X114103491Y-81762355D01*
X114079693Y-81768316D01*
X114055424Y-81771916D01*
X114030920Y-81773120D01*
X112780920Y-81773120D01*
X112756416Y-81771916D01*
X112732147Y-81768316D01*
X112708349Y-81762355D01*
X112685249Y-81754090D01*
X112663071Y-81743600D01*
X112642027Y-81730987D01*
X112622322Y-81716373D01*
X112604143Y-81699897D01*
X112587667Y-81681718D01*
X112573053Y-81662013D01*
X112560440Y-81640969D01*
X112549950Y-81618791D01*
X112541685Y-81595691D01*
X112535724Y-81571893D01*
X112532124Y-81547624D01*
X112530920Y-81523120D01*
X112530920Y-80598120D01*
X112532124Y-80573616D01*
X112535724Y-80549347D01*
X112541685Y-80525549D01*
X112549950Y-80502449D01*
X112560440Y-80480271D01*
X112573053Y-80459227D01*
X112587667Y-80439522D01*
X112604143Y-80421343D01*
X112622322Y-80404867D01*
X112642027Y-80390253D01*
X112663071Y-80377640D01*
X112685249Y-80367150D01*
X112708349Y-80358885D01*
X112732147Y-80352924D01*
X112756416Y-80349324D01*
X112780920Y-80348120D01*
X114030920Y-80348120D01*
X114055424Y-80349324D01*
G37*
G36*
X114055424Y-77374324D02*
G01*
X114079693Y-77377924D01*
X114103491Y-77383885D01*
X114126591Y-77392150D01*
X114148769Y-77402640D01*
X114169813Y-77415253D01*
X114189518Y-77429867D01*
X114207697Y-77446343D01*
X114224173Y-77464522D01*
X114238787Y-77484227D01*
X114251400Y-77505271D01*
X114261890Y-77527449D01*
X114270155Y-77550549D01*
X114276116Y-77574347D01*
X114279716Y-77598616D01*
X114280920Y-77623120D01*
X114280920Y-78548120D01*
X114279716Y-78572624D01*
X114276116Y-78596893D01*
X114270155Y-78620691D01*
X114261890Y-78643791D01*
X114251400Y-78665969D01*
X114238787Y-78687013D01*
X114224173Y-78706718D01*
X114207697Y-78724897D01*
X114189518Y-78741373D01*
X114169813Y-78755987D01*
X114148769Y-78768600D01*
X114126591Y-78779090D01*
X114103491Y-78787355D01*
X114079693Y-78793316D01*
X114055424Y-78796916D01*
X114030920Y-78798120D01*
X112780920Y-78798120D01*
X112756416Y-78796916D01*
X112732147Y-78793316D01*
X112708349Y-78787355D01*
X112685249Y-78779090D01*
X112663071Y-78768600D01*
X112642027Y-78755987D01*
X112622322Y-78741373D01*
X112604143Y-78724897D01*
X112587667Y-78706718D01*
X112573053Y-78687013D01*
X112560440Y-78665969D01*
X112549950Y-78643791D01*
X112541685Y-78620691D01*
X112535724Y-78596893D01*
X112532124Y-78572624D01*
X112530920Y-78548120D01*
X112530920Y-77623120D01*
X112532124Y-77598616D01*
X112535724Y-77574347D01*
X112541685Y-77550549D01*
X112549950Y-77527449D01*
X112560440Y-77505271D01*
X112573053Y-77484227D01*
X112587667Y-77464522D01*
X112604143Y-77446343D01*
X112622322Y-77429867D01*
X112642027Y-77415253D01*
X112663071Y-77402640D01*
X112685249Y-77392150D01*
X112708349Y-77383885D01*
X112732147Y-77377924D01*
X112756416Y-77374324D01*
X112780920Y-77373120D01*
X114030920Y-77373120D01*
X114055424Y-77374324D01*
G37*
G36*
X95725904Y-125008604D02*
G01*
X95750173Y-125012204D01*
X95773971Y-125018165D01*
X95797071Y-125026430D01*
X95819249Y-125036920D01*
X95840293Y-125049533D01*
X95859998Y-125064147D01*
X95878177Y-125080623D01*
X95894653Y-125098802D01*
X95909267Y-125118507D01*
X95921880Y-125139551D01*
X95932370Y-125161729D01*
X95940635Y-125184829D01*
X95946596Y-125208627D01*
X95950196Y-125232896D01*
X95951400Y-125257400D01*
X95951400Y-126507400D01*
X95950196Y-126531904D01*
X95946596Y-126556173D01*
X95940635Y-126579971D01*
X95932370Y-126603071D01*
X95921880Y-126625249D01*
X95909267Y-126646293D01*
X95894653Y-126665998D01*
X95878177Y-126684177D01*
X95859998Y-126700653D01*
X95840293Y-126715267D01*
X95819249Y-126727880D01*
X95797071Y-126738370D01*
X95773971Y-126746635D01*
X95750173Y-126752596D01*
X95725904Y-126756196D01*
X95701400Y-126757400D01*
X94776400Y-126757400D01*
X94751896Y-126756196D01*
X94727627Y-126752596D01*
X94703829Y-126746635D01*
X94680729Y-126738370D01*
X94658551Y-126727880D01*
X94637507Y-126715267D01*
X94617802Y-126700653D01*
X94599623Y-126684177D01*
X94583147Y-126665998D01*
X94568533Y-126646293D01*
X94555920Y-126625249D01*
X94545430Y-126603071D01*
X94537165Y-126579971D01*
X94531204Y-126556173D01*
X94527604Y-126531904D01*
X94526400Y-126507400D01*
X94526400Y-125257400D01*
X94527604Y-125232896D01*
X94531204Y-125208627D01*
X94537165Y-125184829D01*
X94545430Y-125161729D01*
X94555920Y-125139551D01*
X94568533Y-125118507D01*
X94583147Y-125098802D01*
X94599623Y-125080623D01*
X94617802Y-125064147D01*
X94637507Y-125049533D01*
X94658551Y-125036920D01*
X94680729Y-125026430D01*
X94703829Y-125018165D01*
X94727627Y-125012204D01*
X94751896Y-125008604D01*
X94776400Y-125007400D01*
X95701400Y-125007400D01*
X95725904Y-125008604D01*
G37*
G36*
X92750904Y-125008604D02*
G01*
X92775173Y-125012204D01*
X92798971Y-125018165D01*
X92822071Y-125026430D01*
X92844249Y-125036920D01*
X92865293Y-125049533D01*
X92884998Y-125064147D01*
X92903177Y-125080623D01*
X92919653Y-125098802D01*
X92934267Y-125118507D01*
X92946880Y-125139551D01*
X92957370Y-125161729D01*
X92965635Y-125184829D01*
X92971596Y-125208627D01*
X92975196Y-125232896D01*
X92976400Y-125257400D01*
X92976400Y-126507400D01*
X92975196Y-126531904D01*
X92971596Y-126556173D01*
X92965635Y-126579971D01*
X92957370Y-126603071D01*
X92946880Y-126625249D01*
X92934267Y-126646293D01*
X92919653Y-126665998D01*
X92903177Y-126684177D01*
X92884998Y-126700653D01*
X92865293Y-126715267D01*
X92844249Y-126727880D01*
X92822071Y-126738370D01*
X92798971Y-126746635D01*
X92775173Y-126752596D01*
X92750904Y-126756196D01*
X92726400Y-126757400D01*
X91801400Y-126757400D01*
X91776896Y-126756196D01*
X91752627Y-126752596D01*
X91728829Y-126746635D01*
X91705729Y-126738370D01*
X91683551Y-126727880D01*
X91662507Y-126715267D01*
X91642802Y-126700653D01*
X91624623Y-126684177D01*
X91608147Y-126665998D01*
X91593533Y-126646293D01*
X91580920Y-126625249D01*
X91570430Y-126603071D01*
X91562165Y-126579971D01*
X91556204Y-126556173D01*
X91552604Y-126531904D01*
X91551400Y-126507400D01*
X91551400Y-125257400D01*
X91552604Y-125232896D01*
X91556204Y-125208627D01*
X91562165Y-125184829D01*
X91570430Y-125161729D01*
X91580920Y-125139551D01*
X91593533Y-125118507D01*
X91608147Y-125098802D01*
X91624623Y-125080623D01*
X91642802Y-125064147D01*
X91662507Y-125049533D01*
X91683551Y-125036920D01*
X91705729Y-125026430D01*
X91728829Y-125018165D01*
X91752627Y-125012204D01*
X91776896Y-125008604D01*
X91801400Y-125007400D01*
X92726400Y-125007400D01*
X92750904Y-125008604D01*
G37*
G36*
X94791184Y-112664204D02*
G01*
X94815453Y-112667804D01*
X94839251Y-112673765D01*
X94862351Y-112682030D01*
X94884529Y-112692520D01*
X94905573Y-112705133D01*
X94925278Y-112719747D01*
X94943457Y-112736223D01*
X94959933Y-112754402D01*
X94974547Y-112774107D01*
X94987160Y-112795151D01*
X94997650Y-112817329D01*
X95005915Y-112840429D01*
X95011876Y-112864227D01*
X95015476Y-112888496D01*
X95016680Y-112913000D01*
X95016680Y-114163000D01*
X95015476Y-114187504D01*
X95011876Y-114211773D01*
X95005915Y-114235571D01*
X94997650Y-114258671D01*
X94987160Y-114280849D01*
X94974547Y-114301893D01*
X94959933Y-114321598D01*
X94943457Y-114339777D01*
X94925278Y-114356253D01*
X94905573Y-114370867D01*
X94884529Y-114383480D01*
X94862351Y-114393970D01*
X94839251Y-114402235D01*
X94815453Y-114408196D01*
X94791184Y-114411796D01*
X94766680Y-114413000D01*
X93841680Y-114413000D01*
X93817176Y-114411796D01*
X93792907Y-114408196D01*
X93769109Y-114402235D01*
X93746009Y-114393970D01*
X93723831Y-114383480D01*
X93702787Y-114370867D01*
X93683082Y-114356253D01*
X93664903Y-114339777D01*
X93648427Y-114321598D01*
X93633813Y-114301893D01*
X93621200Y-114280849D01*
X93610710Y-114258671D01*
X93602445Y-114235571D01*
X93596484Y-114211773D01*
X93592884Y-114187504D01*
X93591680Y-114163000D01*
X93591680Y-112913000D01*
X93592884Y-112888496D01*
X93596484Y-112864227D01*
X93602445Y-112840429D01*
X93610710Y-112817329D01*
X93621200Y-112795151D01*
X93633813Y-112774107D01*
X93648427Y-112754402D01*
X93664903Y-112736223D01*
X93683082Y-112719747D01*
X93702787Y-112705133D01*
X93723831Y-112692520D01*
X93746009Y-112682030D01*
X93769109Y-112673765D01*
X93792907Y-112667804D01*
X93817176Y-112664204D01*
X93841680Y-112663000D01*
X94766680Y-112663000D01*
X94791184Y-112664204D01*
G37*
G36*
X91816184Y-112664204D02*
G01*
X91840453Y-112667804D01*
X91864251Y-112673765D01*
X91887351Y-112682030D01*
X91909529Y-112692520D01*
X91930573Y-112705133D01*
X91950278Y-112719747D01*
X91968457Y-112736223D01*
X91984933Y-112754402D01*
X91999547Y-112774107D01*
X92012160Y-112795151D01*
X92022650Y-112817329D01*
X92030915Y-112840429D01*
X92036876Y-112864227D01*
X92040476Y-112888496D01*
X92041680Y-112913000D01*
X92041680Y-114163000D01*
X92040476Y-114187504D01*
X92036876Y-114211773D01*
X92030915Y-114235571D01*
X92022650Y-114258671D01*
X92012160Y-114280849D01*
X91999547Y-114301893D01*
X91984933Y-114321598D01*
X91968457Y-114339777D01*
X91950278Y-114356253D01*
X91930573Y-114370867D01*
X91909529Y-114383480D01*
X91887351Y-114393970D01*
X91864251Y-114402235D01*
X91840453Y-114408196D01*
X91816184Y-114411796D01*
X91791680Y-114413000D01*
X90866680Y-114413000D01*
X90842176Y-114411796D01*
X90817907Y-114408196D01*
X90794109Y-114402235D01*
X90771009Y-114393970D01*
X90748831Y-114383480D01*
X90727787Y-114370867D01*
X90708082Y-114356253D01*
X90689903Y-114339777D01*
X90673427Y-114321598D01*
X90658813Y-114301893D01*
X90646200Y-114280849D01*
X90635710Y-114258671D01*
X90627445Y-114235571D01*
X90621484Y-114211773D01*
X90617884Y-114187504D01*
X90616680Y-114163000D01*
X90616680Y-112913000D01*
X90617884Y-112888496D01*
X90621484Y-112864227D01*
X90627445Y-112840429D01*
X90635710Y-112817329D01*
X90646200Y-112795151D01*
X90658813Y-112774107D01*
X90673427Y-112754402D01*
X90689903Y-112736223D01*
X90708082Y-112719747D01*
X90727787Y-112705133D01*
X90748831Y-112692520D01*
X90771009Y-112682030D01*
X90794109Y-112673765D01*
X90817907Y-112667804D01*
X90842176Y-112664204D01*
X90866680Y-112663000D01*
X91791680Y-112663000D01*
X91816184Y-112664204D01*
G37*
G36*
X99292944Y-122169764D02*
G01*
X99317213Y-122173364D01*
X99341011Y-122179325D01*
X99364111Y-122187590D01*
X99386289Y-122198080D01*
X99407333Y-122210693D01*
X99427038Y-122225307D01*
X99445217Y-122241783D01*
X99461693Y-122259962D01*
X99476307Y-122279667D01*
X99488920Y-122300711D01*
X99499410Y-122322889D01*
X99507675Y-122345989D01*
X99513636Y-122369787D01*
X99517236Y-122394056D01*
X99518440Y-122418560D01*
X99518440Y-123343560D01*
X99517236Y-123368064D01*
X99513636Y-123392333D01*
X99507675Y-123416131D01*
X99499410Y-123439231D01*
X99488920Y-123461409D01*
X99476307Y-123482453D01*
X99461693Y-123502158D01*
X99445217Y-123520337D01*
X99427038Y-123536813D01*
X99407333Y-123551427D01*
X99386289Y-123564040D01*
X99364111Y-123574530D01*
X99341011Y-123582795D01*
X99317213Y-123588756D01*
X99292944Y-123592356D01*
X99268440Y-123593560D01*
X98018440Y-123593560D01*
X97993936Y-123592356D01*
X97969667Y-123588756D01*
X97945869Y-123582795D01*
X97922769Y-123574530D01*
X97900591Y-123564040D01*
X97879547Y-123551427D01*
X97859842Y-123536813D01*
X97841663Y-123520337D01*
X97825187Y-123502158D01*
X97810573Y-123482453D01*
X97797960Y-123461409D01*
X97787470Y-123439231D01*
X97779205Y-123416131D01*
X97773244Y-123392333D01*
X97769644Y-123368064D01*
X97768440Y-123343560D01*
X97768440Y-122418560D01*
X97769644Y-122394056D01*
X97773244Y-122369787D01*
X97779205Y-122345989D01*
X97787470Y-122322889D01*
X97797960Y-122300711D01*
X97810573Y-122279667D01*
X97825187Y-122259962D01*
X97841663Y-122241783D01*
X97859842Y-122225307D01*
X97879547Y-122210693D01*
X97900591Y-122198080D01*
X97922769Y-122187590D01*
X97945869Y-122179325D01*
X97969667Y-122173364D01*
X97993936Y-122169764D01*
X98018440Y-122168560D01*
X99268440Y-122168560D01*
X99292944Y-122169764D01*
G37*
G36*
X99292944Y-125144764D02*
G01*
X99317213Y-125148364D01*
X99341011Y-125154325D01*
X99364111Y-125162590D01*
X99386289Y-125173080D01*
X99407333Y-125185693D01*
X99427038Y-125200307D01*
X99445217Y-125216783D01*
X99461693Y-125234962D01*
X99476307Y-125254667D01*
X99488920Y-125275711D01*
X99499410Y-125297889D01*
X99507675Y-125320989D01*
X99513636Y-125344787D01*
X99517236Y-125369056D01*
X99518440Y-125393560D01*
X99518440Y-126318560D01*
X99517236Y-126343064D01*
X99513636Y-126367333D01*
X99507675Y-126391131D01*
X99499410Y-126414231D01*
X99488920Y-126436409D01*
X99476307Y-126457453D01*
X99461693Y-126477158D01*
X99445217Y-126495337D01*
X99427038Y-126511813D01*
X99407333Y-126526427D01*
X99386289Y-126539040D01*
X99364111Y-126549530D01*
X99341011Y-126557795D01*
X99317213Y-126563756D01*
X99292944Y-126567356D01*
X99268440Y-126568560D01*
X98018440Y-126568560D01*
X97993936Y-126567356D01*
X97969667Y-126563756D01*
X97945869Y-126557795D01*
X97922769Y-126549530D01*
X97900591Y-126539040D01*
X97879547Y-126526427D01*
X97859842Y-126511813D01*
X97841663Y-126495337D01*
X97825187Y-126477158D01*
X97810573Y-126457453D01*
X97797960Y-126436409D01*
X97787470Y-126414231D01*
X97779205Y-126391131D01*
X97773244Y-126367333D01*
X97769644Y-126343064D01*
X97768440Y-126318560D01*
X97768440Y-125393560D01*
X97769644Y-125369056D01*
X97773244Y-125344787D01*
X97779205Y-125320989D01*
X97787470Y-125297889D01*
X97797960Y-125275711D01*
X97810573Y-125254667D01*
X97825187Y-125234962D01*
X97841663Y-125216783D01*
X97859842Y-125200307D01*
X97879547Y-125185693D01*
X97900591Y-125173080D01*
X97922769Y-125162590D01*
X97945869Y-125154325D01*
X97969667Y-125148364D01*
X97993936Y-125144764D01*
X98018440Y-125143560D01*
X99268440Y-125143560D01*
X99292944Y-125144764D01*
G37*
G36*
X100227664Y-114649484D02*
G01*
X100251933Y-114653084D01*
X100275731Y-114659045D01*
X100298831Y-114667310D01*
X100321009Y-114677800D01*
X100342053Y-114690413D01*
X100361758Y-114705027D01*
X100379937Y-114721503D01*
X100396413Y-114739682D01*
X100411027Y-114759387D01*
X100423640Y-114780431D01*
X100434130Y-114802609D01*
X100442395Y-114825709D01*
X100448356Y-114849507D01*
X100451956Y-114873776D01*
X100453160Y-114898280D01*
X100453160Y-115823280D01*
X100451956Y-115847784D01*
X100448356Y-115872053D01*
X100442395Y-115895851D01*
X100434130Y-115918951D01*
X100423640Y-115941129D01*
X100411027Y-115962173D01*
X100396413Y-115981878D01*
X100379937Y-116000057D01*
X100361758Y-116016533D01*
X100342053Y-116031147D01*
X100321009Y-116043760D01*
X100298831Y-116054250D01*
X100275731Y-116062515D01*
X100251933Y-116068476D01*
X100227664Y-116072076D01*
X100203160Y-116073280D01*
X98953160Y-116073280D01*
X98928656Y-116072076D01*
X98904387Y-116068476D01*
X98880589Y-116062515D01*
X98857489Y-116054250D01*
X98835311Y-116043760D01*
X98814267Y-116031147D01*
X98794562Y-116016533D01*
X98776383Y-116000057D01*
X98759907Y-115981878D01*
X98745293Y-115962173D01*
X98732680Y-115941129D01*
X98722190Y-115918951D01*
X98713925Y-115895851D01*
X98707964Y-115872053D01*
X98704364Y-115847784D01*
X98703160Y-115823280D01*
X98703160Y-114898280D01*
X98704364Y-114873776D01*
X98707964Y-114849507D01*
X98713925Y-114825709D01*
X98722190Y-114802609D01*
X98732680Y-114780431D01*
X98745293Y-114759387D01*
X98759907Y-114739682D01*
X98776383Y-114721503D01*
X98794562Y-114705027D01*
X98814267Y-114690413D01*
X98835311Y-114677800D01*
X98857489Y-114667310D01*
X98880589Y-114659045D01*
X98904387Y-114653084D01*
X98928656Y-114649484D01*
X98953160Y-114648280D01*
X100203160Y-114648280D01*
X100227664Y-114649484D01*
G37*
G36*
X100227664Y-111674484D02*
G01*
X100251933Y-111678084D01*
X100275731Y-111684045D01*
X100298831Y-111692310D01*
X100321009Y-111702800D01*
X100342053Y-111715413D01*
X100361758Y-111730027D01*
X100379937Y-111746503D01*
X100396413Y-111764682D01*
X100411027Y-111784387D01*
X100423640Y-111805431D01*
X100434130Y-111827609D01*
X100442395Y-111850709D01*
X100448356Y-111874507D01*
X100451956Y-111898776D01*
X100453160Y-111923280D01*
X100453160Y-112848280D01*
X100451956Y-112872784D01*
X100448356Y-112897053D01*
X100442395Y-112920851D01*
X100434130Y-112943951D01*
X100423640Y-112966129D01*
X100411027Y-112987173D01*
X100396413Y-113006878D01*
X100379937Y-113025057D01*
X100361758Y-113041533D01*
X100342053Y-113056147D01*
X100321009Y-113068760D01*
X100298831Y-113079250D01*
X100275731Y-113087515D01*
X100251933Y-113093476D01*
X100227664Y-113097076D01*
X100203160Y-113098280D01*
X98953160Y-113098280D01*
X98928656Y-113097076D01*
X98904387Y-113093476D01*
X98880589Y-113087515D01*
X98857489Y-113079250D01*
X98835311Y-113068760D01*
X98814267Y-113056147D01*
X98794562Y-113041533D01*
X98776383Y-113025057D01*
X98759907Y-113006878D01*
X98745293Y-112987173D01*
X98732680Y-112966129D01*
X98722190Y-112943951D01*
X98713925Y-112920851D01*
X98707964Y-112897053D01*
X98704364Y-112872784D01*
X98703160Y-112848280D01*
X98703160Y-111923280D01*
X98704364Y-111898776D01*
X98707964Y-111874507D01*
X98713925Y-111850709D01*
X98722190Y-111827609D01*
X98732680Y-111805431D01*
X98745293Y-111784387D01*
X98759907Y-111764682D01*
X98776383Y-111746503D01*
X98794562Y-111730027D01*
X98814267Y-111715413D01*
X98835311Y-111702800D01*
X98857489Y-111692310D01*
X98880589Y-111684045D01*
X98904387Y-111678084D01*
X98928656Y-111674484D01*
X98953160Y-111673280D01*
X100203160Y-111673280D01*
X100227664Y-111674484D01*
G37*
G36*
X112125024Y-125144764D02*
G01*
X112149293Y-125148364D01*
X112173091Y-125154325D01*
X112196191Y-125162590D01*
X112218369Y-125173080D01*
X112239413Y-125185693D01*
X112259118Y-125200307D01*
X112277297Y-125216783D01*
X112293773Y-125234962D01*
X112308387Y-125254667D01*
X112321000Y-125275711D01*
X112331490Y-125297889D01*
X112339755Y-125320989D01*
X112345716Y-125344787D01*
X112349316Y-125369056D01*
X112350520Y-125393560D01*
X112350520Y-126318560D01*
X112349316Y-126343064D01*
X112345716Y-126367333D01*
X112339755Y-126391131D01*
X112331490Y-126414231D01*
X112321000Y-126436409D01*
X112308387Y-126457453D01*
X112293773Y-126477158D01*
X112277297Y-126495337D01*
X112259118Y-126511813D01*
X112239413Y-126526427D01*
X112218369Y-126539040D01*
X112196191Y-126549530D01*
X112173091Y-126557795D01*
X112149293Y-126563756D01*
X112125024Y-126567356D01*
X112100520Y-126568560D01*
X110850520Y-126568560D01*
X110826016Y-126567356D01*
X110801747Y-126563756D01*
X110777949Y-126557795D01*
X110754849Y-126549530D01*
X110732671Y-126539040D01*
X110711627Y-126526427D01*
X110691922Y-126511813D01*
X110673743Y-126495337D01*
X110657267Y-126477158D01*
X110642653Y-126457453D01*
X110630040Y-126436409D01*
X110619550Y-126414231D01*
X110611285Y-126391131D01*
X110605324Y-126367333D01*
X110601724Y-126343064D01*
X110600520Y-126318560D01*
X110600520Y-125393560D01*
X110601724Y-125369056D01*
X110605324Y-125344787D01*
X110611285Y-125320989D01*
X110619550Y-125297889D01*
X110630040Y-125275711D01*
X110642653Y-125254667D01*
X110657267Y-125234962D01*
X110673743Y-125216783D01*
X110691922Y-125200307D01*
X110711627Y-125185693D01*
X110732671Y-125173080D01*
X110754849Y-125162590D01*
X110777949Y-125154325D01*
X110801747Y-125148364D01*
X110826016Y-125144764D01*
X110850520Y-125143560D01*
X112100520Y-125143560D01*
X112125024Y-125144764D01*
G37*
G36*
X112125024Y-122169764D02*
G01*
X112149293Y-122173364D01*
X112173091Y-122179325D01*
X112196191Y-122187590D01*
X112218369Y-122198080D01*
X112239413Y-122210693D01*
X112259118Y-122225307D01*
X112277297Y-122241783D01*
X112293773Y-122259962D01*
X112308387Y-122279667D01*
X112321000Y-122300711D01*
X112331490Y-122322889D01*
X112339755Y-122345989D01*
X112345716Y-122369787D01*
X112349316Y-122394056D01*
X112350520Y-122418560D01*
X112350520Y-123343560D01*
X112349316Y-123368064D01*
X112345716Y-123392333D01*
X112339755Y-123416131D01*
X112331490Y-123439231D01*
X112321000Y-123461409D01*
X112308387Y-123482453D01*
X112293773Y-123502158D01*
X112277297Y-123520337D01*
X112259118Y-123536813D01*
X112239413Y-123551427D01*
X112218369Y-123564040D01*
X112196191Y-123574530D01*
X112173091Y-123582795D01*
X112149293Y-123588756D01*
X112125024Y-123592356D01*
X112100520Y-123593560D01*
X110850520Y-123593560D01*
X110826016Y-123592356D01*
X110801747Y-123588756D01*
X110777949Y-123582795D01*
X110754849Y-123574530D01*
X110732671Y-123564040D01*
X110711627Y-123551427D01*
X110691922Y-123536813D01*
X110673743Y-123520337D01*
X110657267Y-123502158D01*
X110642653Y-123482453D01*
X110630040Y-123461409D01*
X110619550Y-123439231D01*
X110611285Y-123416131D01*
X110605324Y-123392333D01*
X110601724Y-123368064D01*
X110600520Y-123343560D01*
X110600520Y-122418560D01*
X110601724Y-122394056D01*
X110605324Y-122369787D01*
X110611285Y-122345989D01*
X110619550Y-122322889D01*
X110630040Y-122300711D01*
X110642653Y-122279667D01*
X110657267Y-122259962D01*
X110673743Y-122241783D01*
X110691922Y-122225307D01*
X110711627Y-122210693D01*
X110732671Y-122198080D01*
X110754849Y-122187590D01*
X110777949Y-122179325D01*
X110801747Y-122173364D01*
X110826016Y-122169764D01*
X110850520Y-122168560D01*
X112100520Y-122168560D01*
X112125024Y-122169764D01*
G37*
G36*
X112424744Y-116056644D02*
G01*
X112449013Y-116060244D01*
X112472811Y-116066205D01*
X112495911Y-116074470D01*
X112518089Y-116084960D01*
X112539133Y-116097573D01*
X112558838Y-116112187D01*
X112577017Y-116128663D01*
X112593493Y-116146842D01*
X112608107Y-116166547D01*
X112620720Y-116187591D01*
X112631210Y-116209769D01*
X112639475Y-116232869D01*
X112645436Y-116256667D01*
X112649036Y-116280936D01*
X112650240Y-116305440D01*
X112650240Y-117230440D01*
X112649036Y-117254944D01*
X112645436Y-117279213D01*
X112639475Y-117303011D01*
X112631210Y-117326111D01*
X112620720Y-117348289D01*
X112608107Y-117369333D01*
X112593493Y-117389038D01*
X112577017Y-117407217D01*
X112558838Y-117423693D01*
X112539133Y-117438307D01*
X112518089Y-117450920D01*
X112495911Y-117461410D01*
X112472811Y-117469675D01*
X112449013Y-117475636D01*
X112424744Y-117479236D01*
X112400240Y-117480440D01*
X111150240Y-117480440D01*
X111125736Y-117479236D01*
X111101467Y-117475636D01*
X111077669Y-117469675D01*
X111054569Y-117461410D01*
X111032391Y-117450920D01*
X111011347Y-117438307D01*
X110991642Y-117423693D01*
X110973463Y-117407217D01*
X110956987Y-117389038D01*
X110942373Y-117369333D01*
X110929760Y-117348289D01*
X110919270Y-117326111D01*
X110911005Y-117303011D01*
X110905044Y-117279213D01*
X110901444Y-117254944D01*
X110900240Y-117230440D01*
X110900240Y-116305440D01*
X110901444Y-116280936D01*
X110905044Y-116256667D01*
X110911005Y-116232869D01*
X110919270Y-116209769D01*
X110929760Y-116187591D01*
X110942373Y-116166547D01*
X110956987Y-116146842D01*
X110973463Y-116128663D01*
X110991642Y-116112187D01*
X111011347Y-116097573D01*
X111032391Y-116084960D01*
X111054569Y-116074470D01*
X111077669Y-116066205D01*
X111101467Y-116060244D01*
X111125736Y-116056644D01*
X111150240Y-116055440D01*
X112400240Y-116055440D01*
X112424744Y-116056644D01*
G37*
G36*
X112424744Y-113081644D02*
G01*
X112449013Y-113085244D01*
X112472811Y-113091205D01*
X112495911Y-113099470D01*
X112518089Y-113109960D01*
X112539133Y-113122573D01*
X112558838Y-113137187D01*
X112577017Y-113153663D01*
X112593493Y-113171842D01*
X112608107Y-113191547D01*
X112620720Y-113212591D01*
X112631210Y-113234769D01*
X112639475Y-113257869D01*
X112645436Y-113281667D01*
X112649036Y-113305936D01*
X112650240Y-113330440D01*
X112650240Y-114255440D01*
X112649036Y-114279944D01*
X112645436Y-114304213D01*
X112639475Y-114328011D01*
X112631210Y-114351111D01*
X112620720Y-114373289D01*
X112608107Y-114394333D01*
X112593493Y-114414038D01*
X112577017Y-114432217D01*
X112558838Y-114448693D01*
X112539133Y-114463307D01*
X112518089Y-114475920D01*
X112495911Y-114486410D01*
X112472811Y-114494675D01*
X112449013Y-114500636D01*
X112424744Y-114504236D01*
X112400240Y-114505440D01*
X111150240Y-114505440D01*
X111125736Y-114504236D01*
X111101467Y-114500636D01*
X111077669Y-114494675D01*
X111054569Y-114486410D01*
X111032391Y-114475920D01*
X111011347Y-114463307D01*
X110991642Y-114448693D01*
X110973463Y-114432217D01*
X110956987Y-114414038D01*
X110942373Y-114394333D01*
X110929760Y-114373289D01*
X110919270Y-114351111D01*
X110911005Y-114328011D01*
X110905044Y-114304213D01*
X110901444Y-114279944D01*
X110900240Y-114255440D01*
X110900240Y-113330440D01*
X110901444Y-113305936D01*
X110905044Y-113281667D01*
X110911005Y-113257869D01*
X110919270Y-113234769D01*
X110929760Y-113212591D01*
X110942373Y-113191547D01*
X110956987Y-113171842D01*
X110973463Y-113153663D01*
X110991642Y-113137187D01*
X111011347Y-113122573D01*
X111032391Y-113109960D01*
X111054569Y-113099470D01*
X111077669Y-113091205D01*
X111101467Y-113085244D01*
X111125736Y-113081644D01*
X111150240Y-113080440D01*
X112400240Y-113080440D01*
X112424744Y-113081644D01*
G37*
G36*
X81712064Y-127640044D02*
G01*
X81736333Y-127643644D01*
X81760131Y-127649605D01*
X81783231Y-127657870D01*
X81805409Y-127668360D01*
X81826453Y-127680973D01*
X81846158Y-127695587D01*
X81864337Y-127712063D01*
X81880813Y-127730242D01*
X81895427Y-127749947D01*
X81908040Y-127770991D01*
X81918530Y-127793169D01*
X81926795Y-127816269D01*
X81932756Y-127840067D01*
X81936356Y-127864336D01*
X81937560Y-127888840D01*
X81937560Y-129138840D01*
X81936356Y-129163344D01*
X81932756Y-129187613D01*
X81926795Y-129211411D01*
X81918530Y-129234511D01*
X81908040Y-129256689D01*
X81895427Y-129277733D01*
X81880813Y-129297438D01*
X81864337Y-129315617D01*
X81846158Y-129332093D01*
X81826453Y-129346707D01*
X81805409Y-129359320D01*
X81783231Y-129369810D01*
X81760131Y-129378075D01*
X81736333Y-129384036D01*
X81712064Y-129387636D01*
X81687560Y-129388840D01*
X80762560Y-129388840D01*
X80738056Y-129387636D01*
X80713787Y-129384036D01*
X80689989Y-129378075D01*
X80666889Y-129369810D01*
X80644711Y-129359320D01*
X80623667Y-129346707D01*
X80603962Y-129332093D01*
X80585783Y-129315617D01*
X80569307Y-129297438D01*
X80554693Y-129277733D01*
X80542080Y-129256689D01*
X80531590Y-129234511D01*
X80523325Y-129211411D01*
X80517364Y-129187613D01*
X80513764Y-129163344D01*
X80512560Y-129138840D01*
X80512560Y-127888840D01*
X80513764Y-127864336D01*
X80517364Y-127840067D01*
X80523325Y-127816269D01*
X80531590Y-127793169D01*
X80542080Y-127770991D01*
X80554693Y-127749947D01*
X80569307Y-127730242D01*
X80585783Y-127712063D01*
X80603962Y-127695587D01*
X80623667Y-127680973D01*
X80644711Y-127668360D01*
X80666889Y-127657870D01*
X80689989Y-127649605D01*
X80713787Y-127643644D01*
X80738056Y-127640044D01*
X80762560Y-127638840D01*
X81687560Y-127638840D01*
X81712064Y-127640044D01*
G37*
G36*
X84687064Y-127640044D02*
G01*
X84711333Y-127643644D01*
X84735131Y-127649605D01*
X84758231Y-127657870D01*
X84780409Y-127668360D01*
X84801453Y-127680973D01*
X84821158Y-127695587D01*
X84839337Y-127712063D01*
X84855813Y-127730242D01*
X84870427Y-127749947D01*
X84883040Y-127770991D01*
X84893530Y-127793169D01*
X84901795Y-127816269D01*
X84907756Y-127840067D01*
X84911356Y-127864336D01*
X84912560Y-127888840D01*
X84912560Y-129138840D01*
X84911356Y-129163344D01*
X84907756Y-129187613D01*
X84901795Y-129211411D01*
X84893530Y-129234511D01*
X84883040Y-129256689D01*
X84870427Y-129277733D01*
X84855813Y-129297438D01*
X84839337Y-129315617D01*
X84821158Y-129332093D01*
X84801453Y-129346707D01*
X84780409Y-129359320D01*
X84758231Y-129369810D01*
X84735131Y-129378075D01*
X84711333Y-129384036D01*
X84687064Y-129387636D01*
X84662560Y-129388840D01*
X83737560Y-129388840D01*
X83713056Y-129387636D01*
X83688787Y-129384036D01*
X83664989Y-129378075D01*
X83641889Y-129369810D01*
X83619711Y-129359320D01*
X83598667Y-129346707D01*
X83578962Y-129332093D01*
X83560783Y-129315617D01*
X83544307Y-129297438D01*
X83529693Y-129277733D01*
X83517080Y-129256689D01*
X83506590Y-129234511D01*
X83498325Y-129211411D01*
X83492364Y-129187613D01*
X83488764Y-129163344D01*
X83487560Y-129138840D01*
X83487560Y-127888840D01*
X83488764Y-127864336D01*
X83492364Y-127840067D01*
X83498325Y-127816269D01*
X83506590Y-127793169D01*
X83517080Y-127770991D01*
X83529693Y-127749947D01*
X83544307Y-127730242D01*
X83560783Y-127712063D01*
X83578962Y-127695587D01*
X83598667Y-127680973D01*
X83619711Y-127668360D01*
X83641889Y-127657870D01*
X83664989Y-127649605D01*
X83688787Y-127643644D01*
X83713056Y-127640044D01*
X83737560Y-127638840D01*
X84662560Y-127638840D01*
X84687064Y-127640044D01*
G37*
M02*
