G04 #@! TF.GenerationSoftware,KiCad,Pcbnew,(5.1.9)-1*
G04 #@! TF.CreationDate,2021-04-03T17:20:52+02:00*
G04 #@! TF.ProjectId,vfo-pcb,76666f2d-7063-4622-9e6b-696361645f70,rev?*
G04 #@! TF.SameCoordinates,Original*
G04 #@! TF.FileFunction,Paste,Bot*
G04 #@! TF.FilePolarity,Positive*
%FSLAX46Y46*%
G04 Gerber Fmt 4.6, Leading zero omitted, Abs format (unit mm)*
G04 Created by KiCad (PCBNEW (5.1.9)-1) date 2021-04-03 17:20:52*
%MOMM*%
%LPD*%
G01*
G04 APERTURE LIST*
G04 APERTURE END LIST*
G36*
G01*
X131955380Y-101472640D02*
X133205380Y-101472640D01*
G75*
G02*
X133455380Y-101722640I0J-250000D01*
G01*
X133455380Y-102647640D01*
G75*
G02*
X133205380Y-102897640I-250000J0D01*
G01*
X131955380Y-102897640D01*
G75*
G02*
X131705380Y-102647640I0J250000D01*
G01*
X131705380Y-101722640D01*
G75*
G02*
X131955380Y-101472640I250000J0D01*
G01*
G37*
G36*
G01*
X131955380Y-104447640D02*
X133205380Y-104447640D01*
G75*
G02*
X133455380Y-104697640I0J-250000D01*
G01*
X133455380Y-105622640D01*
G75*
G02*
X133205380Y-105872640I-250000J0D01*
G01*
X131955380Y-105872640D01*
G75*
G02*
X131705380Y-105622640I0J250000D01*
G01*
X131705380Y-104697640D01*
G75*
G02*
X131955380Y-104447640I250000J0D01*
G01*
G37*
G36*
G01*
X143570660Y-111429640D02*
X143570660Y-112679640D01*
G75*
G02*
X143320660Y-112929640I-250000J0D01*
G01*
X142395660Y-112929640D01*
G75*
G02*
X142145660Y-112679640I0J250000D01*
G01*
X142145660Y-111429640D01*
G75*
G02*
X142395660Y-111179640I250000J0D01*
G01*
X143320660Y-111179640D01*
G75*
G02*
X143570660Y-111429640I0J-250000D01*
G01*
G37*
G36*
G01*
X146545660Y-111429640D02*
X146545660Y-112679640D01*
G75*
G02*
X146295660Y-112929640I-250000J0D01*
G01*
X145370660Y-112929640D01*
G75*
G02*
X145120660Y-112679640I0J250000D01*
G01*
X145120660Y-111429640D01*
G75*
G02*
X145370660Y-111179640I250000J0D01*
G01*
X146295660Y-111179640D01*
G75*
G02*
X146545660Y-111429640I0J-250000D01*
G01*
G37*
G36*
G01*
X46156720Y-85727840D02*
X47406720Y-85727840D01*
G75*
G02*
X47656720Y-85977840I0J-250000D01*
G01*
X47656720Y-86902840D01*
G75*
G02*
X47406720Y-87152840I-250000J0D01*
G01*
X46156720Y-87152840D01*
G75*
G02*
X45906720Y-86902840I0J250000D01*
G01*
X45906720Y-85977840D01*
G75*
G02*
X46156720Y-85727840I250000J0D01*
G01*
G37*
G36*
G01*
X46156720Y-82752840D02*
X47406720Y-82752840D01*
G75*
G02*
X47656720Y-83002840I0J-250000D01*
G01*
X47656720Y-83927840D01*
G75*
G02*
X47406720Y-84177840I-250000J0D01*
G01*
X46156720Y-84177840D01*
G75*
G02*
X45906720Y-83927840I0J250000D01*
G01*
X45906720Y-83002840D01*
G75*
G02*
X46156720Y-82752840I250000J0D01*
G01*
G37*
M02*
