G04 #@! TF.GenerationSoftware,KiCad,Pcbnew,(5.1.8)-1*
G04 #@! TF.CreationDate,2020-12-31T15:53:55+01:00*
G04 #@! TF.ProjectId,vfo-pcb,76666f2d-7063-4622-9e6b-696361645f70,rev?*
G04 #@! TF.SameCoordinates,Original*
G04 #@! TF.FileFunction,Soldermask,Bot*
G04 #@! TF.FilePolarity,Negative*
%FSLAX46Y46*%
G04 Gerber Fmt 4.6, Leading zero omitted, Abs format (unit mm)*
G04 Created by KiCad (PCBNEW (5.1.8)-1) date 2020-12-31 15:53:55*
%MOMM*%
%LPD*%
G01*
G04 APERTURE LIST*
%ADD10C,2.102000*%
%ADD11C,3.302000*%
%ADD12C,4.602880*%
%ADD13O,1.802000X1.802000*%
%ADD14C,2.902000*%
%ADD15O,2.102000X2.007000*%
%ADD16C,2.152000*%
%ADD17C,2.352000*%
G04 APERTURE END LIST*
D10*
X147610000Y-84980000D03*
G36*
G01*
X141559000Y-85980000D02*
X141559000Y-83980000D01*
G75*
G02*
X141610000Y-83929000I51000J0D01*
G01*
X143610000Y-83929000D01*
G75*
G02*
X143661000Y-83980000I0J-51000D01*
G01*
X143661000Y-85980000D01*
G75*
G02*
X143610000Y-86031000I-51000J0D01*
G01*
X141610000Y-86031000D01*
G75*
G02*
X141559000Y-85980000I0J51000D01*
G01*
G37*
X135390000Y-84980000D03*
G36*
G01*
X129339000Y-85980000D02*
X129339000Y-83980000D01*
G75*
G02*
X129390000Y-83929000I51000J0D01*
G01*
X131390000Y-83929000D01*
G75*
G02*
X131441000Y-83980000I0J-51000D01*
G01*
X131441000Y-85980000D01*
G75*
G02*
X131390000Y-86031000I-51000J0D01*
G01*
X129390000Y-86031000D01*
G75*
G02*
X129339000Y-85980000I0J51000D01*
G01*
G37*
D11*
X147005040Y-56022240D03*
D12*
X141226540Y-121701560D03*
X141226540Y-96701560D03*
D11*
X45968920Y-128361440D03*
X46248320Y-56022240D03*
X147096480Y-128361440D03*
X57171360Y-105094520D03*
X124871360Y-105094520D03*
X124871360Y-68374520D03*
X57171360Y-68374520D03*
G36*
G01*
X58563880Y-62948120D02*
X56863880Y-62948120D01*
G75*
G02*
X56812880Y-62897120I0J51000D01*
G01*
X56812880Y-61197120D01*
G75*
G02*
X56863880Y-61146120I51000J0D01*
G01*
X58563880Y-61146120D01*
G75*
G02*
X58614880Y-61197120I0J-51000D01*
G01*
X58614880Y-62897120D01*
G75*
G02*
X58563880Y-62948120I-51000J0D01*
G01*
G37*
D13*
X60253880Y-62047120D03*
X62793880Y-62047120D03*
X65333880Y-62047120D03*
X67873880Y-62047120D03*
X70413880Y-62047120D03*
X72953880Y-62047120D03*
G36*
G01*
X131922274Y-101421640D02*
X133238486Y-101421640D01*
G75*
G02*
X133506380Y-101689534I0J-267894D01*
G01*
X133506380Y-102680746D01*
G75*
G02*
X133238486Y-102948640I-267894J0D01*
G01*
X131922274Y-102948640D01*
G75*
G02*
X131654380Y-102680746I0J267894D01*
G01*
X131654380Y-101689534D01*
G75*
G02*
X131922274Y-101421640I267894J0D01*
G01*
G37*
G36*
G01*
X131922274Y-104396640D02*
X133238486Y-104396640D01*
G75*
G02*
X133506380Y-104664534I0J-267894D01*
G01*
X133506380Y-105655746D01*
G75*
G02*
X133238486Y-105923640I-267894J0D01*
G01*
X131922274Y-105923640D01*
G75*
G02*
X131654380Y-105655746I0J267894D01*
G01*
X131654380Y-104664534D01*
G75*
G02*
X131922274Y-104396640I267894J0D01*
G01*
G37*
G36*
G01*
X143621660Y-111396534D02*
X143621660Y-112712746D01*
G75*
G02*
X143353766Y-112980640I-267894J0D01*
G01*
X142362554Y-112980640D01*
G75*
G02*
X142094660Y-112712746I0J267894D01*
G01*
X142094660Y-111396534D01*
G75*
G02*
X142362554Y-111128640I267894J0D01*
G01*
X143353766Y-111128640D01*
G75*
G02*
X143621660Y-111396534I0J-267894D01*
G01*
G37*
G36*
G01*
X146596660Y-111396534D02*
X146596660Y-112712746D01*
G75*
G02*
X146328766Y-112980640I-267894J0D01*
G01*
X145337554Y-112980640D01*
G75*
G02*
X145069660Y-112712746I0J267894D01*
G01*
X145069660Y-111396534D01*
G75*
G02*
X145337554Y-111128640I267894J0D01*
G01*
X146328766Y-111128640D01*
G75*
G02*
X146596660Y-111396534I0J-267894D01*
G01*
G37*
X112323880Y-98983800D03*
X109783880Y-98983800D03*
X107243880Y-98983800D03*
X104703880Y-98983800D03*
X102163880Y-98983800D03*
X99623880Y-98983800D03*
X97083880Y-98983800D03*
X94543880Y-98983800D03*
X92003880Y-98983800D03*
X89463880Y-98983800D03*
X86923880Y-98983800D03*
X84383880Y-98983800D03*
X81843880Y-98983800D03*
X79303880Y-98983800D03*
X76763880Y-98983800D03*
X74223880Y-98983800D03*
X71683880Y-98983800D03*
X69143880Y-98983800D03*
G36*
G01*
X67453880Y-99884800D02*
X65753880Y-99884800D01*
G75*
G02*
X65702880Y-99833800I0J51000D01*
G01*
X65702880Y-98133800D01*
G75*
G02*
X65753880Y-98082800I51000J0D01*
G01*
X67453880Y-98082800D01*
G75*
G02*
X67504880Y-98133800I0J-51000D01*
G01*
X67504880Y-99833800D01*
G75*
G02*
X67453880Y-99884800I-51000J0D01*
G01*
G37*
G36*
G01*
X67453880Y-74884800D02*
X65753880Y-74884800D01*
G75*
G02*
X65702880Y-74833800I0J51000D01*
G01*
X65702880Y-73133800D01*
G75*
G02*
X65753880Y-73082800I51000J0D01*
G01*
X67453880Y-73082800D01*
G75*
G02*
X67504880Y-73133800I0J-51000D01*
G01*
X67504880Y-74833800D01*
G75*
G02*
X67453880Y-74884800I-51000J0D01*
G01*
G37*
X69143880Y-73983800D03*
X71683880Y-73983800D03*
X74223880Y-73983800D03*
X76763880Y-73983800D03*
X79303880Y-73983800D03*
X81843880Y-73983800D03*
X84383880Y-73983800D03*
X86923880Y-73983800D03*
X89463880Y-73983800D03*
X92003880Y-73983800D03*
X94543880Y-73983800D03*
X97083880Y-73983800D03*
X99623880Y-73983800D03*
X102163880Y-73983800D03*
X104703880Y-73983800D03*
X107243880Y-73983800D03*
X109783880Y-73983800D03*
X112323880Y-73983800D03*
G36*
G01*
X103095400Y-60998560D02*
X103095400Y-58198560D01*
G75*
G02*
X103146400Y-58147560I51000J0D01*
G01*
X105946400Y-58147560D01*
G75*
G02*
X105997400Y-58198560I0J-51000D01*
G01*
X105997400Y-60998560D01*
G75*
G02*
X105946400Y-61049560I-51000J0D01*
G01*
X103146400Y-61049560D01*
G75*
G02*
X103095400Y-60998560I0J51000D01*
G01*
G37*
D14*
X109546400Y-59598560D03*
X84908400Y-59598560D03*
G36*
G01*
X78457400Y-60998560D02*
X78457400Y-58198560D01*
G75*
G02*
X78508400Y-58147560I51000J0D01*
G01*
X81308400Y-58147560D01*
G75*
G02*
X81359400Y-58198560I0J-51000D01*
G01*
X81359400Y-60998560D01*
G75*
G02*
X81308400Y-61049560I-51000J0D01*
G01*
X78508400Y-61049560D01*
G75*
G02*
X78457400Y-60998560I0J51000D01*
G01*
G37*
G36*
G01*
X51260440Y-104085760D02*
X51260440Y-102385760D01*
G75*
G02*
X51311440Y-102334760I51000J0D01*
G01*
X53011440Y-102334760D01*
G75*
G02*
X53062440Y-102385760I0J-51000D01*
G01*
X53062440Y-104085760D01*
G75*
G02*
X53011440Y-104136760I-51000J0D01*
G01*
X51311440Y-104136760D01*
G75*
G02*
X51260440Y-104085760I0J51000D01*
G01*
G37*
D13*
X52161440Y-100695760D03*
X52161440Y-98155760D03*
X52161440Y-95615760D03*
X52161440Y-93075760D03*
X52161440Y-90535760D03*
X52161440Y-87995760D03*
X52161440Y-85455760D03*
X52161440Y-82915760D03*
X52161440Y-80375760D03*
X52161440Y-77835760D03*
X52161440Y-75295760D03*
X52161440Y-72755760D03*
X52161440Y-70215760D03*
G36*
G01*
X145378880Y-68936360D02*
X145378880Y-70936360D01*
G75*
G02*
X145327880Y-70987360I-51000J0D01*
G01*
X143327880Y-70987360D01*
G75*
G02*
X143276880Y-70936360I0J51000D01*
G01*
X143276880Y-68936360D01*
G75*
G02*
X143327880Y-68885360I51000J0D01*
G01*
X145327880Y-68885360D01*
G75*
G02*
X145378880Y-68936360I0J-51000D01*
G01*
G37*
D10*
X144327880Y-72436360D03*
X144327880Y-74936360D03*
G36*
G01*
X138478880Y-65836360D02*
X138478880Y-67836360D01*
G75*
G02*
X138427880Y-67887360I-51000J0D01*
G01*
X135227880Y-67887360D01*
G75*
G02*
X135176880Y-67836360I0J51000D01*
G01*
X135176880Y-65836360D01*
G75*
G02*
X135227880Y-65785360I51000J0D01*
G01*
X138427880Y-65785360D01*
G75*
G02*
X138478880Y-65836360I0J-51000D01*
G01*
G37*
G36*
G01*
X138478880Y-77036360D02*
X138478880Y-79036360D01*
G75*
G02*
X138427880Y-79087360I-51000J0D01*
G01*
X135227880Y-79087360D01*
G75*
G02*
X135176880Y-79036360I0J51000D01*
G01*
X135176880Y-77036360D01*
G75*
G02*
X135227880Y-76985360I51000J0D01*
G01*
X138427880Y-76985360D01*
G75*
G02*
X138478880Y-77036360I0J-51000D01*
G01*
G37*
X129827880Y-69936360D03*
X129827880Y-74936360D03*
D14*
X97572840Y-59598560D03*
G36*
G01*
X91121840Y-60998560D02*
X91121840Y-58198560D01*
G75*
G02*
X91172840Y-58147560I51000J0D01*
G01*
X93972840Y-58147560D01*
G75*
G02*
X94023840Y-58198560I0J-51000D01*
G01*
X94023840Y-60998560D01*
G75*
G02*
X93972840Y-61049560I-51000J0D01*
G01*
X91172840Y-61049560D01*
G75*
G02*
X91121840Y-60998560I0J51000D01*
G01*
G37*
G36*
G01*
X116247520Y-61100160D02*
X116247520Y-58300160D01*
G75*
G02*
X116298520Y-58249160I51000J0D01*
G01*
X119098520Y-58249160D01*
G75*
G02*
X119149520Y-58300160I0J-51000D01*
G01*
X119149520Y-61100160D01*
G75*
G02*
X119098520Y-61151160I-51000J0D01*
G01*
X116298520Y-61151160D01*
G75*
G02*
X116247520Y-61100160I0J51000D01*
G01*
G37*
X122698520Y-59700160D03*
G36*
G01*
X136213340Y-105651100D02*
X138213340Y-105651100D01*
G75*
G02*
X138264340Y-105702100I0J-51000D01*
G01*
X138264340Y-107607100D01*
G75*
G02*
X138213340Y-107658100I-51000J0D01*
G01*
X136213340Y-107658100D01*
G75*
G02*
X136162340Y-107607100I0J51000D01*
G01*
X136162340Y-105702100D01*
G75*
G02*
X136213340Y-105651100I51000J0D01*
G01*
G37*
D15*
X137213340Y-109194600D03*
X137213340Y-111734600D03*
G36*
G01*
X75642840Y-69892480D02*
X73942840Y-69892480D01*
G75*
G02*
X73891840Y-69841480I0J51000D01*
G01*
X73891840Y-68141480D01*
G75*
G02*
X73942840Y-68090480I51000J0D01*
G01*
X75642840Y-68090480D01*
G75*
G02*
X75693840Y-68141480I0J-51000D01*
G01*
X75693840Y-69841480D01*
G75*
G02*
X75642840Y-69892480I-51000J0D01*
G01*
G37*
D13*
X77332840Y-68991480D03*
X79872840Y-68991480D03*
X82412840Y-68991480D03*
X84952840Y-68991480D03*
X87492840Y-68991480D03*
X90032840Y-68991480D03*
G36*
G01*
X46123614Y-85676840D02*
X47439826Y-85676840D01*
G75*
G02*
X47707720Y-85944734I0J-267894D01*
G01*
X47707720Y-86935946D01*
G75*
G02*
X47439826Y-87203840I-267894J0D01*
G01*
X46123614Y-87203840D01*
G75*
G02*
X45855720Y-86935946I0J267894D01*
G01*
X45855720Y-85944734D01*
G75*
G02*
X46123614Y-85676840I267894J0D01*
G01*
G37*
G36*
G01*
X46123614Y-82701840D02*
X47439826Y-82701840D01*
G75*
G02*
X47707720Y-82969734I0J-267894D01*
G01*
X47707720Y-83960946D01*
G75*
G02*
X47439826Y-84228840I-267894J0D01*
G01*
X46123614Y-84228840D01*
G75*
G02*
X45855720Y-83960946I0J267894D01*
G01*
X45855720Y-82969734D01*
G75*
G02*
X46123614Y-82701840I267894J0D01*
G01*
G37*
D16*
X123489720Y-125712220D03*
D17*
X126029720Y-128252220D03*
X126029720Y-123172220D03*
X120949720Y-123172220D03*
X120949720Y-128252220D03*
D16*
X111114840Y-125712220D03*
D17*
X113654840Y-128252220D03*
X113654840Y-123172220D03*
X108574840Y-123172220D03*
X108574840Y-128252220D03*
D16*
X97025000Y-125750000D03*
D17*
X99565000Y-128290000D03*
X99565000Y-123210000D03*
X94485000Y-123210000D03*
X94485000Y-128290000D03*
X80465168Y-128252220D03*
X80465168Y-123172220D03*
X85545168Y-123172220D03*
X85545168Y-128252220D03*
D16*
X83005168Y-125712220D03*
D17*
X67044824Y-128252220D03*
X67044824Y-123172220D03*
X72124824Y-123172220D03*
X72124824Y-128252220D03*
D16*
X69584824Y-125712220D03*
D17*
X53604160Y-128252220D03*
X53604160Y-123172220D03*
X58684160Y-123172220D03*
X58684160Y-128252220D03*
D16*
X56144160Y-125712220D03*
M02*
